<svg xmlns="http://www.w3.org/2000/svg" xml:space="preserve" viewBox="0 0 48 48"><path d="M44.631 35.207a8.072 8.072 0 0 1-.03.53c-.35 3.922-3.48 6.725-8.057 6.725H29.31c-4.358.028-7.929.118-13.262-.609-12.611-1.719-15.17-11.596-5.49-20.918 3.713-3.578 7.945-6.574 11.94-9.572 1.208-.907 2.555-1.954 2.572-2.564.014-.507-.358-.599-1.132-.82-3.967-1.135-9.166-1.356-13.346-1.14-1.386.072-1.902.119-1.796-.281C16.852 3.36 26.359 2.459 28.994 4.54c3.16 2.495 2.597 5.616 1.237 7.826-1.763 2.865-3.918 4.965-6.354 7.252-2.94 2.762-6.69 6.673-8.441 9.327-.392.595-.85 1.75.052 1.838 3.969.391 8.068.196 12.173-.904 3.505-.94 6.991-2.5 9.816-2.364 2.362.113 4.409 1.27 5.702 3.025m-2.056 5.992c-.633.084-1.268.27-1.818.598-.214.137-.263.433-.209.665.136.328.437.548.715.75.29.19.603.392.96.406.221-.016.463-.125.55-.343.202-.366.291-.781.37-1.188.049-.268.051-.611-.203-.78a.632.632 0 0 0-.365-.108zm-2.597-.36a2.963 2.963 0 0 1-2.962 2.962 2.963 2.963 0 0 1-2.963-2.962 2.963 2.963 0 0 1 2.963-2.963 2.963 2.963 0 0 1 2.962 2.963zm6.974-2.95a2.704 2.704 0 0 1-2.704 2.703 2.704 2.704 0 0 1-2.704-2.704 2.704 2.704 0 0 1 2.704-2.704 2.704 2.704 0 0 1 2.704 2.704zM34.862 42.5a21.47 21.47 0 0 1-10.893 2.968 21.47 21.47 0 0 1-14.55-5.683m-4.652-6.183A21.47 21.47 0 0 1 2.5 24a21.47 21.47 0 0 1 8.657-17.227m3.49-2.112a21.47 21.47 0 0 1 9.322-2.13A21.47 21.47 0 0 1 45.44 24a21.47 21.47 0 0 1-1.158 6.955" style="fill:none;stroke:#fff;stroke-width:1stroke-linecap:round;stroke-linejoin:round;stroke-opacity:1"/></svg>