<?xml version="1.0" encoding="UTF-8" standalone="no"?>
<!-- Created with Inkscape (http://www.inkscape.org/) -->

<svg
   width="48"
   height="48"
   viewBox="0 0 48 48"
   version="1.1"
   id="svg990"
   inkscape:version="1.2.2 (b0a8486541, 2022-12-01)"
   xml:space="preserve"
   sodipodi:docname="inware.svg"
   xmlns:inkscape="http://www.inkscape.org/namespaces/inkscape"
   xmlns:sodipodi="http://sodipodi.sourceforge.net/DTD/sodipodi-0.dtd"
   xmlns="http://www.w3.org/2000/svg"
   xmlns:svg="http://www.w3.org/2000/svg"><sodipodi:namedview
     id="namedview992"
     pagecolor="#858585"
     bordercolor="#000000"
     borderopacity="0.25"
     inkscape:showpageshadow="2"
     inkscape:pageopacity="0"
     inkscape:pagecheckerboard="0"
     inkscape:deskcolor="#d1d1d1"
     inkscape:document-units="px"
     showgrid="false"
     inkscape:zoom="11.645833"
     inkscape:cx="15.627907"
     inkscape:cy="24.042934"
     inkscape:window-width="1366"
     inkscape:window-height="737"
     inkscape:window-x="0"
     inkscape:window-y="0"
     inkscape:window-maximized="1"
     inkscape:current-layer="svg990" /><defs
     id="defs987"><style
       id="style1174">.a{fill:none;stroke:#fff;stroke-linecap:round;stroke-linejoin:round;}</style></defs><path
     id="path8775"
     style="fill:none;stroke:#ffffff;stroke-width:1.00009;stroke-linecap:round;stroke-linejoin:round;stop-color:#000000"
     d="M 29.13275,24.000002 A 5.1327496,5.1327496 0 0 1 24,29.132751 5.1327496,5.1327496 0 0 1 18.86725,24.000002 5.1327496,5.1327496 0 0 1 24,18.867252 a 5.1327496,5.1327496 0 0 1 5.13275,5.13275 z M 15.896161,11.548757 h 16.20768 c 2.408462,0 4.347404,1.938942 4.347404,4.347404 v 16.20768 c 0,2.408462 -1.938942,4.347404 -4.347404,4.347404 h -16.20768 c -2.408462,0 -4.347404,-1.938942 -4.347404,-4.347404 v -16.20768 c 0,-2.408462 1.938942,-4.347404 4.347404,-4.347404 z m 26.603797,16.805031 h -6.048496 m -24.902923,0 H 5.5000432 M 42.499958,19.646214 h -6.048496 m -24.902923,0 H 5.5000432 M 28.353788,5.5000433 v 6.0484957 m 0,24.902924 v 6.048495 M 19.646213,5.5000433 v 6.0484957 m 0,24.902924 v 6.048495" /></svg>
