<?xml version="1.0" encoding="UTF-8" standalone="no"?>
<!-- Created with Inkscape (http://www.inkscape.org/) -->

<svg
   width="48"
   height="48"
   viewBox="0 0 48 48"
   version="1.1"
   id="svg990"
   inkscape:version="1.2.2 (b0a8486541, 2022-12-01)"
   xml:space="preserve"
   sodipodi:docname="jaw_exercises.svg"
   xmlns:inkscape="http://www.inkscape.org/namespaces/inkscape"
   xmlns:sodipodi="http://sodipodi.sourceforge.net/DTD/sodipodi-0.dtd"
   xmlns="http://www.w3.org/2000/svg"
   xmlns:svg="http://www.w3.org/2000/svg"><sodipodi:namedview
     id="namedview992"
     pagecolor="#858585"
     bordercolor="#000000"
     borderopacity="0.25"
     inkscape:showpageshadow="2"
     inkscape:pageopacity="0"
     inkscape:pagecheckerboard="0"
     inkscape:deskcolor="#d1d1d1"
     inkscape:document-units="px"
     showgrid="false"
     inkscape:zoom="8"
     inkscape:cx="38.5"
     inkscape:cy="17.875"
     inkscape:window-width="1366"
     inkscape:window-height="737"
     inkscape:window-x="0"
     inkscape:window-y="0"
     inkscape:window-maximized="1"
     inkscape:current-layer="svg990" /><defs
     id="defs987"><style
   id="style1174">.a{fill:none;stroke:#fff;stroke-linecap:round;stroke-linejoin:round;}</style>
		
		
		
	
		
		
	
			
		</defs><path
     id="path12282"
     style="fill:none;stroke:#ffffff;stroke-width:1;stroke-linecap:round;stroke-linejoin:round;stroke-miterlimit:10;stroke-dasharray:none;stroke-opacity:1"
     class="st5"
     d="m 38.242096,13.721836 v 0 c -0.926552,0 -1.667796,-0.741242 -1.667796,-1.606025 v -1.667796 c 0,-0.9265531 0.741244,-1.6060253 1.606026,-1.6060253 v 0 c 0.926553,0 1.606025,0.7412424 1.606025,1.6060253 v 1.667796 c 0.123541,0.926553 -0.617702,1.606025 -1.544255,1.606025 z m 1.235403,-4.3239143 -2.470807,3.7679833 m -3.854719,-1.914877 h 0.926553 M 32.348958,9.1508408 c 0.370621,-0.308851 0.741243,-0.4323915 1.544254,-0.4323915 h 0.185313 c 0.679471,0 1.235402,0.5559319 1.235402,1.2354042 v 0 c 0,0.6794725 -0.555931,1.2354045 -1.235402,1.2354045 m -1.729567,2.100187 c 0.370621,0.30885 0.679472,0.432391 1.544254,0.432391 h 0.185313 c 0.679471,0 1.235402,-0.555932 1.235402,-1.235404 v 0 c 0,-0.679472 -0.555931,-1.235404 -1.235402,-1.235404 m 7.548713,-0.03088 a 5.5531539,5.5531539 0 0 0 -5.553154,-5.5531542 5.5531539,5.5531539 0 0 0 -5.553154,5.5531542 5.5531539,5.5531539 0 0 0 5.553154,5.553154 5.5531539,5.5531539 0 0 0 5.553154,-5.553154 z m -4.745227,17.604173 c 0.201201,2.605367 -1.98275,3.883543 -5.419535,4.816958 l 0.282684,1.116749 -4.473646,-1.682299 3.899699,-2.783128 0.06634,1.407523 c 3.120091,-0.04302 4.522378,-1.355855 5.644462,-2.875803 z M 8.7414052,11.525679 c 0.3824992,1.50041 0.9144226,2.836198 2.2069268,3.334049 1.386996,-0.270687 2.685764,-0.0872 3.882137,0.623399 1.404672,0.666316 2.641107,0.187815 3.87157,-0.331319 2.22056,0.576135 2.737163,0.03825 3.728836,-0.18903 0.556829,0.353307 1.081203,0.660776 1.983824,0.938383 0.835475,0.256957 0.501012,1.251546 0.588689,1.965609 M 10.948332,14.859728 c -0.367305,0.652817 -0.827635,1.319178 -1.5493085,2.023577 -0.076653,0.752807 -0.2677239,1.174353 -0.4493995,1.623099 0.115956,0.599924 0.032844,1.118837 0.2983612,1.774695 0.3174288,1.724856 -1.2404847,2.16306 -0.022896,6.009839 C 8.7071085,24.072893 7.1164898,22.14137 7.5566443,19.336329 L 6.3727118,19.250141 C 7.3960334,18.019015 6.6969552,16.276625 6.4829919,14.626868 6.2787308,13.051918 6.7584925,11.803557 8.7414052,11.525679 7.7366039,9.2085815 10.810577,5.8135486 16.074507,6.1241039 c 1.110368,-0.56109 2.322929,-1.0196756 3.628696,-0.1069789 1.783935,-0.096826 2.311283,-0.00925 3.506097,1.0233068 1.194393,1.0321952 1.769976,0.4380032 2.536714,0.4238498 0.426,0.8621349 0.157915,1.6100723 -0.03463,1.9140339 0.865482,0.7716665 2.134401,0.7762445 2.270051,3.1289495 0.07408,1.284646 0.3831,2.175541 1.007439,2.866491 -0.464483,0.07182 -0.901086,0.21804 -1.48601,-0.03153 0.03994,1.505133 0.316922,2.977153 -0.265716,4.569253 0.02421,1.231848 0.06115,2.467157 -0.601502,3.512429 l -1.185033,2.43275 c 0.578379,-1.247087 0.705836,-2.559079 0.117259,-3.851783 -0.426288,-0.936265 -0.270217,-1.465326 -0.07227,-2.068704 0.320215,-0.97604 -0.159325,-1.458086 -0.492225,-2.069405 m -0.757589,16.355157 c -0.207436,0.254437 -0.476355,0.508148 -0.822715,0.753354 -0.165467,0.149541 -0.349297,0.307868 -0.539477,0.469736 m 0,0 c -0.765319,0.651393 -1.633447,1.36012 -1.821341,1.784225 -0.633596,1.430129 -1.803654,1.28114 -2.558807,1.324205 h -2.629892 c -0.755154,-0.04306 -1.925212,0.105928 -2.558809,-1.324201 -0.187893,-0.424105 -1.056021,-1.132832 -1.82134,-1.784225 M 25.850231,24.839138 c 0,0 0.137034,0.520548 0.115569,1.04461 -0.04533,1.106989 -0.908947,3.176889 -0.908947,3.176889 l -1.839395,2.874031 -0.333852,3.510349 m 2.135973,-5.578035 -0.124608,2.695585 c -0.02291,0.495435 -0.176253,1.079284 -0.649174,1.65936 l 0.162574,4.535392 c 0.05346,1.491687 1.226298,2.679873 2.968146,3.742751 m -2.319664,-13.439433 -0.03728,0.806345 c 0.520455,-0.272052 1.117008,-0.345592 1.3607,-1.339627 1.043216,-1.526902 0.62142,-2.16867 0.720742,-3.193894 0.05214,-0.538215 -0.02861,-1.082035 -0.01828,-1.621555 0.0061,-0.31411 -0.0288,-0.258003 -0.472923,-0.321146 M 10.131216,34.221927 c 0.207436,0.254437 0.476354,0.508148 0.822715,0.753354 0.165466,0.149541 0.349297,0.307868 0.539476,0.469736 m -2.8795,-11.039709 c 0,0 -0.2241583,0.954378 -0.2026929,1.47844 0.045342,1.106989 0.9089456,3.176889 0.9089456,3.176889 l 1.8393963,2.874031 0.333851,3.510349 M 9.3574341,29.866982 9.482041,32.562567 c 0.022902,0.495435 0.1762542,1.079284 0.649175,1.65936 l -0.1625738,4.535392 c -0.053471,1.491687 -1.2262975,2.679873 -2.968146,3.742751 m 2.3196635,-13.439433 0.037275,0.806345 C 8.8369794,29.59493 8.2404262,29.52139 7.9967347,28.527355 6.9535185,27.000453 7.3753151,26.358685 7.2759924,25.333461 c -0.052142,-0.538215 0.028603,-1.082035 0.018281,-1.621555 -0.00602,-0.31411 0.3272861,-0.434101 0.7714206,-0.497245" /></svg>
