<?xml version="1.0" encoding="UTF-8" standalone="no"?>
<!-- Created with Inkscape (http://www.inkscape.org/) -->

<svg
   width="48"
   height="48"
   viewBox="0 0 48 48"
   version="1.1"
   id="svg990"
   inkscape:version="1.2.2 (b0a8486541, 2022-12-01)"
   xml:space="preserve"
   sodipodi:docname="mvg_fahrinfo.svg"
   xmlns:inkscape="http://www.inkscape.org/namespaces/inkscape"
   xmlns:sodipodi="http://sodipodi.sourceforge.net/DTD/sodipodi-0.dtd"
   xmlns="http://www.w3.org/2000/svg"
   xmlns:svg="http://www.w3.org/2000/svg"><sodipodi:namedview
     id="namedview992"
     pagecolor="#858585"
     bordercolor="#000000"
     borderopacity="0.25"
     inkscape:showpageshadow="2"
     inkscape:pageopacity="0"
     inkscape:pagecheckerboard="0"
     inkscape:deskcolor="#d1d1d1"
     inkscape:document-units="px"
     showgrid="false"
     inkscape:zoom="11.645833"
     inkscape:cx="15.627907"
     inkscape:cy="24.042934"
     inkscape:window-width="1366"
     inkscape:window-height="737"
     inkscape:window-x="0"
     inkscape:window-y="0"
     inkscape:window-maximized="1"
     inkscape:current-layer="svg990" /><defs
     id="defs987"><style
   id="style1174">.a{fill:none;stroke:#fff;stroke-linecap:round;stroke-linejoin:round;}</style>
		
		
	
		
	
		
	
		
		
	
		
		
	
		
		
		
	
		
		
	
			
		
			
		</defs><path
     id="line6059"
     style="fill:none;stroke:#ffffff;stroke-linecap:round;stroke-linejoin:round;stroke-miterlimit:10"
     class="st5"
     d="m 14.475565,36.10717 v -2.918381 m 0,1.837501 c 0,0.594485 -0.486397,1.080882 -1.080882,1.080882 v 0 c -0.594485,0 -1.080882,-0.486397 -1.080882,-1.080882 v -0.702574 c 0,-0.594485 0.486397,-1.080882 1.080882,-1.080882 v 0 c 0.594485,0 1.080882,0.486397 1.080882,1.080882 m -4.256964,-1.134923 v 2.918377 m 0,-1.837496 c 0,-0.594485 0.486397,-1.080882 1.080882,-1.080882 v 0 m 6.852162,1.080882 c 0,-0.594485 0.486397,-1.080882 1.080882,-1.080882 v 0 c 0.594486,0 1.080883,0.486397 1.080883,1.080882 v 1.783456 m -4.323528,-2.864337 v 2.918377 m -10e-7,-1.837496 c 0,-0.594485 0.486397,-1.080882 1.080882,-1.080882 v 0 c 0.594485,0 1.080882,0.486397 1.080882,1.080882 v 1.783456 m -9.5525115,0.05404 v -4.323526 m -1.4051504,0 h 2.8102999 m 20.008582,6.495822 c 0.699045,0.838854 1.537898,1.258281 2.796179,1.258281 h 1.677707 c 1.537898,0 2.796179,-1.258281 2.796179,-2.796179 v 0 c 0,-1.537898 -1.258281,-2.796179 -2.796179,-2.796179 h -1.817516 c -1.537899,0 -2.796179,-1.25828 -2.796179,-2.796179 v 0 c 0,-1.537898 1.25828,-2.796178 2.796179,-2.796178 h 1.677707 c 1.25828,0 2.097134,0.279617 2.796179,1.25828 M 29.015465,14.05461 h -2.180851 m 2.180852,0 c 0.70557,0 1.282854,0.577284 1.282854,1.282854 0,0.70557 -0.577284,1.282854 -1.282854,1.282854 h -2.11671 v -5.131417 h 2.11671 c 0.70557,0 1.282854,0.577284 1.282854,1.282854 0,0.70557 -0.577284,1.282855 -1.282854,1.282855 z m 2.926887,-2.56571 v 3.399564 c 0,0.962142 0.769712,1.731854 1.667711,1.731854 0.897998,0 1.66771,-0.769712 1.66771,-1.731854 V 11.4889 m 1.708176,4.554134 c 0.320713,0.384856 0.705569,0.577284 1.282854,0.577284 h 0.769712 c 0.70557,0 1.282855,-0.577284 1.282855,-1.282854 v 0 c 0,-0.70557 -0.577285,-1.282854 -1.282855,-1.282854 h -0.833855 c -0.70557,0 -1.282854,-0.577285 -1.282854,-1.282855 v 0 c 0,-0.70557 0.577284,-1.282854 1.282854,-1.282854 h 0.769713 c 0.577284,0 0.96214,0.128285 1.282854,0.577284 m 1.875311,21.879204 a 8.5545473,8.5545473 0 0 1 -8.554548,8.554547 8.5545473,8.5545473 0 0 1 -8.554547,-8.554547 8.5545473,8.5545473 0 0 1 8.554547,-8.554548 8.5545473,8.5545473 0 0 1 8.554548,8.554548 z M 10.011377,25.909065 h 7.784643 c 2.295729,0 4.143915,1.848187 4.143915,4.143916 v 7.784854 c 0,2.295729 -1.848186,4.143915 -4.143915,4.143915 h -7.784643 c -2.2957289,0 -4.1439153,-1.848186 -4.1439153,-4.143915 v -7.784854 c 0,-2.295729 1.8481864,-4.143916 4.1439153,-4.143916 z M 42.132539,14.054609 a 8.5545473,8.5545473 0 0 1 -8.554548,8.554548 8.5545473,8.5545473 0 0 1 -8.554547,-8.554548 8.5545473,8.5545473 0 0 1 8.554547,-8.554547 8.5545473,8.5545473 0 0 1 8.554548,8.554547 z M 10.82536,9.3187068 v 6.2750722 c 0,1.775964 1.420772,3.196735 3.078338,3.196735 1.657566,0 3.078337,-1.420771 3.078337,-3.196735 V 9.3187068 M 10.011377,6.0182676 h 7.784643 c 2.295729,0 4.143915,1.8481864 4.143915,4.1439154 v 7.784854 c 0,2.295729 -1.848186,4.143916 -4.143915,4.143916 h -7.784643 c -2.2957289,0 -4.1439153,-1.848187 -4.1439153,-4.143916 v -7.784854 c 0,-2.295729 1.8481864,-4.1439154 4.1439153,-4.1439154 z" /></svg>
