<?xml version="1.0" encoding="UTF-8" standalone="no"?>
<!-- Created with Inkscape (http://www.inkscape.org/) -->

<svg
   width="48"
   height="48"
   viewBox="0 0 48 48"
   version="1.1"
   id="svg990"
   inkscape:version="1.2.2 (b0a8486541, 2022-12-01)"
   xml:space="preserve"
   sodipodi:docname="photoprism_gallery.svg"
   xmlns:inkscape="http://www.inkscape.org/namespaces/inkscape"
   xmlns:sodipodi="http://sodipodi.sourceforge.net/DTD/sodipodi-0.dtd"
   xmlns="http://www.w3.org/2000/svg"
   xmlns:svg="http://www.w3.org/2000/svg"><sodipodi:namedview
     id="namedview992"
     pagecolor="#858585"
     bordercolor="#000000"
     borderopacity="0.25"
     inkscape:showpageshadow="2"
     inkscape:pageopacity="0"
     inkscape:pagecheckerboard="0"
     inkscape:deskcolor="#d1d1d1"
     inkscape:document-units="px"
     showgrid="false"
     inkscape:zoom="5.6568542"
     inkscape:cx="10.253048"
     inkscape:cy="34.294679"
     inkscape:window-width="1366"
     inkscape:window-height="737"
     inkscape:window-x="0"
     inkscape:window-y="0"
     inkscape:window-maximized="1"
     inkscape:current-layer="svg990" /><defs
     id="defs987"><style
       id="style1174">.a{fill:none;stroke:#fff;stroke-linecap:round;stroke-linejoin:round;}</style></defs><path
     id="path1293"
     style="fill:none;stroke:#ffffff;stroke-width:1;stroke-linecap:round;stroke-linejoin:round;stroke-dasharray:none;stroke-opacity:1;stop-color:#000000"
     d="m 21.778943,14.002332 c 3.882717,-2.061367 8.872718,-3.679318 14.386566,-4.4008464 m 2.988098,3.8178314 c -0.762941,4.309069 -2.370291,8.896534 -5.341946,13.298208 3.043583,-4.68255 2.892542,-10.638872 2.353848,-17.1160394 l 2.988098,3.8178314 c -7.03729,-1.600906 -12.007656,-1.8182 -17.374664,0.583015 m -0.05059,-7.5039352 6.054098,-0.99839 C 21.65462,9.5470037 17.025929,14.047756 14.996048,19.255993 M 14.034756,7.958249 10.28182,12.89207 m 18.95204,19.810655 c -1.540211,0.935123 -3.34795,1.473568 -5.28145,1.473568 M 27.782449,5.5000068 C 30.788442,9.6645563 32.858887,15.291851 33.516518,20.092749 30.099036,12.879812 20.295045,9.070819 14.034756,7.958249 12.734134,14.309016 12.867437,20.091957 13.877281,25.527792 M 33.516518,20.092749 C 30.996111,11.852485 17.661611,12.017631 10.28182,12.89207 m 0,0 c 0.732316,4.565358 1.82552,8.734575 3.595461,12.635722 -0.07639,-0.503072 -0.115996,-1.018223 -0.115996,-1.542624 0,-2.612893 0.983324,-4.996118 2.6001,-6.799802 m 0,0 c 1.865903,-2.081613 4.575514,-3.391324 7.591025,-3.391324 -6.090457,-0.612684 -12.250404,2.258879 -17.8140152,5.731735 M 5.8227343,26.746049 C 10.580028,30.032455 16.53792,34.033941 23.95241,34.176293 M 6.1383948,19.525777 5.8227343,26.746049 c 3.11461,-4.023447 6.8310047,-7.228162 10.5386507,-9.560683 m 4.757629,16.591875 C 18.657706,33.066306 16.579435,31.452506 15.266092,29.317728 10.790695,26.198077 8.6619572,23.337112 6.1383948,19.525777 M 31.10991,31.239772 c -0.564713,0.5572 -1.194163,1.048951 -1.87605,1.462953 -3.940344,3.00938 -9.300932,5.076833 -15.737584,5.820131 m 0,0 -4.7839863,-5.384218 m 0,0 C 10.418037,26.851492 12.051579,22.006254 16.361385,17.185366 m -2.484104,8.342426 c -0.760032,4.388393 -0.867024,8.073319 -0.381005,12.995064 M 23.95241,34.176293 c -0.983198,0 -1.933876,-0.13923 -2.833396,-0.399052 -2.256156,1.014787 -8.361423,0.306699 -12.4067243,-0.638603 m 17.4565843,9.361355 -5.894516,-1.326976 m 0,0 c -2.75027,-4.172001 -4.881867,-7.917782 -5.008266,-11.855289 m 18.877444,-5.33256 c 0,2.838897 -1.160789,5.406679 -3.033626,7.254604 -3.483161,3.363245 -5.855988,7.176559 -10.835552,9.933245 M 13.877281,25.527792 c 0.208379,1.37234 0.690455,2.654791 1.388811,3.789936 2.706324,4.7348 5.631695,9.050117 10.902782,13.182265 m 13.040832,-7.304803 -5.125687,3.408482 m 0,0 C 29.044968,37.651056 25.149208,35.652665 21.119014,33.777241 M 23.95241,13.794042 c 2.497221,0 4.784658,0.898189 6.556879,2.389132 5.737782,4.617177 7.635335,12.41437 8.700417,19.012016 -6.033587,1.008784 -12.569189,-0.06203 -18.090692,-1.417949 M 14.996048,19.255993 c 1.577255,-5.217375 3.526114,-8.625831 6.732303,-12.7575962 5.61108,4.0670322 9.932786,9.3801912 11.788167,13.5943522 1.738317,6.278457 2.099981,12.500965 0.567501,18.510923 M 42.177266,21.952429 41.806637,26.9392 m 0,0 c -3.102232,2.570966 -7.920282,4.641129 -12.572777,5.763525 m 1.275429,-16.519551 c 1.568129,-0.536784 7.535807,3.028674 11.667977,5.769255 -3.163043,4.404602 -7.265968,8.138902 -12.943406,10.750296 m -3.064986,9.797268 c 5.543141,-5.863128 8.628268,-15.669084 7.974662,-18.514825 0,-3.131183 -1.412116,-5.932548 -3.634247,-7.801994 4.924509,1.945667 8.476801,6.538896 11.297348,10.756026" /></svg>
