<?xml version="1.0" encoding="UTF-8" standalone="no"?>
<!-- Created with Inkscape (http://www.inkscape.org/) -->

<svg
   width="48"
   height="48"
   viewBox="0 0 48 48"
   version="1.1"
   id="svg990"
   inkscape:version="1.2.2 (b0a8486541, 2022-12-01)"
   xml:space="preserve"
   sodipodi:docname="uphold.svg"
   xmlns:inkscape="http://www.inkscape.org/namespaces/inkscape"
   xmlns:sodipodi="http://sodipodi.sourceforge.net/DTD/sodipodi-0.dtd"
   xmlns="http://www.w3.org/2000/svg"
   xmlns:svg="http://www.w3.org/2000/svg"><sodipodi:namedview
     id="namedview992"
     pagecolor="#858585"
     bordercolor="#000000"
     borderopacity="0.25"
     inkscape:showpageshadow="2"
     inkscape:pageopacity="0"
     inkscape:pagecheckerboard="0"
     inkscape:deskcolor="#d1d1d1"
     inkscape:document-units="px"
     showgrid="false"
     inkscape:zoom="11"
     inkscape:cx="24"
     inkscape:cy="24"
     inkscape:window-width="1366"
     inkscape:window-height="737"
     inkscape:window-x="0"
     inkscape:window-y="0"
     inkscape:window-maximized="1"
     inkscape:current-layer="svg990" /><defs
     id="defs987"><style
       id="style1174">.a{fill:none;stroke:#fff;stroke-linecap:round;stroke-linejoin:round;}</style></defs><path
     id="path4320"
     style="fill:none;stroke:#ffffff;stroke-width:1;stroke-linecap:round;stroke-linejoin:round;stroke-dasharray:none;stroke-opacity:1;stop-color:#000000"
     d="m 28.397081,42.765888 c -0.974017,0.696307 -3.059386,0.80745 -4.315883,0.696368 -1.256497,0.111082 -3.341866,-6.1e-5 -4.315882,-0.696368 M 37.765244,18.224555 c 0.15374,-0.161721 -0.370008,-9.873797 -8.744825,-7.587337 -7.353669,2.007671 -12.654278,13.03964 -11.244149,20.469237 1.249423,6.582879 6.26452,7.772901 6.26452,7.772901 M 10.234756,18.224555 c -0.15374,-0.161721 0.370008,-9.873797 8.744825,-7.587337 7.353669,2.007671 12.654278,13.03964 11.244149,20.469237 -1.249423,6.582879 -6.26452,7.772901 -6.26452,7.772901 M 10.275546,18.224555 c 0,-7.579807 6.144647,-13.7244534 13.724454,-13.7244534 7.579806,8e-7 13.724454,6.1446474 13.724454,13.7244534 0,7.579807 -6.144647,20.6548 -13.724454,20.654801 m 0,0 c -7.579807,0 -13.724454,-13.074994 -13.724454,-20.654801" /></svg>
