<?xml version="1.0" encoding="UTF-8" standalone="no"?>
<!-- Created with Inkscape (http://www.inkscape.org/) -->

<svg
   width="48"
   height="48"
   viewBox="0 0 48 48"
   version="1.1"
   id="svg990"
   inkscape:version="1.2.2 (b0a8486541, 2022-12-01)"
   xml:space="preserve"
   sodipodi:docname="whiteboard.svg"
   xmlns:inkscape="http://www.inkscape.org/namespaces/inkscape"
   xmlns:sodipodi="http://sodipodi.sourceforge.net/DTD/sodipodi-0.dtd"
   xmlns="http://www.w3.org/2000/svg"
   xmlns:svg="http://www.w3.org/2000/svg"><sodipodi:namedview
     id="namedview992"
     pagecolor="#858585"
     bordercolor="#000000"
     borderopacity="0.25"
     inkscape:showpageshadow="2"
     inkscape:pageopacity="0"
     inkscape:pagecheckerboard="0"
     inkscape:deskcolor="#d1d1d1"
     inkscape:document-units="px"
     showgrid="false"
     inkscape:zoom="11"
     inkscape:cx="24"
     inkscape:cy="24"
     inkscape:window-width="1366"
     inkscape:window-height="737"
     inkscape:window-x="0"
     inkscape:window-y="0"
     inkscape:window-maximized="1"
     inkscape:current-layer="svg990" /><defs
     id="defs987"><style
       id="style1174">.a{fill:none;stroke:#fff;stroke-linecap:round;stroke-linejoin:round;}</style></defs><path
     id="path2517"
     style="fill:none;stroke:#ffffff;stroke-width:1.00022;stroke-linecap:round;stroke-linejoin:round;stroke-dasharray:none;stroke-opacity:1;stop-color:#000000"
     d="M 24.03795,27.430017 22.921875,26.4629 m 4.916442,-0.357183 -3.800367,1.3243 -1.444494,0.290716 0.328419,-1.257833 c 0.396073,-0.546327 1.780565,-3.452486 1.780565,-3.452486 M 27.838317,26.105717 24.70244,23.010414 40.538877,8.2472887 c 1.324415,0.5562299 2.408956,1.6893712 2.961022,2.8648273 z M 6.7574135,25.223747 c 2.5079702,-3.088281 4.1461525,-2.268872 8.0180915,1.214634 3.871939,3.483506 5.510122,4.302914 8.018093,1.214634 M 40.38927,14.093268 c 3.99e-4,0.01366 6e-4,0.02732 6e-4,0.04106 v 24.252359 c 0,0.756771 -0.609244,1.366014 -1.366014,1.366014 H 5.866125 c -0.7567703,0 -1.3660139,-0.609243 -1.3660139,-1.366014 V 14.134328 c 0,-0.756771 0.6092436,-1.366014 1.3660139,-1.366014 v 0 h 29.822749" /></svg>
