<?xml version="1.0" encoding="UTF-8"?>
<!-- Created with Inkscape (http://www.inkscape.org/) -->
<svg width="48" height="48" version="1.1" viewBox="0 0 48 48" xml:space="preserve" xmlns="http://www.w3.org/2000/svg"><path class="t" d="m36.209 18.574c0.77172-0.76359 1.8391-1.2346 3.0218-1.2346v0c2.3653 0 4.2695 1.8842 4.2695 4.2246v4.3043c0 2.3404-1.9042 4.2246-4.2695 4.2246-1.1352 0-2.1642-0.43401-2.9275-1.1442m0.30228-8.2178c0.05132-2.8542-2.1563-5.4765-4.9225-6.047-1.9438-0.44764-4.08 0.0543-5.5993 1.3561m-2.1953 9.8432c-0.02948 1.3612-0.0014 2.78 0.6956 3.9959 1.3056 2.5757 4.4827 3.9303 7.2521 3.1852 2.6979-0.62792 4.818-3.2121 4.7694-6.0105h-6.3585m-17.113-10.834c1.5189-2.5849 4.617-4.1804 8.0173-3.5454 3.1497 0.58831 5.6651 3.2355 5.9785 6.3376 0.23326 2.3075-0.5181 4.5842-2.1583 5.9828-2.4197 2.0637-9.1176 6.9131-11.744 8.8021m-0.09143 0.77231 14.036 1e-6m-22.672-20.917 8.6371-3.8713v28.439" fill="none" stroke="#fff" stroke-linecap="round" stroke-linejoin="round"/></svg>
