<?xml version="1.0" encoding="UTF-8"?>
<!-- Created with Inkscape (http://www.inkscape.org/) -->
<svg width="48" height="48" version="1.1" viewBox="0 0 48 48" xml:space="preserve" xmlns="http://www.w3.org/2000/svg"><path d="m8.7648 42.167c-1.4941-0.86195-1.2952-2.8427-1.2952-2.8427 0-5.9702 5.35e-4 -30.65 5.35e-4 -30.65s-0.20036-1.9803 1.2946-2.8427c1.495-0.8624 3.1929 0.25996 3.1929 0.25996l26.798 15.459s1.7849 0.81629 1.7849 2.4489c0 1.6326-1.7849 2.4489-1.7849 2.4489-8.9326 5.1529-17.864 10.306-26.797 15.459 0 0-1.6974 1.123-3.1934 0.25996zm21.597-14.871v-3.2733m2.2513-3.2733-2.2513 3.2733-2.2513-3.2733m-5.4666 6.5466 2.2513-6.5467 2.2513 6.5467m-9.8764-6.5466v6.5467h3.3981m-9.865 0v-6.5467h2.2249c1.2579 0 2.2776 0.98437 2.2776 2.1986 0 1.2142-1.0197 2.1986-2.2776 2.1986h-2.2249" fill="none" stroke="#fff" stroke-linecap="round" stroke-linejoin="round" style="-inkscape-stroke:none"/></svg>
