<?xml version="1.0" encoding="UTF-8"?>
<!-- Created with Inkscape (http://www.inkscape.org/) -->
<svg width="48" height="48" version="1.1" viewBox="0 0 48 48" xml:space="preserve" xmlns="http://www.w3.org/2000/svg"><path d="m43.5 13.506c-0.42195 0.57324-0.88192 0.99496-2.4064 1.717-2.1205 1.0044-2.5566 3.1413-2.7798 5.1511-0.63406 5.7089-4.7958 12.226-11.304 13.986-10.15 2.7446-16.81-3.2469-18.983-8.96-0.8907-2.3414-1.4345-4.8201-3.5266-6.6588 2.8162 1.3347 4.9642 4.2811 7.9309 6.2689 4.2485 2.8466 10.776 2.0045 14.61 0.50342 2.6636-1.0428 4.0546-2.4322 5.3101-4.1754 1.6664-2.3138 2.7055-6.2672 5.0167-6.4852-1.5891-0.4542-2.2123-0.90374-3.2271-0.82916 1.2055-0.62949 1.4941-1.096 3.0805-1.0661 1.5472 0.02919 3.5367 1.0842 6.2791 0.54874z" fill="none" stroke="#fff" stroke-linecap="round" stroke-linejoin="round" style="-inkscape-stroke:none"/></svg>
