<?xml version="1.0" encoding="UTF-8"?>
<!-- Created with Inkscape (http://www.inkscape.org/) -->
<svg width="48" height="48" version="1.1" viewBox="0 0 48 48" xml:space="preserve" xmlns="http://www.w3.org/2000/svg"><path d="m8.824 25.813a5.0393 5.051 0 0 0 5.0393 5.051 5.0393 5.051 0 0 0 5.0393-5.051 5.0393 5.051 0 0 0-5.0393-5.051 5.0393 5.051 0 0 0-5.0393 5.051zm-0.35068-9.8971 0.8996 1.7364c1.3393-0.73602 2.8721-1.1527 4.4904-1.1527 5.1712 0 9.3633 4.2018 9.3633 9.385 0 5.1832-4.1921 9.385-9.3633 9.385-5.1712 0-9.3633-4.2018-9.3633-9.385v0c0-2.7144 1.1442-5.137 2.9588-6.8399l-0.67553-2.9702c-0.74806-0.19255-1.271-0.86926-1.271-1.6441 0-0.93847 0.75903-1.6992 1.6953-1.6992 0.93631 0 1.6953 0.76078 1.6953 1.6992 0 0.47466-0.19807 0.92768-0.553 1.2418zm30.703 9.8971a5.0393 5.051 0 0 1-5.0393 5.051 5.0393 5.051 0 0 1-5.0393-5.051 5.0393 5.051 0 0 1 5.0393-5.051 5.0393 5.051 0 0 1 5.0393 5.051zm0.35068-9.8971-0.8996 1.7364c-1.3393-0.73602-2.8721-1.1527-4.4904-1.1527-5.1712 0-9.3633 4.2018-9.3633 9.385 0 5.1832 4.1921 9.385 9.3633 9.385 5.1712 0 9.3633-4.2018 9.3633-9.385v0c0-2.7144-1.1442-5.137-2.9588-6.8399l0.67553-2.9702c0.74806-0.19255 1.271-0.86926 1.271-1.6441 0-0.93847-0.75903-1.6992-1.6953-1.6992s-1.6953 0.76078-1.6953 1.6992c0 0.47466 0.19807 0.92768 0.553 1.2418z" fill="none" stroke="#fff" stroke-linecap="round" stroke-linejoin="round"/></svg>
