<?xml version="1.0" encoding="UTF-8"?>
<!-- Created with Inkscape (http://www.inkscape.org/) -->
<svg width="48" height="48" version="1.1" viewBox="0 0 48 48" xml:space="preserve" xmlns="http://www.w3.org/2000/svg"><path d="m13.245 15.233c-0.3691 0.24289-0.64685 0.41237-1.4341 0.14044-1.5541-0.53684-0.56303-3.4866 1.2743-2.8459m-0.51099 1.3713 0.03296-0.03304m3.7748 2.0983c-0.24793-1.0073-0.88742-2.4179-2.1264-2.8583m0.13752 1.9299c0.18432 0.28137 0.52427 0.37522 1.1152 0.21801m0.44506 10.574c-0.10162 0.2853-0.07903 0.90599 0.16483 1.3218m3-1.9001c-0.25653 0.47183-0.20446 0.83328 2e-6 1.2226m-1.248-1.9455c-0.60237 0.24564-1.2131 0.10252-1.4553 0.0124m2.7578-1.2112 0.04438 0.64946m-1.7658-6.0327c0.0708 0.61784 0.39977 1.2855 1.0819 1.9563 1.2887 1.2672 1.3598 2.9427 2.0281 4.3227 1.0618-3.5747 0.21811-7.7106-2.2863-7.9252m-1.6767-0.25282c0.37212-1.446 0.40132-2.7957-0.76928-3.8086-1.9911-3.2212-7.3514 0.95817-4.9886 4.9068-2.3523 2.6414-0.73639 6.9545 4.2194 7.2668m-1.3825-1.3845c-1.1029-1.1448-2.0043-2.3586-1.7646-3.9663m28.207 1.5421 0.37298 0.53742c-0.22113 0.68754-0.57011 0.88936-1.049 1.1683m-3.6832-0.1402c0.3019 0.37948 2.3119 0.02292 2.2146-0.70098-0.16814-1.2508-3.616-0.59146-3.893 1.4253-0.18969 1.3809 2.6355 0.94634 3.893 0.18693m-7.5529-2.9441c2.3478-0.59376 4.6675-0.64098 7.1333-0.23366m0.86252-1.0047c0.30939-1.2305-0.4002-1.515-1.3803-1.308-2.1201 0.44787-5.0994 4.9807-4.7972 6.8691m-3.4734-3.2712c2.4464-1.2397 3.3933 0.77127 2.2379 2.4301-0.80982 1.1627-3.5864 0.49097-2.4477-0.81781 1.0376-1.1926 2.4045 0.11197 2.6575 1.4487m-5.0586-2.5469c2.4652-0.49559 2.1776-1.8977 1.1423-2.0562-3.1737-0.48593-5.0225 1.9592-4.9187 3.4348 0.15806 2.2481 3.461 2.4088 5.8045 0.28039m11.42 2.4678c0.57221 0.03449 1.0567 0.12042 1.6106 0.19595m-26.692 1.0982c0.16496-0.04837-0.05626 0.0073 0.11054-0.0391m2.6821-0.7182c0.25687-0.05708 0.02531-0.08193 0.30171-0.05237m2.8498-0.48028c4.9778-0.75357 11.515-0.81495 16.375-0.38789m-0.26615 8.01c0.37842-2.6386 0.85203-5.2667 1.5152-7.7341 1.1861 2.4142 1.8377 4.4339 3.4035 7.1266 0.46607-2.8475 1.2353-5.8165 2.0048-8.7856m-8.835 4.2526c1.1469 0.53753 0.76174 1.778 0.53616 2.6871-0.26475 1.0669-0.90234 2.6737-2.3778 2.6871-1.1196 0.0102-1.1628-1.4401-0.8159-2.7805 0.35637-1.3768 1.6522-3.0648 2.6575-2.5936zm-8.0658 0.46732c1.4928-0.5778 3.1798-1.1374 4.9886-1.215l-4.5923 4.9068c-0.87162 0.93131-2.0457 2.2172 1.0956 1.7524 1.5514-0.22951 1.6239-0.19745 2.2146-0.25702m-10.35-3.1778c4.2275-4.9355 6.9875-0.95788 4.5924 1.7291-1.212 1.3597-3.2898 2.0049-3.9396 1.0281-0.61538-0.92505 0.4745-2.3118 1.205-2.6969 1.184-0.62418 2.4317 0.04296 2.8512 2.066m-10.677-4.4629c-0.62574 2.3876-1.0204 4.8248-1.0257 7.3369 0.22439-3.6654 3.3022-8.361 2.9372-5.4676l-0.51285 4.0657c0.09611-5.4134 4.1766-7.0518 3.3335-5.1872-0.81556 1.8037-1.0046 3.7068-1.0956 5.5143m-11.754-1.768c1.1716-2.9721 2.5899-5.846 4.1545-8.0457l0.55947-0.04673c-0.1861 2.2747-0.21911 4.5351-0.08034 6.78m0 0c0.09669 1.5641 0.16021 2.8403 0.43001 4.3889m-6.4339 0.8879c0.45448-1.4835 0.77574-2.4562 1.3703-3.9644l4.6336-1.3124" fill="none" stroke="#fff" stroke-linecap="round" stroke-linejoin="round" style="-inkscape-stroke:none"/></svg>
