<?xml version="1.0" encoding="UTF-8"?>
<svg id="b" version="1.1" viewBox="0 0 48 48" xmlns="http://www.w3.org/2000/svg">
 <defs>
  <style>.d{fill:none;stroke:#fff;stroke-linecap:round;stroke-linejoin:round;}</style>
 </defs>
 <path class="t" transform="translate(-161.33 -6.15)" d="m197.83 40.65v8h4m5-4a7 7 0 0 1-7 7 7 7 0 0 1-7-7 7 7 0 0 1 7-7 7 7 0 0 1 7 7zm-24.402-17.935c0.282-0.807 1.765-1.228 3.044-0.473 1.149 0.679 2.047-0.08 3.035-0.67v1.618c0 1.434-2.934 2.655-2.934 4.266v1.43m-3.288-5.347v-2.023m10.585 19.67c-2.0799 1.6234-4.6968 2.5907-7.5396 2.591-6.7739 0-12.265-5.4911-12.266-12.265 0-6.7743 5.4917-12.266 12.266-12.266s12.266 5.4917 12.266 12.266h-1e-3c-8e-5 0.90166-0.0975 1.7806-0.28218 2.6269m-5.9518-13.351c0 6.7739-5.4911 12.265-12.265 12.266-6.7743 0-12.266-5.4917-12.266-12.266 6e-4 -6.7739 5.4921-12.265 12.266-12.265 6.7732 0.0011 12.263 5.4918 12.264 12.265h1e-3v0m12.469 0c0 6.7743-5.4917 12.266-12.266 12.266-6.7735-0.0011-12.264-5.4925-12.264-12.266 6e-4 -6.7732 5.4908-12.264 12.264-12.265 6.7739 0 12.265 5.4911 12.266 12.265v0" fill="none" stroke="#fff" stroke-linecap="round" stroke-linejoin="round"/>
</svg>
