<?xml version="1.0" encoding="UTF-8"?>
<!-- Created with Inkscape (http://www.inkscape.org/) -->
<svg width="48" height="48" version="1.1" viewBox="0 0 48 48" xml:space="preserve" xmlns="http://www.w3.org/2000/svg"><path class="t" d="m34.867 26.42v-4.8455l2.5571 4.8509 2.5571-4.8435v4.8435m-10.201-0.53142c0.31363 0.38728 0.70686 0.53147 1.254 0.53147h0.75717c0.70461 0 1.2758-0.54178 1.2758-1.2101v-0.0052c0-0.66833-0.5712-1.2101-1.2758-1.2101h-0.83523c-0.70538 0-1.2772-0.54239-1.2772-1.2114v0c0-0.67051 0.57305-1.214 1.28-1.214h0.75301c0.54709 0 0.94032 0.14425 1.2539 0.53147m-5.0666-0.53146v4.8509m-4.3572-4.8509v4.8509h2.5571m-6.0513-4.8509c0.93853 0 1.6941 0.71666 1.6941 1.6068v1.6372c0 0.8902-0.75557 1.6068-1.6941 1.6068s-1.6941-0.71665-1.6941-1.6068v-1.6372c0-0.89019 0.75557-1.6068 1.6941-1.6068zm-5.1679 0c0.93853 0 1.6941 0.71666 1.6941 1.6068v1.6372c0 0.8902-0.75557 1.6068-1.6941 1.6068s-1.6941-0.71665-1.6941-1.6068v-1.6372c0-0.89019 0.75557-1.6068 1.6941-1.6068zm-3.4738 3.2241v0.01989c0 0.88747-0.75845 1.6068-1.6941 1.6068v0c-0.93565 0-1.6941-0.71938-1.6941-1.6068v-1.6372c0-0.88747 0.75845-1.6068 1.6941-1.6068v0c0.93565 0 1.6941 0.71938 1.6941 1.6068v0.01989m29.094-17.701h-33a2 2 0 0 0-2 2v33a2 2 0 0 0 2 2h33a2 2 0 0 0 2-2v-33a2 2 0 0 0-2-2z" fill="none" stroke="#fff" stroke-linecap="round" stroke-linejoin="round"/></svg>
