<?xml version="1.0" encoding="UTF-8"?>
<!-- Created with Inkscape (http://www.inkscape.org/) -->
<svg width="48" height="48" version="1.1" viewBox="0 0 48 48" xml:space="preserve" xmlns="http://www.w3.org/2000/svg"><path d="m33.314 23.393-7.1296-7.1296c-1.2104-1.2104-3.1593-1.2104-4.3696 0l-15.412 15.412c-1.2104 1.2104-1.2104 3.1593 0 4.3697l5.5696 5.5696c1.2104 1.2104 3.1593 1.2104 4.321 0.04865l5.5209-5.521c1.2104-1.2104 3.1593-1.2104 4.3696 0l5.5209 5.521c1.1617 1.1618 3.1106 1.1618 4.321-0.04865l5.5696-5.5696c1.2104-1.2104 1.2104-3.1593 0-4.3697l-8.282-8.282m0-9.8875-7.1296-7.1296c-1.2104-1.2104-3.1593-1.2104-4.3696 0l-15.412 15.412c-1.2104 1.2104-1.2104 3.1593 0 4.3697l5.5696 5.5696c1.2104 1.2104 3.1593 1.2104 4.321 0.04865l5.5209-5.521c1.2104-1.2104 3.1593-1.2104 4.3696 0l5.5209 5.521c1.1617 1.1618 3.1106 1.1618 4.321-0.04865l5.5696-5.5696c1.2104-1.2104 1.2104-3.1593 0-4.3697l-8.282-8.282-3.45e-4 -4.0435" fill="none" stroke="#fff" stroke-linecap="round" stroke-linejoin="round" style="-inkscape-stroke:none"/></svg>
