<?xml version="1.0" encoding="UTF-8"?>
<!-- Created with Inkscape (http://www.inkscape.org/) -->
<svg width="48" height="48" version="1.1" viewBox="0 0 48 48" xml:space="preserve" xmlns="http://www.w3.org/2000/svg"><path d="m25.516 15.585c-0.05081 1.0891 0.51385 2.0759-2.0642 1.6192-5.507-0.97552-16.172 3.6189-17.852 9.9945-0.87044 3.3024 4.1279 6.8323 8.5526 1.3872 2.8535-3.5115 3.8573-5.5506 6.7336-8.0875 1.2361-1.0903 4.2165-2.3046 3.8494 0.22334 0.62746 10.932 4.8989 22.872 12.831 20.045 6.2257-2.219-2.0475-18.702-10.154-22.502-1.4773-0.69241-1.1403-1.7828 0.61368-2.7918 2.904-1.6705 16.243-2.6407 14.282-6.9236-2.2476-4.0454-16.431-0.71442-16.792 7.0352z" fill="none" stroke="#fff" stroke-linecap="round" stroke-linejoin="round" style="-inkscape-stroke:none"/></svg>
