<?xml version="1.0" encoding="UTF-8"?>
<!-- Created with Inkscape (http://www.inkscape.org/) -->
<svg width="48" height="48" version="1.1" viewBox="0 0 48 48" xml:space="preserve" xmlns="http://www.w3.org/2000/svg"><path d="m40.685 21.927c1.5685-0.11585 3.0063-1.2898 2.2712-2.284-1.4647-1.9812-5.3047 5.5564 0.54382 3.2491m-10.556-2.5092 0.25592 2.091c0.23215 1.8968 0.47403 0.79937 0.67177 0 1.3815-4.1963 1.7232-2.1573 1.6314-0.86856-0.12904 1.8131 0.91017 1.6279 1.6954 0.0965 1.2171-2.3734 1.8409-3.6199 1.7594-0.4182-0.01966 0.77232-0.06097 1.1507 0.09596 1.4154m-7.5814-2.7344-0.03198-0.83639m-0.12796 2.3162 0.09596 2.2518m-2.1113-7.3345c0.04889 1.4947 0.11443 1.6161-0.47984 3.3456-1.4657 4.2655 0.57292 4.8684 1.5035 2.4127m-3.3909-3.6994 7.3895-1.4476m-7.4855 0.22518c-0.29824 2.6526-1.6608 7.3455-3.4868 7.1415-1.278-0.14277 0.33632-5.1332 2.6231-3.7638l0.09596 2.9595m-3.9347 1.9301c0.48564 0.53682 1.0201 0.73381 1.7594 0.5147m-11.644 1.1259c3.3555 2.8033 8.4158 1.6505 10.492-1.0294m-1.1576-3.1827a2.0153 1.9784 0 0 1-2.0153 1.9784 2.0153 1.9784 0 0 1-2.0153-1.9784 2.0153 1.9784 0 0 1 2.0153-1.9784 2.0153 1.9784 0 0 1 2.0153 1.9784zm-4.8883 0.68962a2.0153 1.9784 0 0 1-2.0153 1.9784 2.0153 1.9784 0 0 1-2.0153-1.9784 2.0153 1.9784 0 0 1 2.0153-1.9784 2.0153 1.9784 0 0 1 2.0153 1.9784zm-7.3462-2.1524c1.2335-1.1296 1.0894-1.8247 0.4524-2.0927-1.1372-0.47847-3.3291 1.8602-4.2635 3.321-1.3018 2.0353-2.8481 7.9522 5.7354 0.80462 0.317 3.1752-3.8529 9.4585-6.0622 7.9525-1.9961-1.3605 4.3173-4.3946 7.3255-4.4715" fill="none" stroke="#fff" stroke-linecap="round" stroke-linejoin="round" style="-inkscape-stroke:none"/></svg>
