<?xml version="1.0" encoding="UTF-8"?>
<!-- Created with Inkscape (http://www.inkscape.org/) -->
<svg width="48" height="48" version="1.1" viewBox="0 0 48 48" xml:space="preserve" xmlns="http://www.w3.org/2000/svg"><path d="m30.428 19.33 9.6e-5 -6.1439c0-1.698 1.1637-3.0651 2.6092-3.0651v0c1.4455 0 2.6092 1.367 2.6092 3.0651l2.95e-4 0.44048 0.4911-1.17e-4c1.5538 0 2.8046 1.2718 2.8046 2.8515v0c0 1.5797-1.2509 2.8515-2.8046 2.8515zm-4.2029-4.6045c0 2.543-1.7582 4.6045-3.9271 4.6045-2.1689 0-3.9271-2.0615-3.9271-4.6045 0-2.543 1.7582-4.6045 3.9271-4.6045 2.1689 0 3.9271 2.0615 3.9271 4.6045zm-12.305-4.6045 4.27e-4 6.3524c1.05e-4 1.582-1.1656 2.8551-2.6134 2.8557l-2.25 9.28e-4m29.511 9.3392-3.7067 4.6045m-2.4456-4.5386v4.5378m0 4.5394v-4.5394l2.4456 8.03e-4 3.7067 4.6045m-10.511-9.209-3.7067 4.6045m-2.4456-4.5386v4.5378m0 4.5394v-4.5394l2.4456 8.03e-4 3.7067 4.6045m-18.623-0.12091 9.1e-5 -5.9822c0-1.6533 1.1387-2.9844 2.5531-2.9844v0c1.4144 0 2.5531 1.331 2.5531 2.9844l2.92e-4 0.42889 0.48054-1.14e-4c1.5204 0 2.7443 1.2383 2.7443 2.7764v0c0 1.5381-1.224 2.7764-2.7443 2.7764zm33.067-13.758h-37" fill="none" stroke="#fff" stroke-linecap="round" stroke-linejoin="round" style="-inkscape-stroke:none"/></svg>
