<?xml version="1.0" encoding="UTF-8"?>
<!-- Created with Inkscape (http://www.inkscape.org/) -->
<svg width="48" height="48" version="1.1" viewBox="0 0 48 48" xml:space="preserve" xmlns="http://www.w3.org/2000/svg"><path d="m39.173 26.766a1.1092 1.1113 0 0 1-1.1092 1.1113 1.1092 1.1113 0 0 1-1.1092-1.1113 1.1092 1.1113 0 0 1 1.1092-1.1113 1.1092 1.1113 0 0 1 1.1092 1.1113zm-1.1535 3.2088v7.7776m-3.4384-4.2224c0-2.3323-1.887-4.2231-4.2148-4.2231s-4.2148 1.8907-4.2148 4.2231 1.887 4.2224 4.2148 4.2224 4.2148-1.8901 4.2148-4.2224v4.2224m-19.588 0v-4.9074zm7.8085 0v-4.9074c0-1.767-1.7413-3.1895-3.9043-3.1895-2.163 0-3.9043 1.4225-3.9043 3.1895v-6.6498m-6.167 3.1936v-3.1936m2.8075 11.452-0.42002-6.81e-4c-1.3227 0-2.3875-1.0669-2.3875-2.3921v-5.8659h2.8075m-2.04-9.9152c0.36179 1.2393 1.5338 2.147 2.9239 2.147 1.6785 0 3.0391-1.3235 3.0391-2.9561v-8.4168m14.419 7.2388c0 2.3323 1.887 4.2231 4.2148 4.2231s4.2148-1.8907 4.2148-4.2231c0-2.3323-1.887-4.2231-4.2148-4.2231s-4.2148 1.8907-4.2148 4.2231v-7.2388m-2.7951 7.2388a4.2148 4.2231 0 0 1-4.2148 4.2231 4.2148 4.2231 0 0 1-4.2148-4.2231 4.2148 4.2231 0 0 1 4.2148-4.2231 4.2148 4.2231 0 0 1 4.2148 4.2231zm13.319-11.986h-33a2 2 0 0 0-2 2v33a2 2 0 0 0 2 2h33a2 2 0 0 0 2-2v-33a2 2 0 0 0-2-2z" fill="none" stroke="#fff" stroke-linecap="round" stroke-linejoin="round"/></svg>
