<?xml version="1.0" encoding="UTF-8"?>
<!-- Created with Inkscape (http://www.inkscape.org/) -->
<svg width="48" height="48" version="1.1" viewBox="0 0 48 48" xmlns="http://www.w3.org/2000/svg">
 <path class="t" d="m35.214 28.808v0.10464m0 1.298v1.282c0 0.73442 0.62445 1.3298 1.3948 1.3298 0.77036 0 1.3948-0.59533 1.3948-1.3298v-1.282m0-1.298v-0.10464m-6.1747 0c0.77272 0 1.3948 0.59307 1.3948 1.3298v1.3548c0 0.73668-0.62208 1.3298-1.3948 1.3298s-1.3948-0.59307-1.3948-1.3298v-1.3548c0-0.73668 0.62209-1.3298 1.3948-1.3298zm-4.7799 4.0143v-2.0072m1.3948-2.0072-1.3948 2.0072-1.3948-2.0072m9.5586-8.139h-4.195m4.195-1.31e-4c1.4042 0 2.5424 1.1606 2.5424 2.5924 0 1.4318-1.1382 2.5924-2.5424 2.5924h-4.195v-10.37h4.195c1.4042 0 2.5424 1.1606 2.5424 2.5924 0 1.4318-1.1382 2.5924-2.5424 2.5924zm-15.5 0.03617h6.7374m0-5.1653v10.37m-6.7374-10.37v10.37m-9.6479-10.593v10.37h5.0848m25.351-20.187h-33a2 2 0 0 0-2 2v33a2 2 0 0 0 2 2h33a2 2 0 0 0 2-2v-33a2 2 0 0 0-2-2z" fill="none" stroke="#fff" stroke-linecap="round" stroke-linejoin="round"/>
</svg>
