<?xml version="1.0" encoding="UTF-8"?>
<!-- Created with Inkscape (http://www.inkscape.org/) -->
<svg width="48" height="48" version="1.1" viewBox="0 0 48 48" xml:space="preserve" xmlns="http://www.w3.org/2000/svg"><g fill="none" stroke="#fff" stroke-linecap="round" stroke-linejoin="round"><g><path d="m40.407 31.766a16.622 13.977 0 0 0 0.21542-2.2431 16.622 13.977 0 0 0-9.7948-12.702l0.01565-0.18388c0.1196-2.6802 0.312-5.3581 0.22301-8.04-0.14624-4.407-3.4854-6.2438-4.8025-0.44602-0.59644 2.6254-0.90221 5.2202-0.94877 7.4258l-0.0039 0.05673a16.622 13.977 0 0 0-1.3107-0.08607 16.622 13.977 0 0 0-1.3107 0.07825l-0.0039-0.04891c-0.046572-2.2056-0.35235-4.8004-0.94878-7.4258-0.57625-2.5365-1.5396-3.6124-2.4531-3.6503-1.1745-0.048681-2.2672 1.6174-2.3494 4.0963-0.08899 2.6819 0.10341 5.3598 0.22301 8.04l0.01174 0.14867a16.622 13.977 0 0 0-9.7909 12.737 16.622 13.977 0 0 0 16.622 13.977 16.622 13.977 0 0 0 8.2648-1.8503" style="-inkscape-stroke:none"/><path d="m24.056 29.927c0.74012 0 1.3401-0.47498 1.3401-1.0609 0-0.58592-0.59998-1.0609-1.3401-1.0609-0.74012 0-1.3401 0.47498-1.3401 1.0609 0 0.58592 0.59998 1.0609 1.3401 1.0609v2.3747" style="-inkscape-stroke:none"/><path d="m26.736 32.302v1.9422c0 2.7744-1.1705 5.0079-2.6244 5.0079h-0.22335c-1.4539 0-2.6244-2.2335-2.6244-5.0079v-1.9422h5.4721" style="-inkscape-stroke:none"/><path d="m30.034 23.115-3.2944 4.0761 4.6903-0.89339" style="-inkscape-stroke:none"/><path d="m26.74 27.191 3.8528 2.3452" style="-inkscape-stroke:none"/><path d="m26.74 20.268-1.5076 4.7462" style="-inkscape-stroke:none"/><path d="m34.138 29.871c1.191 0 2.1497 0.46071 2.1497 1.033s-0.95879 1.033-2.1497 1.033c-1.191 0-2.1497-0.46071-2.1497-1.033s0.95879-1.033 2.1497-1.033" style="-inkscape-stroke:none"/><path d="m17.966 23.115 3.2944 4.0761-4.6903-0.89339" style="-inkscape-stroke:none"/><path d="m21.26 27.191-3.8528 2.3452" style="-inkscape-stroke:none"/><path d="m21.26 20.268 1.5076 4.7462" style="-inkscape-stroke:none"/><path d="m13.862 29.871c-1.191 0-2.1497 0.46071-2.1497 1.033s0.95879 1.033 2.1497 1.033 2.1497-0.46071 2.1497-1.033-0.95879-1.033-2.1497-1.033" style="-inkscape-stroke:none"/><path d="m26.627 15.828c0.21502-2.8252 0.37528-5.6578 1.2843-8.3476 0.3026-0.89545 1.4744-0.93986 1.5355 0.19543 0.15871 2.949 0.2385 5.8902-0.05584 8.7664l-2.764-0.61421" style="-inkscape-stroke:none"/><path d="m21.373 15.828c-0.21501-2.8252-0.37528-5.6578-1.2843-8.3476-0.3026-0.89545-1.4744-0.93986-1.5355 0.19543-0.15871 2.949-0.2385 5.8902 0.05584 8.7664l2.764-0.61421" style="-inkscape-stroke:none"/></g><circle class="a" cx="38.5" cy="38.5" r="7"/><path class="t" d="m35.85 37.15c0-1.6355 1.4816-2.925 3.1759-2.5994 1.1113 0.2136 1.9988 1.1747 2.1094 2.301 0.0823 0.8378-0.1828 1.6644-0.7615 2.1722-1.072 0.9408-4.5238 3.4762-4.5238 3.4762h5.3"/></g></svg>
