<?xml version="1.0" encoding="UTF-8"?>
<!-- Created with Inkscape (http://www.inkscape.org/) -->
<svg width="48" height="48" version="1.1" viewBox="0 0 48 48" xml:space="preserve" xmlns="http://www.w3.org/2000/svg"><path d="m21.373 15.828c-0.21501-2.8252-0.37528-5.6578-1.2843-8.3476-0.3026-0.89545-1.4744-0.93986-1.5355 0.19543-0.15871 2.949-0.2385 5.8902 0.05584 8.7664zm5.2538 0c0.21502-2.8252 0.37528-5.6578 1.2843-8.3476 0.3026-0.89545 1.4744-0.93986 1.5355 0.19543 0.15871 2.949 0.2385 5.8902-0.05584 8.7664zm-12.765 14.043c-1.191 0-2.1497 0.46071-2.1497 1.033s0.95878 1.033 2.1497 1.033 2.1497-0.46071 2.1497-1.033-0.95879-1.033-2.1497-1.033zm7.3985-9.604 1.5076 4.7462m-1.5076 2.1776-3.8528 2.3452m0.55837-6.4213 3.2944 4.0761-4.6903-0.89339m17.568 3.5736c1.191 0 2.1497 0.46071 2.1497 1.033s-0.95878 1.033-2.1497 1.033c-1.191 0-2.1497-0.46071-2.1497-1.033s0.95878-1.033 2.1497-1.033zm-7.3985-9.604-1.5076 4.7462m1.5076 2.1776 3.8528 2.3452m-0.55837-6.4213-3.2944 4.0761 4.6903-0.89339m-4.6938 6.0041v1.9422c0 2.7744-1.1705 5.0079-2.6244 5.0079h-0.22335c-1.4539 0-2.6244-2.2335-2.6244-5.0079v-1.9422zm-2.6802-2.3747c0.74012 0 1.3401-0.47498 1.3401-1.0609 0-0.58592-0.59998-1.0609-1.3401-1.0609-0.74012 0-1.3401 0.47498-1.3401 1.0609 0 0.58592 0.59998 1.0609 1.3401 1.0609v2.3747m-4.7723-27.801c-1.1745-0.048681-2.2672 1.6174-2.3494 4.0963-0.08899 2.6819 0.10341 5.3598 0.22301 8.04l0.01174 0.14867a16.622 13.977 0 0 0-9.7909 12.737 16.622 13.977 0 0 0 16.622 13.977 16.622 13.977 0 0 0 16.622-13.977 16.622 13.977 0 0 0-9.7948-12.702l0.01565-0.18388c0.1196-2.6802 0.312-5.3581 0.22301-8.04-0.14624-4.407-3.4854-6.2438-4.8025-0.44602-0.59644 2.6254-0.90221 5.2202-0.94877 7.4258l-0.0039 0.05673a16.622 13.977 0 0 0-1.3107-0.08607 16.622 13.977 0 0 0-1.3107 0.07825l-0.0039-0.04891c-0.046572-2.2056-0.35235-4.8004-0.94878-7.4258-0.57625-2.5365-1.5396-3.6124-2.4531-3.6503z" fill="none" stroke="#fff" stroke-linecap="round" stroke-linejoin="round" style="-inkscape-stroke:none"/></svg>
