<?xml version="1.0" encoding="UTF-8"?>
<!-- Created with Inkscape (http://www.inkscape.org/) -->
<svg width="48" height="48" version="1.1" viewBox="0 0 48 48" xml:space="preserve" xmlns="http://www.w3.org/2000/svg"><path d="m24.342 42.999c1.153-0.30901 1.9693-1.9899 0.90438-2.6895 0 0-0.07884-0.20026-1.2713-0.20026-1.1925 0-1.2713 0.20026-1.2713 0.20026v0c-1.065 0.69962-0.24865 2.3805 0.90438 2.6895m-3.8674-0.0041a4.7108 6.0511 0 0 1 4.2764-3.5132 4.7108 6.0511 0 0 1 4.2782 3.5183m-5.8-5.4893a1.3009 1.3009 0 0 1-1.3009 1.3009 1.3009 1.3009 0 0 1-1.3009-1.3009 1.3009 1.3009 0 0 1 1.3009-1.3009 1.3009 1.3009 0 0 1 1.3009 1.3009zm5.6452 0a1.3009 1.3009 0 0 1-1.3009 1.3009 1.3009 1.3009 0 0 1-1.3009-1.3009 1.3009 1.3009 0 0 1 1.3009-1.3009 1.3009 1.3009 0 0 1 1.3009 1.3009zm-18.024-9.4818a16.34 10.368 0 0 1 5.6764-3.6542m16.484-0.14488a16.34 10.368 0 0 1 5.7909 3.5095m-22.249-3.3608a4.1536 3.3353 79.533 0 0-3.8873-2.8037 4.1536 3.3353 79.533 0 0-2.4958 4.7156 4.1536 3.3353 79.533 0 0 0.68346 1.7413m22.147-3.8025a3.3353 4.1536 10.467 0 1 3.8357-2.6544 3.3353 4.1536 10.467 0 1 2.4958 4.7156v0a3.3353 4.1536 10.467 0 1-0.51833 1.4606m-21.416-5.9275a6.439 5.2125 79.106 0 0-5.17-2.4918 6.439 5.2125 79.106 0 0-3.9016 7.3081v0a6.439 5.2125 79.106 0 0 0.38854 1.355m23.39-6.1714a5.2125 6.439 10.894 0 1 5.17-2.4918 5.2125 6.439 10.894 0 1 3.9016 7.3081v0a5.2125 6.439 10.894 0 1-0.3876 1.3526m-35.077 3.1725a21.352 15.415 0 0 1 2.9898-3.1892m32.091-0.0063a21.352 15.415 0 0 1 2.9624 3.1459m-30.07-19.677a1.8118 1.8118 0 0 1-1.8118 1.8118 1.8118 1.8118 0 0 1-1.8118-1.8118 1.8118 1.8118 0 0 1 1.8118-1.8118 1.8118 1.8118 0 0 1 1.8118 1.8118zm11.884 12.544a0.81798 0.81798 0 0 1-0.81798 0.81798 0.81798 0.81798 0 0 1-0.81798-0.81798 0.81798 0.81798 0 0 1 0.81798-0.81798 0.81798 0.81798 0 0 1 0.81798 0.81798zm-1.1945-2.899h0.75313c1.3974 0 2.5224 1.125 2.5224 2.5224v0.75313c0 1.3974-1.125 2.5224-2.5224 2.5224h-0.75313c-1.3974 0-2.5224-1.125-2.5224-2.5224v-0.75313c0-1.3974 1.125-2.5224 2.5224-2.5224zm-0.59382-4.5714h1.9408c3.601 0 6.5 2.899 6.5 6.5v1.9408c0 3.601-2.899 6.5-6.5 6.5h-1.9408c-3.601 0-6.5-2.899-6.5-6.5v-1.9408c0-3.601 2.899-6.5 6.5-6.5zm-11.03-11.512h24c3.878 0 7 3.122 7 7v24c0 3.878-3.122 7-7 7h-24c-3.878 0-7-3.122-7-7v-24c0-3.878 3.122-7 7-7z" fill="none" stroke="#fff" stroke-linecap="round" stroke-linejoin="round" style="-inkscape-stroke:none"/></svg>
