<?xml version="1.0" encoding="UTF-8" standalone="no"?>
<!-- Created with Inkscape (http://www.inkscape.org/) -->

<svg
   width="48"
   height="48"
   viewBox="0 0 48 48"
   version="1.1"
   id="svg990"
   inkscape:version="1.2.2 (b0a8486541, 2022-12-01)"
   xml:space="preserve"
   sodipodi:docname="falloutshelter.svg"
   xmlns:inkscape="http://www.inkscape.org/namespaces/inkscape"
   xmlns:sodipodi="http://sodipodi.sourceforge.net/DTD/sodipodi-0.dtd"
   xmlns="http://www.w3.org/2000/svg"
   xmlns:svg="http://www.w3.org/2000/svg"><sodipodi:namedview
     id="namedview992"
     pagecolor="#858585"
     bordercolor="#000000"
     borderopacity="0.25"
     inkscape:showpageshadow="2"
     inkscape:pageopacity="0"
     inkscape:pagecheckerboard="0"
     inkscape:deskcolor="#d1d1d1"
     inkscape:document-units="px"
     showgrid="false"
     inkscape:zoom="5.6568542"
     inkscape:cx="24.395184"
     inkscape:cy="26.693281"
     inkscape:window-width="1366"
     inkscape:window-height="737"
     inkscape:window-x="0"
     inkscape:window-y="0"
     inkscape:window-maximized="1"
     inkscape:current-layer="svg990" /><defs
     id="defs987"><style
       id="style1174">.a{fill:none;stroke:#fff;stroke-linecap:round;stroke-linejoin:round;}</style></defs><path
     id="path1919"
     style="fill:none;stroke:#fff;stroke-width:1;stroke-linecap:round;stroke-linejoin:round;stroke-dasharray:none;stroke-opacity:1;stop-color:#000000"
     d="m 32.158937,27.245221 c 1.088465,0.667468 1.367359,1.072045 1.758901,1.552446 m -1.693477,-4.17265 c 1.527206,1.145595 2.218378,1.924942 3.233963,3.764734 m -2.812646,-6.316685 c 1.499097,0.911279 3.809604,3.457428 4.691715,5.952287 m -25.811468,3.750231 c 3.645789,1.883604 8.002531,1.488466 13.033945,-0.809552 l 1.63705,1.275656 c -6.271914,3.876854 -10.245419,4.507581 -15.147841,0.518647 z m 11.55207,-8.871704 c 1.964677,-0.358961 3.105097,-0.02525 3.625957,1.801807 M 14.567804,23.21109 a 0.97756869,1.9055095 0 0 1 -0.977568,1.90551 0.97756869,1.9055095 0 0 1 -0.977569,-1.90551 0.97756869,1.9055095 0 0 1 0.977569,-1.905509 0.97756869,1.9055095 0 0 1 0.977568,1.905509 z m 0.0934,-5.541054 c -0.09309,-0.09706 -1.385171,0.479747 -1.724538,1.042647 m 12.417663,-0.88063 c 1.127935,0.303139 1.708841,1.336532 2.002902,1.919073 m -10.090688,9.533442 c -0.457434,-0.70741 -0.837595,-0.981463 -1.239509,-2.10335 1.08965,-1.486909 2.25683,-2.522692 3.168851,-5.043163 M 9.8174977,15.44334 c -2.5028732,0.788838 -0.886586,3.997899 0.070231,5.377896 M 12.00699,17.084943 c -6.9851723,9.503686 -4.2624977,25.036313 8.017251,26.357783 6.191451,0.666285 11.255384,-4.614499 13.44279,-8.602526 3.570391,0.427499 5.832658,-3.95832 2.795091,-6.118999 0.520027,0.13191 1.067341,-0.260424 1.677064,-1.851841 C 41.221111,21.182715 39.98138,13.929183 35.066046,11.04279 33.350696,7.27115 31.606862,6.6270174 28.821588,6.4863286 25.092336,2.5077864 23.494618,5.2307826 21.977195,8.2062267 20.15935,7.1879121 17.084092,7.2553184 16.397667,8.5784436 14.895484,12.035116 9.0050035,12.040589 12.256374,7.7331685 9.1590217,9.7317376 6.9187018,12.347441 10.540381,16.138434 c 4.20742,4.404117 5.002715,-7.7625645 10.576334,-2.407503 2.267724,-1.147143 4.771424,-3.567075 7.407409,1.591415 6.229081,-3.51224 9.563854,2.139613 4.519344,4.458366 3.75208,2.036903 4.204958,4.581063 4.895718,7.088648" /></svg>
