<?xml version="1.0" encoding="UTF-8" standalone="no"?>
<!-- Created with Inkscape (http://www.inkscape.org/) -->

<svg
   width="48"
   height="48"
   viewBox="0 0 48 48"
   version="1.1"
   id="svg990"
   inkscape:version="1.2.2 (b0a8486541, 2022-12-01)"
   xml:space="preserve"
   sodipodi:docname="fruitradar.svg"
   xmlns:inkscape="http://www.inkscape.org/namespaces/inkscape"
   xmlns:sodipodi="http://sodipodi.sourceforge.net/DTD/sodipodi-0.dtd"
   xmlns="http://www.w3.org/2000/svg"
   xmlns:svg="http://www.w3.org/2000/svg"><sodipodi:namedview
     id="namedview992"
     pagecolor="#858585"
     bordercolor="#000000"
     borderopacity="0.25"
     inkscape:showpageshadow="2"
     inkscape:pageopacity="0"
     inkscape:pagecheckerboard="0"
     inkscape:deskcolor="#d1d1d1"
     inkscape:document-units="px"
     showgrid="false"
     inkscape:zoom="11"
     inkscape:cx="8.2727273"
     inkscape:cy="24"
     inkscape:window-width="1366"
     inkscape:window-height="737"
     inkscape:window-x="0"
     inkscape:window-y="0"
     inkscape:window-maximized="1"
     inkscape:current-layer="svg990" /><defs
     id="defs987"><style
       id="style1174">.a{fill:none;stroke:#fff;stroke-linecap:round;stroke-linejoin:round;}</style></defs><path
     id="path11211"
     style="display:inline;fill:none;stroke:#fff;stroke-width:1;stroke-linecap:round;stroke-linejoin:round;stroke-dasharray:none;stroke-opacity:1;stop-color:#000000"
     d="m 19.193875,35.699824 a 1.3903717,1.3903717 0 0 1 -1.39037,1.390371 1.3903717,1.3903717 0 0 1 -1.390373,-1.390371 1.3903717,1.3903717 0 0 1 1.390373,-1.390372 1.3903717,1.3903717 0 0 1 1.39037,1.390372 z m 11.734349,-8.687762 a 1.3903717,1.3903717 0 0 1 -1.390373,1.390372 1.3903717,1.3903717 0 0 1 -1.390371,-1.390372 1.3903717,1.3903717 0 0 1 1.390371,-1.390371 1.3903717,1.3903717 0 0 1 1.390373,1.390371 z m -10.30092,-7.39394 a 1.3903717,1.3903717 0 0 1 -1.390371,1.390371 1.3903717,1.3903717 0 0 1 -1.390371,-1.390371 1.3903717,1.3903717 0 0 1 1.390371,-1.390372 1.3903717,1.3903717 0 0 1 1.390371,1.390372 z m 4.855743,16.000973 A 6.1661342,6.1661342 0 0 1 24,35.8001 6.1661342,6.1661342 0 0 1 17.833866,29.633965 6.1661342,6.1661342 0 0 1 24,23.46783 a 6.1661342,6.1661342 0 0 1 4.845979,2.353301 m 1.176073,2.487659 a 6.1661342,6.1661342 0 0 1 0.144083,1.325175 6.1661342,6.1661342 0 0 1 -1.80602,4.360115 m -2.752453,4.158977 A 8.6694587,8.6694587 0 0 1 24,38.303423 8.6694587,8.6694587 0 0 1 18.842969,36.602791 m -1.922245,-1.96449 A 8.6694587,8.6694587 0 0 1 15.330541,29.633965 8.6694587,8.6694587 0 0 1 24,20.964506 a 8.6694587,8.6694587 0 0 1 8.669459,8.669459 8.6694587,8.6694587 0 0 1 -2.539225,6.130232 m -4.082971,-4.08297 c 0.523938,-0.523939 0.848002,-1.247757 0.848002,-2.047262 0,-1.599009 -1.296255,-2.895267 -2.895265,-2.895267 -1.59901,0 -2.895267,1.296257 -2.895267,2.895267 0,1.599011 1.296258,2.895265 2.895267,2.895265 0.799505,0 1.523322,-0.324063 2.047263,-0.848003 l 6.457292,6.457294 m -6.77369,2.522803 A 11.162372,11.162372 0 0 1 24,40.796336 11.162372,11.162372 0 0 1 12.837628,29.633965 a 11.162372,11.162372 0 0 1 5.1644,-9.413973 m 2.494198,-1.18424 A 11.162372,11.162372 0 0 1 24,18.471593 11.162372,11.162372 0 0 1 35.162372,29.633965 v 0 a 11.162372,11.162372 0 0 1 -3.270574,7.89418 m 5.974111,-7.89418 A 13.865909,13.865909 0 0 1 24,43.499874 13.865909,13.865909 0 0 1 10.134091,29.633965 13.865909,13.865909 0 0 1 24,15.768056 13.865909,13.865909 0 0 1 37.865909,29.633965 Z M 31.991875,6.7669809 c 2.054238,1.4985185 -2.274586,7.7317811 -7.126059,6.9446501 -0.436255,-3.8719761 4.445481,-8.9000669 7.126059,-6.9446501 z m -8.922917,6.8911761 c -7.544209,0.54602 -10.287763,-7.4283567 -8.670064,-8.6569831 2.777348,-2.1093686 9.342405,2.7391152 8.670064,8.6569831 z" /></svg>
