<?xml version="1.0" encoding="UTF-8" standalone="no"?>
<!-- Created with Inkscape (http://www.inkscape.org/) -->

<svg
   width="48"
   height="48"
   viewBox="0 0 48 48"
   version="1.1"
   id="svg990"
   inkscape:version="1.2.2 (b0a8486541, 2022-12-01)"
   xml:space="preserve"
   sodipodi:docname="kalium.svg"
   xmlns:inkscape="http://www.inkscape.org/namespaces/inkscape"
   xmlns:sodipodi="http://sodipodi.sourceforge.net/DTD/sodipodi-0.dtd"
   xmlns="http://www.w3.org/2000/svg"
   xmlns:svg="http://www.w3.org/2000/svg"><sodipodi:namedview
     id="namedview992"
     pagecolor="#858585"
     bordercolor="#000000"
     borderopacity="0.25"
     inkscape:showpageshadow="2"
     inkscape:pageopacity="0"
     inkscape:pagecheckerboard="0"
     inkscape:deskcolor="#d1d1d1"
     inkscape:document-units="px"
     showgrid="false"
     inkscape:zoom="11.645833"
     inkscape:cx="9.1019681"
     inkscape:cy="24.042934"
     inkscape:window-width="1366"
     inkscape:window-height="737"
     inkscape:window-x="0"
     inkscape:window-y="0"
     inkscape:window-maximized="1"
     inkscape:current-layer="svg990" /><defs
     id="defs987"><style
       id="style1174">.a{fill:none;stroke:#fff;stroke-linecap:round;stroke-linejoin:round;}</style></defs><path
     id="path817"
     style="fill:none;stroke:#fff;stroke-linecap:round;stroke-linejoin:round;stop-color:#000000"
     d="M 45.479359,24 A 21.479359,21.479359 0 0 1 24,45.479359 21.479359,21.479359 0 0 1 2.5206413,24 21.479359,21.479359 0 0 1 24,2.5206413 21.479359,21.479359 0 0 1 45.479359,24 Z m -9.134898,-2.546975 c -1.116968,3.240755 -4.093618,6.773713 -7.453725,7.579635 -3.445653,0.826441 -7.14455,-2.933154 -9.521315,-4.75629 m -7.496816,2.259282 c 1.116968,-3.240755 4.093618,-6.773712 7.453725,-7.579635 3.445652,-0.826441 7.14455,2.933154 9.521314,4.75629" /></svg>
