<?xml version="1.0" encoding="UTF-8" standalone="no"?>
<!-- Created with Inkscape (http://www.inkscape.org/) -->

<svg
   width="48"
   height="48"
   viewBox="0 0 48 48"
   version="1.1"
   id="svg990"
   inkscape:version="1.2.2 (b0a8486541, 2022-12-01)"
   xml:space="preserve"
   sodipodi:docname="on_plus.svg"
   xmlns:inkscape="http://www.inkscape.org/namespaces/inkscape"
   xmlns:sodipodi="http://sodipodi.sourceforge.net/DTD/sodipodi-0.dtd"
   xmlns="http://www.w3.org/2000/svg"
   xmlns:svg="http://www.w3.org/2000/svg"><sodipodi:namedview
     id="namedview992"
     pagecolor="#858585"
     bordercolor="#000000"
     borderopacity="0.25"
     inkscape:showpageshadow="2"
     inkscape:pageopacity="0"
     inkscape:pagecheckerboard="0"
     inkscape:deskcolor="#d1d1d1"
     inkscape:document-units="px"
     showgrid="false"
     inkscape:zoom="11.313708"
     inkscape:cx="16.528622"
     inkscape:cy="23.334525"
     inkscape:window-width="1366"
     inkscape:window-height="737"
     inkscape:window-x="0"
     inkscape:window-y="0"
     inkscape:window-maximized="1"
     inkscape:current-layer="svg990"
     showguides="true" /><defs
     id="defs987"><style
   id="style1174">.a{fill:none;stroke:#fff;stroke-linecap:round;stroke-linejoin:round;}</style>
		
	</defs><path
     id="path1178"
     style="display:inline;stroke-opacity:1"
     class="a"
     inkscape:label="references"
     d="M 40.499997,5.4999999 H 7.4999969 a 2,2 0 0 0 -1.9999999,2 V 40.5 a 2,2 0 0 0 1.9999999,2 H 40.499997 a 2,2 0 0 0 2,-2 V 7.4999999 a 2,2 0 0 0 -2,-2 z M 36.712659,33.90717 v 6.022754 m -3.011376,-3.011377 h 6.022752 M 15.97035,14.608392 v 6.591137 m 3.837432,-3.418713 a 7.3174507,7.4211622 0 0 1 3.480033,6.318809 v 0 A 7.3174507,7.4211622 0 0 1 15.97035,31.520789 7.3174507,7.4211622 0 0 1 8.652908,24.099625 7.3174507,7.4211622 0 0 1 12.156897,17.765903 M 25.950458,31.544259 V 19.478076 c 0,-2.221443 3.592961,-2.944725 4.489308,-0.504252 l 4.053973,11.037812 c 0.896324,2.440451 4.489285,1.717166 4.489285,-0.504243 V 17.441114" /></svg>
