<?xml version="1.0" encoding="UTF-8" standalone="no"?>
<!-- Created with Inkscape (http://www.inkscape.org/) -->

<svg
   width="48"
   height="48"
   viewBox="0 0 48 48"
   version="1.1"
   id="svg990"
   inkscape:version="1.2.2 (b0a8486541, 2022-12-01)"
   xml:space="preserve"
   sodipodi:docname="plank_workout.svg"
   xmlns:inkscape="http://www.inkscape.org/namespaces/inkscape"
   xmlns:sodipodi="http://sodipodi.sourceforge.net/DTD/sodipodi-0.dtd"
   xmlns="http://www.w3.org/2000/svg"
   xmlns:svg="http://www.w3.org/2000/svg"><sodipodi:namedview
     id="namedview992"
     pagecolor="#858585"
     bordercolor="#000000"
     borderopacity="0.25"
     inkscape:showpageshadow="2"
     inkscape:pageopacity="0"
     inkscape:pagecheckerboard="0"
     inkscape:deskcolor="#d1d1d1"
     inkscape:document-units="px"
     showgrid="false"
     inkscape:zoom="11"
     inkscape:cx="16.272727"
     inkscape:cy="24"
     inkscape:window-width="1366"
     inkscape:window-height="737"
     inkscape:window-x="0"
     inkscape:window-y="0"
     inkscape:window-maximized="1"
     inkscape:current-layer="svg990" /><defs
     id="defs987"><style
       id="style1174">.a{fill:none;stroke:#fff;stroke-linecap:round;stroke-linejoin:round;}</style></defs><path
     id="path1178"
     style="display:inline;stroke-width:1;stroke-dasharray:none"
     class="a"
     inkscape:label="references"
     d="M 40.5,5.5 H 7.4999998 A 2,2 0 0 0 5.5,7.4999999 V 40.500001 A 2,2 0 0 0 7.4999998,42.5 H 40.5 a 2,2 0 0 0 2,-1.999999 V 7.4999999 A 2,2 0 0 0 40.5,5.5 Z m -8.058301,21.809702 c 2.267702,-3.364164 0.230394,-8.356867 -3.248196,-8.920879 m 7.455358,8.513742 c 1.09006,0.78944 3.389723,1.060884 5.06415,1.03483 0.236726,-0.0037 0.458703,-0.0033 0.668387,5.75e-4 m -11.7598,-0.04448 c 1.748279,-0.553239 4.139871,-1.176636 6.027263,-0.990923 2.076225,-2.418704 0.176695,-7.607853 -4.978502,-7.289208 0.768597,-1.81672 3.696524,-3.453653 5.48962,-2.109417 1.686089,-0.798441 3.793319,-0.615332 5.296257,0.341274 M 21.778753,16.537014 c -1.435384,0.04349 -2.46072,-0.202341 -3.505533,0.201472 -0.342414,0.13234 -0.892977,0.623454 -1.379947,0.908261 -0.06255,-0.831398 -0.135474,-1.814297 -0.369172,-2.738927 -0.480596,-1.901493 -1.641115,-3.556554 -4.121618,-3.647214 -3.4600208,-0.12646 -6.2318682,3.128519 -4.2989025,7.109868 0.5162894,1.063405 1.2333578,1.899019 2.5780675,2.526309 0.519222,0.242212 0.569855,1.132275 0.39301,1.612594 0.344477,-0.0137 0.676783,-0.007 1.059707,-0.08491 0.634786,0.170132 0.992388,0.680754 1.675107,0.533202 0.31458,0.657109 0.825294,0.560916 1.073011,0.303747 0.42036,-0.436399 0.763652,-0.981387 1.027161,-1.485834 1.295799,0.324422 1.9788,1.288215 2.742711,2.159152 0.32905,3.497644 1.682538,5.794785 4.556447,4.289298 0.71438,0.545765 1.579762,0.850735 2.488137,0.788198 m 1.643743,-11.964114 c -0.897433,-0.662447 -3.513007,-0.855262 -4.503222,1.875628 -0.393689,2.356702 0.264393,4.86417 2.229627,6.725673 0.326526,2.426361 0.891371,4.255543 1.776809,6.121138 -1.123317,-0.128744 -2.305662,0.08725 -3.224539,0.383444 -1.23163,0.397008 -3.610217,0.887906 -5.214561,0.768002 -0.556523,-0.25833 -1.207346,0.05888 -2.007065,0.252663 m 0.985839,-0.314876 c 1.075725,-2.504732 1.095233,-5.762618 1.268785,-8.925052 2.405719,3.180234 4.212667,1.422834 3.296137,-2.087655 -0.253637,-1.289021 -0.921735,-2.708029 -0.887993,-3.891579 0.02538,-0.890281 0.722098,-1.556926 1.516263,-1.804929 2.051399,-0.640613 3.916602,-0.03647 5.681013,1.716727 2.505353,1.249535 2.634076,4.091223 0.76634,5.373096 1.761384,3.763291 2.275333,7.897722 1.510608,11.946145 -3.077999,1.397564 -6.498672,0.88081 -12.076657,0.696056 l -2.885908,0.581044 c -0.39902,0.08034 -2.701566,0.666983 -2.827206,-0.358087 -0.596428,-0.264779 -0.867,-0.69182 -0.541403,-0.95054 -0.503056,-0.128988 -0.815262,-0.377987 -0.858216,-0.796295 -0.570064,-0.0959 -0.301101,-0.343343 -0.165874,-0.736149 -0.377879,-0.161112 -0.650157,-0.392034 -0.272077,-0.749186 0.416263,-0.393221 0.662166,-0.682647 1.093049,-0.753404 1.826087,-0.299871 3.439711,-0.27121 4.3973,1.054684 m -4.338959,2.693685 -1.026511,0.854887 -2.1076175,0.01964 C 8.5851089,36.750037 8.4207788,36.29234 8.5493101,36.023492 8.3221673,35.764696 8.2059511,35.262655 8.4566406,35.005625 8.2525906,34.687878 8.2997887,34.164369 8.5786272,33.941733 8.1609829,33.719051 8.5291161,32.542821 9.3698988,32.860482 9.7341123,32.348052 10.497465,31.926693 10.962206,31.946717 l 0.721531,0.129343 c 0.918461,-0.420738 1.715521,-1.121317 2.88263,-0.968901 -0.251791,-1.653911 -0.216538,-3.071484 0.09171,-4.408564 0.147691,-0.640642 0.293529,-1.056455 0.210311,-1.762202 -0.05787,-0.490778 -0.340155,-0.823179 -0.436841,-1.336626" /></svg>
