<?xml version="1.0" encoding="UTF-8" standalone="no"?>
<!-- Created with Inkscape (http://www.inkscape.org/) -->

<svg
   width="48"
   height="48"
   viewBox="0 0 48 48"
   version="1.1"
   id="svg990"
   inkscape:version="1.2.2 (b0a8486541, 2022-12-01)"
   xml:space="preserve"
   sodipodi:docname="powerampache.svg"
   xmlns:inkscape="http://www.inkscape.org/namespaces/inkscape"
   xmlns:sodipodi="http://sodipodi.sourceforge.net/DTD/sodipodi-0.dtd"
   xmlns="http://www.w3.org/2000/svg"
   xmlns:svg="http://www.w3.org/2000/svg"><sodipodi:namedview
     id="namedview992"
     pagecolor="#858585"
     bordercolor="#000000"
     borderopacity="0.25"
     inkscape:showpageshadow="2"
     inkscape:pageopacity="0"
     inkscape:pagecheckerboard="0"
     inkscape:deskcolor="#d1d1d1"
     inkscape:document-units="px"
     showgrid="false"
     inkscape:zoom="11"
     inkscape:cx="16.272727"
     inkscape:cy="16.818182"
     inkscape:window-width="1366"
     inkscape:window-height="737"
     inkscape:window-x="0"
     inkscape:window-y="0"
     inkscape:window-maximized="1"
     inkscape:current-layer="svg990" /><defs
     id="defs987"><style
       id="style1174">.a{fill:none;stroke:#fff;stroke-linecap:round;stroke-linejoin:round;}</style></defs><path
     id="path13920"
     style="display:inline;fill:none;stroke:#fff;stroke-width:1;stroke-linecap:round;stroke-linejoin:round;stroke-dasharray:none;stroke-opacity:1;stop-color:#000000"
     d="m 32.78653,15.406516 c 0,1.753944 -0.513918,3.387861 -1.399383,4.759376 m -2.225126,2.351694 c -1.449223,1.053816 -3.233011,1.675417 -5.161978,1.675417 m 8.786487,-8.786487 c 0,-1.753468 -0.513639,-3.386975 -1.398666,-4.75826 M 29.162011,8.2954479 C 27.712783,7.2416303 25.928984,6.62003 24,6.62003 c -1.928983,0 -3.712783,0.6216001 -5.16201,1.6754177 m -2.225134,2.3516933 c -0.885469,1.371515 -1.399386,3.005432 -1.399386,4.759375 0,1.753944 0.513917,3.387861 1.399383,4.759376 m 2.225126,2.351694 c 1.449223,1.053816 3.233011,1.675417 5.161977,1.675417 m -7.39238,-4.043692 a 1.7588936,1.7588936 0 0 1 0.653442,-0.125885 1.7588936,1.7588936 0 0 1 1.758894,1.758894 1.7588936,1.7588936 0 0 1 -0.16415,0.741955 m 10.288475,0 a 1.7588936,1.7588936 0 0 1 -0.16415,-0.741955 1.7588936,1.7588936 0 0 1 1.758894,-1.758894 1.7588936,1.7588936 0 0 1 0.653699,0.125987 M 18.855607,8.2884236 a 1.7588936,1.7588936 0 0 1 0.164305,0.7422889 1.7588936,1.7588936 0 0 1 -1.758894,1.7588935 1.7588936,1.7588936 0 0 1 -0.653667,-0.125974 m 14.785124,6.9e-5 a 1.7588936,1.7588936 0 0 1 -0.653494,0.125905 1.7588936,1.7588936 0 0 1 -1.758894,-1.7588935 1.7588936,1.7588936 0 0 1 0.164157,-0.7419717 m -3.005547,7.1177752 c 0,1.181164 -0.957522,2.138687 -2.138687,2.138687 m 2.138687,-2.138687 c 0,-1.181164 -0.957522,-2.138686 -2.138697,-2.138686 -1.181175,0 -2.138697,0.957522 -2.138697,2.138686 0,1.181164 0.957522,2.138687 2.138686,2.138687 m 5.510576,-2.138687 c 0,3.043386 -2.467152,5.510538 -5.510538,5.510538 m 5.510538,-5.510538 c 0,-3.043385 -2.467152,-5.5105374 -5.510565,-5.5105374 -3.043414,0 -5.510566,2.4671524 -5.510566,5.5105374 0,3.043386 2.467152,5.510538 5.510538,5.510538 M 25.444931,36.533283 24,35.220723 l -1.444931,1.31256 m 13.74311,-2.154483 -1.311613,-1.097415 -1.657282,1.147081 m 1.577334,-8.037793 V 15.406516 m 0,0 c 0,6.023529 -4.883035,10.906564 -10.906564,10.906564 m 0,0 c 4.512283,3.898386 4.380836,10.300947 0,17.186968 m 10.697753,-17.109375 -3.32616,4.135743 c -0.0051,4.05976 0.958135,8.436047 3.430565,11.30109 2.472431,-2.865043 3.435634,-7.24133 3.430567,-11.30109 l -3.326161,-4.135743 v 10.733539 m 0,-21.717696 C 34.906618,9.3829874 30.023583,4.4999518 24,4.4999518 c -6.023583,0 -10.906619,4.8830356 -10.906619,10.9065642 0,6.023529 4.883036,10.906564 10.906565,10.906564 m 0,0 c -4.512284,3.898386 -4.380837,10.300947 0,17.186968 m 0,-17.186968 V 37.77453 M 13.093381,26.390673 V 15.406516 m 0.208812,10.984157 3.32616,4.135743 c 0.0051,4.05976 -0.958136,8.436047 -3.430566,11.30109 -2.47243,-2.865043 -3.4356326,-7.24133 -3.4305657,-11.30109 L 13.093381,26.390673 V 37.124212 M 22.566135,33.064011 24,31.919918 l 1.433864,1.144093 m -13.732043,1.314789 1.311613,-1.097415 1.657282,1.147081" /></svg>
