<?xml version="1.0" encoding="UTF-8" standalone="no"?>
<!-- Created with Inkscape (http://www.inkscape.org/) -->

<svg
   width="48"
   height="48"
   viewBox="0 0 48 48"
   version="1.1"
   id="svg990"
   inkscape:version="1.2.2 (b0a8486541, 2022-12-01)"
   xml:space="preserve"
   sodipodi:docname="privacyshade.svg"
   xmlns:inkscape="http://www.inkscape.org/namespaces/inkscape"
   xmlns:sodipodi="http://sodipodi.sourceforge.net/DTD/sodipodi-0.dtd"
   xmlns="http://www.w3.org/2000/svg"
   xmlns:svg="http://www.w3.org/2000/svg"><sodipodi:namedview
     id="namedview992"
     pagecolor="#858585"
     bordercolor="#000000"
     borderopacity="0.25"
     inkscape:showpageshadow="2"
     inkscape:pageopacity="0"
     inkscape:pagecheckerboard="0"
     inkscape:deskcolor="#d1d1d1"
     inkscape:document-units="px"
     showgrid="false"
     inkscape:zoom="11.645833"
     inkscape:cx="3.0912344"
     inkscape:cy="24.042934"
     inkscape:window-width="1366"
     inkscape:window-height="737"
     inkscape:window-x="0"
     inkscape:window-y="0"
     inkscape:window-maximized="1"
     inkscape:current-layer="svg990" /><defs
     id="defs987"><style
       id="style1174">.a{fill:none;stroke:#fff;stroke-linecap:round;stroke-linejoin:round;}</style></defs><path
     id="path16072"
     style="display:inline;fill:none;stroke:#fff;stroke-width:1;stroke-linecap:round;stroke-linejoin:round;stroke-dasharray:none;stroke-opacity:0.999808;stop-color:#000000"
     d="m 33.426576,21.095625 c 0,5.27301 -4.274532,9.547629 -9.547435,9.547629 -5.272903,0 -9.547435,-4.274619 -9.547435,-9.547629 0,-5.27301 4.274532,-9.547629 9.547435,-9.547629 5.272903,0 9.547435,4.274619 9.547435,9.547629 z M 36,21.32937 C 36.806993,14.617016 30.519378,9.0880585 23.879344,9.0880585 17.23931,9.0880585 10.951695,14.617016 11.758688,21.32937 12.579253,28.154614 19.254041,37.9295 23.879344,37.771 28.504647,37.9295 35.179435,28.154614 36,21.32937 Z m -3.947166,9.831648 h 6.765712 v 7.578037 H 9.1814537 V 31.161018 H 15.704974 M 36.066475,20.260939 h 2.751979 v 7.578037 l -4.888719,-10e-7 m -20.101756,0 -4.6465262,10e-7 v -7.578037 h 2.5117422 m 14.215032,-10.9999943 12.910319,-3e-7 V 16.838981 H 35.4728 m -23.185839,0 H 9.1814537 v -7.5780366 0 H 21.851535 M 40.5,5.4999999 h -33 a 2,2 0 0 0 -1.9999999,2 V 40.5 A 2,2 0 0 0 7.5,42.5 h 33 a 2,2 0 0 0 2,-2 V 7.4999999 a 2,2 0 0 0 -2,-2 z" /></svg>
