<?xml version="1.0" encoding="UTF-8" standalone="no"?>
<!-- Created with Inkscape (http://www.inkscape.org/) -->

<svg
   width="48"
   height="48"
   viewBox="0 0 48 48"
   version="1.1"
   id="svg990"
   inkscape:version="1.2.2 (b0a8486541, 2022-12-01)"
   xml:space="preserve"
   sodipodi:docname="usb_backup.svg"
   xmlns:inkscape="http://www.inkscape.org/namespaces/inkscape"
   xmlns:sodipodi="http://sodipodi.sourceforge.net/DTD/sodipodi-0.dtd"
   xmlns="http://www.w3.org/2000/svg"
   xmlns:svg="http://www.w3.org/2000/svg"><sodipodi:namedview
     id="namedview992"
     pagecolor="#858585"
     bordercolor="#000000"
     borderopacity="0.25"
     inkscape:showpageshadow="2"
     inkscape:pageopacity="0"
     inkscape:pagecheckerboard="0"
     inkscape:deskcolor="#d1d1d1"
     inkscape:document-units="px"
     showgrid="false"
     inkscape:zoom="11"
     inkscape:cx="16.272727"
     inkscape:cy="24"
     inkscape:window-width="1366"
     inkscape:window-height="737"
     inkscape:window-x="0"
     inkscape:window-y="0"
     inkscape:window-maximized="1"
     inkscape:current-layer="svg990" /><defs
     id="defs987"><style
       id="style1174">.a{fill:none;stroke:#fff;stroke-linecap:round;stroke-linejoin:round;}</style></defs><path
     id="path18317"
     style="fill:none;stroke:#fff;stroke-width:1;stroke-linecap:round;stroke-linejoin:round;stroke-dasharray:none;stroke-opacity:1;stop-color:#000000"
     d="M 4.5000813,22.297537 H 10.496636 M 4.5000813,13.950723 H 13.331911 M 4.5000813,30.644351 H 11.65495 m 14.32957,-13.814752 3.497164,-3.452903 3.497163,3.452903 m 2.116957,6.200339 v -3.413504 h 3.413503 v 3.413504 h -3.413503 l -5.658381,1.688871 V 13.503163 m 0,16.259542 c -1.496655,0 -2.709933,1.213279 -2.709933,2.709934 0,1.496654 1.213278,2.709932 2.709933,2.709932 1.496654,0 2.709933,-1.213278 2.709933,-2.709932 0,-1.496655 -1.213279,-2.709934 -2.709933,-2.709934 V 26.53163 m 0,-1.812821 v 1.812821 l -6.227501,-2.512129 c -0.361023,0.586351 -1.008825,0.977264 -1.74793,0.977264 -1.132843,0 -2.051194,-0.91835 -2.051194,-2.051194 0,-1.132843 0.918351,-2.051195 2.051194,-2.051195 1.132844,0 2.051196,0.918352 2.051196,2.051195 0,0.39374 -0.110937,0.761567 -0.303266,1.07393 M 43.499919,24 A 14.566052,14.566052 0 0 1 28.933867,38.566052 14.566052,14.566052 0 0 1 14.367815,24 14.566052,14.566052 0 0 1 28.933867,9.4339482 14.566052,14.566052 0 0 1 43.499919,24 Z" /></svg>
