<?xml version="1.0" encoding="UTF-8" standalone="no"?>
<!-- Created with Inkscape (http://www.inkscape.org/) -->

<svg
   width="48"
   height="48"
   viewBox="0 0 48 48"
   version="1.1"
   id="svg990"
   inkscape:version="1.2.1 (9c6d41e, 2022-07-14)"
   xml:space="preserve"
   sodipodi:docname="smms.svg"
   xmlns:inkscape="http://www.inkscape.org/namespaces/inkscape"
   xmlns:sodipodi="http://sodipodi.sourceforge.net/DTD/sodipodi-0.dtd"
   xmlns="http://www.w3.org/2000/svg"
   xmlns:svg="http://www.w3.org/2000/svg"><sodipodi:namedview
     id="namedview992"
     pagecolor="#858585"
     bordercolor="#000000"
     borderopacity="0.25"
     inkscape:showpageshadow="2"
     inkscape:pageopacity="0"
     inkscape:pagecheckerboard="0"
     inkscape:deskcolor="#d1d1d1"
     inkscape:document-units="px"
     showgrid="false"
     inkscape:zoom="8"
     inkscape:cx="23.6875"
     inkscape:cy="27.625"
     inkscape:window-width="1366"
     inkscape:window-height="737"
     inkscape:window-x="0"
     inkscape:window-y="0"
     inkscape:window-maximized="1"
     inkscape:current-layer="svg990" /><defs
     id="defs987"><style
       id="style1174">.a{fill:none;stroke:#fff;stroke-linecap:round;stroke-linejoin:round;}</style></defs><g
     inkscape:groupmode="layer"
     id="layer2"
     inkscape:label="Layer 2"
     transform="translate(-0.54224115,3.4986165)"><path
       style="fill:none;stroke:#ffffff;stroke-linecap:round;stroke-linejoin:round;stroke-opacity:1;stop-color:#000000"
       d="m 10.005189,24.613523 v 2.328515 C 6.9359242,27.358616 5.0315624,26.699712 5.056317,23.857484 5.0755915,21.644453 6.8529956,20.442267 8.1509815,20.442267 H 10.763578 C 10.84537,19.600801 9.4838808,18.644791 5.9976999,19.716811 v -2.514617 c 3.0199513,-1.079033 4.0570771,-0.636259 4.9547941,-0.462615 h 3.623983 l -0.158983,2.711925 h -0.864373 c 0.134155,0.4575 0.270797,0.909017 0.275867,1.676995 v 5.914692 H 10.786 v -3.962497 c -1.4469053,-0.128645 -2.8407149,-0.170146 -2.5729146,0.96773 0.1793851,0.762202 0.9970832,0.635227 1.7921036,0.565099 z"
       id="path19503"
       sodipodi:nodetypes="ccsscccccccccccsc" /><path
       style="fill:none;stroke:#ffffff;stroke-linecap:round;stroke-linejoin:round;stroke-opacity:1;stop-color:#000000"
       d="m 30.205189,24.613523 v 2.328515 c -3.069265,0.416578 -4.973627,-0.242326 -4.948872,-3.084554 0.01927,-2.213031 1.796679,-3.415217 3.094665,-3.415217 h 2.612596 c 0.08179,-0.841466 -1.279697,-1.797476 -4.765878,-0.725456 v -2.514617 c 3.019951,-1.079033 4.057077,-0.636259 4.954794,-0.462615 h 3.623983 l -0.158983,2.711925 h -0.864373 c 0.134155,0.4575 0.270797,0.909017 0.275867,1.676995 v 5.914692 H 30.986 v -3.962497 c -1.446905,-0.128645 -2.840715,-0.170146 -2.572915,0.96773 0.179386,0.762202 0.997084,0.635227 1.792104,0.565099 z"
       id="path19503-6"
       sodipodi:nodetypes="ccsscccccccccccsc" /><path
       style="fill:none;stroke:#ffffff;stroke-linecap:round;stroke-linejoin:round;stroke-opacity:1;stop-color:#000000"
       d="m 15.413251,16.859254 v 6.718026 c 0,5.154781 8.994806,4.722844 8.994806,0 v -9.857707 h -3.15521 v 9.611261 c 0,1.676374 -2.872424,1.700473 -2.872424,0 v -6.487515 z"
       id="path21110"
       sodipodi:nodetypes="cssccsscc" /><path
       style="fill:none;stroke:#ffffff;stroke-linecap:round;stroke-linejoin:round;stroke-opacity:1;stop-color:#000000"
       d="m 35.352821,19.477412 0.275643,-2.718306 c 1.772289,-0.0101 3.79929,-0.412722 4.251572,1.611387 0.16081,1.579918 -1.783888,3.631734 -1.340828,4.795446 0.05043,1.237532 2.063138,1.815465 2.386168,0 0.262309,-1.474204 -0.358099,-1.799587 -0.885515,-2.054404 l 0.0504,-2.378399 c 0.816912,0.156426 1.081104,-0.63588 0.923226,-2.152657 h 3.004858 c 0.103204,2.313462 -0.488144,2.671188 -0.948171,3.398691 1.404647,1.1792 1.024711,4.892499 -1.74e-4,5.982333 -1.626253,1.729312 -5.330674,1.58447 -6.6,0 -1.398928,-1.74625 -1.118865,-4.501043 -0.100334,-5.554455 0.334944,-0.854231 -0.190186,-1.013716 -1.016845,-0.929636 z"
       id="path21134"
       sodipodi:nodetypes="ccccscccccsscc" /></g></svg>
