<?xml version="1.0" encoding="UTF-8" standalone="no"?>
<!-- Created with Inkscape (http://www.inkscape.org/) -->

<svg
   width="48"
   height="48"
   viewBox="0 0 48 48"
   version="1.1"
   id="svg990"
   inkscape:version="1.2.1 (9c6d41e, 2022-07-14)"
   xml:space="preserve"
   sodipodi:docname="top_news.svg"
   xmlns:inkscape="http://www.inkscape.org/namespaces/inkscape"
   xmlns:sodipodi="http://sodipodi.sourceforge.net/DTD/sodipodi-0.dtd"
   xmlns="http://www.w3.org/2000/svg"
   xmlns:svg="http://www.w3.org/2000/svg"><sodipodi:namedview
     id="namedview992"
     pagecolor="#858585"
     bordercolor="#000000"
     borderopacity="0.25"
     inkscape:showpageshadow="2"
     inkscape:pageopacity="0"
     inkscape:pagecheckerboard="0"
     inkscape:deskcolor="#d1d1d1"
     inkscape:document-units="px"
     showgrid="false"
     inkscape:zoom="5.4375377"
     inkscape:cx="23.448113"
     inkscape:cy="15.815982"
     inkscape:window-width="1366"
     inkscape:window-height="737"
     inkscape:window-x="0"
     inkscape:window-y="0"
     inkscape:window-maximized="1"
     inkscape:current-layer="layer2" /><defs
     id="defs987"><style
   id="style1174">.a{fill:none;stroke:#fff;stroke-linecap:round;stroke-linejoin:round;}</style>
		
		
	
		
	
		
	
		
	
		
		
	
		
	
			
		</defs><g
     inkscape:groupmode="layer"
     id="layer2"
     inkscape:label="Layer 2"><circle
       style="display:inline;fill:none;fill-opacity:0.941176;stroke:#ffffff;stroke-width:1;stroke-linecap:round;stroke-linejoin:round;stroke-dasharray:none;stroke-opacity:1;stop-color:#000000"
       id="path14652"
       cx="23.260532"
       cy="16.402931"
       r="8.6872959" /><circle
       style="fill:none;fill-opacity:0.941176;stroke:#ffffff;stroke-width:1;stroke-linecap:round;stroke-linejoin:round;stroke-dasharray:none;stroke-opacity:1;stop-color:#000000"
       id="path14652-3"
       cx="23.260532"
       cy="16.402931"
       r="6.8700099" /><circle
       style="fill:none;fill-opacity:0.941176;stroke:#ffffff;stroke-width:1;stroke-linecap:round;stroke-linejoin:round;stroke-dasharray:none;stroke-opacity:1;stop-color:#000000"
       id="path14652-3-1"
       cx="23.260532"
       cy="16.402931"
       r="1.868225" /><path
       id="path14652-3-6"
       style="fill:none;fill-opacity:0.941176;stroke:#ffffff;stroke-width:1;stroke-linecap:round;stroke-linejoin:round;stroke-dasharray:none;stroke-opacity:1;stop-color:#000000"
       d="m 23.260533,12.107467 c 2.372319,0 4.295464,1.923145 4.295464,4.295465 0,2.37232 -1.923145,4.295464 -4.295464,4.295464 -1.333427,0 -2.524945,-0.60758 -3.312811,-1.560997"
       sodipodi:nodetypes="cssc" /><path
       class="st5"
       d="M 34.009395,23.324058 V 9.2998106 h 4.55788 c 2.629547,0 4.733184,2.1036374 4.733184,4.7331834 0,2.629546 -2.103637,4.733183 -4.733184,4.733183 h -4.55788"
       id="path6608"
       style="fill:none;stroke:#ffffff;stroke-width:1;stroke-linecap:round;stroke-linejoin:round;stroke-miterlimit:10;stroke-dasharray:none" /><line
       class="st5"
       x1="4.6995602"
       y1="9.2998114"
       x2="13.815343"
       y2="9.2998114"
       id="line6632"
       style="fill:none;stroke:#ffffff;stroke-width:1;stroke-linecap:round;stroke-linejoin:round;stroke-miterlimit:10;stroke-dasharray:none" /><line
       class="st5"
       x1="9.2574511"
       y1="23.324059"
       x2="9.2574511"
       y2="9.2998114"
       id="line6634"
       style="fill:none;stroke:#ffffff;stroke-width:1;stroke-linecap:round;stroke-linejoin:round;stroke-miterlimit:10;stroke-dasharray:none" /><polyline
       class="st5"
       points="183.4,48.7 183.4,40.7 188.7,48.7 188.7,40.7   "
       id="polyline6650"
       style="fill:none;stroke:#ffffff;stroke-width:0.780347;stroke-linecap:round;stroke-linejoin:round;stroke-miterlimit:10;stroke-dasharray:none"
       transform="matrix(1.2814818,0,0,1.2814818,-229.36408,-22.282237)" /><polyline
       class="st5"
       points="280,40.7 278,48.7 276,40.7 274,48.7 272,40.7    "
       id="polyline6678"
       style="fill:none;stroke:#ffffff;stroke-width:0.780347;stroke-linecap:round;stroke-linejoin:round;stroke-miterlimit:10;stroke-dasharray:none"
       transform="matrix(1.2814818,0,0,1.2814818,-325.4395,-22.282037)" /><path
       class="st5"
       d="m 35.67661,38.972593 c 0.640741,0.768889 1.40963,1.153334 2.562964,1.153334 h 1.537778 c 1.40963,0 2.562964,-1.153334 2.562964,-2.562964 v 0 c 0,-1.40963 -1.153334,-2.562964 -2.562964,-2.562964 h -1.665926 c -1.40963,0 -2.562964,-1.153333 -2.562964,-2.562963 v 0 c 0,-1.40963 1.153334,-2.562964 2.562964,-2.562964 h 1.537778 c 1.153333,0 1.922223,0.256297 2.562963,1.153334"
       id="path6778"
       style="fill:none;stroke:#ffffff;stroke-width:1;stroke-linecap:round;stroke-linejoin:round;stroke-miterlimit:10;stroke-dasharray:none" /><line
       class="st5"
       x1="15.224589"
       y1="35"
       x2="18.55644"
       y2="35"
       id="line6916"
       style="fill:none;stroke:#ffffff;stroke-width:1;stroke-linecap:round;stroke-linejoin:round;stroke-miterlimit:10;stroke-dasharray:none" /><polyline
       class="st5"
       points="98,48.7 94,48.7 94,40.7 98,40.7   "
       id="polyline6918"
       style="fill:none;stroke:#ffffff;stroke-width:0.780347;stroke-linecap:round;stroke-linejoin:round;stroke-miterlimit:10;stroke-dasharray:none"
       transform="matrix(1.2814818,0,0,1.2814818,-105.2347,-22.282237)" /></g></svg>
