<?xml version="1.0" encoding="UTF-8" standalone="no"?>
<!-- Created with Inkscape (http://www.inkscape.org/) -->

<svg
   width="48"
   height="48"
   viewBox="0 0 48 48"
   version="1.1"
   id="svg990"
   inkscape:version="1.2.1 (9c6d41e, 2022-07-14)"
   xml:space="preserve"
   sodipodi:docname="tungngern.svg"
   xmlns:inkscape="http://www.inkscape.org/namespaces/inkscape"
   xmlns:sodipodi="http://sodipodi.sourceforge.net/DTD/sodipodi-0.dtd"
   xmlns:xlink="http://www.w3.org/1999/xlink"
   xmlns="http://www.w3.org/2000/svg"
   xmlns:svg="http://www.w3.org/2000/svg"><sodipodi:namedview
     id="namedview992"
     pagecolor="#858585"
     bordercolor="#000000"
     borderopacity="0.25"
     inkscape:showpageshadow="2"
     inkscape:pageopacity="0"
     inkscape:pagecheckerboard="0"
     inkscape:deskcolor="#d1d1d1"
     inkscape:document-units="px"
     showgrid="false"
     inkscape:zoom="13.353231"
     inkscape:cx="20.332158"
     inkscape:cy="22.915802"
     inkscape:window-width="1366"
     inkscape:window-height="737"
     inkscape:window-x="0"
     inkscape:window-y="0"
     inkscape:window-maximized="1"
     inkscape:current-layer="svg990" /><defs
     id="defs987"><linearGradient
   inkscape:collect="always"
   id="linearGradient21632"><stop
     style="stop-color:#a4a4a4;stop-opacity:1;"
     offset="0"
     id="stop21628" /><stop
     style="stop-color:#a4a4a4;stop-opacity:0;"
     offset="1"
     id="stop21630" /></linearGradient><style
   id="style1174">.a{fill:none;stroke:#fff;stroke-linecap:round;stroke-linejoin:round;}</style><linearGradient
   inkscape:collect="always"
   xlink:href="#linearGradient21632"
   id="linearGradient21634"
   x1="62.799999"
   y1="44.7"
   x2="69.2"
   y2="44.7"
   gradientUnits="userSpaceOnUse" />
		
		
	</defs><path
     style="fill:none;stroke:#ffffff;stroke-linecap:round;stroke-linejoin:round;stroke-opacity:0.999407;stop-color:#000000"
     d="m 29.939076,26.165004 c 1.346409,1.143302 2.219752,1.756811 4.621726,3.810617 6.435971,5.503071 4.411526,12.928604 -10.558589,13.223461 C 9.0320978,42.904225 7.0076535,35.478692 13.443624,29.975621 c 2.401974,-2.053806 3.275317,-2.667315 4.621726,-3.810617"
     id="path14931-1"
     sodipodi:nodetypes="cscsc" /><rect
     style="fill:none;stroke:#ffffff;stroke-linecap:round;stroke-linejoin:round;stroke-opacity:0.999407;stop-color:#000000"
     id="rect15763"
     width="11.992542"
     height="1.691601"
     x="18.005941"
     y="24.612574" /><path
     style="fill:none;stroke:#ffffff;stroke-linecap:round;stroke-linejoin:round;stroke-opacity:0.999407;stop-color:#000000"
     d="m 18.100996,24.613817 -3.941163,-5.244475 c 1.803647,-2.681109 4.343184,-1.384707 6.82903,0 2.432656,1.355078 4.676853,3.167478 7.906136,2.100368 2.964867,-0.979734 3.552277,-2.121044 5.27902,-3.185888 l -4.179333,6.005671"
     id="path15765"
     sodipodi:nodetypes="ccsscc" /><path
     style="fill:none;stroke:#ffffff;stroke-linecap:round;stroke-linejoin:round;stroke-opacity:0.999407;stop-color:#000000"
     d="m 19.538672,18.505938 v -6.143941 h 8.602241 v 9.096498"
     id="path15767" /><path
     id="path15821"
     style="fill:none;stroke:#ffffff;stroke-linecap:round;stroke-linejoin:round;stroke-opacity:0.999407;stop-color:#000000"
     d="m 20.835769,19.177195 a 3.1298592,3.1298592 0 0 1 2.878188,-1.900205 3.1298592,3.1298592 0 0 1 3.129859,3.12986 v 0 a 3.1298592,3.1298592 0 0 1 -0.233302,1.185738" /><path
     style="fill:none;stroke:#ffffff;stroke-linecap:round;stroke-linejoin:round;stroke-opacity:0.999407;stop-color:#000000"
     d="m 29.011732,21.277 c 0.154293,-1.568037 1.029489,-3.785197 2.288862,-6.551 m -0.650381,-4.579899 -5.313357,-1.1487782 -1.35158,3.2121512"
     id="path15862"
     sodipodi:nodetypes="ccccc" /><path
     style="fill:none;stroke:#ffffff;stroke-linecap:round;stroke-linejoin:round;stroke-opacity:0.999407;stop-color:#000000"
     d="M 18.832213,18.188 C 18.191412,15.435401 16.850489,12.214024 14.278437,9.0618286 l 8.353602,-1.7254583 c 0.688598,1.3175467 1.47822,2.9363737 1.679174,3.9206297"
     id="path15864"
     sodipodi:nodetypes="cccc" /><circle
     style="fill:none;stroke:#ffffff;stroke-linecap:round;stroke-linejoin:round;stroke-opacity:0.999407;stop-color:#000000"
     id="path15868"
     cx="37.528416"
     cy="11.538295"
     r="6.8802037" /><circle
     style="fill:none;stroke:#ffffff;stroke-width:1;stroke-linecap:round;stroke-linejoin:round;stroke-dasharray:none;stroke-opacity:0.999407;stop-color:#000000"
     id="path15868-3"
     cx="37.528416"
     cy="11.538295"
     r="4.8891039" /><path
     class="st5"
     d="m 38.000591,11.658732 c 0.560892,0.189258 0.869183,0.815895 0.685091,1.392526 -0.184092,0.576631 -0.793625,0.893573 -1.354518,0.704315 l -1.682677,-0.567774 1.338854,-4.1936831 1.682677,0.5677743 c 0.560892,0.1892581 0.869183,0.8158948 0.685091,1.3925268 -0.184093,0.576631 -0.793626,0.893573 -1.354518,0.704315 z"
     id="path20472"
     style="display:inline;fill:none;stroke:#ffffff;stroke-width:1;stroke-linecap:round;stroke-linejoin:round;stroke-miterlimit:10;stroke-dasharray:none;stroke-opacity:0.999407" /><line
     class="st5"
     x1="38.012779"
     y1="11.67092"
     x2="36.315582"
     y2="11.102157"
     id="line20474"
     style="fill:none;stroke:#ffffff;stroke-width:1;stroke-linecap:round;stroke-linejoin:round;stroke-miterlimit:10;stroke-dasharray:none;stroke-opacity:0.999407" /><line
     class="st5"
     x1="38.313087"
     y1="9.441453"
     x2="38.480442"
     y2="8.917243"
     id="line20702"
     style="fill:none;stroke:#ffffff;stroke-width:1;stroke-linecap:round;stroke-linejoin:round;stroke-miterlimit:10;stroke-dasharray:none;stroke-opacity:0.999407" /><line
     class="st5"
     x1="36.806877"
     y1="14.159347"
     x2="36.974232"
     y2="13.635136"
     id="line20704"
     style="fill:none;stroke:#ffffff;stroke-width:1;stroke-linecap:round;stroke-linejoin:round;stroke-miterlimit:10;stroke-dasharray:none;stroke-opacity:0.999407" /></svg>
