<?xml version="1.0" encoding="UTF-8" standalone="no"?>
<!-- Created with Inkscape (http://www.inkscape.org/) -->

<svg
   width="48"
   height="48"
   viewBox="0 0 48 48"
   version="1.1"
   id="svg990"
   inkscape:version="1.2.1 (9c6d41e, 2022-07-14)"
   xml:space="preserve"
   sodipodi:docname="_3plus.svg"
   xmlns:inkscape="http://www.inkscape.org/namespaces/inkscape"
   xmlns:sodipodi="http://sodipodi.sourceforge.net/DTD/sodipodi-0.dtd"
   xmlns="http://www.w3.org/2000/svg"
   xmlns:svg="http://www.w3.org/2000/svg"><sodipodi:namedview
     id="namedview992"
     pagecolor="#858585"
     bordercolor="#000000"
     borderopacity="0.25"
     inkscape:showpageshadow="2"
     inkscape:pageopacity="0"
     inkscape:pagecheckerboard="0"
     inkscape:deskcolor="#d1d1d1"
     inkscape:document-units="px"
     showgrid="false"
     inkscape:zoom="11"
     inkscape:cx="23.954545"
     inkscape:cy="24"
     inkscape:window-width="1366"
     inkscape:window-height="737"
     inkscape:window-x="0"
     inkscape:window-y="0"
     inkscape:window-maximized="1"
     inkscape:current-layer="svg990" /><defs
     id="defs987"><style
   id="style1174">.a{fill:none;stroke:#fff;stroke-linecap:round;stroke-linejoin:round;}</style>
		
		
	
		
		
	
		
		
		
	
		
		
	</defs><g
     inkscape:groupmode="layer"
     id="layer2"
     inkscape:label="Layer 2"><line
       class="st5"
       x1="26.296083"
       y1="19.142868"
       x2="35.620644"
       y2="19.142868"
       id="line6462"
       style="fill:none;stroke:#ffffff;stroke-width:1;stroke-linecap:round;stroke-linejoin:round;stroke-miterlimit:10;stroke-dasharray:none;stroke-opacity:1" /><line
       class="st5"
       x1="30.958363"
       y1="14.480588"
       x2="30.958363"
       y2="23.805147"
       id="line6464"
       style="fill:none;stroke:#ffffff;stroke-width:1;stroke-linecap:round;stroke-linejoin:round;stroke-miterlimit:10;stroke-dasharray:none;stroke-opacity:1" /><line
       class="st5"
       x1="32.591255"
       y1="27.725267"
       x2="39.029125"
       y2="27.725267"
       id="line6462-5"
       style="fill:none;stroke:#ffffff;stroke-width:1;stroke-linecap:round;stroke-linejoin:round;stroke-miterlimit:10;stroke-dasharray:none;stroke-opacity:1" /><line
       class="st5"
       x1="35.810192"
       y1="24.506332"
       x2="35.810192"
       y2="30.944202"
       id="line6464-3"
       style="fill:none;stroke:#ffffff;stroke-width:1;stroke-linecap:round;stroke-linejoin:round;stroke-miterlimit:10;stroke-dasharray:none;stroke-opacity:1" /><path
       id="line6584"
       style="fill:none;stroke:#ffffff;stroke-width:1;stroke-linecap:round;stroke-linejoin:round;stroke-miterlimit:10;stroke-dasharray:none;stroke-opacity:1"
       class="st5"
       d="m 12.201334,24.007902 h 3.727447 M 8.9708742,15.559019 c 1.4909778,-1.242484 2.9819588,-1.739475 6.2124128,-1.739475 h 0.745488 c 2.733461,0 4.96993,2.236469 4.96993,4.969928 v 0 c 0,2.733463 -2.236238,5.164692 -4.969698,5.164692 m -6.9581328,8.254118 c 1.4909778,1.242484 2.7334618,1.739475 6.2124128,1.739475 h 0.745488 c 2.733461,0 4.96993,-2.236469 4.96993,-4.969928 v 0 c 0,-2.733462 -2.236469,-4.96993 -4.96993,-4.96993" /><line
       class="st5"
       x1="26.474104"
       y1="31.707657"
       x2="31.419701"
       y2="31.707657"
       id="line6462-6"
       style="fill:none;stroke:#ffffff;stroke-width:1;stroke-linecap:round;stroke-linejoin:round;stroke-miterlimit:10;stroke-dasharray:none;stroke-opacity:1" /><line
       class="st5"
       x1="28.946903"
       y1="29.234858"
       x2="28.946903"
       y2="34.180454"
       id="line6464-2"
       style="fill:none;stroke:#ffffff;stroke-width:1;stroke-linecap:round;stroke-linejoin:round;stroke-miterlimit:10;stroke-dasharray:none;stroke-opacity:1" /><path
       class="a"
       d="m 40.5,5.4999999 h -33 a 2,2 0 0 0 -1.9999999,2 V 40.5 A 2,2 0 0 0 7.5,42.5 h 33 a 2,2 0 0 0 2,-2 V 7.4999999 a 2,2 0 0 0 -2,-2 z"
       id="path1178"
       inkscape:label="references"
       style="display:inline;stroke-width:1;stroke-dasharray:none" /></g></svg>
