<?xml version="1.0" encoding="UTF-8" standalone="no"?>
<!-- Created with Inkscape (http://www.inkscape.org/) -->

<svg
   width="48"
   height="48"
   viewBox="0 0 48 48"
   version="1.1"
   id="svg990"
   inkscape:version="1.2.1 (9c6d41e, 2022-07-14)"
   xml:space="preserve"
   sodipodi:docname="albertsons.svg"
   xmlns:inkscape="http://www.inkscape.org/namespaces/inkscape"
   xmlns:sodipodi="http://sodipodi.sourceforge.net/DTD/sodipodi-0.dtd"
   xmlns="http://www.w3.org/2000/svg"
   xmlns:svg="http://www.w3.org/2000/svg"><sodipodi:namedview
     id="namedview992"
     pagecolor="#858585"
     bordercolor="#000000"
     borderopacity="0.25"
     inkscape:showpageshadow="2"
     inkscape:pageopacity="0"
     inkscape:pagecheckerboard="0"
     inkscape:deskcolor="#d1d1d1"
     inkscape:document-units="px"
     showgrid="false"
     inkscape:zoom="11"
     inkscape:cx="23.681818"
     inkscape:cy="24"
     inkscape:window-width="1366"
     inkscape:window-height="737"
     inkscape:window-x="0"
     inkscape:window-y="0"
     inkscape:window-maximized="1"
     inkscape:current-layer="layer2" /><defs
     id="defs987"><style
       id="style1174">.a{fill:none;stroke:#fff;stroke-linecap:round;stroke-linejoin:round;}</style></defs><g
     inkscape:groupmode="layer"
     id="layer2"
     inkscape:label="Layer 2"
     transform="matrix(0.90206769,0,0,0.90206769,3.1722109,3.3888284)"><path
       style="fill:none;stroke:#ffffff;stroke-linecap:round;stroke-linejoin:round;stroke-opacity:1;stop-color:#000000"
       d="m 27.660226,9.7609363 h -9.459952 c 0,0 -9.849998,11.2947987 -14.542387,17.1343097 C 0.74643437,30.518445 0.64637283,35.697051 3.513,35.93668 h 8.352691 C 11.018322,35.37041 7.913862,32.956332 12.51353,27.536855 L 27.60047,9.7609363 m -9.400192,0 c 0,0 -9.849998,11.2947987 -14.542387,17.1343097 C 0.74643437,30.518445 0.64637283,35.697051 3.513,35.93668 h 8.352691 C 11.018322,35.37041 7.913862,32.956332 12.51353,27.536855 L 27.63035,9.7609363 Z"
       id="path1497"
       sodipodi:nodetypes="ccsccsccsccscc" /><path
       id="path2405"
       style="display:inline;fill:none;stroke:#ffffff;stroke-linecap:round;stroke-linejoin:round;stroke-opacity:1;stop-color:#000000"
       d="m 29.074789,11.07642 c 2.436814,2.805471 9.559317,10.982969 13.445211,15.818826 2.91145,3.623195 3.011512,8.801805 0.144887,9.041434 h -8.352691 c 0.847368,-0.566269 3.951824,-2.980353 -0.647839,-8.399825 L 24.171212,16.897579 Z"
       sodipodi:nodetypes="csccscc" /><path
       style="fill:none;stroke:#ffffff;stroke-width:1;stroke-linecap:round;stroke-linejoin:round;stroke-dasharray:none;stroke-opacity:1;stop-color:#000000"
       d="M 23.552558,30.246352 C 23.08353,29.118278 20.433632,27.711919 20.409871,24.5822 c -0.02069,-2.724776 2.75255,-3.922628 2.947319,-5.45409 2.378682,3.919267 2.604742,5.004624 2.525622,6.334722 -0.148991,2.504725 -2.001953,2.677274 -2.330254,4.78352 z"
       id="path510"
       sodipodi:nodetypes="cscsc" /><path
       style="fill:none;stroke:#ffffff;stroke-width:1;stroke-linecap:round;stroke-linejoin:round;stroke-dasharray:none;stroke-opacity:1;stop-color:#000000"
       d="m 23.195966,33.053724 c -1.372701,-1.21007 -1.181805,-3.326028 -4.996925,-4.022238 h -3.523727 c -0.106407,1.524517 -0.421286,3.834958 2.990975,5.039036 0.644538,0.227437 2.878653,-0.05514 3.566785,0.499526 l 2.288219,1.844413 c 0.691201,-1.203992 0.972875,-2.65412 3.931758,-2.495184 l 1.490387,0.0027 c 2.875011,0.0052 2.883246,-3.682896 2.853523,-5.109329 h -3.454276 c -3.171889,0.541454 -3.795965,3.1429 -5.146719,4.241057 z"
       id="path1628"
       sodipodi:nodetypes="cssccccsccc" /></g></svg>
