<?xml version="1.0" encoding="UTF-8" standalone="no"?>
<!-- Created with Inkscape (http://www.inkscape.org/) -->

<svg
   width="48"
   height="48"
   viewBox="0 0 48 48"
   version="1.1"
   id="svg990"
   inkscape:version="1.2.2 (b0a8486541, 2022-12-01)"
   xml:space="preserve"
   sodipodi:docname="albertsons.svg"
   xmlns:inkscape="http://www.inkscape.org/namespaces/inkscape"
   xmlns:sodipodi="http://sodipodi.sourceforge.net/DTD/sodipodi-0.dtd"
   xmlns="http://www.w3.org/2000/svg"
   xmlns:svg="http://www.w3.org/2000/svg"><sodipodi:namedview
     id="namedview992"
     pagecolor="#858585"
     bordercolor="#000000"
     borderopacity="0.25"
     inkscape:showpageshadow="2"
     inkscape:pageopacity="0"
     inkscape:pagecheckerboard="0"
     inkscape:deskcolor="#d1d1d1"
     inkscape:document-units="px"
     showgrid="false"
     inkscape:zoom="11"
     inkscape:cx="16"
     inkscape:cy="24"
     inkscape:window-width="1366"
     inkscape:window-height="737"
     inkscape:window-x="0"
     inkscape:window-y="0"
     inkscape:window-maximized="1"
     inkscape:current-layer="svg990" /><defs
     id="defs987"><style
       id="style1174">.a{fill:none;stroke:#fff;stroke-linecap:round;stroke-linejoin:round;}</style></defs><path
     id="path1628"
     style="fill:none;stroke:#fff;stroke-width:1;stroke-linecap:round;stroke-linejoin:round;stroke-dasharray:none;stroke-opacity:1;stop-color:#000000"
     d="M 24.096542,33.205525 C 22.858273,32.11396 23.030474,30.205222 19.588978,29.577194 h -3.17864 c -0.09599,1.375217 -0.380029,3.459392 2.698061,4.545551 0.581417,0.205164 2.59674,-0.04974 3.217482,0.450607 l 2.064128,1.663785 c 0.62351,-1.086082 0.877599,-2.394196 3.546712,-2.250825 l 1.34443,0.0024 c 2.593455,0.0047 2.600883,-3.322222 2.574071,-4.608961 h -3.115991 c -2.861258,0.488428 -3.424217,2.835109 -4.642689,3.825721 z m 0.32167,-2.53244 c -0.423095,-1.017599 -2.813482,-2.28623 -2.834916,-5.109448 -0.01866,-2.457933 2.482987,-3.538476 2.658681,-4.919959 2.145733,3.535445 2.349654,4.51451 2.278282,5.714348 -0.1344,2.259432 -1.805897,2.415083 -2.102047,4.315059 z m 4.981427,-17.292576 c 2.198171,2.530725 8.623151,9.907381 12.12849,14.269652 2.626325,3.268367 2.716588,7.939824 0.130698,8.155985 h -7.534693 c 0.764384,-0.510813 3.564813,-2.68848 -0.584394,-7.57721 L 24.97628,18.631588 Z M 28.123607,12.193854 H 19.59009 c 0,0 -8.885365,10.188673 -13.1182174,15.456307 -2.6263274,3.268371 -2.7165897,7.939824 -0.1306979,8.155985 h 7.5346923 c -0.764384,-0.510814 -3.564817,-2.688475 0.584395,-7.57721 L 28.069703,12.193854 m -8.479609,0 c 0,0 -8.885365,10.188673 -13.1182178,15.456307 -2.626331,3.268371 -2.7165933,7.939824 -0.1307015,8.155985 h 7.5346923 c -0.764384,-0.510814 -3.564817,-2.688475 0.584395,-7.57721 L 28.096657,12.193854 Z" /></svg>
