<?xml version="1.0" encoding="UTF-8" standalone="no"?>
<!-- Created with Inkscape (http://www.inkscape.org/) -->

<svg
   width="48"
   height="48"
   viewBox="0 0 48 48"
   version="1.1"
   id="svg990"
   inkscape:version="1.2.1 (9c6d41e, 2022-07-14)"
   xml:space="preserve"
   sodipodi:docname="amobile.svg"
   xmlns:inkscape="http://www.inkscape.org/namespaces/inkscape"
   xmlns:sodipodi="http://sodipodi.sourceforge.net/DTD/sodipodi-0.dtd"
   xmlns="http://www.w3.org/2000/svg"
   xmlns:svg="http://www.w3.org/2000/svg"><sodipodi:namedview
     id="namedview992"
     pagecolor="#858585"
     bordercolor="#000000"
     borderopacity="0.25"
     inkscape:showpageshadow="2"
     inkscape:pageopacity="0"
     inkscape:pagecheckerboard="0"
     inkscape:deskcolor="#d1d1d1"
     inkscape:document-units="px"
     showgrid="false"
     inkscape:zoom="11"
     inkscape:cx="23.954545"
     inkscape:cy="24"
     inkscape:window-width="1366"
     inkscape:window-height="737"
     inkscape:window-x="0"
     inkscape:window-y="0"
     inkscape:window-maximized="1"
     inkscape:current-layer="layer2" /><defs
     id="defs987"><style
       id="style1174">.a{fill:none;stroke:#fff;stroke-linecap:round;stroke-linejoin:round;}</style></defs><g
     inkscape:groupmode="layer"
     id="layer2"
     inkscape:label="Layer 2"
     transform="matrix(0.98329669,0,0,0.98329669,-1.9380637,0.42950871)"
     style="stroke-width:1.01655;stroke-dasharray:none"><path
       style="fill:none;stroke:#ffffff;stroke-width:1.01655;stroke-linecap:round;stroke-linejoin:round;stroke-dasharray:none;stroke-opacity:1;stop-color:#000000"
       d="M 28.245228,22.585562 C 25.923582,17.795943 24.277391,11.446768 23.441808,5.753853 22.188159,16.34359 17.494363,27.550043 10.977014,37.096366 12.457678,34.410138 10.845505,31.599636 9.1947133,29.757752 10.056111,32.141227 10.464524,34.704602 8.9027777,36.133373 6.7603909,38.093346 7.1621156,42.26225 10.211,42.313158 L 17.20874,42.43 17.0017,41.176151 c -2.516,-0.05424 -4.724154,-0.177669 -4.010892,-1.687507 l 7.243087,-15.332209 7.731048,14.446493 c 1.305789,2.440041 -0.857262,2.793693 -3.475392,2.790593 L 24.370503,42.43 36.665,42.429555 c 1.65613,-6e-5 2.649912,-1.789501 2.847389,-2.806446 0.08372,-1.791939 -0.495328,-2.553775 -1.222248,-3.614545 -1.138855,-1.661892 -1.501756,-3.829562 -0.153143,-6.445515 -1.822952,1.96395 -3.030201,4.205411 -2.072888,7.670004 L 28.606851,23.330968 m -0.361623,-0.745406 c 3.28036,-6.493557 8.743308,-7.33658 10.910392,-6.3434 -5.364962,2.806918 -7.231421,5.029554 -9.64124,7.995717 L 28.245228,22.585562 C 29.725015,17.664231 31.421089,8.8830146 43.273644,7.4411783"
       id="path8226"
       sodipodi:nodetypes="ccscsccscscccccssccccccc" /><path
       style="fill:none;stroke:#ffffff;stroke-width:1.01655;stroke-linecap:round;stroke-linejoin:round;stroke-dasharray:none;stroke-opacity:1;stop-color:#000000"
       d="m 23.484285,30.352687 c -1.629096,1.628557 -4.597868,3.50554 -7.570538,3.466353"
       id="path8645"
       sodipodi:nodetypes="cc" /><g
       id="g8992"
       transform="matrix(1.3138888,0,0,1.3138888,-12.847091,-1.9668292)"><path
         style="fill:none;stroke:#ffffff;stroke-width:0.77402825;stroke-linecap:round;stroke-linejoin:round;stroke-dasharray:none;stroke-opacity:1;stop-color:#000000"
         d="m 32.834101,11.684629 c -0.822959,-0.859916 0.298857,-2.9541543 1.711427,-3.5948379 -0.159202,0.7811283 -0.155899,1.5865348 -0.259153,2.2712869 -0.146254,0.969925 -0.943673,1.357619 -1.452274,1.323551 z"
         id="path8689-9"
         sodipodi:nodetypes="ccsc" /><path
         style="fill:none;stroke:#ffffff;stroke-width:0.77402825;stroke-linecap:round;stroke-linejoin:round;stroke-dasharray:none;stroke-opacity:1;stop-color:#000000"
         d="M 36.013663,8.9287607 C 35.480129,7.8647776 37.16845,6.1932876 38.706997,5.996561 38.325022,6.6962762 38.091216,7.4670065 37.791067,8.0910724 37.36592,8.9750371 36.48973,9.110959 36.013663,8.9287607 Z"
         id="path8689-9-1"
         sodipodi:nodetypes="ccsc" /><path
         style="fill:none;stroke:#ffffff;stroke-width:0.77402825;stroke-linecap:round;stroke-linejoin:round;stroke-dasharray:none;stroke-opacity:1;stop-color:#000000"
         d="M 39.776106,6.8159158 C 39.899379,5.6320573 42.222051,5.1325571 43.624471,5.7951649 42.925848,6.1791353 42.313849,6.702726 41.724911,7.0670054 40.890705,7.5829942 40.079177,7.2257738 39.776106,6.8159158 Z"
         id="path8689-9-2"
         sodipodi:nodetypes="ccsc" /><path
         style="fill:none;stroke:#ffffff;stroke-width:0.77402825;stroke-linecap:round;stroke-linejoin:round;stroke-dasharray:none;stroke-opacity:1;stop-color:#000000"
         d="m 41.214733,8.2833963 c 0.33785,1.1413036 2.71271,1.2072896 3.970178,0.299219 -0.757094,-0.24963 -1.454581,-0.652375 -2.100238,-0.9027201 -0.914549,-0.3546056 -1.646996,0.1451001 -1.86994,0.6035011 z"
         id="path8689-9-7"
         sodipodi:nodetypes="ccsc" /><path
         style="fill:none;stroke:#ffffff;stroke-width:0.77402825;stroke-linecap:round;stroke-linejoin:round;stroke-dasharray:none;stroke-opacity:1;stop-color:#000000"
         d="M 37.32227,9.9713994 C 37.703747,11.09887 40.079388,11.073507 41.301016,10.117766 40.534885,9.8974269 39.82243,9.521794 39.167626,9.2964559 38.240121,8.9772717 37.527426,9.5047665 37.32227,9.9713994 Z"
         id="path8689-9-7-0"
         sodipodi:nodetypes="ccsc" /><path
         style="fill:none;stroke:#ffffff;stroke-width:0.77402825;stroke-linecap:round;stroke-linejoin:round;stroke-dasharray:none;stroke-opacity:1;stop-color:#000000"
         d="m 34.151267,12.288103 c 0.69513,0.974944 2.977928,0.309541 3.878085,-0.933882 -0.802543,-0.0039 -1.598434,-0.170718 -2.295108,-0.209424 -0.986813,-0.05483 -1.520697,0.64182 -1.582977,1.143306 z"
         id="path8689-9-7-9"
         sodipodi:nodetypes="ccsc" /></g></g></svg>
