<?xml version="1.0" encoding="UTF-8" standalone="no"?>
<!-- Created with Inkscape (http://www.inkscape.org/) -->

<svg
   width="48"
   height="48"
   viewBox="0 0 48 48"
   version="1.1"
   id="svg990"
   inkscape:version="1.2.2 (b0a8486541, 2022-12-01)"
   xml:space="preserve"
   sodipodi:docname="bangkok_biznews.svg"
   xmlns:inkscape="http://www.inkscape.org/namespaces/inkscape"
   xmlns:sodipodi="http://sodipodi.sourceforge.net/DTD/sodipodi-0.dtd"
   xmlns="http://www.w3.org/2000/svg"
   xmlns:svg="http://www.w3.org/2000/svg"><sodipodi:namedview
     id="namedview992"
     pagecolor="#858585"
     bordercolor="#000000"
     borderopacity="0.25"
     inkscape:showpageshadow="2"
     inkscape:pageopacity="0"
     inkscape:pagecheckerboard="0"
     inkscape:deskcolor="#d1d1d1"
     inkscape:document-units="px"
     showgrid="false"
     inkscape:zoom="11"
     inkscape:cx="16.272727"
     inkscape:cy="24"
     inkscape:window-width="1366"
     inkscape:window-height="737"
     inkscape:window-x="0"
     inkscape:window-y="0"
     inkscape:window-maximized="1"
     inkscape:current-layer="svg990" /><defs
     id="defs987"><style
       id="style1174">.a{fill:none;stroke:#fff;stroke-linecap:round;stroke-linejoin:round;}</style></defs><path
     id="path1178"
     style="display:inline;stroke:#fff;stroke-opacity:1"
     class="a"
     inkscape:label="references"
     d="m 40.5,5.4999999 h -33 a 2,2 0 0 0 -1.9999999,2 V 40.5 A 2,2 0 0 0 7.5,42.5 h 33 a 2,2 0 0 0 2,-2 V 7.4999999 a 2,2 0 0 0 -2,-2 z M 34.376676,31.738826 v -3.364243 c 0,-0.9972 -0.8028,-1.799188 -1.8,-1.799757 l -0.42624,-2.43e-4 c -0.768839,-4.39e-4 -1.422119,0.477214 -1.681005,1.152807 0.458511,0.07439 0.947058,0.104363 1.288387,0.352049 -0.48157,0.228162 -0.813079,0.718047 -0.813079,1.288208 v 2.371179 m -2.249992,-0.969613 c 0,0.535598 -0.434189,0.969613 -0.969787,0.969613 -0.535599,0 -0.969788,-0.434014 -0.969788,-0.969613 0,-0.535599 0.434189,-0.969788 0.969788,-0.969788 0.535599,0 0.970211,0.434189 0.970211,0.969788 v -1.82248 c 0,-0.3878 -0.354938,-0.700018 -0.742739,-0.700001 -0.834753,4.8e-5 -1.669507,7.5e-5 -2.50426,9.5e-5 0,-0.957565 0.72358,-1.672001 1.616162,-1.672001 0.219146,0 0.637117,0.199455 0.835795,0.262929 0.261376,0.0835 0.641569,0.0732 1.139042,-0.01336 m 8.895384,2.464822 c 0,-0.530763 -0.430269,-0.961032 -0.961033,-0.961032 -0.530763,0 -0.961032,0.430269 -0.961032,0.961032 0,0.530765 0.430268,0.961034 0.961032,0.961034 0.530764,0 0.961033,-0.43027 0.961033,-0.961034 0.177077,0.850221 0.446356,1.596477 0.443343,2.446698 0.821983,0.06879 1.001181,-0.747581 0.962828,-1.332394 v -1.986852 c 0,-1.034609 -0.729167,-1.802113 -1.763773,-1.80411 l -0.130726,-2.52e-4 c -0.708556,-0.0014 -1.322667,0.326018 -1.639272,0.90581 m -5.34824,-2.608569 c 0.589939,-2.25556 3.64219,-1.686656 3.929468,0.02547 -1.439391,-0.128831 -2.869732,-0.134954 -3.929468,-0.02547 z M 20.5672,31.751826 h 0.778 m 0,-3.724843 h 0.5266 c 0.921892,0 1.664399,0.5352 1.664399,1.2 v 1.691843 c 0,0.4432 -0.323999,0.904255 -0.761434,0.833 H 21.3452 v -3.724843 h -0.993589 c 0.0067,-0.68731 0.37872,-1.352395 1.691814,-1.448157 0.791418,-0.05771 1.11387,0.554939 1.974468,0.486355 m -0.320137,7.052234 c 0,-0.420497 -0.340881,-0.761378 -0.761379,-0.761378 -0.420497,0 -0.761377,0.34088 -0.761377,0.761378 0,0.420498 0.34088,0.761378 0.761377,0.761378 0.420498,0 0.761712,-0.34088 0.761712,-0.761378 v 1.630705 m 15.64845,-19.506016 -4.1e-4,5.177 -2.115673,-5.177 -2.115673,5.177 v -4.168398 c 0,0.556899 -0.451457,1.008356 -1.008356,1.008356 -0.5569,0 -1.008356,-0.451881 -1.008356,-1.00878 0,-0.5569 0.451456,-1.008178 1.008356,-1.008178 0.556899,0 1.008356,0.451702 1.008356,1.008602 m -6.337006,1.926386 v 2.242012 m 0,-4.181472 c 0,-0.549815 -0.445713,-0.995528 -0.995529,-0.995528 -0.549815,0 -0.995528,0.445713 -0.995528,0.995528 0,0.549815 0.445713,0.995529 0.995528,0.995529 0.549816,0 0.995529,-0.445713 0.995529,-0.995529 v 1.93946 l 2.196714,-2.879499 c 0.410268,0.02125 0.713443,0.415481 0.713443,0.75423 v 4.367281 m -7.313866,-0.962423 c 0,0.531397 0.430781,0.962423 0.962178,0.962423 0.531397,0 0.962178,-0.431026 0.962178,-0.962423 0,-0.531397 -0.430781,-0.962178 -0.962178,-0.962178 -0.531397,0 -0.962178,0.430781 -0.962178,0.962178 v -4.214577 m -2.179157,0.949416 c 0,-0.524295 -0.425025,-0.949416 -0.949321,-0.949416 -0.524294,0 -0.949138,0.425383 -0.949138,0.949678 0,0.524295 0.425026,0.94932 0.94932,0.94932 0.524296,0 0.949321,-0.425025 0.949321,-0.94932 v 3.47402 c 0,0.448788 -0.05042,0.629609 -0.227841,0.740302 -0.177421,0.110693 -0.749636,-0.484984 -1.165008,-0.893021 l -1.603101,-1.57479 m -1.65112,4.836376 c 0,-0.4205 -0.340865,-0.761383 -0.761343,-0.761383 -0.420477,0 -0.761342,0.340882 -0.761342,0.761383 0,0.420501 0.340865,0.761384 0.761342,0.761384 0.420478,0 0.761676,-0.340883 0.761676,-0.761384 v 1.630718 m -0.03853,-4.968896 c 0,0.535598 -0.434189,0.969613 -0.969787,0.969613 -0.535599,0 -0.969787,-0.434015 -0.969787,-0.969613 0,-0.535599 0.434188,-0.969788 0.969787,-0.969788 0.535599,0 0.970212,0.434189 0.970212,0.969788 v -1.82248 c 0,-0.387801 -0.354939,-0.700018 -0.742739,-0.700001 -0.834753,4.8e-5 -1.669507,7.5e-5 -2.50426,9.4e-5 0,-0.957564 0.72358,-1.672 1.616161,-1.672 0.219146,0 0.637118,0.199454 0.835795,0.262929 0.261377,0.0835 0.64157,0.0732 1.139043,-0.01336 m -5.293564,4.914431 v -3.364243 c 0,-0.997201 -0.8028,-1.799188 -1.8,-1.799757 l -0.42624,-2.43e-4 c -0.7688384,-4.39e-4 -1.422119,0.477214 -1.6810047,1.152807 0.4585107,0.07439 0.9470582,0.104362 1.2883877,0.352049 -0.4815705,0.228162 -0.8130792,0.718047 -0.8130792,1.288208 v 2.371179" /></svg>
