<?xml version="1.0" encoding="UTF-8" standalone="no"?>
<!-- Created with Inkscape (http://www.inkscape.org/) -->

<svg
   width="48"
   height="48"
   viewBox="0 0 48 48"
   version="1.1"
   id="svg990"
   inkscape:version="1.2.2 (b0a8486541, 2022-12-01)"
   xml:space="preserve"
   sodipodi:docname="bein_connect.svg"
   xmlns:inkscape="http://www.inkscape.org/namespaces/inkscape"
   xmlns:sodipodi="http://sodipodi.sourceforge.net/DTD/sodipodi-0.dtd"
   xmlns="http://www.w3.org/2000/svg"
   xmlns:svg="http://www.w3.org/2000/svg"><sodipodi:namedview
     id="namedview992"
     pagecolor="#858585"
     bordercolor="#000000"
     borderopacity="0.25"
     inkscape:showpageshadow="2"
     inkscape:pageopacity="0"
     inkscape:pagecheckerboard="0"
     inkscape:deskcolor="#d1d1d1"
     inkscape:document-units="px"
     showgrid="false"
     inkscape:zoom="11"
     inkscape:cx="9.7272727"
     inkscape:cy="24"
     inkscape:window-width="1366"
     inkscape:window-height="737"
     inkscape:window-x="0"
     inkscape:window-y="0"
     inkscape:window-maximized="1"
     inkscape:current-layer="svg990" /><defs
     id="defs987"><style
       id="style1174">.a{fill:none;stroke:#fff;stroke-linecap:round;stroke-linejoin:round;}</style></defs><path
     id="path8997-3"
     style="fill:none;stroke:#fff;stroke-width:1;stroke-linecap:round;stroke-linejoin:round;stroke-dasharray:none;stroke-opacity:1;stop-color:#000000"
     d="m 24.524184,19.51154 c -0.676304,1.062202 -1.864258,1.76684 -3.216791,1.76684 -2.104591,0 -3.8107,-1.706109 -3.8107,-3.8107 0,-2.104592 1.706109,-3.8107 3.8107,-3.8107 2.104592,0 3.810701,1.706108 3.810701,3.8107 h -4.351535 m -12.2023423,0 c 1e-7,2.104591 1.7061083,3.8107 3.8107003,3.8107 2.104591,0 3.8107,-1.706109 3.8107,-3.8107 0,-2.104592 -1.706109,-3.8107 -3.8107,-3.8107 -2.104592,0 -3.8107001,1.706108 -3.8107003,3.8107 V 10.810993 M 29.359157,21.168959 v -5.424888 c 0,-1.816597 2.367217,-2.701504 3.507009,-1.093451 1.188575,1.676878 3.180042,5.720269 3.180042,5.720269 0.891824,1.481557 3.389575,0.527214 3.389575,-1.045066 V 13.7664 m -12.279874,0 v 7.402559 m 1.888669,10.195167 -10.089057,5.824918 V 25.539207 Z M 40.5,5.4999999 h -33 a 2,2 0 0 0 -1.9999999,2 V 40.5 A 2,2 0 0 0 7.5,42.5 h 33 a 2,2 0 0 0 2,-2 V 7.4999999 a 2,2 0 0 0 -2,-2 z" /></svg>
