<?xml version="1.0" encoding="UTF-8" standalone="no"?>
<!-- Created with Inkscape (http://www.inkscape.org/) -->

<svg
   width="48"
   height="48"
   viewBox="0 0 48 48"
   version="1.1"
   id="svg990"
   inkscape:version="1.2.1 (9c6d41e, 2022-07-14)"
   xml:space="preserve"
   sodipodi:docname="betway.svg"
   xmlns:inkscape="http://www.inkscape.org/namespaces/inkscape"
   xmlns:sodipodi="http://sodipodi.sourceforge.net/DTD/sodipodi-0.dtd"
   xmlns="http://www.w3.org/2000/svg"
   xmlns:svg="http://www.w3.org/2000/svg"><sodipodi:namedview
     id="namedview992"
     pagecolor="#858585"
     bordercolor="#000000"
     borderopacity="0.25"
     inkscape:showpageshadow="2"
     inkscape:pageopacity="0"
     inkscape:pagecheckerboard="0"
     inkscape:deskcolor="#d1d1d1"
     inkscape:document-units="px"
     showgrid="false"
     inkscape:zoom="11"
     inkscape:cx="23.954545"
     inkscape:cy="24"
     inkscape:window-width="1366"
     inkscape:window-height="737"
     inkscape:window-x="0"
     inkscape:window-y="0"
     inkscape:window-maximized="1"
     inkscape:current-layer="layer2" /><defs
     id="defs987"><style
   id="style1174">.a{fill:none;stroke:#fff;stroke-linecap:round;stroke-linejoin:round;}</style>
		
	
		
		
	
		
		
	
		
		
	
		
		
	
			
		
			
		</defs><g
     inkscape:label="Layer 1"
     inkscape:groupmode="layer"
     id="layer1"
     sodipodi:insensitive="true"><path
       class="a"
       d="m 40.5,5.4999999 h -33 a 2,2 0 0 0 -1.9999999,2 V 40.5 A 2,2 0 0 0 7.5,42.5 h 33 a 2,2 0 0 0 2,-2 V 7.4999999 a 2,2 0 0 0 -2,-2 z"
       id="path1178"
       inkscape:label="references"
       sodipodi:insensitive="true" /></g><g
     inkscape:groupmode="layer"
     id="layer2"
     inkscape:label="Layer 2"
     transform="matrix(1.0399553,0,0,1.0399553,3.1794262,16.273866)"><path
       id="polyline4515"
       style="fill:none;stroke:#ffffff;stroke-linecap:round;stroke-linejoin:round;stroke-miterlimit:10;stroke-width:0.96157979;stroke-dasharray:none"
       class="st5"
       d="m 24.95288,4.679414 -1.7,5.4 -1.6,-5.4 -1.6,5.4 L 17.84491,3.079"
       sodipodi:nodetypes="ccccc" /><path
       class="st5"
       d="m 35.68182,8.079292 v 2.7 c 0,1.1 -0.9,2 -2,2 v 0 c -0.6,0 -1.1,-0.2 -1.4,-0.6"
       id="path4531"
       style="fill:none;stroke:#ffffff;stroke-linecap:round;stroke-linejoin:round;stroke-miterlimit:10;stroke-width:0.96157979;stroke-dasharray:none" /><path
       class="st5"
       d="m 35.68182,4.679292 v 3.3 c 0,1.1 -0.9,2 -2,2 v 0 c -1.1,0 -2,-0.9 -2,-2 v -3.3"
       id="path4533"
       style="fill:none;stroke:#ffffff;stroke-linecap:round;stroke-linejoin:round;stroke-miterlimit:10;stroke-width:0.96157979;stroke-dasharray:none" /><path
       class="st5"
       d="m 15.78841,3.079 v 6.000293 c 0,0.6 0.4,1 1,1 h 0.3"
       id="path4679"
       style="fill:none;stroke:#ffffff;stroke-linecap:round;stroke-linejoin:round;stroke-miterlimit:10;stroke-width:0.96157979;stroke-dasharray:none"
       sodipodi:nodetypes="cssc" /><path
       id="line4681"
       style="fill:none;stroke:#ffffff;stroke-linecap:round;stroke-linejoin:round;stroke-miterlimit:10;stroke-width:0.96157979;stroke-dasharray:none"
       class="st5"
       d="m 14.6884,4.679292 h 2.20002" /><path
       class="st5"
       d="m 30.017351,8.079293 c 0,1.1 -0.9,2 -2,2 v 0 c -1.1,0 -2,-0.9 -2,-2 v -1.3 c 0,-1.1 0.9,-2 2,-2 v 0 c 1.1,0 2,0.9 2,2"
       id="path4721"
       style="fill:none;stroke:#ffffff;stroke-linecap:round;stroke-linejoin:round;stroke-miterlimit:10;stroke-width:0.96157979;stroke-dasharray:none" /><path
       id="line4725"
       style="fill:none;stroke:#ffffff;stroke-linecap:round;stroke-linejoin:round;stroke-miterlimit:10;stroke-width:0.96157979;stroke-dasharray:none"
       class="st5"
       d="M 30.017351,10.07929 V 4.679292" /><path
       class="st5"
       d="m 13.623936,9.0792929 c -0.3,0.6 -1,1.0000001 -1.7,1.0000001 v 0 c -1.1,0 -1.9999996,-0.9000001 -1.9999996,-2.0000001 V 6.779293 c 0,-1.1 0.8999996,-2 1.9999996,-2 v 0 c 1.1,0 2,0.9 2,2 V 7.4792929 H 9.9239364"
       id="path4781"
       style="fill:none;stroke:#ffffff;stroke-linecap:round;stroke-linejoin:round;stroke-miterlimit:10;stroke-width:0.96157979;stroke-dasharray:none" /><path
       class="st5"
       d="m 4.359467,6.679296 c 0,-1.1 0.9,-2 2,-2 v 0 c 1.1,0 2,0.9 2,2 v 1.3 c 0,1.1 -0.9,2 -2,2 v 0 c -1.1,0 -2,-0.9 -2,-2"
       id="path4853"
       style="fill:none;stroke:#ffffff;stroke-linecap:round;stroke-linejoin:round;stroke-miterlimit:10;stroke-width:0.96157979;stroke-dasharray:none" /><path
       id="line4857"
       style="fill:none;stroke:#ffffff;stroke-linecap:round;stroke-linejoin:round;stroke-miterlimit:10;stroke-width:0.96157979;stroke-dasharray:none"
       class="st5"
       d="M 4.359467,10.079293 V 2.079297" /></g></svg>
