<?xml version="1.0" encoding="UTF-8" standalone="no"?>
<!-- Created with Inkscape (http://www.inkscape.org/) -->

<svg
   width="48"
   height="48"
   viewBox="0 0 48 48"
   version="1.1"
   id="svg990"
   inkscape:version="1.2.2 (b0a8486541, 2022-12-01)"
   xml:space="preserve"
   sodipodi:docname="betway.svg"
   xmlns:inkscape="http://www.inkscape.org/namespaces/inkscape"
   xmlns:sodipodi="http://sodipodi.sourceforge.net/DTD/sodipodi-0.dtd"
   xmlns="http://www.w3.org/2000/svg"
   xmlns:svg="http://www.w3.org/2000/svg"><sodipodi:namedview
     id="namedview992"
     pagecolor="#858585"
     bordercolor="#000000"
     borderopacity="0.25"
     inkscape:showpageshadow="2"
     inkscape:pageopacity="0"
     inkscape:pagecheckerboard="0"
     inkscape:deskcolor="#d1d1d1"
     inkscape:document-units="px"
     showgrid="false"
     inkscape:zoom="11"
     inkscape:cx="16.272727"
     inkscape:cy="24"
     inkscape:window-width="1366"
     inkscape:window-height="737"
     inkscape:window-x="0"
     inkscape:window-y="0"
     inkscape:window-maximized="1"
     inkscape:current-layer="svg990" /><defs
     id="defs987"><style
   id="style1174">.a{fill:none;stroke:#fff;stroke-linecap:round;stroke-linejoin:round;}</style>
		
	
		
		
	
		
		
	
		
		
	
		
		
	
			
		
			
		</defs><path
     id="line4857"
     style="fill:none;stroke:#fff;stroke-width:1;stroke-linecap:round;stroke-linejoin:round;stroke-miterlimit:10;stroke-dasharray:none"
     class="st5"
     d="m 7.713077,26.75588 v -8.319638 m 0,4.783793 c 0,-1.143951 0.9359598,-2.07991 2.0799106,-2.07991 v 0 c 1.1439504,0 2.0799104,0.935959 2.0799104,2.07991 v 1.351942 c 0,1.143951 -0.93596,2.079911 -2.0799104,2.079911 v 0 c -1.1439508,0 -2.0799106,-0.93596 -2.0799106,-2.079911 m 9.634634,1.143948 c -0.311987,0.623973 -1.039956,1.039955 -1.767924,1.039955 v 0 c -1.143951,0 -2.079911,-0.93596 -2.079911,-2.079911 v -1.351941 c 0,-1.143951 0.93596,-2.079911 2.079911,-2.079911 v 0 c 1.14395,0 2.07991,0.93596 2.07991,2.079911 v 0.727968 h -4.159821 m 20.896253,2.703881 v -5.615756 m 0,3.535849 c 0,1.14395 -0.935959,2.07991 -2.07991,2.07991 v 0 c -1.143951,0 -2.079911,-0.93596 -2.079911,-2.07991 v -1.351942 c 0,-1.143951 0.93596,-2.079911 2.079911,-2.079911 v 0 c 1.143951,0 2.07991,0.93596 2.07991,2.079911 M 18.454706,21.140121 h 2.287922 m -1.143961,-1.664233 v 6.240037 c 0,0.623973 0.415982,1.039955 1.039955,1.039955 h 0.311987 m 19.336315,-5.615759 v 3.431852 c 0,1.143951 -0.93596,2.079911 -2.079911,2.079911 v 0 c -1.14395,0 -2.07991,-0.93596 -2.07991,-2.079911 v -3.431852 m 4.159821,3.535848 v 2.807879 c 0,1.143951 -0.93596,2.07991 -2.079911,2.07991 v 0 c -0.623973,0 -1.14395,-0.207991 -1.455937,-0.623973 m -7.62177,-7.799538 -1.767924,5.615759 -1.663928,-5.615759 -1.663929,5.615759 -2.29619,-7.280118 M 40.5,5.4999999 h -33 a 2,2 0 0 0 -1.9999999,2 V 40.5 A 2,2 0 0 0 7.5,42.5 h 33 a 2,2 0 0 0 2,-2 V 7.4999999 a 2,2 0 0 0 -2,-2 z" /></svg>
