<?xml version="1.0" encoding="UTF-8" standalone="no"?>
<!-- Created with Inkscape (http://www.inkscape.org/) -->

<svg
   width="48"
   height="48"
   viewBox="0 0 48 48"
   version="1.1"
   id="svg990"
   inkscape:version="1.2.2 (b0a8486541, 2022-12-01)"
   xml:space="preserve"
   sodipodi:docname="ch7hd.svg"
   xmlns:inkscape="http://www.inkscape.org/namespaces/inkscape"
   xmlns:sodipodi="http://sodipodi.sourceforge.net/DTD/sodipodi-0.dtd"
   xmlns="http://www.w3.org/2000/svg"
   xmlns:svg="http://www.w3.org/2000/svg"><sodipodi:namedview
     id="namedview992"
     pagecolor="#858585"
     bordercolor="#000000"
     borderopacity="0.25"
     inkscape:showpageshadow="2"
     inkscape:pageopacity="0"
     inkscape:pagecheckerboard="0"
     inkscape:deskcolor="#d1d1d1"
     inkscape:document-units="px"
     showgrid="false"
     inkscape:zoom="11"
     inkscape:cx="16"
     inkscape:cy="24"
     inkscape:window-width="1366"
     inkscape:window-height="737"
     inkscape:window-x="0"
     inkscape:window-y="0"
     inkscape:window-maximized="1"
     inkscape:current-layer="svg990" /><defs
     id="defs987"><style
       id="style1174">.a{fill:none;stroke:#fff;stroke-linecap:round;stroke-linejoin:round;}</style></defs><path
     id="path12606"
     style="fill:none;stroke:#fff;stroke-width:1;stroke-linecap:round;stroke-linejoin:round;stroke-dasharray:none;stroke-opacity:1;stop-color:#000000"
     d="m 21.097777,20.564741 c 0.282013,-0.806986 1.765331,-1.228192 3.04428,-0.472704 1.148763,0.678585 2.046835,-0.08045 3.034987,-0.670035 v 1.617943 c 0,1.433593 -2.933903,2.65506 -2.933903,4.266283 v 1.430415 M 20.95511,21.38942 v -2.023527 m 15.310421,9.995681 A 12.265531,12.26578 0 0 1 24,41.627355 12.265531,12.26578 0 0 1 11.734469,29.361574 12.265531,12.26578 0 0 1 24,17.095794 12.265531,12.26578 0 0 1 36.265531,29.361574 Z M 30.031144,18.638426 A 12.265531,12.26578 0 0 1 17.765614,30.904206 12.265531,12.26578 0 0 1 5.500083,18.638426 12.265531,12.26578 0 0 1 17.765614,6.3726454 12.265531,12.26578 0 0 1 30.031144,18.638426 Z m 12.468773,0 A 12.265531,12.26578 0 0 1 30.234386,30.904206 12.265531,12.26578 0 0 1 17.968856,18.638426 12.265531,12.26578 0 0 1 30.234386,6.3726454 12.265531,12.26578 0 0 1 42.499917,18.638426 Z" /></svg>
