<?xml version="1.0" encoding="UTF-8" standalone="no"?>
<!-- Created with Inkscape (http://www.inkscape.org/) -->

<svg
   width="48"
   height="48"
   viewBox="0 0 48 48"
   version="1.1"
   id="svg990"
   inkscape:version="1.2.1 (9c6d41e, 2022-07-14)"
   xml:space="preserve"
   sodipodi:docname="egg_ns.svg"
   xmlns:inkscape="http://www.inkscape.org/namespaces/inkscape"
   xmlns:sodipodi="http://sodipodi.sourceforge.net/DTD/sodipodi-0.dtd"
   xmlns="http://www.w3.org/2000/svg"
   xmlns:svg="http://www.w3.org/2000/svg"><sodipodi:namedview
     id="namedview992"
     pagecolor="#858585"
     bordercolor="#000000"
     borderopacity="0.25"
     inkscape:showpageshadow="2"
     inkscape:pageopacity="0"
     inkscape:pagecheckerboard="0"
     inkscape:deskcolor="#d1d1d1"
     inkscape:document-units="px"
     showgrid="false"
     inkscape:zoom="22"
     inkscape:cx="22.977273"
     inkscape:cy="16.590909"
     inkscape:window-width="1366"
     inkscape:window-height="737"
     inkscape:window-x="0"
     inkscape:window-y="0"
     inkscape:window-maximized="1"
     inkscape:current-layer="layer2"
     showguides="false" /><defs
     id="defs987"><style
       id="style1174">.a{fill:none;stroke:#fff;stroke-linecap:round;stroke-linejoin:round;}</style></defs><g
     inkscape:groupmode="layer"
     id="layer2"
     inkscape:label="Layer 2"
     style="display:inline;stroke-width:1.09519675;stroke-dasharray:none;stroke:#ffffff;stroke-opacity:1;fill:none"
     transform="matrix(0.91307795,0,0,0.91307795,2.0625069,2.0098695)"><ellipse
       style="fill:none;stroke:#ffffff;stroke-width:1.09519675;stroke-linecap:round;stroke-linejoin:round;stroke-dasharray:none;stroke-opacity:1;stop-color:#000000"
       id="path20780"
       cx="26.264961"
       cy="20.120274"
       rx="6.4879999"
       ry="6.4877172" /><path
       id="path21929"
       style="fill:none;stroke:#ffffff;stroke-width:1.0952;stroke-linecap:round;stroke-linejoin:round;stroke-dasharray:none;stroke-opacity:1;stop-color:#000000"
       d="m 20.194319,22.435615 0.514454,1.142667 -10.141356,-5.843047 -5.4863997,4.668964 c -0.3117111,-1.28048 -0.4762791,-2.612975 -0.4762791,-3.98126 0,-9.9044596 8.6229068,-17.93361052 19.2598018,-17.93361062 10.636895,0 19.259802,8.02915092 19.259802,17.93361062 0,0.989298 -0.08603,1.959887 -0.251502,2.905633 l -3.967037,-4.322616 -4.600413,3.989362 -1.431377,-0.623315"
       sodipodi:nodetypes="csssccccccc" /><path
       id="path21952"
       style="fill:none;stroke:#ffffff;stroke-width:1.09548895;stroke-linecap:round;stroke-linejoin:round;stroke-dasharray:none;stroke-opacity:1;stop-color:#000000"
       transform="matrix(0.98999671,-0.14109044,0.17334599,0.98486099,0,0)"
       d="m 21.61702,30.123294 -5.518242,2.747071 -7.1001656,-3.914064 -5.2678462,3.536538 -2.9912511,-4.9744 c -0.67817828,1.806875 -1.04660777,3.747431 -1.04660777,5.767469 0,9.720651 8.53151427,17.600795 19.05566967,17.600795 10.524156,0 19.05567,-7.880144 19.05567,-17.600795 h 4e-6 c 0,-0.574387 -0.02979,-1.142348 -0.08802,-1.702637 l -5.993458,3.875161 -6.823588,-5.605816"
       sodipodi:nodetypes="cssssc" /><path
       style="fill:none;stroke:#ffffff;stroke-width:1.09519675;stroke-linecap:round;stroke-linejoin:round;stroke-dasharray:none;stroke-opacity:1;stop-color:#000000"
       d="m 7.4719081,20.42872 c -0.5645937,2.448535 -1.0837022,4.912154 -0.685151,7.680083"
       id="path21977"
       sodipodi:nodetypes="cc" /><path
       style="fill:none;stroke:#ffffff;stroke-width:1.09519675;stroke-linecap:round;stroke-linejoin:round;stroke-dasharray:none;stroke-opacity:1;stop-color:#000000"
       d="m 41.002616,19.389792 c 0.750897,2.121345 1.066668,4.514655 1.127881,7.067073"
       id="path21979"
       sodipodi:nodetypes="cc" /><circle
       style="fill:none;stroke:#ffffff;stroke-width:1.09519675;stroke-linecap:round;stroke-linejoin:round;stroke-dasharray:none;stroke-opacity:1;stop-color:#000000"
       id="path21998"
       cx="27.289175"
       cy="20.99505"
       r="0.96504766" /><circle
       style="fill:none;stroke:#ffffff;stroke-width:1.09519675;stroke-linecap:round;stroke-linejoin:round;stroke-dasharray:none;stroke-opacity:1;stop-color:#000000"
       id="path21998-9"
       cx="38.329437"
       cy="21.013561"
       r="1.0434446" /><path
       style="fill:none;fill-opacity:1;stroke:#ffffff;stroke-width:1.0952;stroke-linecap:round;stroke-linejoin:round;stroke-dasharray:none;stroke-opacity:1;stop-color:#000000"
       d="m 33.691415,23.455571 c 0.542089,0.202967 1.246773,0.361274 2.18576,0.483941 0.09764,-0.647069 0.0562,-1.129244 -0.07831,-1.480452"
       id="path22172"
       sodipodi:nodetypes="ccc" /><ellipse
       style="fill:none;fill-opacity:1;stroke:#ffffff;stroke-width:1.10302644;stroke-linecap:round;stroke-linejoin:round;stroke-dasharray:none;stroke-opacity:1;stop-color:#000000"
       id="path22192"
       cx="38.43898"
       cy="38.09687"
       rx="1.920938"
       ry="2.1781259"
       transform="matrix(1,0,-0.16760845,0.98585364,0,0)" /><ellipse
       style="fill:none;fill-opacity:1;stroke:#ffffff;stroke-width:1.10302644;stroke-linecap:round;stroke-linejoin:round;stroke-dasharray:none;stroke-opacity:1;stop-color:#000000"
       id="path22192-8"
       cx="44.048298"
       cy="39.284874"
       rx="1.402084"
       ry="1.5898043"
       transform="matrix(1,0,-0.16760845,0.98585364,0,0)" /><ellipse
       style="fill:none;fill-opacity:1;stroke:#ffffff;stroke-width:1.09795654;stroke-linecap:round;stroke-linejoin:round;stroke-dasharray:none;stroke-opacity:1;stop-color:#000000"
       id="path22192-2"
       cx="39.727848"
       cy="35.473576"
       rx="1.5583793"
       ry="1.750819"
       transform="matrix(1,0,-0.10008212,0.99497918,0,0)" /><ellipse
       style="fill:none;fill-opacity:1;stroke:#ffffff;stroke-width:1.09795654;stroke-linecap:round;stroke-linejoin:round;stroke-dasharray:none;stroke-opacity:1;stop-color:#000000"
       id="path22192-2-2"
       cx="38.11573"
       cy="41.647434"
       rx="1.5583793"
       ry="1.750819"
       transform="matrix(1,0,-0.10008212,0.99497918,0,0)" /></g></svg>
