<?xml version="1.0" encoding="UTF-8" standalone="no"?>
<!-- Created with Inkscape (http://www.inkscape.org/) -->

<svg
   width="48"
   height="48"
   viewBox="0 0 48 48"
   version="1.1"
   id="svg990"
   inkscape:version="1.2.2 (b0a8486541, 2022-12-01)"
   xml:space="preserve"
   sodipodi:docname="egg_ns.svg"
   xmlns:inkscape="http://www.inkscape.org/namespaces/inkscape"
   xmlns:sodipodi="http://sodipodi.sourceforge.net/DTD/sodipodi-0.dtd"
   xmlns="http://www.w3.org/2000/svg"
   xmlns:svg="http://www.w3.org/2000/svg"><sodipodi:namedview
     id="namedview992"
     pagecolor="#858585"
     bordercolor="#000000"
     borderopacity="0.25"
     inkscape:showpageshadow="2"
     inkscape:pageopacity="0"
     inkscape:pagecheckerboard="0"
     inkscape:deskcolor="#d1d1d1"
     inkscape:document-units="px"
     showgrid="false"
     inkscape:zoom="11"
     inkscape:cx="24"
     inkscape:cy="24"
     inkscape:window-width="1366"
     inkscape:window-height="737"
     inkscape:window-x="0"
     inkscape:window-y="0"
     inkscape:window-maximized="1"
     inkscape:current-layer="svg990"
     showguides="false" /><defs
     id="defs987"><style
       id="style1174">.a{fill:none;stroke:#fff;stroke-linecap:round;stroke-linejoin:round;}</style></defs><path
     id="path999"
     style="fill:none;stroke:#fff;stroke-linecap:round;stroke-linejoin:round;stop-color:#000000"
     d="m 34.482203,39.846296 a 1.3930024,1.6247714 23.347257 0 1 -1.582916,1.590608 1.3930024,1.6247714 23.347257 0 1 -1.262927,-1.590608 1.3930024,1.6247714 23.347257 0 1 1.582916,-1.590607 1.3930024,1.6247714 23.347257 0 1 1.262927,1.590607 z m 2.036173,-5.608911 a 1.3930024,1.6247714 23.347257 0 1 -1.582917,1.590608 1.3930024,1.6247714 23.347257 0 1 -1.262927,-1.590608 1.3930024,1.6247714 23.347257 0 1 1.582917,-1.590608 1.3930024,1.6247714 23.347257 0 1 1.262927,1.590608 z m 1.031732,3.135205 a 1.2179522,1.5042346 31.662714 0 1 -1.523516,1.431081 1.2179522,1.5042346 31.662714 0 1 -1.036908,-1.431081 1.2179522,1.5042346 31.662714 0 1 1.523514,-1.431079 1.2179522,1.5042346 31.662714 0 1 1.03691,1.431079 z m -4.466177,-1.069395 a 1.6686667,2.0608903 31.662719 0 1 -2.087306,1.960666 1.6686667,2.0608903 31.662719 0 1 -1.420626,-1.960666 1.6686667,2.0608903 31.662719 0 1 2.087306,-1.960663 1.6686667,2.0608903 31.662719 0 1 1.420626,1.960663 z M 32.825395,23.426634 c 0.49497,0.185325 1.138401,0.329872 1.995769,0.441876 0.08915,-0.590824 0.05131,-1.031088 -0.0715,-1.351768 m 3.263354,-1.319852 a 0.9527463,0.95274627 47.568096 0 1 -0.952746,0.952746 0.9527463,0.95274627 47.568096 0 1 -0.952746,-0.952746 0.9527463,0.95274627 47.568096 0 1 0.952746,-0.952746 0.9527463,0.95274627 47.568096 0 1 0.952746,0.952746 z M 27.860815,21.17998 a 0.88116372,0.88116372 0 0 1 -0.881165,0.881164 0.88116372,0.88116372 0 0 1 -0.881162,-0.881164 0.88116372,0.88116372 0 0 1 0.881162,-0.881164 0.88116372,0.88116372 0 0 1 0.881165,0.881164 z m 11.640276,-1.465726 c 0.685628,1.936953 0.973951,4.122232 1.029844,6.452789 M 8.8849415,20.662883 C 8.3694234,22.898587 7.895437,25.148063 8.2593426,27.675398 M 26.37095,26.313541 21.817569,29.494754 14.779904,26.889703 10.577823,30.748591 7.0865588,26.66069 C 6.7595127,28.372899 6.7336211,30.165416 7.0533493,31.981945 8.5919185,40.723288 17.551188,46.71046 27.064437,45.354669 36.577686,43.998878 43.042442,35.813535 41.503873,27.072192 h 3e-6 c -0.09091,-0.516521 -0.207734,-1.023425 -0.349052,-1.519766 L 36.350427,29.8093 29.295004,25.647303 m -8.79351,-3.151968 0.469737,1.043344 -9.259849,-5.335157 -5.0095102,4.263128 C 6.4172552,21.297472 6.2669917,20.0808 6.2669919,18.831449 6.2669918,9.7879052 14.140378,2.4566645 23.852692,2.4566645 c 9.712314,0 17.585701,7.3312406 17.585701,16.3747845 -10e-7,0.903306 -0.07855,1.789529 -0.229644,2.653069 l -3.622214,-3.946885 -4.200536,3.642598 -1.306959,-0.569135 m -0.110529,-0.229848 a 5.9237914,5.9240499 89.996685 0 1 -5.92405,5.923792 5.9237914,5.9240499 89.996685 0 1 -5.92405,-5.923792 5.9237914,5.9240499 89.996685 0 1 5.92405,-5.923791 5.9237914,5.9240499 89.996685 0 1 5.92405,5.923791 z" /></svg>
