<?xml version="1.0" encoding="UTF-8" standalone="no"?>
<!-- Created with Inkscape (http://www.inkscape.org/) -->

<svg
   width="48"
   height="48"
   viewBox="0 0 48 48"
   version="1.1"
   id="svg990"
   inkscape:version="1.2.1 (9c6d41e, 2022-07-14)"
   xml:space="preserve"
   sodipodi:docname="faznet.svg"
   xmlns:inkscape="http://www.inkscape.org/namespaces/inkscape"
   xmlns:sodipodi="http://sodipodi.sourceforge.net/DTD/sodipodi-0.dtd"
   xmlns="http://www.w3.org/2000/svg"
   xmlns:svg="http://www.w3.org/2000/svg"><sodipodi:namedview
     id="namedview992"
     pagecolor="#858585"
     bordercolor="#000000"
     borderopacity="0.25"
     inkscape:showpageshadow="2"
     inkscape:pageopacity="0"
     inkscape:pagecheckerboard="0"
     inkscape:deskcolor="#d1d1d1"
     inkscape:document-units="px"
     showgrid="false"
     inkscape:zoom="15.556349"
     inkscape:cx="29.280649"
     inkscape:cy="24.170195"
     inkscape:window-width="1366"
     inkscape:window-height="737"
     inkscape:window-x="0"
     inkscape:window-y="0"
     inkscape:window-maximized="1"
     inkscape:current-layer="layer2" /><defs
     id="defs987"><style
       id="style1174">.a{fill:none;stroke:#fff;stroke-linecap:round;stroke-linejoin:round;}</style></defs><g
     inkscape:groupmode="layer"
     id="layer2"
     inkscape:label="Layer 2"
     transform="matrix(1.0910327,0,0,1.0910327,-2.2711537,-1.9395058)"
     style="stroke-width:0.91656281;stroke-dasharray:none"><path
       style="fill:none;stroke:#ffffff;stroke-linecap:round;stroke-linejoin:round;stroke-opacity:0.99032629;stop-color:#000000;stroke-width:0.91656281;stroke-dasharray:none"
       d="M 19.147992,16.076794 C 12.264468,21.272323 8.4332115,5.9854972 20.424749,10.58594 29.415841,14.03529 35.559938,13.828078 35.969089,7.4319896 31.751421,12.439527 24.475387,5.9873212 20.25065,5.944636 7.9804961,5.8206628 11.461396,21.827648 19.147992,16.076794 Z"
       id="path2320"
       sodipodi:nodetypes="cscsc" /><path
       id="path3576"
       style="fill:none;stroke:#ffffff;stroke-linecap:round;stroke-linejoin:round;stroke-opacity:0.99032629;stop-color:#000000;stroke-width:0.91656281;stroke-dasharray:none"
       d="m 30.154902,17.278017 c -1.508293,-0.04866 -1.703848,1.391963 -1.691741,2.206089 0.01368,0.920041 0.750147,1.666067 1.675501,1.666067 0.925354,0 1.675501,-0.745924 1.675295,-1.933103 -2.07e-4,-1.18718 -0.827232,-1.847676 -1.675708,-1.933103 m 0,0 c -1.452482,-0.14624 -3.175699,0.739968 -3.418117,3.885707 m 0,0 c -2.436712,-2.081178 -4.532204,-4.240964 -1.894733,-7.491081 -3.631226,1.370566 -6.50831,6.152822 -3.658136,9.003977 l 3.508201,3.509409 c 1.996792,1.99748 1.490356,3.915554 0.924496,5.661639 2.937815,-1.715642 7.443711,-4.474702 1.120172,-10.683944 z"
       sodipodi:nodetypes="cscccccccsscc" /><path
       style="fill:none;stroke:#ffffff;stroke-linecap:round;stroke-linejoin:round;stroke-opacity:0.99032629;stop-color:#000000;stroke-width:0.91656281;stroke-dasharray:none"
       d="m 21.201594,41.424454 c -10.397366,0.373092 -6.868841,-9.52307 -2.811518,-9.536192 2.82906,-0.0091 4.10701,1.92952 4.371069,3.118646 0.81454,-1.114694 1.514164,-2.422294 2.838815,-3.15329 -4.500385,-7.076038 -12.14198,-2.527929 -12.000062,3.936589 0.200915,9.151902 12.742376,5.972199 13.626322,0.883746"
       id="path3619"
       sodipodi:nodetypes="csccsc" /></g></svg>
