<?xml version="1.0" encoding="UTF-8" standalone="no"?>
<!-- Created with Inkscape (http://www.inkscape.org/) -->

<svg
   width="48"
   height="48"
   viewBox="0 0 48 48"
   version="1.1"
   id="svg990"
   inkscape:version="1.2.2 (b0a8486541, 2022-12-01)"
   xml:space="preserve"
   sodipodi:docname="faznet.svg"
   xmlns:inkscape="http://www.inkscape.org/namespaces/inkscape"
   xmlns:sodipodi="http://sodipodi.sourceforge.net/DTD/sodipodi-0.dtd"
   xmlns="http://www.w3.org/2000/svg"
   xmlns:svg="http://www.w3.org/2000/svg"><sodipodi:namedview
     id="namedview992"
     pagecolor="#858585"
     bordercolor="#000000"
     borderopacity="0.25"
     inkscape:showpageshadow="2"
     inkscape:pageopacity="0"
     inkscape:pagecheckerboard="0"
     inkscape:deskcolor="#d1d1d1"
     inkscape:document-units="px"
     showgrid="false"
     inkscape:zoom="15.556349"
     inkscape:cx="23.848784"
     inkscape:cy="24.170196"
     inkscape:window-width="1366"
     inkscape:window-height="737"
     inkscape:window-x="0"
     inkscape:window-y="0"
     inkscape:window-maximized="1"
     inkscape:current-layer="svg990" /><defs
     id="defs987"><style
       id="style1174">.a{fill:none;stroke:#fff;stroke-linecap:round;stroke-linejoin:round;}</style></defs><path
     id="path3619"
     style="fill:none;stroke:#fff;stroke-width:1;stroke-linecap:round;stroke-linejoin:round;stroke-dasharray:none;stroke-opacity:1;stop-color:#000000"
     d="m 20.860479,43.255928 c -11.3438667,0.407056 -7.49413,-10.389981 -3.067458,-10.404297 3.086597,-0.0099 4.480882,2.105169 4.768979,3.402545 0.88869,-1.216168 1.652002,-2.642802 3.09724,-3.440343 -4.910067,-7.720189 -13.247297,-2.758053 -13.09246,4.294947 0.219205,9.985025 13.902349,6.515865 14.866763,0.964196 m 3.195287,-21.1616 c -1.645597,-0.05309 -1.858953,1.518677 -1.845744,2.406915 0.01492,1.003795 0.818435,1.817734 1.828026,1.817734 1.009592,0 1.828026,-0.813828 1.827802,-2.109079 -2.26e-4,-1.295252 -0.902537,-2.015875 -1.828253,-2.109079 m 0,0 c -1.584705,-0.159552 -3.464791,0.80733 -3.729277,4.239434 m 0,0 c -2.658532,-2.270633 -4.944783,-4.627031 -2.067216,-8.173015 -3.961786,1.495333 -7.100779,6.71293 -3.991146,9.823634 l 3.827562,3.82888 c 2.178566,2.179316 1.626028,4.271997 1.008656,6.177033 3.205252,-1.871821 8.121332,-4.882046 1.222144,-11.656532 z M 18.619932,15.600802 C 11.109782,21.269294 6.9297558,4.5908674 20.012915,9.6101009 29.822491,13.373455 36.525901,13.147379 36.972299,6.1690379 32.370685,11.632425 24.432294,4.5928574 19.822968,4.5462865 6.4358285,4.4110277 10.233604,21.875172 18.619932,15.600802 Z" /></svg>
