<?xml version="1.0" encoding="UTF-8" standalone="no"?>
<!-- Created with Inkscape (http://www.inkscape.org/) -->

<svg
   width="48"
   height="48"
   viewBox="0 0 48 48"
   version="1.1"
   id="svg990"
   inkscape:version="1.2.2 (b0a8486541, 2022-12-01)"
   xml:space="preserve"
   sodipodi:docname="kapook.svg"
   xmlns:inkscape="http://www.inkscape.org/namespaces/inkscape"
   xmlns:sodipodi="http://sodipodi.sourceforge.net/DTD/sodipodi-0.dtd"
   xmlns="http://www.w3.org/2000/svg"
   xmlns:svg="http://www.w3.org/2000/svg"><sodipodi:namedview
     id="namedview992"
     pagecolor="#858585"
     bordercolor="#000000"
     borderopacity="0.25"
     inkscape:showpageshadow="2"
     inkscape:pageopacity="0"
     inkscape:pagecheckerboard="0"
     inkscape:deskcolor="#d1d1d1"
     inkscape:document-units="px"
     showgrid="false"
     inkscape:zoom="11"
     inkscape:cx="16.090909"
     inkscape:cy="24"
     inkscape:window-width="1366"
     inkscape:window-height="737"
     inkscape:window-x="0"
     inkscape:window-y="0"
     inkscape:window-maximized="1"
     inkscape:current-layer="svg990" /><defs
     id="defs987"><style
       id="style1174">.a{fill:none;stroke:#fff;stroke-linecap:round;stroke-linejoin:round;}</style></defs><path
     id="rect4505"
     style="fill:none;stroke:#fff;stroke-width:1;stroke-linecap:round;stroke-linejoin:round;stroke-dasharray:none;stroke-opacity:1;stop-color:#000000"
     d="m 29.917755,29.976098 7.519021,0.346164 c 0.637591,0.02936 1.219812,0.51744 1.152105,1.152104 l -0.460545,4.317003 c -0.06771,0.634666 -0.513914,1.277025 -1.152105,1.267252 l -7.518936,-0.115147 c -0.638192,-0.0098 -1.214826,-0.516928 -1.152105,-1.152105 l 0.46046,-4.663166 c 0.06272,-0.635177 0.514516,-1.181459 1.152105,-1.152105 z m 8.494854,-2.387682 c 0,0.638266 -0.513841,1.152105 -1.152106,1.152105 h -6.231737 c -0.638265,0 -1.152105,-0.513839 -1.152105,-1.152105 l 0.2142,-15.626616 c 0.07287,-0.634091 0.642014,-1.085909 1.276105,-1.013039 l 11.112493,1.27703 c 0.634092,0.07287 1.085876,0.642009 1.013009,1.276101 z m -16.608094,-4.339895 6.173963,5.95093 c 0.430542,0.471201 -0.08267,1.340067 -0.08267,1.340067 l -5.287462,4.628337 c -0.503914,0.102883 -0.680921,0.422427 -1.396979,-0.07341 l -7.483755,-8.091128 -1.1e-5,6.673622 m -5.52e-4,-2e-6 v 0.123764 c 0,0.638265 -0.51384,1.152106 -1.152106,1.152106 H 5.6521515 c -0.6382656,0 -1.1521053,-0.513841 -1.1521053,-1.152106 V 13.26236 c 0,-0.638266 0.5138397,-1.152105 1.1521053,-1.152105 h 6.9227915 c 0.638266,0 1.152106,0.513839 1.152106,1.152105 l 1.2e-5,7.175741 7.71441,-8.443564 c 0.716058,-0.495839 0.893064,-0.17629 1.396979,-0.07341 l 4.82744,4.167484 c 0,0 0.513098,0.868866 0.08257,1.340066 l -6.173828,5.605481" /></svg>
