<?xml version="1.0" encoding="UTF-8" standalone="no"?>
<!-- Created with Inkscape (http://www.inkscape.org/) -->

<svg
   width="48"
   height="48"
   viewBox="0 0 48 48"
   version="1.1"
   id="svg990"
   inkscape:version="1.2.1 (9c6d41e, 2022-07-14)"
   xml:space="preserve"
   sodipodi:docname="lemming.svg"
   xmlns:inkscape="http://www.inkscape.org/namespaces/inkscape"
   xmlns:sodipodi="http://sodipodi.sourceforge.net/DTD/sodipodi-0.dtd"
   xmlns="http://www.w3.org/2000/svg"
   xmlns:svg="http://www.w3.org/2000/svg"><sodipodi:namedview
     id="namedview992"
     pagecolor="#858585"
     bordercolor="#000000"
     borderopacity="0.25"
     inkscape:showpageshadow="2"
     inkscape:pageopacity="0"
     inkscape:pagecheckerboard="0"
     inkscape:deskcolor="#d1d1d1"
     inkscape:document-units="px"
     showgrid="false"
     inkscape:zoom="11"
     inkscape:cx="23.954545"
     inkscape:cy="24"
     inkscape:window-width="1366"
     inkscape:window-height="737"
     inkscape:window-x="0"
     inkscape:window-y="0"
     inkscape:window-maximized="1"
     inkscape:current-layer="svg990" /><defs
     id="defs987"><style
       id="style1174">.a{fill:none;stroke:#fff;stroke-linecap:round;stroke-linejoin:round;}</style></defs><g
     inkscape:groupmode="layer"
     id="layer2"
     inkscape:label="Layer 2"
     transform="matrix(1.1143401,0,0,1.1143401,-2.7292252,-2.7871268)"
     style="stroke-width:0.897392;stroke-dasharray:none"><path
       style="fill:none;stroke:#ffffff;stroke-width:0.897392;stroke-linecap:round;stroke-linejoin:round;stroke-dasharray:none;stroke-opacity:1;stop-color:#000000"
       d="M 6.5387539,31.756221 C 10.522469,30.149803 14.988228,29.977077 19.417966,29.862769"
       id="path5504"
       sodipodi:nodetypes="cc" /><path
       style="fill:none;stroke:#ffffff;stroke-width:0.897392;stroke-linecap:round;stroke-linejoin:round;stroke-dasharray:none;stroke-opacity:1;stop-color:#000000"
       d="M 7.1114229,28.803444 C 11.150424,27.848778 15.039506,27.82012 19.452476,28.59017"
       id="path5518"
       sodipodi:nodetypes="cc" /><path
       style="fill:none;stroke:#ffffff;stroke-width:0.897392;stroke-linecap:round;stroke-linejoin:round;stroke-dasharray:none;stroke-opacity:1;stop-color:#000000"
       d="M 7.3640572,26.77695 C 9.0240045,26.68884 10.311056,26.592488 11.760085,26.72421"
       id="path5520"
       sodipodi:nodetypes="cc" /><path
       style="fill:none;stroke:#ffffff;stroke-width:0.897392;stroke-linecap:round;stroke-linejoin:round;stroke-dasharray:none;stroke-opacity:1;stop-color:#000000"
       d="m 9.4695017,20.272542 1.1911573,0.07353"
       id="path5605" /><path
       style="fill:none;stroke:#ffffff;stroke-width:0.897392;stroke-linecap:round;stroke-linejoin:round;stroke-dasharray:none;stroke-opacity:1;stop-color:#000000"
       d="m 22.465652,20.497016 c 1.013962,0 2.027925,0 3.041887,0"
       id="path5607"
       sodipodi:nodetypes="cc" /><path
       id="path5671"
       style="fill:none;stroke:#ffffff;stroke-width:0.897392;stroke-linecap:round;stroke-linejoin:round;stroke-dasharray:none;stroke-opacity:1;stop-color:#000000"
       d="m 18.204445,19.864082 a 2.3076649,2.3076649 0 0 1 0.452999,1.373146 v 0 a 2.3076649,2.3076649 0 0 1 -2.307665,2.307665 2.3076649,2.3076649 0 0 1 -2.307665,-2.307665 2.3076649,2.3076649 0 0 1 2.307665,-2.307664 2.3076649,2.3076649 0 0 1 0.382564,0.03193" /><path
       id="path5693"
       style="fill:none;stroke:#ffffff;stroke-width:0.897392;stroke-linecap:round;stroke-linejoin:round;stroke-dasharray:none;stroke-opacity:1;stop-color:#000000"
       d="m 18.204307,19.863399 a 1.2515016,1.2515016 0 0 1 0.04216,0.322091 v 0 a 1.2515016,1.2515016 0 0 1 -1.251501,1.251501 1.2515016,1.2515016 0 0 1 -1.251502,-1.251501 1.2515016,1.2515016 0 0 1 0.993358,-1.224589" /><path
       id="path5671-3"
       style="fill:none;stroke:#ffffff;stroke-width:0.897392;stroke-linecap:round;stroke-linejoin:round;stroke-dasharray:none;stroke-opacity:1;stop-color:#000000"
       d="m 33.478079,19.864082 a 2.3076649,2.3076649 0 0 1 0.452999,1.373146 v 0 a 2.3076649,2.3076649 0 0 1 -2.307665,2.307665 2.3076649,2.3076649 0 0 1 -2.307665,-2.307665 2.3076649,2.3076649 0 0 1 2.307665,-2.307664 2.3076649,2.3076649 0 0 1 0.382564,0.03193" /><path
       id="path5693-6"
       style="fill:none;stroke:#ffffff;stroke-width:0.897392;stroke-linecap:round;stroke-linejoin:round;stroke-dasharray:none;stroke-opacity:1;stop-color:#000000"
       d="m 33.477941,19.863399 a 1.2515016,1.2515016 0 0 1 0.04216,0.322091 v 0 A 1.2515016,1.2515016 0 0 1 32.2686,21.436991 1.2515016,1.2515016 0 0 1 31.017098,20.18549 1.2515016,1.2515016 0 0 1 32.010456,18.960901" /><path
       style="fill:none;stroke:#ffffff;stroke-width:0.897392;stroke-linecap:round;stroke-linejoin:round;stroke-dasharray:none;stroke-opacity:1;stop-color:#000000"
       d="m 23.970286,30.990457 c -2.039012,-0.302713 -2.415169,-1.121872 -2.486609,-2.295851 -0.104154,-1.711636 1.240277,-1.60991 2.502918,-1.60991 1.262642,0 2.607073,-0.101726 2.502919,1.60991 -0.07144,1.173979 -0.480217,1.993138 -2.519228,2.295851 -0.0072,1.443968 -1.121004,2.593517 -3.669442,2.427455 m 3.700435,-2.427455 c 0.0072,1.443968 1.121004,2.593517 3.669442,2.427455"
       id="path5491-5"
       sodipodi:nodetypes="cssscccc" /><path
       style="fill:none;stroke:#ffffff;stroke-width:0.897392;stroke-linecap:round;stroke-linejoin:round;stroke-dasharray:none;stroke-opacity:1;stop-color:#000000"
       d="M 41.434437,31.756221 C 37.450722,30.149803 32.984963,29.977077 28.555225,29.862769"
       id="path5504-6"
       sodipodi:nodetypes="cc" /><path
       style="fill:none;stroke:#ffffff;stroke-width:0.897392;stroke-linecap:round;stroke-linejoin:round;stroke-dasharray:none;stroke-opacity:1;stop-color:#000000"
       d="M 40.861768,28.803444 C 36.822767,27.848778 32.933685,27.82012 28.520715,28.59017"
       id="path5518-2"
       sodipodi:nodetypes="cc" /><path
       style="fill:none;stroke:#ffffff;stroke-width:0.897392;stroke-linecap:round;stroke-linejoin:round;stroke-dasharray:none;stroke-opacity:1;stop-color:#000000"
       d="M 40.609134,26.77695 C 38.949186,26.68884 37.662135,26.592488 36.213106,26.72421"
       id="path5520-9"
       sodipodi:nodetypes="cc" /><path
       style="fill:none;stroke:#ffffff;stroke-width:0.897392;stroke-linecap:round;stroke-linejoin:round;stroke-dasharray:none;stroke-opacity:1;stop-color:#000000"
       d="m 38.503689,20.272542 -1.191157,0.07353"
       id="path5605-2" /><path
       id="path4566-5"
       style="fill:none;stroke:#ffffff;stroke-width:0.897392;stroke-linecap:round;stroke-linejoin:round;stroke-dasharray:none;stroke-opacity:1;stop-color:#000000"
       d="M 10.618288,21.943136 C 9.9353253,23.823878 9.5878451,25.851895 9.6564937,27.922327 9.7976228,32.178759 11.643775,38.199532 23.819384,38.50298" /><path
       id="path6260"
       style="fill:none;stroke:#ffffff;stroke-width:0.897392;stroke-linecap:round;stroke-linejoin:round;stroke-dasharray:none;stroke-opacity:1;stop-color:#000000"
       d="M 33.293621,15.703846 C 30.782241,13.313488 27.52642,11.819 23.986595,11.819 c -3.541186,0 -6.798158,1.495639 -9.309928,3.887603" /><path
       id="path396"
       style="fill:none;stroke:#ffffff;stroke-width:0.897392;stroke-linecap:round;stroke-linejoin:round;stroke-dasharray:none;stroke-opacity:1;stop-color:#000000"
       d="m 24.153807,38.50298 c 12.175597,-0.303448 14.021761,-6.324225 14.16289,-10.580653 0.06926,-2.088719 -0.285003,-4.134272 -0.979973,-6.028994" /><path
       id="path256"
       style="fill:none;stroke:#ffffff;stroke-width:0.897392;stroke-linecap:round;stroke-linejoin:round;stroke-dasharray:none;stroke-opacity:1;stop-color:#000000"
       d="M 18.641599,12.564319 C 18.016248,11.453283 17.105257,10.468091 15.827,9.5741218 l -5.708504,4.0447012 c -3.6174782,2.563127 -1.3876013,5.289165 1.31929,4.588272" /><ellipse
       style="display:inline;fill:none;stroke:#ffffff;stroke-width:0.897392;stroke-linecap:round;stroke-linejoin:round;stroke-dasharray:none;stroke-opacity:1;stop-color:#000000"
       id="ellipse6347"
       cx="16.349779"
       cy="21.237228"
       rx="5.7787786"
       ry="5.7789998" /><path
       id="path257"
       style="fill:none;stroke:#ffffff;stroke-width:0.897392;stroke-linecap:round;stroke-linejoin:round;stroke-dasharray:none;stroke-opacity:1;stop-color:#000000"
       d="m 29.331592,12.564319 c 0.625351,-1.111036 1.536342,-2.096228 2.814599,-2.9901972 l 5.708504,4.0447012 c 3.613946,2.560625 1.39195,5.283842 -1.311363,4.590315" /><ellipse
       style="display:inline;fill:none;stroke:#ffffff;stroke-width:0.897392;stroke-linecap:round;stroke-linejoin:round;stroke-dasharray:none;stroke-opacity:1;stop-color:#000000"
       id="ellipse396"
       cx="-31.623413"
       cy="21.237228"
       rx="5.7787786"
       ry="5.7789998"
       transform="scale(-1,1)" /></g></svg>
