<?xml version="1.0" encoding="UTF-8" standalone="no"?>
<!-- Created with Inkscape (http://www.inkscape.org/) -->

<svg
   width="48"
   height="48"
   viewBox="0 0 48 48"
   version="1.1"
   id="svg990"
   inkscape:version="1.2.2 (b0a8486541, 2022-12-01)"
   xml:space="preserve"
   sodipodi:docname="lemming.svg"
   xmlns:inkscape="http://www.inkscape.org/namespaces/inkscape"
   xmlns:sodipodi="http://sodipodi.sourceforge.net/DTD/sodipodi-0.dtd"
   xmlns="http://www.w3.org/2000/svg"
   xmlns:svg="http://www.w3.org/2000/svg"><sodipodi:namedview
     id="namedview992"
     pagecolor="#858585"
     bordercolor="#000000"
     borderopacity="0.25"
     inkscape:showpageshadow="2"
     inkscape:pageopacity="0"
     inkscape:pagecheckerboard="0"
     inkscape:deskcolor="#d1d1d1"
     inkscape:document-units="px"
     showgrid="false"
     inkscape:zoom="11"
     inkscape:cx="10.909091"
     inkscape:cy="24"
     inkscape:window-width="1366"
     inkscape:window-height="737"
     inkscape:window-x="0"
     inkscape:window-y="0"
     inkscape:window-maximized="1"
     inkscape:current-layer="svg990" /><defs
     id="defs987"><style
       id="style1174">.a{fill:none;stroke:#fff;stroke-linecap:round;stroke-linejoin:round;}</style></defs><path
     id="path787"
     style="fill:none;stroke:#fff;stroke-linecap:round;stroke-linejoin:round;stop-color:#000000"
     d="m 26.070489,20.878368 a 6.4395247,6.4397712 0 0 0 6.439525,6.439772 6.4395247,6.4397712 0 0 0 6.439524,-6.439772 6.4395247,6.4397712 0 0 0 -6.439524,-6.439771 6.4395247,6.4397712 0 0 0 -6.439525,6.439771 z m 3.885655,-9.66457 c 0.696854,-1.2380723 1.712007,-2.3359112 3.13642,-3.332097 l 6.361215,4.507173 c 4.027165,2.853407 1.551106,5.887997 -1.461304,5.115172 m -16.062961,3.374322 a 6.4395247,6.4397712 0 0 1 -6.439525,6.439772 6.4395247,6.4397712 0 0 1 -6.4395244,-6.439772 6.4395247,6.4397712 0 0 1 6.4395244,-6.439771 6.4395247,6.4397712 0 0 1 6.439525,6.439771 z m -3.885658,-9.66457 C 17.347002,9.9757257 16.331849,8.8778868 14.907436,7.881701 l -6.3612154,4.507173 c -4.031101,2.856195 -1.5462597,5.893928 1.4701374,5.112895 m 14.169973,22.616519 c 13.567755,-0.338144 15.62501,-7.047338 15.782276,-11.790446 0.07718,-2.327543 -0.317591,-4.606985 -1.092023,-6.71835 m -4.505392,-6.897193 c -2.798532,-2.663672 -6.426624,-4.32904 -10.371193,-4.32904 -3.946085,0 -7.57546,1.66665 -10.374426,4.332112 M 9.1031589,21.66499 C 8.3421062,23.760776 7.9548951,26.020676 8.031393,28.327842 8.1886588,33.070955 10.2459,39.780144 23.81367,40.118288 M 40.176979,19.80338 38.849625,19.88532 m 3.673536,7.166182 c -1.849746,-0.09818 -3.283959,-0.205553 -4.89867,-0.05877 m 5.18019,2.316974 c -4.50082,-1.063823 -8.83458,-1.095757 -13.75213,-0.23766 m 14.390278,3.528058 c -4.439213,-1.790096 -9.415587,-1.982572 -14.351822,-2.10995 m -5.109181,1.256628 c -2.272153,-0.337325 -2.69132,-1.250147 -2.770928,-2.558359 -0.116063,-1.907344 1.38209,-1.793987 2.789101,-1.793987 1.407013,0 2.905166,-0.113357 2.789103,1.793987 -0.07961,1.308212 -0.535125,2.221034 -2.807276,2.558359 -0.008,1.609072 -1.24918,2.89006 -4.089007,2.705011 m 4.123543,-2.705011 c 0.008,1.609072 1.24918,2.89006 4.089007,2.705011 m 6.471218,-15.104338 a 1.3945984,1.3945984 0 0 1 0.04698,0.358919 v 0 a 1.3945984,1.3945984 0 0 1 -1.394598,1.394598 1.3945984,1.3945984 0 0 1 -1.394599,-1.394598 1.3945984,1.3945984 0 0 1 1.106939,-1.364608 m 1.635432,1.00645 a 2.5715235,2.5715235 0 0 1 0.504795,1.530152 v 0 a 2.5715235,2.5715235 0 0 1 -2.571524,2.571524 2.5715235,2.5715235 0 0 1 -2.571524,-2.571524 2.5715235,2.5715235 0 0 1 2.571524,-2.571523 2.5715235,2.5715235 0 0 1 0.426306,0.03558 m -15.379754,1.00503 a 1.3945984,1.3945984 0 0 1 0.04698,0.358919 v 0 a 1.3945984,1.3945984 0 0 1 -1.394598,1.394598 1.3945984,1.3945984 0 0 1 -1.394599,-1.394598 1.3945984,1.3945984 0 0 1 1.106939,-1.364608 m 1.635432,1.00645 a 2.5715235,2.5715235 0 0 1 0.504795,1.530152 v 0 a 2.5715235,2.5715235 0 0 1 -2.571524,2.571524 2.5715235,2.5715235 0 0 1 -2.571523,-2.571524 2.5715235,2.5715235 0 0 1 2.571523,-2.571523 2.5715235,2.5715235 0 0 1 0.426307,0.03558 m 6.388856,1.711095 c 1.129898,0 2.259798,0 3.389696,0 M 7.8230203,19.80338 9.1503746,19.88532 M 5.476839,27.051502 c 1.8497459,-0.09818 3.283959,-0.205553 4.89867,-0.05877 M 5.1953185,29.309706 C 9.6961394,28.245883 14.029899,28.213949 18.947449,29.072046 M 4.5571705,32.600104 C 8.996384,30.810008 13.972758,30.617532 18.908993,30.490154" /></svg>
