<?xml version="1.0" encoding="UTF-8" standalone="no"?>
<!-- Created with Inkscape (http://www.inkscape.org/) -->

<svg
   width="48"
   height="48"
   viewBox="0 0 48 48"
   version="1.1"
   id="svg990"
   inkscape:version="1.2.1 (9c6d41e, 2022-07-14)"
   xml:space="preserve"
   sodipodi:docname="loopmuenster.svg"
   xmlns:inkscape="http://www.inkscape.org/namespaces/inkscape"
   xmlns:sodipodi="http://sodipodi.sourceforge.net/DTD/sodipodi-0.dtd"
   xmlns="http://www.w3.org/2000/svg"
   xmlns:svg="http://www.w3.org/2000/svg"><sodipodi:namedview
     id="namedview992"
     pagecolor="#858585"
     bordercolor="#000000"
     borderopacity="0.25"
     inkscape:showpageshadow="2"
     inkscape:pageopacity="0"
     inkscape:pagecheckerboard="0"
     inkscape:deskcolor="#d1d1d1"
     inkscape:document-units="px"
     showgrid="false"
     inkscape:zoom="11"
     inkscape:cx="23.681818"
     inkscape:cy="24"
     inkscape:window-width="1366"
     inkscape:window-height="737"
     inkscape:window-x="0"
     inkscape:window-y="0"
     inkscape:window-maximized="1"
     inkscape:current-layer="layer2" /><defs
     id="defs987"><style
   id="style1174">.a{fill:none;stroke:#fff;stroke-linecap:round;stroke-linejoin:round;}</style>
		
		
		
	
		
		
	
		
		
	
		
		
	
		
		
	
		
	
		
		
	
			
		</defs><g
     inkscape:groupmode="layer"
     id="layer2"
     inkscape:label="Layer 2"
     transform="matrix(1.0253743,0,0,1.0253743,-0.83743687,-2.8564209)"
     style="stroke-width:0.975254;stroke-dasharray:none"><path
       id="path4915"
       style="fill:none;stroke:#ffffff;stroke-width:0.975254;stroke-linecap:round;stroke-linejoin:round;stroke-dasharray:none;stroke-opacity:1;stop-color:#000000"
       d="M 16.626974,28.758926 14.99771,28.150568 C 13.436628,27.567669 13.184887,25.812797 13.588172,24.85191 l 1.678915,-4.000269 c 0.388402,-0.925427 2.049471,-1.148777 3.278338,-0.701159 l 11.54061,4.203697 c 1.951346,0.710783 3.12134,-0.881017 3.29947,-1.326225 l 1.441716,-3.60334 m 5.411193,2.978405 -5.221643,-10.909432 4.118168,-1.9560699 c 1.328433,-0.6309863 2.885498,0.1168493 3.48403,1.1879629 0.561992,1.005723 0.278735,2.856004 -0.764531,3.370654 l -2.48084,1.223814 M 5.3069363,24.104276 10.311553,34.401952 20.816892,29.414851 c 1.240402,-0.588844 1.591027,-1.831814 1.960991,-2.938149 l 0.72423,-2.16573 m 1.343782,-4.01843 1.25288,-3.7466 c 0.569172,-1.702046 1.99525,-2.166493 3.406726,-1.598634 l 5.889762,2.369543" /><path
       class="st5"
       d="m 20.105966,34.989109 1.267979,2.632245 c 0.422661,0.877415 1.486358,1.249488 2.363773,0.826828 v 0 c 0.877416,-0.42266 1.249488,-1.486358 0.826828,-2.363772 l -1.267979,-2.632246"
       id="path9170"
       style="fill:none;stroke:#ffffff;stroke-width:0.975254;stroke-linecap:round;stroke-linejoin:round;stroke-miterlimit:10;stroke-dasharray:none;stroke-opacity:1" /><line
       class="st5"
       x1="24.60297"
       y1="36.164173"
       x2="25.371441"
       y2="37.759472"
       id="line9172"
       style="fill:none;stroke:#ffffff;stroke-width:0.975254;stroke-linecap:round;stroke-linejoin:round;stroke-miterlimit:10;stroke-dasharray:none;stroke-opacity:1" /><path
       class="st5"
       d="m 13.009503,40.373031 c -0.422661,-0.877415 -0.05059,-1.941112 0.826827,-2.363773 v 0 c 0.877416,-0.42266 1.941113,-0.05059 2.363773,0.826828 l 1.26798,2.632246"
       id="path9180"
       style="fill:none;stroke:#ffffff;stroke-width:0.975254;stroke-linecap:round;stroke-linejoin:round;stroke-miterlimit:10;stroke-dasharray:none;stroke-opacity:1" /><line
       class="st5"
       x1="12.24103"
       y1="38.777729"
       x2="14.315904"
       y2="43.085037"
       id="line9182"
       style="fill:none;stroke:#ffffff;stroke-width:0.975254;stroke-linecap:round;stroke-linejoin:round;stroke-miterlimit:10;stroke-dasharray:none;stroke-opacity:1" /><path
       class="st5"
       d="m 16.200103,38.836086 c -0.42266,-0.877415 -0.05059,-1.941113 0.826828,-2.363773 v 0 c 0.877415,-0.422659 1.941114,-0.05059 2.363773,0.826829 l 1.267979,2.632245"
       id="path9184"
       style="fill:none;stroke:#ffffff;stroke-width:0.975254;stroke-linecap:round;stroke-linejoin:round;stroke-miterlimit:10;stroke-dasharray:none;stroke-opacity:1" /><path
       class="st5"
       d="m 41.832263,26.488814 c -0.42266,-0.877415 -0.05059,-1.941112 0.826828,-2.363773 v 0"
       id="path9196"
       style="fill:none;stroke:#ffffff;stroke-width:0.975254;stroke-linecap:round;stroke-linejoin:round;stroke-miterlimit:10;stroke-dasharray:none;stroke-opacity:1" /><line
       class="st5"
       x1="41.063789"
       y1="24.893513"
       x2="43.138664"
       y2="29.200823"
       id="line9198"
       style="fill:none;stroke:#ffffff;stroke-width:0.975254;stroke-linecap:round;stroke-linejoin:round;stroke-miterlimit:10;stroke-dasharray:none;stroke-opacity:1" /><path
       class="st5"
       d="m 31.500381,34.414006 c 0.434332,0.0856 0.791816,0.01167 1.429935,-0.295718 l 0.31906,-0.153694 c 0.558356,-0.268965 0.806404,-0.978097 0.537438,-1.536453 v 0 c -0.268965,-0.558354 -0.978097,-0.806403 -1.536452,-0.537438 l -0.717885,0.345813 c -0.558355,0.268965 -1.267487,0.02091 -1.536452,-0.537438 v 0 c -0.268966,-0.558356 -0.02091,-1.267487 0.537438,-1.536453 l 0.31906,-0.153694 c 0.717885,-0.345813 1.075368,-0.419742 1.429935,-0.295718"
       id="path9248"
       style="fill:none;stroke:#ffffff;stroke-width:0.975254;stroke-linecap:round;stroke-linejoin:round;stroke-miterlimit:10;stroke-dasharray:none;stroke-opacity:1" /><path
       class="st5"
       d="m 33.61344,26.910036 2.305417,4.785902 c 0.230542,0.478589 0.703297,0.643955 1.181887,0.413414 l 0.239294,-0.115272"
       id="path9304"
       style="fill:none;stroke:#ffffff;stroke-width:0.975254;stroke-linecap:round;stroke-linejoin:round;stroke-miterlimit:10;stroke-dasharray:none;stroke-opacity:1" /><line
       class="st5"
       x1="33.3508"
       y1="28.608938"
       x2="35.105637"
       y2="27.763613"
       id="line9306"
       style="fill:none;stroke:#ffffff;stroke-width:0.975254;stroke-linecap:round;stroke-linejoin:round;stroke-miterlimit:10;stroke-dasharray:none;stroke-opacity:1" /><path
       class="st5"
       d="m 41.102429,29.198956 c -0.0088,0.59386 -0.413414,1.181886 -0.971769,1.450852 v 0 c -0.877416,0.422659 -1.941113,0.05059 -2.363772,-0.826829 L 37.26738,28.786034 c -0.422659,-0.877415 -0.05059,-1.941112 0.826829,-2.363773 v 0 c 0.877414,-0.42266 1.941112,-0.05059 2.363772,0.826828 l 0.268965,0.558356 -3.1906,1.536945"
       id="path9406"
       style="fill:none;stroke:#ffffff;stroke-width:0.975254;stroke-linecap:round;stroke-linejoin:round;stroke-miterlimit:10;stroke-dasharray:none;stroke-opacity:1" /><circle
       class="st6"
       cx="6.2546811"
       cy="38.256283"
       r="0.70829749"
       id="circle9412"
       style="fill:none;stroke:#ffffff;stroke-width:0.975254;stroke-dasharray:none;stroke-opacity:1"
       transform="rotate(-25.720591)" /><circle
       class="st6"
       cx="3.1984372"
       cy="38.277229"
       r="0.70829749"
       id="circle9414"
       style="fill:none;stroke:#ffffff;stroke-width:0.975254;stroke-dasharray:none;stroke-opacity:1"
       transform="rotate(-25.720591)" /><path
       class="st5"
       d="m 30.125154,35.469563 -1.267979,-2.632246 c -0.422661,-0.877414 -1.486358,-1.249488 -2.363773,-0.826828 v 0 c -0.877416,0.42266 -1.249488,1.486358 -0.826828,2.363773"
       id="path9370"
       style="fill:none;stroke:#ffffff;stroke-width:0.975254;stroke-linecap:round;stroke-linejoin:round;stroke-miterlimit:10;stroke-dasharray:none;stroke-opacity:1" /><line
       class="st5"
       x1="26.934553"
       y1="37.0065"
       x2="24.85968"
       y2="32.699196"
       id="line9372"
       style="fill:none;stroke:#ffffff;stroke-width:0.975254;stroke-linecap:round;stroke-linejoin:round;stroke-miterlimit:10;stroke-dasharray:none;stroke-opacity:1" /></g></svg>
