<?xml version="1.0" encoding="UTF-8" standalone="no"?>
<!-- Created with Inkscape (http://www.inkscape.org/) -->

<svg
   width="48"
   height="48"
   viewBox="0 0 48 48"
   version="1.1"
   id="svg990"
   inkscape:version="1.2.2 (b0a8486541, 2022-12-01)"
   xml:space="preserve"
   sodipodi:docname="lotuss.svg"
   xmlns:inkscape="http://www.inkscape.org/namespaces/inkscape"
   xmlns:sodipodi="http://sodipodi.sourceforge.net/DTD/sodipodi-0.dtd"
   xmlns="http://www.w3.org/2000/svg"
   xmlns:svg="http://www.w3.org/2000/svg"><sodipodi:namedview
     id="namedview992"
     pagecolor="#858585"
     bordercolor="#000000"
     borderopacity="0.25"
     inkscape:showpageshadow="2"
     inkscape:pageopacity="0"
     inkscape:pagecheckerboard="0"
     inkscape:deskcolor="#d1d1d1"
     inkscape:document-units="px"
     showgrid="false"
     inkscape:zoom="11"
     inkscape:cx="24"
     inkscape:cy="24"
     inkscape:window-width="1366"
     inkscape:window-height="737"
     inkscape:window-x="0"
     inkscape:window-y="0"
     inkscape:window-maximized="1"
     inkscape:current-layer="svg990" /><defs
     id="defs987"><style
   id="style1174">.a{fill:none;stroke:#fff;stroke-linecap:round;stroke-linejoin:round;}</style>
		
		
	
		
	
		
	
		
		
	
		
		
	
		
	
			
		</defs><path
     id="path1178"
     class="a"
     inkscape:label="references"
     d="m 40.5,5.4999999 h -33 a 2,2 0 0 0 -1.9999999,2 V 40.5 A 2,2 0 0 0 7.5,42.5 h 33 a 2,2 0 0 0 2,-2 V 7.4999999 a 2,2 0 0 0 -2,-2 z M 34.304,23.444 v -1.222 m -15.412295,0.300285 h 2.322135 m -1.161068,-1.688817 v 6.333065 c 0,0.633306 0.422204,1.05551 1.055511,1.05551 h 0.316653 m 15.027852,-0.422204 c 0.422204,0.316653 0.844409,0.422204 1.688817,0.422204 h 0.422204 c 0.738858,0 1.372164,-0.633306 1.372164,-1.372164 v 0 c 0,-0.738857 -0.633306,-1.372164 -1.372164,-1.372164 H 37.61385 c -0.738858,0 -1.372164,-0.633306 -1.372164,-1.372164 v 0 c 0,-0.738857 0.633306,-1.372163 1.372164,-1.372163 h 0.422204 c 0.94996,0 1.372164,0.105551 1.688817,0.422204 m -10.733233,4.644247 c 0.422204,0.316653 0.844409,0.422204 1.688817,0.422204 h 0.422204 c 0.738858,0 1.372164,-0.633306 1.372164,-1.372164 v 0 c 0,-0.738857 -0.633306,-1.372164 -1.372164,-1.372164 H 30.1527 c -0.738858,0 -1.372164,-0.633306 -1.372164,-1.372164 v 0 c 0,-0.738857 0.633306,-1.372163 1.372164,-1.372163 h 0.422204 c 0.94996,0 1.372164,0.105551 1.688817,0.422204 m -5.155509,2.955215 v 2.111018 m -4.222044,-5.699754 v 3.483185 c 0,1.161062 0.949959,2.111021 2.111021,2.111021 v 0 c 1.161062,0 2.111022,-0.949959 2.111022,-2.111021 V 22.522 m -11.36655,5.700043 v 0 c -1.161062,0 -2.111021,-0.94996 -2.111021,-2.111022 v -1.372163 c 0,-1.161062 0.949959,-2.111022 2.111021,-2.111022 v 0 c 1.161062,0 2.111021,0.94996 2.111021,2.111022 v 1.372163 c 0,1.161062 -0.949959,2.111022 -2.111021,2.111022 z M 8.2640348,19.777957 v 8.444086 h 4.2220432" /></svg>
