<?xml version="1.0" encoding="UTF-8" standalone="no"?>
<!-- Created with Inkscape (http://www.inkscape.org/) -->

<svg
   width="48"
   height="48"
   viewBox="0 0 48 48"
   version="1.1"
   id="svg990"
   inkscape:version="1.2.2 (b0a8486541, 2022-12-01)"
   xml:space="preserve"
   sodipodi:docname="malaysia_prayer_time_mpt.svg"
   xmlns:inkscape="http://www.inkscape.org/namespaces/inkscape"
   xmlns:sodipodi="http://sodipodi.sourceforge.net/DTD/sodipodi-0.dtd"
   xmlns="http://www.w3.org/2000/svg"
   xmlns:svg="http://www.w3.org/2000/svg"><sodipodi:namedview
     id="namedview992"
     pagecolor="#858585"
     bordercolor="#000000"
     borderopacity="0.25"
     inkscape:showpageshadow="2"
     inkscape:pageopacity="0"
     inkscape:pagecheckerboard="0"
     inkscape:deskcolor="#d1d1d1"
     inkscape:document-units="px"
     showgrid="false"
     inkscape:zoom="11"
     inkscape:cx="21.636364"
     inkscape:cy="24"
     inkscape:window-width="1366"
     inkscape:window-height="737"
     inkscape:window-x="0"
     inkscape:window-y="0"
     inkscape:window-maximized="1"
     inkscape:current-layer="svg990" /><defs
     id="defs987"><style
       id="style1174">.a{fill:none;stroke:#fff;stroke-linecap:round;stroke-linejoin:round;}</style></defs><path
     id="path20135-0-7-5"
     style="display:inline;fill:none;stroke:#fff;stroke-width:1;stroke-linecap:round;stroke-linejoin:round;stroke-dasharray:none;stroke-opacity:1;stop-color:#000000"
     d="m 34.368449,20.998857 v 1.206086 m -1.549234,-1.206086 v 1.206086 m -1.549236,-1.206086 v 1.206086 m -1.549235,-1.206086 v 1.206086 m -1.549235,-1.206086 v 1.206086 m -1.549236,-1.206086 v 1.206086 m -1.549235,-1.206086 v 1.206086 m 4.583023,-10.150335 c -0.987858,0.825572 -1.460763,1.520178 -3.079431,2.468767 -3.958735,2.319938 -3.040688,5.048288 -3.025438,7.681568 m 12.259485,0 c 0.01525,-2.63328 0.933115,-5.36163 -3.025619,-7.681568 -1.618668,-0.948589 -2.091573,-1.643195 -3.128997,-2.468767 v -1.403422 m 1.474025,-1.7539264 c 0,0.7958437 -0.645158,1.4410014 -1.441002,1.4410014 -0.795843,0 -1.441001,-0.6451577 -1.441001,-1.4410014 0,-0.7958432 0.645158,-1.4410015 1.441001,-1.4410014 m 2.518179,-3.3686298 0.594911,1.2054211 1.330261,0.1932983 -0.962586,0.9382895 0.227235,1.3248861 L 32.207262,7.123997 31.017441,7.7495234 31.244676,6.4246373 30.28209,5.4863478 31.612351,5.2930495 Z m -8.562346,26.4065356 1e-6,-6.680874 v 0 H 35.80328 v 8.755844 m -8.435206,1.054875 v -3.179433 c 0,-1.222635 0.984292,-2.206928 2.206928,-2.206928 v 0 h 0.270164 c 1.222636,0 2.206928,0.984293 2.206928,2.206928 v 3.244098 M 43.448268,24.10531 c -1.959785,5.833511 -7.42618,9.763691 -13.580089,9.763691 M 23.44127,32.349965 c -4.684687,-2.355526 -7.899051,-7.205848 -7.899051,-12.806924 0,-7.092371 5.189526,-13.1171811 12.203639,-14.1678814 m 15.68107,18.7224824 a 19.434571,19.434571 0 0 1 0.0035,0.370505 v 0 A 19.434571,19.434571 0 0 1 23.995888,43.902719 19.434571,19.434571 0 0 1 4.5613161,24.468147 19.434571,19.434571 0 0 1 23.995888,5.0335759 19.434571,19.434571 0 0 1 27.748584,5.3993291" /></svg>
