<?xml version="1.0" encoding="UTF-8" standalone="no"?>
<!-- Created with Inkscape (http://www.inkscape.org/) -->

<svg
   width="48"
   height="48"
   viewBox="0 0 48 48"
   version="1.1"
   id="svg990"
   inkscape:version="1.2.1 (9c6d41e, 2022-07-14)"
   xml:space="preserve"
   sodipodi:docname="malaysia_prayer_time_mpt.svg"
   xmlns:inkscape="http://www.inkscape.org/namespaces/inkscape"
   xmlns:sodipodi="http://sodipodi.sourceforge.net/DTD/sodipodi-0.dtd"
   xmlns="http://www.w3.org/2000/svg"
   xmlns:svg="http://www.w3.org/2000/svg"><sodipodi:namedview
     id="namedview992"
     pagecolor="#858585"
     bordercolor="#000000"
     borderopacity="0.25"
     inkscape:showpageshadow="2"
     inkscape:pageopacity="0"
     inkscape:pagecheckerboard="0"
     inkscape:deskcolor="#d1d1d1"
     inkscape:document-units="px"
     showgrid="false"
     inkscape:zoom="31.112698"
     inkscape:cx="29.232437"
     inkscape:cy="6.9746442"
     inkscape:window-width="1366"
     inkscape:window-height="737"
     inkscape:window-x="0"
     inkscape:window-y="0"
     inkscape:window-maximized="1"
     inkscape:current-layer="layer2" /><defs
     id="defs987"><style
       id="style1174">.a{fill:none;stroke:#fff;stroke-linecap:round;stroke-linejoin:round;}</style></defs><g
     inkscape:groupmode="layer"
     id="layer2"
     inkscape:label="Layer 2"
     style="display:inline"
     transform="matrix(1.103464,0,0,1.103464,-2.4872483,-2.0149885)"><path
       id="path18871"
       style="fill:none;stroke:#ffffff;stroke-width:0.90623709;stroke-linecap:round;stroke-linejoin:round;stroke-opacity:0.98744291;stop-color:#000000;stroke-dasharray:none"
       d="M 41.609129,23.664234 A 17.612329,17.612329 0 0 1 41.612329,24 v 0 A 17.612329,17.612329 0 0 1 24,41.612329 17.612329,17.612329 0 0 1 6.3876705,24 17.612329,17.612329 0 0 1 24,6.3876705 17.612329,17.612329 0 0 1 27.400833,6.7191296" /><path
       id="path19653"
       style="fill:none;stroke:#ffffff;stroke-width:0.90623709;stroke-linecap:round;stroke-linejoin:round;stroke-dasharray:none;stroke-opacity:0.98744291;stop-color:#000000"
       d="m 41.628468,23.671183 c -1.776029,5.286544 -6.729879,8.848219 -12.30678,8.848219 m -5.824303,-1.376607 c -4.245437,-2.134665 -7.158413,-6.530206 -7.158413,-11.606109 0,-6.42737 4.702941,-11.8872761 11.05939,-12.8394597"
       sodipodi:nodetypes="cccsc" /><path
       id="path19911"
       style="fill:none;stroke:#ffffff;stroke-width:0.90623709;stroke-linecap:round;stroke-linejoin:round;stroke-dasharray:none;stroke-opacity:0.98744291;stop-color:#000000"
       d="m 27.056,32.297381 v -2.88132 c 0,-1.107997 0.892002,-2 2,-2 v 0 h 0.244833 c 1.107998,0 2,0.892003 2,2 v 2.939922" /><path
       id="path19996"
       style="fill:none;stroke:#ffffff;stroke-width:0.90623709;stroke-linecap:round;stroke-linejoin:round;stroke-dasharray:none;stroke-opacity:0.98744291;stop-color:#000000"
       d="m 23.681937,29.461 10e-7,-6.054456 v 0 h 11.018359 v 7.93487"
       sodipodi:nodetypes="ccccc" /><path
       sodipodi:type="star"
       style="fill:none;stroke:#ffffff;stroke-width:0.90623709;stroke-linecap:round;stroke-linejoin:round;stroke-dasharray:none;stroke-opacity:0.98744291;stop-color:#000000"
       id="path20080"
       inkscape:flatsided="false"
       sodipodi:sides="5"
       sodipodi:cx="33.029552"
       sodipodi:cy="8.505024"
       sodipodi:r1="1.8344465"
       sodipodi:r2="0.91722327"
       sodipodi:arg1="-1.5707963"
       sodipodi:arg2="-0.9424778"
       inkscape:rounded="0"
       inkscape:randomized="0"
       d="m 33.029553,6.6705774 0.53913,1.0923973 1.205532,0.1751741 -0.872331,0.8503127 0.205929,1.2006609 -1.078261,-0.5668752 -1.07826,0.5668752 0.205929,-1.2006609 -0.872331,-0.8503127 1.205532,-0.1751741 z"
       inkscape:transform-center-y="-0.17517406"
       transform="translate(-1.5881001,-1.1401596)" /><path
       id="path20082"
       style="fill:none;stroke:#ffffff;stroke-width:0.906237;stroke-linecap:round;stroke-linejoin:round;stroke-opacity:0.98744291;stop-color:#000000"
       d="m 30.465275,9.8890839 c 0,0.7212231 -0.584666,1.3058891 -1.305889,1.3058891 -0.721223,0 -1.305889,-0.584666 -1.305889,-1.3058891 0,-0.7212226 0.584666,-1.305889 1.305889,-1.3058889"
       sodipodi:nodetypes="cssc" /><path
       style="fill:none;stroke:#ffffff;stroke-width:0.90623709;stroke-linecap:round;stroke-linejoin:round;stroke-dasharray:none;stroke-opacity:0.98744291;stop-color:#000000"
       d="m 29.129459,12.75039 c -0.895234,0.748164 -1.323798,1.377642 -2.790695,2.237288 C 22.751212,17.090092 23.58318,19.562624 23.597,21.949 m 11.11,0 c 0.01382,-2.386376 0.845624,-4.858908 -2.741928,-6.961322 -1.466897,-0.859646 -1.895461,-1.489124 -2.835613,-2.237288 v -1.271833"
       id="path20098"
       sodipodi:nodetypes="csccscc" /><path
       style="fill:none;stroke:#ffffff;stroke-width:0.90623709;stroke-linecap:round;stroke-linejoin:round;stroke-dasharray:none;stroke-opacity:0.98744291;stop-color:#000000"
       d="m 24.976154,20.856 v 1.093"
       id="path20135"
       sodipodi:nodetypes="cc" /><path
       style="display:inline;fill:none;stroke:#ffffff;stroke-width:0.90623709;stroke-linecap:round;stroke-linejoin:round;stroke-dasharray:none;stroke-opacity:0.98744291;stop-color:#000000"
       d="m 26.380128,20.856 v 1.093"
       id="path20135-6"
       sodipodi:nodetypes="cc" /><path
       style="display:inline;fill:none;stroke:#ffffff;stroke-width:0.90623709;stroke-linecap:round;stroke-linejoin:round;stroke-dasharray:none;stroke-opacity:0.98744291;stop-color:#000000"
       d="m 27.784103,20.856 v 1.093"
       id="path20135-0"
       sodipodi:nodetypes="cc" /><path
       style="display:inline;fill:none;stroke:#ffffff;stroke-width:0.90623709;stroke-linecap:round;stroke-linejoin:round;stroke-dasharray:none;stroke-opacity:0.98744291;stop-color:#000000"
       d="m 29.188077,20.856 v 1.093"
       id="path20135-02"
       sodipodi:nodetypes="cc" /><path
       style="display:inline;fill:none;stroke:#ffffff;stroke-width:0.90623709;stroke-linecap:round;stroke-linejoin:round;stroke-dasharray:none;stroke-opacity:0.98744291;stop-color:#000000"
       d="m 30.592051,20.856 v 1.093"
       id="path20135-6-3"
       sodipodi:nodetypes="cc" /><path
       style="display:inline;fill:none;stroke:#ffffff;stroke-width:0.90623709;stroke-linecap:round;stroke-linejoin:round;stroke-dasharray:none;stroke-opacity:0.98744291;stop-color:#000000"
       d="m 31.996026,20.856 v 1.093"
       id="path20135-0-7"
       sodipodi:nodetypes="cc" /><path
       style="display:inline;fill:none;stroke:#ffffff;stroke-width:0.90623709;stroke-linecap:round;stroke-linejoin:round;stroke-dasharray:none;stroke-opacity:0.98744291;stop-color:#000000"
       d="m 33.4,20.856 v 1.093"
       id="path20135-0-7-5"
       sodipodi:nodetypes="cc" /></g></svg>
