<?xml version="1.0" encoding="UTF-8" standalone="no"?>
<!-- Created with Inkscape (http://www.inkscape.org/) -->

<svg
   width="48"
   height="48"
   viewBox="0 0 48 48"
   version="1.1"
   id="svg990"
   inkscape:version="1.2.2 (b0a8486541, 2022-12-01)"
   xml:space="preserve"
   sodipodi:docname="manga_up.svg"
   xmlns:inkscape="http://www.inkscape.org/namespaces/inkscape"
   xmlns:sodipodi="http://sodipodi.sourceforge.net/DTD/sodipodi-0.dtd"
   xmlns="http://www.w3.org/2000/svg"
   xmlns:svg="http://www.w3.org/2000/svg"><sodipodi:namedview
     id="namedview992"
     pagecolor="#858585"
     bordercolor="#000000"
     borderopacity="0.25"
     inkscape:showpageshadow="2"
     inkscape:pageopacity="0"
     inkscape:pagecheckerboard="0"
     inkscape:deskcolor="#d1d1d1"
     inkscape:document-units="px"
     showgrid="false"
     inkscape:zoom="11"
     inkscape:cx="10.909091"
     inkscape:cy="24"
     inkscape:window-width="1366"
     inkscape:window-height="737"
     inkscape:window-x="0"
     inkscape:window-y="0"
     inkscape:window-maximized="1"
     inkscape:current-layer="svg990" /><defs
     id="defs987"><style
       id="style1174">.a{fill:none;stroke:#fff;stroke-linecap:round;stroke-linejoin:round;}</style></defs><path
     id="path670"
     style="fill:none;stroke:#fff;stroke-linecap:round;stroke-linejoin:round;stop-color:#000000"
     d="m 39.055672,39.224019 a 2.6625133,2.0921578 14.423401 0 1 -3.099721,1.363023 2.6625133,2.0921578 14.423401 0 1 -2.057468,-2.68941 2.6625133,2.0921578 14.423401 0 1 3.099721,-1.363023 2.6625133,2.0921578 14.423401 0 1 2.057468,2.68941 z m -2.957038,-4.273342 c -0.268816,-0.07399 -0.745659,0.08667 -0.538085,-1.09313 l 2.480197,-14.096838 c 0.09311,-0.529216 0.238428,-1.225257 0.99789,-1.025231 l 4.041571,1.064462 c 0.755934,0.199097 0.521164,0.794151 0.385801,1.25062 l -4.109127,13.85675 c -0.192901,0.650505 -0.381692,0.835122 -1.123709,0.630886 z m -14.992222,5.159661 c -10e-7,0.256424 0.16808,0.46286 0.424504,0.46286 h 4.065911 c 0.256424,2e-6 0.602431,-0.206752 0.602431,-0.463175 v -5.914112 c 0,-0.688391 0.402737,-0.750651 0.895826,-0.718124 3.634956,0.239782 7.568594,-1.07715 7.7688,-5.505985 0.161894,-3.581334 -2.452428,-5.743381 -7.130416,-5.743381 h -5.610153 c -0.735563,0 -1.127775,0.333177 -1.016441,0.850367 2.81e-4,5.708374 -5.74e-4,11.973251 -4.62e-4,17.03155 z M 27.703716,24.97559 24.90209,29.828149 h 5.603251 z M 4.536382,22.690284 c 8e-7,-0.256425 0.1667993,-0.462861 0.4232284,-0.46286 h 4.0659113 c 0.2564237,2e-6 0.4172852,0.206756 0.4172862,0.463175 -1.03e-4,2.756269 1.673e-4,5.512537 3.653e-4,8.268805 1.375e-4,1.426008 1.1145128,2.574021 2.4989088,2.574021 1.384395,0 2.498993,-1.148013 2.498909,-2.574021 -1.89e-4,-3.712861 -3.23e-4,-7.425723 -2.23e-4,-11.138584 2e-6,-0.256425 0.168079,-0.46286 0.424504,-0.46286 h 4.065912 c 0.256424,2e-6 0.416823,0.206751 0.416823,0.463176 v 12.050519 c 0,3.333516 -2.683601,6.017177 -6.017117,6.017177 H 10.553274 C 7.2197579,37.888831 4.5364944,35.205171 4.5364936,31.871655 4.53659,28.811198 4.5362995,25.75074 4.536382,22.690284 Z M 6.7561255,17.23658 6.6641695,9.7820045 9.9098723,13.705204 12.970995,9.7820045 l 0.09216,5.9384865 h 1.899848 l 2.870174,-5.9819952 2.870517,5.9819942 1.894133,1e-6 V 9.9828856 l 5.169247,4.6054554 V 7.4316671 m 6.835186,2.5907719 c -2.15699,-1.2227045 -5.198515,-0.5317149 -5.198514,2.404238 2e-6,2.935954 3.041524,3.626943 5.198514,2.404239 v -1.865363 m 1.38675,2.609314 2.746915,-5.6365388 2.746914,5.6365388" /></svg>
