<?xml version="1.0" encoding="UTF-8" standalone="no"?>
<!-- Created with Inkscape (http://www.inkscape.org/) -->

<svg
   width="48"
   height="48"
   viewBox="0 0 48 48"
   version="1.1"
   id="svg990"
   inkscape:version="1.2.1 (9c6d41e, 2022-07-14)"
   xml:space="preserve"
   sodipodi:docname="manga_up.svg"
   xmlns:inkscape="http://www.inkscape.org/namespaces/inkscape"
   xmlns:sodipodi="http://sodipodi.sourceforge.net/DTD/sodipodi-0.dtd"
   xmlns="http://www.w3.org/2000/svg"
   xmlns:svg="http://www.w3.org/2000/svg"><sodipodi:namedview
     id="namedview992"
     pagecolor="#858585"
     bordercolor="#000000"
     borderopacity="0.25"
     inkscape:showpageshadow="2"
     inkscape:pageopacity="0"
     inkscape:pagecheckerboard="0"
     inkscape:deskcolor="#d1d1d1"
     inkscape:document-units="px"
     showgrid="false"
     inkscape:zoom="11"
     inkscape:cx="23.954545"
     inkscape:cy="24"
     inkscape:window-width="1366"
     inkscape:window-height="737"
     inkscape:window-x="0"
     inkscape:window-y="0"
     inkscape:window-maximized="1"
     inkscape:current-layer="layer2" /><defs
     id="defs987"><style
       id="style1174">.a{fill:none;stroke:#fff;stroke-linecap:round;stroke-linejoin:round;}</style></defs><g
     inkscape:groupmode="layer"
     id="layer2"
     inkscape:label="Layer 2"
     transform="matrix(0.92571957,0,0,0.92571957,1.8562379,1.1468924)"
     style="stroke-width:1.08024075;stroke-dasharray:none"><path
       style="fill:none;stroke:#ffffff;stroke-width:1.08024;stroke-linecap:round;stroke-linejoin:round;stroke-dasharray:none;stroke-opacity:0.99547076;stop-color:#000000"
       d="m 36.871617,15.585686 2.967329,-6.0888188 2.967329,6.0888188"
       id="path1942"
       sodipodi:nodetypes="ccc" /><path
       style="fill:none;stroke:#ffffff;stroke-width:1.08024;stroke-linecap:round;stroke-linejoin:round;stroke-dasharray:none;stroke-opacity:0.99547076;stop-color:#000000"
       d="m 35.373593,9.587727 c -2.330069,-1.3208152 -5.615648,-0.5743801 -5.615647,2.597156 2e-6,3.171537 3.285578,3.917972 5.615647,2.597157 v -2.015041"
       id="path2011"
       sodipodi:nodetypes="ccc" /><path
       d="M 5.2930585,17.380736 5.1937234,9.328 l 3.5061402,4.238 3.3067504,-4.238 0.09956,6.414995 h 2.052293 L 17.258946,9.281 l 3.10085,6.461995 h 2.046119 V 9.545 l 5.584031,4.975 V 6.7890696"
       style="fill:none;stroke:#ffffff;stroke-width:1.08024;stroke-linecap:round;stroke-linejoin:round;stroke-dasharray:none;stroke-opacity:0.99547076;stop-color:#000000"
       id="path2136"
       sodipodi:nodetypes="cccccccccccc" /><path
       id="rect2379"
       style="fill:none;stroke:#ffffff;stroke-width:1.08024;stroke-linecap:round;stroke-linejoin:round;stroke-dasharray:none;stroke-opacity:0.99547076;stop-color:#000000"
       d="m 2.8952014,23.272049 c 0,-0.277 0.1801875,-0.5 0.4571875,-0.5 h 4.392163 c 0.277,0 0.45077,0.223341 0.45077,0.500341 -1.111e-4,2.977434 1.808e-4,5.954867 3.942e-4,8.9323 1.486e-4,1.540432 1.2039428,2.780562 2.6994239,2.780562 1.49548,0 2.699514,-1.24013 2.699423,-2.780562 -2.04e-4,-4.010784 -3.49e-4,-8.021569 -2.41e-4,-12.032353 0,-0.277 0.181567,-0.5 0.458567,-0.5 h 4.392163 c 0.277,0 0.45027,0.223341 0.45027,0.500341 V 33.19014 c 0,3.601 -2.898935,6.5 -6.499935,6.5 H 9.3948929 c -3.601,0 -6.499571,-2.899 -6.499571,-6.5 1.034e-4,-3.30603 -2.097e-4,-6.612061 -1.205e-4,-9.918091 z"
       sodipodi:nodetypes="cssccsccssccsscc" /><path
       sodipodi:type="star"
       style="fill:none;stroke:#ffffff;stroke-width:0.964868;stroke-linecap:round;stroke-linejoin:round;stroke-dasharray:none;stroke-opacity:0.99547076;stop-color:#000000"
       id="path2554"
       inkscape:flatsided="true"
       sodipodi:sides="3"
       sodipodi:cx="24.925764"
       sodipodi:cy="26.811659"
       sodipodi:r1="3.1213858"
       sodipodi:r2="1.560693"
       sodipodi:arg1="1.5707963"
       sodipodi:arg2="2.6179939"
       inkscape:rounded="0"
       inkscape:randomized="0"
       d="m 24.925764,29.933045 -2.703199,-4.682079 5.406398,0 z"
       inkscape:transform-center-y="-0.87365547"
       transform="matrix(1.1195736,0,0,-1.1195736,0.01527105,59.252977)" /><path
       d="m 20.794822,42.089902 c 0,0.277 0.181567,0.5 0.458567,0.5 h 4.392163 c 0.277,0 0.65077,-0.223342 0.65077,-0.500341 v -6.388664 c 0,-0.743628 0.435053,-0.810884 0.967708,-0.775747 3.926628,0.259022 8.175904,-1.163582 8.392174,-5.94779 0.174885,-3.868702 -2.649212,-6.204234 -7.702566,-6.204234 h -6.060316 c -0.794585,0 -1.218268,0.359912 -1.098,0.918601 3.03e-4,6.166418 -6.22e-4,12.933994 -5e-4,18.398175 z"
       style="fill:none;stroke:#ffffff;stroke-width:1.08024;stroke-linecap:round;stroke-linejoin:round;stroke-dasharray:none;stroke-opacity:0.99547076;stop-color:#000000"
       id="path2573" /><path
       style="fill:none;stroke:#ffffff;stroke-width:1.08024;stroke-linecap:round;stroke-linejoin:round;stroke-dasharray:none;stroke-opacity:0.99547076;stop-color:#000000"
       d="m 36.990032,36.516225 c -0.290386,-0.07993 -0.805492,0.09363 -0.581262,-1.180844 l 2.67921,-15.227978 c 0.100581,-0.57168 0.25756,-1.323572 1.077961,-1.107496 l 4.36587,1.149875 c 0.816591,0.215072 0.562983,0.857874 0.416758,1.350971 l -4.438846,14.968626 c -0.208381,0.702701 -0.412319,0.902133 -1.213876,0.681509 z"
       id="path2602"
       sodipodi:nodetypes="sssssssss" /><ellipse
       style="fill:none;stroke:#ffffff;stroke-width:1.08024;stroke-linecap:round;stroke-linejoin:round;stroke-dasharray:none;stroke-opacity:0.99547076;stop-color:#000000"
       id="path2604"
       cx="46.28714"
       cy="29.826694"
       rx="2.8761554"
       ry="2.2600341"
       transform="rotate(14.423401)" /></g></svg>
