<?xml version="1.0" encoding="UTF-8" standalone="no"?>
<!-- Created with Inkscape (http://www.inkscape.org/) -->

<svg
   width="48"
   height="48"
   viewBox="0 0 48 48"
   version="1.1"
   id="svg990"
   inkscape:version="1.2.2 (b0a8486541, 2022-12-01)"
   xml:space="preserve"
   sodipodi:docname="mcotnet.svg"
   xmlns:inkscape="http://www.inkscape.org/namespaces/inkscape"
   xmlns:sodipodi="http://sodipodi.sourceforge.net/DTD/sodipodi-0.dtd"
   xmlns="http://www.w3.org/2000/svg"
   xmlns:svg="http://www.w3.org/2000/svg"><sodipodi:namedview
     id="namedview992"
     pagecolor="#858585"
     bordercolor="#000000"
     borderopacity="0.25"
     inkscape:showpageshadow="2"
     inkscape:pageopacity="0"
     inkscape:pagecheckerboard="0"
     inkscape:deskcolor="#d1d1d1"
     inkscape:document-units="px"
     showgrid="false"
     inkscape:zoom="11"
     inkscape:cx="16.090909"
     inkscape:cy="24"
     inkscape:window-width="1366"
     inkscape:window-height="737"
     inkscape:window-x="0"
     inkscape:window-y="0"
     inkscape:window-maximized="1"
     inkscape:current-layer="svg990" /><defs
     id="defs987"><style
       id="style1174">.a{fill:none;stroke:#fff;stroke-linecap:round;stroke-linejoin:round;}</style></defs><path
     id="path10204"
     style="fill:none;stroke:#fff;stroke-width:1;stroke-linecap:round;stroke-linejoin:round;stroke-dasharray:none;stroke-opacity:1;stop-color:#000000"
     d="m 16.085565,18.441829 c 0.922972,3.40949 2.938371,4.754778 5.353641,6.310723 m -7.096485,-0.520494 c 3.025301,5.782704 9.992623,5.969312 13.024945,3.825943 m -7.124407,-8.270209 c -2.249902,6.714896 1.220081,10.570478 4.256699,12.139855 m 3.041222,-4.645353 a 6.4905522,6.4905522 0 0 1 -0.876209,0.05942 6.4905522,6.4905522 0 0 1 -6.490552,-6.490552 6.4905522,6.4905522 0 0 1 6.061778,-6.476375 m -7.108161,18.295537 c 5.603744,1.074738 7.796314,-2.767947 8.413096,-5.391815 m 6.539659,-3.175691 a 9.9364948,9.9364948 0 0 1 -9.936494,9.936494 9.9364948,9.9364948 0 0 1 -9.936495,-9.936494 9.9364948,9.9364948 0 0 1 9.936495,-9.936495 9.9364948,9.9364948 0 0 1 9.936494,9.936495 z m -1.826662,-5.737789 a 3.8954506,3.8954506 0 0 1 0.07992,0.785045 v 0 a 3.8954506,3.8954506 0 0 1 -3.895451,3.895451 3.8954506,3.8954506 0 0 1 -3.895449,-3.895451 3.8954506,3.8954506 0 0 1 3.895449,-3.89545 3.8954506,3.8954506 0 0 1 0.23685,0.0072 M 4.5000199,24.545767 C 15.550391,7.0268717 38.275183,14.44628 43.49998,23.959833" /></svg>
