<?xml version="1.0" encoding="UTF-8" standalone="no"?>
<!-- Created with Inkscape (http://www.inkscape.org/) -->

<svg
   width="48"
   height="48"
   viewBox="0 0 48 48"
   version="1.1"
   id="svg990"
   inkscape:version="1.2.1 (9c6d41e, 2022-07-14)"
   xml:space="preserve"
   sodipodi:docname="monster_super_league.svg"
   xmlns:inkscape="http://www.inkscape.org/namespaces/inkscape"
   xmlns:sodipodi="http://sodipodi.sourceforge.net/DTD/sodipodi-0.dtd"
   xmlns="http://www.w3.org/2000/svg"
   xmlns:svg="http://www.w3.org/2000/svg"><sodipodi:namedview
     id="namedview992"
     pagecolor="#858585"
     bordercolor="#000000"
     borderopacity="0.25"
     inkscape:showpageshadow="2"
     inkscape:pageopacity="0"
     inkscape:pagecheckerboard="0"
     inkscape:deskcolor="#d1d1d1"
     inkscape:document-units="px"
     showgrid="false"
     inkscape:zoom="11.313708"
     inkscape:cx="41.056388"
     inkscape:cy="25.367456"
     inkscape:window-width="1366"
     inkscape:window-height="737"
     inkscape:window-x="0"
     inkscape:window-y="0"
     inkscape:window-maximized="1"
     inkscape:current-layer="layer2" /><defs
     id="defs987"><style
       id="style1174">.a{fill:none;stroke:#fff;stroke-linecap:round;stroke-linejoin:round;}</style></defs><g
     inkscape:groupmode="layer"
     id="layer2"
     inkscape:label="Layer 2"
     transform="matrix(1.0754329,0,0,1.0754329,-1.8103896,-1.8103896)"><circle
       style="fill:none;stroke:#ffffff;stroke-linecap:round;stroke-linejoin:round;stroke-opacity:1;stop-color:#000000;stroke-width:0.92985811;stroke-dasharray:none"
       id="path396"
       cx="24"
       cy="24"
       r="19.956879" /><path
       sodipodi:type="star"
       style="fill:none;stroke:#ffffff;stroke-width:1.1402578;stroke-linecap:round;stroke-linejoin:round;stroke-dasharray:none;stroke-opacity:1;stop-color:#000000"
       id="path1539"
       inkscape:flatsided="false"
       sodipodi:sides="5"
       sodipodi:cx="17.632084"
       sodipodi:cy="15.328592"
       sodipodi:r1="10.138608"
       sodipodi:r2="5.069304"
       sodipodi:arg1="1.5707963"
       sodipodi:arg2="2.1991149"
       inkscape:rounded="0"
       inkscape:randomized="0"
       d="m 17.632084,25.4672 -2.979662,-6.037455 -6.6627272,-0.96815 4.8211942,-4.699504 -1.13813,-6.6358047 5.959325,3.1330017 5.959324,-3.133002 -1.138129,6.635805 4.821194,4.699503 -6.662727,0.968152 z"
       inkscape:transform-center-y="-0.78950988"
       transform="matrix(0.81548059,0,0,-0.81548059,9.621378,36.527553)" /><path
       id="path1633"
       style="display:inline;fill:none;stroke:#ffffff;stroke-width:0.41703588;stroke-linecap:round;stroke-linejoin:round;stroke-dasharray:none;stroke-opacity:1;stop-color:#000000"
       d="M 17.927662,20.17031 16.91585,18.883234"
       transform="matrix(1.9309627,-1.1148419,1.1148419,1.9309627,-18.107905,18.192796)" /><path
       id="path1781"
       style="display:inline;fill:none;stroke:#ffffff;stroke-width:0.41703588;stroke-linecap:round;stroke-linejoin:round;stroke-dasharray:none;stroke-opacity:1;stop-color:#000000"
       d="m 20.345938,16.909724 0.600749,1.499857"
       transform="matrix(1.9309627,-1.1148419,1.1148419,1.9309627,-18.107905,18.192796)" /><path
       id="path1779"
       style="display:inline;fill:none;stroke:#ffffff;stroke-width:0.41703588;stroke-linecap:round;stroke-linejoin:round;stroke-dasharray:none;stroke-opacity:1;stop-color:#000000"
       d="m 23.828669,13.444298 -1.603622,0.230286"
       transform="matrix(1.9309627,-1.1148419,1.1148419,1.9309627,-18.107905,18.192796)" /><path
       id="path1775"
       style="display:inline;fill:none;stroke:#ffffff;stroke-width:0.41703588;stroke-linecap:round;stroke-linejoin:round;stroke-dasharray:none;stroke-opacity:1;stop-color:#000000"
       d="m 22.225788,9.7217848 1.602731,0.2301585"
       transform="matrix(1.9309627,-1.1148419,1.1148419,1.9309627,-18.107905,18.192796)" /><path
       id="path1773"
       style="display:inline;fill:none;stroke:#ffffff;stroke-width:0.41703588;stroke-linecap:round;stroke-linejoin:round;stroke-dasharray:none;stroke-opacity:1;stop-color:#000000"
       d="M 20.953943,4.9685687 20.350157,6.4760056"
       transform="matrix(1.9309627,-1.1148419,1.1148419,1.9309627,-18.107905,18.192796)" /><path
       id="path1769"
       style="display:inline;fill:none;stroke:#ffffff;stroke-width:0.41703588;stroke-linecap:round;stroke-linejoin:round;stroke-dasharray:none;stroke-opacity:1;stop-color:#000000"
       d="M 16.923278,4.5035845 17.915993,3.2408016"
       transform="matrix(1.9309627,-1.1148419,1.1148419,1.9309627,-18.107905,18.192796)" /><path
       id="path1767"
       style="display:inline;fill:none;stroke:#ffffff;stroke-width:0.41703588;stroke-linecap:round;stroke-linejoin:round;stroke-dasharray:none;stroke-opacity:1;stop-color:#000000"
       d="m 12.177877,3.2259585 1.011812,1.287076"
       transform="matrix(1.9309627,-1.1148419,1.1148419,1.9309627,-18.107905,18.192796)" /><path
       id="path1763"
       style="display:inline;fill:none;stroke:#ffffff;stroke-width:0.41703588;stroke-linecap:round;stroke-linejoin:round;stroke-dasharray:none;stroke-opacity:1;stop-color:#000000"
       d="M 9.759601,6.4865415 9.1588517,4.9866852"
       transform="matrix(1.9309627,-1.1148419,1.1148419,1.9309627,-18.107905,18.192796)" /><path
       id="path1761"
       style="display:inline;fill:none;stroke:#ffffff;stroke-width:0.41703588;stroke-linecap:round;stroke-linejoin:round;stroke-dasharray:none;stroke-opacity:1;stop-color:#000000"
       d="M 6.2935252,9.949576 7.8928134,9.7199122"
       transform="matrix(1.9309627,-1.1148419,1.1148419,1.9309627,-18.107905,18.192796)" /><path
       id="path1757"
       style="display:inline;fill:none;stroke:#ffffff;stroke-width:0.41703588;stroke-linecap:round;stroke-linejoin:round;stroke-dasharray:none;stroke-opacity:1;stop-color:#000000"
       d="M 7.8987506,13.677209 6.2782041,13.444492"
       transform="matrix(1.9309627,-1.1148419,1.1148419,1.9309627,-18.107905,18.192796)" /><path
       id="path1755"
       style="display:inline;fill:none;stroke:#ffffff;stroke-width:0.41703588;stroke-linecap:round;stroke-linejoin:round;stroke-dasharray:none;stroke-opacity:1;stop-color:#000000"
       d="M 9.1601172,18.406424 9.7573625,16.915316"
       transform="matrix(1.9309627,-1.1148419,1.1148419,1.9309627,-18.107905,18.192796)" /><path
       id="path1751"
       style="display:inline;fill:none;stroke:#ffffff;stroke-width:0.41703588;stroke-linecap:round;stroke-linejoin:round;stroke-dasharray:none;stroke-opacity:1;stop-color:#000000"
       d="m 13.182262,18.892682 -0.992714,1.262784"
       transform="matrix(1.9309627,-1.1148419,1.1148419,1.9309627,-18.107905,18.192796)" /><path
       id="path1690"
       style="fill:none;stroke:#ffffff;stroke-width:0.92985811;stroke-linecap:round;stroke-linejoin:round;stroke-dasharray:none;stroke-opacity:1;stop-color:#000000"
       d="m 35.646635,12.183255 a 16.591551,16.591551 0 0 1 4.410084,7.638068" /><path
       id="path1686"
       style="fill:none;stroke:#ffffff;stroke-width:0.92985811;stroke-linecap:round;stroke-linejoin:round;stroke-dasharray:none;stroke-opacity:1;stop-color:#000000"
       d="M 19.577804,8.0086354 A 16.591551,16.591551 0 0 1 24,7.4084492 16.591551,16.591551 0 0 1 28.405869,8.0041293" /><path
       id="path1682"
       style="fill:none;stroke:#ffffff;stroke-width:0.92985811;stroke-linecap:round;stroke-linejoin:round;stroke-dasharray:none;stroke-opacity:1;stop-color:#000000"
       d="m 7.9384665,19.839868 a 16.591551,16.591551 0 0 1 4.4151805,-7.65689" /><path
       id="path1678"
       style="fill:none;stroke:#ffffff;stroke-width:0.92985811;stroke-linecap:round;stroke-linejoin:round;stroke-dasharray:none;stroke-opacity:1;stop-color:#000000"
       d="M 12.353646,35.817021 A 16.591551,16.591551 0 0 1 7.9384663,28.160132" /><path
       id="path1674"
       style="fill:none;stroke:#ffffff;stroke-width:0.92985811;stroke-linecap:round;stroke-linejoin:round;stroke-dasharray:none;stroke-opacity:1;stop-color:#000000"
       d="M 28.422196,39.991365 A 16.591551,16.591551 0 0 1 24,40.591551 16.591551,16.591551 0 0 1 19.577804,39.991365" /><path
       id="path1670"
       style="fill:none;stroke:#ffffff;stroke-width:0.92985811;stroke-linecap:round;stroke-linejoin:round;stroke-dasharray:none;stroke-opacity:1;stop-color:#000000"
       d="m 40.061534,28.160132 a 16.591551,16.591551 0 0 1 -4.415181,7.65689" /><path
       id="path2341"
       style="display:inline;fill:none;stroke:#ffffff;stroke-width:0.92985811;stroke-linecap:round;stroke-linejoin:round;stroke-dasharray:none;stroke-opacity:1;stop-color:#000000"
       d="m 40.316408,25.783673 -2.665224,-1.928142 2.468045,-1.785493" /><path
       id="path2335"
       style="display:inline;fill:none;stroke:#ffffff;stroke-width:0.92985811;stroke-linecap:round;stroke-linejoin:round;stroke-dasharray:none;stroke-opacity:1;stop-color:#000000"
       d="m 7.8807709,22.070038 2.4680451,1.785493 -2.6652231,1.928141" /><path
       id="path2329"
       style="display:inline;fill:none;stroke:#ffffff;stroke-width:0.92985811;stroke-linecap:round;stroke-linejoin:round;stroke-dasharray:none;stroke-opacity:1;stop-color:#000000"
       d="m 33.712437,37.147446 -2.886846,-1.213513 -0.361393,3.02358" /><path
       id="path2323"
       style="display:inline;fill:none;stroke:#ffffff;stroke-width:0.92985811;stroke-linecap:round;stroke-linejoin:round;stroke-dasharray:none;stroke-opacity:1;stop-color:#000000"
       d="m 17.535803,38.957513 -0.361395,-3.023579 -2.886845,1.213512" /><path
       id="path2317"
       style="display:inline;fill:none;stroke:#ffffff;stroke-width:0.92985811;stroke-linecap:round;stroke-linejoin:round;stroke-dasharray:none;stroke-opacity:1;stop-color:#000000"
       d="M 33.712437,10.852553 30.825592,12.066066 30.464198,9.0424876" /><path
       id="path2311"
       style="display:inline;fill:none;stroke:#ffffff;stroke-width:0.92985811;stroke-linecap:round;stroke-linejoin:round;stroke-dasharray:none;stroke-opacity:1;stop-color:#000000"
       d="M 17.535803,9.0424864 17.174408,12.066065 14.287563,10.852552" /><path
       id="path2250"
       style="display:inline;fill:none;stroke:#ffffff;stroke-width:0.92985811;stroke-linecap:round;stroke-linejoin:round;stroke-dasharray:none;stroke-opacity:1;stop-color:#000000"
       d="M 33.950098,37.248677 33.614371,40.0575 v 0 l -3.124414,-1.313378" /><path
       id="path2294"
       style="display:inline;fill:none;stroke:#ffffff;stroke-width:0.92985811;stroke-linecap:round;stroke-linejoin:round;stroke-dasharray:none;stroke-opacity:1;stop-color:#000000"
       d="m 40.439669,21.837792 2.789073,2.01774 -2.789073,2.017739" /><path
       id="path2290"
       style="display:inline;fill:none;stroke:#ffffff;stroke-width:0.92985811;stroke-linecap:round;stroke-linejoin:round;stroke-dasharray:none;stroke-opacity:1;stop-color:#000000"
       d="m 30.456159,8.9811507 3.158213,-1.3275848 0.368649,3.0842661" /><path
       id="path2286"
       style="display:inline;fill:none;stroke:#ffffff;stroke-width:0.92985811;stroke-linecap:round;stroke-linejoin:round;stroke-dasharray:none;stroke-opacity:1;stop-color:#000000"
       d="m 14.016981,10.737833 0.368649,-3.0842675 3.158212,1.327585" /><path
       id="path2282"
       style="display:inline;fill:none;stroke:#ffffff;stroke-width:0.92985811;stroke-linecap:round;stroke-linejoin:round;stroke-dasharray:none;stroke-opacity:1;stop-color:#000000"
       d="M 7.5603312,25.873271 4.7712585,23.855531 7.5603312,21.837792" /><path
       id="path2278"
       style="display:inline;fill:none;stroke:#ffffff;stroke-width:0.92985811;stroke-linecap:round;stroke-linejoin:round;stroke-dasharray:none;stroke-opacity:1;stop-color:#000000"
       d="M 17.510045,38.744121 14.385629,40.0575 14.049903,37.248677" /><path
       id="path1313"
       style="display:inline;fill:none;stroke:#ffffff;stroke-width:0.92985811;stroke-linecap:round;stroke-linejoin:round;stroke-dasharray:none;stroke-opacity:1;stop-color:#000000"
       d="m 12.438414,22.542772 a 1.9932713,1.9932713 0 0 1 0.430394,0.517945 1.9932713,1.9932713 0 0 1 -0.428219,2.509354 M 35.561585,25.457226 A 1.9932713,1.9932713 0 0 1 35.13119,24.939281 1.9932713,1.9932713 0 0 1 35.555514,22.433278 M 16.975068,33.277802 a 1.9932713,1.9932713 0 0 1 0.645895,-0.107548 1.9932713,1.9932713 0 0 1 1.952208,1.590765 m 8.853897,0 a 1.9932713,1.9932713 0 0 1 1.95221,-1.590765 1.9932713,1.9932713 0 0 1 0.645894,0.107548 M 19.573622,13.235617 a 1.9932713,1.9932713 0 0 1 -1.9529,1.594129 1.9932713,1.9932713 0 0 1 -0.645894,-0.107548 m 14.080668,-0.01075 a 1.9932713,1.9932713 0 0 1 -0.676459,0.118296 1.9932713,1.9932713 0 0 1 -1.958634,-1.623294" /><path
       id="path1220"
       style="display:inline;fill:none;stroke:#ffffff;stroke-width:0.92985811;stroke-linecap:round;stroke-linejoin:round;stroke-dasharray:none;stroke-opacity:1;stop-color:#000000"
       d="m 35.581778,25.452303 a 11.67248,11.67248 0 0 1 -4.542492,7.858725 m -2.584521,1.477941 A 11.67248,11.67248 0 0 1 24,35.67248 11.67248,11.67248 0 0 1 19.545235,34.788968 m -2.584521,-1.47794 a 11.67248,11.67248 0 0 1 -4.527244,-7.7419 m -0.01525,-3.021432 a 11.67248,11.67248 0 0 1 4.542492,-7.858724 m 2.588182,-1.479453 A 11.67248,11.67248 0 0 1 24,12.32752 a 11.67248,11.67248 0 0 1 4.435152,0.875434 m 2.617747,1.496326 a 11.67248,11.67248 0 0 1 4.515384,7.744566" /></g></svg>
