<?xml version="1.0" encoding="UTF-8" standalone="no"?>
<!-- Created with Inkscape (http://www.inkscape.org/) -->

<svg
   width="48"
   height="48"
   viewBox="0 0 48 48"
   version="1.1"
   id="svg990"
   inkscape:version="1.2.2 (b0a8486541, 2022-12-01)"
   xml:space="preserve"
   sodipodi:docname="mthai.svg"
   xmlns:inkscape="http://www.inkscape.org/namespaces/inkscape"
   xmlns:sodipodi="http://sodipodi.sourceforge.net/DTD/sodipodi-0.dtd"
   xmlns="http://www.w3.org/2000/svg"
   xmlns:svg="http://www.w3.org/2000/svg"><sodipodi:namedview
     id="namedview992"
     pagecolor="#858585"
     bordercolor="#000000"
     borderopacity="0.25"
     inkscape:showpageshadow="2"
     inkscape:pageopacity="0"
     inkscape:pagecheckerboard="0"
     inkscape:deskcolor="#d1d1d1"
     inkscape:document-units="px"
     showgrid="false"
     inkscape:zoom="11"
     inkscape:cx="7.5454545"
     inkscape:cy="24"
     inkscape:window-width="1366"
     inkscape:window-height="737"
     inkscape:window-x="0"
     inkscape:window-y="0"
     inkscape:window-maximized="1"
     inkscape:current-layer="svg990" /><defs
     id="defs987"><style
       id="style1174">.a{fill:none;stroke:#fff;stroke-linecap:round;stroke-linejoin:round;}</style></defs><path
     id="path12940"
     style="fill:none;stroke:#fff;stroke-width:1;stroke-linecap:round;stroke-linejoin:round;stroke-dasharray:none;stroke-opacity:1;stop-color:#000000"
     d="m 25.706746,34.531044 v 4.364792 m -7.210215,0 -1.46e-4,4.604105 M 8.226887,34.530625 h 4.116543 v 8.969316 m 0,-8.968897 5.200755,-4.19e-4 c 0.52768,-4.3e-5 0.952491,0.424811 0.952491,0.952491 l -1.45e-4,3.293658 h 7.210215 v 4.723167 l 1.999028,-10e-7 3.775813,-8.389415 c 0.350554,-0.778889 1.704813,-0.77282 2.052719,0 m 2.761724,6.134763 h -7.528215 m 4.766491,-6.134763 2.761724,6.134763 1.014991,2.254654 h 1.880745 v -8.968898 m -6.65052,-15.993319 7.952652,-9.2864662 m -7.952941,9.2856232 5.97e-4,12.245204 h 7.952621 V 9.1396161 L 32.61295,4.5000425 24,15.273829 M 15.458755,18.537725 7.5061022,9.2512588 m 7.9532478,9.2864662 8.541245,9.909128 M 32.541841,18.537725 24.000595,28.446853 24,15.273829 15.38705,4.5000425 7.5058248,9.1396161 V 30.782086 h 7.9538122 l -5.94e-4,-12.245204" /></svg>
