<?xml version="1.0" encoding="UTF-8" standalone="no"?>
<!-- Created with Inkscape (http://www.inkscape.org/) -->

<svg
   width="48"
   height="48"
   viewBox="0 0 48 48"
   version="1.1"
   id="svg990"
   inkscape:version="1.2.2 (b0a8486541, 2022-12-01)"
   xml:space="preserve"
   sodipodi:docname="nds4droid.svg"
   xmlns:inkscape="http://www.inkscape.org/namespaces/inkscape"
   xmlns:sodipodi="http://sodipodi.sourceforge.net/DTD/sodipodi-0.dtd"
   xmlns="http://www.w3.org/2000/svg"
   xmlns:svg="http://www.w3.org/2000/svg"><sodipodi:namedview
     id="namedview992"
     pagecolor="#858585"
     bordercolor="#000000"
     borderopacity="0.25"
     inkscape:showpageshadow="2"
     inkscape:pageopacity="0"
     inkscape:pagecheckerboard="0"
     inkscape:deskcolor="#d1d1d1"
     inkscape:document-units="px"
     showgrid="false"
     inkscape:zoom="11.645833"
     inkscape:cx="11.677997"
     inkscape:cy="25.245081"
     inkscape:window-width="1366"
     inkscape:window-height="737"
     inkscape:window-x="0"
     inkscape:window-y="0"
     inkscape:window-maximized="1"
     inkscape:current-layer="svg990" /><defs
     id="defs987"><style
       id="style1174">.a{fill:none;stroke:#fff;stroke-linecap:round;stroke-linejoin:round;}</style></defs><path
     id="rect319-3"
     style="display:inline;fill:none;stroke:#fff;stroke-linecap:round;stroke-linejoin:round;stop-color:#000000"
     d="m 16.837921,26.234596 h 14.324156 c 0.578231,0 1.043738,0.465508 1.043738,1.043738 v 10.143142 c 0,0.578231 -0.465507,1.043738 -1.043738,1.043738 H 16.837921 c -0.578231,0 -1.043738,-0.465507 -1.043738,-1.043738 V 27.278334 c 0,-0.57823 0.465507,-1.043738 1.043738,-1.043738 z m 0,-16.6998107 h 14.324156 c 0.578231,0 1.043738,0.4655077 1.043738,1.0437387 v 10.143141 c 0,0.578231 -0.465507,1.043738 -1.043738,1.043738 H 16.837921 c -0.578231,0 -1.043738,-0.465507 -1.043738,-1.043738 V 10.578524 c 0,-0.578231 0.465507,-1.0437387 1.043738,-1.0437387 z M 5.5743314,38.862838 9.210933,42.499439 m -3.6371884,-3.637147 2e-7,-31.2742552 c 0,-1.1564608 0.9310156,-2.0874764 2.0874764,-2.0874764 v 0 H 40.338779 c 1.15646,0 2.087476,0.9310156 2.087476,2.0874764 V 40.411533 c 0,1.156461 -0.931016,2.087476 -2.087476,2.087476 H 9.2104996" /></svg>
