<?xml version="1.0" encoding="UTF-8" standalone="no"?>
<!-- Created with Inkscape (http://www.inkscape.org/) -->

<svg
   width="48"
   height="48"
   viewBox="0 0 48 48"
   version="1.1"
   id="svg990"
   inkscape:version="1.2.1 (9c6d41e, 2022-07-14)"
   xml:space="preserve"
   sodipodi:docname="pepper_invest.svg"
   xmlns:inkscape="http://www.inkscape.org/namespaces/inkscape"
   xmlns:sodipodi="http://sodipodi.sourceforge.net/DTD/sodipodi-0.dtd"
   xmlns="http://www.w3.org/2000/svg"
   xmlns:svg="http://www.w3.org/2000/svg"><sodipodi:namedview
     id="namedview992"
     pagecolor="#858585"
     bordercolor="#000000"
     borderopacity="0.25"
     inkscape:showpageshadow="2"
     inkscape:pageopacity="0"
     inkscape:pagecheckerboard="0"
     inkscape:deskcolor="#d1d1d1"
     inkscape:document-units="px"
     showgrid="false"
     inkscape:zoom="11.645833"
     inkscape:cx="21.939177"
     inkscape:cy="24.042934"
     inkscape:window-width="1366"
     inkscape:window-height="737"
     inkscape:window-x="0"
     inkscape:window-y="0"
     inkscape:window-maximized="1"
     inkscape:current-layer="layer2" /><defs
     id="defs987"><style
   id="style1174">.a{fill:none;stroke:#fff;stroke-linecap:round;stroke-linejoin:round;}</style>
		
	
		
	
		
	
		
	
		
		
	
		
		
	
		
		
	</defs><g
     inkscape:groupmode="layer"
     id="layer2"
     inkscape:label="Layer 2"><path
       class="a"
       d="m 40.5,5.4999999 h -33 a 2,2 0 0 0 -1.9999999,2 V 40.5 A 2,2 0 0 0 7.5,42.5 h 33 a 2,2 0 0 0 2,-2 V 7.4999999 a 2,2 0 0 0 -2,-2 z"
       id="path1178"
       inkscape:label="references"
       sodipodi:insensitive="true"
       style="display:inline" /><line
       class="st5"
       x1="8.235384"
       y1="32.602551"
       x2="8.235384"
       y2="39.101376"
       id="line5507"
       style="fill:none;stroke:#ffffff;stroke-width:0.999998;stroke-linecap:round;stroke-linejoin:round;stroke-miterlimit:10;stroke-dasharray:none" /><line
       class="st5"
       x1="33.398258"
       y1="32.602551"
       x2="37.622505"
       y2="32.602551"
       id="line5601"
       style="fill:none;stroke:#ffffff;stroke-width:0.999998;stroke-linecap:round;stroke-linejoin:round;stroke-miterlimit:10;stroke-dasharray:none" /><line
       class="st5"
       x1="35.51038"
       y1="39.101376"
       x2="35.51038"
       y2="32.602551"
       id="line5603"
       style="fill:none;stroke:#ffffff;stroke-width:0.999998;stroke-linecap:round;stroke-linejoin:round;stroke-miterlimit:10;stroke-dasharray:none" /><polyline
       class="st5"
       points="183.4,48.7 183.4,40.7 188.7,48.7 188.7,40.7   "
       id="polyline5619"
       style="fill:none;stroke:#ffffff;stroke-width:1.23099;stroke-linecap:round;stroke-linejoin:round;stroke-miterlimit:10;stroke-dasharray:none"
       transform="matrix(0.81235297,0,0,0.81235297,-138.75449,-0.46021412)" /><polyline
       class="st5"
       points="268.6,40.7 266,48.7 263.4,40.7   "
       id="polyline5635"
       style="fill:none;stroke:#ffffff;stroke-width:1.23099;stroke-linecap:round;stroke-linejoin:round;stroke-miterlimit:10;stroke-dasharray:none"
       transform="matrix(0.81235297,0,0,0.81235297,-197.5416,-0.46012314)" /><path
       class="st5"
       d="m 27.478368,38.370258 c 0.406177,0.487412 0.893589,0.731118 1.624706,0.731118 h 0.974824 c 0.893588,0 1.624706,-0.731118 1.624706,-1.624706 v 0 c 0,-0.893589 -0.731118,-1.624706 -1.624706,-1.624706 h -1.056059 c -0.893588,0 -1.624706,-0.731118 -1.624706,-1.624706 v 0 c 0,-0.893589 0.731118,-1.624706 1.624706,-1.624706 h 0.974824 c 0.731117,0 1.218529,0.16247 1.624706,0.731117"
       id="path5747"
       style="fill:none;stroke:#ffffff;stroke-width:0.999998;stroke-linecap:round;stroke-linejoin:round;stroke-miterlimit:10;stroke-dasharray:none" /><line
       class="st5"
       x1="22.552063"
       y1="35.851963"
       x2="24.664179"
       y2="35.851963"
       id="line5885"
       style="fill:none;stroke:#ffffff;stroke-width:0.999998;stroke-linecap:round;stroke-linejoin:round;stroke-miterlimit:10;stroke-dasharray:none" /><polyline
       class="st5"
       points="98,48.7 94,48.7 94,40.7 98,40.7   "
       id="polyline5887"
       style="fill:none;stroke:#ffffff;stroke-width:1.23099;stroke-linecap:round;stroke-linejoin:round;stroke-miterlimit:10;stroke-dasharray:none"
       transform="matrix(0.81235297,0,0,0.81235297,-53.809116,-0.46021412)" /><circle
       class="st6"
       cx="38.961868"
       cy="38.85767"
       r="0.64988238"
       id="circle6099"
       style="fill:#ffffff;stroke-width:0.999998;stroke-dasharray:none" /></g></svg>
