<?xml version="1.0" encoding="UTF-8" standalone="no"?>
<svg
   id="Layer_2"
   data-name="Layer 2"
   viewBox="0 0 48 48"
   version="1.1"
   sodipodi:docname="redreader_alpha.svg"
   inkscape:version="1.2.1 (9c6d41e, 2022-07-14)"
   xmlns:inkscape="http://www.inkscape.org/namespaces/inkscape"
   xmlns:sodipodi="http://sodipodi.sourceforge.net/DTD/sodipodi-0.dtd"
   xmlns="http://www.w3.org/2000/svg"
   xmlns:svg="http://www.w3.org/2000/svg">
  <sodipodi:namedview
     id="namedview10194"
     pagecolor="#6b6b6b"
     bordercolor="#000000"
     borderopacity="0.25"
     inkscape:showpageshadow="2"
     inkscape:pageopacity="0"
     inkscape:pagecheckerboard="0"
     inkscape:deskcolor="#d1d1d1"
     showgrid="false"
     inkscape:zoom="11.645833"
     inkscape:cx="16.014311"
     inkscape:cy="24.042934"
     inkscape:window-width="1366"
     inkscape:window-height="737"
     inkscape:window-x="0"
     inkscape:window-y="0"
     inkscape:window-maximized="1"
     inkscape:current-layer="Layer_2" />
  <defs
     id="defs10185">
    <style
       id="style10183">.cls-1{fill:none;stroke:#fff;stroke-linecap:round;stroke-linejoin:round;}</style>
  </defs>
  <path
     id="path10187"
     class="cls-1"
     d="M 42.5 32.759765 L 42.5 7.5 A 2 2 0 0 0 40.5 5.5 L 40.5 5.5 L 7.5 5.5 A 2 2 0 0 0 5.5 7.5 L 5.5 40.5 A 2 2 0 0 0 7.5 42.5 L 32.798827 42.5 "
     style="fill:none" />
  <path
     class="cls-1"
     d="M15,37.4V10.5h9a9,9,0,0,1,0,18.07H15"
     id="path10189" />
  <path
     id="path10795"
     class="cls-1"
     d="M 24 28.57 L 31.82722 36.41479 "
     style="fill:none" />
  <circle
     class="a"
     cx="38.5"
     cy="38.5"
     r="7"
     id="circle10051"
     style="fill:none;stroke:#ffffff;stroke-linecap:round;stroke-linejoin:round" />
  <g
     id="g4719"
     transform="matrix(1.2890413,0,0,1.2890413,-33.686313,-185.79319)"
     style="stroke-width:0.77577;stroke-dasharray:none">
		<g
   id="g4715"
   style="stroke-width:0.77577;stroke-dasharray:none">
			<path
   class="st5"
   d="m 57.6,174.7 c 0,1.1 -0.9,2 -2,2 v 0 c -1.1,0 -2,-0.9 -2,-2 v -1.3 c 0,-1.1 0.9,-2 2,-2 v 0 c 1.1,0 2,0.9 2,2"
   id="path4713"
   style="fill:none;stroke:#ffffff;stroke-width:0.77577;stroke-linecap:round;stroke-linejoin:round;stroke-miterlimit:10;stroke-dasharray:none" />

		</g>

		<path
   class="st5"
   d="m 58.4,176.6 c -0.4,0 -0.8,-0.4 -0.8,-0.8 v -4.5"
   id="path4717"
   style="fill:none;stroke:#ffffff;stroke-width:0.77577;stroke-linecap:round;stroke-linejoin:round;stroke-miterlimit:10;stroke-dasharray:none" />

	</g>
</svg>
