<?xml version="1.0" encoding="UTF-8" standalone="no"?>
<!-- Created with Inkscape (http://www.inkscape.org/) -->

<svg
   width="48"
   height="48"
   viewBox="0 0 48 48"
   version="1.1"
   id="svg990"
   inkscape:version="1.2.1 (9c6d41e, 2022-07-14)"
   xml:space="preserve"
   sodipodi:docname="studentloan_connect.svg"
   xmlns:inkscape="http://www.inkscape.org/namespaces/inkscape"
   xmlns:sodipodi="http://sodipodi.sourceforge.net/DTD/sodipodi-0.dtd"
   xmlns="http://www.w3.org/2000/svg"
   xmlns:svg="http://www.w3.org/2000/svg"><sodipodi:namedview
     id="namedview992"
     pagecolor="#858585"
     bordercolor="#000000"
     borderopacity="0.25"
     inkscape:showpageshadow="2"
     inkscape:pageopacity="0"
     inkscape:pagecheckerboard="0"
     inkscape:deskcolor="#d1d1d1"
     inkscape:document-units="px"
     showgrid="false"
     inkscape:zoom="11"
     inkscape:cx="23.954545"
     inkscape:cy="45.818182"
     inkscape:window-width="1366"
     inkscape:window-height="737"
     inkscape:window-x="0"
     inkscape:window-y="0"
     inkscape:window-maximized="1"
     inkscape:current-layer="svg990"
     showguides="false" /><defs
     id="defs987"><style
   id="style1174">.a{fill:none;stroke:#fff;stroke-linecap:round;stroke-linejoin:round;}</style>
		
		
	
		
		
	
		
		
	</defs><g
     inkscape:groupmode="layer"
     id="layer2"
     inkscape:label="Layer 2"
     transform="matrix(0.90704374,0,0,0.90704374,2.1500177,3.8229088)"
     style="stroke-width:1.1002777;stroke-dasharray:none"><path
       style="fill:none;stroke:#fefefe;stroke-width:1.1002777;stroke-linecap:round;stroke-linejoin:round;stroke-dasharray:none;stroke-opacity:0.998582;stop-color:#000000"
       d="M 2.5895634,27.064005 8.7840993,15.489578 c 0.3330698,-0.622338 0.9579649,-1.151612 1.5551277,-1.151611 0.597162,10e-7 1.222057,0.529273 1.555127,1.151611 l 6.194536,11.574427"
       id="path18697"
       sodipodi:nodetypes="csssc" /><path
       style="fill:none;stroke:#fefefe;stroke-width:1.1002777;stroke-linecap:round;stroke-linejoin:round;stroke-dasharray:none;stroke-opacity:0.998582;stop-color:#000000"
       d="m 19.515915,19.805827 -2.926352,-5.46786 m 15.499327,0 -6.194536,11.574427 c -0.33307,0.622338 -0.957965,1.151612 -1.555128,1.151611 -0.597162,-1e-6 -1.222057,-0.529273 -1.555127,-1.151611 l -3.268184,-6.106567 h 6.261076"
       id="path18697-9"
       sodipodi:nodetypes="csssccc" /><path
       style="fill:none;stroke:#fefefe;stroke-width:1.1002777;stroke-linecap:round;stroke-linejoin:round;stroke-dasharray:none;stroke-opacity:0.998582;stop-color:#000000"
       d="m 33.807042,20.115106 -3.717479,6.948899 m 6.209414,-11.601176 c 0.33307,-0.622338 0.998424,-1.124863 1.567918,-1.124862 0.569494,-1e-6 1.194389,0.529273 1.527459,1.151611 L 45.58889,27.064005 M 40.347268,7.8897865 33.807042,20.115106 h 4.568036"
       id="path18697-9-3"
       sodipodi:nodetypes="ccccccsc" /><path
       id="path19348"
       style="fill:none;stroke:#ffffff;stroke-width:1.1002777;stroke-linecap:round;stroke-linejoin:round;stroke-dasharray:none;stroke-opacity:1;stop-color:#000000"
       d="M 12.295761,33.009423 9.5816231,35.860425 C 9.1183589,36.34705 8.4257967,36.6 7.6942999,36.6 c -1.5128352,0 -2.7392303,-1.203049 -2.7392298,-2.687083 3e-7,-1.484034 1.2263951,-2.687081 2.7392298,-2.687081 0.7437053,0 1.4181877,0.290738 1.911777,0.762669"
       sodipodi:nodetypes="cssssc" /><path
       id="path19348-6"
       style="fill:none;stroke:#ffffff;stroke-width:1.1002777;stroke-linecap:round;stroke-linejoin:round;stroke-dasharray:none;stroke-opacity:1;stop-color:#000000"
       d="m 8.647738,34.816413 2.714138,-2.851003 c 0.463264,-0.486624 1.155826,-0.739574 1.887322,-0.739574 1.512836,0 2.739231,1.203048 2.739231,2.687082 0,1.484035 -1.226396,2.687082 -2.739231,2.687082 -0.743704,0 -1.418186,-0.290738 -1.911776,-0.762669"
       sodipodi:nodetypes="cssssc" /><path
       class="st5"
       d="m 41.74493,29.6 v 6 c 0,0.6 0.4,1 1,1 h 0.3"
       id="path6138"
       style="fill:none;stroke:#ffffff;stroke-width:1.1002777;stroke-linecap:round;stroke-linejoin:round;stroke-miterlimit:10;stroke-dasharray:none" /><line
       class="st5"
       x1="40.644924"
       y1="31.199999"
       x2="42.844936"
       y2="31.199999"
       id="line6140"
       style="fill:none;stroke:#ffffff;stroke-width:1.1002777;stroke-linecap:round;stroke-linejoin:round;stroke-miterlimit:10;stroke-dasharray:none" /><path
       class="st5"
       d="m 39.127373,35.6 c -0.3,0.6 -1,1 -1.7,1 v 0 c -1.1,0 -2,-0.9 -2,-2 v -1.3 c 0,-1.1 0.9,-2 2,-2 v 0 c 0.7,0 1.4,0.4 1.7,1"
       id="path6154"
       style="fill:none;stroke:#ffffff;stroke-width:1.1002777;stroke-linecap:round;stroke-linejoin:round;stroke-miterlimit:10;stroke-dasharray:none" /><path
       class="st5"
       d="m 27.69227,36.6 v -3.3 c 0,-1.1 -0.9,-2 -2,-2 v 0 c -1.1,0 -2,0.9 -2,2"
       id="path6204"
       style="fill:none;stroke:#ffffff;stroke-width:1.1002777;stroke-linecap:round;stroke-linejoin:round;stroke-miterlimit:10;stroke-dasharray:none" /><line
       class="st5"
       x1="23.692272"
       y1="36.599998"
       x2="23.692272"
       y2="31.199999"
       id="line6206"
       style="fill:none;stroke:#ffffff;stroke-width:1.1002777;stroke-linecap:round;stroke-linejoin:round;stroke-miterlimit:10;stroke-dasharray:none" /><path
       class="st5"
       d="m 21.77472,36.6 v -3.3 c 0,-1.1 -0.9,-2 -2,-2 v 0 c -1.1,0 -2,0.9 -2,2"
       id="path6204-2"
       style="fill:none;stroke:#ffffff;stroke-width:1.1002777;stroke-linecap:round;stroke-linejoin:round;stroke-miterlimit:10;stroke-dasharray:none" /><line
       class="st5"
       x1="17.774723"
       y1="36.599998"
       x2="17.774723"
       y2="31.199999"
       id="line6206-9"
       style="fill:none;stroke:#ffffff;stroke-width:1.1002777;stroke-linecap:round;stroke-linejoin:round;stroke-miterlimit:10;stroke-dasharray:none" /><path
       class="st5"
       d="m 33.309822,35.6 c -0.3,0.6 -1,1 -1.7,1 v 0 c -1.1,0 -2,-0.9 -2,-2 v -1.3 c 0,-1.1 0.9,-2 2,-2 v 0 c 1.1,0 2,0.9 2,2 V 34 h -4"
       id="path6240"
       style="fill:none;stroke:#ffffff;stroke-width:1.1002777;stroke-linecap:round;stroke-linejoin:round;stroke-miterlimit:10;stroke-dasharray:none" /></g></svg>
