<?xml version="1.0" encoding="UTF-8" standalone="no"?>
<!-- Created with Inkscape (http://www.inkscape.org/) -->

<svg
   width="48"
   height="48"
   viewBox="0 0 48 48"
   version="1.1"
   id="svg990"
   inkscape:version="1.2.1 (9c6d41e, 2022-07-14)"
   xml:space="preserve"
   sodipodi:docname="tabii.svg"
   xmlns:inkscape="http://www.inkscape.org/namespaces/inkscape"
   xmlns:sodipodi="http://sodipodi.sourceforge.net/DTD/sodipodi-0.dtd"
   xmlns="http://www.w3.org/2000/svg"
   xmlns:svg="http://www.w3.org/2000/svg"><sodipodi:namedview
     id="namedview992"
     pagecolor="#858585"
     bordercolor="#000000"
     borderopacity="0.25"
     inkscape:showpageshadow="2"
     inkscape:pageopacity="0"
     inkscape:pagecheckerboard="0"
     inkscape:deskcolor="#d1d1d1"
     inkscape:document-units="px"
     showgrid="false"
     inkscape:zoom="11.645833"
     inkscape:cx="8.1144904"
     inkscape:cy="10.304115"
     inkscape:window-width="1366"
     inkscape:window-height="737"
     inkscape:window-x="0"
     inkscape:window-y="0"
     inkscape:window-maximized="1"
     inkscape:current-layer="svg990" /><defs
     id="defs987"><style
       id="style1174">.a{fill:none;stroke:#fff;stroke-linecap:round;stroke-linejoin:round;}</style></defs><g
     inkscape:groupmode="layer"
     id="layer2"
     inkscape:label="Layer 2"
     transform="matrix(1.1081333,0,0,1.1081333,-2.5951991,-2.5951991)"
     style="stroke-width:0.90241851;stroke-dasharray:none"><path
       sodipodi:type="star"
       style="fill:none;stroke:#ffffff;stroke-width:0.66663942;stroke-linecap:round;stroke-linejoin:round;stroke-dasharray:none;stroke-opacity:0.994137;stop-color:#000000"
       id="path23484"
       inkscape:flatsided="false"
       sodipodi:sides="8"
       sodipodi:cx="7.714551"
       sodipodi:cy="16.661638"
       sodipodi:r1="10.094448"
       sodipodi:r2="13.282168"
       sodipodi:arg1="-3.1415927"
       sodipodi:arg2="-2.7488936"
       inkscape:rounded="0"
       inkscape:randomized="0"
       d="M -2.3798971,16.661639 -4.5565727,11.578773 0.57669794,9.5237859 2.6316848,4.3905149 7.7145505,6.5671902 12.797416,4.3905146 l 2.054987,5.1332706 5.133271,2.0549868 -2.176675,5.082866 2.176676,5.082866 -5.133271,2.054987 -2.054987,5.133271 L 7.7145514,26.756086 2.6316855,28.932762 0.57669861,23.799491 -4.5565724,21.744504 Z"
       transform="matrix(1.3536656,0.00687996,-0.00687996,1.3536656,13.671709,1.3926376)" /><path
       id="path24676"
       style="fill:none;stroke:#ffffff;stroke-width:0.87199537;stroke-linecap:round;stroke-linejoin:round;stroke-dasharray:none;stroke-opacity:0.994137;stop-color:#000000"
       d="m 22.168304,20.990893 3.430949,1.353147 v 0 l -3.430948,1.353146"
       transform="matrix(1.0348891,0,0,1.0348891,5.8684326,0.87639664)" /><path
       id="path24751"
       style="fill:none;stroke:#ffffff;stroke-width:0.87199537;stroke-linecap:round;stroke-linejoin:round;stroke-dasharray:none;stroke-opacity:0.994137;stop-color:#000000"
       d="m 16.167153,17.696035 1.353147,-3.430948 1.353146,3.430948"
       transform="matrix(1.0348891,0,0,1.0348891,5.8684326,0.87639664)" /><path
       id="path24747"
       style="fill:none;stroke:#ffffff;stroke-width:0.87199537;stroke-linecap:round;stroke-linejoin:round;stroke-dasharray:none;stroke-opacity:0.994137;stop-color:#000000"
       d="M 12.872295,23.697185 9.4413471,22.34404 12.872295,20.990894"
       transform="matrix(1.0348891,0,0,1.0348891,5.8684326,0.87639664)" /><path
       id="path24743"
       style="fill:none;stroke:#ffffff;stroke-width:0.87199537;stroke-linecap:round;stroke-linejoin:round;stroke-dasharray:none;stroke-opacity:0.994137;stop-color:#000000"
       d="M 18.873445,26.992044 17.5203,30.422993 16.167154,26.992045"
       transform="matrix(1.0348891,0,0,1.0348891,5.8684326,0.87639664)" /><path
       id="path24676-3"
       style="display:inline;fill:none;stroke:#ffffff;stroke-width:0.69401271;stroke-linecap:round;stroke-linejoin:round;stroke-dasharray:none;stroke-opacity:0.994137;stop-color:#000000"
       d="m 20.898025,20.489902 4.701228,1.854138 v 0 l -4.701229,1.854137"
       transform="matrix(0.91944461,0.91944461,-0.91944461,0.91944461,28.435162,-12.653052)" /><path
       id="path254"
       style="display:inline;fill:none;stroke:#ffffff;stroke-width:0.69401271;stroke-linecap:round;stroke-linejoin:round;stroke-dasharray:none;stroke-opacity:0.994137;stop-color:#000000"
       d="m 15.666163,18.966315 1.854137,-4.701228 1.854137,4.701228"
       transform="matrix(0.91944461,0.91944461,-0.91944461,0.91944461,28.435162,-12.653052)" /><path
       id="path250"
       style="display:inline;fill:none;stroke:#ffffff;stroke-width:0.69401271;stroke-linecap:round;stroke-linejoin:round;stroke-dasharray:none;stroke-opacity:0.994137;stop-color:#000000"
       d="M 14.142576,24.198177 9.4413471,22.34404 14.142575,20.489902"
       transform="matrix(0.91944461,0.91944461,-0.91944461,0.91944461,28.435162,-12.653052)" /><path
       id="path246"
       style="display:inline;fill:none;stroke:#ffffff;stroke-width:0.69401271;stroke-linecap:round;stroke-linejoin:round;stroke-dasharray:none;stroke-opacity:0.994137;stop-color:#000000"
       d="M 19.374438,25.721765 17.5203,30.422993 15.666162,25.721764"
       transform="matrix(0.91944461,0.91944461,-0.91944461,0.91944461,28.435162,-12.653052)" /></g></svg>
