<?xml version="1.0" encoding="UTF-8" standalone="no"?>
<!-- Created with Inkscape (http://www.inkscape.org/) -->

<svg
   width="48"
   height="48"
   viewBox="0 0 48 48"
   version="1.1"
   id="svg990"
   inkscape:version="1.2.2 (b0a8486541, 2022-12-01)"
   xml:space="preserve"
   sodipodi:docname="thunder.svg"
   xmlns:inkscape="http://www.inkscape.org/namespaces/inkscape"
   xmlns:sodipodi="http://sodipodi.sourceforge.net/DTD/sodipodi-0.dtd"
   xmlns="http://www.w3.org/2000/svg"
   xmlns:svg="http://www.w3.org/2000/svg"><sodipodi:namedview
     id="namedview992"
     pagecolor="#858585"
     bordercolor="#000000"
     borderopacity="0.25"
     inkscape:showpageshadow="2"
     inkscape:pageopacity="0"
     inkscape:pagecheckerboard="0"
     inkscape:deskcolor="#d1d1d1"
     inkscape:document-units="px"
     showgrid="false"
     inkscape:zoom="11"
     inkscape:cx="16"
     inkscape:cy="24"
     inkscape:window-width="1366"
     inkscape:window-height="737"
     inkscape:window-x="0"
     inkscape:window-y="0"
     inkscape:window-maximized="1"
     inkscape:current-layer="svg990" /><defs
     id="defs987"><style
       id="style1174">.a{fill:none;stroke:#fff;stroke-linecap:round;stroke-linejoin:round;}</style></defs><path
     style="fill:none;stroke:#fff;stroke-width:1;stroke-linecap:round;stroke-linejoin:round;stroke-dasharray:none;stroke-opacity:1;stop-color:#000000"
     d="m 16.71187,40.631931 c 2.612202,-1.643095 4.385806,-7.227464 1.019915,-10.158554 L 9.8766398,41.991005 c -0.6335679,0.928973 -0.2961487,1.920048 1.6830182,0.998364 l 7.242856,-3.380504 12.304674,-5.728155 c 1.602132,-0.779583 2.264329,-2.696992 1.484747,-4.299123 L 25.802424,14.913712 C 24.986916,13.23775 26.282702,10.591451 28.667363,8.6455657 M 31.288129,7.3680689 C 28.675927,9.0111646 26.902323,14.595533 30.268214,17.526623 L 38.123359,6.0089954 c 0.63357,-0.9289729 0.29615,-1.9200479 -1.683016,-0.998364 l -7.242858,3.380504 -12.304674,5.7281536 c -1.602131,0.779584 -2.264329,2.696993 -1.484747,4.299123 l 6.789512,14.667875 c 0.815508,1.675963 -0.480279,4.322263 -2.86494,6.268148"
     id="path4143"
     sodipodi:nodetypes="ccsscccccccccccccc" /></svg>
