<?xml version="1.0" encoding="UTF-8" standalone="no"?>
<!-- Created with Inkscape (http://www.inkscape.org/) -->

<svg
   width="48"
   height="48"
   viewBox="0 0 48 48"
   version="1.1"
   id="svg990"
   inkscape:version="1.2.1 (9c6d41e, 2022-07-14)"
   xml:space="preserve"
   sodipodi:docname="thunder.svg"
   xmlns:inkscape="http://www.inkscape.org/namespaces/inkscape"
   xmlns:sodipodi="http://sodipodi.sourceforge.net/DTD/sodipodi-0.dtd"
   xmlns="http://www.w3.org/2000/svg"
   xmlns:svg="http://www.w3.org/2000/svg"><sodipodi:namedview
     id="namedview992"
     pagecolor="#858585"
     bordercolor="#000000"
     borderopacity="0.25"
     inkscape:showpageshadow="2"
     inkscape:pageopacity="0"
     inkscape:pagecheckerboard="0"
     inkscape:deskcolor="#d1d1d1"
     inkscape:document-units="px"
     showgrid="false"
     inkscape:zoom="11"
     inkscape:cx="23.681818"
     inkscape:cy="24"
     inkscape:window-width="1366"
     inkscape:window-height="737"
     inkscape:window-x="0"
     inkscape:window-y="0"
     inkscape:window-maximized="1"
     inkscape:current-layer="svg990" /><defs
     id="defs987"><style
       id="style1174">.a{fill:none;stroke:#fff;stroke-linecap:round;stroke-linejoin:round;}</style></defs><g
     inkscape:groupmode="layer"
     id="layer2"
     inkscape:label="Layer 2"
     transform="matrix(1.2864505,0,0,1.2864505,-7.0216234,-6.8335213)"
     style="stroke-width:0.777333;stroke-dasharray:none;stroke:#ffffff;stroke-opacity:1"><path
       style="fill:none;stroke:#ffffff;stroke-width:0.777333;stroke-linecap:round;stroke-linejoin:round;stroke-dasharray:none;stroke-opacity:1;stop-color:#000000"
       d="m 18.44882,36.896447 c 2.03055,-1.277232 3.40923,-5.618144 0.792813,-7.896576 l -6.106061,8.953028 c -0.492493,0.722121 -0.230206,1.492516 1.308265,0.776061 l 5.630109,-2.627776 9.564825,-4.452682 c 1.245389,-0.605995 1.760137,-2.09646 1.154142,-3.341849 L 25.515204,16.904835 C 24.881283,15.602055 25.88854,13.545 27.742215,12.0324 m 2.037207,-0.99304 c -2.03055,1.277232 -3.40923,5.618144 -0.792813,7.896576 L 35.09267,9.9829078 c 0.492494,-0.722121 0.230207,-1.492516 -1.308264,-0.776061 l -5.63011,2.6277762 -9.564825,4.452681 c -1.245389,0.605996 -1.760137,2.096461 -1.154142,3.341849 l 5.277709,11.401818 c 0.633921,1.302781 -0.373336,3.359836 -2.227011,4.872436"
       id="path4143"
       sodipodi:nodetypes="ccsscccccccccccccc" /></g></svg>
