<?xml version="1.0" encoding="UTF-8" standalone="no"?>
<!-- Created with Inkscape (http://www.inkscape.org/) -->

<svg
   width="48"
   height="48"
   viewBox="0 0 48 48"
   version="1.1"
   id="svg990"
   inkscape:version="1.2.1 (9c6d41e, 2022-07-14)"
   xml:space="preserve"
   sodipodi:docname="tsuki_adventure.svg"
   xmlns:inkscape="http://www.inkscape.org/namespaces/inkscape"
   xmlns:sodipodi="http://sodipodi.sourceforge.net/DTD/sodipodi-0.dtd"
   xmlns="http://www.w3.org/2000/svg"
   xmlns:svg="http://www.w3.org/2000/svg"><sodipodi:namedview
     id="namedview992"
     pagecolor="#858585"
     bordercolor="#000000"
     borderopacity="0.25"
     inkscape:showpageshadow="2"
     inkscape:pageopacity="0"
     inkscape:pagecheckerboard="0"
     inkscape:deskcolor="#d1d1d1"
     inkscape:document-units="px"
     showgrid="false"
     inkscape:zoom="11.313708"
     inkscape:cx="31.775611"
     inkscape:cy="33.852737"
     inkscape:window-width="1366"
     inkscape:window-height="737"
     inkscape:window-x="0"
     inkscape:window-y="0"
     inkscape:window-maximized="1"
     inkscape:current-layer="layer2" /><defs
     id="defs987"><style
       id="style1174">.a{fill:none;stroke:#fff;stroke-linecap:round;stroke-linejoin:round;}</style></defs><g
     inkscape:groupmode="layer"
     id="layer2"
     inkscape:label="Layer 2"
     style="stroke:#ffffff;stroke-opacity:1"><path
       class="a"
       d="m 40.5,5.4999999 h -33 a 2,2 0 0 0 -1.9999999,2 V 40.5 A 2,2 0 0 0 7.5,42.5 h 33 a 2,2 0 0 0 2,-2 V 7.4999999 a 2,2 0 0 0 -2,-2 z"
       id="path1178"
       inkscape:label="references"
       style="display:inline" /><path
       style="fill:none;stroke:#ffffff;stroke-width:1;stroke-linecap:round;stroke-linejoin:round;stroke-dasharray:none;stroke-opacity:1;stop-color:#000000"
       d="m 17.196865,19.28346 c -0.441855,-1.227921 -8.0270106,-5.407736 -4.325513,-8.933634 2.881452,-2.7447564 8.321261,4.868399 8.960336,7.021858"
       id="path1533"
       sodipodi:nodetypes="csc" /><path
       style="fill:none;stroke:#ffffff;stroke-width:1;stroke-linecap:round;stroke-linejoin:round;stroke-dasharray:none;stroke-opacity:1;stop-color:#000000"
       d="m 14.00655,12.479497 c 2.566151,1.374902 4.059624,3.538695 5.038811,5.287648"
       id="path2865"
       sodipodi:nodetypes="cc" /><path
       style="fill:none;stroke:#ffffff;stroke-width:1;stroke-linecap:round;stroke-linejoin:round;stroke-dasharray:none;stroke-opacity:1;stop-color:#000000"
       d="M 23.042769,12.808809 C 19.945564,9.8663085 21.456157,7.0718662 23.342516,6.6726167 26.544607,5.9948913 30.17575,14.298594 29.960415,15.25326"
       id="path2869"
       sodipodi:nodetypes="csc" /><path
       id="path2883"
       style="fill:none;stroke:#ffffff;stroke-width:1;stroke-linecap:round;stroke-linejoin:round;stroke-dasharray:none;stroke-opacity:1;stop-color:#000000"
       d="M 26.793528 30.186067 C 24.721047 30.215145 22.591347 29.572728 20.565401 28.572269 C 16.324227 27.274968 13.309928 21.807831 15.360593 17.694118 " /><path
       id="path2981"
       style="fill:none;stroke:#ffffff;stroke-width:1;stroke-linecap:round;stroke-linejoin:round;stroke-dasharray:none;stroke-opacity:1;stop-color:#000000"
       d="M 20.204891 13.838547 C 28.022939 9.4371382 36.289617 20.913979 32.853987 27.602363 C 31.338675 29.090151 29.661913 29.858858 27.92257 30.101001 " /><path
       id="path2979"
       style="fill:none;stroke:#ffffff;stroke-width:1;stroke-linecap:round;stroke-linejoin:round;stroke-dasharray:none;stroke-opacity:1;stop-color:#000000"
       d="M 25.608279 30.629586 C 17.68242 32.519004 13.974996 28.864558 12.495417 25.37295 C 13.223503 22.823677 13.789198 22.600301 14.627155 21.392879 " /><path
       style="fill:none;stroke:#ffffff;stroke-width:1;stroke-linecap:round;stroke-linejoin:round;stroke-dasharray:none;stroke-opacity:1;stop-color:#000000"
       d="M 12.798099,26.318183 C 9.7689638,29.279787 6.1033931,28.295278 5.8029646,28.151484"
       id="path2885"
       sodipodi:nodetypes="cc" /><path
       style="fill:none;stroke:#ffffff;stroke-width:1;stroke-linecap:round;stroke-linejoin:round;stroke-dasharray:none;stroke-opacity:1;stop-color:#000000"
       d="m 5.4969938,21.483229 c 2.5436024,0.89433 5.5833842,2.260185 8.7611752,0.339998"
       id="path2893"
       sodipodi:nodetypes="cc" /><path
       style="fill:none;stroke:#ffffff;stroke-width:1;stroke-linecap:round;stroke-linejoin:round;stroke-dasharray:none;stroke-opacity:1;stop-color:#000000"
       d="m 24.635307,34.919885 c -0.712385,-0.806379 -3.521736,-1.048686 -5.360172,2.092581 -1.431632,2.445143 0.532701,6.581999 5.128934,3.507326 1.171334,-0.783571 2.048236,-3.543167 0.231238,-5.599907 z"
       id="path2895"
       sodipodi:nodetypes="scss" /><path
       style="fill:none;stroke:#ffffff;stroke-width:1;stroke-linecap:round;stroke-linejoin:round;stroke-dasharray:none;stroke-opacity:1;stop-color:#000000"
       d="M 18.708928,39.924151 C 16.193997,39.67853 10.555708,36.929629 12.246858,26.892876"
       id="path2897"
       sodipodi:nodetypes="cc" /><path
       style="fill:none;stroke:#ffffff;stroke-width:1;stroke-linecap:round;stroke-linejoin:round;stroke-dasharray:none;stroke-opacity:1;stop-color:#000000"
       d="M 12.708979,35.127207 C 8.4571693,35.886128 9.1170009,30.936704 11.867787,31.430098"
       id="path2916"
       sodipodi:nodetypes="cc" /><path
       style="fill:none;stroke:#ffffff;stroke-width:1;stroke-linecap:round;stroke-linejoin:round;stroke-dasharray:none;stroke-opacity:1;stop-color:#000000"
       d="m 24.931622,24.222105 0.25655,1.200105"
       id="path2920" /><path
       style="fill:none;stroke:#ffffff;stroke-width:1;stroke-linecap:round;stroke-linejoin:round;stroke-dasharray:none;stroke-opacity:1;stop-color:#000000"
       d="m 30.944903,26.016427 c 0.372471,-0.04446 0.580882,-0.01453 0.883465,-0.367837"
       id="path2922"
       sodipodi:nodetypes="cc" /><path
       style="fill:none;stroke:#ffffff;stroke-width:1;stroke-linecap:round;stroke-linejoin:round;stroke-dasharray:none;stroke-opacity:1;stop-color:#000000"
       d="m 28.794739,35.229763 c 4.92119,-4.158271 -0.994803,-6.546137 -3.698744,-4.2409"
       id="path2944"
       sodipodi:nodetypes="cc" /><path
       style="fill:none;stroke:#ffffff;stroke-width:1;stroke-linecap:round;stroke-linejoin:round;stroke-dasharray:none;stroke-opacity:1;stop-color:#000000"
       d="m 42.340653,18.166721 c -0.617739,1.203631 -1.796946,2.171598 -2.776085,2.937872 -3.371711,2.495147 -6.355343,6.33789 -9.592659,9.576882"
       id="path3043"
       sodipodi:nodetypes="ccc" /><path
       style="fill:none;stroke:#ffffff;stroke-width:1;stroke-linecap:round;stroke-linejoin:round;stroke-dasharray:none;stroke-opacity:1;stop-color:#000000"
       d="m 30.777899,32.195446 4.324657,-3.737188 c 1.492505,0.05835 2.813684,-1.002319 1.543055,-1.751227 1.223635,-2.35971 3.502139,-3.904665 5.588245,-5.598224"
       id="path3045"
       sodipodi:nodetypes="cccc" /><path
       style="fill:none;stroke:#ffffff;stroke-width:1;stroke-linecap:round;stroke-linejoin:round;stroke-dasharray:none;stroke-opacity:1;stop-color:#000000"
       d="m 33.974432,29.628197 c 0.656318,1.502982 0.0963,5.820404 -3.5173,4.11174"
       id="path3071"
       sodipodi:nodetypes="cc" /><path
       style="fill:none;stroke:#ffffff;stroke-width:1;stroke-linecap:round;stroke-linejoin:round;stroke-dasharray:none;stroke-opacity:1;stop-color:#000000"
       d="m 32.360861,34.315344 c -0.798792,3.58584 -4.596486,4.928607 -6.715937,5.006475"
       id="path3098"
       sodipodi:nodetypes="cc" /><path
       style="fill:none;stroke:#ffffff;stroke-width:1;stroke-linecap:round;stroke-linejoin:round;stroke-dasharray:none;stroke-opacity:1;stop-color:#000000"
       d="m 30.173689,38.049011 c 3.125468,0.872767 6.691404,-2.914705 4.32102,-6.064821"
       id="path3100"
       sodipodi:nodetypes="cc" /><path
       style="fill:none;stroke:#ffffff;stroke-width:1;stroke-linecap:round;stroke-linejoin:round;stroke-dasharray:none;stroke-opacity:1;stop-color:#000000"
       d="M 42.323639,35.186647 28.755688,42.378613"
       id="path3129"
       sodipodi:nodetypes="cc" /><path
       style="fill:none;stroke:#ffffff;stroke-width:1;stroke-linecap:round;stroke-linejoin:round;stroke-dasharray:none;stroke-opacity:1;stop-color:#000000"
       d="m 42.268116,38.238179 -7.55597,4.073063"
       id="path3131"
       sodipodi:nodetypes="cc" /><path
       style="fill:none;stroke:#ffffff;stroke-width:1;stroke-linecap:round;stroke-linejoin:round;stroke-dasharray:none;stroke-opacity:1;stop-color:#000000"
       d="M 18.048373,5.5525828 5.7707653,11.592491"
       id="path3162"
       sodipodi:nodetypes="cc" /></g></svg>
