<?xml version="1.0" encoding="UTF-8" standalone="no"?>
<!-- Created with Inkscape (http://www.inkscape.org/) -->

<svg
   width="48"
   height="48"
   viewBox="0 0 48 48"
   version="1.1"
   id="svg990"
   inkscape:version="1.2.1 (9c6d41e, 2022-07-14)"
   xml:space="preserve"
   sodipodi:docname="tsuki_adventure_2.svg"
   xmlns:inkscape="http://www.inkscape.org/namespaces/inkscape"
   xmlns:sodipodi="http://sodipodi.sourceforge.net/DTD/sodipodi-0.dtd"
   xmlns="http://www.w3.org/2000/svg"
   xmlns:svg="http://www.w3.org/2000/svg"><sodipodi:namedview
     id="namedview992"
     pagecolor="#858585"
     bordercolor="#000000"
     borderopacity="0.25"
     inkscape:showpageshadow="2"
     inkscape:pageopacity="0"
     inkscape:pagecheckerboard="0"
     inkscape:deskcolor="#d1d1d1"
     inkscape:document-units="px"
     showgrid="false"
     inkscape:zoom="11"
     inkscape:cx="13.681818"
     inkscape:cy="24"
     inkscape:window-width="1366"
     inkscape:window-height="737"
     inkscape:window-x="0"
     inkscape:window-y="0"
     inkscape:window-maximized="1"
     inkscape:current-layer="layer2" /><defs
     id="defs987"><style
       id="style1174">.a{fill:none;stroke:#fff;stroke-linecap:round;stroke-linejoin:round;}</style></defs><g
     inkscape:groupmode="layer"
     id="layer2"
     inkscape:label="Layer 2"><path
       class="a"
       d="m 40.5,5.4999999 h -33 a 2,2 0 0 0 -1.9999999,2 V 40.5 A 2,2 0 0 0 7.5,42.5 h 33 a 2,2 0 0 0 2,-2 V 7.4999999 a 2,2 0 0 0 -2,-2 z"
       id="path1178"
       inkscape:label="references"
       style="stroke:#ffffff;stroke-opacity:0.99609303" /><path
       style="fill:none;stroke:#ffffff;stroke-width:1;stroke-linecap:round;stroke-linejoin:round;stroke-dasharray:none;stroke-opacity:0.996093;stop-color:#000000"
       d="m 11.706298,24.799511 c 2.307229,-0.368876 2.634067,8.728923 0.604534,7.838975 -1.59099,-0.697648 -2.7352217,-1.52306 -2.6017636,-3.774432 0.1382841,-2.051668 0.7496836,-3.699463 1.9972296,-4.064543 z"
       id="path401"
       sodipodi:nodetypes="cscc" /><path
       style="fill:none;stroke:#ffffff;stroke-width:1;stroke-linecap:round;stroke-linejoin:round;stroke-dasharray:none;stroke-opacity:0.996093;stop-color:#000000"
       d="m 9.479049,29.13461 c -0.4513939,0.636456 -1.2373875,1.706781 -1.5869005,2.577604 0.085773,1.533167 1.7625224,0.709125 2.6012315,0.229507"
       id="path1161"
       sodipodi:nodetypes="ccc" /><path
       style="fill:none;stroke:#ffffff;stroke-width:1;stroke-linecap:round;stroke-linejoin:round;stroke-dasharray:none;stroke-opacity:0.996093;stop-color:#000000"
       d="M 10.670123,19.213279 C 10.425585,21.96976 9.988529,24.67505 9.9854913,27.244005"
       id="path1163"
       sodipodi:nodetypes="cc" /><path
       style="fill:none;stroke:#ffffff;stroke-width:1;stroke-linecap:round;stroke-linejoin:round;stroke-dasharray:none;stroke-opacity:0.996093;stop-color:#000000"
       d="m 10.587767,33.324554 c -0.56909,1.493441 -0.8614291,5.878947 -0.495867,8.863215"
       id="path1171"
       sodipodi:nodetypes="cc" /><path
       style="fill:none;stroke:#ffffff;stroke-width:1;stroke-linecap:round;stroke-linejoin:round;stroke-dasharray:none;stroke-opacity:0.996093;stop-color:#000000"
       d="m 37.517215,32.901388 c 0.512371,2.860384 0.228911,6.191708 0.229762,9.354788"
       id="path1225"
       sodipodi:nodetypes="cc" /><path
       style="fill:none;stroke:#ffffff;stroke-width:1;stroke-linecap:round;stroke-linejoin:round;stroke-dasharray:none;stroke-opacity:0.996093;stop-color:#000000"
       d="m 35.438052,34.922563 c -0.432422,1.726419 -3.528432,1.275481 -4.058413,1.021546 -0.206365,-1.047137 1.061149,-1.325425 2.200842,-1.431992 1.434945,-0.275008 1.898897,0.245451 1.857571,0.410446 z"
       id="path1292"
       sodipodi:nodetypes="sccs" /><path
       style="fill:none;stroke:#ffffff;stroke-width:1;stroke-linecap:round;stroke-linejoin:round;stroke-dasharray:none;stroke-opacity:0.996093;stop-color:#000000"
       d="m 19.727447,29.915963 c -5.045286,-1.126341 -4.618952,-3.857187 -4.131916,-4.82062 1.786538,-2.224294 6.75316,2.688094 7.232114,2.988135"
       id="path1311"
       sodipodi:nodetypes="ccc" /><path
       style="fill:none;stroke:#ffffff;stroke-width:1;stroke-linecap:round;stroke-linejoin:round;stroke-dasharray:none;stroke-opacity:0.996093;stop-color:#000000"
       d="m 16.58173,28.776113 0.0574,2.078297"
       id="path1313" /><path
       style="fill:none;stroke:#ffffff;stroke-width:1;stroke-linecap:round;stroke-linejoin:round;stroke-dasharray:none;stroke-opacity:0.996093;stop-color:#000000"
       d="m 15.206067,25.889751 c -0.926182,-0.314067 -0.962864,1.56137 -1.321131,2.59854"
       id="path1315"
       sodipodi:nodetypes="cc" /><path
       style="fill:none;stroke:#ffffff;stroke-width:1;stroke-linecap:round;stroke-linejoin:round;stroke-dasharray:none;stroke-opacity:0.996093;stop-color:#000000"
       d="m 32.80551,15.822846 c 2.347464,-1.584021 6.876059,-4.762599 6.256046,-7.2667894 -0.94332,-2.0213646 -9.763199,0.6736453 -10.798753,5.5368154 -2.010122,-1.713261 -10.703682,0.837351 -10.89775,5.954596 -1.089142,4.548211 6.456267,8.052747 14.742988,4.490846 1.438356,-0.871327 3.689546,-5.09896 0.697469,-8.715468 z"
       id="path1337"
       sodipodi:nodetypes="cccccc" /><path
       style="fill:none;stroke:#ffffff;stroke-width:1;stroke-linecap:round;stroke-linejoin:round;stroke-dasharray:none;stroke-opacity:0.996093;stop-color:#000000"
       d="m 21.974857,18.682165 v 0.64697"
       id="path1341" /><path
       style="fill:none;stroke:#ffffff;stroke-width:1;stroke-linecap:round;stroke-linejoin:round;stroke-dasharray:none;stroke-opacity:0.996093;stop-color:#000000"
       d="m 17.407261,20.216595 0.869273,-0.07385"
       id="path1345" /><path
       style="fill:none;stroke:#ffffff;stroke-width:1;stroke-linecap:round;stroke-linejoin:round;stroke-dasharray:none;stroke-opacity:0.996093;stop-color:#000000"
       d="m 30.321492,14.356578 c 0.771594,-1.964306 5.149856,-4.6131069 5.798019,-4.169266"
       id="path1370"
       sodipodi:nodetypes="cc" /><path
       style="fill:none;stroke:#ffffff;stroke-width:1;stroke-linecap:round;stroke-linejoin:round;stroke-dasharray:none;stroke-opacity:0.996093;stop-color:#000000"
       d="m 22.555905,27.727279 c 3.536641,0.309261 7.247199,0.267153 11.243226,-1.969007 0.839596,-0.586358 0.140516,-1.86866 -0.322731,-2.362795"
       id="path1396"
       sodipodi:nodetypes="ccc" /><path
       style="fill:none;stroke:#ffffff;stroke-width:1;stroke-linecap:round;stroke-linejoin:round;stroke-dasharray:none;stroke-opacity:0.996093;stop-color:#000000"
       d="m 29.612409,27.439792 c 1.102143,1.469727 2.405985,2.556217 4.612769,2.057728 0.970757,-0.219284 2.029687,0.88825 2.814668,1.52987 l 1.91344,-2.260329 c -0.585263,-0.166133 -1.286225,-0.236756 -2.513114,-1.064685 -0.383189,-0.258583 -0.80652,-0.425274 -1.63921,-0.278069 -0.937849,0.165794 -1.733872,0.04615 -2.289996,-0.938062"
       id="path1423"
       sodipodi:nodetypes="csccssc" /><path
       style="fill:none;stroke:#ffffff;stroke-width:1;stroke-linecap:round;stroke-linejoin:round;stroke-dasharray:none;stroke-opacity:0.996093;stop-color:#000000"
       d="m 34.162795,25.718463 c 0.722583,0.598739 0.859273,0.982755 1.069172,1.581494"
       id="path1451"
       sodipodi:nodetypes="cc" /><path
       id="path967"
       style="fill:none;stroke:#ffffff;stroke-width:1;stroke-linecap:round;stroke-linejoin:round;stroke-dasharray:none;stroke-opacity:0.996093;stop-color:#000000"
       d="M 10.475856 19.680252 C 8.8619155 18.96398 7.038697 21.834129 5.4956447 24.585055 " /><path
       id="path963"
       style="fill:none;stroke:#ffffff;stroke-width:1;stroke-linecap:round;stroke-linejoin:round;stroke-dasharray:none;stroke-opacity:0.996093;stop-color:#000000"
       d="M 7.8181446 31.08636 L 5.499255 31.511313 " /><path
       id="path959"
       style="fill:none;stroke:#ffffff;stroke-width:1;stroke-linecap:round;stroke-linejoin:round;stroke-dasharray:none;stroke-opacity:0.996093;stop-color:#000000"
       d="M 13.861697 31.265169 C 18.057938 30.461443 30.935054 31.141336 39.897351 31.119739 L 42.500474 31.105199 " /><path
       id="path955"
       style="fill:none;stroke:#ffffff;stroke-width:1;stroke-linecap:round;stroke-linejoin:round;stroke-dasharray:none;stroke-opacity:0.996093;stop-color:#000000"
       d="M 40.095945 30.989937 C 39.936024 29.504315 40.860078 29.361761 41.490248 29.247047 C 41.090128 28.176966 41.759922 27.7617 42.49792 27.597684 " /></g></svg>
