<?xml version="1.0" encoding="UTF-8" standalone="no"?>
<!-- Created with Inkscape (http://www.inkscape.org/) -->

<svg
   width="48"
   height="48"
   viewBox="0 0 48 48"
   version="1.1"
   id="svg990"
   inkscape:version="1.2.1 (9c6d41e, 2022-07-14)"
   xml:space="preserve"
   sodipodi:docname="valkyrie_connect.svg"
   xmlns:inkscape="http://www.inkscape.org/namespaces/inkscape"
   xmlns:sodipodi="http://sodipodi.sourceforge.net/DTD/sodipodi-0.dtd"
   xmlns="http://www.w3.org/2000/svg"
   xmlns:svg="http://www.w3.org/2000/svg"><sodipodi:namedview
     id="namedview992"
     pagecolor="#858585"
     bordercolor="#000000"
     borderopacity="0.25"
     inkscape:showpageshadow="2"
     inkscape:pageopacity="0"
     inkscape:pagecheckerboard="0"
     inkscape:deskcolor="#d1d1d1"
     inkscape:document-units="px"
     showgrid="false"
     inkscape:zoom="8"
     inkscape:cx="34.9375"
     inkscape:cy="24"
     inkscape:window-width="1366"
     inkscape:window-height="737"
     inkscape:window-x="0"
     inkscape:window-y="0"
     inkscape:window-maximized="1"
     inkscape:current-layer="svg990" /><defs
     id="defs987"><style
       id="style1174">.a{fill:none;stroke:#fff;stroke-linecap:round;stroke-linejoin:round;}</style></defs><g
     inkscape:groupmode="layer"
     id="layer2"
     inkscape:label="Layer 2"
     style="display:inline;stroke-width:1.18381859;stroke-dasharray:none"
     transform="matrix(0.84472402,0,0,0.84472402,2.4869127,3.506232)"><path
       style="fill:none;fill-opacity:1;stroke:#ffffff;stroke-linecap:round;stroke-linejoin:round;stroke-opacity:1;stop-color:#000000;stroke-width:1.18381859;stroke-dasharray:none"
       d="m 19.129326,18.354696 c 5.144083,6.143172 12.227084,4.710373 15.795605,4.406874 -12.196049,8.29737 -18.851941,-2.199517 -18.558232,-9.308047 -0.202902,-1.635948 0.103185,-3.090892 0.898272,-3.5278168 3.499101,-1.9228663 5.585987,3.8156288 10.210213,7.3998648 3.159862,2.375177 3.759435,0.639357 5.498615,0.96778 -0.870708,2.096642 -8.045015,4.380422 -16.6071,-4.839828"
       id="path11588"
       sodipodi:nodetypes="cccsccc" /><path
       style="fill:none;fill-opacity:1;stroke:#ffffff;stroke-linecap:round;stroke-linejoin:round;stroke-opacity:1;stop-color:#000000;stroke-width:1.18381859;stroke-dasharray:none"
       d="m 26.337184,20.030574 2.095657,2.990583"
       id="path13033" /><path
       style="fill:none;fill-opacity:1;stroke:#ffffff;stroke-linecap:round;stroke-linejoin:round;stroke-opacity:1;stop-color:#000000;stroke-width:1.18381859;stroke-dasharray:none"
       d="m 23.876597,25.654931 c 0.472883,2.652357 -2.178227,3.56897 -4.377919,4.736397 3.452493,1.224447 9.604191,0.806262 9.481718,-4.707368"
       id="path13035"
       sodipodi:nodetypes="ccc" /><path
       style="fill:none;fill-opacity:1;stroke:#ffffff;stroke-linecap:round;stroke-linejoin:round;stroke-opacity:1;stop-color:#000000;stroke-width:1.18381859;stroke-dasharray:none"
       d="m 32.346704,12.518759 c 2.214214,-1.353226 4.964843,-2.9059052 5.661337,-1.418326 0.298903,0.638402 -1.038415,3.50711 -6.694326,3.608143 4.201577,0.576975 0.523578,3.478489 -3.147671,2.833584"
       id="path13040"
       sodipodi:nodetypes="cscc" /><path
       style="fill:none;fill-opacity:1;stroke:#ffffff;stroke-linecap:round;stroke-linejoin:round;stroke-opacity:1;stop-color:#000000;stroke-width:1.18381859;stroke-dasharray:none"
       d="m 28.810815,12.290084 c 1.801667,0.360067 0.731539,2.994332 -2.07975,3.991025"
       id="path13042"
       sodipodi:nodetypes="cc" /><path
       style="fill:none;fill-opacity:1;stroke:#ffffff;stroke-linecap:round;stroke-linejoin:round;stroke-opacity:1;stop-color:#000000;stroke-width:1.18381859;stroke-dasharray:none"
       d="M 24.49276,14.146642 C 28.458512,6.9716727 41.613362,1.6324555 41.869841,3.2214756 42.216968,5.372106 38.797709,8.5313054 34.448621,11.296488"
       id="path13044"
       sodipodi:nodetypes="csc" /><path
       style="display:inline;fill:none;fill-opacity:1;stroke:#ffffff;stroke-linecap:round;stroke-linejoin:round;stroke-opacity:1;stop-color:#000000;stroke-width:1.18381859;stroke-dasharray:none"
       d="M 16.217313,12.1954 C 13.822045,12.25992 11.990731,6.2724822 16.167933,4.8024063 15.648849,6.7036782 15.041429,8.5120752 16.217313,12.1954 Z"
       id="path13060"
       sodipodi:nodetypes="ccc" /><path
       style="fill:none;fill-opacity:1;stroke:#ffffff;stroke-linecap:round;stroke-linejoin:round;stroke-opacity:1;stop-color:#000000;stroke-width:1.18381859;stroke-dasharray:none"
       d="M 15.7683,9.0576744 C 18.985808,6.3507508 24.097113,5.5713271 29.735401,8.3914375"
       id="path13062"
       sodipodi:nodetypes="cc" /><path
       style="display:inline;fill:none;fill-opacity:1;stroke:#ffffff;stroke-linecap:round;stroke-linejoin:round;stroke-opacity:1;stop-color:#000000;stroke-width:1.18381859;stroke-dasharray:none"
       d="m 15.605081,12.10192 c -1.671988,-0.591489 -5.148966,1.296643 -5.6263357,5.094971 -0.2986158,2.37602 -1.1184365,3.641271 -2.5173337,5.158728 2.2413047,-0.144566 3.0226144,0.04483 5.3841074,-4.35833 1.985892,-3.702827 2.393218,-2.715181 3.141849,-3.451792"
       id="path13064"
       sodipodi:nodetypes="cscsc" /><path
       style="display:inline;fill:none;fill-opacity:1;stroke:#ffffff;stroke-linecap:round;stroke-linejoin:round;stroke-opacity:1;stop-color:#000000;stroke-width:1.18381859;stroke-dasharray:none"
       d="m 10.956514,21.80543 c 0.03107,1.17789 0.130954,2.00384 -0.634217,4.049485 -0.6919683,1.849943 0.838928,2.964699 1.377955,4.394899 -4.5299699,1.054608 -5.7535511,-2.874549 -2.7983349,-7.823988"
       id="path13083"
       sodipodi:nodetypes="cscc" /><path
       style="fill:none;fill-opacity:1;stroke:#ffffff;stroke-linecap:round;stroke-linejoin:round;stroke-opacity:1;stop-color:#000000;stroke-width:1.18381859;stroke-dasharray:none"
       d="M 13.816642,11.988649 C 10.642971,8.5424616 10.89729,1.7849335 12.287389,1.3004718 c 2.000178,-0.69707981 2.341188,2.288948 2.739508,3.9782562"
       id="path13085"
       sodipodi:nodetypes="csc" /><path
       style="fill:none;fill-opacity:1;stroke:#ffffff;stroke-linecap:round;stroke-linejoin:round;stroke-opacity:1;stop-color:#000000;stroke-width:1.18381859;stroke-dasharray:none"
       d="m 12.638366,10.334305 c -2.023571,0.442264 -6.2481478,3.386661 -5.4823601,7.763077 0.7671139,4.383994 -2.4295916,4.969043 -4.8647898,5.090331 0.2578262,2.680167 3.1304848,2.982421 4.9096312,3.012426"
       id="path13106"
       sodipodi:nodetypes="cscc" /><path
       style="fill:none;fill-opacity:1;stroke:#ffffff;stroke-linecap:round;stroke-linejoin:round;stroke-opacity:1;stop-color:#000000;stroke-width:1.18381859;stroke-dasharray:none"
       d="m 13.335447,17.644535 c 1.482627,0.648698 2.696677,0.57487 3.668808,0.337144"
       id="path13180"
       sodipodi:nodetypes="cc" /><path
       style="fill:none;fill-opacity:1;stroke:#ffffff;stroke-linecap:round;stroke-linejoin:round;stroke-opacity:1;stop-color:#000000;stroke-width:1.18381859;stroke-dasharray:none"
       d="m 12.023358,20.208838 c 0.525671,-0.154395 1.581801,0.04333 2.111003,0.791622 0.586906,0.829891 2.247479,0.763899 2.791387,0.01219 0.291101,-0.402316 0.679995,-0.501461 1.073158,-0.56923"
       id="path13182"
       sodipodi:nodetypes="cssc" /><path
       style="fill:none;fill-opacity:1;stroke:#ffffff;stroke-linecap:round;stroke-linejoin:round;stroke-opacity:1;stop-color:#000000;stroke-width:1.18381859;stroke-dasharray:none"
       d="m 34.966805,14.47984 c 2.239728,3.258206 2.896564,7.20729 3.776704,8.857375 2.175559,4.078735 6.131331,4.336001 9.900568,5.159878 -6.862909,2.963713 -11.911567,1.02692 -14.965797,-4.375584"
       id="path13206"
       sodipodi:nodetypes="cscc" /><path
       style="fill:none;fill-opacity:1;stroke:#ffffff;stroke-linecap:round;stroke-linejoin:round;stroke-opacity:1;stop-color:#000000;stroke-width:1.18381859;stroke-dasharray:none"
       d="M 32.892887,22.868984 C 32.459972,21.920917 32.053102,20.934146 31.730228,19.82255"
       id="path13208"
       sodipodi:nodetypes="cc" /><path
       style="fill:none;fill-opacity:1;stroke:#ffffff;stroke-linecap:round;stroke-linejoin:round;stroke-opacity:1;stop-color:#000000;stroke-width:1.18381859;stroke-dasharray:none"
       d="m 31.323818,24.855926 c 9.932503,6.148862 4.035874,17.149711 0.112366,20.678887 7.382087,0.571522 15.829296,-5.171184 6.915726,-16.350971"
       id="path13234"
       sodipodi:nodetypes="ccc" /><path
       style="fill:none;fill-opacity:1;stroke:#ffffff;stroke-linecap:round;stroke-linejoin:round;stroke-opacity:1;stop-color:#000000;stroke-width:1.18381859;stroke-dasharray:none"
       d="m 29.242008,25.424873 c 0.665346,4.482628 1.847124,10.688797 -4.580787,12.005204 -8.459018,1.732369 -11.93974,4.711963 -12.59573,9.888034 4.273083,-2.980063 9.398191,-3.186511 14.263255,-3.550067 6.376941,-0.476536 7.605155,-2.893329 9.593015,-5.235953"
       id="path13261"
       sodipodi:nodetypes="cscsc" /><path
       style="fill:none;fill-opacity:1;stroke:#ffffff;stroke-linecap:round;stroke-linejoin:round;stroke-opacity:1;stop-color:#000000;stroke-width:1.18381859;stroke-dasharray:none"
       d="m 31.88219,25.154581 c 0.539269,2.468853 1.233081,5.408083 -0.338042,7.876936"
       id="path13263"
       sodipodi:nodetypes="cc" /><path
       style="fill:none;fill-opacity:1;stroke:#ffffff;stroke-linecap:round;stroke-linejoin:round;stroke-opacity:1;stop-color:#000000;stroke-width:1.18381859;stroke-dasharray:none"
       d="M 24.25816,30.825769 C 24.2588,32.7077 24.2461,36.051202 18.473774,36.825321 6.1485177,38.478244 8.1710679,43.042166 8.4678087,44.698013 11.160661,40.804922 14.256957,40.869571 17.240702,39.830109"
       id="path13292"
       sodipodi:nodetypes="cscc" /><path
       style="fill:none;fill-opacity:1;stroke:#ffffff;stroke-linecap:round;stroke-linejoin:round;stroke-opacity:1;stop-color:#000000;stroke-width:1.18381859;stroke-dasharray:none"
       d="m 10.761208,30.546206 c 4.523937,5.510149 11.932443,2.682209 13.604713,0.476087"
       id="path13322"
       sodipodi:nodetypes="cc" /><path
       style="fill:none;fill-opacity:1;stroke:#ffffff;stroke-linecap:round;stroke-linejoin:round;stroke-opacity:1;stop-color:#000000;stroke-width:1.18381859;stroke-dasharray:none"
       d="m 13.531639,32.950987 c -0.199164,1.73911 -0.09466,3.478219 -1.392195,5.217329"
       id="path13353"
       sodipodi:nodetypes="cc" /><path
       style="fill:none;fill-opacity:1;stroke:#ffffff;stroke-linecap:round;stroke-linejoin:round;stroke-opacity:1;stop-color:#000000;stroke-width:1.18381859;stroke-dasharray:none"
       d="m 16.272942,33.760576 c -1.278379,1.300128 -0.673993,2.642174 1.361086,3.175099"
       id="path13355"
       sodipodi:nodetypes="cc" /></g></svg>
