<?xml version="1.0" encoding="UTF-8" standalone="no"?>
<!-- Created with Inkscape (http://www.inkscape.org/) -->

<svg
   width="48"
   height="48"
   viewBox="0 0 48 48"
   version="1.1"
   id="svg990"
   inkscape:version="1.2.2 (b0a8486541, 2022-12-01)"
   xml:space="preserve"
   sodipodi:docname="zmanim.svg"
   xmlns:inkscape="http://www.inkscape.org/namespaces/inkscape"
   xmlns:sodipodi="http://sodipodi.sourceforge.net/DTD/sodipodi-0.dtd"
   xmlns="http://www.w3.org/2000/svg"
   xmlns:svg="http://www.w3.org/2000/svg"><sodipodi:namedview
     id="namedview992"
     pagecolor="#858585"
     bordercolor="#000000"
     borderopacity="0.25"
     inkscape:showpageshadow="2"
     inkscape:pageopacity="0"
     inkscape:pagecheckerboard="0"
     inkscape:deskcolor="#d1d1d1"
     inkscape:document-units="px"
     showgrid="false"
     inkscape:zoom="16"
     inkscape:cx="21.9375"
     inkscape:cy="20.1875"
     inkscape:window-width="1366"
     inkscape:window-height="737"
     inkscape:window-x="0"
     inkscape:window-y="0"
     inkscape:window-maximized="1"
     inkscape:current-layer="svg990" /><defs
     id="defs987"><style
       id="style1174">.a{fill:none;stroke:#fff;stroke-linecap:round;stroke-linejoin:round;}</style></defs><path
     id="path1946"
     style="fill:none;stroke:#fff;stroke-width:1;stroke-linecap:round;stroke-linejoin:round;stroke-dasharray:none;stroke-opacity:1;stop-color:#000000"
     d="m 22.670487,6.1468797 2.659025,10e-8 m 16.523608,16.5236082 1e-6,2.659024 m -16.523609,16.523608 -2.659023,1e-6 M 6.1468795,25.329512 l 1e-7,-2.659023 M 25.329111,2.5052364 l 10e-7,3.6421167 m 0,35.7052929 v 3.593308 m -2.658222,10e-7 v -3.593307 m -2e-6,-35.7052906 V 2.5540496 M 2.5540454,22.670889 h 3.5933073 m 35.7052903,-2e-6 h 3.642118 m -0.0488,2.658225 h -3.593308 m -35.7052902,-10e-7 H 2.5540529 m 42.9458991,0.0041 a 21.541246,21.541246 0 0 1 -20.16687,20.16679 m -2.666163,0 A 21.541246,21.541246 0 0 1 2.5000483,25.333165 m 0,-2.666332 A 21.541246,21.541246 0 0 1 22.666917,2.5000433 m 2.666164,0 A 21.541246,21.541246 0 0 1 45.499952,22.666834 M 20.709386,26.89202 39.312223,14.956071 m -25.079567,4.112868 12.674941,7.317881 m 1.780192,0.587498 a 5.9730489,6.0332554 0 0 1 5.866105,-4.896696 5.9730489,6.0332554 0 0 1 5.943945,5.438388 M 4.0950251,31.435645 C 9.4113474,25.876179 15.616073,25.912296 20.097253,25.785427 m 8.647426,1.21658 c 6.516865,1.52124 14.774617,0.9437 16.312958,-0.855692" /></svg>
