<?xml version="1.0" encoding="UTF-8" standalone="no"?>
<svg
   viewBox="0 0 48 48"
   version="1.1"
   id="svg1"
   sodipodi:docname="agar_io.svg"
   inkscape:version="1.2.2 (b0a8486541, 2022-12-01)"
   xml:space="preserve"
   xmlns:inkscape="http://www.inkscape.org/namespaces/inkscape"
   xmlns:sodipodi="http://sodipodi.sourceforge.net/DTD/sodipodi-0.dtd"
   xmlns="http://www.w3.org/2000/svg"
   xmlns:svg="http://www.w3.org/2000/svg"><sodipodi:namedview
     id="namedview1"
     pagecolor="#505050"
     bordercolor="#eeeeee"
     borderopacity="1"
     inkscape:showpageshadow="0"
     inkscape:pageopacity="0"
     inkscape:pagecheckerboard="0"
     inkscape:deskcolor="#505050"
     inkscape:zoom="8.90625"
     inkscape:cx="-8.1964912"
     inkscape:cy="31.550877"
     inkscape:window-width="1918"
     inkscape:window-height="1053"
     inkscape:window-x="0"
     inkscape:window-y="0"
     inkscape:window-maximized="1"
     inkscape:current-layer="svg1"
     showgrid="false" /><defs
     id="defs1"><style
       id="style1">.a { fill:none;stroke:#fff;stroke-linecap:round;stroke-linejoin:round; }
</style></defs><path
     style="fill:none;stroke:#ffffff;stroke-width:1;stroke-linecap:round;stroke-linejoin:round;stroke-opacity:1"
     d="M 29.849904,19.980904 C 29.915584,15.295431 26.762288,9.6999667 18.908637,9.6893677 13.660995,9.6823677 7.185095,12.368675 5.0506861,19.420937 c -2.1172267,6.995489 2.1986601,12.488601 6.9051349,14.770296 1.634244,0.79228 6.110072,1.786509 8.351895,-1.273835 1.422738,-1.942199 -1.1859,-5.525634 2.563141,-8.38604 1.939498,-1.479777 6.91101,0.303248 6.979047,-4.550454 z"
     id="path75468" /><path
     style="fill:none;stroke:#ffffff;stroke-width:1;stroke-linecap:round;stroke-linejoin:round;stroke-opacity:1"
     d="m 28.421916,29.395247 2.392394,1.183696"
     id="path75466" /><path
     style="fill:none;stroke:#ffffff;stroke-width:1;stroke-linecap:round;stroke-linejoin:round;stroke-opacity:1"
     d="m 23.885885,27.150934 2.389779,1.182402"
     id="path75464" /><path
     style="fill:none;stroke:#ffffff;stroke-width:1;stroke-linecap:round;stroke-linejoin:round;stroke-opacity:1"
     d="m 29.808786,32.823209 2.981655,-1.225381 -0.733626,-3.268014"
     id="path75462" /><path
     style="fill:none;stroke:#ffffff;stroke-width:1;stroke-linecap:round;stroke-linejoin:round;stroke-opacity:1"
     d="m 43.500003,34.403791 a 3.9050731,3.906855 0 0 1 -3.905074,3.906855 3.9050731,3.906855 0 0 1 -3.905073,-3.906855 3.9050731,3.906855 0 0 1 3.905073,-3.906855 3.9050731,3.906855 0 0 1 3.905074,3.906855 z"
     id="path75426" /></svg>
