<?xml version="1.0" encoding="UTF-8" standalone="no"?>
<svg
   viewBox="0 0 48 48"
   version="1.1"
   id="svg1"
   sodipodi:docname="appflowy.svg"
   inkscape:version="1.2.2 (b0a8486541, 2022-12-01)"
   xml:space="preserve"
   xmlns:inkscape="http://www.inkscape.org/namespaces/inkscape"
   xmlns:sodipodi="http://sodipodi.sourceforge.net/DTD/sodipodi-0.dtd"
   xmlns="http://www.w3.org/2000/svg"
   xmlns:svg="http://www.w3.org/2000/svg"><sodipodi:namedview
     id="namedview1"
     pagecolor="#505050"
     bordercolor="#eeeeee"
     borderopacity="1"
     inkscape:showpageshadow="0"
     inkscape:pageopacity="0"
     inkscape:pagecheckerboard="0"
     inkscape:deskcolor="#505050"
     inkscape:zoom="8.90625"
     inkscape:cx="2.245614"
     inkscape:cy="38.849123"
     inkscape:window-width="1918"
     inkscape:window-height="1053"
     inkscape:window-x="0"
     inkscape:window-y="0"
     inkscape:window-maximized="1"
     inkscape:current-layer="svg1"
     showgrid="false" /><defs
     id="defs1"><style
       id="style1">.a { fill:none;stroke:#fff;stroke-linecap:round;stroke-linejoin:round; }
</style></defs><path
     style="fill:none;stroke:#ffffff;stroke-width:1;stroke-linecap:round;stroke-linejoin:round;stroke-opacity:1"
     d="M 6.5702268,22.681635 C 4.13941,19.920847 6.9165173,12.964329 10.318949,9.7309459 13.656306,6.5594036 19.076859,4.7510768 21.974658,7.1882708 24.384381,9.2149692 24.260009,14.277029 17.518097,18.542363 13.187159,21.282372 8.1956938,24.527751 6.5702268,22.681635 Z"
     id="path72567" /><path
     style="fill:none;stroke:#ffffff;stroke-width:1;stroke-linecap:round;stroke-linejoin:round;stroke-opacity:1"
     d="m 25.541313,6.4311375 c 2.760824,-2.4307851 9.717434,0.346286 12.950858,3.7486725 3.171585,3.337316 4.979935,8.757797 2.54271,11.655558 C 39.008155,24.245061 33.94603,24.120689 29.680639,17.378866 26.940594,13.047984 23.695173,8.0565833 25.541313,6.4311375 Z"
     id="path72565" /><path
     style="fill:none;stroke:#ffffff;stroke-width:1;stroke-linecap:round;stroke-linejoin:round;stroke-opacity:1"
     d="m 41.429773,25.318366 c 2.430817,2.760787 -0.34629,9.717306 -3.748721,12.950688 -3.337358,3.171543 -8.757911,4.979869 -11.655709,2.542675 -2.409724,-2.026698 -2.285352,-7.088757 4.45656,-11.354092 4.330939,-2.74001 9.322403,-5.985387 10.94787,-4.139271 z"
     id="path72563" /><path
     style="fill:none;stroke:#ffffff;stroke-width:1;stroke-linecap:round;stroke-linejoin:round;stroke-opacity:1"
     d="M 22.458686,41.568862 C 19.697863,43.999648 12.741254,41.222577 9.5078298,37.82019 6.336246,34.482874 4.5278951,29.062393 6.965121,26.164632 c 2.0267253,-2.409692 7.08885,-2.285321 11.35424,4.456502 2.740045,4.330882 5.985466,9.322283 4.139325,10.947728 z"
     id="path72561" /><path
     style="fill:none;stroke:#ffffff;stroke-width:1;stroke-linecap:round;stroke-linejoin:round;stroke-opacity:1"
     d="M 42.358979,28.278303 V 40.31041 c 0,0.903655 -0.727502,1.631147 -1.631169,1.631147 H 29.341564"
     id="path72524" /></svg>
