<?xml version="1.0" encoding="UTF-8" standalone="no"?>
<svg
   viewBox="0 0 48 48"
   version="1.1"
   id="svg1"
   sodipodi:docname="blue_square_speedometer.svg"
   inkscape:version="1.2.2 (b0a8486541, 2022-12-01)"
   xml:space="preserve"
   xmlns:inkscape="http://www.inkscape.org/namespaces/inkscape"
   xmlns:sodipodi="http://sodipodi.sourceforge.net/DTD/sodipodi-0.dtd"
   xmlns="http://www.w3.org/2000/svg"
   xmlns:svg="http://www.w3.org/2000/svg"><sodipodi:namedview
     id="namedview1"
     pagecolor="#505050"
     bordercolor="#eeeeee"
     borderopacity="1"
     inkscape:showpageshadow="0"
     inkscape:pageopacity="0"
     inkscape:pagecheckerboard="0"
     inkscape:deskcolor="#505050"
     inkscape:zoom="8.90625"
     inkscape:cx="35.25614"
     inkscape:cy="33.684211"
     inkscape:window-width="1918"
     inkscape:window-height="1053"
     inkscape:window-x="0"
     inkscape:window-y="0"
     inkscape:window-maximized="1"
     inkscape:current-layer="svg1"
     showgrid="false" /><defs
     id="defs1"><style
       id="style1">.a { fill:none;stroke:#fff;stroke-linecap:round;stroke-linejoin:round; }
</style></defs><path
     style="fill:none;stroke:#ffffff;stroke-linecap:round;stroke-linejoin:round;stroke-opacity:1"
     d="m 8.803196,18.121309 v 9.958145"
     id="path2485" /><path
     style="fill:none;stroke:#ffffff;stroke-linecap:round;stroke-linejoin:round;stroke-opacity:1"
     d="m 8.804225,25.964094 4.606249,-4.485468"
     id="path2483" /><path
     style="fill:none;stroke:#ffffff;stroke-linecap:round;stroke-linejoin:round;stroke-opacity:1"
     d="m 10.270212,24.536531 3.621161,3.527976"
     id="path2481" /><path
     style="fill:none;stroke:#ffffff;stroke-linecap:round;stroke-linejoin:round;stroke-opacity:1"
     d="m 15.967511,23.971716 c 0,-1.374931 1.139027,-2.489533 2.544089,-2.489533 h 1.2e-5 c 1.405062,0 2.544089,1.114602 2.544089,2.489533 v 4.107735"
     id="path2479" /><path
     style="fill:none;stroke:#ffffff;stroke-linecap:round;stroke-linejoin:round;stroke-opacity:1"
     d="m 15.967514,21.48218 v 6.597274"
     id="path2477" /><path
     style="fill:none;stroke:#ffffff;stroke-linecap:round;stroke-linejoin:round;stroke-opacity:1"
     d="m 21.055701,23.971716 c 0,-1.374931 1.139026,-2.489533 2.544075,-2.489533 h 1.3e-5 c 1.405062,0 2.544088,1.114602 2.544088,2.489533 v 4.107735"
     id="path2475" /><path
     style="fill:none;stroke:#ffffff;stroke-linecap:round;stroke-linejoin:round;stroke-opacity:1"
     d="M 31.786066,17.682796 27.969938,30.317204"
     id="path2473" /><path
     style="fill:none;stroke:#ffffff;stroke-linecap:round;stroke-linejoin:round;stroke-opacity:1"
     d="m 34.10862,18.121311 v 9.958145"
     id="path2471" /><path
     style="fill:none;stroke:#ffffff;stroke-linecap:round;stroke-linejoin:round;stroke-opacity:1"
     d="m 34.108629,23.971719 c 0,-1.37493 1.139013,-2.489532 2.544075,-2.489532 h 1.3e-5 c 1.405062,0 2.544088,1.114602 2.544088,2.489532 v 4.107736"
     id="path2469" /><path
     style="fill:none;stroke:#ffffff;stroke-linecap:round;stroke-linejoin:round;stroke-opacity:1"
     d="m 9.5,5.5 h 29 c 2.216,0 4,1.784 4,4 v 29 c 0,2.216 -1.784,4 -4,4 h -29 c -2.216,0 -4,-1.784 -4,-4 v -29 c 0,-2.216 1.784,-4 4,-4 z"
     id="rect2397" /></svg>
