<?xml version="1.0" encoding="UTF-8" standalone="no"?>
<svg
   viewBox="0 0 48 48"
   version="1.1"
   id="svg1"
   sodipodi:docname="brawl_stats.svg"
   inkscape:version="1.2.2 (b0a8486541, 2022-12-01)"
   xml:space="preserve"
   xmlns:inkscape="http://www.inkscape.org/namespaces/inkscape"
   xmlns:sodipodi="http://sodipodi.sourceforge.net/DTD/sodipodi-0.dtd"
   xmlns="http://www.w3.org/2000/svg"
   xmlns:svg="http://www.w3.org/2000/svg"><sodipodi:namedview
     id="namedview1"
     pagecolor="#505050"
     bordercolor="#eeeeee"
     borderopacity="1"
     inkscape:showpageshadow="0"
     inkscape:pageopacity="0"
     inkscape:pagecheckerboard="0"
     inkscape:deskcolor="#505050"
     inkscape:zoom="12.59534"
     inkscape:cx="23.341967"
     inkscape:cy="28.740789"
     inkscape:window-width="1918"
     inkscape:window-height="1053"
     inkscape:window-x="0"
     inkscape:window-y="0"
     inkscape:window-maximized="1"
     inkscape:current-layer="svg1"
     showgrid="false" /><defs
     id="defs1"><style
       id="style1">.a { fill:none;stroke:#fff;stroke-linecap:round;stroke-linejoin:round; }
</style></defs><path
     style="fill:none;stroke:#ffffff;stroke-width:1;stroke-linecap:round;stroke-linejoin:round;stroke-opacity:1"
     d="m 12.372387,24.108204 0.153167,2.752698 3.035589,-0.2252 c 0.96434,-0.07154 1.573729,-0.720395 1.559621,-1.425758 -0.01649,-0.824401 -0.736846,-1.12502 -1.744495,-1.119172 z"
     id="path21094" /><path
     style="fill:none;stroke:#ffffff;stroke-width:1;stroke-linecap:round;stroke-linejoin:round;stroke-opacity:1"
     d="m 12.571046,31.088044 0.19122,3.117631 2.837371,-0.06597 c 1.066866,-0.02481 1.757347,-0.628203 1.792716,-1.647495 0.03284,-0.946321 -0.861985,-1.434666 -1.857237,-1.427 z"
     id="path21092" /><path
     style="fill:none;stroke:#ffffff;stroke-width:1;stroke-linecap:round;stroke-linejoin:round;stroke-opacity:1"
     d="m 6.721391,18.600681 -1.2214016,6.4178 H 7.0002038 L 7.8818424,40.474094 17.984326,39.945445 c 4.172793,-0.218356 5.756651,-3.140345 5.734707,-6.108806 -0.0205,-2.774213 -1.572826,-4.823301 -3.741183,-5.631125 2.167279,-1.23202 2.900011,-3.008449 2.539348,-5.787687 -0.334543,-2.577967 -2.341128,-4.408645 -5.300939,-4.278525 z"
     id="path21090" /><path
     style="fill:none;stroke:#ffffff;stroke-width:1;stroke-linecap:round;stroke-linejoin:round;stroke-opacity:1"
     d="m 42.500015,19.044665 -2.460288,6.445775 c -2.879492,-1.986393 -5.84826,-2.377044 -6.57644,-1.430871 -0.615413,0.799648 0.558171,1.83509 2.568317,2.665607 4.36971,1.805402 5.569228,4.569404 4.874312,7.603564 -0.808602,3.530544 -3.403268,6.027731 -6.341057,6.105465 -3.66975,0.0971 -6.368153,-1.122782 -9.053265,-3.000157 l 2.187988,-5.413545 c 2.067581,1.371417 6.09948,2.915487 7.037901,1.764041 1.298,-1.592649 -1.812284,-2.403574 -3.546991,-3.383994 -4.029084,-2.277152 -5.004942,-5.118203 -3.709594,-8.650626 1.243326,-3.390558 4.639876,-4.790581 10.404682,-3.396663 l 0.312226,-0.750292 z"
     id="path21088" /><path
     style="fill:none;stroke:#ffffff;stroke-width:1;stroke-linecap:round;stroke-linejoin:round;stroke-opacity:1"
     d="M 31.769967,16.413452 33.375769,9.8013181 27.7272,10.858849 24.364043,7.5258881 21.000886,10.858849 15.352317,9.8013181 16.95812,16.413452 Z"
     id="path21068" /></svg>
