<?xml version="1.0" encoding="UTF-8" standalone="no"?>
<svg
   viewBox="0 0 48 48"
   version="1.1"
   id="svg1"
   sodipodi:docname="brother_mobile_connect.svg"
   inkscape:version="1.2.2 (b0a8486541, 2022-12-01)"
   xml:space="preserve"
   xmlns:inkscape="http://www.inkscape.org/namespaces/inkscape"
   xmlns:sodipodi="http://sodipodi.sourceforge.net/DTD/sodipodi-0.dtd"
   xmlns="http://www.w3.org/2000/svg"
   xmlns:svg="http://www.w3.org/2000/svg"><sodipodi:namedview
     id="namedview1"
     pagecolor="#505050"
     bordercolor="#eeeeee"
     borderopacity="1"
     inkscape:showpageshadow="0"
     inkscape:pageopacity="0"
     inkscape:pagecheckerboard="0"
     inkscape:deskcolor="#505050"
     inkscape:zoom="8.90625"
     inkscape:cx="-17.066667"
     inkscape:cy="29.754386"
     inkscape:window-width="1918"
     inkscape:window-height="1053"
     inkscape:window-x="0"
     inkscape:window-y="0"
     inkscape:window-maximized="1"
     inkscape:current-layer="svg1"
     showgrid="false" /><defs
     id="defs1"><style
       id="style1">.a { fill:none;stroke:#fff;stroke-linecap:round;stroke-linejoin:round; }
</style></defs><path
     style="fill:none;stroke:#ffffff;stroke-width:1;stroke-linecap:round;stroke-linejoin:round;stroke-dashoffset:1.3;stroke-opacity:1"
     d="m 37.214561,37.151477 h 3.270855 C 41.601491,37.151477 42.5,36.25289 42.5,35.136716 V 20.573897 H 5.4999995 v 0 14.562819 c 0,1.116174 0.898509,2.014761 2.014585,2.014761 v 0 h 3.2708525"
     id="path1701" /><path
     style="fill:none;stroke:#ffffff;stroke-width:1;stroke-linecap:round;stroke-linejoin:round;stroke-dashoffset:1.3;stroke-opacity:1"
     d="m 8.5887085,20.309471 -2.221363,-4.671733 c -0.794094,-1.670054 -0.07872,-2.615764 1.456416,-2.615764 H 40.176237 c 1.535145,0 2.250511,0.94571 1.456416,2.615764 l -2.221364,4.671709"
     id="path1699" /><path
     style="fill:none;stroke:#ffffff;stroke-width:1;stroke-linecap:round;stroke-linejoin:round;stroke-dashoffset:1.3;stroke-opacity:1"
     d="M 10.722923,20.307971 8.9328845,16.228256 H 39.067116 l -1.790038,4.079715"
     id="path1697" /><path
     style="fill:none;stroke:#ffffff;stroke-width:1;stroke-linecap:round;stroke-linejoin:round;stroke-dashoffset:1.3;stroke-opacity:1"
     d="m 11.070047,27.688118 h 25.859905 v 14.63488 H 11.070047 Z"
     id="path1695" /><path
     style="fill:none;stroke:#ffffff;stroke-width:1;stroke-linecap:round;stroke-linejoin:round;stroke-dashoffset:1.3;stroke-opacity:1"
     d="m 38.186734,23.991037 a 1.464354,1.4644816 0 0 1 -1.464354,1.464482 1.464354,1.4644816 0 0 1 -1.464354,-1.464482 1.464354,1.4644816 0 0 1 1.464354,-1.464481 1.464354,1.4644816 0 0 1 1.464354,1.464481 z"
     id="path1693" /><path
     style="fill:none;stroke:#ffffff;stroke-width:1;stroke-linecap:round;stroke-linejoin:round;stroke-dashoffset:1.3;stroke-opacity:1"
     d="m 22.671522,35.005565 a 4.367681,4.3680619 0 0 1 -4.367681,4.368061 4.367681,4.3680619 0 0 1 -4.36768,-4.368061 4.367681,4.3680619 0 0 1 4.36768,-4.368062 4.367681,4.3680619 0 0 1 4.367681,4.368062 z"
     id="path1691" /><path
     style="fill:none;stroke:#ffffff;stroke-width:1;stroke-linecap:round;stroke-linejoin:round;stroke-dashoffset:1.3;stroke-opacity:1"
     d="M 18.28681,34.943295 H 14.268036"
     id="path1689" /><path
     style="fill:none;stroke:#ffffff;stroke-width:1;stroke-linecap:round;stroke-linejoin:round;stroke-dashoffset:1.3;stroke-opacity:1"
     d="m 18.28681,30.963956 v 3.979339"
     id="path1687" /><path
     style="fill:none;stroke:#ffffff;stroke-width:1;stroke-linecap:round;stroke-linejoin:round;stroke-dashoffset:1.3;stroke-opacity:1"
     d="m 18.28681,34.943295 2.889713,2.889965"
     id="path1685" /><path
     style="fill:none;stroke:#ffffff;stroke-width:1;stroke-linecap:round;stroke-linejoin:round;stroke-dashoffset:1.3;stroke-opacity:1"
     d="m 25.333237,32.196778 h 8.228696"
     id="path1683" /><path
     style="fill:none;stroke:#ffffff;stroke-width:1;stroke-linecap:round;stroke-linejoin:round;stroke-dashoffset:1.3;stroke-opacity:1"
     d="m 25.333237,37.836072 h 8.228696"
     id="path1681" /><path
     style="fill:none;stroke:#ffffff;stroke-width:1;stroke-linecap:round;stroke-linejoin:round;stroke-dashoffset:1.3;stroke-opacity:1"
     d="m 25.333237,35.016424 h 8.228696"
     id="path1679" /><path
     style="fill:none;stroke:#ffffff;stroke-width:1;stroke-linecap:round;stroke-linejoin:round;stroke-dashoffset:1.3;stroke-opacity:1"
     d="m 17.396479,7.5112642 a 9.6688788,6.8048971 0 0 1 6.60352,-1.8342618 9.6688788,6.8048971 0 0 1 6.601947,1.8332268"
     id="path1677" /><path
     style="fill:none;stroke:#ffffff;stroke-width:1;stroke-linecap:round;stroke-linejoin:round;stroke-dashoffset:1.3;stroke-opacity:1"
     d="M 20.052956,10.132122 A 5.315615,3.5081541 0 0 1 23.999999,8.9737455 5.315615,3.5081541 0 0 1 27.94729,10.132303"
     id="path1620" /></svg>
