<?xml version="1.0" encoding="UTF-8" standalone="no"?>
<svg
   viewBox="0 0 48 48"
   version="1.1"
   id="svg1"
   sodipodi:docname="callfilter_app.svg"
   inkscape:version="1.2.2 (b0a8486541, 2022-12-01)"
   xml:space="preserve"
   xmlns:inkscape="http://www.inkscape.org/namespaces/inkscape"
   xmlns:sodipodi="http://sodipodi.sourceforge.net/DTD/sodipodi-0.dtd"
   xmlns="http://www.w3.org/2000/svg"
   xmlns:svg="http://www.w3.org/2000/svg"><sodipodi:namedview
     id="namedview1"
     pagecolor="#505050"
     bordercolor="#eeeeee"
     borderopacity="1"
     inkscape:showpageshadow="0"
     inkscape:pageopacity="0"
     inkscape:pagecheckerboard="0"
     inkscape:deskcolor="#505050"
     inkscape:zoom="12.59534"
     inkscape:cx="7.9394446"
     inkscape:cy="32.789906"
     inkscape:window-width="1918"
     inkscape:window-height="1053"
     inkscape:window-x="0"
     inkscape:window-y="0"
     inkscape:window-maximized="1"
     inkscape:current-layer="svg1"
     showgrid="false" /><defs
     id="defs1"><style
       id="style1">.a { fill:none;stroke:#fff;stroke-linecap:round;stroke-linejoin:round; }
</style></defs><path
     style="fill:none;stroke:#ffffff;stroke-width:1;stroke-linecap:round;stroke-linejoin:round;stroke-dashoffset:1.3;stroke-opacity:1"
     d="m 28.676985,17.632929 c 4.868412,0 13.030884,3.34929 14.156825,6.010603 1.125943,2.661313 0.979926,6.71419 -1.695656,6.723489 -2.053163,0.0071 -5.981933,-0.830758 -7.597112,-1.757355 -3.077252,-1.765362 -0.43988,-3.896009 -2.919223,-5.354622 -0.958484,-0.563884 -2.606398,-0.441514 -6.621818,-0.441514 -4.015422,0 -5.663336,-0.122374 -6.62182,0.441514 -2.479343,1.458613 0.158029,3.58926 -2.919223,5.354622 -1.615179,0.926597 -5.5439488,1.764434 -7.5971118,1.757355 -2.6755825,-0.0093 -2.8215986,-4.062176 -1.695657,-6.723489 1.125942,-2.661313 9.2884138,-6.010603 14.1568248,-6.010603 z"
     id="path1868"
     sodipodi:nodetypes="ssszssszssss" /></svg>
