<?xml version="1.0" encoding="UTF-8" standalone="no"?>
<svg
   viewBox="0 0 48 48"
   version="1.1"
   id="svg1"
   sodipodi:docname="change_phone.svg"
   inkscape:version="1.2.2 (b0a8486541, 2022-12-01)"
   xml:space="preserve"
   xmlns:inkscape="http://www.inkscape.org/namespaces/inkscape"
   xmlns:sodipodi="http://sodipodi.sourceforge.net/DTD/sodipodi-0.dtd"
   xmlns="http://www.w3.org/2000/svg"
   xmlns:svg="http://www.w3.org/2000/svg"><sodipodi:namedview
     id="namedview1"
     pagecolor="#505050"
     bordercolor="#eeeeee"
     borderopacity="1"
     inkscape:showpageshadow="0"
     inkscape:pageopacity="0"
     inkscape:pagecheckerboard="0"
     inkscape:deskcolor="#505050"
     inkscape:zoom="12.59534"
     inkscape:cx="9.0509665"
     inkscape:cy="35.409921"
     inkscape:window-width="1918"
     inkscape:window-height="1053"
     inkscape:window-x="0"
     inkscape:window-y="0"
     inkscape:window-maximized="1"
     inkscape:current-layer="svg1"
     showgrid="false" /><defs
     id="defs1"><style
       id="style1">.a { fill:none;stroke:#fff;stroke-linecap:round;stroke-linejoin:round; }
</style></defs><path
     style="fill:none;stroke:#ffffff;stroke-width:1;stroke-linecap:round;stroke-linejoin:round;stroke-opacity:1"
     d="m 27.370686,33.558241 v 6.971956 c 0,1.645269 -1.326148,2.969802 -2.973424,2.969802 H 11.48795 c -1.647275,0 -2.973423,-1.324533 -2.973423,-2.969802 V 14.231652 c 0,-1.645268 1.326148,-2.969802 2.973423,-2.969802 v 0 h 12.909312 c 1.647276,0 2.973424,1.324534 2.973424,2.969802 v 6.974276"
     id="path26879" /><path
     style="fill:none;stroke:#ffffff;stroke-width:1;stroke-linecap:round;stroke-linejoin:round;stroke-opacity:1"
     d="M 20.829632,11.166078 V 7.4698027 c 0,-1.6452637 1.326152,-2.969802 2.973424,-2.969802 v 0 h 12.708993 c 1.647272,0 2.973424,1.3245383 2.973424,2.969802 V 33.768347 c 0,1.645266 -1.326152,2.969802 -2.973424,2.969802 h -9.045663"
     id="path26877" /><path
     style="fill:none;stroke:#ffffff;stroke-width:1;stroke-linecap:round;stroke-linejoin:round;stroke-opacity:1"
     d="m 22.560983,33.283686 -6.201498,-6.018963 6.201498,-6.018964"
     id="path26875" /><path
     style="fill:none;stroke:#ffffff;stroke-width:1;stroke-linecap:round;stroke-linejoin:round;stroke-opacity:1"
     d="m 16.368516,27.273723 c 9.037813,0.53675 17.560982,0.542314 18.803108,-10.361476"
     id="path26586" /></svg>
