<?xml version="1.0" encoding="UTF-8" standalone="no"?>
<svg
   viewBox="0 0 48 48"
   version="1.1"
   id="svg1"
   sodipodi:docname="chemistry.svg"
   inkscape:version="1.2.2 (b0a8486541, 2022-12-01)"
   xml:space="preserve"
   xmlns:inkscape="http://www.inkscape.org/namespaces/inkscape"
   xmlns:sodipodi="http://sodipodi.sourceforge.net/DTD/sodipodi-0.dtd"
   xmlns="http://www.w3.org/2000/svg"
   xmlns:svg="http://www.w3.org/2000/svg"><sodipodi:namedview
     id="namedview1"
     pagecolor="#505050"
     bordercolor="#eeeeee"
     borderopacity="1"
     inkscape:showpageshadow="0"
     inkscape:pageopacity="0"
     inkscape:pagecheckerboard="0"
     inkscape:deskcolor="#505050"
     inkscape:zoom="6.2976698"
     inkscape:cx="43.666945"
     inkscape:cy="6.0339779"
     inkscape:window-width="1918"
     inkscape:window-height="1053"
     inkscape:window-x="0"
     inkscape:window-y="0"
     inkscape:window-maximized="1"
     inkscape:current-layer="svg1"
     showgrid="false" /><defs
     id="defs1"><style
       id="style1">.a { fill:none;stroke:#fff;stroke-linecap:round;stroke-linejoin:round; }
</style></defs><path
     style="fill:none;stroke:#ffffff;stroke-width:1;stroke-linecap:round;stroke-linejoin:round;stroke-opacity:1"
     d="M 10.663919,33.564876 5.5000001,29.934079 V 14.723296 L 18.560955,7.1179048 31.621909,14.723296 v 6.496702"
     id="path42411" /><path
     style="fill:none;stroke:#ffffff;stroke-width:1;stroke-linecap:round;stroke-linejoin:round;stroke-opacity:1"
     d="M 14.246298,22.833092 V 37.646006"
     id="path42409" /><path
     style="fill:none;stroke:#ffffff;stroke-width:1;stroke-linecap:round;stroke-linejoin:round;stroke-opacity:1"
     d="M 24.226524,22.833092 V 37.646006"
     id="path42407" /><path
     style="fill:none;stroke:#ffffff;stroke-width:1;stroke-linecap:round;stroke-linejoin:round;stroke-opacity:1"
     d="m 14.246298,30.21167 h 9.980226"
     id="path42405" /><path
     style="fill:none;stroke:#ffffff;stroke-width:1;stroke-linecap:round;stroke-linejoin:round;stroke-opacity:1"
     d="m 37.509867,22.833104 h 1e-5 c 2.764528,0 4.990123,2.18842 4.990123,4.906774 v 4.999342 c 0,2.718354 -2.225595,4.906775 -4.990123,4.906775 h -1e-5 c -2.764529,0 -4.990123,-2.188421 -4.990123,-4.906775 v -4.999342 c 0,-2.718354 2.225594,-4.906774 4.990123,-4.906774 z"
     id="path42403" /><path
     style="fill:none;stroke:#ffffff;stroke-width:1;stroke-linecap:round;stroke-linejoin:round;stroke-opacity:1"
     d="m 26.451758,36.220293 c 0,-1.425128 1.256419,-2.54872 2.693138,-2.265 0.942422,0.186103 1.694994,1.023605 1.7888,2.004985 0.06978,0.729993 -0.155032,1.450302 -0.645752,1.892809 -0.909068,0.819762 -3.836186,3.029 -3.836186,3.029 h 4.494386"
     id="path42188" /></svg>
