<?xml version="1.0" encoding="UTF-8" standalone="no"?>
<svg
   viewBox="0 0 48 48"
   version="1.1"
   id="svg1"
   sodipodi:docname="cloudmoon.svg"
   inkscape:version="1.2.2 (b0a8486541, 2022-12-01)"
   xml:space="preserve"
   xmlns:inkscape="http://www.inkscape.org/namespaces/inkscape"
   xmlns:sodipodi="http://sodipodi.sourceforge.net/DTD/sodipodi-0.dtd"
   xmlns="http://www.w3.org/2000/svg"
   xmlns:svg="http://www.w3.org/2000/svg"><sodipodi:namedview
     id="namedview1"
     pagecolor="#505050"
     bordercolor="#eeeeee"
     borderopacity="1"
     inkscape:showpageshadow="0"
     inkscape:pageopacity="0"
     inkscape:pagecheckerboard="0"
     inkscape:deskcolor="#505050"
     inkscape:zoom="8.90625"
     inkscape:cx="-14.708772"
     inkscape:cy="27.284211"
     inkscape:window-width="1918"
     inkscape:window-height="1053"
     inkscape:window-x="0"
     inkscape:window-y="0"
     inkscape:window-maximized="1"
     inkscape:current-layer="svg1"
     showgrid="false" /><defs
     id="defs1"><style
       id="style1">.a { fill:none;stroke:#fff;stroke-linecap:round;stroke-linejoin:round; }
</style></defs><path
     style="fill:none;stroke:#ffffff;stroke-width:1;stroke-linecap:round;stroke-linejoin:round;stroke-opacity:1"
     d="M 37.158913,32.256945 A 15.489315,15.498685 0 0 1 24.05074,39.498686 15.489315,15.498685 0 0 1 14.56596,36.253135"
     id="path1350" /><path
     style="fill:none;stroke:#ffffff;stroke-width:1;stroke-linecap:round;stroke-linejoin:round;stroke-opacity:1"
     d="M 8.6631543,25.773384 A 15.489315,15.498685 0 0 1 8.5614253,24 15.489315,15.498685 0 0 1 24.05074,8.5013142 15.489315,15.498685 0 0 1 39.540056,24 v 0 a 15.489315,15.498685 0 0 1 -0.148104,2.138136"
     id="path1348" /><path
     style="fill:none;stroke:#ffffff;stroke-width:1;stroke-linecap:round;stroke-linejoin:round;stroke-opacity:1"
     d="m 14.879445,21.533296 c -2.981034,0 -5.4798557,2.060713 -6.1546587,4.835761 a 3.847063,3.8493902 0 0 0 -3.2248046,3.792969 3.847063,3.8493902 0 0 0 2.7004466,3.67273 4.0542973,4.0567499 0 0 0 3.9414287,3.143683 4.0542973,4.0567499 0 0 0 3.690173,-2.380716 h 9.836092 c 1.549304,0 2.796579,-1.131743 2.796579,-2.535933 0,-1.327824 -1.116172,-2.408942 -2.547508,-2.522817 v -0.06122 c 0,-1.550241 -1.247276,-2.798271 -2.796579,-2.798271 h -2.020965 c -0.557752,-2.930719 -3.12884,-5.146194 -6.220204,-5.146194 z"
     id="path1346" /><path
     style="fill:none;stroke:#ffffff;stroke-width:1;stroke-linecap:round;stroke-linejoin:round;stroke-opacity:1"
     d="m 39.093887,26.257564 a 2.1848005,2.1861222 0 0 0 -2.125837,1.707382 2.1848005,2.1861222 0 0 0 -0.0022,0 c -0.743659,0.382577 -1.230058,1.03002 -1.230058,1.768594 v 0.467836 c 0,1.18172 1.247276,2.131496 2.796579,2.131496 h 1.171068 c 1.549303,0 2.796579,-0.949776 2.796579,-2.131496 V 29.73354 c 0,-0.755049 -0.50848,-1.415938 -1.280309,-1.794828 a 2.1848005,2.1861222 0 0 0 -2.125875,-1.681148 z"
     id="rect1307" /></svg>
