<?xml version="1.0" encoding="UTF-8" standalone="no"?>
<svg
   viewBox="0 0 48 48"
   version="1.1"
   id="svg1"
   sodipodi:docname="color.svg"
   inkscape:version="1.2.2 (b0a8486541, 2022-12-01)"
   xml:space="preserve"
   xmlns:inkscape="http://www.inkscape.org/namespaces/inkscape"
   xmlns:sodipodi="http://sodipodi.sourceforge.net/DTD/sodipodi-0.dtd"
   xmlns="http://www.w3.org/2000/svg"
   xmlns:svg="http://www.w3.org/2000/svg"><sodipodi:namedview
     id="namedview1"
     pagecolor="#505050"
     bordercolor="#eeeeee"
     borderopacity="1"
     inkscape:showpageshadow="0"
     inkscape:pageopacity="0"
     inkscape:pagecheckerboard="0"
     inkscape:deskcolor="#505050"
     inkscape:zoom="25.19068"
     inkscape:cx="16.71253"
     inkscape:cy="27.351386"
     inkscape:window-width="1918"
     inkscape:window-height="1053"
     inkscape:window-x="0"
     inkscape:window-y="0"
     inkscape:window-maximized="1"
     inkscape:current-layer="svg1"
     showgrid="false" /><defs
     id="defs1"><style
       id="style1">.a { fill:none;stroke:#fff;stroke-linecap:round;stroke-linejoin:round; }
</style></defs><path
     style="fill:none;stroke:#ffffff;stroke-width:1;stroke-linecap:round;stroke-linejoin:round;stroke-opacity:1"
     d="M 24,8.8953535 C 14.55197,16.433858 16.265829,31.871398 24,36.638826 31.734171,31.871398 33.44803,16.433858 24,8.8953535 v 0"
     id="path43244" /><path
     id="path43344"
     style="fill:none;stroke:#ffffff;stroke-width:1;stroke-linecap:round;stroke-linejoin:round;stroke-opacity:1"
     d="M 29.439076 35.357931 C 35.471068 32.325809 40.325137 24.319564 37.968897 16.359975 L 37.968897 16.359975 C 29.528204 16.903764 23.65658 24.593457 23.143659 31.458367 " /><path
     id="path43340"
     style="fill:none;stroke:#ffffff;stroke-width:1;stroke-linecap:round;stroke-linejoin:round;stroke-opacity:1"
     d="M 18.560923 35.357931 C 12.528932 32.325809 7.6748642 24.319564 10.031103 16.359975 C 18.471796 16.903764 24.34342 24.593457 24.856341 31.458367 " /><path
     style="fill:none;stroke:#ffffff;stroke-width:1;stroke-linecap:round;stroke-linejoin:round;stroke-opacity:1"
     d="m 25.88747,37.938741 c 4.999935,2.579372 13.417343,0.919751 16.612545,-5.463237 -3.220937,-2.593134 -7.36029,-3.050109 -10.95335,-2.131414"
     id="path43238"
     sodipodi:nodetypes="ccc" /><path
     style="fill:none;stroke:#ffffff;stroke-width:1;stroke-linecap:round;stroke-linejoin:round;stroke-opacity:1"
     d="M 22.112529,37.938741 C 17.112594,40.518113 8.6951866,38.858492 5.499985,32.475504 8.720922,29.88237 12.860275,29.425395 16.453335,30.34409"
     id="path43167"
     sodipodi:nodetypes="ccc" /></svg>
