<?xml version="1.0" encoding="UTF-8" standalone="no"?>
<svg
   viewBox="0 0 48 48"
   version="1.1"
   id="svg1"
   sodipodi:docname="coppel.svg"
   inkscape:version="1.2.2 (b0a8486541, 2022-12-01)"
   xml:space="preserve"
   xmlns:inkscape="http://www.inkscape.org/namespaces/inkscape"
   xmlns:sodipodi="http://sodipodi.sourceforge.net/DTD/sodipodi-0.dtd"
   xmlns="http://www.w3.org/2000/svg"
   xmlns:svg="http://www.w3.org/2000/svg"><sodipodi:namedview
     id="namedview1"
     pagecolor="#505050"
     bordercolor="#eeeeee"
     borderopacity="1"
     inkscape:showpageshadow="0"
     inkscape:pageopacity="0"
     inkscape:pagecheckerboard="0"
     inkscape:deskcolor="#505050"
     inkscape:zoom="17.8125"
     inkscape:cx="20.884211"
     inkscape:cy="24.02807"
     inkscape:window-width="1918"
     inkscape:window-height="1053"
     inkscape:window-x="0"
     inkscape:window-y="0"
     inkscape:window-maximized="1"
     inkscape:current-layer="svg1"
     showgrid="false" /><defs
     id="defs1"><style
       id="style1">.a { fill:none;stroke:#fff;stroke-linecap:round;stroke-linejoin:round; }
</style></defs><path
     style="fill:none;fill-opacity:0;stroke:#ffffff;stroke-width:1;stroke-linecap:round;stroke-linejoin:round"
     d="M 11.539667,24 A 3.5198333,3.5445504 0 0 1 8.0198335,27.544551 3.5198333,3.5445504 0 0 1 4.5000005,24 3.5198333,3.5445504 0 0 1 8.0198335,20.45545 3.5198333,3.5445504 0 0 1 11.539667,24 Z"
     id="path47568" /><path
     style="fill:none;fill-opacity:0;stroke:#ffffff;stroke-width:1;stroke-linecap:round;stroke-linejoin:round"
     d="m 17.719551,20.429202 a 3.5198333,3.5445504 0 0 1 -3.519833,3.54455 3.5198333,3.5445504 0 0 1 -3.519834,-3.54455 3.5198333,3.5445504 0 0 1 3.519834,-3.544551 3.5198333,3.5445504 0 0 1 3.519833,3.544551 z"
     id="path47566" /><path
     style="fill:none;fill-opacity:0;stroke:#ffffff;stroke-width:1;stroke-linecap:round;stroke-linejoin:round"
     d="m 17.719551,27.570799 a 3.5198333,3.5445504 0 0 1 -3.519833,3.54455 3.5198333,3.5445504 0 0 1 -3.519834,-3.54455 3.5198333,3.5445504 0 0 1 3.519834,-3.544551 3.5198333,3.5445504 0 0 1 3.519833,3.544551 z"
     id="path47564" /><path
     style="fill:none;fill-opacity:0;stroke:#ffffff;stroke-width:1;stroke-linecap:round;stroke-linejoin:round"
     d="M 14.704934,24 H 43.5"
     id="path47562" /><path
     style="fill:none;fill-opacity:0;stroke:#ffffff;stroke-width:1;stroke-linecap:round;stroke-linejoin:round"
     d="m 37.721938,24.000869 v 6.069935"
     id="path47560" /><path
     style="fill:none;fill-opacity:0;stroke:#ffffff;stroke-width:1;stroke-linecap:round;stroke-linejoin:round"
     d="m 42.037271,24.000869 v 6.069935"
     id="path47558" /><path
     style="fill:none;fill-opacity:0;stroke:#ffffff;stroke-width:1;stroke-linecap:round;stroke-linejoin:round"
     d="m 37.721182,27.54129 h 4.317489"
     id="path47513" /></svg>
