<?xml version="1.0" encoding="UTF-8" standalone="no"?>
<svg
   viewBox="0 0 48 48"
   version="1.1"
   id="svg1"
   sodipodi:docname="crookcatcher.svg"
   inkscape:version="1.2.2 (b0a8486541, 2022-12-01)"
   xml:space="preserve"
   xmlns:inkscape="http://www.inkscape.org/namespaces/inkscape"
   xmlns:sodipodi="http://sodipodi.sourceforge.net/DTD/sodipodi-0.dtd"
   xmlns="http://www.w3.org/2000/svg"
   xmlns:svg="http://www.w3.org/2000/svg"><sodipodi:namedview
     id="namedview1"
     pagecolor="#505050"
     bordercolor="#eeeeee"
     borderopacity="1"
     inkscape:showpageshadow="0"
     inkscape:pageopacity="0"
     inkscape:pagecheckerboard="0"
     inkscape:deskcolor="#505050"
     inkscape:zoom="17.8125"
     inkscape:cx="20.884211"
     inkscape:cy="24.02807"
     inkscape:window-width="1918"
     inkscape:window-height="1053"
     inkscape:window-x="0"
     inkscape:window-y="0"
     inkscape:window-maximized="1"
     inkscape:current-layer="svg1"
     showgrid="false" /><defs
     id="defs1"><style
       id="style1">.a { fill:none;stroke:#fff;stroke-linecap:round;stroke-linejoin:round; }
</style></defs><path
     style="fill:none;stroke:#ffffff;stroke-width:1;stroke-linecap:round;stroke-linejoin:round;stroke-dashoffset:1.3;stroke-opacity:1"
     d="M 38.650432,19.138727 A 14.650433,14.638729 0 0 1 24,33.777456 14.650433,14.638729 0 0 1 9.3495675,19.138727 14.650433,14.638729 0 0 1 24,4.4999988 14.650433,14.638729 0 0 1 38.650432,19.138727 Z"
     id="path14193" /><path
     style="fill:none;stroke:#ffffff;stroke-width:1;stroke-linecap:round;stroke-linejoin:round;stroke-dashoffset:1.3;stroke-opacity:1"
     d="M 34.162953,19.138727 A 10.162954,10.154835 0 0 1 24,29.293563 10.162954,10.154835 0 0 1 13.837047,19.138727 10.162954,10.154835 0 0 1 24,8.9838922 10.162954,10.154835 0 0 1 34.162953,19.138727 Z"
     id="path14191" /><path
     style="fill:none;stroke:#ffffff;stroke-width:1;stroke-linecap:round;stroke-linejoin:round;stroke-dashoffset:1.3;stroke-opacity:1"
     d="M 28.302993,19.138727 A 4.3029931,4.2995555 0 0 1 24,23.438283 4.3029931,4.2995555 0 0 1 19.697006,19.138727 4.3029931,4.2995555 0 0 1 24,14.839172 a 4.3029931,4.2995555 0 0 1 4.302993,4.299555 z"
     id="path14189" /><path
     style="fill:none;stroke:#ffffff;stroke-width:1;stroke-linecap:round;stroke-linejoin:round;stroke-dashoffset:1.3;stroke-opacity:1"
     d="m 18.776123,27.655792 a 6.5731415,6.0875488 0 0 1 5.223872,-2.392631 6.5731415,6.0875488 0 0 1 5.223655,2.392368"
     id="path14187" /><path
     style="fill:none;stroke:#ffffff;stroke-width:1;stroke-linecap:round;stroke-linejoin:round;stroke-dashoffset:1.3;stroke-opacity:1"
     d="m 34.355547,29.457761 a 10.842068,10.833406 0 0 1 0.48652,3.208833 v 0 A 10.842068,10.833406 0 0 1 24,43.500001 10.842068,10.833406 0 0 1 13.157932,32.666594 10.842068,10.833406 0 0 1 13.639607,29.473413"
     id="path14185" /><path
     style="fill:none;stroke:#ffffff;stroke-width:1;stroke-linecap:round;stroke-linejoin:round;stroke-dashoffset:1.3;stroke-opacity:1"
     d="M 25.293925,37.360565 A 1.2939252,1.2928915 0 0 1 24,38.653457 1.2939252,1.2928915 0 0 1 22.706074,37.360565 1.2939252,1.2928915 0 0 1 24,36.067674 a 1.2939252,1.2928915 0 0 1 1.293925,1.292891 z"
     id="circle14171" /></svg>
