<?xml version="1.0" encoding="UTF-8" standalone="no"?>
<svg
   viewBox="0 0 48 48"
   version="1.1"
   id="svg1"
   sodipodi:docname="custom_aim.svg"
   inkscape:version="1.2.2 (b0a8486541, 2022-12-01)"
   xml:space="preserve"
   xmlns:inkscape="http://www.inkscape.org/namespaces/inkscape"
   xmlns:sodipodi="http://sodipodi.sourceforge.net/DTD/sodipodi-0.dtd"
   xmlns="http://www.w3.org/2000/svg"
   xmlns:svg="http://www.w3.org/2000/svg"><sodipodi:namedview
     id="namedview1"
     pagecolor="#505050"
     bordercolor="#eeeeee"
     borderopacity="1"
     inkscape:showpageshadow="0"
     inkscape:pageopacity="0"
     inkscape:pagecheckerboard="0"
     inkscape:deskcolor="#505050"
     inkscape:zoom="12.59534"
     inkscape:cx="11.750378"
     inkscape:cy="28.740789"
     inkscape:window-width="1918"
     inkscape:window-height="1053"
     inkscape:window-x="0"
     inkscape:window-y="0"
     inkscape:window-maximized="1"
     inkscape:current-layer="svg1"
     showgrid="false" /><defs
     id="defs1"><style
       id="style1">.a { fill:none;stroke:#fff;stroke-linecap:round;stroke-linejoin:round; }
</style></defs><path
     style="fill:none;stroke:#ffffff;stroke-width:1;stroke-linecap:round;stroke-linejoin:round;stroke-opacity:1"
     d="M 10.561829,7.2171078 A 21.500004,21.5 0 0 1 24.000003,2.5000006 21.500004,21.5 0 0 1 37.44239,7.220481"
     id="path45149" /><path
     style="fill:none;stroke:#ffffff;stroke-width:1;stroke-linecap:round;stroke-linejoin:round;stroke-opacity:1"
     d="m 45.206131,27.542646 a 21.500004,21.5 0 0 1 -4.423237,9.895559"
     id="path45147" /><path
     style="fill:none;stroke:#ffffff;stroke-width:1;stroke-linecap:round;stroke-linejoin:round;stroke-opacity:1"
     d="m 45.467599,22.820019 a 21.500004,21.5 0 0 1 0.0324,1.180013 v 0 a 21.500004,21.5 0 0 1 -0.03238,1.17958"
     id="path45145" /><path
     style="fill:none;stroke:#ffffff;stroke-width:1;stroke-linecap:round;stroke-linejoin:round;stroke-opacity:1"
     d="m 40.779527,10.557726 a 21.500004,21.5 0 0 1 4.426385,9.898399"
     id="path45143" /><path
     style="fill:none;stroke:#ffffff;stroke-width:1;stroke-linecap:round;stroke-linejoin:round;stroke-opacity:1"
     d="M 2.7938732,20.457389 A 21.500004,21.5 0 0 1 7.2171096,10.561826"
     id="path45141" /><path
     style="fill:none;stroke:#ffffff;stroke-width:1;stroke-linecap:round;stroke-linejoin:round;stroke-opacity:1"
     d="M 2.5323844,25.179578 A 21.500004,21.5 0 0 1 2.5000014,24 21.500004,21.5 0 0 1 2.5323784,22.820421"
     id="path45139" /><path
     style="fill:none;stroke:#ffffff;stroke-width:1;stroke-linecap:round;stroke-linejoin:round;stroke-opacity:1"
     d="M 7.217109,37.438173 A 21.500004,21.5 0 0 1 2.7938726,27.542611"
     id="path45137" /><path
     style="fill:none;stroke:#ffffff;stroke-width:1;stroke-linecap:round;stroke-linejoin:round;stroke-opacity:1"
     d="M 37.438179,40.782891 A 21.500004,21.5 0 0 1 24.000003,45.499999 21.500004,21.5 0 0 1 10.561829,40.782891"
     id="path45135" /><path
     style="fill:none;stroke:#ffffff;stroke-width:1;stroke-linecap:round;stroke-linejoin:round;stroke-opacity:1"
     d="m 36.667292,14.684585 a 15.723776,15.723774 0 0 1 2.834162,6.680611"
     id="path45133" /><path
     style="fill:none;stroke:#ffffff;stroke-width:1;stroke-linecap:round;stroke-linejoin:round;stroke-opacity:1"
     d="m 26.640754,8.4995647 a 15.723776,15.723774 0 0 1 6.674665,2.8331503"
     id="path45131" /><path
     style="fill:none;stroke:#ffffff;stroke-width:1;stroke-linecap:round;stroke-linejoin:round;stroke-opacity:1"
     d="M 11.332717,33.315414 A 15.723776,15.723774 0 0 1 8.499569,26.64075"
     id="path45129" /><path
     style="fill:none;stroke:#ffffff;stroke-width:1;stroke-linecap:round;stroke-linejoin:round;stroke-opacity:1"
     d="m 21.359254,39.500434 a 15.723776,15.723774 0 0 1 -6.674665,-2.83315"
     id="path45127" /><path
     style="fill:none;stroke:#ffffff;stroke-width:1;stroke-linecap:round;stroke-linejoin:round;stroke-opacity:1"
     d="M 31.486661,18.870217 A 9.0755004,9.0754989 0 0 1 33.075505,24 v 0 a 9.0755004,9.0754989 0 0 1 -1.587224,5.127415"
     id="path45125" /><path
     style="fill:none;stroke:#ffffff;stroke-width:1;stroke-linecap:round;stroke-linejoin:round;stroke-opacity:1"
     d="m 18.871183,16.512685 a 9.0755004,9.0754989 0 0 1 5.12882,-1.588185 9.0755004,9.0754989 0 0 1 5.131969,1.590342"
     id="path45123" /><path
     style="fill:none;stroke:#ffffff;stroke-width:1;stroke-linecap:round;stroke-linejoin:round;stroke-opacity:1"
     d="M 16.511726,29.127415 A 9.0755004,9.0754989 0 0 1 14.924504,24 9.0755004,9.0754989 0 0 1 16.511728,18.872583"
     id="path45121" /><path
     style="fill:none;stroke:#ffffff;stroke-width:1;stroke-linecap:round;stroke-linejoin:round;stroke-opacity:1"
     d="m 29.128824,31.487316 a 9.0755004,9.0754989 0 0 1 -5.128821,1.588183 9.0755004,9.0754989 0 0 1 -5.12882,-1.588183"
     id="path45119" /><path
     style="fill:none;stroke:#ffffff;stroke-width:1;stroke-linecap:round;stroke-linejoin:round;stroke-opacity:1"
     d="m 28.29238,24 h 6.984485"
     id="path45117" /><path
     style="fill:none;stroke:#ffffff;stroke-width:1;stroke-linecap:round;stroke-linejoin:round;stroke-opacity:1"
     d="m 12.723143,24 h 6.984483"
     id="path45115" /><path
     style="fill:none;stroke:#ffffff;stroke-width:1;stroke-linecap:round;stroke-linejoin:round;stroke-opacity:1"
     d="m 24.000003,28.292375 v 6.984484"
     id="path45113" /><path
     style="fill:none;stroke:#ffffff;stroke-width:1;stroke-linecap:round;stroke-linejoin:round;stroke-opacity:1"
     d="m 24.000003,12.723141 v 6.984483"
     id="path45111" /><path
     style="fill:none;stroke:#ffffff;stroke-width:1;stroke-linecap:round;stroke-linejoin:round;stroke-opacity:1"
     d="M 28.933889,19.066115 44.138268,3.8617397"
     id="path45109" /><path
     style="fill:none;stroke:#ffffff;stroke-width:1;stroke-linecap:round;stroke-linejoin:round;stroke-opacity:1"
     d="M 29.654247,24 A 5.6542437,5.6542427 0 0 1 24.000003,29.654243 5.6542437,5.6542427 0 0 1 18.345758,24 5.6542437,5.6542427 0 0 1 24.000003,18.345758 5.6542437,5.6542427 0 0 1 29.654247,24 Z"
     id="path44627" /><circle
     style="fill:#ffffff;fill-opacity:1;stroke:none;stroke-width:1;stroke-linecap:round;stroke-linejoin:round;stroke-opacity:1"
     id="path44943"
     cx="24"
     cy="24"
     r="0.75" /></svg>
