<?xml version="1.0" encoding="UTF-8" standalone="no"?>
<svg
   viewBox="0 0 48 48"
   version="1.1"
   id="svg1"
   sodipodi:docname="dnevnik_ru.svg"
   inkscape:version="1.2.2 (b0a8486541, 2022-12-01)"
   xml:space="preserve"
   xmlns:inkscape="http://www.inkscape.org/namespaces/inkscape"
   xmlns:sodipodi="http://sodipodi.sourceforge.net/DTD/sodipodi-0.dtd"
   xmlns="http://www.w3.org/2000/svg"
   xmlns:svg="http://www.w3.org/2000/svg"><sodipodi:namedview
     id="namedview1"
     pagecolor="#505050"
     bordercolor="#eeeeee"
     borderopacity="1"
     inkscape:showpageshadow="0"
     inkscape:pageopacity="0"
     inkscape:pagecheckerboard="0"
     inkscape:deskcolor="#505050"
     inkscape:zoom="12.59534"
     inkscape:cx="-3.7315389"
     inkscape:cy="22.071656"
     inkscape:window-width="1918"
     inkscape:window-height="1053"
     inkscape:window-x="0"
     inkscape:window-y="0"
     inkscape:window-maximized="1"
     inkscape:current-layer="svg1"
     showgrid="false" /><defs
     id="defs1"><style
       id="style1">.a { fill:none;stroke:#fff;stroke-linecap:round;stroke-linejoin:round; }
</style></defs><path
     style="fill:none;stroke:#ffffff;stroke-width:1;stroke-linecap:round;stroke-linejoin:round;stroke-opacity:1"
     d="m 17.438236,21.24749 c -0.530113,-2.643021 -1.326646,-7.643273 -1.514593,-10.874401 -0.07015,-1.2059545 0.381114,-2.5720148 1.634153,-2.596561 1.266369,-0.024807 1.944164,0.8155307 2.235485,3.143668 0.405522,3.240783 0.801974,6.077237 1.155652,9.720808"
     id="path13382" /><path
     style="fill:none;stroke:#ffffff;stroke-width:1;stroke-linecap:round;stroke-linejoin:round;stroke-opacity:1"
     d="m 23.078913,20.608959 c 0.604726,-6.475013 0.789209,-9.050318 1.769201,-13.4670488 0.21151,-0.9532589 1.146177,-1.7864556 2.151074,-1.6187715 1.786878,0.2981709 1.487274,1.8703748 1.415534,2.8620988 -0.31147,4.3057075 -0.757038,7.9172775 -1.375465,12.7951425"
     id="path13380" /><path
     style="fill:none;stroke:#ffffff;stroke-width:1;stroke-linecap:round;stroke-linejoin:round;stroke-opacity:1"
     d="m 28.747237,21.842976 c 1.250609,-4.203493 2.147557,-7.297342 3.737751,-11.032323 0.649984,-1.5266545 2.054161,-1.7800623 2.777655,-1.2515484 0.789601,0.5768054 0.562202,1.8329964 0.31374,2.8142254 -0.958165,3.784002 -1.423554,5.953139 -3.28331,11.014793"
     id="path13378" /><path
     style="fill:none;stroke:#ffffff;stroke-width:1;stroke-linecap:round;stroke-linejoin:round;stroke-opacity:1"
     d="m 33.729772,24.991538 c 1.351772,-2.371699 3.010945,-4.65528 4.600484,-6.958822 0.611838,-0.886669 1.670887,-1.017922 2.261525,-0.318351 0.438824,0.51976 0.174781,1.738797 -0.345789,2.728337 -1.11544,2.120312 -2.439938,4.66841 -4.63931,7.114934"
     id="path13376" /><path
     style="fill:none;stroke:#ffffff;stroke-width:1;stroke-linecap:round;stroke-linejoin:round;stroke-opacity:1"
     d="M 13.434224,38.751168 C 10.349697,36.197011 9.3829846,33.557498 7.5586414,30.598475 6.8579465,29.461971 7.1606966,27.801587 8.2912162,27.552768 c 0.8508339,-0.187261 1.8870548,0.542453 2.7514028,1.815614 0.728686,1.073335 1.432169,2.324184 3.001077,3.68276"
     id="path13374" /><path
     style="fill:none;stroke:#ffffff;stroke-width:1;stroke-linecap:round;stroke-linejoin:round;stroke-opacity:1"
     d="m 18.642886,28.697105 c -1.242027,3.238761 -1.779035,6.245311 -1.580102,9.785643 0.134345,2.390877 1.219358,3.206016 3.139662,3.626094 7.076971,1.548132 12.184835,-1.622525 12.951543,-7.30298 0.956063,-7.08336 -6.683835,-12.976003 -16.495965,-9.584732"
     id="path13353" /></svg>
