<?xml version="1.0" encoding="UTF-8" standalone="no"?>
<svg
   viewBox="0 0 48 48"
   version="1.1"
   id="svg1"
   sodipodi:docname="easy_math.svg"
   inkscape:version="1.2.2 (b0a8486541, 2022-12-01)"
   xml:space="preserve"
   xmlns:inkscape="http://www.inkscape.org/namespaces/inkscape"
   xmlns:sodipodi="http://sodipodi.sourceforge.net/DTD/sodipodi-0.dtd"
   xmlns="http://www.w3.org/2000/svg"
   xmlns:svg="http://www.w3.org/2000/svg"><sodipodi:namedview
     id="namedview1"
     pagecolor="#505050"
     bordercolor="#eeeeee"
     borderopacity="1"
     inkscape:showpageshadow="0"
     inkscape:pageopacity="0"
     inkscape:pagecheckerboard="0"
     inkscape:deskcolor="#505050"
     inkscape:zoom="8.90625"
     inkscape:cx="-6.0631579"
     inkscape:cy="32.112281"
     inkscape:window-width="1918"
     inkscape:window-height="1053"
     inkscape:window-x="0"
     inkscape:window-y="0"
     inkscape:window-maximized="1"
     inkscape:current-layer="svg1"
     showgrid="false" /><defs
     id="defs1"><style
       id="style1">.a { fill:none;stroke:#fff;stroke-linecap:round;stroke-linejoin:round; }
</style></defs><path
     style="fill:none;fill-opacity:0;stroke:#ffffff;stroke-width:1;stroke-linecap:round;stroke-linejoin:round;stroke-opacity:1"
     d="m 34.971171,21.29325 -9.0918,11.741363"
     id="path53129" /><path
     style="fill:none;fill-opacity:0;stroke:#ffffff;stroke-width:1;stroke-linecap:round;stroke-linejoin:round;stroke-opacity:1"
     d="M 34.971171,33.034613 25.879371,21.29325"
     id="path53127" /><path
     style="fill:none;fill-opacity:0;stroke:#ffffff;stroke-width:1;stroke-linecap:round;stroke-linejoin:round;stroke-opacity:1"
     d="m 11.334257,20.734313 c 0.443056,0.379872 0.921427,0.55394 1.9957,0.55394 h 0.250281 c 0.885941,0 1.604148,-0.734885 1.604148,-1.641412 v -3e-6 c 0,-0.906525 -0.718207,-1.64141 -1.604148,-1.64141"
     id="path53125" /><path
     style="fill:none;fill-opacity:0;stroke:#ffffff;stroke-width:1;stroke-linecap:round;stroke-linejoin:round;stroke-opacity:1"
     d="m 11.333544,15.269567 c 0.444041,-0.37866 0.922869,-0.551418 1.997135,-0.548477 l 0.249559,0.0015 c 0.885941,0 1.604148,0.734885 1.604148,1.64141 v 3e-6 c 0,0.906526 -0.718207,1.641412 -1.604148,1.641412"
     id="path53123" /><path
     style="fill:none;fill-opacity:0;stroke:#ffffff;stroke-width:1;stroke-linecap:round;stroke-linejoin:round;stroke-opacity:1"
     d="m 12.347155,18.005405 h 1.233092"
     id="path53121" /><path
     style="fill:none;fill-opacity:0;stroke:#ffffff;stroke-width:1;stroke-linecap:round;stroke-linejoin:round;stroke-opacity:1"
     d="m 13.842416,25.89237 4.652166,7.626103 2.003559,-18.537666 h 15.613718"
     id="path53119" /><path
     style="fill:none;fill-opacity:0;stroke:#ffffff;stroke-width:1;stroke-linecap:round;stroke-linejoin:round;stroke-opacity:1"
     d="m 4.4999993,16.982299 v -4.378528 c 0,-0.884143 0.7112222,-1.595927 1.5946665,-1.595927 v 0 h 5.3240492"
     id="path53117" /><path
     style="fill:none;fill-opacity:0;stroke:#ffffff;stroke-width:1;stroke-linecap:round;stroke-linejoin:round;stroke-opacity:1"
     d="M 11.418715,36.992156 H 6.0946658 c -0.8834443,0 -1.5946665,-0.711785 -1.5946665,-1.595928 l -10e-8,-4.376451"
     id="path53115" /><path
     style="fill:none;fill-opacity:0;stroke:#ffffff;stroke-width:1;stroke-linecap:round;stroke-linejoin:round;stroke-opacity:1"
     d="m 43.500001,31.019778 v 4.37645 c 0,0.884143 -0.711222,1.595928 -1.594667,1.595928 h -5.324049"
     id="path53113" /><path
     style="fill:none;fill-opacity:0;stroke:#ffffff;stroke-width:1;stroke-linecap:round;stroke-linejoin:round;stroke-opacity:1"
     d="m 36.581286,11.007843 h 5.324048 c 0.883445,0 1.594667,0.711785 1.594667,1.595927 L 43.5,16.9823"
     id="path53036" /></svg>
