<?xml version="1.0" encoding="UTF-8" standalone="no"?>
<svg
   viewBox="0 0 48 48"
   version="1.1"
   id="svg1"
   sodipodi:docname="fadcam.svg"
   inkscape:version="1.2.2 (b0a8486541, 2022-12-01)"
   xml:space="preserve"
   xmlns:inkscape="http://www.inkscape.org/namespaces/inkscape"
   xmlns:sodipodi="http://sodipodi.sourceforge.net/DTD/sodipodi-0.dtd"
   xmlns="http://www.w3.org/2000/svg"
   xmlns:svg="http://www.w3.org/2000/svg"><sodipodi:namedview
     id="namedview1"
     pagecolor="#505050"
     bordercolor="#eeeeee"
     borderopacity="1"
     inkscape:showpageshadow="0"
     inkscape:pageopacity="0"
     inkscape:pagecheckerboard="0"
     inkscape:deskcolor="#505050"
     inkscape:zoom="17.8125"
     inkscape:cx="8.5894737"
     inkscape:cy="23.859649"
     inkscape:window-width="1918"
     inkscape:window-height="1053"
     inkscape:window-x="0"
     inkscape:window-y="0"
     inkscape:window-maximized="1"
     inkscape:current-layer="svg1"
     showgrid="false" /><defs
     id="defs1"><style
       id="style1">.a { fill:none;stroke:#fff;stroke-linecap:round;stroke-linejoin:round; }
</style></defs><path
     style="fill:none;stroke:#ffffff;stroke-width:1;stroke-linecap:round;stroke-linejoin:round;stroke-opacity:1"
     d="M 35.403082,17.297661 A 11.163731,11.164284 0 0 1 24.239351,28.461945 11.163731,11.164284 0 0 1 13.075621,17.297661 11.163731,11.164284 0 0 1 24.239351,6.1333771 11.163731,11.164284 0 0 1 35.403082,17.297661 Z"
     id="path19717" /><path
     style="fill:none;stroke:#ffffff;stroke-width:1;stroke-linecap:round;stroke-linejoin:round;stroke-opacity:1"
     d="M 5.5000008,41.866622 C 9.4140591,35.344153 15.933147,30.413044 23.999999,30.413044 c 8.066854,0 14.585941,4.931109 18.5,11.453578"
     id="path19715" /><path
     style="fill:none;stroke:#ffffff;stroke-width:1;stroke-linecap:round;stroke-linejoin:round;stroke-opacity:1"
     d="m 21.973002,15.041041 c -0.0096,0.947533 -0.825098,1.710865 -1.827708,1.710865 -1.00261,0 -1.818075,-0.763332 -1.827708,-1.710865 z"
     id="path19713" /><path
     style="fill:none;stroke:#ffffff;stroke-width:1;stroke-linecap:round;stroke-linejoin:round;stroke-opacity:1"
     d="m 26.505701,15.041041 c 0.0096,0.947533 0.825098,1.710865 1.827708,1.710865 1.00261,0 1.818075,-0.763332 1.827708,-1.710865 z"
     id="path18234" /></svg>
