<?xml version="1.0" encoding="UTF-8" standalone="no"?>
<svg
   viewBox="0 0 48 48"
   version="1.1"
   id="svg1"
   sodipodi:docname="fake_gps_2.svg"
   inkscape:version="1.2.2 (b0a8486541, 2022-12-01)"
   xml:space="preserve"
   xmlns:inkscape="http://www.inkscape.org/namespaces/inkscape"
   xmlns:sodipodi="http://sodipodi.sourceforge.net/DTD/sodipodi-0.dtd"
   xmlns="http://www.w3.org/2000/svg"
   xmlns:svg="http://www.w3.org/2000/svg"><sodipodi:namedview
     id="namedview1"
     pagecolor="#505050"
     bordercolor="#eeeeee"
     borderopacity="1"
     inkscape:showpageshadow="0"
     inkscape:pageopacity="0"
     inkscape:pagecheckerboard="0"
     inkscape:deskcolor="#505050"
     inkscape:zoom="8.90625"
     inkscape:cx="-8.5333333"
     inkscape:cy="36.715789"
     inkscape:window-width="1918"
     inkscape:window-height="1053"
     inkscape:window-x="0"
     inkscape:window-y="0"
     inkscape:window-maximized="1"
     inkscape:current-layer="svg1"
     showgrid="false" /><defs
     id="defs1"><style
       id="style1">.a { fill:none;stroke:#fff;stroke-linecap:round;stroke-linejoin:round; }
</style></defs><path
     style="fill:none;stroke:#ffffff;stroke-width:1;stroke-linecap:round;stroke-linejoin:round;stroke-dashoffset:1.3"
     d="M 23.973469,4.5000002"
     id="path2890" /><path
     style="fill:none;stroke:#ffffff;stroke-width:1;stroke-linecap:round;stroke-linejoin:round;stroke-dashoffset:1.3"
     d="M 23.973469,4.5000002"
     id="path2888" /><path
     style="fill:none;stroke:#ffffff;stroke-width:1;stroke-linecap:round;stroke-linejoin:round;stroke-dashoffset:1.3"
     d="M 27.999407,5.1672243 C 26.76726,4.745207 25.447407,4.5114283 24.074504,4.5004117"
     id="path2886" /><path
     style="fill:none;stroke:#ffffff;stroke-width:1;stroke-linecap:round;stroke-linejoin:round;stroke-dashoffset:1.3"
     d="M 34.233854,9.9333994 C 33.486221,8.8306721 32.563577,7.8549685 31.505775,7.0456429"
     id="path2884" /><path
     style="fill:none;stroke:#ffffff;stroke-width:1;stroke-linecap:round;stroke-linejoin:round;stroke-dashoffset:1.3"
     d="m 36.322399,17.475929 c 0.01093,-0.21237 0.01666,-0.43257 0.01693,-0.662061 0.0015,-1.135644 -0.152086,-2.235319 -0.440529,-3.279511"
     id="path2882" /><path
     style="fill:none;stroke:#ffffff;stroke-width:1;stroke-linecap:round;stroke-linejoin:round;stroke-dashoffset:1.3"
     d="m 33.99193,25.048217 c 0.539164,-1.206523 1.007817,-2.348538 1.37157,-3.377997 0.03786,-0.107247 0.07518,-0.213166 0.111698,-0.318289"
     id="path2880" /><path
     style="fill:none;stroke:#ffffff;stroke-width:1;stroke-linecap:round;stroke-linejoin:round;stroke-dashoffset:1.3"
     d="m 30.44744,32.184883 c 0.624871,-1.170022 1.244544,-2.361811 1.832626,-3.538204"
     id="path2878" /><path
     style="fill:none;stroke:#ffffff;stroke-width:1;stroke-linecap:round;stroke-linejoin:round;stroke-dashoffset:1.3"
     d="m 26.559992,39.145017 c 0.602078,-1.037557 1.273467,-2.210631 1.973781,-3.462812"
     id="path2876" /><path
     style="fill:none;stroke:#ffffff;stroke-width:1;stroke-linecap:round;stroke-linejoin:round;stroke-dashoffset:1.3"
     d="m 22.478204,41.007892 c 0.911714,1.542066 1.495265,2.492153 1.495265,2.492153 0,0 0.204202,-0.332358 0.559691,-0.923143"
     id="path2874" /><path
     style="fill:none;stroke:#ffffff;stroke-width:1;stroke-linecap:round;stroke-linejoin:round;stroke-dashoffset:1.3"
     d="m 18.528375,34.085056 c 0.67059,1.222582 1.330383,2.396586 1.946723,3.475952"
     id="path2872" /><path
     style="fill:none;stroke:#ffffff;stroke-width:1;stroke-linecap:round;stroke-linejoin:round;stroke-dashoffset:1.3"
     d="m 14.86339,27.006659 c 0.559158,1.167101 1.163102,2.367518 1.784774,3.563023"
     id="path2870" /><path
     style="fill:none;stroke:#ffffff;stroke-width:1;stroke-linecap:round;stroke-linejoin:round;stroke-dashoffset:1.3"
     d="m 11.936573,19.606389 c 0.17048,0.694979 0.395343,1.352128 0.646864,2.063831 0.190208,0.538223 0.409072,1.107239 0.651663,1.700148"
     id="path2868" /><path
     style="fill:none;stroke:#ffffff;stroke-width:1;stroke-linecap:round;stroke-linejoin:round;stroke-dashoffset:1.3"
     d="M 11.60761,16.813868"
     id="path2866" /><path
     style="fill:none;stroke:#ffffff;stroke-width:1;stroke-linecap:round;stroke-linejoin:round;stroke-dashoffset:1.3"
     d="m 12.664879,11.816556 c -0.531434,1.19086 -0.878259,2.481401 -1.004219,3.83552"
     id="path2864" /><path
     style="fill:none;stroke:#ffffff;stroke-width:1;stroke-linecap:round;stroke-linejoin:round;stroke-dashoffset:1.3"
     d="m 17.973749,6.0432073 c -1.171633,0.6480711 -2.226503,1.480014 -3.125155,2.45666"
     id="path2862" /><path
     style="fill:none;stroke:#ffffff;stroke-width:1;stroke-linecap:round;stroke-linejoin:round;stroke-dashoffset:1.3"
     d="m 23.973469,4.5000002 c -0.769493,3.98e-5 -1.52259,0.070069 -2.253428,0.2040204"
     id="path2860" /><path
     style="fill:none;stroke:#ffffff;stroke-width:1;stroke-linecap:round;stroke-linejoin:round;stroke-dashoffset:1.3"
     d="M 28.718911,17.30918"
     id="path2858" /><path
     style="fill:none;stroke:#ffffff;stroke-width:1;stroke-linecap:round;stroke-linejoin:round;stroke-dashoffset:1.3"
     d="M 28.718911,17.30918"
     id="path2856" /><path
     style="fill:none;stroke:#ffffff;stroke-width:1;stroke-linecap:round;stroke-linejoin:round;stroke-dashoffset:1.3"
     d="m 23.870297,12.584668 c 0.03439,-6.63e-4 0.06878,-0.0011 0.103168,-0.0011 1.258539,0 2.465627,0.497873 3.355615,1.384116 0.03999,0.03982 0.07917,0.08017 0.117563,0.121315"
     id="path2854" /><path
     style="fill:none;stroke:#ffffff;stroke-width:1;stroke-linecap:round;stroke-linejoin:round;stroke-dashoffset:1.3"
     d="M 20.617849,13.967723"
     id="path2852" /><path
     style="fill:none;stroke:#ffffff;stroke-width:1;stroke-linecap:round;stroke-linejoin:round;stroke-dashoffset:1.3"
     d="m 19.272008,17.951237 c -0.02919,-0.211573 -0.04412,-0.426065 -0.04399,-0.642018 -1.33e-4,-1.128477 0.405207,-2.215409 1.135644,-3.06754"
     id="path2850" /><path
     style="fill:none;stroke:#ffffff;stroke-width:1;stroke-linecap:round;stroke-linejoin:round;stroke-dashoffset:1.3"
     d="M 20.617853,20.650582"
     id="path2848" /><path
     style="fill:none;stroke:#ffffff;stroke-width:1;stroke-linecap:round;stroke-linejoin:round;stroke-dashoffset:1.3"
     d="m 25.151233,21.886836 c -0.381614,0.09742 -0.77709,0.147862 -1.177764,0.147862 -0.950103,0 -1.870747,-0.283645 -2.647971,-0.80395"
     id="path2846" /><path
     style="fill:none;stroke:#ffffff;stroke-width:1;stroke-linecap:round;stroke-linejoin:round;stroke-dashoffset:1.3"
     d="M 27.329084,20.650582"
     id="path2844" /><path
     style="fill:none;stroke:#ffffff;stroke-width:1;stroke-linecap:round;stroke-linejoin:round;stroke-dashoffset:1.3"
     d="m 28.718915,17.309219 c 1.33e-4,0.762405 -0.185009,1.505963 -0.530367,2.170944"
     id="path2452" /></svg>
