<?xml version="1.0" encoding="UTF-8" standalone="no"?>
<svg
   viewBox="0 0 48 48"
   version="1.1"
   id="svg1"
   sodipodi:docname="family_care.svg"
   inkscape:version="1.2.2 (b0a8486541, 2022-12-01)"
   xml:space="preserve"
   xmlns:inkscape="http://www.inkscape.org/namespaces/inkscape"
   xmlns:sodipodi="http://sodipodi.sourceforge.net/DTD/sodipodi-0.dtd"
   xmlns="http://www.w3.org/2000/svg"
   xmlns:svg="http://www.w3.org/2000/svg"><sodipodi:namedview
     id="namedview1"
     pagecolor="#505050"
     bordercolor="#eeeeee"
     borderopacity="1"
     inkscape:showpageshadow="0"
     inkscape:pageopacity="0"
     inkscape:pagecheckerboard="0"
     inkscape:deskcolor="#505050"
     inkscape:zoom="8.90625"
     inkscape:cx="9.8807017"
     inkscape:cy="34.357895"
     inkscape:window-width="1918"
     inkscape:window-height="1053"
     inkscape:window-x="0"
     inkscape:window-y="0"
     inkscape:window-maximized="1"
     inkscape:current-layer="svg1"
     showgrid="false" /><defs
     id="defs1"><style
       id="style1">.a { fill:none;stroke:#fff;stroke-linecap:round;stroke-linejoin:round; }
</style></defs><path
     style="fill:none;stroke:#ffffff;stroke-width:1;stroke-linecap:round;stroke-linejoin:round;stroke-opacity:1"
     d="m 26.906345,13.508979 a 8.0111637,8.0089791 0 0 1 -8.011164,8.008979 8.0111637,8.0089791 0 0 1 -8.011164,-8.008979 8.0111637,8.0089791 0 0 1 8.011164,-8.0089793 8.0111637,8.0089791 0 0 1 8.011164,8.0089793 z"
     id="path68832" /><path
     style="fill:none;stroke:#ffffff;stroke-width:1;stroke-linecap:round;stroke-linejoin:round;stroke-opacity:1"
     d="m 32.685165,40.942069 c -0.02976,0.683426 -0.788221,0.931415 -1.754388,1.065556 -6.282344,0.87223 -17.419863,0.5999 -20.439709,-0.93699 C 5.0723599,38.312892 5.3079336,32.752744 9.0680816,28.451667 12.537671,24.482948 17.728289,23.384615 22.487096,24.356485 c 4.611887,0.941866 10.578529,7.849966 10.198069,16.585584 z"
     id="path68830" /><path
     style="fill:none;stroke:#ffffff;stroke-width:1;stroke-linecap:round;stroke-linejoin:round;stroke-opacity:1"
     d="m 30.150271,30.629947 c 2.630096,-1.342544 7.138778,-1.306908 9.637137,1.179366 2.614404,2.601756 2.244103,5.407216 0.537164,7.441108 -1.380177,1.644542 -6.192858,2.642547 -8.429355,2.542782"
     id="path68828" /><path
     style="fill:none;stroke:#ffffff;stroke-width:1;stroke-linecap:round;stroke-linejoin:round;stroke-opacity:1"
     d="m 39.461337,22.115115 a 5.0939522,5.0925631 0 0 1 -5.093952,5.092563 5.0939522,5.0925631 0 0 1 -5.093952,-5.092563 5.0939522,5.0925631 0 0 1 5.093952,-5.092563 5.0939522,5.0925631 0 0 1 5.093952,5.092563 z"
     id="path68785" /></svg>
