<?xml version="1.0" encoding="UTF-8" standalone="no"?>
<svg
   viewBox="0 0 48 48"
   version="1.1"
   id="svg1"
   sodipodi:docname="fitdays.svg"
   inkscape:version="1.2.2 (b0a8486541, 2022-12-01)"
   xml:space="preserve"
   xmlns:inkscape="http://www.inkscape.org/namespaces/inkscape"
   xmlns:sodipodi="http://sodipodi.sourceforge.net/DTD/sodipodi-0.dtd"
   xmlns="http://www.w3.org/2000/svg"
   xmlns:svg="http://www.w3.org/2000/svg"><sodipodi:namedview
     id="namedview1"
     pagecolor="#505050"
     bordercolor="#eeeeee"
     borderopacity="1"
     inkscape:showpageshadow="0"
     inkscape:pageopacity="0"
     inkscape:pagecheckerboard="0"
     inkscape:deskcolor="#505050"
     inkscape:zoom="6.2976698"
     inkscape:cx="-40.173589"
     inkscape:cy="1.5878889"
     inkscape:window-width="1918"
     inkscape:window-height="1053"
     inkscape:window-x="0"
     inkscape:window-y="0"
     inkscape:window-maximized="1"
     inkscape:current-layer="svg1"
     showgrid="false" /><defs
     id="defs1"><style
       id="style1">.a { fill:none;stroke:#fff;stroke-linecap:round;stroke-linejoin:round; }
</style></defs><path
     style="fill:none;stroke:#ffffff;stroke-width:1;stroke-linecap:round;stroke-linejoin:round;stroke-opacity:1"
     d="M 22.004465,24.140004 15.67637,39.275525 c -0.24724,0.591347 -0.841921,0.961624 -1.665721,0.961624 H 6.3421506 c -0.6342853,0 -1.0460668,-0.282775 -0.7622427,-0.961624 L 14.372797,18.244722 c 0.348475,-0.833479 0.873149,-1.192547 1.841237,-1.192547 h 22.095198 c 0.690067,0 0.910432,0.572322 0.651119,1.192547 l -2.013078,4.814874 c -0.286904,0.686215 -0.808903,1.079748 -1.383696,1.079748 z"
     id="path73292" /><path
     style="fill:none;stroke:#ffffff;stroke-width:1;stroke-linecap:round;stroke-linejoin:round;stroke-opacity:1"
     d="m 40.446534,13.751341 c -0.340069,0.836941 -0.873148,1.192548 -1.841236,1.192548 H 16.510099 c -0.690066,0 -0.904176,-0.569747 -0.651118,-1.192548 l 1.948703,-4.795943 c 0.340069,-0.8369412 0.873149,-1.1925473 1.841237,-1.1925473 h 22.095198 c 0.690067,0 0.904177,0.5697458 0.651119,1.1925473 z"
     id="path73259" /></svg>
