<?xml version="1.0" encoding="UTF-8" standalone="no"?>
<svg
   viewBox="0 0 48 48"
   version="1.1"
   id="svg1"
   sodipodi:docname="freebox_connect.svg"
   inkscape:version="1.2.2 (b0a8486541, 2022-12-01)"
   xml:space="preserve"
   xmlns:inkscape="http://www.inkscape.org/namespaces/inkscape"
   xmlns:sodipodi="http://sodipodi.sourceforge.net/DTD/sodipodi-0.dtd"
   xmlns="http://www.w3.org/2000/svg"
   xmlns:svg="http://www.w3.org/2000/svg"><sodipodi:namedview
     id="namedview1"
     pagecolor="#505050"
     bordercolor="#eeeeee"
     borderopacity="1"
     inkscape:showpageshadow="0"
     inkscape:pageopacity="0"
     inkscape:pagecheckerboard="0"
     inkscape:deskcolor="#505050"
     inkscape:zoom="17.8125"
     inkscape:cx="16.449123"
     inkscape:cy="21.501754"
     inkscape:window-width="1918"
     inkscape:window-height="1053"
     inkscape:window-x="0"
     inkscape:window-y="0"
     inkscape:window-maximized="1"
     inkscape:current-layer="svg1"
     showgrid="false" /><defs
     id="defs1"><style
       id="style1">.a { fill:none;stroke:#fff;stroke-linecap:round;stroke-linejoin:round; }
</style></defs><path
     style="fill:none;stroke:#ffffff;stroke-linecap:round;stroke-linejoin:round"
     d="M 8.5981076,42.502001 22.546617,14.524765 C 25.017515,9.5687608 31.600434,3.5130013 39.401893,6.1229499"
     id="path36354" /><path
     style="fill:none;stroke:#ffffff;stroke-linecap:round;stroke-linejoin:round"
     d="M 11.585294,18.116312 H 31.782245"
     id="path36352" /><path
     style="fill:none;stroke:#ffffff;stroke-linecap:round;stroke-linejoin:round"
     d="m 45.5,38.5 a 7,7 0 0 1 -7,7 7,7 0 0 1 -7,-7 7,7 0 0 1 7,-7 7,7 0 0 1 7,7 z"
     id="path36350" /><path
     style="fill:none;stroke:#ffffff;stroke-linecap:round;stroke-linejoin:round"
     d="M 41.15,39.81723 V 39.85 c 0,1.463553 -1.18645,2.649998 -2.65,2.649998 h -1e-5 C 37.03644,42.499998 35.85,41.313553 35.85,39.85 v -2.700001 c 0,-1.463555 1.18644,-2.65 2.65,-2.649997 v 0 c 1.46355,2e-6 2.65,1.186445 2.65,2.649997 v 0.03277"
     id="path1056" /></svg>
