<?xml version="1.0" encoding="UTF-8" standalone="no"?>
<svg
   viewBox="0 0 48 48"
   version="1.1"
   id="svg1"
   sodipodi:docname="goskey.svg"
   inkscape:version="1.2.2 (b0a8486541, 2022-12-01)"
   xml:space="preserve"
   xmlns:inkscape="http://www.inkscape.org/namespaces/inkscape"
   xmlns:sodipodi="http://sodipodi.sourceforge.net/DTD/sodipodi-0.dtd"
   xmlns="http://www.w3.org/2000/svg"
   xmlns:svg="http://www.w3.org/2000/svg"><sodipodi:namedview
     id="namedview1"
     pagecolor="#505050"
     bordercolor="#eeeeee"
     borderopacity="1"
     inkscape:showpageshadow="0"
     inkscape:pageopacity="0"
     inkscape:pagecheckerboard="0"
     inkscape:deskcolor="#505050"
     inkscape:zoom="12.59534"
     inkscape:cx="26.835323"
     inkscape:cy="19.848611"
     inkscape:window-width="1918"
     inkscape:window-height="1053"
     inkscape:window-x="0"
     inkscape:window-y="0"
     inkscape:window-maximized="1"
     inkscape:current-layer="svg1"
     showgrid="false" /><defs
     id="defs1"><style
       id="style1">.a { fill:none;stroke:#fff;stroke-linecap:round;stroke-linejoin:round; }
</style></defs><path
     style="fill:none;stroke:#ffffff;stroke-width:1;stroke-linecap:round;stroke-linejoin:round;stroke-opacity:1"
     d="m 27.782555,26.051514 c -0.420342,0.415015 -1.090271,0.417662 -1.507982,0 l -5.114777,-5.114176 c -0.417711,-0.417662 -0.412464,-1.084961 0,-1.507805 l 4.734062,-4.85321 c 1.03116,-1.057109 2.725677,-1.044155 3.769955,0 l 2.942599,2.942253 c 1.044278,1.044154 1.050777,2.731896 0,3.769511 z"
     id="path27840" /><path
     style="fill:none;stroke:#ffffff;stroke-width:1;stroke-linecap:round;stroke-linejoin:round;stroke-opacity:1"
     d="m 26.875624,18.288057 a 1.4273032,1.4271355 0 0 1 2.018512,-10e-7 1.4273032,1.4271355 0 0 1 0,2.018274 1.4273032,1.4271355 0 0 1 -2.018512,0 1.4273032,1.4271355 0 0 1 0,-2.018273 z"
     id="path27838" /><path
     style="fill:none;stroke:#ffffff;stroke-width:1;stroke-linecap:round;stroke-linejoin:round;stroke-opacity:1"
     d="m 22.077382,21.854287 -2.504957,2.504663 0.418229,0.65083 -5.618117,5.617456 0.166409,2.861001 2.307625,0.0015 0.83793,-0.837833 v -1.920096 l 1.921794,-0.0015 0.795225,-0.795131 v -1.920096 l 1.92032,1e-6 2.958532,-2.958184"
     id="path27836" /><path
     style="fill:none;stroke:#ffffff;stroke-width:1;stroke-linecap:round;stroke-linejoin:round;stroke-opacity:1"
     d="m 40.022047,14.75 c 1.449408,2.510359 1.368579,6.351285 1.368579,9.25 0,2.898714 0.08084,6.739641 -1.368579,9.249999 -1.449409,2.510361 -4.816285,4.360825 -7.326734,5.810183 C 30.184864,40.509538 26.898819,42.5 24.000001,42.5 21.101182,42.5 17.815136,40.509538 15.304688,39.060182 12.794238,37.610824 9.4273625,35.76036 7.977953,33.249999 6.528544,30.739641 6.6093739,26.898714 6.6093739,24 c 0,-2.898715 -0.080829,-6.739641 1.3685791,-9.25 1.4494095,-2.51036 4.816285,-4.360826 7.326735,-5.8101826 C 17.815136,7.4904614 21.101182,5.4999996 24,5.4999996 c 2.898819,0 6.184864,1.9904618 8.695313,3.4398178 2.510449,1.4493566 5.877325,3.2998226 7.326734,5.8101826 z"
     id="path27799" /></svg>
