<?xml version="1.0" encoding="UTF-8" standalone="no"?>
<svg
   viewBox="0 0 48 48"
   version="1.1"
   id="svg1"
   sodipodi:docname="government_services_auto.svg"
   inkscape:version="1.2.2 (b0a8486541, 2022-12-01)"
   xml:space="preserve"
   xmlns:inkscape="http://www.inkscape.org/namespaces/inkscape"
   xmlns:sodipodi="http://sodipodi.sourceforge.net/DTD/sodipodi-0.dtd"
   xmlns="http://www.w3.org/2000/svg"
   xmlns:svg="http://www.w3.org/2000/svg"><sodipodi:namedview
     id="namedview1"
     pagecolor="#505050"
     bordercolor="#eeeeee"
     borderopacity="1"
     inkscape:showpageshadow="0"
     inkscape:pageopacity="0"
     inkscape:pagecheckerboard="0"
     inkscape:deskcolor="#505050"
     inkscape:zoom="17.8125"
     inkscape:cx="7.6070175"
     inkscape:cy="21.389474"
     inkscape:window-width="1918"
     inkscape:window-height="1053"
     inkscape:window-x="0"
     inkscape:window-y="0"
     inkscape:window-maximized="1"
     inkscape:current-layer="svg1"
     showgrid="false" /><defs
     id="defs1"><style
       id="style1">.a { fill:none;stroke:#fff;stroke-linecap:round;stroke-linejoin:round; }
</style></defs><path
     style="fill:none;stroke:#ffffff;stroke-linecap:round;stroke-linejoin:round;stroke-opacity:1"
     d="M 9.2670527,13.423696 C 10.93221,11.555796 13.69554,9.9152669 15.605941,8.78803 17.926946,7.4185161 21.519449,5.3135422 24.199515,5.3135421 v 0 c 2.680064,-2e-7 6.272567,2.1049734 8.593571,3.474487 2.321004,1.3695139 5.900974,3.4966739 7.241006,5.8687429 1.340032,2.372067 1.352567,6.6042 1.352567,9.343227 0,2.739029 -0.01253,6.971162 -1.352567,9.34323 -1.340032,2.372068 -4.920001,4.499228 -7.241005,5.868741 -2.321004,1.369514 -5.913509,3.474488 -8.593573,3.474488 -2.680065,0 -6.272567,-2.104974 -8.593571,-3.474487 C 13.69554,38.084733 10.93221,36.444204 9.2670523,34.576303"
     id="path80551" /><path
     style="fill:none;stroke:#ffffff;stroke-linecap:round;stroke-linejoin:round;stroke-opacity:1"
     d="m 15.590378,28.621035 a 2.9768367,2.9768367 0 0 1 -2.976834,2.976836 2.9768367,2.9768367 0 0 1 -2.9768364,-2.976836 2.9768367,2.9768367 0 0 1 2.9768364,-2.976837 2.9768367,2.9768367 0 0 1 2.976837,2.976837 z"
     id="path80549" /><path
     style="fill:none;stroke:#ffffff;stroke-linecap:round;stroke-linejoin:round;stroke-opacity:1"
     d="m 33.253532,28.621035 a 2.9768367,2.9768367 0 0 1 -2.976836,2.976836 2.9768367,2.9768367 0 0 1 -2.976837,-2.976836 2.9768367,2.9768367 0 0 1 2.976837,-2.976837 2.9768367,2.9768367 0 0 1 2.976836,2.976837 z"
     id="path80547" /><path
     style="fill:none;stroke:#ffffff;stroke-linecap:round;stroke-linejoin:round;stroke-opacity:1"
     d="M 9.7014836,28.137522 H 8.7112854 c -2.5564617,0 -2.3912421,-3.433233 -1.5134614,-5.910881 0.771874,-2.178713 2.0359713,-4.383284 4.454363,-5.161612 1.801367,-0.579746 3.644436,-0.692891 5.87933,-0.692891 h 3.745793 c 1.718629,0 2.861071,0.718692 4.078754,1.578752 l 4.766213,3.366417 c 2.231751,0.912167 4.47907,1.479028 6.166329,2.458887 1.34544,0.781351 1.116052,4.361328 -1.295084,4.361328 v 0 h -1.78509"
     id="path80545" /><path
     style="fill:none;stroke:#ffffff;stroke-linecap:round;stroke-linejoin:round;stroke-opacity:1"
     d="M 27.362944,28.137522 H 15.546972"
     id="path80400" /></svg>
