<?xml version="1.0" encoding="UTF-8" standalone="no"?>
<svg
   viewBox="0 0 48 48"
   version="1.1"
   id="svg1"
   sodipodi:docname="hacker_x.svg"
   inkscape:version="1.2.2 (b0a8486541, 2022-12-01)"
   xml:space="preserve"
   xmlns:inkscape="http://www.inkscape.org/namespaces/inkscape"
   xmlns:sodipodi="http://sodipodi.sourceforge.net/DTD/sodipodi-0.dtd"
   xmlns="http://www.w3.org/2000/svg"
   xmlns:svg="http://www.w3.org/2000/svg"><sodipodi:namedview
     id="namedview1"
     pagecolor="#505050"
     bordercolor="#eeeeee"
     borderopacity="1"
     inkscape:showpageshadow="0"
     inkscape:pageopacity="0"
     inkscape:pagecheckerboard="0"
     inkscape:deskcolor="#505050"
     inkscape:zoom="17.8125"
     inkscape:cx="12.687719"
     inkscape:cy="28.238596"
     inkscape:window-width="1918"
     inkscape:window-height="1053"
     inkscape:window-x="0"
     inkscape:window-y="0"
     inkscape:window-maximized="1"
     inkscape:current-layer="svg1"
     showgrid="false" /><defs
     id="defs1"><style
       id="style1">.a { fill:none;stroke:#fff;stroke-linecap:round;stroke-linejoin:round; }
</style></defs><g
     id="g54007" /><g
     id="g54003" /><path
     style="fill:none;fill-opacity:0;stroke:#ffffff;stroke-width:1;stroke-linecap:round;stroke-linejoin:round;stroke-opacity:1"
     d="m 13.383986,15.409266 c -7.4359538,-2.316694 -5.5456106,0.598674 -3.342712,4.12622 -1.0221504,1.562552 -1.2527511,2.284887 -2.3787027,3.675563 -0.8752674,1.081054 -1.8547084,1.776154 -3.1625723,1.858516 0.017976,1.074237 0.8380822,1.681953 2.1934644,2.316069 -0.3189786,0.429883 -0.8381311,0.788972 -1.5643812,1.04395 2.7093308,4.892126 11.0563168,8.598601 18.8709168,8.598601 7.8146,0 16.161587,-3.706475 18.870918,-8.598601 -0.72625,-0.254978 -1.245402,-0.614067 -1.564381,-1.04395 1.355382,-0.634116 2.175488,-1.241832 2.193465,-2.316069 -1.307864,-0.08236 -2.287305,-0.777462 -3.162573,-1.858516 -1.125951,-1.390676 -1.356553,-2.113011 -2.378703,-3.675563 2.202899,-3.527546 4.093243,-6.442914 -3.342713,-4.12622 -2.278583,-2.860332 -5.509633,-4.437451 -10.616013,-4.437451 -5.10638,0 -8.33743,1.577119 -10.616013,4.437451 z"
     id="path54078" /><path
     style="fill:none;fill-opacity:0;stroke:#ffffff;stroke-width:1;stroke-linecap:round;stroke-linejoin:round;stroke-opacity:1"
     d="m 19.942325,24.87712 c -1.332223,0.687258 -1.816287,0.764324 -2.902744,0.764324 -2.705807,0 -4.899296,-1.76088 -4.899296,-3.933037 0,-2.172156 2.19349,-3.933036 4.899296,-3.933036 1.252405,0 2.308185,0.306857 3.261235,0.997913 0.95305,0.691055 1.707514,2.358044 3.699184,2.358044 1.991669,0 2.746134,-1.666989 3.699184,-2.358044 0.95305,-0.691056 2.008829,-0.997913 3.261234,-0.997913 2.705807,0 4.899296,1.76088 4.899296,3.933036 0,2.172157 -2.193488,3.933037 -4.899296,3.933037 -1.086456,0 -1.57052,-0.07707 -2.902744,-0.764324 C 26.725451,24.189857 26.334271,23.150288 24,23.150288 c -2.334271,0 -2.725452,1.039569 -4.057675,1.726832 z"
     id="path54076" /><path
     style="fill:none;fill-opacity:0;stroke:#ffffff;stroke-width:1;stroke-linecap:round;stroke-linejoin:round;stroke-opacity:1"
     d="m 18.452041,21.774984 a 1.0533854,0.87470722 0 0 1 -1.053386,0.874707 1.0533854,0.87470722 0 0 1 -1.053385,-0.874707 1.0533854,0.87470722 0 0 1 1.053385,-0.874707 1.0533854,0.87470722 0 0 1 1.053386,0.874707 z"
     id="path54074" /><path
     style="fill:none;fill-opacity:0;stroke:#ffffff;stroke-width:1;stroke-linecap:round;stroke-linejoin:round;stroke-opacity:1"
     d="m 29.54796,21.774984 a 1.0533854,0.87470722 0 0 0 1.053386,0.874707 1.0533854,0.87470722 0 0 0 1.053385,-0.874707 1.0533854,0.87470722 0 0 0 -1.053385,-0.874707 1.0533854,0.87470722 0 0 0 -1.053386,0.874707 z"
     id="path54072" /><path
     style="fill:none;fill-opacity:0;stroke:#ffffff;stroke-width:1;stroke-linecap:round;stroke-linejoin:round;stroke-opacity:1"
     d="m 18.43797,29.517161 a 1.9263796,1.9245797 0 0 1 -1.92638,1.92458 1.9263796,1.9245797 0 0 1 -1.926378,-1.92458 1.9263796,1.9245797 0 0 1 1.926378,-1.92458 1.9263796,1.9245797 0 0 1 1.92638,1.92458 z"
     id="path54070" /><path
     style="fill:none;fill-opacity:0;stroke:#ffffff;stroke-width:1;stroke-linecap:round;stroke-linejoin:round;stroke-opacity:1"
     d="m 33.41479,29.517161 a 1.9263796,1.9245797 0 0 1 -1.926379,1.92458 1.9263796,1.9245797 0 0 1 -1.92638,-1.92458 1.9263796,1.9245797 0 0 1 1.92638,-1.92458 1.9263796,1.9245797 0 0 1 1.926379,1.92458 z"
     id="path54068" /><path
     style="fill:none;fill-opacity:0;stroke:#ffffff;stroke-width:1;stroke-linecap:round;stroke-linejoin:round;stroke-opacity:1"
     d="m 24,31.471318 v 1.503758"
     id="path54066" /><path
     style="fill:none;fill-opacity:0;stroke:#ffffff;stroke-width:1;stroke-linecap:round;stroke-linejoin:round;stroke-opacity:1"
     d="M 28.432403,27.741144 C 27.874117,28.38845 26.904748,28.828202 25.971802,28.74127 25.145375,28.66427 24.126871,28.118034 24,27.126381 c -0.126871,0.991653 -1.145376,1.537888 -1.971803,1.614889 -0.932945,0.08693 -1.902314,-0.35282 -2.460601,-1.000126"
     id="path54064" /><path
     style="fill:none;fill-opacity:0;stroke:#ffffff;stroke-width:1;stroke-linecap:round;stroke-linejoin:round;stroke-opacity:1"
     d="M 25.293635,28.577388 A 1.3135923,1.3123649 0 0 1 24,29.661864 1.3135923,1.3123649 0 0 1 22.706364,28.577388"
     id="path53998" /></svg>
