<?xml version="1.0" encoding="UTF-8" standalone="no"?>
<svg
   viewBox="0 0 48 48"
   version="1.1"
   id="svg1"
   sodipodi:docname="hiddify.svg"
   inkscape:version="1.2.2 (b0a8486541, 2022-12-01)"
   xml:space="preserve"
   xmlns:inkscape="http://www.inkscape.org/namespaces/inkscape"
   xmlns:sodipodi="http://sodipodi.sourceforge.net/DTD/sodipodi-0.dtd"
   xmlns="http://www.w3.org/2000/svg"
   xmlns:svg="http://www.w3.org/2000/svg"><sodipodi:namedview
     id="namedview1"
     pagecolor="#505050"
     bordercolor="#eeeeee"
     borderopacity="1"
     inkscape:showpageshadow="0"
     inkscape:pageopacity="0"
     inkscape:pagecheckerboard="0"
     inkscape:deskcolor="#505050"
     inkscape:zoom="12.59534"
     inkscape:cx="27.391084"
     inkscape:cy="20.086795"
     inkscape:window-width="1918"
     inkscape:window-height="1053"
     inkscape:window-x="0"
     inkscape:window-y="0"
     inkscape:window-maximized="1"
     inkscape:current-layer="svg1"
     showgrid="false" /><defs
     id="defs1"><style
       id="style1">.a { fill:none;stroke:#fff;stroke-linecap:round;stroke-linejoin:round; }
</style></defs><path
     style="fill:none;stroke:#ffffff;stroke-width:1;stroke-linecap:round;stroke-linejoin:round;stroke-opacity:1"
     d="m 33.577942,19.375578 h 8.14593 c 0.429974,0 0.776128,0.346691 0.776128,0.777334 V 39.93768 c 0,0.430644 -0.346154,0.777335 -0.776128,0.777335 h -8.14593 c -0.429975,0 -0.776128,-0.346691 -0.776128,-0.777335 V 20.152912 c 0,-0.430643 0.346153,-0.777334 0.776128,-0.777334 z"
     id="path24931" /><path
     style="fill:none;stroke:#ffffff;stroke-width:1;stroke-linecap:round;stroke-linejoin:round;stroke-opacity:1"
     d="m 41.723872,7.2849855 c 0.429974,0 0.776128,0.346692 0.776128,0.777335 v 8.3586355 c 0,0.430643 -0.346154,0.777334 -0.776128,0.777334 h -8.14593 c -0.429975,0 -0.776128,-0.346691 -0.776128,-0.777334 v -3.765543 z"
     id="path24929" /><path
     style="fill:none;stroke:#ffffff;stroke-width:1;stroke-linecap:round;stroke-linejoin:round;stroke-opacity:1"
     d="m 28.060119,15.310743 c 0.429974,0 0.776128,0.346692 0.776128,0.777335 V 39.93768 c 0,0.430644 -0.346154,0.777335 -0.776128,0.777335 h -8.14593 c -0.429975,0 -0.77613,-0.346691 -0.77613,-0.777335 V 20.68117 Z"
     id="path24927" /><path
     style="fill:none;stroke:#ffffff;stroke-width:1;stroke-linecap:round;stroke-linejoin:round;stroke-opacity:1"
     d="m 14.422058,23.460481 c 0.429975,0 0.776128,0.346692 0.776128,0.777335 V 39.93768 c 0,0.430644 -0.346153,0.777335 -0.776128,0.777335 H 6.2761275 c -0.429975,0 -0.776128,-0.346691 -0.776128,-0.777335 V 28.830908 Z"
     id="path24925" /><path
     style="fill:none;stroke:#ffffff;stroke-width:1;stroke-linecap:round;stroke-linejoin:round;stroke-opacity:1"
     d="m 15.198719,34.87881 3.940484,-1e-6"
     id="path24880" /></svg>
