<?xml version="1.0" encoding="UTF-8" standalone="no"?>
<svg
   viewBox="0 0 48 48"
   version="1.1"
   id="svg1"
   sodipodi:docname="human_benchmark.svg"
   inkscape:version="1.2.2 (b0a8486541, 2022-12-01)"
   xml:space="preserve"
   xmlns:inkscape="http://www.inkscape.org/namespaces/inkscape"
   xmlns:sodipodi="http://sodipodi.sourceforge.net/DTD/sodipodi-0.dtd"
   xmlns="http://www.w3.org/2000/svg"
   xmlns:svg="http://www.w3.org/2000/svg"><sodipodi:namedview
     id="namedview1"
     pagecolor="#505050"
     bordercolor="#eeeeee"
     borderopacity="1"
     inkscape:showpageshadow="0"
     inkscape:pageopacity="0"
     inkscape:pagecheckerboard="0"
     inkscape:deskcolor="#505050"
     inkscape:zoom="17.8125"
     inkscape:cx="18.189474"
     inkscape:cy="22.792982"
     inkscape:window-width="1918"
     inkscape:window-height="1053"
     inkscape:window-x="0"
     inkscape:window-y="0"
     inkscape:window-maximized="1"
     inkscape:current-layer="svg1"
     showgrid="false" /><defs
     id="defs1"><style
       id="style1">.a { fill:none;stroke:#fff;stroke-linecap:round;stroke-linejoin:round; }
</style></defs><path
     style="fill:none;stroke:#ffffff;stroke-width:1;stroke-linecap:round;stroke-linejoin:round;stroke-opacity:1"
     d="m 25.299641,10.20957 c -3.606821,4.599805 1.23306,15.292425 -1.623713,24.977839"
     id="path23869" /><path
     style="fill:none;stroke:#ffffff;stroke-width:1;stroke-linecap:round;stroke-linejoin:round;stroke-opacity:1"
     d="M 30.852872,8.6428097 C 26.301658,10.528642 31.29096,14.67938 27.63111,15.789981 25.812748,16.341771 24.525118,15.247753 23.98518,13.93075"
     id="path23867" /><path
     style="fill:none;stroke:#ffffff;stroke-width:1;stroke-linecap:round;stroke-linejoin:round;stroke-opacity:1"
     d="m 30.851139,18.37429 c -0.49652,4.138745 -5.075542,4.202455 -6.799732,0.663351"
     id="path23865" /><path
     style="fill:none;stroke:#ffffff;stroke-width:1;stroke-linecap:round;stroke-linejoin:round;stroke-opacity:1"
     d="m 28.396138,26.425742 c -0.72245,1.064318 -3.103474,0.984094 -3.797087,-0.130257"
     id="path23863" /><path
     style="fill:none;stroke:#ffffff;stroke-width:1;stroke-linecap:round;stroke-linejoin:round;stroke-opacity:1"
     d="m 30.07737,27.980105 0.07545,-1.498774 c 0.04725,-0.938713 0.704399,-1.691681 1.847483,-1.656987 0.739342,0.02244 1.466513,0.895727 1.46686,1.693491 l 5.84e-4,1.34559 c 3.59e-4,0.826788 0.439883,1.722137 2.060957,1.662582 1.465238,-0.05383 1.940326,-1.414765 1.690652,-2.908331"
     id="path23861" /><path
     style="fill:none;stroke:#ffffff;stroke-width:1;stroke-linecap:round;stroke-linejoin:round;stroke-opacity:1"
     d="m 28.330449,38.63008 c -1.215151,-1.01585 -2.039928,-2.725594 -1.097941,-4.047264 0.741282,-1.040069 2.931591,-1.422713 3.750475,-0.195145 0.813431,1.219393 0.162529,2.046667 0.148528,2.917984 -0.0091,0.568027 0.445964,1.159205 1.464883,1.073452"
     id="path23859" /><path
     style="fill:none;stroke:#ffffff;stroke-width:1;stroke-linecap:round;stroke-linejoin:round;stroke-opacity:1"
     d="m 20.854553,31.431052 c 3.296352,-5.363324 -2.173255,-4.757813 0.197499,-8.278161 1.516454,-2.251792 -2.255616,-6.066633 -5.571742,-4.421688"
     id="path23857" /><path
     style="fill:none;stroke:#ffffff;stroke-width:1;stroke-linecap:round;stroke-linejoin:round;stroke-opacity:1"
     d="m 38.332007,32.028205 c 1.608659,-0.798172 3.730949,-6.704464 0.602984,-8.121224 -1.557011,-0.705223 -1.764779,0.597809 -3.184244,0.432218 -0.630984,-0.07361 -1.357645,-0.34196 -1.70955,-2.007551"
     id="path23855" /><path
     style="fill:none;stroke:#ffffff;stroke-width:1;stroke-linecap:round;stroke-linejoin:round;stroke-opacity:1"
     d="m 28.357438,30.591794 c 3.538343,-0.703192 5.525228,1.289911 6.407679,3.305159 0.23355,0.533355 1.300752,0.802627 1.391383,0.06885 0.161959,-1.311283 1.31819,-2.409087 2.542038,-1.521452 2.533417,1.837443 -0.18015,7.251831 -3.057793,5.744817"
     id="path23853" /><path
     style="fill:none;stroke:#ffffff;stroke-width:1;stroke-linecap:round;stroke-linejoin:round;stroke-opacity:1"
     d="m 37.235137,14.757152 c -1.020334,0.875256 -0.661966,1.768996 -0.320413,2.937814 0.320652,1.097297 -0.0044,2.0733 -1.501669,2.254583 C 32.603352,20.289736 32.95526,16.306865 34.13353,13.178458 36.838504,5.9965146 28.371543,2.7660092 23.94035,9.0853011 22.597139,7.4373259 20.651903,5.3220876 17.183022,5.5116561 c -2.92557,0.1598774 -5.198565,1.68837 -5.643876,5.5479809"
     id="path23851" /><path
     style="fill:none;stroke:#ffffff;stroke-width:1;stroke-linecap:round;stroke-linejoin:round;stroke-opacity:1"
     d="m 34.651838,10.281327 c 5.899725,1.201176 7.975148,7.399105 3.113145,13.454699"
     id="path23849" /><path
     style="fill:none;stroke:#ffffff;stroke-width:1;stroke-linecap:round;stroke-linejoin:round;stroke-opacity:1"
     d="m 33.937028,36.765344 c 4.137007,1.86069 0.383921,5.75725 -3.838871,5.715613 -2.581869,-0.02546 -5.11097,-0.955979 -6.42551,-2.816167 -2.801884,2.941264 -7.878933,4.089164 -10.185138,1.027447 -2.427643,-3.222939 0.09631,-4.288777 -0.0089,-6.961885 -0.07113,-1.807278 -2.532097,-1.237337 -1.763342,-5.016114"
     id="path23847" /><path
     style="fill:none;stroke:#ffffff;stroke-width:1;stroke-linecap:round;stroke-linejoin:round;stroke-opacity:1"
     d="M 12.432963,37.926411 C 9.3534855,37.101399 7.6382798,33.545109 7.4737429,31.166622 c -0.237946,-3.439667 1.9172956,-6.414507 5.0935781,-6.321666 4.634493,0.135465 6.287986,5.060309 4.846785,8.954912 1.867463,-0.447521 3.404,1.038042 2.852908,2.925024 -0.715385,2.449538 -3.180982,1.907416 -3.954744,1.091424"
     id="path23845" /><path
     style="fill:none;stroke:#ffffff;stroke-width:1;stroke-linecap:round;stroke-linejoin:round;stroke-opacity:1"
     d="m 11.706229,20.529144 c -0.192357,1.7677 0.0959,3.10079 1.330502,4.347913"
     id="path23843" /><path
     style="fill:none;stroke:#ffffff;stroke-width:1;stroke-linecap:round;stroke-linejoin:round;stroke-opacity:1"
     d="M 9.7188595,25.727201 C 7.6036091,23.646583 6.1866792,19.875054 9.1389485,17.557352 11.053978,16.053944 13.80437,16.835791 14.871023,18.01659 c 1.079184,1.194672 1.155955,2.995729 0.886577,4.680301"
     id="path23841" /><path
     style="fill:none;stroke:#ffffff;stroke-width:1;stroke-linecap:round;stroke-linejoin:round;stroke-opacity:1"
     d="m 12.137904,13.621724 c -0.493466,1.07273 -0.464801,2.037098 0.126002,3.150634"
     id="path23839" /><path
     style="fill:none;stroke:#ffffff;stroke-width:1;stroke-linecap:round;stroke-linejoin:round;stroke-opacity:1"
     d="m 9.0705965,17.616493 c -1.3824618,-1.862818 -0.7802923,-4.501219 0.532485,-5.651517 1.7316325,-1.517312 4.3156485,-1.05434 5.6104535,0.05318 1.585141,1.355861 1.854208,4.041675 4.046595,3.649702 1.885978,-0.33719 2.554973,-3.215033 0.716642,-4.302584 C 19.402019,11.02525 18.862498,10.996465 18.40748,10.893716 17.707899,10.735741 16.959431,10.082812 17.281321,8.4953756"
     id="path23644" /></svg>
