<?xml version="1.0" encoding="UTF-8" standalone="no"?>
<svg
   viewBox="0 0 48 48"
   version="1.1"
   id="svg1"
   sodipodi:docname="imagine.svg"
   inkscape:version="1.2.2 (b0a8486541, 2022-12-01)"
   xml:space="preserve"
   xmlns:inkscape="http://www.inkscape.org/namespaces/inkscape"
   xmlns:sodipodi="http://sodipodi.sourceforge.net/DTD/sodipodi-0.dtd"
   xmlns="http://www.w3.org/2000/svg"
   xmlns:svg="http://www.w3.org/2000/svg"><sodipodi:namedview
     id="namedview1"
     pagecolor="#505050"
     bordercolor="#eeeeee"
     borderopacity="1"
     inkscape:showpageshadow="0"
     inkscape:pageopacity="0"
     inkscape:pagecheckerboard="0"
     inkscape:deskcolor="#505050"
     inkscape:zoom="8.90625"
     inkscape:cx="0.44912281"
     inkscape:cy="28.182456"
     inkscape:window-width="1918"
     inkscape:window-height="1053"
     inkscape:window-x="0"
     inkscape:window-y="0"
     inkscape:window-maximized="1"
     inkscape:current-layer="svg1"
     showgrid="false" /><defs
     id="defs1"><style
       id="style1">.a { fill:none;stroke:#fff;stroke-linecap:round;stroke-linejoin:round; }
</style></defs><path
     style="fill:none;stroke:#ffffff;stroke-width:1;stroke-linecap:round;stroke-linejoin:round;stroke-opacity:1"
     d="m 43.521687,23.019265 c 0.06858,1.369267 -3.239353,7.77829 -3.864577,8.998516 -0.625209,1.220225 -3.894925,7.648958 -5.046676,8.39318 -1.151754,0.744197 -8.357844,1.084603 -9.727513,1.153413 -1.36967,0.06906 -8.573589,0.452364 -9.794174,-0.172658 C 13.868165,40.766654 9.9702555,34.698012 9.2258115,33.546595 8.4813695,32.395179 4.5471451,26.350001 4.4783156,24.980732 4.4094846,23.611464 7.7176655,17.202443 8.3428925,15.982218 8.9681195,14.761991 12.237816,8.3332611 13.389568,7.5890361 c 1.151753,-0.744224 8.357844,-1.0846054 9.727513,-1.153415 1.369669,-0.06881 8.57359,-0.4523633 9.794173,0.172683 1.220583,0.625046 5.118494,6.6936859 5.862935,7.8450999 0.744425,1.151417 4.67867,7.196594 4.747498,8.565861 z"
     id="path10130" /><path
     style="fill:none;stroke:#ffffff;stroke-width:1;stroke-linecap:round;stroke-linejoin:round;stroke-opacity:1"
     d="m 38.439977,8.0599141 c 1.997846,1.807845 3.164963,7.4450979 3.990569,10.0092919 0.825623,2.564193 3.166943,7.823594 2.599083,10.457062 -0.567886,2.633468 -4.869068,6.463174 -6.678226,8.46028 -1.809156,1.997107 -5.196044,6.654183 -7.761744,7.479808 C 28.023957,45.29197 22.555622,43.48443 19.920856,42.917338 17.286091,42.350253 11.557874,41.747931 9.5600255,39.940085 7.5621795,38.132233 6.3950592,32.494984 5.5694538,29.930791 4.7438459,27.366598 2.4025156,22.107196 2.9703692,19.473729 3.5382237,16.840261 7.8394385,13.010554 9.6485975,11.01345 11.457757,9.0163441 14.844643,4.3592635 17.410344,3.5336427 c 2.5657,-0.8256215 8.034037,0.9819249 10.668801,1.5490138 2.634765,0.567088 8.362978,1.1694101 10.360832,2.9772576 z"
     id="path10128" /><path
     style="fill:none;stroke:#ffffff;stroke-width:1;stroke-linecap:round;stroke-linejoin:round;stroke-opacity:1"
     d="m 28.80362,3.0377503 c 2.626846,0.6008996 6.401325,4.9485008 8.375324,6.7820578 1.973994,1.8335569 6.588101,5.2777379 7.380322,7.8526509 0.792178,2.574915 -1.087644,8.017749 -1.689484,10.644072 -0.601838,2.626324 -1.279508,8.344166 -3.114134,10.318178 -1.834625,1.974017 -7.488972,3.069249 -10.064805,3.862017 -2.575834,0.79276 -7.867613,3.066427 -10.494458,2.465519 C 16.569538,44.361346 12.79506,40.013747 10.821063,38.180189 8.8470645,36.346634 4.2329562,32.902452 3.4407381,30.32754 2.648521,27.752627 4.5283838,22.309791 5.1302208,19.683467 5.7320578,17.057144 6.4097266,11.339302 8.2443545,9.3652891 10.078985,7.3912771 15.733328,6.296042 18.30916,5.5032769 20.884995,4.71051 26.176773,2.4368492 28.80362,3.0377503 Z"
     id="path10057" /></svg>
