<?xml version="1.0" encoding="UTF-8" standalone="no"?>
<svg
   viewBox="0 0 48 48"
   version="1.1"
   id="svg1"
   sodipodi:docname="impulse.svg"
   inkscape:version="1.2.2 (b0a8486541, 2022-12-01)"
   xml:space="preserve"
   xmlns:inkscape="http://www.inkscape.org/namespaces/inkscape"
   xmlns:sodipodi="http://sodipodi.sourceforge.net/DTD/sodipodi-0.dtd"
   xmlns="http://www.w3.org/2000/svg"
   xmlns:svg="http://www.w3.org/2000/svg"><sodipodi:namedview
     id="namedview1"
     pagecolor="#505050"
     bordercolor="#eeeeee"
     borderopacity="1"
     inkscape:showpageshadow="0"
     inkscape:pageopacity="0"
     inkscape:pagecheckerboard="0"
     inkscape:deskcolor="#505050"
     inkscape:zoom="12.59534"
     inkscape:cx="-3.4139612"
     inkscape:cy="16.831622"
     inkscape:window-width="1918"
     inkscape:window-height="1053"
     inkscape:window-x="0"
     inkscape:window-y="0"
     inkscape:window-maximized="1"
     inkscape:current-layer="svg1"
     showgrid="false" /><defs
     id="defs1"><style
       id="style1">.a { fill:none;stroke:#fff;stroke-linecap:round;stroke-linejoin:round; }
</style></defs><path
     id="path1293"
     style="fill:none;stroke:#ffffff;stroke-width:1;stroke-linecap:round;stroke-linejoin:round;stroke-dashoffset:1.3;stroke-opacity:1"
     d="M 42.731678,28.554343 V 14.428425 c 0,-2.342168 -1.885572,-4.22774 -4.227739,-4.22774 h -0.905905 c -2.342168,0 -4.236185,1.885572 -4.236195,4.22774 l -8.3e-5,19.142842 c -1e-5,2.342167 -1.885572,4.227739 -4.22774,4.227739 h -0.905905 c -2.342168,0 -4.22774,-1.885572 -4.22774,-4.227739 V 14.428425 c 0,-2.342168 -1.886094,-4.225526 -4.228262,-4.227123 l -0.905905,-6.17e-4 c -2.342168,-0.0016 -4.236185,1.885572 -4.236195,4.22774 l -8.3e-5,19.142842 c -10e-6,2.342167 -1.885572,4.227739 -4.22774,4.227739 H 9.4962815 c -2.3421678,0 -4.2276671,-1.885572 -4.2277398,-4.227739 L 5.268102,19.445348"
     sodipodi:nodetypes="cssssssssssssssssc" /><path
     id="path1514"
     style="fill:#ffffff;stroke-width:1;stroke-linecap:round;stroke-linejoin:round;stroke-dashoffset:1.3;stroke-opacity:0.520189"
     d="m 5.2683219,9.4509941 c 0.4155,0 0.75,0.334499 0.75,0.7499999 0,0.415499 -0.3345,0.749999 -0.75,0.749999 -0.4155,0 -0.75,-0.3345 -0.75,-0.749999 0,-0.4155009 0.3345,-0.7499999 0.75,-0.7499999 z" /><path
     id="path1516"
     style="fill:#ffffff;stroke-width:1;stroke-linecap:round;stroke-linejoin:round;stroke-dashoffset:1.3;stroke-opacity:0.520189"
     d="m 42.731678,37.049008 c 0.4155,0 0.75,0.334499 0.75,0.749999 0,0.415499 -0.3345,0.749999 -0.75,0.749999 -0.4155,0 -0.75,-0.3345 -0.75,-0.749999 0,-0.4155 0.3345,-0.749999 0.75,-0.749999 z" /></svg>
