<?xml version="1.0" encoding="UTF-8" standalone="no"?>
<svg
   viewBox="0 0 48 48"
   version="1.1"
   id="svg1"
   sodipodi:docname="indsmart.svg"
   inkscape:version="1.2.2 (b0a8486541, 2022-12-01)"
   xml:space="preserve"
   xmlns:inkscape="http://www.inkscape.org/namespaces/inkscape"
   xmlns:sodipodi="http://sodipodi.sourceforge.net/DTD/sodipodi-0.dtd"
   xmlns="http://www.w3.org/2000/svg"
   xmlns:svg="http://www.w3.org/2000/svg"><sodipodi:namedview
     id="namedview1"
     pagecolor="#505050"
     bordercolor="#eeeeee"
     borderopacity="1"
     inkscape:showpageshadow="0"
     inkscape:pageopacity="0"
     inkscape:pagecheckerboard="0"
     inkscape:deskcolor="#505050"
     inkscape:zoom="8.90625"
     inkscape:cx="9.3192982"
     inkscape:cy="8.5333333"
     inkscape:window-width="1918"
     inkscape:window-height="1053"
     inkscape:window-x="0"
     inkscape:window-y="0"
     inkscape:window-maximized="1"
     inkscape:current-layer="svg1"
     showgrid="false" /><defs
     id="defs1"><style
       id="style1">.a { fill:none;stroke:#fff;stroke-linecap:round;stroke-linejoin:round; }
</style></defs><path
     style="fill:none;fill-opacity:0;stroke:#ffffff;stroke-width:1;stroke-linecap:round;stroke-linejoin:round;stroke-opacity:1"
     d="m 25.644749,19.456955 c 0.545812,0.0028 1.137444,0.1371 1.751353,0.432105 l -1.347714,3.537859 2.369478,-1.01781 c -0.997921,0.836594 -1.76454,1.909532 -2.146548,3.185085 4.759219,-2.255415 7.597584,2.832308 4.315052,5.462076 l -2.565387,-2.646642 -0.121599,2.834 c -0.212567,-1.599021 -0.929826,-3.327146 -2.296858,-5.104238 -0.966837,5.631963 -5.362622,6.174441 -6.942927,1.763864 l 3.739149,-0.604271 -2.36779,-1.546125 c 1.318077,0.42212 2.866587,0.584676 4.644381,0.396658 -3.578235,-2.898283 -1.977979,-6.707278 0.96941,-6.692561 z"
     id="path63844" /><path
     style="fill:none;fill-opacity:0;stroke:#ffffff;stroke-width:1;stroke-linecap:round;stroke-linejoin:round;stroke-opacity:1"
     d="M 31.771954,7.9960492 30.76539,11.002216 C 25.232065,8.5993243 17.810752,9.1438755 15.413598,14.550202 c -1.359805,3.066788 -0.972312,6.506603 1.025142,8.854774 l -4.74909,-3.102379 -6.1896942,10.25574 3.6141731,-0.531692 c 1.6629031,6.451275 6.3050851,10.35671 11.0688271,9.929972 3.675089,-0.329216 6.832712,-2.717383 7.603274,-6.091665 l -0.263462,6.138926 12.321965,-0.25825 -2.320502,-2.128453 C 42.269562,33.783967 44.316487,27.394362 40.550679,23.104528 38.58895,20.869817 35.6579,20.095516 32.938961,20.468013 l 4.624114,-1.98667 z"
     id="path63389" /></svg>
