<?xml version="1.0" encoding="UTF-8" standalone="no"?>
<svg
   viewBox="0 0 48 48"
   version="1.1"
   id="svg1"
   sodipodi:docname="jornada_do_estudante.svg"
   inkscape:version="1.2.2 (b0a8486541, 2022-12-01)"
   xml:space="preserve"
   xmlns:inkscape="http://www.inkscape.org/namespaces/inkscape"
   xmlns:sodipodi="http://sodipodi.sourceforge.net/DTD/sodipodi-0.dtd"
   xmlns="http://www.w3.org/2000/svg"
   xmlns:svg="http://www.w3.org/2000/svg"><sodipodi:namedview
     id="namedview1"
     pagecolor="#505050"
     bordercolor="#eeeeee"
     borderopacity="1"
     inkscape:showpageshadow="0"
     inkscape:pageopacity="0"
     inkscape:pagecheckerboard="0"
     inkscape:deskcolor="#505050"
     inkscape:zoom="17.8125"
     inkscape:cx="20.884211"
     inkscape:cy="24.02807"
     inkscape:window-width="1918"
     inkscape:window-height="1053"
     inkscape:window-x="0"
     inkscape:window-y="0"
     inkscape:window-maximized="1"
     inkscape:current-layer="svg1"
     showgrid="false" /><defs
     id="defs1"><style
       id="style1">.a { fill:none;stroke:#fff;stroke-linecap:round;stroke-linejoin:round; }
</style></defs><path
     style="fill:none;stroke:#ffffff;stroke-width:1;stroke-linecap:round;stroke-linejoin:round;stroke-dashoffset:1.3;stroke-opacity:1"
     d="m 38.668515,10.345071 a 5.8461438,5.84507 0 0 1 -5.846144,5.84507 5.8461438,5.84507 0 0 1 -5.846144,-5.84507 5.8461438,5.84507 0 0 1 5.846144,-5.84507 5.8461438,5.84507 0 0 1 5.846144,5.84507 z"
     id="path15119" /><path
     style="fill:none;stroke:#ffffff;stroke-width:1;stroke-linecap:round;stroke-linejoin:round;stroke-dashoffset:1.3;stroke-opacity:1"
     d="m 20.235358,16.712329 a 4.8604854,4.8595927 0 0 1 -4.860484,4.859593 4.8604854,4.8595927 0 0 1 -4.860486,-4.859593 4.8604854,4.8595927 0 0 1 4.860486,-4.859593 4.8604854,4.8595927 0 0 1 4.860484,4.859593 z"
     id="path15117" /><path
     style="fill:none;stroke:#ffffff;stroke-width:1;stroke-linecap:round;stroke-linejoin:round;stroke-dashoffset:1.3;stroke-opacity:1"
     d="m 16.37752,31.204688 a 3.5230171,3.5223701 0 0 1 -3.523018,3.52237 3.5230171,3.5223701 0 0 1 -3.5230169,-3.52237 3.5230171,3.5223701 0 0 1 3.5230169,-3.52237 3.5230171,3.5223701 0 0 1 3.523018,3.52237 z"
     id="path15115" /><path
     style="fill:none;stroke:#ffffff;stroke-width:1;stroke-linecap:round;stroke-linejoin:round;stroke-dashoffset:1.3;stroke-opacity:1"
     d="m 24.522602,40.378675 a 3.1218978,3.1213244 0 0 1 -3.121897,3.121324 3.1218978,3.1213244 0 0 1 -3.121898,-3.121324 3.1218978,3.1213244 0 0 1 3.121898,-3.121324 3.1218978,3.1213244 0 0 1 3.121897,3.121324 z"
     id="path15113" /><path
     style="fill:none;stroke:#ffffff;stroke-width:1;stroke-linecap:round;stroke-linejoin:round;stroke-dashoffset:1.3;stroke-opacity:1"
     d="m 20.488884,16.728254 c 2.096799,-1.587578 4.626185,-2.604203 7.31981,-2.799464"
     id="path15111" /><path
     style="fill:none;stroke:#ffffff;stroke-width:1;stroke-linecap:round;stroke-linejoin:round;stroke-dashoffset:1.3;stroke-opacity:1"
     d="M 15.671507,11.601997 C 18.979373,8.5911939 23.292538,6.8329157 27.539718,7.1678824"
     id="path15109" /><path
     style="fill:none;stroke:#ffffff;stroke-width:1;stroke-linecap:round;stroke-linejoin:round;stroke-dashoffset:1.3;stroke-opacity:1"
     d="m 14.84564,27.969285 c -0.02295,-2.229642 0.512296,-4.355092 1.467916,-6.247707"
     id="path15107" /><path
     style="fill:none;stroke:#ffffff;stroke-width:1;stroke-linecap:round;stroke-linejoin:round;stroke-dashoffset:1.3;stroke-opacity:1"
     d="M 10.347361,28.357656 C 9.4768198,25.069073 9.7228879,21.840149 10.753002,18.931905"
     id="path15105" /><path
     style="fill:none;stroke:#ffffff;stroke-width:1;stroke-linecap:round;stroke-linejoin:round;stroke-dashoffset:1.3;stroke-opacity:1"
     d="m 19.004537,38.070365 c -1.35107,-1.554758 -2.341435,-3.149771 -3.016079,-4.743039"
     id="path15103" /><path
     style="fill:none;stroke:#ffffff;stroke-width:1;stroke-linecap:round;stroke-linejoin:round;stroke-dashoffset:1.3;stroke-opacity:1"
     d="m 18.197742,39.472212 c -1.843488,-1.474727 -3.344865,-3.003978 -4.540467,-4.55921"
     id="path14995" /></svg>
