<?xml version="1.0" encoding="UTF-8" standalone="no"?>
<svg
   viewBox="0 0 48 48"
   version="1.1"
   id="svg1"
   sodipodi:docname="lg_soundbar.svg"
   inkscape:version="1.2.2 (b0a8486541, 2022-12-01)"
   xml:space="preserve"
   xmlns:inkscape="http://www.inkscape.org/namespaces/inkscape"
   xmlns:sodipodi="http://sodipodi.sourceforge.net/DTD/sodipodi-0.dtd"
   xmlns="http://www.w3.org/2000/svg"
   xmlns:svg="http://www.w3.org/2000/svg"><sodipodi:namedview
     id="namedview1"
     pagecolor="#505050"
     bordercolor="#eeeeee"
     borderopacity="1"
     inkscape:showpageshadow="0"
     inkscape:pageopacity="0"
     inkscape:pagecheckerboard="0"
     inkscape:deskcolor="#505050"
     inkscape:zoom="12.59534"
     inkscape:cx="7.5424721"
     inkscape:cy="27.073505"
     inkscape:window-width="1918"
     inkscape:window-height="1053"
     inkscape:window-x="0"
     inkscape:window-y="0"
     inkscape:window-maximized="1"
     inkscape:current-layer="svg1"
     showgrid="false" /><defs
     id="defs1"><style
       id="style1">.a { fill:none;stroke:#fff;stroke-linecap:round;stroke-linejoin:round; }
</style></defs><path
     style="fill:none;stroke:#ffffff;stroke-width:1;stroke-linecap:round;stroke-linejoin:round;stroke-opacity:1"
     d="m 43.366063,28.118641 v 2.278545"
     id="path57213" /><path
     style="fill:none;stroke:#ffffff;stroke-width:1;stroke-linecap:round;stroke-linejoin:round;stroke-opacity:1"
     d="m 40.78346,28.118641 v 2.278545"
     id="path57211" /><path
     style="fill:none;stroke:#ffffff;stroke-width:1;stroke-linecap:round;stroke-linejoin:round;stroke-opacity:1"
     d="m 38.200858,28.118641 v 2.278545"
     id="path57209" /><path
     style="fill:none;stroke:#ffffff;stroke-width:1;stroke-linecap:round;stroke-linejoin:round;stroke-opacity:1"
     d="m 35.618255,28.118641 v 2.278545"
     id="path57207" /><path
     style="fill:none;stroke:#ffffff;stroke-width:1;stroke-linecap:round;stroke-linejoin:round;stroke-opacity:1"
     d="m 33.035653,28.118641 v 2.278545"
     id="path57205" /><path
     style="fill:none;stroke:#ffffff;stroke-width:1;stroke-linecap:round;stroke-linejoin:round;stroke-opacity:1"
     d="m 30.45305,28.118641 v 2.278545"
     id="path57203" /><path
     style="fill:none;stroke:#ffffff;stroke-width:1;stroke-linecap:round;stroke-linejoin:round;stroke-opacity:1"
     d="m 27.870448,28.118641 v 2.278545"
     id="path57201" /><path
     style="fill:none;stroke:#ffffff;stroke-width:1;stroke-linecap:round;stroke-linejoin:round;stroke-opacity:1"
     d="m 25.287845,28.118641 v 2.278545"
     id="path57199" /><path
     style="fill:none;stroke:#ffffff;stroke-width:1;stroke-linecap:round;stroke-linejoin:round;stroke-opacity:1"
     d="m 22.705242,28.118641 v 2.278545"
     id="path57197" /><path
     style="fill:none;stroke:#ffffff;stroke-width:1;stroke-linecap:round;stroke-linejoin:round;stroke-opacity:1"
     d="m 20.12264,28.118641 v 2.278545"
     id="path57195" /><path
     style="fill:none;stroke:#ffffff;stroke-width:1;stroke-linecap:round;stroke-linejoin:round;stroke-opacity:1"
     d="m 17.540037,28.118641 v 2.278545"
     id="path57193" /><path
     style="fill:none;stroke:#ffffff;stroke-width:1;stroke-linecap:round;stroke-linejoin:round;stroke-opacity:1"
     d="m 14.957435,28.118641 v 2.278545"
     id="path57191" /><path
     style="fill:none;stroke:#ffffff;stroke-width:1;stroke-linecap:round;stroke-linejoin:round;stroke-opacity:1"
     d="m 12.374832,28.118641 v 2.278545"
     id="path57189" /><path
     style="fill:none;stroke:#ffffff;stroke-width:1;stroke-linecap:round;stroke-linejoin:round;stroke-opacity:1"
     d="m 9.7922296,28.118641 v 2.278545"
     id="path57187" /><path
     style="fill:none;stroke:#ffffff;stroke-width:1;stroke-linecap:round;stroke-linejoin:round;stroke-opacity:1"
     d="m 7.2096266,28.118641 v 2.278545"
     id="path57185" /><path
     style="fill:none;stroke:#ffffff;stroke-width:1;stroke-linecap:round;stroke-linejoin:round;stroke-opacity:1"
     d="m 4.627024,28.118641 v 2.278545"
     id="path57183" /><path
     style="fill:none;stroke:#ffffff;stroke-width:1;stroke-linecap:round;stroke-linejoin:round;stroke-opacity:1"
     d="m 15.608083,19.765756 v 2.64323 c 0,0.884737 0.682077,1.601957 1.523472,1.601957 h 7e-6 c 0.841395,0 1.523479,-0.71722 1.523479,-1.601957 v -2.64323"
     id="path57181" /><path
     style="fill:none;stroke:#ffffff;stroke-width:1;stroke-linecap:round;stroke-linejoin:round;stroke-opacity:1"
     d="m 18.655035,22.408992 v 1.601957"
     id="path57179" /><path
     style="fill:none;stroke:#ffffff;stroke-width:1;stroke-linecap:round;stroke-linejoin:round;stroke-opacity:1"
     d="m 41.980017,21.367714 c 0,-0.884737 0.682085,-1.601958 1.523478,-1.601958 h 9e-6"
     id="path57177" /><path
     style="fill:none;stroke:#ffffff;stroke-width:1;stroke-linecap:round;stroke-linejoin:round;stroke-opacity:1"
     d="m 41.980018,19.76576 v 4.245189"
     id="path57175" /><path
     style="fill:none;stroke:#ffffff;stroke-width:1;stroke-linecap:round;stroke-linejoin:round;stroke-opacity:1"
     d="m 4.6171791,23.308849 c 0.3736791,0.511554 0.8422555,0.7021 1.4941597,0.7021 h 0.9021813 c 0.839579,0 1.520199,-0.715676 1.520199,-1.598507 v -0.0072 c 0,-0.882831 -0.68062,-1.598514 -1.520199,-1.598514 H 6.018338 c -0.840488,0 -1.5218335,-0.716443 -1.5218335,-1.600226 v -9e-6 c 0,-0.885681 0.6828155,-1.603679 1.5251167,-1.603679 h 0.8972604 c 0.6519021,0 1.1204763,0.190544 1.4941552,0.702098"
     id="path57173" /><path
     style="fill:none;stroke:#ffffff;stroke-width:1;stroke-linecap:round;stroke-linejoin:round;stroke-opacity:1"
     d="m 39.694534,22.408986 c 0,0.884737 -0.682084,1.601957 -1.523479,1.601957 h -7e-6 c -0.841387,0 -1.523479,-0.71722 -1.523479,-1.601957 v -1.041272 c 0,-0.884737 0.682092,-1.601958 1.523479,-1.601958 h 7e-6 c 0.841395,0 1.523479,0.717221 1.523479,1.601958"
     id="path57171" /><path
     style="fill:none;stroke:#ffffff;stroke-width:1;stroke-linecap:round;stroke-linejoin:round;stroke-opacity:1"
     d="M 39.694538,24.010949 V 19.76576"
     id="path57169" /><path
     style="fill:none;stroke:#ffffff;stroke-width:1;stroke-linecap:round;stroke-linejoin:round;stroke-opacity:1"
     d="m 23.931228,24.010943 v -2.643229 c 0,-0.884737 -0.682084,-1.601958 -1.523479,-1.601958 h -7e-6 c -0.841395,0 -1.523472,0.717221 -1.523472,1.601958"
     id="path57167" /><path
     style="fill:none;stroke:#ffffff;stroke-width:1;stroke-linecap:round;stroke-linejoin:round;stroke-opacity:1"
     d="M 20.884272,24.010949 V 19.76576"
     id="path57165" /><path
     style="fill:none;stroke:#ffffff;stroke-width:1;stroke-linecap:round;stroke-linejoin:round;stroke-opacity:1"
     d="m 29.068277,21.367714 c 0,-0.884737 -0.682084,-1.601958 -1.523478,-1.601958 h -7e-6 c -0.841395,0 -1.523471,0.717221 -1.523471,1.601958 v 1.041272 c 0,0.884737 0.682075,1.601957 1.523471,1.601957 h 7e-6 c 0.841394,0 1.523479,-0.71722 1.523479,-1.601957"
     id="path57163" /><path
     style="fill:none;stroke:#ffffff;stroke-width:1;stroke-linecap:round;stroke-linejoin:round;stroke-opacity:1"
     d="M 29.068276,24.010949 V 17.60312"
     id="path57161" /><path
     style="fill:none;stroke:#ffffff;stroke-width:1;stroke-linecap:round;stroke-linejoin:round;stroke-opacity:1"
     d="m 31.593423,21.367714 c 0,-0.884737 0.682091,-1.601958 1.523478,-1.601958 h 9e-6 c 0.841394,0 1.523478,0.717221 1.523478,1.601958 v 1.041272 c 0,0.884737 -0.682084,1.601957 -1.523478,1.601957 h -9e-6 c -0.841387,0 -1.523479,-0.71722 -1.523479,-1.601957"
     id="path57159" /><path
     style="fill:none;stroke:#ffffff;stroke-width:1;stroke-linecap:round;stroke-linejoin:round;stroke-opacity:1"
     d="M 31.59343,24.010949 V 17.60312"
     id="path57157" /><path
     style="fill:none;stroke:#ffffff;stroke-width:1;stroke-linecap:round;stroke-linejoin:round;stroke-opacity:1"
     d="m 10.471032,21.367719 c 0,-0.884738 0.682085,-1.601958 1.523479,-1.601958 0.841395,0 1.523479,0.71722 1.523479,1.601958 v 1.041272 c 0,0.884737 -0.682084,1.601958 -1.523479,1.601958 -0.841394,0 -1.523478,-0.717221 -1.523478,-1.601958 z"
     id="path1847" /></svg>
