<?xml version="1.0" encoding="UTF-8" standalone="no"?>
<svg
   viewBox="0 0 48 48"
   version="1.1"
   id="svg1"
   sodipodi:docname="lotus_lantern.svg"
   inkscape:version="1.2.2 (b0a8486541, 2022-12-01)"
   xml:space="preserve"
   xmlns:inkscape="http://www.inkscape.org/namespaces/inkscape"
   xmlns:sodipodi="http://sodipodi.sourceforge.net/DTD/sodipodi-0.dtd"
   xmlns="http://www.w3.org/2000/svg"
   xmlns:svg="http://www.w3.org/2000/svg"><sodipodi:namedview
     id="namedview1"
     pagecolor="#505050"
     bordercolor="#eeeeee"
     borderopacity="1"
     inkscape:showpageshadow="0"
     inkscape:pageopacity="0"
     inkscape:pagecheckerboard="0"
     inkscape:deskcolor="#505050"
     inkscape:zoom="12.59534"
     inkscape:cx="3.9697223"
     inkscape:cy="10.083095"
     inkscape:window-width="1918"
     inkscape:window-height="1053"
     inkscape:window-x="0"
     inkscape:window-y="0"
     inkscape:window-maximized="1"
     inkscape:current-layer="svg1"
     showgrid="false" /><defs
     id="defs1"><style
       id="style1">.a { fill:none;stroke:#fff;stroke-linecap:round;stroke-linejoin:round; }
</style></defs><path
     style="fill:none;stroke:#ffffff;stroke-width:1;stroke-linecap:round;stroke-linejoin:round;stroke-opacity:1"
     d="m 19.051856,28.776384 c -2.343632,-7.84198 0.630847,-16.23854 4.866085,-20.0236769 5.442205,4.4665799 5.363796,12.6280939 4.685052,20.1526549"
     id="path4083" /><path
     style="fill:none;stroke:#ffffff;stroke-width:1;stroke-linecap:round;stroke-linejoin:round;stroke-opacity:1"
     d="M 13.192982,29.623732 C 10.275425,23.619946 10.133028,18.1591 12.157462,13.883547 c 4.885363,1.787555 6.921341,7.065662 8.326658,12.880041"
     id="path4081" /><path
     style="fill:none;stroke:#ffffff;stroke-width:1;stroke-linecap:round;stroke-linejoin:round;stroke-opacity:1"
     d="M 17.993476,29.82616 C 14.621515,25.191939 10.453051,22.101735 4.5546949,22.197567 3.9909332,26.676345 7.8707308,31.737299 13.302858,35.744634"
     id="path4079" /><path
     style="fill:none;stroke:#ffffff;stroke-width:1;stroke-linecap:round;stroke-linejoin:round;stroke-opacity:1"
     d="m 34.807019,29.623732 c 2.917557,-6.003786 3.059954,-11.464632 1.035519,-15.740185 -4.885363,1.787555 -6.92134,7.065662 -8.326657,12.880041"
     id="path4077" /><path
     style="fill:none;stroke:#ffffff;stroke-width:1;stroke-linecap:round;stroke-linejoin:round;stroke-opacity:1"
     d="m 30.006521,29.82616 c 3.371966,-4.634221 7.54043,-7.724425 13.438784,-7.628593 0.563763,4.478778 -3.316034,9.539732 -8.748163,13.547067"
     id="path4075" /><path
     style="fill:none;stroke:#ffffff;stroke-width:1;stroke-linecap:round;stroke-linejoin:round;stroke-opacity:1"
     d="m 27.935985,39.247277 -7.068849,-7.085342 -3.17047,3.177868 h 13.014453 l -3.17047,-3.177868 -7.068849,7.085342"
     id="path3327" /></svg>
