<?xml version="1.0" encoding="UTF-8" standalone="no"?>
<svg
   viewBox="0 0 48 48"
   version="1.1"
   id="svg1"
   sodipodi:docname="lumosity.svg"
   inkscape:version="1.2.2 (b0a8486541, 2022-12-01)"
   xml:space="preserve"
   xmlns:inkscape="http://www.inkscape.org/namespaces/inkscape"
   xmlns:sodipodi="http://sodipodi.sourceforge.net/DTD/sodipodi-0.dtd"
   xmlns="http://www.w3.org/2000/svg"
   xmlns:svg="http://www.w3.org/2000/svg"><sodipodi:namedview
     id="namedview1"
     pagecolor="#505050"
     bordercolor="#eeeeee"
     borderopacity="1"
     inkscape:showpageshadow="0"
     inkscape:pageopacity="0"
     inkscape:pagecheckerboard="0"
     inkscape:deskcolor="#505050"
     inkscape:zoom="6.2976698"
     inkscape:cx="1.7466778"
     inkscape:cy="20.801345"
     inkscape:window-width="1918"
     inkscape:window-height="1053"
     inkscape:window-x="0"
     inkscape:window-y="0"
     inkscape:window-maximized="1"
     inkscape:current-layer="svg1"
     showgrid="false" /><defs
     id="defs1"><style
       id="style1">.a { fill:none;stroke:#fff;stroke-linecap:round;stroke-linejoin:round; }
</style></defs><path
     style="fill:none;stroke:#ffffff;stroke-width:1;stroke-linecap:round;stroke-linejoin:round;stroke-opacity:1"
     d="m 27.90737,42.500014 v -7.435627 h 8.170767 V 25.77276 h 3.972099 L 37.368874,15.775175 C 35.736292,9.6880173 29.70779,5.4999974 23.051574,5.4999974 c -8.34049,0 -15.1017944,6.7549516 -15.1017944,15.0876056 0,4.868483 2.3080814,9.198391 5.8906784,11.95713 v 7.003744 z"
     id="path2264" /><path
     style="fill:none;stroke:#ffffff;stroke-width:1;stroke-linecap:round;stroke-linejoin:round;stroke-opacity:1"
     d="M 18.643197,40.142151 V 24.738316 h -2.30883 c -0.821072,0 -1.48112,-0.69449 -1.48112,-1.556847 0,-0.695842 0.430038,-1.28163 1.027618,-1.482139 h -2.670359 c -1.014305,0 -1.835721,-0.823054 -1.835721,-1.836406 0,-1.001164 0.802087,-1.812152 1.799537,-1.831586 -0.813585,-0.206363 -1.383593,-0.93755 -1.384629,-1.776157 4.68e-4,-1.012693 0.822075,-1.833528 1.83572,-1.833996 0.160464,4.9e-5 0.320228,0.02112 0.475212,0.06266 -0.219632,-0.308389 -0.338397,-0.677089 -0.340126,-1.055572 4.68e-4,-1.012693 0.822076,-1.833529 1.835721,-1.833996 0.507413,5.19e-4 0.992001,0.210746 1.338797,0.580805 0.121556,-0.07691 0.246747,-0.151254 0.376311,-0.224129 -0.09773,-0.226894 -0.148601,-0.471165 -0.14956,-0.718174 4.69e-4,-1.012692 0.822076,-1.8335278 1.835721,-1.8339958 0.844508,0.0016 1.57908,0.578358 1.780239,1.3977888 0.157648,-0.02454 0.320608,-0.04562 0.484862,-0.06506 -0.01653,-0.09555 -0.02534,-0.192249 -0.02653,-0.289198 -8.64e-4,-1.0145748 0.822603,-1.8372688 1.838133,-1.8364058 1.014587,4.68e-4 1.836585,0.822772 1.835721,1.8364058 -0.0012,0.09695 -0.01,0.193656 -0.02653,0.289198 0.165059,0.01953 0.328888,0.04037 0.487274,0.06506 0.200942,-0.8185608 0.934219,-1.3950738 1.777827,-1.3977888 1.013645,4.68e-4 1.835252,0.8213038 1.83572,1.8339958 -1.95e-4,0.246843 -0.05024,0.491109 -0.147146,0.718174 0.129267,0.07275 0.255026,0.147355 0.37631,0.224129 0.346222,-0.369449 0.829812,-0.579622 1.336386,-0.580805 1.013645,4.67e-4 1.835253,0.821303 1.835721,1.833996 -0.0012,0.379306 -0.120024,0.748922 -0.340128,1.057982 0.154877,-0.04235 0.314643,-0.06423 0.475214,-0.06506 1.013645,4.67e-4 1.835252,0.821303 1.83572,1.833995 -10e-4,0.838608 -0.571045,1.569796 -1.38463,1.776158 0.997449,0.01943 1.801949,0.830422 1.801949,1.831586 0,1.013352 -0.823829,1.836406 -1.838133,1.836406 h -7.856692 c -2.690414,0 -4.002079,0.612188 -4.002079,3.094348 v 15.86079"
     id="path2221" /></svg>
