<?xml version="1.0" encoding="UTF-8" standalone="no"?>
<svg
   viewBox="0 0 48 48"
   version="1.1"
   id="svg1"
   sodipodi:docname="magic_home.svg"
   inkscape:version="1.2.2 (b0a8486541, 2022-12-01)"
   xml:space="preserve"
   xmlns:inkscape="http://www.inkscape.org/namespaces/inkscape"
   xmlns:sodipodi="http://sodipodi.sourceforge.net/DTD/sodipodi-0.dtd"
   xmlns="http://www.w3.org/2000/svg"
   xmlns:svg="http://www.w3.org/2000/svg"><sodipodi:namedview
     id="namedview1"
     pagecolor="#505050"
     bordercolor="#eeeeee"
     borderopacity="1"
     inkscape:showpageshadow="0"
     inkscape:pageopacity="0"
     inkscape:pagecheckerboard="0"
     inkscape:deskcolor="#505050"
     inkscape:zoom="17.8125"
     inkscape:cx="20.912281"
     inkscape:cy="21.221053"
     inkscape:window-width="1918"
     inkscape:window-height="1053"
     inkscape:window-x="0"
     inkscape:window-y="0"
     inkscape:window-maximized="1"
     inkscape:current-layer="svg1"
     showgrid="false" /><defs
     id="defs1"><style
       id="style1">.a { fill:none;stroke:#fff;stroke-linecap:round;stroke-linejoin:round; }
</style></defs><path
     style="fill:none;fill-opacity:0;stroke:#ffffff;stroke-width:1;stroke-linecap:round;stroke-linejoin:round;stroke-opacity:1"
     d="M 15.075315,39.332892 H 8.5695521 V 25.411864 H 5.4999295 l 9.8343175,-9.836086 7.003585,7.004844 H 42.5"
     id="path67675" /><path
     style="fill:none;fill-opacity:0;stroke:#ffffff;stroke-width:1;stroke-linecap:round;stroke-linejoin:round;stroke-opacity:1"
     d="m 19.20624,19.447105 3.116672,-3.117233 6.249058,6.250182"
     id="path67673" /><path
     style="fill:none;fill-opacity:0;stroke:#ffffff;stroke-width:1;stroke-linecap:round;stroke-linejoin:round;stroke-opacity:1"
     d="m 26.57811,11.877688 a 8.6086852,6.7747201 0 0 1 7.321058,-3.2105866 8.6086852,6.7747201 0 0 1 7.317806,3.2064526"
     id="path67671" /><path
     style="fill:none;fill-opacity:0;stroke:#ffffff;stroke-width:1;stroke-linecap:round;stroke-linejoin:round;stroke-opacity:1"
     d="m 28.853376,14.332313 a 6.8787461,6.7747201 0 0 1 5.045792,-2.17026 6.8787461,6.7747201 0 0 1 5.045359,2.1698"
     id="path67669" /><path
     style="fill:none;fill-opacity:0;stroke:#ffffff;stroke-width:1;stroke-linecap:round;stroke-linejoin:round;stroke-opacity:1"
     d="m 31.255012,16.924885 a 4.6743303,6.7747201 0 0 1 2.644156,-1.188099 4.6743303,6.7747201 0 0 1 2.643956,1.187899"
     id="path67604" /><ellipse
     style="fill:#ffffff;fill-opacity:1;stroke:none;stroke-width:1;stroke-linecap:round;stroke-linejoin:round;stroke-opacity:0.385598"
     id="ellipse67652"
     cx="33.899071"
     cy="19.495342"
     rx="0.75"
     ry="0.75013489" /></svg>
