<?xml version="1.0" encoding="UTF-8" standalone="no"?>
<svg
   viewBox="0 0 48 48"
   version="1.1"
   id="svg1"
   sodipodi:docname="me_lifestyle_routine.svg"
   inkscape:version="1.2.2 (b0a8486541, 2022-12-01)"
   xml:space="preserve"
   xmlns:inkscape="http://www.inkscape.org/namespaces/inkscape"
   xmlns:sodipodi="http://sodipodi.sourceforge.net/DTD/sodipodi-0.dtd"
   xmlns="http://www.w3.org/2000/svg"
   xmlns:svg="http://www.w3.org/2000/svg"><sodipodi:namedview
     id="namedview1"
     pagecolor="#505050"
     bordercolor="#eeeeee"
     borderopacity="1"
     inkscape:showpageshadow="0"
     inkscape:pageopacity="0"
     inkscape:pagecheckerboard="0"
     inkscape:deskcolor="#505050"
     inkscape:zoom="17.8125"
     inkscape:cx="14.877193"
     inkscape:cy="26.666667"
     inkscape:window-width="1918"
     inkscape:window-height="1053"
     inkscape:window-x="0"
     inkscape:window-y="0"
     inkscape:window-maximized="1"
     inkscape:current-layer="svg1"
     showgrid="false" /><defs
     id="defs1"><style
       id="style1">.a { fill:none;stroke:#fff;stroke-linecap:round;stroke-linejoin:round; }
</style></defs><path
     style="fill:none;stroke:#ffffff;stroke-width:1;stroke-linecap:round;stroke-linejoin:round;stroke-opacity:1"
     d="M 22.238138,15.998511 C 21.19335,12.144149 17.930704,9.5475911 13.76614,9.6948241 8.6596012,9.8753594 4.9043706,14.754683 5.5784699,19.767962 c 0.5376012,3.998142 2.5128518,7.433606 4.2691183,9.996396 3.6177158,5.279062 6.9915818,8.245832 10.7727948,11.996573 4.121445,-3.193624 7.614252,-6.054221 11.730689,-10.954365 1.998378,-2.378838 4.383374,-5.317634 5.309233,-9.244076 1.160937,-4.923375 -2.110031,-10.009999 -7.201764,-10.438462 -3.62456,-0.305001 -8.163033,2.617001 -8.393638,6.127365"
     id="path82898" /><path
     style="fill:none;stroke:#ffffff;stroke-width:1;stroke-linecap:round;stroke-linejoin:round;stroke-opacity:1"
     d="m 14.013409,25.461891 c 4.046617,4.585171 10.819431,3.761309 14.213766,0"
     id="path82896" /><path
     style="fill:none;stroke:#ffffff;stroke-width:1;stroke-linecap:round;stroke-linejoin:round;stroke-opacity:1"
     d="m 25.435925,21.318738 0.01122,1.570249"
     id="path82894" /><path
     style="fill:none;stroke:#ffffff;stroke-width:1;stroke-linecap:round;stroke-linejoin:round;stroke-opacity:1"
     d="m 16.978475,21.289141 0.01122,1.570249"
     id="path82892" /><path
     style="fill:none;stroke:#ffffff;stroke-width:1;stroke-linecap:round;stroke-linejoin:round;stroke-opacity:1"
     d="M 33.062493,8.9288291 34.590978,6.2390852"
     id="path82890" /><path
     style="fill:none;stroke:#ffffff;stroke-width:1;stroke-linecap:round;stroke-linejoin:round;stroke-opacity:1"
     d="M 39.460687,8.8517427 37.012946,11.107798"
     id="path82888" /><path
     style="fill:none;stroke:#ffffff;stroke-width:1;stroke-linecap:round;stroke-linejoin:round;stroke-opacity:1"
     d="M 39.72079,14.244911 42.5,12.961538"
     id="path82859" /></svg>
