<?xml version="1.0" encoding="UTF-8" standalone="no"?>
<svg
   viewBox="0 0 48 48"
   version="1.1"
   id="svg1"
   sodipodi:docname="missiles.svg"
   inkscape:version="1.2.2 (b0a8486541, 2022-12-01)"
   xml:space="preserve"
   xmlns:inkscape="http://www.inkscape.org/namespaces/inkscape"
   xmlns:sodipodi="http://sodipodi.sourceforge.net/DTD/sodipodi-0.dtd"
   xmlns="http://www.w3.org/2000/svg"
   xmlns:svg="http://www.w3.org/2000/svg"><sodipodi:namedview
     id="namedview1"
     pagecolor="#505050"
     bordercolor="#eeeeee"
     borderopacity="1"
     inkscape:showpageshadow="0"
     inkscape:pageopacity="0"
     inkscape:pagecheckerboard="0"
     inkscape:deskcolor="#505050"
     inkscape:zoom="8.90625"
     inkscape:cx="-35.817544"
     inkscape:cy="42.666667"
     inkscape:window-width="1918"
     inkscape:window-height="1053"
     inkscape:window-x="0"
     inkscape:window-y="0"
     inkscape:window-maximized="1"
     inkscape:current-layer="svg1"
     showgrid="false" /><defs
     id="defs1"><style
       id="style1">.a { fill:none;stroke:#fff;stroke-linecap:round;stroke-linejoin:round; }
</style></defs><path
     style="fill:none;stroke:#ffffff;stroke-width:1;stroke-linecap:round;stroke-linejoin:round;stroke-opacity:1"
     d="m 23.276102,36.657483 -0.953515,0.574826 -3.170041,-0.477485 c -0.466202,-0.405124 -0.930334,-1.735038 0.04858,-1.864055 l 3.482501,-0.458974"
     id="path25865" /><path
     style="fill:none;stroke:#ffffff;stroke-width:1;stroke-linecap:round;stroke-linejoin:round;stroke-opacity:1"
     d="m 24.723903,36.657483 0.953515,0.574826 3.170041,-0.477485 c 0.466202,-0.405124 0.930335,-1.735038 -0.04858,-1.864055 l -3.482502,-0.458974"
     id="path25863" /><path
     style="fill:none;stroke:#ffffff;stroke-width:1;stroke-linecap:round;stroke-linejoin:round;stroke-opacity:1"
     d="m 17.868515,9.3786159 h 4.885382"
     id="path25861" /><path
     style="fill:none;stroke:#ffffff;stroke-width:1;stroke-linecap:round;stroke-linejoin:round;stroke-opacity:1"
     d="M 30.131486,9.3786159 H 25.246103"
     id="path25859" /><path
     style="fill:none;stroke:#ffffff;stroke-width:1;stroke-linecap:round;stroke-linejoin:round;stroke-opacity:1"
     d="m 27.876177,12.663095 v 9.819348 C 27.329859,28.504649 25.867571,31.882756 24,39.111125 22.132431,31.882756 20.670143,28.504649 20.123825,22.482443 V 12.663095 C 21.298681,11.469341 21.958034,10.718258 24,9.8215349 c 2.041967,0.8967231 2.701321,1.6478061 3.876177,2.8415601 z"
     id="path25857" /><path
     style="fill:none;stroke:#ffffff;stroke-width:1;stroke-linecap:round;stroke-linejoin:round;stroke-opacity:1"
     d="M 20.281955,24.673275 5.5542687,22.312767 C 4.6047052,20.391145 3.9599524,17.799951 5.1368428,16.832551 L 20.046396,15.669908"
     id="path25855" /><path
     style="fill:none;stroke:#ffffff;stroke-width:1;stroke-linecap:round;stroke-linejoin:round;stroke-opacity:1"
     d="m 27.718047,24.673275 14.727685,-2.360508 c 0.949563,-1.921622 1.594316,-4.512816 0.417426,-5.480216 L 27.953606,15.669908"
     id="path25853" /><path
     style="fill:none;stroke:#ffffff;stroke-width:1;stroke-linecap:round;stroke-linejoin:round;stroke-opacity:1"
     d="m 24,8.8890249 v 0.932451"
     id="path25851" /><path
     style="fill:none;stroke:#ffffff;stroke-width:1;stroke-linecap:round;stroke-linejoin:round;stroke-opacity:1"
     d="m 24,17.083667 c 0.722898,0 1.304869,0.691116 1.304869,1.549586 v 3.014178 c 0,0.858471 -0.581971,1.549586 -1.304869,1.549586 -0.722896,0 -1.304868,-0.691115 -1.304868,-1.549586 v -3.014178 c 0,-0.85847 0.581972,-1.549586 1.304868,-1.549586 z"
     id="path25849" /><path
     style="fill:none;stroke:#ffffff;stroke-width:1;stroke-linecap:round;stroke-linejoin:round;stroke-opacity:1"
     d="m 20.149748,12.756592 h 7.700504"
     id="path25781" /></svg>
