<?xml version="1.0" encoding="UTF-8" standalone="no"?>
<svg
   viewBox="0 0 48 48"
   version="1.1"
   id="svg1"
   sodipodi:docname="moozza.svg"
   inkscape:version="1.2.2 (b0a8486541, 2022-12-01)"
   xml:space="preserve"
   xmlns:inkscape="http://www.inkscape.org/namespaces/inkscape"
   xmlns:sodipodi="http://sodipodi.sourceforge.net/DTD/sodipodi-0.dtd"
   xmlns="http://www.w3.org/2000/svg"
   xmlns:svg="http://www.w3.org/2000/svg"><sodipodi:namedview
     id="namedview1"
     pagecolor="#505050"
     bordercolor="#eeeeee"
     borderopacity="1"
     inkscape:showpageshadow="0"
     inkscape:pageopacity="0"
     inkscape:pagecheckerboard="0"
     inkscape:deskcolor="#505050"
     inkscape:zoom="17.8125"
     inkscape:cx="32.842105"
     inkscape:cy="28.070175"
     inkscape:window-width="1918"
     inkscape:window-height="1053"
     inkscape:window-x="0"
     inkscape:window-y="0"
     inkscape:window-maximized="1"
     inkscape:current-layer="svg1"
     showgrid="false" /><defs
     id="defs1"><style
       id="style1">.a { fill:none;stroke:#fff;stroke-linecap:round;stroke-linejoin:round; }
</style></defs><path
     style="fill:none;fill-opacity:0;stroke:#ffffff;stroke-width:1;stroke-linecap:round;stroke-linejoin:round;stroke-opacity:1"
     d="m 29.899403,20.502043 c 0,-2.971064 -2.391323,-5.362937 -5.361706,-5.362937 H 23.46038 c -2.970383,0 -5.361706,2.391873 -5.361706,5.362937 v 8.647431 c 0,1.320474 1.062809,2.383528 2.382981,2.383528 h 7.034767 c 1.320171,0 2.382981,-1.063054 2.382981,-2.383528 z"
     id="path463" /><path
     style="fill:none;fill-opacity:0;stroke:#ffffff;stroke-width:1;stroke-linecap:round;stroke-linejoin:round;stroke-opacity:1"
     d="M 29.915144,23.810796 A 7.3253099,7.3269926 0 0 1 23.99904,26.817089 7.3253099,7.3269926 0 0 1 18.084856,23.813427"
     id="path461" /><path
     style="fill:none;fill-opacity:0;stroke:#ffffff;stroke-width:1;stroke-linecap:round;stroke-linejoin:round;stroke-opacity:1"
     d="m 25.439073,20.816386 -2.320328,1.908718 v -3.817433 z"
     id="path459" /><path
     style="fill:none;fill-opacity:0;stroke:#ffffff;stroke-width:1;stroke-linecap:round;stroke-linejoin:round;stroke-opacity:1"
     d="m 5.4999998,28.680877 v -1.992516 c 0,-1.980708 1.5942179,-3.575292 3.5744705,-3.575292 h 3.6382747 c 0.660085,0 1.19149,0.531528 1.19149,1.191764 v 15.658389 c 0,0.660236 -0.531405,1.191764 -1.19149,1.191764 l -3.6382747,10e-7 v 0 c -1.9802526,2e-6 -3.5744705,-1.594584 -3.5744705,-3.575291 l -1e-7,-1.994845"
     id="path457" /><path
     style="fill:none;fill-opacity:0;stroke:#ffffff;stroke-width:1;stroke-linecap:round;stroke-linejoin:round;stroke-opacity:1"
     d="m 5.4999997,33.976407 1e-7,-3.684757"
     id="path455" /><path
     style="fill:none;fill-opacity:0;stroke:#ffffff;stroke-width:1;stroke-linecap:round;stroke-linejoin:round;stroke-opacity:1"
     d="M 10.694336,24.805907 V 23.113969"
     id="path453" /><path
     style="fill:none;fill-opacity:0;stroke:#ffffff;stroke-width:1;stroke-linecap:round;stroke-linejoin:round;stroke-opacity:1"
     d="m 42.5,28.680877 v -1.992516 c 0,-1.980708 -1.594218,-3.575292 -3.574471,-3.575292 h -3.638275 c -0.660084,0 -1.19149,0.531528 -1.19149,1.191764 v 15.658389 c 0,0.660236 0.531406,1.191764 1.19149,1.191764 l 3.638275,10e-7 v 0 C 40.905782,41.154989 42.5,39.560403 42.5,37.579696 v -1.994845"
     id="path451" /><path
     style="fill:none;fill-opacity:0;stroke:#ffffff;stroke-width:1;stroke-linecap:round;stroke-linejoin:round;stroke-opacity:1"
     d="M 42.5,33.976407 V 30.29165"
     id="path449" /><path
     style="fill:none;fill-opacity:0;stroke:#ffffff;stroke-width:1;stroke-linecap:round;stroke-linejoin:round;stroke-opacity:1"
     d="M 37.305664,24.805907 V 23.113969"
     id="path447" /><path
     style="fill:none;fill-opacity:0;stroke:#ffffff;stroke-width:1;stroke-linecap:round;stroke-linejoin:round;stroke-opacity:1"
     d="M 9.5693963,19.009341 A 14.586944,14.874928 0 0 1 24.000001,6.3063936 14.586944,14.874928 0 0 1 38.430943,19.011679"
     id="path445" /><path
     style="fill:none;fill-opacity:0;stroke:#ffffff;stroke-width:1;stroke-linecap:round;stroke-linejoin:round;stroke-opacity:1"
     d="m 16.218597,7.550296 0.946639,1.8987342"
     id="path443" /><path
     style="fill:none;fill-opacity:0;stroke:#ffffff;stroke-width:1;stroke-linecap:round;stroke-linejoin:round;stroke-opacity:1"
     d="M 20.544423,29.162308 V 41.693606"
     id="path7921" /><path
     style="fill:#ffffff;stroke-linecap:round;stroke-linejoin:round;stroke-dashoffset:1.3"
     d="m 35.346664,36.426498 a 0.75,0.75017226 0 0 0 0.75,0.750173 0.75,0.75017226 0 0 0 0.75,-0.750173 0.75,0.75017226 0 0 0 -0.75,-0.750172 0.75,0.75017226 0 0 0 -0.75,0.750172 z"
     id="path1316" /><path
     style="fill:#ffffff;stroke-linecap:round;stroke-linejoin:round;stroke-dashoffset:1.3"
     d="m 35.346664,38.475491 a 0.75,0.75017226 0 0 0 0.75,0.750172 0.75,0.75017226 0 0 0 0.75,-0.750172 0.75,0.75017226 0 0 0 -0.75,-0.750173 0.75,0.75017226 0 0 0 -0.75,0.750173 z"
     id="path1314" /><path
     style="fill:#ffffff;stroke-linecap:round;stroke-linejoin:round;stroke-dashoffset:1.3"
     d="m 11.153337,36.426498 a 0.75,0.75017226 0 0 0 0.75,0.750173 0.75,0.75017226 0 0 0 0.75,-0.750173 0.75,0.75017226 0 0 0 -0.75,-0.750172 0.75,0.75017226 0 0 0 -0.75,0.750172 z"
     id="path1312" /><path
     style="fill:#ffffff;stroke-linecap:round;stroke-linejoin:round;stroke-dashoffset:1.3"
     d="m 11.153337,38.475491 a 0.75,0.75017226 0 0 0 0.75,0.750172 0.75,0.75017226 0 0 0 0.75,-0.750172 0.75,0.75017226 0 0 0 -0.75,-0.750173 0.75,0.75017226 0 0 0 -0.75,0.750173 z"
     id="path1310" /></svg>
