<?xml version="1.0" encoding="UTF-8" standalone="no"?>
<svg
   viewBox="0 0 48 48"
   version="1.1"
   id="svg1"
   sodipodi:docname="move_to_ios.svg"
   inkscape:version="1.2.2 (b0a8486541, 2022-12-01)"
   xml:space="preserve"
   xmlns:inkscape="http://www.inkscape.org/namespaces/inkscape"
   xmlns:sodipodi="http://sodipodi.sourceforge.net/DTD/sodipodi-0.dtd"
   xmlns="http://www.w3.org/2000/svg"
   xmlns:svg="http://www.w3.org/2000/svg"><sodipodi:namedview
     id="namedview1"
     pagecolor="#505050"
     bordercolor="#eeeeee"
     borderopacity="1"
     inkscape:showpageshadow="0"
     inkscape:pageopacity="0"
     inkscape:pagecheckerboard="0"
     inkscape:deskcolor="#505050"
     inkscape:zoom="17.8125"
     inkscape:cx="39.466667"
     inkscape:cy="19.031579"
     inkscape:window-width="1918"
     inkscape:window-height="1053"
     inkscape:window-x="0"
     inkscape:window-y="0"
     inkscape:window-maximized="1"
     inkscape:current-layer="svg1"
     showgrid="false" /><defs
     id="defs1"><style
       id="style1">.a { fill:none;stroke:#fff;stroke-linecap:round;stroke-linejoin:round; }
</style></defs><path
     style="fill:none;stroke:#ffffff;stroke-linecap:round;stroke-linejoin:round;stroke-opacity:1"
     d="m 9.5,5.5 h 29 c 2.216,0 4,1.784 4,4 v 29 c 0,2.216 -1.784,4 -4,4 h -29 c -2.216,0 -4,-1.784 -4,-4 v -29 c 0,-2.216 1.784,-4 4,-4 z"
     id="path78758" /><path
     style="fill:none;stroke:#ffffff;stroke-linecap:round;stroke-linejoin:round;stroke-opacity:1"
     d="m 12.060063,21.781867 v 8.872512"
     id="path78756" /><path
     style="fill:none;stroke:#ffffff;stroke-linecap:round;stroke-linejoin:round;stroke-opacity:1"
     d="m 28.496822,29.228832 c 0.834195,1.069154 1.880238,1.467386 3.335539,1.467387 l 2.014014,-1e-6 c 1.874269,0 3.393679,-1.495773 3.393679,-3.340904 v -0.0144 c 0,-1.845132 -1.51941,-3.340905 -3.393679,-3.340905 h -2.221628 c -1.876292,0 -3.397317,-1.497388 -3.397317,-3.344511 v -6e-6 c 0,-1.851102 1.524307,-3.351715 3.404646,-3.351715 h 2.00303 c 1.455301,0 2.501344,0.398234 3.335539,1.467385"
     id="path78754" /><path
     style="fill:none;stroke:#ffffff;stroke-linecap:round;stroke-linejoin:round;stroke-opacity:1"
     d="m 20.39689,17.303778 h 10e-6 c 2.496495,0 4.506309,1.978568 4.506309,4.436252 v 4.519941 c 0,2.457684 -2.009814,4.436252 -4.506309,4.436252 h -10e-6 c -2.496495,0 -4.506309,-1.978568 -4.506309,-4.436252 V 21.74003 c 0,-2.457684 2.009814,-4.436252 4.506309,-4.436252 z"
     id="rect1302" /><circle
     class="q"
     cx="12.060063"
     cy="17.680428"
     id="circle980-2"
     style="fill:#ffffff;stroke-width:1"
     r="0.75" /></svg>
