<?xml version="1.0" encoding="UTF-8" standalone="no"?>
<svg
   viewBox="0 0 48 48"
   version="1.1"
   id="svg1"
   sodipodi:docname="murglar_2.svg"
   inkscape:version="1.2.2 (b0a8486541, 2022-12-01)"
   xml:space="preserve"
   xmlns:inkscape="http://www.inkscape.org/namespaces/inkscape"
   xmlns:sodipodi="http://sodipodi.sourceforge.net/DTD/sodipodi-0.dtd"
   xmlns="http://www.w3.org/2000/svg"
   xmlns:svg="http://www.w3.org/2000/svg"><sodipodi:namedview
     id="namedview1"
     pagecolor="#505050"
     bordercolor="#eeeeee"
     borderopacity="1"
     inkscape:showpageshadow="0"
     inkscape:pageopacity="0"
     inkscape:pagecheckerboard="0"
     inkscape:deskcolor="#505050"
     inkscape:zoom="8.90625"
     inkscape:cx="-6.4"
     inkscape:cy="4.3789474"
     inkscape:window-width="1918"
     inkscape:window-height="1053"
     inkscape:window-x="0"
     inkscape:window-y="0"
     inkscape:window-maximized="1"
     inkscape:current-layer="svg1"
     showgrid="false" /><defs
     id="defs1"><style
       id="style1">.a { fill:none;stroke:#fff;stroke-linecap:round;stroke-linejoin:round; }
</style></defs><path
     style="fill:none;fill-opacity:0;stroke:#ffffff;stroke-linecap:round;stroke-linejoin:round;stroke-opacity:1"
     d="M 18.700012,5.0262205 31.073748,42.024918"
     id="path59548" /><path
     style="fill:none;fill-opacity:0;stroke:#ffffff;stroke-linecap:round;stroke-linejoin:round;stroke-opacity:1"
     d="m 18.624836,15.654375 c 0.554,0 1,0.465739 1,1.019739 v 1.688814 c 0,0.554 -0.446,0.993447 -1,0.993447 h -2.040854 c -0.554,0 -1.013416,0.296941 -1.014761,1.149144 l -0.01313,8.322528 c -0.0032,1.983 -1.792344,3.512278 -3.774414,3.517578 -2.088381,1.3e-4 -3.78138,-1.692869 -3.78125,-3.78125 9.48e-4,-2.087618 1.693632,-3.779428 3.78125,-3.779297 0.559956,-2.95e-4 1.112986,0.123787 1.619141,0.363281 v -8.49414 c 0,-0.554 0.446,-0.999844 1,-0.999844 z"
     id="path59546" /><path
     style="fill:none;fill-opacity:0;stroke:#ffffff;stroke-linecap:round;stroke-linejoin:round;stroke-opacity:1"
     d="m 23.195105,17.076579 h 11.81332"
     id="path59544" /><path
     style="fill:none;fill-opacity:0;stroke:#ffffff;stroke-linecap:round;stroke-linejoin:round;stroke-opacity:1"
     d="M 24.70302,21.581839 H 35.008425"
     id="path59542" /><path
     style="fill:none;fill-opacity:0;stroke:#ffffff;stroke-linecap:round;stroke-linejoin:round;stroke-opacity:1"
     d="m 26.2094,26.087099 h 4.160445"
     id="path59540" /><path
     style="fill:none;fill-opacity:0;stroke:#ffffff;stroke-linecap:round;stroke-linejoin:round;stroke-opacity:1"
     d="m 32.878249,28.060035 2.202648,2.202831 2.202714,-2.202897"
     id="path59538" /><path
     style="fill:none;fill-opacity:0;stroke:#ffffff;stroke-linecap:round;stroke-linejoin:round;stroke-opacity:1"
     d="M 35.080929,25.194477 V 30.25633"
     id="path59536" /><path
     style="fill:none;fill-opacity:0;stroke:#ffffff;stroke-linecap:round;stroke-linejoin:round;stroke-opacity:1"
     d="m 31.465662,32.394124 h 7.230535"
     id="path59534" /><path
     style="fill:none;fill-opacity:0;stroke:#ffffff;stroke-linecap:round;stroke-linejoin:round;stroke-opacity:1"
     d="M 8.8075118,5.0248995 H 37.807512 c 2.216,0 4,1.784 4,4 V 38.024899 c 0,2.216 -1.784,4 -4,4 H 8.8075118 c -2.216,0 -4,-1.784 -4,-4 V 9.0248995 c 0,-2.216 1.784,-4 4,-4 z"
     id="rect59426" /></svg>
