<?xml version="1.0" encoding="UTF-8" standalone="no"?>
<svg
   viewBox="0 0 48 48"
   version="1.1"
   id="svg1"
   sodipodi:docname="my_diary.svg"
   inkscape:version="1.2.2 (b0a8486541, 2022-12-01)"
   xml:space="preserve"
   xmlns:inkscape="http://www.inkscape.org/namespaces/inkscape"
   xmlns:sodipodi="http://sodipodi.sourceforge.net/DTD/sodipodi-0.dtd"
   xmlns="http://www.w3.org/2000/svg"
   xmlns:svg="http://www.w3.org/2000/svg"><sodipodi:namedview
     id="namedview1"
     pagecolor="#505050"
     bordercolor="#eeeeee"
     borderopacity="1"
     inkscape:showpageshadow="0"
     inkscape:pageopacity="0"
     inkscape:pagecheckerboard="0"
     inkscape:deskcolor="#505050"
     inkscape:zoom="8.90625"
     inkscape:cx="-0.78596491"
     inkscape:cy="24.140351"
     inkscape:window-width="1918"
     inkscape:window-height="1053"
     inkscape:window-x="0"
     inkscape:window-y="0"
     inkscape:window-maximized="1"
     inkscape:current-layer="svg1"
     showgrid="false" /><defs
     id="defs1"><style
       id="style1">.a { fill:none;stroke:#fff;stroke-linecap:round;stroke-linejoin:round; }
</style></defs><path
     style="fill:none;stroke:#ffffff;stroke-width:1;stroke-linecap:round;stroke-linejoin:round;stroke-opacity:1"
     d="M 16.707247,12.361871 H 36.58811 c 1.41778,0 2.559168,1.141197 2.559168,2.558736 V 40.941264 C 39.147278,42.358804 38.00589,43.5 36.58811,43.5 H 16.707247 c -1.417779,0 -2.559168,-1.141196 -2.559168,-2.558736 V 14.920607 c 0,-1.417539 1.141389,-2.558736 2.559168,-2.558736 z"
     id="path17414" /><path
     style="fill:none;stroke:#ffffff;stroke-width:1;stroke-linecap:round;stroke-linejoin:round;stroke-opacity:1"
     d="m 14.147141,35.915966 h -3.247086 c -1.1342215,0 -2.0473335,-0.912958 -2.0473335,-2.046989 V 10.905128 c 0,-1.1340313 0.913112,-2.0469896 2.0473335,-2.0469896 v 0 H 28.5031 c 1.134222,0 2.047334,0.9129583 2.047334,2.0469896 l 1e-6,1.457229"
     id="path17412" /><path
     style="fill:none;stroke:#ffffff;stroke-width:1;stroke-linecap:round;stroke-linejoin:round;stroke-opacity:1"
     d="m 13.877672,8.8583988 v 0 l 0.156873,-2.4427406 c 0.07268,-1.1316979 1.042421,-1.9841835 2.174302,-1.9113958 v 0 L 33.66738,5.626966 c 1.131881,0.072788 1.984603,1.0424704 1.911924,2.1741683 l -0.292955,4.5616917"
     id="path17410" /><path
     style="fill:none;stroke:#ffffff;stroke-width:1;stroke-linecap:round;stroke-linejoin:round;stroke-opacity:1"
     d="M 21.438411,24.680514 H 31.856947"
     id="path17408" /><path
     style="fill:none;stroke:#ffffff;stroke-width:1;stroke-linecap:round;stroke-linejoin:round;stroke-opacity:1"
     d="M 21.438411,26.957339 H 31.856947"
     id="path17372" /></svg>
