<?xml version="1.0" encoding="UTF-8" standalone="no"?>
<svg
   viewBox="0 0 48 48"
   version="1.1"
   id="svg1"
   sodipodi:docname="nebulous_io.svg"
   inkscape:version="1.2.2 (b0a8486541, 2022-12-01)"
   xml:space="preserve"
   xmlns:inkscape="http://www.inkscape.org/namespaces/inkscape"
   xmlns:sodipodi="http://sodipodi.sourceforge.net/DTD/sodipodi-0.dtd"
   xmlns="http://www.w3.org/2000/svg"
   xmlns:svg="http://www.w3.org/2000/svg"><sodipodi:namedview
     id="namedview1"
     pagecolor="#505050"
     bordercolor="#eeeeee"
     borderopacity="1"
     inkscape:showpageshadow="0"
     inkscape:pageopacity="0"
     inkscape:pagecheckerboard="0"
     inkscape:deskcolor="#505050"
     inkscape:zoom="12.59534"
     inkscape:cx="20.960133"
     inkscape:cy="27.470477"
     inkscape:window-width="1918"
     inkscape:window-height="1053"
     inkscape:window-x="0"
     inkscape:window-y="0"
     inkscape:window-maximized="1"
     inkscape:current-layer="svg1"
     showgrid="false" /><defs
     id="defs1"><style
       id="style1">.a { fill:none;stroke:#fff;stroke-linecap:round;stroke-linejoin:round; }
</style></defs><path
     style="fill:none;fill-opacity:0;stroke:#ffffff;stroke-width:1;stroke-linecap:round;stroke-linejoin:round"
     d="m 38.182837,18.427309 0.162368,15.715133"
     id="path51334" /><path
     style="fill:none;fill-opacity:0;stroke:#ffffff;stroke-width:1;stroke-linecap:round;stroke-linejoin:round"
     d="M 36.154184,35.092685 22.982054,21.642921"
     id="path51332" /><path
     style="fill:none;fill-opacity:0;stroke:#ffffff;stroke-width:1;stroke-linecap:round;stroke-linejoin:round"
     d="m 14.939668,24.262084 -1.67288,7.931911"
     id="path51330" /><path
     style="fill:none;fill-opacity:0;stroke:#ffffff;stroke-width:1;stroke-linecap:round;stroke-linejoin:round"
     d="M 25.767221,14.923229 A 9.4232251,9.423229 0 0 1 16.343995,24.346457 9.4232251,9.423229 0 0 1 6.9207707,14.923229 9.4232251,9.423229 0 0 1 16.343995,5.4999999 9.4232251,9.423229 0 0 1 25.767221,14.923229 Z"
     id="path51328" /><path
     style="fill:none;fill-opacity:0;stroke:#ffffff;stroke-width:1;stroke-linecap:round;stroke-linejoin:round"
     d="M 17.633042,37.325972 A 5.174026,5.1740282 0 0 1 12.459017,42.5 5.174026,5.1740282 0 0 1 7.2849909,37.325972 a 5.174026,5.1740282 0 0 1 5.1740261,-5.174028 5.174026,5.1740282 0 0 1 5.174025,5.174028 z"
     id="path51326" /><path
     style="fill:none;fill-opacity:0;stroke:#ffffff;stroke-width:1;stroke-linecap:round;stroke-linejoin:round"
     d="m 41.079229,15.282059 a 3.1429086,3.1429098 0 0 1 -3.142908,3.14291 3.1429086,3.1429098 0 0 1 -3.142909,-3.14291 3.1429086,3.1429098 0 0 1 3.142909,-3.14291 3.1429086,3.1429098 0 0 1 3.142908,3.14291 z"
     id="path51324" /><path
     style="fill:none;fill-opacity:0;stroke:#ffffff;stroke-width:1;stroke-linecap:round;stroke-linejoin:round"
     d="m 40.511003,36.529716 a 2.3995481,2.3995491 0 0 1 -2.399548,2.399549 2.3995481,2.3995491 0 0 1 -2.399548,-2.399549 2.3995481,2.3995491 0 0 1 2.399548,-2.399549 2.3995481,2.3995491 0 0 1 2.399548,2.399549 z"
     id="circle50523" /></svg>
