<?xml version="1.0" encoding="UTF-8" standalone="no"?>
<svg
   viewBox="0 0 48 48"
   version="1.1"
   id="svg1"
   sodipodi:docname="netmirror.svg"
   inkscape:version="1.2.2 (b0a8486541, 2022-12-01)"
   xml:space="preserve"
   xmlns:inkscape="http://www.inkscape.org/namespaces/inkscape"
   xmlns:sodipodi="http://sodipodi.sourceforge.net/DTD/sodipodi-0.dtd"
   xmlns="http://www.w3.org/2000/svg"
   xmlns:svg="http://www.w3.org/2000/svg"><sodipodi:namedview
     id="namedview1"
     pagecolor="#505050"
     bordercolor="#eeeeee"
     borderopacity="1"
     inkscape:showpageshadow="0"
     inkscape:pageopacity="0"
     inkscape:pagecheckerboard="0"
     inkscape:deskcolor="#505050"
     inkscape:zoom="12.59534"
     inkscape:cx="1.6672833"
     inkscape:cy="30.011099"
     inkscape:window-width="1918"
     inkscape:window-height="1053"
     inkscape:window-x="0"
     inkscape:window-y="0"
     inkscape:window-maximized="1"
     inkscape:current-layer="svg1"
     showgrid="false" /><defs
     id="defs1"><style
       id="style1">.a { fill:none;stroke:#fff;stroke-linecap:round;stroke-linejoin:round; }
</style></defs><path
     style="fill:none;fill-opacity:0;stroke:#ffffff;stroke-width:1;stroke-linecap:round;stroke-linejoin:round;stroke-opacity:1"
     d="m 41.861187,28.856599 c -2.150511,4.920008 -5.412556,5.022636 -8.28605,2.815256 C 30.931972,29.641409 28.617551,25.656431 27.799378,21.668404 26.273047,14.228611 22.982887,5.7435326 16.432398,6.0899836 3.3722125,6.7807281 3.8230562,33.341653 8.5654144,40.107273 l 2.7821746,-2.067026 c 1.736557,-1.29018 2.72892,-3.801722 2.570674,-5.959286 -0.406847,-5.547075 -1.129479,-9.692324 1.116993,-14.0984"
     id="path61554" /><path
     style="fill:none;fill-opacity:0;stroke:#ffffff;stroke-width:1;stroke-linecap:round;stroke-linejoin:round;stroke-opacity:1"
     d="M 6.1583864,18.823839 C 8.5290844,11.33153 17.12435,16.787117 18.940563,25.76902 20.559135,33.773509 24.106403,42.969621 31.217695,42.481637 38.700954,41.968129 42.18391,32.36831 42.455538,23.191202 42.639999,16.959056 41.701382,10.390237 39.562297,5.4999867 L 36.859021,6.519442 c -3.547472,1.3378174 -3.859363,5.056756 -3.562377,6.921005 1.61837,10.158879 1.47477,13.193833 0.303507,18.178815"
     id="path61507" /></svg>
