<?xml version="1.0" encoding="UTF-8" standalone="no"?>
<svg
   viewBox="0 0 48 48"
   version="1.1"
   id="svg1"
   sodipodi:docname="okok.svg"
   inkscape:version="1.2.2 (b0a8486541, 2022-12-01)"
   xml:space="preserve"
   xmlns:inkscape="http://www.inkscape.org/namespaces/inkscape"
   xmlns:sodipodi="http://sodipodi.sourceforge.net/DTD/sodipodi-0.dtd"
   xmlns="http://www.w3.org/2000/svg"
   xmlns:svg="http://www.w3.org/2000/svg"><sodipodi:namedview
     id="namedview1"
     pagecolor="#505050"
     bordercolor="#eeeeee"
     borderopacity="1"
     inkscape:showpageshadow="0"
     inkscape:pageopacity="0"
     inkscape:pagecheckerboard="0"
     inkscape:deskcolor="#505050"
     inkscape:zoom="17.8125"
     inkscape:cx="27.396491"
     inkscape:cy="19.873684"
     inkscape:window-width="1918"
     inkscape:window-height="1053"
     inkscape:window-x="0"
     inkscape:window-y="0"
     inkscape:window-maximized="1"
     inkscape:current-layer="svg1"
     showgrid="false" /><defs
     id="defs1"><style
       id="style1">.a { fill:none;stroke:#fff;stroke-linecap:round;stroke-linejoin:round; }
</style></defs><path
     id="path69589"
     style="fill:none;stroke:#ffffff;stroke-width:1;stroke-linecap:round;stroke-linejoin:round;stroke-opacity:1"
     d="M 20.455908,29.547299 A 5.1447722,18.37305 50.12841 0 1 10.014195,32.533376 5.1447722,18.37305 50.12841 0 1 18.851934,18.288199 M 30.865836,9.8736853 a 5.1447722,18.37305 50.12841 0 1 7.119291,-1.1430184 v 0 A 5.1447722,18.37305 50.12841 0 1 27.757709,24.19281 5.1447722,18.37305 50.12841 0 1 24.773783,26.584952 m -2.001268,7.170171 C 21.347879,21.469414 26.957677,14.252599 35.381598,9.1205063 m 0,0 C 28.979422,9.6437773 22.958243,12.425732 18.919695,17.18686 17.718125,33.263407 26.569562,35.945785 28.0431,43.526217 29.422631,34.243073 23.290299,32.514483 24.8787,19.697481 M 24.9608,8.1312378 A 3.6572099,3.6595451 89.999768 0 1 21.301255,11.788447 3.6572099,3.6595451 89.999768 0 1 17.64171,8.1312379 3.6572099,3.6595451 89.999768 0 1 21.301255,4.4740281 3.6572099,3.6595451 89.999768 0 1 24.9608,8.1312378 Z" /></svg>
