<?xml version="1.0" encoding="UTF-8" standalone="no"?>
<svg
   viewBox="0 0 48 48"
   version="1.1"
   id="svg1"
   sodipodi:docname="pakwheels.svg"
   inkscape:version="1.2.2 (b0a8486541, 2022-12-01)"
   xml:space="preserve"
   xmlns:inkscape="http://www.inkscape.org/namespaces/inkscape"
   xmlns:sodipodi="http://sodipodi.sourceforge.net/DTD/sodipodi-0.dtd"
   xmlns="http://www.w3.org/2000/svg"
   xmlns:svg="http://www.w3.org/2000/svg"><sodipodi:namedview
     id="namedview1"
     pagecolor="#505050"
     bordercolor="#eeeeee"
     borderopacity="1"
     inkscape:showpageshadow="0"
     inkscape:pageopacity="0"
     inkscape:pagecheckerboard="0"
     inkscape:deskcolor="#505050"
     inkscape:zoom="12.59534"
     inkscape:cx="3.4139612"
     inkscape:cy="19.213456"
     inkscape:window-width="1918"
     inkscape:window-height="1053"
     inkscape:window-x="0"
     inkscape:window-y="0"
     inkscape:window-maximized="1"
     inkscape:current-layer="svg1"
     showgrid="false" /><defs
     id="defs1"><style
       id="style1">.a { fill:none;stroke:#fff;stroke-linecap:round;stroke-linejoin:round; }
</style></defs><path
     style="fill:none;stroke:#ffffff;stroke-width:1;stroke-linecap:round;stroke-linejoin:round;stroke-opacity:1"
     d="m 25.811652,24 c 0,1.000548 -0.811104,1.811652 -1.811652,1.811652 -1.000548,0 -1.811652,-0.811104 -1.811652,-1.811652 0,-1.000548 0.811104,-1.811652 1.811652,-1.811652 1.000548,0 1.811652,0.811104 1.811652,1.811652 z"
     id="path76606" /><path
     style="fill:none;stroke:#ffffff;stroke-width:1;stroke-linecap:round;stroke-linejoin:round;stroke-opacity:1"
     d="m 8.9331854,20.540152 c 2.6858276,2.504122 6.4245336,4.163391 10.3454226,4.977021 -1.999235,3.210301 -5.666734,4.905918 -9.3026845,5.053411"
     id="path76604" /><path
     style="fill:none;stroke:#ffffff;stroke-width:1;stroke-linecap:round;stroke-linejoin:round;stroke-opacity:1"
     d="M 9.4611573,18.751457 C 12.135119,21.204531 15.915028,22.588323 19.588668,21.734276 17.38521,18.378174 15.91367,14.55016 15.791683,10.87176"
     id="path76602" /><path
     style="fill:none;stroke:#ffffff;stroke-width:1;stroke-linecap:round;stroke-linejoin:round;stroke-opacity:1"
     d="m 32.208316,37.128239 c -0.121987,-3.6784 -1.593526,-7.506414 -3.796985,-10.862516 3.673641,-0.854049 7.45355,0.529746 10.127511,2.98282"
     id="path76600" /><path
     style="fill:none;stroke:#ffffff;stroke-width:1;stroke-linecap:round;stroke-linejoin:round;stroke-opacity:1"
     d="m 30.570583,38.024075 c -0.147493,-3.635951 -1.843109,-7.30345 -5.05341,-9.302685 -0.81363,3.92089 -2.472899,7.659597 -4.977022,10.345425"
     id="path76598" /><path
     style="fill:none;stroke:#ffffff;stroke-width:1;stroke-linecap:round;stroke-linejoin:round;stroke-opacity:1"
     d="m 17.429416,9.9759235 c 0.147493,3.6359515 1.84311,7.3034495 5.053411,9.3026855 0.815752,-3.936411 2.48557,-7.688131 5.005722,-10.3761231"
     id="path76596" /><path
     style="fill:none;stroke:#ffffff;stroke-width:1;stroke-linecap:round;stroke-linejoin:round;stroke-opacity:1"
     d="m 10.87176,32.208317 c 3.678399,-0.121987 7.506414,-1.593527 10.862516,-3.796986 0.854049,3.673639 -0.529745,7.45355 -2.982819,10.127511"
     id="path76594" /><path
     style="fill:none;stroke:#ffffff;stroke-width:1;stroke-linecap:round;stroke-linejoin:round;stroke-opacity:1"
     d="m 37.139713,15.791308 c -3.681913,0.119303 -7.514481,1.591313 -10.87399,3.797361 -0.856939,-3.686266 0.540086,-7.481722 3.010283,-10.1573524"
     id="path76592" /><path
     style="fill:none;stroke:#ffffff;stroke-width:1;stroke-linecap:round;stroke-linejoin:round;stroke-opacity:1"
     d="m 38.033263,17.429047 c -3.638959,0.145006 -7.311078,1.840992 -9.311874,5.05378 3.920892,0.81363 7.659597,2.472899 10.345426,4.977021"
     id="path76590" /><path
     style="fill:none;stroke:#ffffff;stroke-width:1;stroke-linecap:round;stroke-linejoin:round;stroke-opacity:1"
     d="M 39.495205,24 C 39.495205,32.557765 32.557765,39.495205 24,39.495205 15.442235,39.495205 8.5047951,32.557765 8.5047951,24 8.5047952,15.442235 15.442235,8.5047952 24,8.5047951 32.557765,8.5047951 39.495205,15.442235 39.495205,24 Z"
     id="path76588" /><path
     style="fill:none;stroke:#ffffff;stroke-width:1;stroke-linecap:round;stroke-linejoin:round;stroke-opacity:1"
     d="M 45.500002,24 C 45.500002,35.874123 35.874123,45.500002 24,45.500002 12.125877,45.500002 2.4999981,35.874123 2.4999981,24 2.4999982,12.125877 12.125877,2.4999982 24,2.4999981 35.874123,2.4999981 45.500002,12.125877 45.500002,24 Z"
     id="circle76435" /></svg>
