<?xml version="1.0" encoding="UTF-8" standalone="no"?>
<svg
   viewBox="0 0 48 48"
   version="1.1"
   id="svg1"
   sodipodi:docname="parchisi_star_online.svg"
   inkscape:version="1.2.2 (b0a8486541, 2022-12-01)"
   xml:space="preserve"
   xmlns:inkscape="http://www.inkscape.org/namespaces/inkscape"
   xmlns:sodipodi="http://sodipodi.sourceforge.net/DTD/sodipodi-0.dtd"
   xmlns="http://www.w3.org/2000/svg"
   xmlns:svg="http://www.w3.org/2000/svg"><sodipodi:namedview
     id="namedview1"
     pagecolor="#505050"
     bordercolor="#eeeeee"
     borderopacity="1"
     inkscape:showpageshadow="0"
     inkscape:pageopacity="0"
     inkscape:pagecheckerboard="0"
     inkscape:deskcolor="#505050"
     inkscape:zoom="17.8125"
     inkscape:cx="9.6"
     inkscape:cy="18.021053"
     inkscape:window-width="1918"
     inkscape:window-height="1053"
     inkscape:window-x="0"
     inkscape:window-y="0"
     inkscape:window-maximized="1"
     inkscape:current-layer="svg1"
     showgrid="false" /><defs
     id="defs1"><style
       id="style1">.a { fill:none;stroke:#fff;stroke-linecap:round;stroke-linejoin:round; }
</style></defs><path
     style="fill:none;stroke:#ffffff;stroke-linecap:round;stroke-linejoin:round;stroke-opacity:1"
     d="m 9.5,5.5 h 29 c 2.216,0 4,1.784 4,4 v 29 c 0,2.216 -1.784,4 -4,4 h -29 c -2.216,0 -4,-1.784 -4,-4 v -29 c 0,-2.216 1.784,-4 4,-4 z"
     id="path82099" /><path
     style="fill:none;stroke:#ffffff;stroke-linecap:round;stroke-linejoin:round;stroke-opacity:1"
     d="M 17.471512,5.6296945 V 17.471512 H 5.6296941"
     id="path82097" /><path
     style="fill:none;stroke:#ffffff;stroke-linecap:round;stroke-linejoin:round;stroke-opacity:1"
     d="M 30.528487,5.6296945 V 17.471512 h 11.841818"
     id="path82095" /><path
     style="fill:none;stroke:#ffffff;stroke-linecap:round;stroke-linejoin:round;stroke-opacity:1"
     d="M 17.471512,42.370306 V 30.528487 H 5.6296941"
     id="path82093" /><path
     style="fill:none;stroke:#ffffff;stroke-linecap:round;stroke-linejoin:round;stroke-opacity:1"
     d="M 30.528487,42.370306 V 30.528487 h 11.841818"
     id="path82091" /><path
     style="fill:none;stroke:#ffffff;stroke-linecap:round;stroke-linejoin:round;stroke-opacity:1"
     d="M 17.470988,17.470988 30.529012,30.529012"
     id="path82089" /><path
     style="fill:none;stroke:#ffffff;stroke-linecap:round;stroke-linejoin:round;stroke-opacity:1"
     d="M 30.529012,17.470988 17.470988,30.529012"
     id="path82087" /><path
     style="fill:none;stroke:#ffffff;stroke-linecap:round;stroke-linejoin:round;stroke-opacity:1"
     d="m 42.371712,26.028019 -13.742848,-3.66e-4 -2.07e-4,2.601004 -2.601004,2.07e-4 3.67e-4,13.742848"
     id="path82085" /><path
     style="fill:none;stroke:#ffffff;stroke-linecap:round;stroke-linejoin:round;stroke-opacity:1"
     d="m 5.6282881,26.028019 13.7428499,-3.67e-4 2.06e-4,2.601005 2.601004,2.07e-4 -3.68e-4,13.742848"
     id="path82083" /><path
     style="fill:none;stroke:#ffffff;stroke-linecap:round;stroke-linejoin:round;stroke-opacity:1"
     d="m 26.028019,5.6282881 -3.67e-4,13.7428499 2.601005,2.06e-4 2.07e-4,2.601004 13.742848,-3.68e-4"
     id="path82081" /><path
     style="fill:none;stroke:#ffffff;stroke-linecap:round;stroke-linejoin:round;stroke-opacity:1"
     d="m 21.97198,5.6282881 3.67e-4,13.7428499 -2.601003,2.06e-4 v 0 l -2.06e-4,2.601003 -13.7428498,-3.67e-4"
     id="path82079" /><path
     style="fill:none;stroke:#ffffff;stroke-linecap:round;stroke-linejoin:round;stroke-opacity:1"
     d="M 13.114997,21.97261 V 17.47056"
     id="path82077" /><path
     style="fill:none;stroke:#ffffff;stroke-linecap:round;stroke-linejoin:round;stroke-opacity:1"
     d="M 13.114997,30.529438 V 26.027387"
     id="path82075" /><path
     style="fill:none;stroke:#ffffff;stroke-linecap:round;stroke-linejoin:round;stroke-opacity:1"
     d="m 21.97261,34.885002 -4.50205,10e-7"
     id="path82073" /><path
     style="fill:none;stroke:#ffffff;stroke-linecap:round;stroke-linejoin:round;stroke-opacity:1"
     d="M 30.529438,34.885002 H 26.027387"
     id="path82071" /><path
     style="fill:none;stroke:#ffffff;stroke-linecap:round;stroke-linejoin:round;stroke-opacity:1"
     d="m 34.885002,26.027387 10e-7,4.502053"
     id="path82069" /><path
     style="fill:none;stroke:#ffffff;stroke-linecap:round;stroke-linejoin:round;stroke-opacity:1"
     d="m 34.885002,17.47056 v 4.502052"
     id="path82067" /><path
     style="fill:none;stroke:#ffffff;stroke-linecap:round;stroke-linejoin:round;stroke-opacity:1"
     d="M 26.027387,13.114997 H 30.52944"
     id="path82065" /><path
     style="fill:none;stroke:#ffffff;stroke-linecap:round;stroke-linejoin:round;stroke-opacity:1"
     d="m 17.47056,13.114997 h 4.502052"
     id="path82063" /><path
     style="fill:none;stroke:#ffffff;stroke-linecap:round;stroke-linejoin:round;stroke-opacity:1"
     d="M 10.867856,13.48615 A 1.3817058,1.3817058 0 0 1 9.4861497,14.867856 1.3817058,1.3817058 0 0 1 8.1044439,13.48615 1.3817058,1.3817058 0 0 1 9.4861497,12.104444 1.3817058,1.3817058 0 0 1 10.867856,13.48615 v 0"
     id="path82061" /><path
     style="fill:none;stroke:#ffffff;stroke-linecap:round;stroke-linejoin:round;stroke-opacity:1"
     d="m 14.867856,13.48615 a 1.3817058,1.3817058 0 0 1 -1.381706,1.381706 1.3817058,1.3817058 0 0 1 -1.381706,-1.381706 1.3817058,1.3817058 0 0 1 1.381706,-1.381706 1.3817058,1.3817058 0 0 1 1.381706,1.381706 v 0"
     id="path82059" /><path
     style="fill:none;stroke:#ffffff;stroke-linecap:round;stroke-linejoin:round;stroke-opacity:1"
     d="M 14.867856,9.4861498 A 1.3817058,1.3817058 0 0 1 13.48615,10.867856 1.3817058,1.3817058 0 0 1 12.104444,9.4861498 1.3817058,1.3817058 0 0 1 13.48615,8.104444 1.3817058,1.3817058 0 0 1 14.867856,9.4861498 v 0"
     id="path82057" /><path
     style="fill:none;stroke:#ffffff;stroke-linecap:round;stroke-linejoin:round;stroke-opacity:1"
     d="M 10.867856,9.4861498 A 1.3817058,1.3817058 0 0 1 9.4861497,10.867856 1.3817058,1.3817058 0 0 1 8.1044439,9.4861498 1.3817058,1.3817058 0 0 1 9.4861497,8.104444 1.3817058,1.3817058 0 0 1 10.867856,9.4861498 v 0"
     id="path82055" /><path
     style="fill:none;stroke:#ffffff;stroke-linecap:round;stroke-linejoin:round;stroke-opacity:1"
     d="m 35.895555,13.48615 a 1.3817058,1.3817058 0 0 1 -1.381706,1.381706 1.3817058,1.3817058 0 0 1 -1.381706,-1.381706 1.3817058,1.3817058 0 0 1 1.381706,-1.381706 1.3817058,1.3817058 0 0 1 1.381706,1.381706 v 0"
     id="path82053" /><path
     style="fill:none;stroke:#ffffff;stroke-linecap:round;stroke-linejoin:round;stroke-opacity:1"
     d="m 39.895555,13.48615 a 1.3817058,1.3817058 0 0 1 -1.381706,1.381706 1.3817058,1.3817058 0 0 1 -1.381706,-1.381706 1.3817058,1.3817058 0 0 1 1.381706,-1.381706 1.3817058,1.3817058 0 0 1 1.381706,1.381706 v 0"
     id="path82051" /><path
     style="fill:none;stroke:#ffffff;stroke-linecap:round;stroke-linejoin:round;stroke-opacity:1"
     d="M 39.895555,9.4861498 A 1.3817058,1.3817058 0 0 1 38.513849,10.867856 1.3817058,1.3817058 0 0 1 37.132143,9.4861498 1.3817058,1.3817058 0 0 1 38.513849,8.104444 1.3817058,1.3817058 0 0 1 39.895555,9.4861498 v 0"
     id="path82049" /><path
     style="fill:none;stroke:#ffffff;stroke-linecap:round;stroke-linejoin:round;stroke-opacity:1"
     d="M 35.895555,9.4861498 A 1.3817058,1.3817058 0 0 1 34.513849,10.867856 1.3817058,1.3817058 0 0 1 33.132143,9.4861498 1.3817058,1.3817058 0 0 1 34.513849,8.104444 1.3817058,1.3817058 0 0 1 35.895555,9.4861498 v 0"
     id="path82047" /><path
     style="fill:none;stroke:#ffffff;stroke-linecap:round;stroke-linejoin:round;stroke-opacity:1"
     d="m 35.895555,38.513849 a 1.3817058,1.3817058 0 0 1 -1.381706,1.381706 1.3817058,1.3817058 0 0 1 -1.381706,-1.381706 1.3817058,1.3817058 0 0 1 1.381706,-1.381706 1.3817058,1.3817058 0 0 1 1.381706,1.381706 v 0"
     id="path82045" /><path
     style="fill:none;stroke:#ffffff;stroke-linecap:round;stroke-linejoin:round;stroke-opacity:1"
     d="m 39.895555,38.513849 a 1.3817058,1.3817058 0 0 1 -1.381706,1.381706 1.3817058,1.3817058 0 0 1 -1.381706,-1.381706 1.3817058,1.3817058 0 0 1 1.381706,-1.381706 1.3817058,1.3817058 0 0 1 1.381706,1.381706 v 0"
     id="path82043" /><path
     style="fill:none;stroke:#ffffff;stroke-linecap:round;stroke-linejoin:round;stroke-opacity:1"
     d="m 39.895555,34.513849 a 1.3817058,1.3817058 0 0 1 -1.381706,1.381706 1.3817058,1.3817058 0 0 1 -1.381706,-1.381706 1.3817058,1.3817058 0 0 1 1.381706,-1.381706 1.3817058,1.3817058 0 0 1 1.381706,1.381706 v 0"
     id="path82041" /><path
     style="fill:none;stroke:#ffffff;stroke-linecap:round;stroke-linejoin:round;stroke-opacity:1"
     d="m 35.895555,34.513849 a 1.3817058,1.3817058 0 0 1 -1.381706,1.381706 1.3817058,1.3817058 0 0 1 -1.381706,-1.381706 1.3817058,1.3817058 0 0 1 1.381706,-1.381706 1.3817058,1.3817058 0 0 1 1.381706,1.381706 v 0"
     id="path82039" /><path
     style="fill:none;stroke:#ffffff;stroke-linecap:round;stroke-linejoin:round;stroke-opacity:1"
     d="M 10.867856,38.51385 A 1.3817058,1.3817058 0 0 1 9.4861499,39.895556 1.3817058,1.3817058 0 0 1 8.1044438,38.51385 1.3817058,1.3817058 0 0 1 9.4861499,37.132144 1.3817058,1.3817058 0 0 1 10.867856,38.51385 v 0"
     id="path82037" /><path
     style="fill:none;stroke:#ffffff;stroke-linecap:round;stroke-linejoin:round;stroke-opacity:1"
     d="m 14.867856,38.51385 a 1.3817058,1.3817058 0 0 1 -1.381706,1.381706 1.3817058,1.3817058 0 0 1 -1.381706,-1.381706 1.3817058,1.3817058 0 0 1 1.381706,-1.381706 1.3817058,1.3817058 0 0 1 1.381706,1.381706 v 0"
     id="path82035" /><path
     style="fill:none;stroke:#ffffff;stroke-linecap:round;stroke-linejoin:round;stroke-opacity:1"
     d="m 14.867856,34.51385 a 1.3817058,1.3817058 0 0 1 -1.381706,1.381706 1.3817058,1.3817058 0 0 1 -1.381706,-1.381706 1.3817058,1.3817058 0 0 1 1.381706,-1.381706 1.3817058,1.3817058 0 0 1 1.381706,1.381706 v 0"
     id="path82033" /><path
     style="fill:none;stroke:#ffffff;stroke-linecap:round;stroke-linejoin:round;stroke-opacity:1"
     d="M 10.867856,34.51385 A 1.3817058,1.3817058 0 0 1 9.4861499,35.895556 1.3817058,1.3817058 0 0 1 8.1044438,34.51385 1.3817058,1.3817058 0 0 1 9.4861499,33.132144 1.3817058,1.3817058 0 0 1 10.867856,34.51385 v 0"
     id="path81869" /></svg>
