<?xml version="1.0" encoding="UTF-8" standalone="no"?>
<svg
   viewBox="0 0 48 48"
   version="1.1"
   id="svg1"
   sodipodi:docname="picrew.svg"
   inkscape:version="1.2.2 (b0a8486541, 2022-12-01)"
   xml:space="preserve"
   xmlns:inkscape="http://www.inkscape.org/namespaces/inkscape"
   xmlns:sodipodi="http://sodipodi.sourceforge.net/DTD/sodipodi-0.dtd"
   xmlns="http://www.w3.org/2000/svg"
   xmlns:svg="http://www.w3.org/2000/svg"><sodipodi:namedview
     id="namedview1"
     pagecolor="#505050"
     bordercolor="#eeeeee"
     borderopacity="1"
     inkscape:showpageshadow="0"
     inkscape:pageopacity="0"
     inkscape:pagecheckerboard="0"
     inkscape:deskcolor="#505050"
     inkscape:zoom="8.90625"
     inkscape:cx="-7.7473684"
     inkscape:cy="30.315789"
     inkscape:window-width="1918"
     inkscape:window-height="1053"
     inkscape:window-x="0"
     inkscape:window-y="0"
     inkscape:window-maximized="1"
     inkscape:current-layer="svg1"
     showgrid="false" /><defs
     id="defs1"><style
       id="style1">.a { fill:none;stroke:#fff;stroke-linecap:round;stroke-linejoin:round; }
</style></defs><path
     style="fill:none;stroke:#ffffff;stroke-width:1;stroke-linecap:round;stroke-linejoin:round;stroke-dashoffset:1.3;stroke-opacity:1"
     d="m 20.761708,22.765194 a 4.3529709,5.4726454 0 0 1 -4.352971,5.472645 4.3529709,5.4726454 0 0 1 -4.352971,-5.472645 4.3529709,5.4726454 0 0 1 4.352971,-5.472645 4.3529709,5.4726454 0 0 1 4.352971,5.472645 z"
     id="path3629" /><path
     style="fill:none;stroke:#ffffff;stroke-width:1;stroke-linecap:round;stroke-linejoin:round;stroke-dashoffset:1.3;stroke-opacity:1"
     d="m 15.276964,21.415862 c 0.910537,-1.085571 -0.155922,-3.808087 1.131773,-3.808088 1.287695,0 0.221235,2.722519 1.131773,3.808088 0.910539,1.08557 3.19409,-0.185896 3.19409,1.349331 0,1.535229 -2.283551,0.263765 -3.19409,1.349335 -0.910538,1.085569 0.155922,3.808086 -1.131773,3.808085 -1.287695,0 -0.221236,-2.722516 -1.131773,-3.808085 -0.910539,-1.08557 -3.194089,0.185894 -3.194089,-1.349334 0,-1.535226 2.283551,-0.263763 3.194089,-1.349332 z"
     id="path3627" /><path
     style="fill:none;stroke:#ffffff;stroke-width:1;stroke-linecap:round;stroke-linejoin:round;stroke-dashoffset:1.3;stroke-opacity:1"
     d="m 35.946025,22.765194 a 4.3529709,5.4726454 0 0 1 -4.352971,5.472645 4.3529709,5.4726454 0 0 1 -4.352971,-5.472645 4.3529709,5.4726454 0 0 1 4.352971,-5.472645 4.3529709,5.4726454 0 0 1 4.352971,5.472645 z"
     id="path3625" /><path
     style="fill:none;stroke:#ffffff;stroke-width:1;stroke-linecap:round;stroke-linejoin:round;stroke-dashoffset:1.3;stroke-opacity:1"
     d="m 30.461289,21.415862 c 0.910537,-1.085571 -0.155922,-3.808087 1.131773,-3.808088 1.287695,0 0.221235,2.722519 1.131773,3.808088 0.910539,1.08557 3.19409,-0.185896 3.19409,1.349331 0,1.535229 -2.283551,0.263765 -3.19409,1.349335 -0.910538,1.085569 0.155922,3.808086 -1.131773,3.808085 -1.287695,0 -0.221236,-2.722516 -1.131773,-3.808085 -0.910539,-1.08557 -3.194089,0.185894 -3.194089,-1.349334 0,-1.535226 2.283551,-0.263763 3.194089,-1.349332 z"
     id="path3623" /><path
     style="fill:none;stroke:#ffffff;stroke-width:1;stroke-linecap:round;stroke-linejoin:round;stroke-dashoffset:1.3;stroke-opacity:1"
     d="m 41.550649,30.088817 c -2.642737,5.445277 -9.50309,9.32588 -17.549752,9.32588 -8.046663,0 -14.9070175,-3.880603 -17.5497555,-9.32588 v 12.411182"
     id="path3621" /><path
     style="fill:none;stroke:#ffffff;stroke-width:1;stroke-linecap:round;stroke-linejoin:round;stroke-dashoffset:1.3;stroke-opacity:1"
     d="M 41.696073,23.171658 C 41.729193,18.319945 39.565525,14.559832 36.751408,10.43119 36.96663,8.1115593 35.767569,6.3008503 33.553347,5.6700593 c -2.119942,-0.6039333 -4.028026,0.508861 -4.960734,1.798671 0,0 -3.061293,-0.111274 -4.592613,-0.111274 -1.53132,0 -4.592612,0.111274 -4.592612,0.111274 -0.932709,-1.28981 -2.840793,-2.4026043 -4.960735,-1.798671 -2.214222,0.630791 -3.413283,2.4415 -3.198061,4.7611307 -2.8141175,4.128642 -4.9777865,7.888755 -4.9446645,12.740468"
     id="path3571" /></svg>
