<?xml version="1.0" encoding="UTF-8" standalone="no"?>
<svg
   viewBox="0 0 48 48"
   version="1.1"
   id="svg1"
   sodipodi:docname="poco_store.svg"
   inkscape:version="1.2.2 (b0a8486541, 2022-12-01)"
   xmlns:inkscape="http://www.inkscape.org/namespaces/inkscape"
   xmlns:sodipodi="http://sodipodi.sourceforge.net/DTD/sodipodi-0.dtd"
   xmlns="http://www.w3.org/2000/svg"
   xmlns:svg="http://www.w3.org/2000/svg">
  <sodipodi:namedview
     id="namedview1"
     pagecolor="#505050"
     bordercolor="#eeeeee"
     borderopacity="1"
     inkscape:showpageshadow="0"
     inkscape:pageopacity="0"
     inkscape:pagecheckerboard="0"
     inkscape:deskcolor="#505050"
     inkscape:zoom="17.8125"
     inkscape:cx="20.884211"
     inkscape:cy="24.02807"
     inkscape:window-width="1918"
     inkscape:window-height="1053"
     inkscape:window-x="0"
     inkscape:window-y="0"
     inkscape:window-maximized="1"
     inkscape:current-layer="svg1"
     showgrid="false" />
  <defs
     id="defs1">
    <style
       id="style1">.a { fill:none;stroke:#fff;stroke-linecap:round;stroke-linejoin:round; }
</style>
  </defs>
  <path
     style="fill:none;stroke:#ffffff;stroke-linecap:round;stroke-linejoin:round"
     d="m 9.5,5.5 h 29 c 2.216,0 4,1.784 4,4 v 29 c 0,2.216 -1.784,4 -4,4 h -29 c -2.216,0 -4,-1.784 -4,-4 v -29 c 0,-2.216 1.784,-4 4,-4 z"
     id="path15353" />
  <path
     style="fill:none;stroke:#ffffff;stroke-linecap:round;stroke-linejoin:round"
     d="m 9.7429822,28 v -8 h 2.6190348 c 1.48065,0 2.68096,1.202894 2.68096,2.68674 0,1.483845 -1.20031,2.68674 -2.68096,2.68674 H 9.7429822"
     id="path15351" />
  <path
     style="fill:none;stroke:#ffffff;stroke-linecap:round;stroke-linejoin:round"
     d="M 30.519003,25.31723 V 25.35 c 0,1.463553 -1.18645,2.649998 -2.65,2.649998 h -10e-6 c -1.46355,0 -2.64999,-1.186445 -2.64999,-2.649998 v -2.700001 c 0,-1.463555 1.18644,-2.65 2.65,-2.649997 v 0 c 1.46355,2e-6 2.65,1.186445 2.65,2.649997 v 0.03277"
     id="path15349" />
  <path
     style="fill:none;stroke:#ffffff;stroke-linecap:round;stroke-linejoin:round"
     d="m 20.130988,20.000006 h 5e-6 c 1.468099,0 2.649999,1.181899 2.649999,2.649998 v 2.699991 c 0,1.4681 -1.1819,2.649999 -2.649999,2.649999 h -5e-6 c -1.468099,0 -2.649999,-1.181899 -2.649999,-2.649999 v -2.699991 c 0,-1.468099 1.1819,-2.649998 2.649999,-2.649998 z"
     id="path15347" />
  <path
     style="fill:none;stroke:#ffffff;stroke-linecap:round;stroke-linejoin:round"
     d="m 35.607014,20.000006 h 6e-6 c 1.468099,0 2.649998,1.181899 2.649998,2.649998 v 2.699991 c 0,1.4681 -1.181899,2.649999 -2.649998,2.649999 h -6e-6 c -1.468099,0 -2.649998,-1.181899 -2.649998,-2.649999 v -2.699991 c 0,-1.468099 1.181899,-2.649998 2.649998,-2.649998 z"
     id="rect15315" />
</svg>
