<?xml version="1.0" encoding="UTF-8" standalone="no"?>
<svg
   viewBox="0 0 48 48"
   version="1.1"
   id="svg1"
   sodipodi:docname="privacy_space.svg"
   inkscape:version="1.2.2 (b0a8486541, 2022-12-01)"
   xml:space="preserve"
   xmlns:inkscape="http://www.inkscape.org/namespaces/inkscape"
   xmlns:sodipodi="http://sodipodi.sourceforge.net/DTD/sodipodi-0.dtd"
   xmlns="http://www.w3.org/2000/svg"
   xmlns:svg="http://www.w3.org/2000/svg"><sodipodi:namedview
     id="namedview1"
     pagecolor="#505050"
     bordercolor="#eeeeee"
     borderopacity="1"
     inkscape:showpageshadow="0"
     inkscape:pageopacity="0"
     inkscape:pagecheckerboard="0"
     inkscape:deskcolor="#505050"
     inkscape:zoom="17.8125"
     inkscape:cx="20.884211"
     inkscape:cy="24.02807"
     inkscape:window-width="1918"
     inkscape:window-height="1053"
     inkscape:window-x="0"
     inkscape:window-y="0"
     inkscape:window-maximized="1"
     inkscape:current-layer="svg1"
     showgrid="false" /><defs
     id="defs1"><style
       id="style1">.a { fill:none;stroke:#fff;stroke-linecap:round;stroke-linejoin:round; }
</style></defs><path
     style="fill:none;fill-opacity:0;stroke:#ffffff;stroke-width:1;stroke-linecap:round;stroke-linejoin:round;stroke-opacity:1"
     d="m 10.34377,5.5 h 27.312461 c 1.755509,0 3.168789,1.4130724 3.168789,3.168324 v 27.308445 c 0,1.755251 -1.41328,3.168324 -3.168789,3.168324 H 10.34377 c -1.7555097,0 -3.1687898,-1.413073 -3.1687898,-3.168324 V 8.668324 C 7.1749802,6.9130724 8.5882603,5.5 10.34377,5.5 Z"
     id="path47276" /><path
     style="fill:none;fill-opacity:0;stroke:#ffffff;stroke-width:1;stroke-linecap:round;stroke-linejoin:round;stroke-opacity:1"
     d="M 33.367329,22.322546 A 9.3673289,9.3659516 0 0 1 24,31.688498 9.3673289,9.3659516 0 0 1 14.632672,22.322546 9.3673289,9.3659516 0 0 1 24,12.956594 a 9.3673289,9.3659516 0 0 1 9.367329,9.365952 z"
     id="path47274" /><path
     style="fill:none;fill-opacity:0;stroke:#ffffff;stroke-width:1;stroke-linecap:round;stroke-linejoin:round;stroke-opacity:1"
     d="m 24,18.144525 a 2.4541632,2.4538024 0 0 0 -2.454987,2.452563 2.4541632,2.4538024 0 0 0 1.105776,2.048272 v 2.271045 c 0,0.877624 0.602166,1.584162 1.349211,1.584162 0.747046,0 1.349212,-0.706538 1.349212,-1.584162 V 22.64536 A 2.4541632,2.4538024 0 0 0 26.454987,20.597088 2.4541632,2.4538024 0 0 0 24,18.144525 Z"
     id="path47272" /><path
     style="fill:none;fill-opacity:0;stroke:#ffffff;stroke-width:1;stroke-linecap:round;stroke-linejoin:round;stroke-opacity:1"
     d="m 16.879485,39.146116 v 1.769722 c 0,0.877625 -0.706641,1.584162 -1.584395,1.584162 h -0.476223 c -0.877754,0 -1.584395,-0.706537 -1.584395,-1.584162 v -1.769723"
     id="path47270" /><path
     style="fill:none;fill-opacity:0;stroke:#ffffff;stroke-width:1;stroke-linecap:round;stroke-linejoin:round;stroke-opacity:1"
     d="m 34.765529,39.146116 v 1.769722 c 0,0.877625 -0.706641,1.584162 -1.584395,1.584162 H 32.70491 c -0.877753,0 -1.584394,-0.706537 -1.584394,-1.584162 l -10e-7,-1.769723"
     id="path47191" /></svg>
