<?xml version="1.0" encoding="UTF-8" standalone="no"?>
<svg
   viewBox="0 0 48 48"
   version="1.1"
   id="svg1"
   sodipodi:docname="revheadz.svg"
   inkscape:version="1.2.2 (b0a8486541, 2022-12-01)"
   xml:space="preserve"
   xmlns:inkscape="http://www.inkscape.org/namespaces/inkscape"
   xmlns:sodipodi="http://sodipodi.sourceforge.net/DTD/sodipodi-0.dtd"
   xmlns="http://www.w3.org/2000/svg"
   xmlns:svg="http://www.w3.org/2000/svg"><sodipodi:namedview
     id="namedview1"
     pagecolor="#505050"
     bordercolor="#eeeeee"
     borderopacity="1"
     inkscape:showpageshadow="0"
     inkscape:pageopacity="0"
     inkscape:pagecheckerboard="0"
     inkscape:deskcolor="#505050"
     inkscape:zoom="17.8125"
     inkscape:cx="12.014035"
     inkscape:cy="25.487719"
     inkscape:window-width="1918"
     inkscape:window-height="1053"
     inkscape:window-x="0"
     inkscape:window-y="0"
     inkscape:window-maximized="1"
     inkscape:current-layer="svg1"
     showgrid="false" /><defs
     id="defs1"><style
       id="style1">.a { fill:none;stroke:#fff;stroke-linecap:round;stroke-linejoin:round; }
</style></defs><path
     style="fill:none;fill-opacity:0;stroke:#ffffff;stroke-linecap:round;stroke-linejoin:round;stroke-opacity:1"
     d="m 9.5,5.5 h 29 c 2.216,0 4,1.784 4,4 v 29 c 0,2.216 -1.784,4 -4,4 h -29 c -2.216,0 -4,-1.784 -4,-4 v -29 c 0,-2.216 1.784,-4 4,-4 z"
     id="path63218" /><path
     style="fill:none;fill-opacity:0;stroke:#ffffff;stroke-linecap:round;stroke-linejoin:round;stroke-opacity:1"
     d="m 22.439956,11.683066 a 7.2102974,4.8427132 50.204744 0 1 0.736695,8.591925 7.2102974,4.8427132 50.204744 0 1 -8.351138,-2.602906 7.2102974,4.8427132 50.204744 0 1 -0.736695,-8.5919256 7.2102974,4.8427132 50.204744 0 1 8.351138,2.6029066 v 0"
     id="path63216" /><path
     style="fill:none;fill-opacity:0;stroke:#ffffff;stroke-linecap:round;stroke-linejoin:round;stroke-opacity:1"
     d="M 18.676212,8.8272841 42.3887,18.203098"
     id="path63214" /><path
     style="fill:none;fill-opacity:0;stroke:#ffffff;stroke-linecap:round;stroke-linejoin:round;stroke-opacity:1"
     d="M 18.676212,20.589096 42.3887,29.96491"
     id="path63212" /><path
     style="fill:none;fill-opacity:0;stroke:#ffffff;stroke-linecap:round;stroke-linejoin:round;stroke-opacity:1"
     d="m 22.60838,25.03044 a 7.2102974,4.8427132 50.204744 0 1 0.736694,8.591925 7.2102974,4.8427132 50.204744 0 1 -8.351137,-2.602905 7.2102974,4.8427132 50.204744 0 1 -0.736696,-8.591926 7.2102974,4.8427132 50.204744 0 1 8.351139,2.602906 v 0"
     id="path63210" /><path
     style="fill:none;fill-opacity:0;stroke:#ffffff;stroke-linecap:round;stroke-linejoin:round;stroke-opacity:1"
     d="m 18.844632,22.174644 23.544523,9.309401"
     id="path63208" /><path
     style="fill:none;fill-opacity:0;stroke:#ffffff;stroke-linecap:round;stroke-linejoin:round;stroke-opacity:1"
     d="m 18.844632,33.936456 20.831783,8.236796"
     id="path63163" /></svg>
