<?xml version="1.0" encoding="UTF-8" standalone="no"?>
<svg
   viewBox="0 0 48 48"
   version="1.1"
   id="svg1"
   sodipodi:docname="wa_enhancer.svg"
   inkscape:version="1.2.2 (b0a8486541, 2022-12-01)"
   xml:space="preserve"
   xmlns:inkscape="http://www.inkscape.org/namespaces/inkscape"
   xmlns:sodipodi="http://sodipodi.sourceforge.net/DTD/sodipodi-0.dtd"
   xmlns="http://www.w3.org/2000/svg"
   xmlns:svg="http://www.w3.org/2000/svg"><sodipodi:namedview
     id="namedview1"
     pagecolor="#505050"
     bordercolor="#eeeeee"
     borderopacity="1"
     inkscape:showpageshadow="0"
     inkscape:pageopacity="0"
     inkscape:pagecheckerboard="0"
     inkscape:deskcolor="#505050"
     inkscape:zoom="17.8125"
     inkscape:cx="20.884211"
     inkscape:cy="24.02807"
     inkscape:window-width="1918"
     inkscape:window-height="1053"
     inkscape:window-x="0"
     inkscape:window-y="0"
     inkscape:window-maximized="1"
     inkscape:current-layer="svg1"
     showgrid="false" /><defs
     id="defs1"><style
       id="style1">.a { fill:none;stroke:#fff;stroke-linecap:round;stroke-linejoin:round; }
</style></defs><path
     style="fill:none;stroke:#ffffff;stroke-width:1;stroke-linecap:round;stroke-linejoin:round;stroke-opacity:1"
     d="m 23.999998,2.5 a 21.498681,21.498681 0 0 0 -21.5,21.5 21.498681,21.498681 0 0 0 2.535253,10.009577 L 2.774557,44.755196 12.827947,42.330933 A 21.498681,21.498681 0 0 0 24.000002,45.5 a 21.498681,21.498681 0 0 0 21.5,-21.5 21.498681,21.498681 0 0 0 -21.5,-21.5 z"
     id="path55707" /><path
     style="fill:none;stroke:#ffffff;stroke-width:1;stroke-linecap:round;stroke-linejoin:round;stroke-opacity:1"
     d="m 23.998098,27.102843 a 3.0999941,3.1031682 0 1 1 3.095676,-3.103169 3.0956766,3.0988462 0 0 1 -3.095676,3.103169 z"
     id="path55705" /><path
     style="fill:none;stroke:#ffffff;stroke-width:1;stroke-linecap:round;stroke-linejoin:round;stroke-opacity:1"
     d="M 32.957507,25.177439 A 9.716214,9.7256548 0 0 0 33.039847,24 9.716214,9.7256548 0 0 0 32.957507,22.82256 l 2.546682,-1.995762 a 0.58814855,0.58872003 0 0 0 0.147033,-0.771224 l -2.41141,-4.185796 a 0.58814855,0.58872003 0 0 0 -0.735185,-0.259039 l -3.005439,1.212764 a 9.2221693,9.23113 0 0 0 -2.034989,-1.17744 l -0.452876,-3.196749 a 0.58814855,0.58872003 0 0 0 -0.588148,-0.5063 h -4.83458 a 0.58814855,0.58872003 0 0 0 -0.58815,0.5063 l -0.452875,3.196749 a 9.0339618,9.0427396 0 0 0 -2.034992,1.177439 l -3.017203,-1.212763 a 0.58814855,0.58872003 0 0 0 -0.735185,0.259039 l -2.411409,4.185796 a 0.58814855,0.58872003 0 0 0 0.147033,0.771224 l 2.5408,1.995762 A 9.798555,9.8080757 0 0 0 14.954274,24 a 9.716214,9.7256548 0 0 0 0.08234,1.177439 l -2.540801,1.995762 a 0.58814855,0.58872003 0 0 0 -0.147033,0.771224 l 2.411409,4.185799 a 0.58814855,0.58872003 0 0 0 0.735185,0.259037 l 3.00544,-1.212764 a 9.2221693,9.23113 0 0 0 2.034992,1.17744 l 0.452876,3.19675 a 0.58814855,0.58872003 0 0 0 0.588148,0.506299 h 4.822818 a 0.58814855,0.58872003 0 0 0 0.588149,-0.506299 l 0.452869,-3.19675 a 9.0339618,9.0427396 0 0 0 2.034994,-1.17744 l 3.005438,1.212764 a 0.58814855,0.58872003 0 0 0 0.735187,-0.259037 l 2.411407,-4.185799 a 0.58814855,0.58872003 0 0 0 -0.147033,-0.771224 z"
     id="path55158" /></svg>
