<?xml version="1.0" encoding="UTF-8" standalone="no"?>
<svg
   viewBox="0 0 48 48"
   version="1.1"
   id="svg1"
   sodipodi:docname="weplay.svg"
   inkscape:version="1.2.2 (b0a8486541, 2022-12-01)"
   xml:space="preserve"
   xmlns:inkscape="http://www.inkscape.org/namespaces/inkscape"
   xmlns:sodipodi="http://sodipodi.sourceforge.net/DTD/sodipodi-0.dtd"
   xmlns="http://www.w3.org/2000/svg"
   xmlns:svg="http://www.w3.org/2000/svg"><sodipodi:namedview
     id="namedview1"
     pagecolor="#505050"
     bordercolor="#eeeeee"
     borderopacity="1"
     inkscape:showpageshadow="0"
     inkscape:pageopacity="0"
     inkscape:pagecheckerboard="0"
     inkscape:deskcolor="#505050"
     inkscape:zoom="8.90625"
     inkscape:cx="-15.382456"
     inkscape:cy="21.782456"
     inkscape:window-width="1918"
     inkscape:window-height="1053"
     inkscape:window-x="0"
     inkscape:window-y="0"
     inkscape:window-maximized="1"
     inkscape:current-layer="svg1"
     showgrid="false" /><defs
     id="defs1"><style
       id="style1">.a { fill:none;stroke:#fff;stroke-linecap:round;stroke-linejoin:round; }
</style></defs><path
     style="fill:none;stroke:#ffffff;stroke-linecap:round;stroke-linejoin:round;stroke-opacity:1"
     d="m 9.5,5.5 h 29 c 2.216,0 4,1.784 4,4 v 29 c 0,2.216 -1.784,4 -4,4 h -29 c -2.216,0 -4,-1.784 -4,-4 v -29 c 0,-2.216 1.784,-4 4,-4 z"
     id="path1582" /><path
     style="fill:none;stroke:#ffffff;stroke-linecap:round;stroke-linejoin:round;stroke-opacity:1"
     d="M 5.6593214,18.557849 C 7.856437,15.012957 11.77003,12.850421 15.963855,12.899461 c 0.11443,0.0013 -0.5225,-1.743659 0.983947,-2.458639 1.290682,-0.6125761 2.963311,-0.627753 4.779064,2.075451 1.10276,1.641735 2.146886,2.114693 4.053198,2.625487 l -1e-6,4e-6 v 0 l 4.152586,1.112682 c 6.421469,1.720627 10.205908,8.275469 8.485281,14.696938 l -3.049224,11.379858"
     id="path1580" /><path
     style="fill:none;stroke:#ffffff;stroke-linecap:round;stroke-linejoin:round;stroke-opacity:1"
     d="m 17.636069,17.796248 c -4.339439,-1.162749 -8.6732007,1.037102 -9.7169413,4.932396 -1.0437409,3.895294 1.6094819,7.967302 5.9489203,9.130051 4.580157,1.22725 5.047737,-0.901445 6.346773,-0.553369 1.299037,0.348076 0.639626,2.425369 5.219782,3.652618 4.339439,1.162749 8.6732,-1.037102 9.716941,-4.932396 1.043741,-3.895294 -1.609481,-7.967301 -5.94892,-9.13005 l -11.566555,-3.09925 v 0"
     id="path1578" /><path
     style="fill:none;stroke:#ffffff;stroke-linecap:round;stroke-linejoin:round;stroke-opacity:1"
     d="M 23.536964,29.081064 A 3.1350243,2.1755345 15 0 1 20.915267,29.258957 3.1350243,2.1755345 15 0 1 18.733435,27.79355"
     id="path1576" /><path
     style="fill:none;stroke:#ffffff;stroke-linecap:round;stroke-linejoin:round;stroke-opacity:1"
     d="m 30.094231,26.390913 -2.525246,1.52012 1.426819,2.578992"
     id="path1574" /><path
     style="fill:none;stroke:#ffffff;stroke-linecap:round;stroke-linejoin:round;stroke-opacity:1"
     d="m 16.787633,24.710831 a 2.1952269,2.1952269 0 0 1 -2.688593,1.55226 2.1952269,2.1952269 0 0 1 -1.55226,-2.688593 2.1952269,2.1952269 0 0 1 2.688593,-1.55226 2.1952269,2.1952269 0 0 1 1.55226,2.688593 v 0"
     id="path1554" /></svg>
