<?xml version="1.0" encoding="UTF-8" standalone="no"?>
<svg
   viewBox="0 0 48 48"
   version="1.1"
   id="svg1"
   sodipodi:docname="wood_nuts_and_bolts_puzzle.svg"
   inkscape:version="1.2.2 (b0a8486541, 2022-12-01)"
   xml:space="preserve"
   xmlns:inkscape="http://www.inkscape.org/namespaces/inkscape"
   xmlns:sodipodi="http://sodipodi.sourceforge.net/DTD/sodipodi-0.dtd"
   xmlns="http://www.w3.org/2000/svg"
   xmlns:svg="http://www.w3.org/2000/svg"><sodipodi:namedview
     id="namedview1"
     pagecolor="#505050"
     bordercolor="#eeeeee"
     borderopacity="1"
     inkscape:showpageshadow="0"
     inkscape:pageopacity="0"
     inkscape:pagecheckerboard="0"
     inkscape:deskcolor="#505050"
     inkscape:zoom="6.2976698"
     inkscape:cx="-50.971234"
     inkscape:cy="40.967534"
     inkscape:window-width="1918"
     inkscape:window-height="1053"
     inkscape:window-x="0"
     inkscape:window-y="0"
     inkscape:window-maximized="0"
     inkscape:current-layer="svg1"
     showgrid="false" /><defs
     id="defs1"><style
       id="style1">.a { fill:none;stroke:#fff;stroke-linecap:round;stroke-linejoin:round; }
</style></defs><path
     style="fill:none;stroke:#ffffff;stroke-width:1;stroke-linecap:round;stroke-linejoin:round;stroke-opacity:1"
     d="m 7.3270876,6.4466864 h 6.9905694 c 1.012206,0 1.827086,0.8147888 1.827086,1.826881 V 39.829219 c 0,1.012093 -0.81488,1.826882 -1.827086,1.826882 H 7.3270879 c -1.0122055,0 -1.8270863,-0.814789 -1.8270862,-1.826882 l -3e-7,-31.5556514 c 0,-1.0120922 0.8148806,-1.8268813 1.8270862,-1.8268812 z"
     id="path33190" /><path
     style="fill:none;stroke:#ffffff;stroke-width:1;stroke-linecap:round;stroke-linejoin:round;stroke-opacity:1"
     d="m 15.548553,12.253589 c 0,2.609905 -2.115981,4.725651 -4.726177,4.725655 -2.6102001,0 -4.726185,-2.115748 -4.7261847,-4.725655 -4e-7,-2.6099069 2.1159844,-4.7256549 4.7261837,-4.725655 2.6102,-4e-7 4.726185,2.1157478 4.726185,4.725655 z"
     id="path33188" /><path
     style="fill:none;stroke:#ffffff;stroke-width:1;stroke-linecap:round;stroke-linejoin:round;stroke-opacity:1"
     d="m 15.548553,35.849198 c 0,2.609907 -2.115985,4.725655 -4.726184,4.725655 -2.6101997,0 -4.7261847,-2.115748 -4.7261844,-4.725655 -3e-7,-2.609907 2.1159846,-4.725655 4.7261844,-4.725655 2.610199,0 4.726184,2.115748 4.726184,4.725655 z"
     id="path33186" /><path
     style="fill:none;stroke:#ffffff;stroke-width:1;stroke-linecap:round;stroke-linejoin:round;stroke-opacity:1"
     d="m 9.3354234,10.766808 2.9738916,2.97356"
     id="path33184" /><path
     style="fill:none;stroke:#ffffff;stroke-width:1;stroke-linecap:round;stroke-linejoin:round;stroke-opacity:1"
     d="M 12.309315,10.766808 9.3354231,13.740367"
     id="path33182" /><path
     style="fill:none;stroke:#ffffff;stroke-width:1;stroke-linecap:round;stroke-linejoin:round;stroke-opacity:1"
     d="M 9.3354275,34.362422 12.309319,37.33598"
     id="path33180" /><path
     style="fill:none;stroke:#ffffff;stroke-width:1;stroke-linecap:round;stroke-linejoin:round;stroke-opacity:1"
     d="M 12.30932,34.362422 9.3354282,37.33598"
     id="path33178" /><path
     style="fill:none;stroke:#ffffff;stroke-width:1;stroke-linecap:round;stroke-linejoin:round;stroke-opacity:1"
     d="m 33.285582,41.040725 -17.607626,2e-6"
     id="path33176" /><path
     style="fill:none;stroke:#ffffff;stroke-width:1;stroke-linecap:round;stroke-linejoin:round;stroke-opacity:1"
     d="m 41.482675,38.059586 v 1.15426 c 0,1.01209 -0.814882,1.826881 -1.827086,1.826881 h -3.880886"
     id="path33174" /><path
     style="fill:none;stroke:#ffffff;stroke-width:1;stroke-linecap:round;stroke-linejoin:round;stroke-opacity:1"
     d="m 39.589569,30.397176 0.06602,3e-6 c 1.012204,0 1.827086,0.814791 1.827086,1.82688 v 0 1.796508"
     id="path33172" /><path
     style="fill:none;stroke:#ffffff;stroke-width:1;stroke-linecap:round;stroke-linejoin:round;stroke-opacity:1"
     d="M 16.143663,30.397177 H 27.581126"
     id="path33170" /><path
     style="fill:none;stroke:#ffffff;stroke-width:1;stroke-linecap:round;stroke-linejoin:round;stroke-opacity:1"
     d="m 34.965919,34.362419 2.973892,2.973558"
     id="path33168" /><path
     style="fill:none;stroke:#ffffff;stroke-width:1;stroke-linecap:round;stroke-linejoin:round;stroke-opacity:1"
     d="m 37.939811,34.362419 -2.973893,2.973558"
     id="path33166" /><path
     style="fill:none;stroke:#ffffff;stroke-width:1;stroke-linecap:round;stroke-linejoin:round;stroke-opacity:1"
     d="m 41.179049,35.849198 c 0,2.609907 -2.115985,4.725654 -4.726184,4.725654 -2.6102,0 -4.726185,-2.115747 -4.726185,-4.725654 0,-2.609907 2.115985,-4.725655 4.726185,-4.725655 2.6102,0 4.726184,2.115748 4.726184,4.725655 z"
     id="path33164" /><path
     style="fill:none;stroke:#ffffff;stroke-width:1;stroke-linecap:round;stroke-linejoin:round;stroke-opacity:1"
     d="m 31.021613,13.986545 11.272204,21.58827 c 0.468453,0.897176 0.123231,1.996547 -0.774046,2.46495 l -1.334876,0.696842"
     id="path33162" /><path
     style="fill:none;stroke:#ffffff;stroke-width:1;stroke-linecap:round;stroke-linejoin:round;stroke-opacity:1"
     d="m 36.723504,40.543512 -1.400659,0.731182 c -0.897277,0.468401 -1.996769,0.123216 -2.465224,-0.77396 L 18.251851,12.527952 c -0.468455,-0.897175 -0.12323,-1.996545 0.774046,-2.464949 v 0 l 6.196852,-3.2349277 c 0.897276,-0.468403 1.996769,-0.1232162 2.465225,0.7739598 l 0.575803,1.1027646"
     id="path33160" /><path
     style="fill:none;stroke:#ffffff;stroke-width:1;stroke-linecap:round;stroke-linejoin:round;stroke-opacity:1"
     d="M 33.835015,14.408506 C 32.493059,15.1832 30.39428,14.060466 29.147262,11.900812 27.900245,9.7411569 27.977211,7.3623981 29.31917,6.5877053 c 1.341958,-0.7746927 3.440737,0.3480408 4.687754,2.5076949 1.247016,2.1596538 1.170052,4.5384128 -0.171907,5.3131058 z"
     id="path33158" /><path
     style="fill:none;stroke:#ffffff;stroke-width:1;stroke-linecap:round;stroke-linejoin:round;stroke-opacity:1"
     d="m 30.469994,13.552389 -3.118269,1.800133 c -0.737374,0.425679 -1.803414,-0.04023 -2.38106,-1.040623 -0.577644,-1.000397 -0.448152,-2.156463 0.289226,-2.582141 l 3.11855,-1.8002938"
     id="path33156" /><path
     style="fill:none;stroke:#ffffff;stroke-width:1;stroke-linecap:round;stroke-linejoin:round;stroke-opacity:1"
     d="m 31.568494,8.859063 0.01719,3.278086"
     id="path33154" /><path
     style="fill:none;stroke:#ffffff;stroke-width:1;stroke-linecap:round;stroke-linejoin:round;stroke-opacity:1"
     d="M 32.992405,11.325074 30.161781,9.6711385"
     id="path33152" /><path
     style="fill:none;stroke:#ffffff;stroke-width:1;stroke-linecap:round;stroke-linejoin:round;stroke-opacity:1"
     d="m 36.684803,40.563715 -1.361958,0.710979 c -0.897276,0.468401 -1.996769,0.123215 -2.465224,-0.77396 L 18.251851,12.527952 c -0.468455,-0.897174 -0.123229,-1.996545 0.774046,-2.464949 v 0 L 25.222749,6.8280753 C 26.120024,6.3596728 27.219518,6.70486 27.687974,7.6020351 l 0.575803,1.1027646"
     id="path33112" /></svg>
