<?xml version="1.0" encoding="UTF-8" standalone="no"?>
<svg
   viewBox="0 0 48 48"
   version="1.1"
   id="svg1"
   sodipodi:docname="word_trip.svg"
   inkscape:version="1.2.2 (b0a8486541, 2022-12-01)"
   xml:space="preserve"
   xmlns:inkscape="http://www.inkscape.org/namespaces/inkscape"
   xmlns:sodipodi="http://sodipodi.sourceforge.net/DTD/sodipodi-0.dtd"
   xmlns="http://www.w3.org/2000/svg"
   xmlns:svg="http://www.w3.org/2000/svg"><sodipodi:namedview
     id="namedview1"
     pagecolor="#505050"
     bordercolor="#eeeeee"
     borderopacity="1"
     inkscape:showpageshadow="0"
     inkscape:pageopacity="0"
     inkscape:pagecheckerboard="0"
     inkscape:deskcolor="#505050"
     inkscape:zoom="8.90625"
     inkscape:cx="-18.863158"
     inkscape:cy="20.884211"
     inkscape:window-width="1918"
     inkscape:window-height="1053"
     inkscape:window-x="0"
     inkscape:window-y="0"
     inkscape:window-maximized="1"
     inkscape:current-layer="svg1"
     showgrid="false" /><defs
     id="defs1"><style
       id="style1">.a { fill:none;stroke:#fff;stroke-linecap:round;stroke-linejoin:round; }
</style></defs><path
     style="fill:none;stroke:#ffffff;stroke-width:1;stroke-linecap:round;stroke-linejoin:round"
     d="M 45.5,24 A 21.5,21.5 0 0 1 24,45.5 21.5,21.5 0 0 1 2.4999998,24 21.5,21.5 0 0 1 24,2.4999998 21.5,21.5 0 0 1 45.5,24 Z"
     id="path66166" /><path
     style="fill:none;stroke:#ffffff;stroke-width:1;stroke-linecap:round;stroke-linejoin:round"
     d="m 24,3.8753192 a 7.1599468,7.1599468 0 0 0 -7.160718,7.1589058 7.1599468,7.1599468 0 0 0 0.960561,3.546829 L 14.591929,17.78897 A 7.1599468,7.1599468 0 0 0 11.034225,16.839282 7.1599468,7.1599468 0 0 0 3.8753192,24 a 7.1599468,7.1599468 0 0 0 7.1589058,7.160718 7.1599468,7.1599468 0 0 0 3.546829,-0.960562 l 3.218789,3.218789 A 7.1599468,7.1599468 0 0 0 16.839282,36.965775 7.1599468,7.1599468 0 0 0 24,44.124681 7.1599468,7.1599468 0 0 0 31.160718,36.965775 7.1599468,7.1599468 0 0 0 30.21103,33.408071 l 3.207915,-3.207915 a 7.1599468,7.1599468 0 0 0 3.54683,0.960562 A 7.1599468,7.1599468 0 0 0 44.124681,24 7.1599468,7.1599468 0 0 0 36.965775,16.839282 7.1599468,7.1599468 0 0 0 29.805056,24 7.1599468,7.1599468 0 0 0 31.54313,28.675943 l -2.868999,2.868999 A 7.1599468,7.1599468 0 0 0 24,29.805056 7.1599468,7.1599468 0 0 0 19.324057,31.54313 L 16.456869,28.675943 A 7.1599468,7.1599468 0 0 0 18.194943,24 7.1599468,7.1599468 0 0 0 16.455057,19.325869 l 2.869,-2.869 A 7.1599468,7.1599468 0 0 0 24,18.194943 7.1599468,7.1599468 0 0 0 31.160718,11.034225 7.1599468,7.1599468 0 0 0 24,3.8753192 Z"
     id="path66164" /><path
     style="fill:none;stroke:#ffffff;stroke-width:1;stroke-linecap:round;stroke-linejoin:round"
     d="m 21.896686,40.720047 v -7.423513 h 2.43031 c 1.373953,0 2.487768,1.116212 2.487768,2.493131 0,1.376918 -1.113815,2.493131 -2.487768,2.493131 h -2.43031"
     id="path66162" /><path
     style="fill:none;stroke:#ffffff;stroke-width:1;stroke-linecap:round;stroke-linejoin:round"
     d="m 24.327002,38.28276 2.430093,2.435387"
     id="path66160" /><path
     style="fill:none;stroke:#ffffff;stroke-width:1;stroke-linecap:round;stroke-linejoin:round"
     d="M 27.711756,7.583688 25.855878,15.007201 24,7.583688 22.144121,15.007201 20.288243,7.583688"
     id="path66158" /><path
     style="fill:none;stroke:#ffffff;stroke-width:1;stroke-linecap:round;stroke-linejoin:round"
     d="m 35.183289,27.711756 v -7.423513 h 1.67029 c 1.793697,0 3.247787,1.454084 3.247787,3.247787 v 0.927939 c 0,1.793703 -1.45409,3.247787 -3.247787,3.247787 z"
     id="path66156" /><path
     style="fill:none;stroke:#ffffff;stroke-width:1;stroke-linecap:round;stroke-linejoin:round"
     d="m 11.034898,20.288249 h 5e-6 c 1.362306,0 2.459036,1.09673 2.459036,2.459037 v 2.505427 c 0,1.362308 -1.09673,2.459038 -2.459036,2.459038 h -5e-6 c -1.3623069,0 -2.4590376,-1.09673 -2.4590376,-2.459038 v -2.505427 c 0,-1.362307 1.0967307,-2.459037 2.4590376,-2.459037 z"
     id="rect1302" /></svg>
