<?xml version="1.0" encoding="UTF-8" standalone="no"?>
<svg
   viewBox="0 0 48 48"
   version="1.1"
   id="svg1"
   sodipodi:docname="wordly_yoga.svg"
   inkscape:version="1.2.2 (b0a8486541, 2022-12-01)"
   xml:space="preserve"
   xmlns:inkscape="http://www.inkscape.org/namespaces/inkscape"
   xmlns:sodipodi="http://sodipodi.sourceforge.net/DTD/sodipodi-0.dtd"
   xmlns="http://www.w3.org/2000/svg"
   xmlns:svg="http://www.w3.org/2000/svg"><sodipodi:namedview
     id="namedview1"
     pagecolor="#505050"
     bordercolor="#eeeeee"
     borderopacity="1"
     inkscape:showpageshadow="0"
     inkscape:pageopacity="0"
     inkscape:pagecheckerboard="0"
     inkscape:deskcolor="#505050"
     inkscape:zoom="12.433294"
     inkscape:cx="48.65967"
     inkscape:cy="21.233311"
     inkscape:window-width="1918"
     inkscape:window-height="1053"
     inkscape:window-x="0"
     inkscape:window-y="0"
     inkscape:window-maximized="1"
     inkscape:current-layer="svg1"
     showgrid="false" /><defs
     id="defs1"><style
       id="style1">.a { fill:none;stroke:#fff;stroke-linecap:round;stroke-linejoin:round; }
</style></defs><circle
     class="q"
     cx="36.997799"
     cy="39.273525"
     id="circle29768"
     style="fill:#ffffff;stroke-width:1"
     r="0.75" /><circle
     class="q"
     cx="24"
     cy="39.273525"
     id="circle29873"
     style="fill:#ffffff;stroke-width:1"
     r="0.75" /><path
     style="fill:none;stroke:#ffffff;stroke-width:1;stroke-linecap:round;stroke-linejoin:round"
     d="m 8.1516628,5.5 h 5.7010752 c 1.469022,0 2.651664,1.1826418 2.651664,2.6516633 v 5.7010777 c 0,1.469021 -1.182642,2.651663 -2.651664,2.651663 H 8.1516628 c -1.4690214,0 -2.6516633,-1.182642 -2.6516633,-2.651663 V 8.1516633 C 5.4999995,6.6826418 6.6826414,5.5 8.1516628,5.5 Z"
     id="path29999" /><path
     style="fill:none;stroke:#ffffff;stroke-width:1;stroke-linecap:round;stroke-linejoin:round"
     d="m 21.149462,5.5 h 5.701076 c 1.469021,0 2.651663,1.1826418 2.651663,2.6516633 v 5.7010777 c 0,1.469021 -1.182642,2.651663 -2.651663,2.651663 h -5.701076 c -1.469021,0 -2.651663,-1.182642 -2.651663,-2.651663 V 8.1516633 C 18.497799,6.6826418 19.680441,5.5 21.149462,5.5 Z"
     id="path29997" /><path
     style="fill:none;stroke:#ffffff;stroke-width:1;stroke-linecap:round;stroke-linejoin:round"
     d="m 34.147261,5.5 h 5.701076 C 41.317358,5.5 42.5,6.6826418 42.5,8.1516633 v 5.7010777 c 0,1.469021 -1.182642,2.651663 -2.651663,2.651663 h -5.701076 c -1.469021,0 -2.651663,-1.182642 -2.651663,-2.651663 V 8.1516633 C 31.495598,6.6826418 32.67824,5.5 34.147261,5.5 Z"
     id="path29995" /><path
     style="fill:none;stroke:#ffffff;stroke-width:1;stroke-linecap:round;stroke-linejoin:round"
     d="m 29.502203,21.149462 v 5.701076 c 0,1.469021 -1.182642,2.651663 -2.651663,2.651663 h -5.701078 c -1.469021,0 -2.651663,-1.182642 -2.651663,-2.651663 v -5.701076 c 0,-1.469021 1.182642,-2.651663 2.651663,-2.651663 h 5.701078 c 1.469021,0 2.651663,1.182642 2.651663,2.651663 z"
     id="path29993" /><path
     style="fill:none;stroke:#ffffff;stroke-width:1;stroke-linecap:round;stroke-linejoin:round"
     d="m 29.502203,34.147261 v 5.701076 c 0,1.469021 -1.182642,2.651663 -2.651663,2.651663 h -5.701078 c -1.469021,0 -2.651663,-1.182642 -2.651663,-2.651663 v -5.701076 c 0,-1.469021 1.182642,-2.651663 2.651663,-2.651663 h 5.701078 c 1.469021,0 2.651663,1.182642 2.651663,2.651663 z"
     id="path29991" /><path
     style="fill:none;stroke:#ffffff;stroke-width:1;stroke-linecap:round;stroke-linejoin:round"
     d="m 16.504404,21.149462 v 5.701076 c 0,1.469021 -1.182642,2.651663 -2.651663,2.651663 H 8.1516633 C 6.6826418,29.502201 5.5,28.319559 5.5,26.850538 v -5.701076 c 0,-1.469021 1.1826418,-2.651663 2.6516633,-2.651663 h 5.7010777 c 1.469021,0 2.651663,1.182642 2.651663,2.651663 z"
     id="path29989" /><path
     style="fill:none;stroke:#ffffff;stroke-width:1;stroke-linecap:round;stroke-linejoin:round"
     d="m 16.504404,34.147261 v 5.701076 c 0,1.469021 -1.182642,2.651663 -2.651663,2.651663 H 8.1516633 C 6.6826418,42.5 5.5,41.317358 5.5,39.848337 v -5.701076 c 0,-1.469021 1.1826418,-2.651663 2.6516633,-2.651663 h 5.7010777 c 1.469021,0 2.651663,1.182642 2.651663,2.651663 z"
     id="path29987" /><path
     style="fill:none;stroke:#ffffff;stroke-width:1;stroke-linecap:round;stroke-linejoin:round"
     d="m 42.5,21.149462 v 5.701076 c 0,1.469021 -1.182642,2.651663 -2.651663,2.651663 h -5.701078 c -1.469021,0 -2.651663,-1.182642 -2.651663,-2.651663 v -5.701076 c 0,-1.469021 1.182642,-2.651663 2.651663,-2.651663 h 5.701078 c 1.469021,0 2.651663,1.182642 2.651663,2.651663 z"
     id="path29985" /><path
     style="fill:none;stroke:#ffffff;stroke-width:1;stroke-linecap:round;stroke-linejoin:round"
     d="m 42.5,34.147261 v 5.701076 C 42.5,41.317358 41.317358,42.5 39.848337,42.5 h -5.701078 c -1.469021,0 -2.651663,-1.182642 -2.651663,-2.651663 v -5.701076 c 0,-1.469021 1.182642,-2.651663 2.651663,-2.651663 h 5.701078 c 1.469021,0 2.651663,1.182642 2.651663,2.651663 z"
     id="path29983" /><path
     style="fill:none;stroke:#ffffff;stroke-width:1;stroke-linecap:round;stroke-linejoin:round"
     d="m 9.1695564,13.502202 v -5 h 1.8112326 c 1.023965,0 1.854056,0.7518092 1.854056,1.679213 0,0.927403 -0.830091,1.679214 -1.854056,1.679214 H 9.1695564"
     id="path29981" /><path
     style="fill:none;stroke:#ffffff;stroke-width:1;stroke-linecap:round;stroke-linejoin:round"
     d="m 35.165157,8.502202 h 3.665284"
     id="path29979" /><path
     style="fill:none;stroke:#ffffff;stroke-width:1;stroke-linecap:round;stroke-linejoin:round"
     d="m 36.997799,13.502202 v -5"
     id="path29977" /><path
     style="fill:none;stroke:#ffffff;stroke-width:1;stroke-linecap:round;stroke-linejoin:round"
     d="m 23.999998,8.5022049 h 3e-6 c 1.015284,0 1.832643,0.7386871 1.832643,1.6562491 v 1.687495 c 0,0.917562 -0.817359,1.656249 -1.832643,1.656249 h -3e-6 c -1.015285,0 -1.832643,-0.738687 -1.832643,-1.656249 v -1.687495 c 0,-0.917562 0.817358,-1.6562491 1.832643,-1.6562491 z"
     id="path29975" /><path
     style="fill:none;stroke:#ffffff;stroke-width:1;stroke-linecap:round;stroke-linejoin:round"
     d="m 24,21.500029 h 4e-6 c 1.01528,0 1.832635,0.738679 1.832635,1.656232 v 1.687479 c 0,0.917553 -0.817355,1.656232 -1.832635,1.656232 H 24 c -1.01528,0 -1.832636,-0.738679 -1.832636,-1.656232 v -1.687479 c 0,-0.917553 0.817356,-1.656232 1.832636,-1.656232 z"
     id="path29973" /><path
     style="fill:none;stroke:#ffffff;stroke-width:1;stroke-linecap:round;stroke-linejoin:round"
     d="m 9.16957,21.500025 h 3.665265"
     id="path29971" /><path
     style="fill:none;stroke:#ffffff;stroke-width:1;stroke-linecap:round;stroke-linejoin:round"
     d="m 11.002202,26.499975 v -4.99995"
     id="path29969" /><path
     style="fill:none;stroke:#ffffff;stroke-width:1;stroke-linecap:round;stroke-linejoin:round"
     d="m 34.495141,26.4945 v -4.994663 l 2.502656,5.000164 2.502657,-4.99256 v 4.99256"
     id="path29967" /><path
     style="fill:none;stroke:#ffffff;stroke-width:1;stroke-linecap:round;stroke-linejoin:round"
     d="m 36.99369,37.782768 v 0.175785"
     id="path29965" /><path
     style="fill:none;stroke:#ffffff;stroke-width:1;stroke-linecap:round;stroke-linejoin:round"
     d="m 35.855685,35.761192 c 0,-0.35598 0.127833,-0.678258 0.334514,-0.911542 0.206681,-0.233287 0.49221,-0.377578 0.8076,-0.377578 0.630767,0 1.142112,0.577159 1.142112,1.28912 0,0.355979 -0.106522,0.705098 -0.334519,0.911541 -0.236355,0.214019 -0.811701,0.564594 -0.811701,1.110033"
     id="path29963" /><path
     style="fill:none;stroke:#ffffff;stroke-width:1;stroke-linecap:round;stroke-linejoin:round"
     d="m 23.995892,37.782768 v 0.175785"
     id="path29961" /><path
     style="fill:none;stroke:#ffffff;stroke-width:1;stroke-linecap:round;stroke-linejoin:round"
     d="m 22.857888,35.761192 c 0,-0.35598 0.127833,-0.678258 0.334514,-0.911542 0.206681,-0.233287 0.49221,-0.377578 0.8076,-0.377578 0.630767,0 1.142112,0.577159 1.142112,1.28912 0,0.355979 -0.106522,0.705098 -0.334519,0.911541 -0.236355,0.214019 -0.811701,0.564594 -0.811701,1.110033"
     id="path29959" /><path
     style="fill:none;stroke:#ffffff;stroke-width:1;stroke-linecap:round;stroke-linejoin:round"
     d="m 10.998094,37.782768 v 0.175785"
     id="path29957" /><path
     style="fill:none;stroke:#ffffff;stroke-width:1;stroke-linecap:round;stroke-linejoin:round"
     d="m 9.860089,35.761192 c 0,-0.35598 0.127833,-0.678258 0.334514,-0.911542 0.206681,-0.233287 0.49221,-0.377578 0.8076,-0.377578 0.630767,0 1.142112,0.577159 1.142112,1.28912 0,0.355979 -0.106522,0.705098 -0.334519,0.911541 -0.236355,0.214019 -0.811701,0.564594 -0.811701,1.110033"
     id="path29879" /><circle
     class="q"
     cx="11.002202"
     cy="39.273525"
     id="circle29881"
     style="fill:#ffffff;stroke-width:1"
     r="0.75" /></svg>
