<?xml version="1.0" encoding="UTF-8" standalone="no"?>
<svg
   viewBox="0 0 48 48"
   version="1.1"
   id="svg1"
   sodipodi:docname="zvuk_business.svg"
   inkscape:version="1.2.2 (b0a8486541, 2022-12-01)"
   xml:space="preserve"
   xmlns:inkscape="http://www.inkscape.org/namespaces/inkscape"
   xmlns:sodipodi="http://sodipodi.sourceforge.net/DTD/sodipodi-0.dtd"
   xmlns="http://www.w3.org/2000/svg"
   xmlns:svg="http://www.w3.org/2000/svg"><sodipodi:namedview
     id="namedview1"
     pagecolor="#505050"
     bordercolor="#eeeeee"
     borderopacity="1"
     inkscape:showpageshadow="0"
     inkscape:pageopacity="0"
     inkscape:pagecheckerboard="0"
     inkscape:deskcolor="#505050"
     inkscape:zoom="8.90625"
     inkscape:cx="12.463158"
     inkscape:cy="26.161403"
     inkscape:window-width="1918"
     inkscape:window-height="1053"
     inkscape:window-x="0"
     inkscape:window-y="0"
     inkscape:window-maximized="1"
     inkscape:current-layer="svg1"
     showgrid="false" /><defs
     id="defs1"><style
       id="style1">.a { fill:none;stroke:#fff;stroke-linecap:round;stroke-linejoin:round; }
</style></defs><path
     style="fill:none;stroke:#ffffff;stroke-width:1;stroke-linecap:round;stroke-linejoin:round"
     d="m 38.534976,9.4650255 c 3.089466,3.0894645 3.965025,10.1658095 3.965025,14.5349755 0,4.369164 -0.875559,11.445508 -3.965025,14.534975 -3.089467,3.089467 -10.165811,3.965025 -14.534975,3.965025 -4.369166,0 -11.44551,-0.875558 -14.5349755,-3.965025 -3.089466,-3.089467 -3.965027,-10.165811 -3.965027,-14.534975 0,-4.369166 0.875561,-11.44551 3.965027,-14.5349755 3.0894655,-3.089466 10.1658095,-3.965027 14.5349755,-3.965027 4.369164,0 11.445508,0.875561 14.534975,3.965027 z"
     id="path14884" /><path
     style="fill:none;stroke:#ffffff;stroke-width:1;stroke-linecap:round;stroke-linejoin:round"
     d="m 6.9711465,13.921304 a 27.008293,27.008293 0 0 1 0.09945,-1.84e-4 27.008293,27.008293 0 0 1 27.0082935,27.008294 v 0 a 27.008293,27.008293 0 0 1 -1.82e-4,0.09925"
     id="path14882" /><path
     style="fill:none;stroke:#ffffff;stroke-width:1;stroke-linecap:round;stroke-linejoin:round"
     d="m 5.5151465,24.710141 a 16.293686,16.293686 0 0 1 1.555446,-0.07442 16.293686,16.293686 0 0 1 16.2936865,16.293686 16.293686,16.293686 0 0 1 -0.07405,1.551631"
     id="path14868" /></svg>
