<?xml version="1.0" encoding="UTF-8" standalone="no"?>
<svg
   viewBox="0 0 48 48"
   version="1.1"
   id="svg1"
   sodipodi:docname="zvuk.svg"
   inkscape:version="1.2.2 (b0a8486541, 2022-12-01)"
   xml:space="preserve"
   xmlns:inkscape="http://www.inkscape.org/namespaces/inkscape"
   xmlns:sodipodi="http://sodipodi.sourceforge.net/DTD/sodipodi-0.dtd"
   xmlns="http://www.w3.org/2000/svg"
   xmlns:svg="http://www.w3.org/2000/svg"><sodipodi:namedview
     id="namedview1"
     pagecolor="#505050"
     bordercolor="#eeeeee"
     borderopacity="1"
     inkscape:showpageshadow="0"
     inkscape:pageopacity="0"
     inkscape:pagecheckerboard="0"
     inkscape:deskcolor="#505050"
     inkscape:zoom="12.59534"
     inkscape:cx="22.309839"
     inkscape:cy="19.689823"
     inkscape:window-width="1918"
     inkscape:window-height="1053"
     inkscape:window-x="0"
     inkscape:window-y="0"
     inkscape:window-maximized="1"
     inkscape:current-layer="svg1"
     showgrid="false" /><defs
     id="defs1"><style
       id="style1">.a { fill:none;stroke:#fff;stroke-linecap:round;stroke-linejoin:round; }
</style></defs><circle
     class="q"
     cx="43.87746"
     cy="11.654008"
     id="circle15363"
     style="fill:#ffffff;stroke:none;stroke-width:1"
     r="0.75" /><path
     style="fill:none;stroke:#ffffff;stroke-width:1;stroke-linecap:round;stroke-linejoin:round"
     d="m 42.369436,20.922889 c 0.09128,1.104753 0.130565,2.151661 0.130565,3.077112 0,4.369164 -0.875559,11.445508 -3.965025,14.534975 -3.089467,3.089467 -10.165811,3.965025 -14.534975,3.965025 -4.369166,0 -11.44551,-0.875558 -14.5349755,-3.965025 -3.089466,-3.089467 -3.965027,-10.165811 -3.965027,-14.534975 0,-4.369166 0.875561,-11.44551 3.965027,-14.5349755 3.0894655,-3.089466 10.1658095,-3.965027 14.5349755,-3.965027 3.761916,0 9.530791,0.6490946 13.033737,2.8015627"
     id="path15628" /><path
     style="fill:none;stroke:#ffffff;stroke-width:1;stroke-linecap:round;stroke-linejoin:round"
     d="m 6.9711465,13.921304 a 27.008293,27.008293 0 0 1 0.09945,-1.84e-4 27.008293,27.008293 0 0 1 27.0082935,27.008294 v 0 a 27.008293,27.008293 0 0 1 -1.82e-4,0.09925"
     id="path15626" /><path
     style="fill:none;stroke:#ffffff;stroke-width:1;stroke-linecap:round;stroke-linejoin:round"
     d="m 5.5151465,24.710141 a 16.293686,16.293686 0 0 1 1.555446,-0.07442 16.293686,16.293686 0 0 1 16.2936865,16.293686 16.293686,16.293686 0 0 1 -0.07405,1.551631"
     id="path15624" /><path
     style="fill:none;stroke:#ffffff;stroke-width:1;stroke-linecap:round;stroke-linejoin:round"
     d="m 30.953321,11.451722 v 6.47306"
     id="path15622" /><path
     style="fill:none;stroke:#ffffff;stroke-width:1;stroke-linecap:round;stroke-linejoin:round"
     d="m 30.953328,15.254641 c 0,-0.89374 0.73217,-1.618261 1.635358,-1.618261 h 8e-6 c 0.903188,0 1.635366,0.724521 1.635366,1.618261 v 2.670136"
     id="path15620" /><path
     style="fill:none;stroke:#ffffff;stroke-width:1;stroke-linecap:round;stroke-linejoin:round"
     d="m 36.765514,13.636378 v 4.288404"
     id="path15618" /><path
     style="fill:none;stroke:#ffffff;stroke-width:1;stroke-linecap:round;stroke-linejoin:round"
     d="m 39.728083,17.924777 v -5.34027 c 0,-0.62562 0.512524,-1.132784 1.144756,-1.132784 v 0 c 0.563417,0 0.915118,0.165067 1.156351,0.473951"
     id="path15616" /><path
     style="fill:none;stroke:#ffffff;stroke-width:1;stroke-linecap:round;stroke-linejoin:round"
     d="m 38.75845,13.636378 h 2.289512"
     id="path15614" /><path
     style="fill:none;stroke:#ffffff;stroke-width:1;stroke-linecap:round;stroke-linejoin:round"
     d="m 43.87746,13.636378 v 4.288404"
     id="line15365" /><circle
     class="q"
     cx="36.765514"
     cy="11.654008"
     id="circle15483"
     style="fill:#ffffff;stroke:none;stroke-width:1"
     r="0.75" /></svg>
