<?xml version="1.0" encoding="UTF-8" standalone="no"?>
<!-- Created with Inkscape (http://www.inkscape.org/) -->

<svg
   width="48"
   height="48"
   viewBox="0 0 48 48"
   version="1.1"
   id="svg990"
   inkscape:version="1.2.1 (9c6d41e, 2022-07-14)"
   xml:space="preserve"
   sodipodi:docname="droid_dashcam.svg"
   xmlns:inkscape="http://www.inkscape.org/namespaces/inkscape"
   xmlns:sodipodi="http://sodipodi.sourceforge.net/DTD/sodipodi-0.dtd"
   xmlns="http://www.w3.org/2000/svg"
   xmlns:svg="http://www.w3.org/2000/svg"><sodipodi:namedview
     id="namedview992"
     pagecolor="#858585"
     bordercolor="#000000"
     borderopacity="0.25"
     inkscape:showpageshadow="2"
     inkscape:pageopacity="0"
     inkscape:pagecheckerboard="0"
     inkscape:deskcolor="#d1d1d1"
     inkscape:document-units="px"
     showgrid="false"
     inkscape:zoom="11"
     inkscape:cx="15.863636"
     inkscape:cy="24"
     inkscape:window-width="1366"
     inkscape:window-height="737"
     inkscape:window-x="0"
     inkscape:window-y="0"
     inkscape:window-maximized="1"
     inkscape:current-layer="svg990" /><defs
     id="defs987"><style
       id="style1174">.a{fill:none;stroke:#fff;stroke-linecap:round;stroke-linejoin:round;}</style></defs><path
     id="rect11282"
     style="fill:none;fill-opacity:0.941176;stroke:#fff;stroke-width:1;stroke-linecap:round;stroke-linejoin:round;stroke-dasharray:none;stroke-opacity:1;stop-color:#000000"
     d="m 40.584472,38.799494 v 1.852443 c 0,0.947034 -0.771488,1.709453 -1.729788,1.709453 H 7.6027311 c -0.9583001,0 -1.7297885,-0.762419 -1.7297885,-1.709453 V 20.695873 c 0,-0.947034 0.7714884,-1.709452 1.7297885,-1.709452 v 0 H 20.926448" /><path
     id="path12055"
     style="fill:none;fill-opacity:0.941176;stroke:#fff;stroke-width:1;stroke-linecap:round;stroke-linejoin:round;stroke-dasharray:none;stroke-opacity:1;stop-color:#000000"
     d="m 40.584474,29.223346 v 2.901121" /><path
     id="rect11809"
     style="fill:none;fill-opacity:0.941176;stroke:#fff;stroke-width:1;stroke-linecap:round;stroke-linejoin:round;stroke-dasharray:none;stroke-opacity:1;stop-color:#000000"
     d="m 40.584546,22.548207 v 0 h 0.972537 c 0.315766,0 0.569975,0.254209 0.569975,0.569975 v 5.535851 c 0,0.315766 -0.254209,0.569975 -0.569975,0.569975 h -0.972537" /><path
     id="path11933"
     style="fill:none;fill-opacity:0.941176;stroke:#fff;stroke-width:1;stroke-linecap:round;stroke-linejoin:round;stroke-dasharray:none;stroke-opacity:1;stop-color:#000000"
     d="m 25.408508,18.986422 13.446176,-1e-6 c 0.958301,0 1.729788,0.762417 1.729788,1.709452 v 1.852442" /><path
     id="rect11803"
     style="fill:none;fill-opacity:0.941176;stroke:#fff;stroke-width:1;stroke-linecap:round;stroke-linejoin:round;stroke-dasharray:none;stroke-opacity:1;stop-color:#000000"
     d="m 20.794792,12.291856 h -4.520303 c -1.263063,0 -2.2799,-1.016836 -2.2799,-2.279899 V 7.9185098 c 0,-1.2630627 1.016837,-2.2798991 2.2799,-2.2798991 v 0 h 13.78581 c 1.263064,0 2.2799,1.0168364 2.2799,2.2798991 v 2.0934472 c 0,1.263063 -1.016836,2.279899 -2.2799,2.279899 h -4.520303" /><path
     id="rect11807"
     style="fill:none;fill-opacity:0.941176;stroke:#fff;stroke-width:1;stroke-linecap:round;stroke-linejoin:round;stroke-dasharray:none;stroke-opacity:1;stop-color:#000000"
     d="m 10.514797,22.223751 h 25.427822 c 0.315766,0 0.569975,0.254209 0.569975,0.569975 v 15.760359 c 0,0.315766 -0.254209,0.569974 -0.569975,0.569974 H 10.514797 c -0.315766,0 -0.5699747,-0.254208 -0.5699747,-0.569974 V 22.793726 c 0,-0.315766 0.2542087,-0.569975 0.5699747,-0.569975 z" /><path
     id="path12030"
     style="fill:none;fill-opacity:0.941176;stroke:#fff;stroke-width:1;stroke-linecap:round;stroke-linejoin:round;stroke-dasharray:none;stroke-opacity:1;stop-color:#000000"
     d="m 40.584546,32.123803 h 0.972537 c 0.315766,0 0.569975,0.254209 0.569975,0.569975 v 5.535852 c 0,0.315766 -0.254209,0.569975 -0.569975,0.569975 h -0.972537" /><path
     id="rect11805"
     style="display:inline;fill:none;fill-opacity:0.941176;stroke:#fff;stroke-width:1;stroke-linecap:round;stroke-linejoin:round;stroke-dasharray:none;stroke-opacity:1;stop-color:#000000"
     d="m 20.924545,18.986934 c -0.0842,-0.238469 -0.129977,-0.495384 -0.129977,-0.763385 v -8.020605 c 0,-1.2630632 1.016837,-2.2798994 2.2799,-2.2798994 v 0 h 0.185853 c 1.263063,0 2.279899,1.0168362 2.279899,2.2798994 v 8.020605 c 0,0.268001 -0.04578,0.524916 -0.129977,0.763385" /><path
     id="path11870"
     style="fill:none;fill-opacity:0.941176;stroke:#fff;stroke-width:1;stroke-linecap:round;stroke-linejoin:round;stroke-dasharray:none;stroke-opacity:1;stop-color:#000000"
     d="m 20.926448,18.986421 4.48206,1e-6" /></svg>
