<?xml version="1.0" encoding="UTF-8" standalone="no"?>
<!-- Created with Inkscape (http://www.inkscape.org/) -->

<svg
   width="48"
   height="48"
   viewBox="0 0 48 48"
   version="1.1"
   id="svg990"
   inkscape:version="1.2.1 (9c6d41e, 2022-07-14)"
   xml:space="preserve"
   sodipodi:docname="hi_app.svg"
   xmlns:inkscape="http://www.inkscape.org/namespaces/inkscape"
   xmlns:sodipodi="http://sodipodi.sourceforge.net/DTD/sodipodi-0.dtd"
   xmlns="http://www.w3.org/2000/svg"
   xmlns:svg="http://www.w3.org/2000/svg"><sodipodi:namedview
     id="namedview992"
     pagecolor="#858585"
     bordercolor="#000000"
     borderopacity="0.25"
     inkscape:showpageshadow="2"
     inkscape:pageopacity="0"
     inkscape:pagecheckerboard="0"
     inkscape:deskcolor="#d1d1d1"
     inkscape:document-units="px"
     showgrid="false"
     showguides="false"
     inkscape:zoom="11"
     inkscape:cx="7.5"
     inkscape:cy="24"
     inkscape:window-width="1366"
     inkscape:window-height="737"
     inkscape:window-x="0"
     inkscape:window-y="0"
     inkscape:window-maximized="1"
     inkscape:current-layer="svg990" /><defs
     id="defs987"><style
       id="style1174">.a{fill:none;stroke:#fff;stroke-linecap:round;stroke-linejoin:round;}</style></defs><path
     id="rect1621"
     style="display:inline;fill:none;fill-opacity:0.941176;stroke:#fff;stroke-width:1;stroke-linecap:round;stroke-linejoin:round;stroke-dasharray:none;stroke-opacity:1;stop-color:#000000"
     d="M 19.867244,5.3314491 C 13.941614,6.285361 9.4572883,11.157374 9.4576809,17.059473 c 4.385e-4,6.590652 5.5928601,11.896112 12.5390601,11.89565 l 4.008101,-2.67e-4 C 32.951044,28.954394 38.542759,23.64819 38.54232,17.057538 38.542052,13.025941 36.449294,9.4752563 33.246745,7.2949034 M 31.437555,6.266292 C 30.260168,5.7167443 28.980878,5.3337983 27.635046,5.1494574 28.015489,2.2512803 17.818252,0.83915581 20.718124,7.1179055 22.176831,10.276267 31.69484,12.164126 34.491193,4.6984722 30.269654,8.3779195 25.49748,7.9368964 24.288869,5.563775"
     sodipodi:nodetypes="csssscccscc" /><path
     style="fill:none;fill-opacity:0.941176;stroke:#fff;stroke-width:1;stroke-linecap:round;stroke-linejoin:round;stroke-dasharray:none;stroke-opacity:1;stop-color:#000000"
     d="m 28.46546,20.850826 c -0.694941,4.658317 -6.992265,3.520496 -7.670959,0.433524 3.269834,0.522991 5.120484,0.451431 7.670959,-0.433524 z"
     id="path2667"
     sodipodi:nodetypes="ccc" /><path
     id="path2721"
     style="fill:none;fill-opacity:0.941176;stroke:#fff;stroke-width:1;stroke-linecap:round;stroke-linejoin:round;stroke-dasharray:none;stroke-opacity:1;stop-color:#000000"
     d="m 32.755087,18.396693 a 1.3265119,1.7003053 0 0 1 -1.326513,1.700307 1.3265119,1.7003053 0 0 1 -1.326511,-1.700307 1.3265119,1.7003053 0 0 1 1.326511,-1.700305 1.3265119,1.7003053 0 0 1 1.326513,1.700305 z" /><path
     id="path2721-6"
     style="fill:none;fill-opacity:0.941176;stroke:#fff;stroke-width:1;stroke-linecap:round;stroke-linejoin:round;stroke-dasharray:none;stroke-opacity:1;stop-color:#000000"
     d="m 19.599385,18.507445 a 1.3265119,1.7003053 0 0 1 -1.326513,1.700306 1.3265119,1.7003053 0 0 1 -1.326511,-1.700306 1.3265119,1.7003053 0 0 1 1.326511,-1.700305 1.3265119,1.7003053 0 0 1 1.326513,1.700305 z" /><path
     style="fill:none;fill-opacity:0.941176;stroke:#fff;stroke-width:1;stroke-linecap:round;stroke-linejoin:round;stroke-dasharray:none;stroke-opacity:1;stop-color:#000000"
     d="m 29.203295,28.631358 c 2.846561,1.903778 2.662173,5.676332 2.789179,9.101911 -3.049387,2.754227 -7.67166,2.753787 -12.055142,1.048202 l 1.06117,-2.829246"
     id="path2780"
     sodipodi:nodetypes="cccc" /><path
     style="display:inline;fill:none;fill-opacity:0.941176;stroke:#fff;stroke-width:1;stroke-linecap:round;stroke-linejoin:round;stroke-dasharray:none;stroke-opacity:1;stop-color:#000000"
     d="m 22.173454,31.928577 c 3.083696,-1.295207 6.428409,0.468353 4.383052,2.620323 -1.628337,1.713212 -5.41254,1.734149 -7.292741,0.687036 -2.11116,-1.175737 0.762416,-5.591805 2.909689,-3.307359 z"
     id="path2782"
     sodipodi:nodetypes="cssc" /><path
     style="fill:none;fill-opacity:0.941176;stroke:#fff;stroke-width:1;stroke-linecap:round;stroke-linejoin:round;stroke-dasharray:none;stroke-opacity:1;stop-color:#000000"
     d="m 19.601343,28.805924 c -1.140388,1.398288 -1.133003,4.034329 -1.04443,4.921041"
     id="path2784"
     sodipodi:nodetypes="cc" /><path
     style="fill:none;fill-opacity:0.941176;stroke:#fff;stroke-width:1;stroke-linecap:round;stroke-linejoin:round;stroke-dasharray:none;stroke-opacity:1;stop-color:#000000"
     d="m 31.23807,30.742627 c 1.846288,-0.835628 3.745571,-1.269216 5.537836,-2.514687 0.451169,-0.313523 1.395357,-1.474154 0.77486,-2.748915 C 37.107562,24.5685 36.442492,24.69947 35.779455,24.759112"
     id="path2786"
     sodipodi:nodetypes="cssc" /><path
     style="fill:none;fill-opacity:0.941176;stroke:#fff;stroke-width:1;stroke-linecap:round;stroke-linejoin:round;stroke-dasharray:none;stroke-opacity:1;stop-color:#000000"
     d="m 33.038244,26.979405 c 0.272224,0.435063 0.830006,1.446833 0.363345,2.511566"
     id="path2788"
     sodipodi:nodetypes="cc" /><path
     style="fill:none;fill-opacity:0.941176;stroke:#fff;stroke-width:1;stroke-linecap:round;stroke-linejoin:round;stroke-dasharray:none;stroke-opacity:1;stop-color:#000000"
     d="m 20.462583,39.055323 c 0.254826,0.189172 -1.030383,4.445177 -0.905591,5.251487 1.62668,1.111516 3.560883,1.142957 5.576014,0.890171 0.389478,-1.381789 0.833674,-2.917145 1.948021,-4.027208"
     id="path2790"
     sodipodi:nodetypes="cccc" /><path
     style="fill:none;fill-opacity:0.941176;stroke:#fff;stroke-width:1;stroke-linecap:round;stroke-linejoin:round;stroke-dasharray:none;stroke-opacity:1;stop-color:#000000"
     d="m 26.490235,42.162379 0.08841,2.207299 c 0.707493,0.973229 3.528102,0.641389 4.966399,-0.570842 -0.175257,-1.655338 -0.283512,-3.399771 -0.226972,-5.294807"
     id="path2792"
     sodipodi:nodetypes="cccc" /></svg>
