<?xml version="1.0" encoding="UTF-8" standalone="no"?>
<!-- Created with Inkscape (http://www.inkscape.org/) -->

<svg
   width="48"
   height="48"
   viewBox="0 0 48 48"
   version="1.1"
   id="svg990"
   inkscape:version="1.2.1 (9c6d41e, 2022-07-14)"
   xml:space="preserve"
   sodipodi:docname="idle_egg_factory.svg"
   xmlns:inkscape="http://www.inkscape.org/namespaces/inkscape"
   xmlns:sodipodi="http://sodipodi.sourceforge.net/DTD/sodipodi-0.dtd"
   xmlns="http://www.w3.org/2000/svg"
   xmlns:svg="http://www.w3.org/2000/svg"><sodipodi:namedview
     id="namedview992"
     pagecolor="#858585"
     bordercolor="#000000"
     borderopacity="0.25"
     inkscape:showpageshadow="2"
     inkscape:pageopacity="0"
     inkscape:pagecheckerboard="0"
     inkscape:deskcolor="#d1d1d1"
     inkscape:document-units="px"
     showgrid="false"
     inkscape:zoom="15.556349"
     inkscape:cx="17.131269"
     inkscape:cy="23.784501"
     inkscape:window-width="1366"
     inkscape:window-height="737"
     inkscape:window-x="0"
     inkscape:window-y="0"
     inkscape:window-maximized="1"
     inkscape:current-layer="svg990" /><defs
     id="defs987"><style
       id="style1174">.a{fill:none;stroke:#fff;stroke-linecap:round;stroke-linejoin:round;}</style></defs><path
     style="display:inline;fill:none;stroke:#fff;stroke-width:1;stroke-linecap:round;stroke-linejoin:round;stroke-dasharray:none;stroke-opacity:1;stop-color:#000000"
     d="m 10.734548,20.764351 -7.2037949,1.31572 6.6582879,12.854486 8.455237,-2.882537 m 0.0578,-1.015443 -6.916469,-10.069922 m 17.373267,-7.41946 -17.373267,7.41946 -1.051058,-0.202304 -2.9314145,-5.26963 18.2876275,-6.8903899 2.976658,4.3224219 m 8.143472,7.802629 -8.052018,-7.182187 -0.09145,-0.620442 5.308376,-3.6105217 9.802943,7.1002217 -5.752938,4.428551 m -1.214909,-0.115622 1.214909,0.115622 6.043473,2.908414 -21.372731,13.464717 -4.452264,-5.166115 m 0,0 0.0578,-1.015443 18.508816,-10.307195"
     id="path332"
     sodipodi:nodetypes="cccccccccccccccccccccc" /><path
     id="path510"
     style="display:inline;fill:none;stroke:#fff;stroke-width:1;stroke-linecap:round;stroke-linejoin:round;stroke-dasharray:none;stroke-opacity:1;stop-color:#000000"
     d="m 15.046719,33.65764 3.663031,5.736928" /><path
     id="path535"
     style="display:inline;fill:none;stroke:#fff;stroke-width:1;stroke-linecap:round;stroke-linejoin:round;stroke-dasharray:none;stroke-opacity:1;stop-color:#000000"
     d="m 22.596878,36.96722 -3.888274,2.428475 -0.204092,-6.953472" /><path
     style="fill:none;stroke:#fff;stroke-width:1;stroke-linecap:round;stroke-linejoin:round;stroke-dasharray:none;stroke-opacity:1;stop-color:#000000"
     d="m 22.628656,26.335784 c -0.05311,0.993919 -0.981514,2.244723 -2.144354,2.200699 -1.16284,0.04402 -2.09124,-1.20678 -2.144354,-2.200699 -0.125136,-2.341798 1.315041,-3.007574 2.144354,-3.007574 0.829313,0 2.26949,0.665776 2.144354,3.007574 z"
     id="path329"
     sodipodi:nodetypes="scsss" /><path
     id="path573"
     style="fill:none;stroke:#fff;stroke-width:1;stroke-linecap:round;stroke-linejoin:round;stroke-dasharray:none;stroke-opacity:1;stop-color:#000000"
     d="m 28.082761,24.41149 2.3e-4,-0.0018 c 0.214948,-1.669056 1.397157,-2.171972 2.11793,-2.171972 0.582894,0 1.467572,0.328911 1.898392,1.337513" /><path
     id="path669"
     style="fill:none;stroke:#fff;stroke-width:1;stroke-linecap:round;stroke-linejoin:round;stroke-dasharray:none;stroke-opacity:1;stop-color:#000000"
     d="m 31.096651,22.465989 c 0.369051,-1.251963 1.370396,-1.64705 2.009239,-1.64705 0.550733,0 1.370871,0.29362 1.823066,1.17672" /><path
     style="fill:none;stroke:#fff;stroke-width:1;stroke-linecap:round;stroke-linejoin:round;stroke-dasharray:none;stroke-opacity:1;stop-color:#000000"
     d="m 26.238562,24.751969 c -0.390715,0.828276 -1.641552,1.58263 -2.650922,1.156454 -1.039837,-0.351231 -1.42507,-1.726259 -1.127953,-2.590042 0.700045,-2.035182 2.199388,-2.120485 2.930115,-1.84327 0.730726,0.277215 1.769326,1.325337 0.84876,3.276858 z"
     id="path329-3"
     sodipodi:nodetypes="scsss" /><path
     style="fill:none;stroke:#fff;stroke-width:1;stroke-linecap:round;stroke-linejoin:round;stroke-dasharray:none;stroke-opacity:1;stop-color:#000000"
     d="m 26.922411,18.222074 c 0.642609,0.567665 0.990319,1.863715 0.338409,2.625232 -0.592468,0.808628 -1.933677,0.766168 -2.633124,0.27022 -1.647984,-1.168518 -1.32689,-2.497061 -0.883159,-3.056958 0.443732,-0.559897 1.663801,-1.17598 3.177874,0.161506 z"
     id="path329-6"
     sodipodi:nodetypes="scsss" /><path
     id="path590"
     style="font-variation-settings:normal;fill:none;fill-opacity:1;stroke:#fff;stroke-width:1;stroke-linecap:round;stroke-linejoin:round;stroke-miterlimit:4;stroke-dasharray:none;stroke-dashoffset:0;stroke-opacity:1;stop-color:#000000"
     d="m 17.430347,29.185605 c 0.467108,-0.707837 1.190554,-0.950562 1.691293,-0.950562 0.609175,0 1.547955,0.359234 1.953825,1.478102" /><path
     style="font-variation-settings:normal;fill:none;fill-opacity:1;stroke:#fff;stroke-width:1;stroke-linecap:round;stroke-linejoin:round;stroke-miterlimit:4;stroke-dasharray:none;stroke-dashoffset:0;stroke-opacity:1;stop-color:#000000"
     d="m 24.10474,26.169877 c 0.688917,0.508044 0.614031,0.727742 0.870573,1.193686"
     id="path593"
     sodipodi:nodetypes="cc" /><path
     style="font-variation-settings:normal;fill:none;fill-opacity:1;stroke:#fff;stroke-width:1;stroke-linecap:round;stroke-linejoin:round;stroke-miterlimit:4;stroke-dasharray:none;stroke-dashoffset:0;stroke-opacity:1;stop-color:#000000"
     d="m 26.671516,23.991931 c 1.031236,-0.167164 1.832887,0.698742 1.958507,1.178638"
     id="path595"
     sodipodi:nodetypes="cc" /><path
     id="path755"
     style="fill:none;stroke:#fff;stroke-width:1;stroke-linecap:round;stroke-linejoin:round;stroke-dasharray:none;stroke-opacity:1;stop-color:#000000"
     d="m 27.84723,19.992449 c 0.733167,0 1.943768,0.520354 2.128151,2.259096" /><path
     id="path329-6-7"
     style="fill:none;stroke:#fff;stroke-width:1;stroke-linecap:round;stroke-linejoin:round;stroke-dasharray:none;stroke-opacity:1;stop-color:#000000"
     d="m 29.018688,20.350141 c 0.21176,-1.440266 1.241477,-1.854236 1.863421,-1.841566 0.681838,0.01389 1.832468,0.560088 1.806029,2.362262"
     sodipodi:nodetypes="csc" /><path
     id="path329-6-7-9"
     style="fill:none;stroke:#fff;stroke-width:1;stroke-linecap:round;stroke-linejoin:round;stroke-dasharray:none;stroke-opacity:1;stop-color:#000000"
     d="m 26.967867,18.12898 c 0.21176,-1.440267 1.146382,-1.759117 1.768326,-1.74645 0.644283,0.01313 1.70714,0.501534 1.79996,2.075787"
     sodipodi:nodetypes="csc" /><path
     style="fill:none;stroke:#fff;stroke-width:1;stroke-linecap:round;stroke-linejoin:round;stroke-dasharray:none;stroke-opacity:1;stop-color:#000000"
     d="m 17.98482,25.64665 c -2.217694,-0.332883 -2.942781,-2.883088 -1.685186,-4.030447 1.697662,-1.548854 3.747131,0.540751 3.656375,1.650802"
     id="path975"
     sodipodi:nodetypes="csc" /><path
     style="fill:none;stroke:#fff;stroke-width:1;stroke-linecap:round;stroke-linejoin:round;stroke-dasharray:none;stroke-opacity:1;stop-color:#000000"
     d="m 16.533411,25.086887 c -0.466408,0.160658 -0.739496,0.500975 -0.869759,0.997351"
     id="path977"
     sodipodi:nodetypes="cc" /><path
     style="fill:none;stroke:#fff;stroke-width:1;stroke-linecap:round;stroke-linejoin:round;stroke-dasharray:none;stroke-opacity:1;stop-color:#000000"
     d="m 13.711533,23.660704 c 0.365218,-0.561443 1.226964,-1.021628 1.876865,-1.04507"
     id="path979"
     sodipodi:nodetypes="cc" /><path
     style="fill:none;stroke:#fff;stroke-width:1;stroke-linecap:round;stroke-linejoin:round;stroke-dasharray:none;stroke-opacity:1;stop-color:#000000"
     d="m 19.921483,22.929518 c -0.357672,-1.963409 1.598595,-4.541854 3.956898,-2.030374"
     id="path983"
     sodipodi:nodetypes="cc" /></svg>
