<?xml version="1.0" encoding="UTF-8" standalone="no"?>
<!-- Created with Inkscape (http://www.inkscape.org/) -->

<svg
   width="48"
   height="48"
   viewBox="0 0 48 48"
   version="1.1"
   id="svg990"
   inkscape:version="1.2.1 (9c6d41e, 2022-07-14)"
   xml:space="preserve"
   sodipodi:docname="jagran.svg"
   xmlns:inkscape="http://www.inkscape.org/namespaces/inkscape"
   xmlns:sodipodi="http://sodipodi.sourceforge.net/DTD/sodipodi-0.dtd"
   xmlns="http://www.w3.org/2000/svg"
   xmlns:svg="http://www.w3.org/2000/svg"><sodipodi:namedview
     id="namedview992"
     pagecolor="#858585"
     bordercolor="#000000"
     borderopacity="0.25"
     inkscape:showpageshadow="2"
     inkscape:pageopacity="0"
     inkscape:pagecheckerboard="0"
     inkscape:deskcolor="#d1d1d1"
     inkscape:document-units="px"
     showgrid="false"
     inkscape:zoom="11"
     inkscape:cx="15.863636"
     inkscape:cy="24"
     inkscape:window-width="1366"
     inkscape:window-height="737"
     inkscape:window-x="0"
     inkscape:window-y="0"
     inkscape:window-maximized="1"
     inkscape:current-layer="svg990" /><defs
     id="defs987"><style
       id="style1174">.a{fill:none;stroke:#fff;stroke-linecap:round;stroke-linejoin:round;}</style></defs><path
     d="m 41.302748,26.190105 c 1.209582,2.415417 1.949543,4.856861 2.100163,7.704563 H 4.5970924 m 0,0 C 4.8239128,22.92686 13.785756,14.105333 24.807916,14.105332 c 7.915304,0 14.768092,4.549171 18.08644,11.175591 l -9.620258,4.791996"
     style="fill:none;fill-opacity:0.941176;stroke:#fff;stroke-width:1;stroke-linecap:round;stroke-linejoin:round;stroke-dasharray:none;stroke-opacity:1;stop-color:#000000"
     id="path2210"
     sodipodi:nodetypes="ccccscc" /><path
     d="M 6.6418244,33.807129 C 6.8457679,23.945524 14.903729,16.127028 24.814205,16.127028 c 4.553573,0 8.716056,1.674456 11.9053,4.441223 l -5.766853,6.5649"
     style="fill:none;fill-opacity:0.941176;stroke:#fff;stroke-width:1;stroke-linecap:round;stroke-linejoin:round;stroke-dasharray:none;stroke-opacity:1;stop-color:#000000"
     id="path2336"
     sodipodi:nodetypes="csc" /><path
     id="path2351"
     style="fill:none;fill-opacity:0.941176;stroke:#fff;stroke-width:1;stroke-linecap:round;stroke-linejoin:round;stroke-dasharray:none;stroke-opacity:1;stop-color:#000000"
     d="m 12.075565,33.728477 c -0.01196,-0.226279 -0.01802,-0.454123 -0.01802,-0.683383 1e-6,-7.035145 5.703113,-12.738258 12.738258,-12.738258 1.326597,0 2.60583,0.202789 3.80839,0.579058 l -1.167344,3.992317"
     sodipodi:nodetypes="ccscc" /><path
     id="path2354"
     style="fill:none;fill-opacity:0.941176;stroke:#fff;stroke-width:1;stroke-linecap:round;stroke-linejoin:round;stroke-dasharray:none;stroke-opacity:1;stop-color:#000000"
     d="m 15.75362,33.729698 c 0,-4.998248 4.05188,-9.050128 9.050128,-9.050128 2.406555,0 4.593719,0.939318 6.214865,2.471322 0.907595,0.857688 1.637781,1.901144 2.129737,3.06954 0.454376,1.079147 0.705526,2.264877 0.705526,3.509266"
     sodipodi:nodetypes="csssc" /></svg>
