<?xml version="1.0" encoding="UTF-8" standalone="no"?>
<!-- Created with Inkscape (http://www.inkscape.org/) -->

<svg
   width="48"
   height="48"
   viewBox="0 0 48 48"
   version="1.1"
   id="svg990"
   inkscape:version="1.2.1 (9c6d41e, 2022-07-14)"
   xml:space="preserve"
   sodipodi:docname="rucoy_online.svg"
   xmlns:inkscape="http://www.inkscape.org/namespaces/inkscape"
   xmlns:sodipodi="http://sodipodi.sourceforge.net/DTD/sodipodi-0.dtd"
   xmlns="http://www.w3.org/2000/svg"
   xmlns:svg="http://www.w3.org/2000/svg"><sodipodi:namedview
     id="namedview992"
     pagecolor="#858585"
     bordercolor="#000000"
     borderopacity="0.25"
     inkscape:showpageshadow="2"
     inkscape:pageopacity="0"
     inkscape:pagecheckerboard="0"
     inkscape:deskcolor="#d1d1d1"
     inkscape:document-units="px"
     showgrid="false"
     inkscape:zoom="11"
     inkscape:cx="15.863636"
     inkscape:cy="24"
     inkscape:window-width="1366"
     inkscape:window-height="737"
     inkscape:window-x="0"
     inkscape:window-y="0"
     inkscape:window-maximized="1"
     inkscape:current-layer="svg990" /><defs
     id="defs987"><style
       id="style1174">.a{fill:none;stroke:#fff;stroke-linecap:round;stroke-linejoin:round;}</style></defs><path
     style="display:inline;fill:none;fill-opacity:1;stroke:#fff;stroke-width:1;stroke-linecap:round;stroke-linejoin:round;stroke-dasharray:none;stroke-opacity:1;stop-color:#000000"
     d="m 32.045698,14.579807 h 2.126715 l 2.01e-4,10.023237 h 1.95889 v 5.105867 h -4.009247 v 2.244882 h -2.042562 v 1.876957 h 8.366013 v 1.972957 h 3.894861 l 1.4e-5,4.859981 H 5.6594164 V 23.990294 H 7.3609269 V 14.141839 H 9.4876421 V 9.4802631 H 13.954814 V 7.3363115 H 27.578552 V 9.4802631 M 11.95591,25.680524 h 19.193222 m 0.973125,4.028387 v -4.028387 l -0.973125,-2.37e-4 m -1.069437,8.150463 h -1.930302 l -1.09e-4,1.972957 -14.732711,5.5e-5 v -1.881154 h -1.556449"
     id="path14196"
     sodipodi:nodetypes="cccccccccccccccccccccccccccccccccc" /><path
     style="display:inline;fill:none;fill-opacity:1;stroke:#fff;stroke-width:1;stroke-linecap:round;stroke-linejoin:round;stroke-dasharray:none;stroke-opacity:1;stop-color:#000000"
     d="M 11.717041,21.786776 H 7.4786094 M 26.887158,17.636553 v 1.808738 h 2.876719 v 2.341485 h 4.238432 m -22.285268,0 v -2.341485 h 2.876719 v -1.809169 h 3.991113 v -2.054867 h 4.311172 v 2.055298 h 2.045484 m -13.224442,22.764528 -4.6e-5,-18.614305 m 13.224488,-4.150223 h 1.945629 m 5.15854,-3.056746 -1.36e-4,-5.0995439 h -4.467171"
     id="path14272"
     sodipodi:nodetypes="ccccccccccccccccccccccc" /><path
     style="display:inline;fill:none;fill-opacity:1;stroke:#fff;stroke-width:1;stroke-linecap:round;stroke-linejoin:round;stroke-dasharray:none;stroke-opacity:1;stop-color:#000000"
     d="m 25.767439,40.401081 1.5e-4,-4.431056"
     id="path14303"
     sodipodi:nodetypes="cc" /><path
     style="display:inline;fill:none;fill-opacity:1;stroke:#fff;stroke-width:1;stroke-linecap:round;stroke-linejoin:round;stroke-dasharray:none;stroke-opacity:1;stop-color:#000000"
     d="m 30.084261,40.554881 4.37e-4,-2.633512 h 8.180209 l -4.37e-4,2.676055"
     id="path14328"
     sodipodi:nodetypes="cccc" /><path
     style="display:inline;fill:none;fill-opacity:1;stroke:#fff;stroke-width:1;stroke-linecap:round;stroke-linejoin:round;stroke-dasharray:none;stroke-opacity:1;stop-color:#000000"
     d="m 25.857294,26.051029 v 4.265163"
     id="path14330" /><path
     style="display:inline;fill:none;fill-opacity:1;stroke:#fff;stroke-width:1;stroke-linecap:round;stroke-linejoin:round;stroke-dasharray:none;stroke-opacity:1;stop-color:#000000"
     d="m 15.790691,26.051029 v 4.265163"
     id="path14330-6" /></svg>
