<?xml version="1.0" encoding="UTF-8" standalone="no"?>
<!-- Created with Inkscape (http://www.inkscape.org/) -->

<svg
   width="48"
   height="48"
   viewBox="0 0 48 48"
   version="1.1"
   id="svg990"
   inkscape:version="1.2.2 (b0a8486541, 2022-12-01)"
   xml:space="preserve"
   sodipodi:docname="alphadia.svg"
   xmlns:inkscape="http://www.inkscape.org/namespaces/inkscape"
   xmlns:sodipodi="http://sodipodi.sourceforge.net/DTD/sodipodi-0.dtd"
   xmlns="http://www.w3.org/2000/svg"
   xmlns:svg="http://www.w3.org/2000/svg"><sodipodi:namedview
     id="namedview992"
     pagecolor="#858585"
     bordercolor="#000000"
     borderopacity="0.25"
     inkscape:showpageshadow="2"
     inkscape:pageopacity="0"
     inkscape:pagecheckerboard="0"
     inkscape:deskcolor="#d1d1d1"
     inkscape:document-units="px"
     showgrid="false"
     inkscape:zoom="11"
     inkscape:cx="24"
     inkscape:cy="24"
     inkscape:window-width="1366"
     inkscape:window-height="737"
     inkscape:window-x="0"
     inkscape:window-y="0"
     inkscape:window-maximized="1"
     inkscape:current-layer="svg990" /><defs
     id="defs987"><style
       id="style1174">.a{fill:none;stroke:#fff;stroke-linecap:round;stroke-linejoin:round;}</style></defs><path
     id="path5673"
     style="fill:none;stroke:#fff;stroke-linecap:round;stroke-linejoin:round;stroke-opacity:1;stop-color:#000000"
     d="m 26.826513,26.413164 5.830322,-0.158458 1.562307,-10.125218 z m 2.940894,11.219699 2.473254,-8.926667 h -3.68681 c -2.635191,0 -5.143906,2.254918 -7.624242,6.637876 -2.494465,4.407926 -4.748713,6.235917 -6.720831,6.267597 -2.888736,-2.811678 -6.4924097,-1.708857 -1.894468,0.270913 -6.7596218,0.205474 -4.2664195,-5.385194 -1.490967,-4.970689 4.485316,0.669867 4.685368,-0.278734 6.111637,-1.668669 L 31.561208,14.523971 c 0.720589,-1.020773 0.818567,-1.344698 2.346247,-2.379 -3.81825,0.468381 -7.87552,0.673817 -8.705811,5.092326 l -1.303436,1.665808 c 0.804865,0.325842 1.535864,0.0584 2.183531,-0.878349 0.797566,3.225917 -1.806614,3.56797 -3.414045,1.973861 -3.409936,-3.381675 -2.681705,-9.078748 7.414937,-10.131501 5.344897,-0.5573 9.377122,-1.4745583 9.933157,-3.7566218 -1.614021,9.5019538 -3.285055,21.6308708 -3.864112,31.3722858 -2.038403,-0.231432 -4.348985,-0.05911 -6.384269,0.150083 z" /></svg>
