<?xml version="1.0" encoding="UTF-8" standalone="no"?>
<!-- Created with Inkscape (http://www.inkscape.org/) -->

<svg
   width="48"
   height="48"
   viewBox="0 0 48 48"
   version="1.1"
   id="svg990"
   inkscape:version="1.2.2 (b0a8486541, 2022-12-01)"
   xml:space="preserve"
   sodipodi:docname="alphadia2.svg"
   xmlns:inkscape="http://www.inkscape.org/namespaces/inkscape"
   xmlns:sodipodi="http://sodipodi.sourceforge.net/DTD/sodipodi-0.dtd"
   xmlns="http://www.w3.org/2000/svg"
   xmlns:svg="http://www.w3.org/2000/svg"><sodipodi:namedview
     id="namedview992"
     pagecolor="#858585"
     bordercolor="#000000"
     borderopacity="0.25"
     inkscape:showpageshadow="2"
     inkscape:pageopacity="0"
     inkscape:pagecheckerboard="0"
     inkscape:deskcolor="#d1d1d1"
     inkscape:document-units="px"
     showgrid="false"
     inkscape:zoom="11"
     inkscape:cx="7.1818182"
     inkscape:cy="24"
     inkscape:window-width="1366"
     inkscape:window-height="737"
     inkscape:window-x="0"
     inkscape:window-y="0"
     inkscape:window-maximized="1"
     inkscape:current-layer="svg990" /><defs
     id="defs987"><style
       id="style1174">.a{fill:none;stroke:#fff;stroke-linecap:round;stroke-linejoin:round;}</style></defs><path
     id="path10647"
     style="fill:none;stroke:#fff;stroke-linecap:round;stroke-linejoin:round;stroke-miterlimit:10"
     class="st5"
     d="m 35.839819,37.121475 c 0,-1.6 1.5,-2.9 3.2,-2.6 1.1,0.2 2,1.2 2.1,2.3 0.1,0.8 -0.2,1.7 -0.8,2.2 -1.1,0.9 -4.5,3.5 -4.5,3.5 h 5.3 M 45.5,38.5 a 7,7 0 0 1 -7,7 7,7 0 0 1 -7,-7 7,7 0 0 1 7,-7 7,7 0 0 1 7,7 z M 26.826513,26.413164 32.656835,26.254706 34.219142,16.129488 26.826513,26.413164 v 0 m 4.746706,11.057489 c -0.615967,0.04527 -1.222208,0.102225 -1.805812,0.16221 v 0 l 2.473254,-8.926667 h -3.68681 c -2.635188,0 -5.143908,2.254922 -7.624242,6.637876 -2.494463,4.407922 -4.748715,6.235917 -6.720831,6.267597 -2.888733,-2.811675 -6.4924051,-1.708855 -1.894468,0.270913 -6.759615,0.205474 -4.2664167,-5.385194 -1.490967,-4.970689 4.485312,0.669866 4.685369,-0.278735 6.111637,-1.668669 L 31.561208,14.523971 c 0.720588,-1.020772 0.818569,-1.344699 2.346247,-2.379 -3.818246,0.468381 -7.875521,0.673821 -8.705811,5.092326 l -1.303436,1.665808 c 0.804864,0.325842 1.535865,0.0584 2.183531,-0.878349 0.797565,3.225914 -1.806616,3.567968 -3.414045,1.973861 C 19.257761,16.616945 19.985999,10.919868 30.082631,9.867116 35.427523,9.3098166 39.459754,8.3925554 40.015788,6.1104942 38.704397,13.830824 37.355366,23.285384 36.584991,31.784482" /></svg>
