<?xml version="1.0" encoding="UTF-8" standalone="no"?>
<!-- Created with Inkscape (http://www.inkscape.org/) -->

<svg
   width="48"
   height="48"
   viewBox="0 0 48 48"
   version="1.1"
   id="svg990"
   inkscape:version="1.2.2 (b0a8486541, 2022-12-01)"
   xml:space="preserve"
   sodipodi:docname="armed_emeth.svg"
   xmlns:inkscape="http://www.inkscape.org/namespaces/inkscape"
   xmlns:sodipodi="http://sodipodi.sourceforge.net/DTD/sodipodi-0.dtd"
   xmlns="http://www.w3.org/2000/svg"
   xmlns:svg="http://www.w3.org/2000/svg"><sodipodi:namedview
     id="namedview992"
     pagecolor="#858585"
     bordercolor="#000000"
     borderopacity="0.25"
     inkscape:showpageshadow="2"
     inkscape:pageopacity="0"
     inkscape:pagecheckerboard="0"
     inkscape:deskcolor="#d1d1d1"
     inkscape:document-units="px"
     showgrid="false"
     inkscape:zoom="2.1579542"
     inkscape:cx="-70.900484"
     inkscape:cy="26.877308"
     inkscape:window-width="1366"
     inkscape:window-height="737"
     inkscape:window-x="0"
     inkscape:window-y="0"
     inkscape:window-maximized="1"
     inkscape:current-layer="svg990" /><defs
     id="defs987"><style
       id="style1174">.a{fill:none;stroke:#fff;stroke-linecap:round;stroke-linejoin:round;}</style></defs><path
     id="path12112"
     style="display:inline;fill:none;stroke:#fff;stroke-width:1;stroke-linecap:round;stroke-linejoin:round;stroke-dasharray:none;stop-color:#000000"
     d="m 30.295589,35.216545 c 0.114127,-0.97228 0.196732,-1.939928 0.248806,-2.901577 m -0.11155,-6.505496 c -0.08491,-0.951102 -0.199579,-1.89261 -0.342922,-2.823053 m -1.40045,-6.126837 C 28.341704,15.725215 27.949585,14.615144 27.515471,13.532595 M 24.697755,7.84078 C 24.000629,6.677177 23.249294,5.5617393 22.447816,4.5000392 H 10.671047 c 9.847381,7.9422048 11.965348,24.4604828 7.121824,38.9999218 l 10.76978,-4.07e-4 v 0 c 0.185945,-0.613619 0.358645,-1.226929 0.518341,-1.839596 m 1.214741,-6.443292 6.656954,1.687359 -1.089833,5.720838 -6.785568,-0.964902 m 1.354333,-15.849056 6.897242,-1e-6 v 6.504809 h -6.788805 m -1.855453,-15.454147 7.39664,-1.748599 1.212745,6.559196 -7.207602,1.31588 M 27.512729,13.535147 33.37727,11.086105 31.638748,5.9898585 24.694333,7.8454017" /></svg>
