<?xml version="1.0" encoding="UTF-8" standalone="no"?>
<!-- Created with Inkscape (http://www.inkscape.org/) -->

<svg
   width="48"
   height="48"
   viewBox="0 0 48 48"
   version="1.1"
   id="svg990"
   inkscape:version="1.2.2 (b0a8486541, 2022-12-01)"
   xml:space="preserve"
   sodipodi:docname="bsru_app.svg"
   xmlns:inkscape="http://www.inkscape.org/namespaces/inkscape"
   xmlns:sodipodi="http://sodipodi.sourceforge.net/DTD/sodipodi-0.dtd"
   xmlns="http://www.w3.org/2000/svg"
   xmlns:svg="http://www.w3.org/2000/svg"><sodipodi:namedview
     id="namedview992"
     pagecolor="#858585"
     bordercolor="#000000"
     borderopacity="0.25"
     inkscape:showpageshadow="2"
     inkscape:pageopacity="0"
     inkscape:pagecheckerboard="0"
     inkscape:deskcolor="#d1d1d1"
     inkscape:document-units="px"
     showgrid="false"
     inkscape:zoom="5.6568542"
     inkscape:cx="9.1923882"
     inkscape:cy="31.819805"
     inkscape:window-width="1366"
     inkscape:window-height="737"
     inkscape:window-x="0"
     inkscape:window-y="0"
     inkscape:window-maximized="1"
     inkscape:current-layer="svg990"
     showguides="false" /><defs
     id="defs987"><style
   id="style1174">.a{fill:none;stroke:#fff;stroke-linecap:round;stroke-linejoin:round;}</style>
		
		
	</defs><path
     id="path7482-6"
     style="fill:none;stroke:#fff;stroke-width:1;stroke-linecap:round;stroke-linejoin:round;stroke-dasharray:none;stroke-opacity:1;stop-color:#000000"
     d="m 27.413206,19.734337 c 0,2.2067 1.788784,3.328765 3.99536,3.328765 2.206572,0 3.995355,-1.122065 3.995355,-3.328765 0,-1.883482 -1.495524,-2.710763 -3.99535,-4.094492 -2.499827,-1.383731 -3.99535,-2.210343 -3.99535,-4.093838 0,-2.2067127 1.788794,-3.3294426 3.995381,-3.3294423 2.206587,-3e-7 3.995382,1.1227296 3.995382,3.3294423 m -22.549009,6.485142 v 5.031789 h 5.686627 c 2.087385,0 3.767843,-1.525074 3.767843,-3.419449 v -0.571966 c 0,-1.894375 -1.680458,-3.419449 -3.767843,-3.419449 h -2.35945 m 2.359267,-0.02458 c 2.087385,0 3.767843,-1.525073 3.767843,-3.419449 v -0.571962 c 0,-1.894375 -1.680459,-3.4194495 -3.767843,-3.4194495 h -2.359267 m -3.32736,2.7754875 v 2.256454 m -0.258776,14.276361 5.731952,-3.71e-4 c 2.114635,-1.35e-4 3.817031,1.691655 3.817031,3.79295 0,2.101293 -1.702396,3.79295 -3.817031,3.79295 h -3.020194 l 7.260446,7.260446 m 12.588803,-14.84637 v 3.955805 c 0,2.47159 -1.680458,4.461354 -3.767843,4.461354 h -0.454123 c -2.087386,0 -3.767844,-1.989764 -3.767844,-4.461354 V 27.524541 M 45.499832,24 A 21.499832,21.499834 0 0 1 24,45.499834 21.499832,21.499834 0 0 1 2.5001678,24 21.499832,21.499834 0 0 1 24,2.5001659 21.499832,21.499834 0 0 1 45.499832,24 Z" /></svg>
