<?xml version="1.0" encoding="UTF-8" standalone="no"?>
<!-- Created with Inkscape (http://www.inkscape.org/) -->

<svg
   width="48"
   height="48"
   viewBox="0 0 48 48"
   version="1.1"
   id="svg990"
   inkscape:version="1.2.2 (b0a8486541, 2022-12-01)"
   xml:space="preserve"
   sodipodi:docname="dragon_tamer.svg"
   xmlns:inkscape="http://www.inkscape.org/namespaces/inkscape"
   xmlns:sodipodi="http://sodipodi.sourceforge.net/DTD/sodipodi-0.dtd"
   xmlns="http://www.w3.org/2000/svg"
   xmlns:svg="http://www.w3.org/2000/svg"><path
     id="path576"
     style="fill:none;stroke:#fff;stroke-width:1;stroke-linecap:round;stroke-linejoin:round;stroke-dasharray:none;stroke-opacity:1;stop-color:#000000"
     d="m 27.732117,40.03659 c 1.140221,0.414698 2.421498,1.800236 3.700896,1.635819 M 20.715992,40.206012 c 2.247633,-0.03419 4.091033,0.465029 6.261058,-0.03549 0.194727,-0.04492 0.536408,0.05727 0.691259,-0.114798 0.158541,-0.17617 0.197426,-0.603062 0.32968,-0.822691 0.671697,-1.115459 1.258243,-2.376454 2.084407,-3.367309 M 16.023274,33.4933 c 1.598863,0.897755 1.550938,2.745522 2.414084,4.123041 0.34291,0.54726 0.853618,0.93411 1.265533,1.415801 0.511732,0.598417 0.936892,1.260223 1.425057,1.874977 0.203897,0.256772 1.355139,2.899132 1.584574,2.563746 m -11.995983,-8.38957 c 1.229025,-0.601349 2.879697,-1.554762 4.2858,-1.674088 0.07229,-0.0061 1.017235,0.05315 1.074108,-0.0287 0.179509,-0.258356 0.694137,-1.854928 0.903952,-2.286324 0.365328,-0.751139 0.640456,-1.288908 0.978394,-2.01847 m -4.232624,-6.122381 c 0.272958,0.331629 0.531991,0.675228 0.818874,0.994888 0.578291,0.644362 1.122849,1.123229 1.563305,1.86541 0.536333,0.903739 1.380024,2.905403 2.254567,3.549067 0.44452,0.327166 1.680349,0.486309 2.212027,0.545274 0.726933,0.08061 1.142533,-0.210705 1.807907,-0.363518 1.035859,-0.237901 2.067741,-0.56349 3.105338,-0.765296 0.210159,-0.04087 1.05842,0.122914 0.98904,0.497444 m 3.775325,6.064979 c 1.258577,-0.842796 0.78613,-0.635817 2.445993,-1.186211 1.293865,-0.429033 3.427256,-0.548554 4.253895,-1.894109 0.477919,-0.777928 0.775122,-1.690213 1.116646,-2.535047 0.330756,-0.818196 0.14278,-1.615869 0.877914,-2.056738 m -9.98125,-7.739069 c -1.569131,2.3053 -1.892047,4.954083 -2.36091,7.605144 -0.07492,0.423658 -0.282473,0.876491 -0.202062,1.31057 0.154767,0.835473 0.939407,1.507269 1.446326,2.123701 0.627403,0.762944 1.191592,1.800727 1.648379,2.678538 0.4141,0.795778 0.140371,1.021307 0.776334,1.645389 m 1.978067,-19.677703 c 1.059859,1.962327 2.058575,4.335614 4.0731,5.500573 0.390682,0.225924 0.983944,0.270641 1.414421,0.248723 0.159348,-0.0081 0.635023,0.04083 0.478565,0.0095 -0.04218,-0.0085 -0.08508,-0.01276 -0.127612,-0.01913 M 19.649717,15.527949 c 0.424826,-0.01332 0.795404,0.111549 1.169822,0.296551 0.956822,0.47277 1.789296,1.172376 2.733125,1.645389 1.077266,0.539887 2.373554,0.463994 3.435025,1.004456 0.389929,0.198537 0.775112,0.410712 1.159183,0.612236 0.183898,0.09649 0.552316,0.601105 0.467932,0.411346 -0.575056,-1.293161 0.674334,-1.972934 1.563306,-2.716804 0.286956,-0.240119 0.507291,-0.586381 0.818877,-0.793997 0.456671,-0.304288 0.827328,-0.28587 0.999659,-0.88009 0.157342,-0.54254 0.04059,-1.078858 0.02127,-1.626259 -0.02312,-0.65496 0.07782,-1.343636 -0.02127,-1.989772 C 31.853134,10.555204 31.460503,9.6425387 31.145871,8.7933319 31.064441,8.5735321 31.094561,8.1281076 31.060791,7.9610716 M 9.3871956,22.157334 c 0.2126945,-0.01594 0.4252407,-0.03401 0.6380844,-0.04783 0.875736,-0.05684 1.787605,-0.06873 2.616144,0.258287 0.52739,0.208154 1.369525,1.042381 2.020602,0.727031 0.163007,-0.07895 2.512627,-4.168229 2.96709,-4.735274 0.246332,-0.307356 2.126948,-2.388466 2.126948,-2.621143 0,-0.692153 -1.528522,-1.410818 -1.903617,-1.98021 -0.431733,-0.655364 -0.407971,-1.62745 -0.723165,-2.343722 C 16.988256,11.093991 15.729788,9.0790006 15.470266,8.7454982 M 27.349268,43.011687 C 0.22629209,48.320345 6.7608475,5.5351188 23.426367,4.5147469 37.093363,3.6779642 48.398457,38.891823 27.349268,43.011687 Z" /><sodipodi:namedview
     id="namedview992"
     pagecolor="#858585"
     bordercolor="#000000"
     borderopacity="0.25"
     inkscape:showpageshadow="2"
     inkscape:pageopacity="0"
     inkscape:pagecheckerboard="0"
     inkscape:deskcolor="#d1d1d1"
     inkscape:document-units="px"
     showgrid="false"
     inkscape:zoom="8.2348477"
     inkscape:cx="0.72861093"
     inkscape:cy="27.687215"
     inkscape:window-width="1366"
     inkscape:window-height="737"
     inkscape:window-x="0"
     inkscape:window-y="0"
     inkscape:window-maximized="1"
     inkscape:current-layer="svg990" /><defs
     id="defs987"><style
       id="style1174">.a{fill:none;stroke:#fff;stroke-linecap:round;stroke-linejoin:round;}</style></defs></svg>
