<?xml version="1.0" encoding="UTF-8" standalone="no"?>
<!-- Created with Inkscape (http://www.inkscape.org/) -->

<svg
   width="48"
   height="48"
   viewBox="0 0 48 48"
   version="1.1"
   id="svg990"
   inkscape:version="1.2.2 (b0a8486541, 2022-12-01)"
   xml:space="preserve"
   sodipodi:docname="grinsia.svg"
   xmlns:inkscape="http://www.inkscape.org/namespaces/inkscape"
   xmlns:sodipodi="http://sodipodi.sourceforge.net/DTD/sodipodi-0.dtd"
   xmlns="http://www.w3.org/2000/svg"
   xmlns:svg="http://www.w3.org/2000/svg"><sodipodi:namedview
     id="namedview992"
     pagecolor="#858585"
     bordercolor="#000000"
     borderopacity="0.25"
     inkscape:showpageshadow="2"
     inkscape:pageopacity="0"
     inkscape:pagecheckerboard="0"
     inkscape:deskcolor="#d1d1d1"
     inkscape:document-units="px"
     showgrid="false"
     inkscape:zoom="9.125"
     inkscape:cx="16.438356"
     inkscape:cy="28.712329"
     inkscape:window-width="1366"
     inkscape:window-height="737"
     inkscape:window-x="0"
     inkscape:window-y="0"
     inkscape:window-maximized="1"
     inkscape:current-layer="svg990" /><defs
     id="defs987"><style
       id="style1174">.a{fill:none;stroke:#fff;stroke-linecap:round;stroke-linejoin:round;}</style></defs><path
     id="path708"
     style="fill:none;stroke:#fff;stroke-linecap:round;stroke-linejoin:round;stop-color:#000000"
     d="M 39.203177,39.203177 25.481022,27.575503 24,45.500539 22.518978,27.575503 8.796822,39.203177 20.424496,25.481022 2.4994596,23.999999 20.424496,22.518978 8.7968219,8.796822 22.518977,20.424496 24,2.4994596 25.481022,20.424496 39.203177,8.7968218 27.575502,22.518978 45.50054,23.999999 27.575503,25.481021 Z M 27.537374,24 c 0,1.953638 -1.583736,3.537374 -3.537374,3.537374 -1.953638,0 -3.537374,-1.583736 -3.537374,-3.537374 0,-1.953637 1.583737,-3.537373 3.537374,-3.537373 1.953637,0 3.537374,1.583736 3.537374,3.537373 z"
     sodipodi:nodetypes="cccccccccccccccccsssss" /></svg>
