<?xml version="1.0" encoding="UTF-8" standalone="no"?>
<!-- Created with Inkscape (http://www.inkscape.org/) -->

<svg
   width="48"
   height="48"
   viewBox="0 0 48 48"
   version="1.1"
   id="svg990"
   inkscape:version="1.2.2 (b0a8486541, 2022-12-01)"
   xml:space="preserve"
   sodipodi:docname="ikku.svg"
   xmlns:inkscape="http://www.inkscape.org/namespaces/inkscape"
   xmlns:sodipodi="http://sodipodi.sourceforge.net/DTD/sodipodi-0.dtd"
   xmlns="http://www.w3.org/2000/svg"
   xmlns:svg="http://www.w3.org/2000/svg"><sodipodi:namedview
     id="namedview992"
     pagecolor="#858585"
     bordercolor="#000000"
     borderopacity="0.25"
     inkscape:showpageshadow="2"
     inkscape:pageopacity="0"
     inkscape:pagecheckerboard="0"
     inkscape:deskcolor="#d1d1d1"
     inkscape:document-units="px"
     showgrid="false"
     inkscape:zoom="15.556349"
     inkscape:cx="26.098669"
     inkscape:cy="22.498852"
     inkscape:window-width="1366"
     inkscape:window-height="737"
     inkscape:window-x="0"
     inkscape:window-y="0"
     inkscape:window-maximized="1"
     inkscape:current-layer="svg990" /><defs
     id="defs987"><style
       id="style1174">.a{fill:none;stroke:#fff;stroke-linecap:round;stroke-linejoin:round;}</style></defs><path
     id="path12124-6-9"
     style="fill:none;stroke:#fff;stroke-width:1;stroke-linecap:round;stroke-linejoin:round;stroke-dasharray:none;stroke-opacity:1;stop-color:#000000"
     d="m 20.377583,36.440522 v -4.983406 m 1.020191,-1.100607 v -3.564085 c 0.297527,-0.24478 0.265233,-0.486571 0.564461,-0.804513 m 0.325854,-1.795754 -0.325854,0.691313 m 0,1.104441 V 24.88347 m -0.578219,1.908954 c -0.294292,-3.445152 -2.262876,-5.98201 -4.126511,-8.58625 -5.906146,5.684085 -4.660876,14.232382 -4.758091,22.241471 h 6.024409 L 24,44.500153 29.476177,40.447645 h 6.024408 c -0.09721,-8.009089 1.148056,-16.557386 -4.75809,-22.241471 -1.863636,2.60424 -3.83222,5.141098 -4.126512,8.58625 M 22.75797,11.277319 c 0.64917,1.62918 0.30959,3.457262 -0.06187,5.213128 -0.713888,2.682668 -1.351763,5.563697 -0.408008,7.70171 M 22.75797,11.277319 c 0.216384,-0.282758 0.449505,-0.265661 0.592197,-1.09687 0.126418,-0.7364057 0.627379,-2.6557952 0.387756,-4.2437735 L 24,4.8917522 24.262076,5.9366755 c -0.239623,1.5879783 0.261339,3.5073678 0.387756,4.2437735 0.142692,0.831209 0.375813,0.814112 0.592197,1.09687 m -4.864446,20.179797 c 0.456217,-0.302097 0.43294,-0.920603 1.020191,-1.100607 M 17.237225,18.206174 C 17.750702,11.965945 20.80239,6.4187607 24,3.4998401 c 3.197609,2.9189206 6.249298,8.4661049 6.762774,14.7063339 m -3.140358,18.234348 v -4.983406 m -1.020191,-1.100607 v -3.564085 c -0.297527,-0.24478 -0.265232,-0.486571 -0.564461,-0.804513 m -0.325853,-1.795754 0.325853,0.691313 m 0,1.104441 V 24.88347 M 25.242029,11.277319 c -0.64917,1.62918 -0.30959,3.457262 0.06187,5.213128 0.713889,2.682668 1.351763,5.563697 0.408009,7.70171 m 1.910505,7.264959 c -0.456217,-0.302097 -0.43294,-0.920603 -1.020191,-1.100607 m -13.068061,6.110822 h 21.008674" /></svg>
