<?xml version="1.0" encoding="UTF-8" standalone="no"?>
<!-- Created with Inkscape (http://www.inkscape.org/) -->

<svg
   width="48"
   height="48"
   viewBox="0 0 48 48"
   version="1.1"
   id="svg990"
   inkscape:version="1.2.2 (b0a8486541, 2022-12-01)"
   xml:space="preserve"
   sodipodi:docname="mh_stories.svg"
   xmlns:inkscape="http://www.inkscape.org/namespaces/inkscape"
   xmlns:sodipodi="http://sodipodi.sourceforge.net/DTD/sodipodi-0.dtd"
   xmlns="http://www.w3.org/2000/svg"
   xmlns:svg="http://www.w3.org/2000/svg"><sodipodi:namedview
     id="namedview992"
     pagecolor="#858585"
     bordercolor="#000000"
     borderopacity="0.25"
     inkscape:showpageshadow="2"
     inkscape:pageopacity="0"
     inkscape:pagecheckerboard="0"
     inkscape:deskcolor="#d1d1d1"
     inkscape:document-units="px"
     showgrid="false"
     inkscape:zoom="2.8284271"
     inkscape:cx="68.942911"
     inkscape:cy="19.091883"
     inkscape:window-width="1366"
     inkscape:window-height="737"
     inkscape:window-x="0"
     inkscape:window-y="0"
     inkscape:window-maximized="1"
     inkscape:current-layer="svg990" /><defs
     id="defs987"><style
       id="style1174">.a{fill:none;stroke:#fff;stroke-linecap:round;stroke-linejoin:round;}</style></defs><path
     id="path3157-6"
     style="fill:none;stroke:#fff;stroke-width:1;stroke-linecap:round;stroke-linejoin:round;stroke-dasharray:none;stroke-opacity:1;stop-color:#000000"
     d="m 33.916659,20.252468 c 2.445517,-0.170064 3.157613,1.581966 2.398175,3.192234 -0.058,-0.46903 -0.945829,-0.755199 -1.967866,-0.265171 m -3.844537,1.73633 c 0.815783,0.118862 1.74368,0.15183 2.760409,0.309948 0.764364,0.118871 1.504948,0.39938 2.1,-0.195097 m -5.503021,1.032633 c 0.244789,-0.555819 0.29351,-0.636491 0.642632,-1.147484 M 29.859799,26.063345 28.956886,22.3856 c -0.354684,-1.444703 -0.12314,-2.659664 0.910528,-3.881834 0.228008,-1.36121 -8.3e-5,-2.872942 -1.525017,-3.279446 6.221319,-1.391296 5.339617,2.079518 4.666478,3.487852 m -2.478985,1.809778 3.386769,-0.269482 c 2.443699,-0.194443 3.157613,1.581966 2.398175,3.192234 -0.058,-0.46903 -0.945829,-0.755199 -1.967866,-0.265171 m -3.844537,1.73633 c 0.815783,0.118862 1.74368,0.15183 2.760409,0.309948 0.764364,0.118871 1.504948,0.39938 2.1,-0.195097 m -5.503021,1.032633 c 0.244789,-0.555819 0.29351,-0.636491 0.642632,-1.147484 m 1.769746,3.56939 c -1.247483,-0.223223 -2.169843,-0.183027 -3.16786,-0.204129 0.06981,-0.630992 0.510673,-1.661959 0.755462,-2.217777 L 28.956886,22.3856 c -0.354684,-1.444703 -0.12314,-2.659664 0.910528,-3.881834 0.228008,-1.36121 -8.3e-5,-2.872942 -1.525017,-3.279446 6.221319,-1.391296 5.339617,2.079518 4.666478,3.487852 m -18.925538,1.540296 c -2.445516,-0.170064 -3.157612,1.581966 -2.398175,3.192234 0.058,-0.46903 0.945829,-0.755199 1.967867,-0.265171 m 3.844537,1.73633 c -0.815783,0.118862 -1.74368,0.15183 -2.76041,0.309948 -0.764363,0.118871 -1.504948,0.39938 -2.099999,-0.195097 m 5.50302,1.032633 c -0.244788,-0.555819 -0.293509,-0.636491 -0.642632,-1.147484 m 0.642653,1.147484 0.902913,-3.677745 c 0.354683,-1.444703 0.123139,-2.659664 -0.910528,-3.881834 -0.228009,-1.36121 8.2e-5,-2.872942 1.525017,-3.279446 -6.221319,-1.391296 -5.339618,2.079518 -4.666479,3.487852 m 2.478983,1.809778 -3.386767,-0.269482 c -2.443699,-0.194443 -3.157612,1.581966 -2.398175,3.192234 0.058,-0.46903 0.945829,-0.755199 1.967867,-0.265171 m 3.844537,1.73633 c -0.815783,0.118862 -1.74368,0.15183 -2.76041,0.309948 -0.764363,0.118871 -1.504948,0.39938 -2.099999,-0.195097 m 5.50302,1.032633 c -0.244788,-0.555819 -0.293509,-0.636491 -0.642632,-1.147484 m -1.769746,3.56939 c 1.247484,-0.223223 2.169843,-0.183027 3.16786,-0.204129 -0.06981,-0.630992 -0.510673,-1.661959 -0.755461,-2.217777 L 19.043111,22.3856 c 0.354683,-1.444703 0.123139,-2.659664 -0.910528,-3.881834 -0.228009,-1.36121 8.2e-5,-2.872942 1.525017,-3.279446 -6.221319,-1.391296 -5.339618,2.079518 -4.666479,3.487852 m 0.677201,9.773079 c -1.305078,0.225605 -2.376033,0.661926 -3.292696,1.18867 m 6.074294,3.843547 c -0.686119,-0.701358 -1.22768,-1.480907 -1.660797,-2.280082 -1.088662,0.538777 -1.812051,1.12741 -2.479197,1.723172 m 2.492326,2.439652 c 0.505994,-0.741323 1.073767,-1.320094 1.647668,-1.882742 1.285424,1.313973 2.98562,2.261228 5.5233,2.641184 m 0.05356,0 c 0.582241,0.635225 0.74116,1.208718 1.85226,1.793381 -0.557937,0.754003 -1.18669,1.500356 -1.879036,1.969476 -0.692347,-0.46912 -1.3211,-1.215473 -1.879036,-1.969476 1.1111,-0.584663 1.270019,-1.158156 1.879036,-1.793381 2.564456,-0.379956 4.264652,-1.327211 5.550076,-2.641184 0.573901,0.562648 1.141674,1.141419 1.647668,1.882742 m 0.01313,-4.162824 c 0.499252,-0.921204 0.854413,-1.868483 1.120801,-2.752135 m 0,0 c 1.305078,0.225605 2.376032,0.661926 3.292696,1.18867 m -6.074294,3.843547 c 0.686119,-0.701358 1.22768,-1.480907 1.660797,-2.280082 1.088662,0.538777 1.812051,1.12741 2.479197,1.723172 M 16.789123,31.237386 C 16.289871,30.316182 15.93471,29.368903 15.668322,28.485251 m 8.331676,-12.36596 1.884487,1.100113 m -3.768974,0 1.884487,-1.100113 v -2.050908 m 0,-3.107063 -1.298547,-2.2491494 h 2.597094 z m -3.009586,0.905976 c -1.026096,0 -1.852157,0.100345 -1.852157,-0.925749 m 7.87133,0.925749 c 1.026094,0 1.852156,0.100345 1.852156,-0.925749 M 26.523236,8.0781135 V 12.13728 c 0,1.026095 -0.826062,1.852157 -1.852157,1.852157 h -1.342162 c -1.026095,0 -1.852157,-0.826062 -1.852157,-1.852157 V 8.0781135 m 5.6808,18.0070515 a 3.1575634,6.6379919 0 0 1 -3.157564,6.637992 3.1575634,6.6379919 0 0 1 -3.157563,-6.637992 3.1575634,6.6379919 0 0 1 3.157563,-6.637992 3.1575634,6.6379919 0 0 1 3.157564,6.637992 z m 8.659783,11.095268 c 6.442035,-7.170182 2.792179,-24.85243 -9.619141,-32.0433399 -1.349265,-0.7817419 -2.743311,-0.9588333 -4.359264,0 C 9.5030504,12.456651 5.6574002,30.120243 12.219797,37.180433 c 7.278916,7.83106 15.510635,9.00098 23.597546,0 z" /></svg>
