<?xml version="1.0" encoding="UTF-8" standalone="no"?>
<!-- Created with Inkscape (http://www.inkscape.org/) -->

<svg
   width="48"
   height="48"
   viewBox="0 0 48 48"
   version="1.1"
   id="svg990"
   inkscape:version="1.2.2 (b0a8486541, 2022-12-01)"
   xml:space="preserve"
   sodipodi:docname="nida_uapp.svg"
   xmlns:inkscape="http://www.inkscape.org/namespaces/inkscape"
   xmlns:sodipodi="http://sodipodi.sourceforge.net/DTD/sodipodi-0.dtd"
   xmlns="http://www.w3.org/2000/svg"
   xmlns:svg="http://www.w3.org/2000/svg"><path
     id="path18077"
     style="display:inline;fill:none;stroke:#fff;stroke-width:1;stroke-linecap:round;stroke-linejoin:round;stroke-dasharray:none;stroke-opacity:1;stop-color:#000000"
     d="m 15.762891,18.282134 c 0.540777,0.678224 1.408189,0.92849 2.416925,0.993598 m 3.242558,2.970029 c -1.710857,-0.818377 -2.781212,-1.811247 -3.242558,-2.970029 l 1.052293,-1.052294 c 1.158783,0.461347 2.151652,1.531703 2.970029,3.242561 m -2.970029,-3.242561 c -0.06511,-1.008735 -0.315376,-1.876147 -0.993599,-2.416924 0.07772,-2.458247 -1.862367,-2.898699 -2.950953,-4.190645 l 0.448367,2.271033 C 15.208178,12.72916 14.709077,11.870758 14.056196,11.7328 c -1.24571,-0.342422 -2.607572,-0.943046 -3.928869,-1.704842 0.387107,1.090589 0.888649,2.240143 2.123075,2.864543 0.108969,0.673916 0.289885,1.308829 0.91855,1.701024 l -1.657066,-0.874554 c 0.811357,0.630386 0.928044,1.870754 1.701634,2.496562 l -1.286107,0.120194 c 1.16531,0.770903 2.092152,1.799056 3.835478,1.946411 m 13.85563,13.855626 c -0.678225,-0.540777 -0.928491,-1.40819 -0.993599,-2.416926 m -2.970029,-3.242559 c 0.818377,1.710858 1.811246,2.781214 2.970029,3.242559 l 1.052293,-1.052294 c -0.461347,-1.158781 -1.531701,-2.15165 -3.242559,-2.970027 m 3.242559,2.970027 c 1.008736,0.06511 1.876147,0.315376 2.416925,0.9936 2.458247,-0.07772 2.898699,1.862366 4.190645,2.950952 l -2.271032,-0.448365 c 1.157742,0.527746 2.016143,1.026846 2.154102,1.679728 0.342421,1.245709 0.943046,2.607571 1.704841,3.928867 -1.090589,-0.387105 -2.240144,-0.888647 -2.864544,-2.123073 -0.673914,-0.108969 -1.308827,-0.289887 -1.701022,-0.918552 l 0.874553,1.657068 c -0.630386,-0.811358 -1.870754,-0.928045 -2.496562,-1.701636 l -0.120194,1.286108 C 30.794028,34.807932 29.765876,33.88109 29.618521,32.137764 M 14.033001,25.68203 c 0.861964,0.09719 1.652282,-0.339198 2.411604,-1.006444 m 4.392963,-0.192708 c -1.788439,0.631079 -3.247359,0.68587 -4.392963,0.192708 v -1.488168 c 1.145604,-0.493161 2.604524,-0.438371 4.392963,0.192709 M 16.444605,23.187418 C 15.685283,22.520173 14.894965,22.083785 14.033001,22.180975 12.34971,20.387779 10.666419,21.448177 8.9831289,21.304379 L 10.906034,22.5932 C 9.7142138,22.147725 8.7543152,21.893661 8.195106,22.257767 c -1.1229774,0.638721 -2.5106655,1.176997 -3.9836347,1.572624 1.0448886,0.497437 2.2123907,0.955651 3.5267791,0.524298 0.5535834,0.399476 1.1304622,0.720501 1.8523183,0.553291 l -1.7901255,0.553321 c 1.0194661,-0.127966 1.9790492,0.666597 2.9685728,0.562098 l -0.8244273,0.994403 c 1.3691083,-0.278887 2.7514983,-0.20725 4.0884123,-1.335772 m 19.59482,0 c -0.861965,0.09719 -1.652283,-0.339198 -2.411605,-1.006444 m -4.392963,-0.192708 c 1.788439,0.631079 3.247359,0.68587 4.392963,0.192708 v -1.488168 c -1.145604,-0.493161 -2.604524,-0.438371 -4.392963,0.192709 m 4.392963,-0.192709 c 0.759322,-0.667245 1.54964,-1.103633 2.411605,-1.006443 1.68329,-1.793196 3.366581,-0.732798 5.049871,-0.876596 L 36.754788,22.5932 c 1.191819,-0.445475 2.151718,-0.699539 2.710927,-0.335433 1.122978,0.638721 2.510666,1.176997 3.983633,1.572624 -1.044887,0.497437 -2.212389,0.955651 -3.526777,0.524298 -0.553584,0.399476 -1.130462,0.720501 -1.852319,0.553291 l 1.790126,0.553321 c -1.019466,-0.127966 -1.979049,0.666597 -2.968573,0.562098 l 0.824427,0.994403 c -1.369108,-0.278887 -2.751498,-0.20725 -4.088411,-1.335772 m -15.415932,6.385489 c 0.678225,-0.540779 0.928491,-1.40819 0.993599,-2.416926 m 2.970029,-3.242559 c -0.818377,1.710858 -1.811246,2.781213 -2.970029,3.242559 l -1.052293,-1.052294 c 0.461347,-1.158782 1.531701,-2.151652 3.242558,-2.970027 m -3.242558,2.970027 c -1.008736,0.06511 -1.876147,0.315376 -2.416925,0.9936 -2.458247,-0.07772 -2.898699,1.862366 -4.190645,2.950952 l 2.271032,-0.448365 c -1.157742,0.527745 -2.016143,1.026846 -2.154103,1.679728 -0.34242,1.245709 -0.943045,2.607571 -1.7048411,3.928868 1.0905901,-0.387107 2.2401431,-0.888648 2.8645451,-2.123074 0.673913,-0.108969 1.308827,-0.289887 1.701021,-0.918552 l -0.874552,1.657067 c 0.630386,-0.811357 1.870754,-0.928044 2.496561,-1.701635 l 0.120194,1.286108 c 0.770903,-1.165309 1.799055,-2.092151 1.94641,-3.835477 M 32.067519,18.211888 c -0.540777,0.678225 -1.408189,0.928491 -2.416925,0.993599 m -3.242558,2.970029 c 1.710857,-0.818377 2.781211,-1.811247 3.242558,-2.970029 l -1.052293,-1.052294 c -1.158783,0.461347 -2.151652,1.531703 -2.970029,3.242559 m 2.970029,-3.242559 c 0.06511,-1.008735 0.315374,-1.876147 0.993599,-2.416924 -0.07772,-2.458247 1.862366,-2.898699 2.950951,-4.190645 l -0.448365,2.271033 c 0.527745,-1.157742 1.026846,-2.016144 1.679728,-2.154104 1.24571,-0.34242 2.607572,-0.943045 3.928868,-1.7048401 -0.387106,1.0905881 -0.888648,2.2401431 -2.123074,2.8645431 -0.108969,0.673915 -0.289887,1.308829 -0.918551,1.701022 l 1.657066,-0.874552 c -0.811356,0.630386 -0.928043,1.870754 -1.701633,2.496562 l 1.286107,0.120194 c -1.16531,0.770903 -2.092152,1.799055 -3.835478,1.94641 m -6.455735,15.585517 c 0.09719,-0.861964 -0.339197,-1.652282 -1.006443,-2.411604 m -0.192708,-4.392963 c 0.631079,1.788438 0.68587,3.247359 0.192708,4.392963 h -1.488168 c -0.493161,-1.145604 -0.438371,-2.604525 0.192708,-4.392963 m -0.192708,4.392963 c -0.667245,0.759322 -1.103633,1.54964 -1.006443,2.411604 -1.793196,1.68329 -0.732798,3.366582 -0.876596,5.049872 l 1.288821,-1.922905 c -0.445475,1.19182 -0.699539,2.151719 -0.335433,2.710928 0.638721,1.122977 1.176997,2.510665 1.572624,3.983635 0.497437,-1.044889 0.955651,-2.212391 0.524298,-3.526779 0.399476,-0.553584 0.720501,-1.130463 0.553291,-1.852319 l 0.55332,1.790126 c -0.127965,-1.019466 0.666597,-1.97905 0.562099,-2.968573 l 0.994402,0.824427 c -0.278887,-1.369108 -0.20725,-2.751498 -1.335772,-4.088412 m 0,-19.59482 c 0.09719,0.861965 -0.339197,1.652283 -1.006443,2.411605 m -0.192708,4.392963 c 0.631079,-1.788439 0.68587,-3.247359 0.192708,-4.392963 h -1.488168 c -0.493161,1.145604 -0.438371,2.604524 0.192708,4.392963 M 23.117173,16.614194 C 22.449928,15.854872 22.01354,15.064554 22.11073,14.202589 20.317534,12.519299 21.377932,10.836008 21.234134,9.1527177 l 1.288821,1.9229043 C 22.07748,9.8838026 21.823416,8.923904 22.187522,8.3646947 c 0.638721,-1.1229773 1.176997,-2.5106654 1.572624,-3.9836338 0.497437,1.0448878 0.955651,2.2123898 0.524298,3.5267782 0.399476,0.5535834 0.720501,1.1304623 0.553291,1.8523183 l 0.55332,-1.7901254 c -0.127965,1.0194661 0.666597,1.9790492 0.562099,2.968573 l 0.994402,-0.824428 c -0.278887,1.369109 -0.20725,2.751499 -1.335772,4.088412 m 12.554071,11.600829 a 14.280189,14.28019 0 0 1 -2.396268,6.283647 m -3.144588,3.2942 a 14.280189,14.28019 0 0 1 -6.840112,2.786939 M 21.207141,38.004419 A 14.280189,14.28019 0 0 1 15.249027,35.284692 M 12.127706,31.935518 A 14.280189,14.28019 0 0 1 10.039513,27.00476 M 9.9845246,21.263171 A 14.280189,14.28019 0 0 1 11.94465,16.345438 m 3.982246,-4.124606 A 14.280189,14.28019 0 0 1 21.207141,9.9955813 M 25.778482,9.8309915 A 14.280189,14.28019 0 0 1 31.9385,12.129699 m 3.338902,3.109934 a 14.280189,14.28019 0 0 1 2.746429,6.066678 M 34.069127,24 A 10.069127,10.069128 0 0 1 24,34.069128 10.069127,10.069128 0 0 1 13.930873,24 10.069127,10.069128 0 0 1 24,13.930872 10.069127,10.069128 0 0 1 34.069127,24 Z M 26.87147,24 A 2.87147,2.87147 0 0 1 24,26.87147 2.87147,2.87147 0 0 1 21.12853,24 2.87147,2.87147 0 0 1 24,21.12853 2.87147,2.87147 0 0 1 26.87147,24 Z m 18.62844,0 A 21.49991,21.499912 0 0 1 24,45.499912 21.49991,21.499912 0 0 1 2.5000896,24 21.49991,21.499912 0 0 1 24,2.5000877 21.49991,21.499912 0 0 1 45.49991,24 Z" /><sodipodi:namedview
     id="namedview992"
     pagecolor="#858585"
     bordercolor="#000000"
     borderopacity="0.25"
     inkscape:showpageshadow="2"
     inkscape:pageopacity="0"
     inkscape:pagecheckerboard="0"
     inkscape:deskcolor="#d1d1d1"
     inkscape:document-units="px"
     showgrid="false"
     inkscape:zoom="15.556349"
     inkscape:cx="16.584868"
     inkscape:cy="25.391562"
     inkscape:window-width="1366"
     inkscape:window-height="737"
     inkscape:window-x="0"
     inkscape:window-y="0"
     inkscape:window-maximized="1"
     inkscape:current-layer="svg990" /><defs
     id="defs987"><style
   id="style1174">.a{fill:none;stroke:#fff;stroke-linecap:round;stroke-linejoin:round;}</style>
		
	
		
		
	
		
	
			
		
				
			</defs></svg>
