<?xml version="1.0" encoding="UTF-8" standalone="no"?>
<!-- Created with Inkscape (http://www.inkscape.org/) -->

<svg
   width="48"
   height="48"
   viewBox="0 0 48 48"
   version="1.1"
   id="svg990"
   inkscape:version="1.2.2 (b0a8486541, 2022-12-01)"
   xml:space="preserve"
   sodipodi:docname="rbru_app.svg"
   xmlns:inkscape="http://www.inkscape.org/namespaces/inkscape"
   xmlns:sodipodi="http://sodipodi.sourceforge.net/DTD/sodipodi-0.dtd"
   xmlns="http://www.w3.org/2000/svg"
   xmlns:svg="http://www.w3.org/2000/svg"><sodipodi:namedview
     id="namedview992"
     pagecolor="#858585"
     bordercolor="#000000"
     borderopacity="0.25"
     inkscape:showpageshadow="2"
     inkscape:pageopacity="0"
     inkscape:pagecheckerboard="0"
     inkscape:deskcolor="#d1d1d1"
     inkscape:document-units="px"
     showgrid="false"
     inkscape:zoom="11"
     inkscape:cx="15"
     inkscape:cy="16.818182"
     inkscape:window-width="1366"
     inkscape:window-height="737"
     inkscape:window-x="0"
     inkscape:window-y="0"
     inkscape:window-maximized="1"
     inkscape:current-layer="svg990" /><defs
     id="defs987"><style
       id="style1174">.a{fill:none;stroke:#fff;stroke-linecap:round;stroke-linejoin:round;}</style></defs><path
     id="path496"
     style="fill:none;fill-opacity:1;stroke:#fff;stroke-width:1;stroke-linecap:round;stroke-linejoin:round;stroke-dasharray:none;stroke-opacity:1;stop-color:#000000"
     d="m 22.206327,18.022854 c -1.93619,-1.941146 -4.658656,-2.8962 -6.39337,-2.532324 m 16.66451,7.666061 c 2.144366,0.180445 5.19648,0.941635 6.485312,2.719371 M 23.255692,25.064991 c -2.065776,3.097117 -4.025405,6.664901 -5.202012,10.135583 m 6.652602,-14.243503 c -0.936872,-1.536325 -2.077308,-6.67384 1.21052,-9.473411 0.99012,-0.843083 2.039056,0.445505 0.624997,1.13802 M 36.634307,9.9959837 c -1.56711,-1.0452186 -2.733849,0.6364793 -2.278316,1.9647173 -4.04264,-0.110384 -8.81632,6.039624 -8.605329,10.702795 2.555153,-1.155646 4.74675,-2.296888 5.396608,-4.833222 0.255332,-0.996537 -0.255153,-1.511658 -0.907947,-0.963783 M 25.521157,9.2005327 c -2.185619,-1.2997935 -5.47724,-1.432374 -9.45701,-1.0735487 4.868062,2.584471 6.617702,5.390269 6.419905,7.867761 -8.22052,-7.8637162 -17.8477174,-1.611095 -17.9840282,3.37202 2.1953148,-1.48212 4.4606164,-1.548595 6.7555102,0.04655 2.954838,2.05386 5.047489,0.553056 7.502929,0.377126 4.541891,-0.325422 4.264213,1.986387 3.081251,2.018258 -15.2677492,0.411337 -6.803696,15.290702 -6.699919,18.241134 0.513917,-1.284177 0.65661,-2.093072 4.689083,-1.900651 6.168691,0.294357 7.478272,-3.913188 7.065926,-7.919479 -0.454783,-4.418599 0.103694,-7.550788 1.77529,-7.317672 2.114472,0.294878 2.131474,2.111231 2.812649,3.483014 0.991306,3.47961 1.422222,4.912695 4.301994,6.279275 3.949625,1.874273 2.69738,4.002583 3.702425,6.042893 4.523914,-6.428185 8.66676,-17.837816 -8.040316,-17.629997 0.43417,-2.003687 4.886896,-2.061324 9.569094,0.02265 0.37932,-4.468428 -3.970707,-7.018159 -7.772408,-6.626738" /></svg>
