<?xml version="1.0" encoding="UTF-8" standalone="no"?>
<!-- Created with Inkscape (http://www.inkscape.org/) -->

<svg
   width="48"
   height="48"
   viewBox="0 0 48 48"
   version="1.1"
   id="svg990"
   inkscape:version="1.2.2 (b0a8486541, 2022-12-01)"
   xml:space="preserve"
   sodipodi:docname="rmuti_connect.svg"
   xmlns:inkscape="http://www.inkscape.org/namespaces/inkscape"
   xmlns:sodipodi="http://sodipodi.sourceforge.net/DTD/sodipodi-0.dtd"
   xmlns="http://www.w3.org/2000/svg"
   xmlns:svg="http://www.w3.org/2000/svg"><sodipodi:namedview
     id="namedview992"
     pagecolor="#858585"
     bordercolor="#000000"
     borderopacity="0.25"
     inkscape:showpageshadow="2"
     inkscape:pageopacity="0"
     inkscape:pagecheckerboard="0"
     inkscape:deskcolor="#d1d1d1"
     inkscape:document-units="px"
     showgrid="false"
     inkscape:zoom="11"
     inkscape:cx="24"
     inkscape:cy="24"
     inkscape:window-width="1366"
     inkscape:window-height="737"
     inkscape:window-x="0"
     inkscape:window-y="0"
     inkscape:window-maximized="1"
     inkscape:current-layer="svg990" /><defs
     id="defs987"><style
       id="style1174">.a{fill:none;stroke:#fff;stroke-linecap:round;stroke-linejoin:round;}</style></defs><path
     id="path2751"
     style="fill:none;stroke:#fff;stroke-width:1;stroke-linecap:round;stroke-linejoin:round;stroke-dasharray:none;stroke-opacity:1;stop-color:#000000"
     d="m 19.927741,41.073382 c 6.073628,0.550245 13.32236,-2.06108 14.450653,-5.601154 L 43.500009,6.8527086 M 19.61931,41.140819 c 4.305314,-1.409967 5.792251,-3.302423 6.5307,-5.668591 l 5.476506,-17.548044 m 3.017726,-2.897238 -6.490522,20.445282 c -0.73975,2.330227 -4.07742,5.342962 -8.427637,5.621311 m 0,0 c 3.883118,0.233958 9.496033,-2.545877 10.486469,-5.621311 L 37.693776,12.242061 M 19.619278,41.140819 C 25.789392,41.25396 31.39116,38.311882 32.299969,35.472228 L 40.602921,9.5289326 M 4.5186187,9.0995123 C 6.7348399,8.6844208 9.9238964,7.9893385 11.021347,10.437827 M 8.1122264,11.219566 C 7.4348921,10.241437 6.9615964,9.0414863 4.5186187,9.0995123 5.2307862,7.5144558 13.940738,3.0574759 13.802127,15.038453 c 0.43757,-2.414256 -1.062785,-6.1341661 2.143196,-6.8354296 1.437403,-0.3144119 2.023451,0.198923 2.857174,-0.8769655 1.287908,1.0891106 1.210467,4.1651601 2.218758,5.9159001 -1.675073,0.830165 -3.169347,1.711669 -3.510036,2.920739 1.848938,-1.396527 3.478946,-3.586048 6.962405,-1.147204 1.174247,0.822116 1.524831,0.815219 2.079865,0.865856 0.299872,3.574816 -3.014191,2.937996 -5.504271,2.746711 -3.313669,0.235944 -4.30879,1.005232 -6.025951,2.20933 M 9.7347395,35.290841 C 1.9234766,33.426396 4.2569579,22.95728 7.7311439,16.372585 m 7.7650921,0.554726 C 15.003147,15.983459 15.12607,16.098994 13.672256,15.05153 12.787144,14.413813 12.830577,13.549274 12.546095,12.095726 11.711177,7.8297386 4.3899982,13.275681 4.6620131,15.29277 c 2.570227,0.709173 3.8304362,1.523614 7.8727249,2.180795 2.929579,0.47628 4.124283,2.376581 0.908743,4.875232 6.968369,-6.327291 13.528264,-0.772257 13.257106,2.419381 0.649726,-1.859742 1.329458,-4.201997 -1.688979,-6.024073 m 1.688979,6.024073 c -5.678265,-2.709205 -13.010834,0.29611 -14.467087,4.7433 1.92797,-1.315611 7.113746,-3.550001 10.423675,1.327998 -5.334631,-1.042648 -8.270438,0.8146 -8.017386,5.047018 M 12.2335,29.511478 c -2.9320375,2.139425 -4.3059863,8.211422 1.751173,9.979177 6.46e-4,-4.46495 1.768738,-4.471574 3.411248,-4.658204 -0.142019,0.692386 -0.225175,1.384774 0.0059,2.077161 1.476852,0.610561 1.830596,2.124263 1.537704,3.404461 m -4.954883,-0.823418 5.634618,1.650164" /></svg>
