<?xml version="1.0" encoding="UTF-8" standalone="no"?>
<!-- Created with Inkscape (http://www.inkscape.org/) -->

<svg
   width="48"
   height="48"
   viewBox="0 0 48 48"
   version="1.1"
   id="svg990"
   inkscape:version="1.2.2 (b0a8486541, 2022-12-01)"
   xml:space="preserve"
   sodipodi:docname="secure_access.svg"
   xmlns:inkscape="http://www.inkscape.org/namespaces/inkscape"
   xmlns:sodipodi="http://sodipodi.sourceforge.net/DTD/sodipodi-0.dtd"
   xmlns="http://www.w3.org/2000/svg"
   xmlns:svg="http://www.w3.org/2000/svg"><sodipodi:namedview
     id="namedview992"
     pagecolor="#858585"
     bordercolor="#000000"
     borderopacity="0.25"
     inkscape:showpageshadow="2"
     inkscape:pageopacity="0"
     inkscape:pagecheckerboard="0"
     inkscape:deskcolor="#d1d1d1"
     inkscape:document-units="px"
     showgrid="false"
     inkscape:zoom="11"
     inkscape:cx="24"
     inkscape:cy="24"
     inkscape:window-width="1366"
     inkscape:window-height="737"
     inkscape:window-x="0"
     inkscape:window-y="0"
     inkscape:window-maximized="1"
     inkscape:current-layer="svg990" /><defs
     id="defs987"><style
       id="style1174">.a{fill:none;stroke:#fff;stroke-linecap:round;stroke-linejoin:round;}</style></defs><path
     id="path2195"
     style="fill:none;stroke:#fff;stroke-width:1;stroke-linecap:round;stroke-linejoin:round;stroke-dasharray:none;stroke-opacity:1;stop-color:#000000"
     d="m 29.419617,27.678028 9.498847,-3.751907 c 2.125764,-0.839646 2.748768,-0.598308 3.741617,0.14443 0.561285,0.41989 0.765504,0.930235 0.816565,1.561013 0.106119,1.310934 -0.145113,2.160866 -0.985603,2.726107 -5.098929,3.429103 -10.533741,5.983939 -17.347865,8.785018 -3.312551,1.361689 -8.210842,0.463496 -12.610151,-1.049134 l -5.8926536,-0.02331 c -1.1857541,0 -2.1403526,-0.954598 -2.1403526,-2.140353 v -5.954048 c 0,-1.185754 0.9545985,-2.140352 2.1403526,-2.140352 v 0 l 6.3255236,-3.4e-4 c 2.406798,-2.991337 9.733646,-1.993756 14.919447,-1.817718 1.400105,0.04753 1.924165,1.488327 1.534273,3.660596 -1.347423,2.587254 -4.774325,1.901775 -7.998864,2.018945 m 8.081452,-11.317084 1.233567,-1.233567 1.233151,1.233151 m -5.911587,4.3e-4 1.233567,-1.233567 v 0 l 1.23315,1.233152 m -5.866758,-5.069327 h 9.71638 l 2.726033,2.534668 -2.726034,2.53467 v 0 h -0.403727 m -2.467225,0 h -0.977919 m -2.467227,0 h -3.400283 m -4.304723,-2.53467 a 1.5652161,1.5652161 0 0 1 -1.565216,1.565216 1.5652161,1.5652161 0 0 1 -1.565216,-1.565216 1.5652161,1.5652161 0 0 1 1.565216,-1.565216 1.5652161,1.5652161 0 0 1 1.565216,1.565216 z m 4.304855,2.534608 -2.463982,2.46398 c -0.899657,0.899657 -2.348204,0.899657 -3.247861,0 l -3.374657,-3.374657 c -0.899656,-0.899657 -0.899656,-2.348204 0,-3.247861 l 3.374657,-3.374656 c 0.899657,-0.8996574 2.348204,-0.8996574 3.24786,0 v 0 l 2.463982,2.463982" /></svg>
