<?xml version="1.0" encoding="UTF-8" standalone="no"?>
<!-- Created with Inkscape (http://www.inkscape.org/) -->

<svg
   width="48"
   height="48"
   viewBox="0 0 48 48"
   version="1.1"
   id="svg990"
   inkscape:version="1.2.2 (b0a8486541, 2022-12-01)"
   xml:space="preserve"
   sodipodi:docname="skru_uapp.svg"
   xmlns:inkscape="http://www.inkscape.org/namespaces/inkscape"
   xmlns:sodipodi="http://sodipodi.sourceforge.net/DTD/sodipodi-0.dtd"
   xmlns="http://www.w3.org/2000/svg"
   xmlns:svg="http://www.w3.org/2000/svg"><sodipodi:namedview
     id="namedview992"
     pagecolor="#858585"
     bordercolor="#000000"
     borderopacity="0.25"
     inkscape:showpageshadow="2"
     inkscape:pageopacity="0"
     inkscape:pagecheckerboard="0"
     inkscape:deskcolor="#d1d1d1"
     inkscape:document-units="px"
     showgrid="false"
     inkscape:zoom="11"
     inkscape:cx="15.181818"
     inkscape:cy="24"
     inkscape:window-width="1366"
     inkscape:window-height="737"
     inkscape:window-x="0"
     inkscape:window-y="0"
     inkscape:window-maximized="1"
     inkscape:current-layer="svg990" /><defs
     id="defs987"><style
       id="style1174">.a{fill:none;stroke:#fff;stroke-linecap:round;stroke-linejoin:round;}</style></defs><path
     id="rect10751"
     style="fill:none;stroke:#fff;stroke-width:1;stroke-linecap:round;stroke-linejoin:round;stroke-dasharray:none;stroke-opacity:1;stop-color:#000000"
     d="m 43.722133,11.742696 v 23.778058 c 0,1.606259 -1.293126,2.986152 -2.899384,2.986152 h -0.36768 c -1.606258,0 -2.899383,-1.379893 -2.899383,-2.986152 V 11.742696 m -7.574037,12.055426 0.17534,-0.596844 -5.312375,-16.4879713 -5.313842,16.4881953 5.313109,18.085206 0.562766,-1.915613 M 30.770883,26.11284 c -0.228149,0.05734 -0.467206,0.08777 -0.713634,0.08777 h -2.904025 m -0.06031,12.306301 0.02243,-16.862815 m 1.947139,-9.901395 h 0.994761 c 1.606259,0 2.899384,1.323569 2.899384,2.929827 v 8.628704 c 0,1.359831 -0.926786,2.495238 -2.18575,2.811613 l 2.704914,12.394066 M 15.67665,23.199611 v 15.307295 m 0,-26.76421 v 11.456462 l 3.9005,4.53e-4 M 4.7224078,31.258447 v 4.349076 c 0,1.606258 1.2931265,2.896309 2.8993836,2.898744 l 0.421611,6.39e-4 c 1.606257,0.0025 2.8990296,-1.293764 2.8990296,-2.900023 v -4.348436 m 0,-12.267292 V 14.64192 c 0,-1.606257 -1.2931277,-2.901639 -2.8993834,-2.899224 l -0.4212572,6.34e-4 c -1.6062585,0 -2.8993836,1.293125 -2.8993836,2.899383 v 4.348442 l 6.2200242,12.267292" /></svg>
