<?xml version="1.0" encoding="UTF-8" standalone="no"?>
<!-- Created with Inkscape (http://www.inkscape.org/) -->

<svg
   width="48"
   height="48"
   viewBox="0 0 48 48"
   version="1.1"
   id="svg990"
   inkscape:version="1.2.2 (b0a8486541, 2022-12-01)"
   xml:space="preserve"
   sodipodi:docname="sky_for_students.svg"
   xmlns:inkscape="http://www.inkscape.org/namespaces/inkscape"
   xmlns:sodipodi="http://sodipodi.sourceforge.net/DTD/sodipodi-0.dtd"
   xmlns="http://www.w3.org/2000/svg"
   xmlns:svg="http://www.w3.org/2000/svg"><sodipodi:namedview
     id="namedview992"
     pagecolor="#858585"
     bordercolor="#000000"
     borderopacity="0.25"
     inkscape:showpageshadow="2"
     inkscape:pageopacity="0"
     inkscape:pagecheckerboard="0"
     inkscape:deskcolor="#d1d1d1"
     inkscape:document-units="px"
     showgrid="false"
     inkscape:zoom="11.645833"
     inkscape:cx="8.0715566"
     inkscape:cy="30.912344"
     inkscape:window-width="1366"
     inkscape:window-height="737"
     inkscape:window-x="0"
     inkscape:window-y="0"
     inkscape:window-maximized="1"
     inkscape:current-layer="svg990" /><defs
     id="defs987"><style
   id="style1174">.a{fill:none;stroke:#fff;stroke-linecap:round;stroke-linejoin:round;}</style>
		
		
	
			
			
		
		
	
		
		
	
		
		
	
		
	
		
	</defs><path
     id="path4454-6"
     style="fill:none;stroke:#fff;stroke-linecap:round;stroke-linejoin:round;stroke-miterlimit:10"
     class="st5"
     d="m 35.95,41.6 c 0.5,0.6 1.1,0.9 2,0.9 h 1.2 c 1.1,0 2,-0.9 2,-2 v 0 c 0,-1.1 -0.9,-2 -2,-2 h -1.3 c -1.1,0 -2,-0.9 -2,-2 v 0 c 0,-1.1 0.9,-2 2,-2 h 1.2 c 0.9,0 1.5,0.2 2,0.9 m 4.45,3.1 a 7,7 0 0 1 -7,7 7,7 0 0 1 -7,-7 7,7 0 0 1 7,-7 7,7 0 0 1 7,7 z M 14.860992,14.799165 v 3.387549 c 0,0.95874 0.766992,1.725732 1.661816,1.725732 0.894825,0 1.661817,-0.766992 1.661817,-1.725732 v -3.387549 m 6.891241,3.327282 v 0 c 0,0.95874 -0.766993,1.725732 -1.725733,1.725732 v 0 c -0.95874,0 -1.725732,-0.766992 -1.725732,-1.661816 V 16.46463 c 0,-0.95874 0.766992,-1.725732 1.725732,-1.661816 v 0 c 0.95874,0 1.661817,0.766992 1.661817,1.661816 v 0 M 8.0278289,19.848426 v -5.049365 l 2.5566401,5.113281 2.556641,-5.113281 v 5.113281 m 6.763402,-5.113177 v 5.11328 m 17.585663,-0.338758 v 4.964287 M 35.008164,22.05583 h 4.964022 M 23.388838,33.200834 18.938846,27.638378 m -1.390614,1.668738 5.840606,-7.231194 m -5.840606,0 V 33.200834 M 8.1654263,31.84562 c 0.6880074,0.825609 1.5136154,1.238413 2.7520277,1.238413 h 1.651217 c 1.513615,0 2.752028,-1.238413 2.752028,-2.752028 v 0 c 0,-1.513615 -1.238413,-2.752028 -2.752028,-2.752028 h -1.788818 c -1.5136153,0 -2.752028,-1.238412 -2.752028,-2.752027 v 0 c 0,-1.513616 1.2384127,-2.752028 2.752028,-2.752028 h 1.651217 c 1.238412,0 2.064021,0.275203 2.752028,1.238412 m 13.994547,9.719341 v -5.478876 m 3.56127,-5.478877 -3.56127,5.478876 -3.561269,-5.478876 M 42.5,32.759765 V 7.4999999 a 2,2 0 0 0 -2,-2 v 0 h -33 a 2,2 0 0 0 -1.9999999,2 V 40.5 A 2,2 0 0 0 7.5,42.5 h 25.298827" /></svg>
