<?xml version="1.0" encoding="UTF-8" standalone="no"?>
<!-- Created with Inkscape (http://www.inkscape.org/) -->

<svg
   width="48"
   height="48"
   viewBox="0 0 48 48"
   version="1.1"
   id="svg990"
   inkscape:version="1.2.2 (b0a8486541, 2022-12-01)"
   xml:space="preserve"
   sodipodi:docname="ting.svg"
   xmlns:inkscape="http://www.inkscape.org/namespaces/inkscape"
   xmlns:sodipodi="http://sodipodi.sourceforge.net/DTD/sodipodi-0.dtd"
   xmlns="http://www.w3.org/2000/svg"
   xmlns:svg="http://www.w3.org/2000/svg"><sodipodi:namedview
     id="namedview992"
     pagecolor="#858585"
     bordercolor="#000000"
     borderopacity="0.25"
     inkscape:showpageshadow="2"
     inkscape:pageopacity="0"
     inkscape:pagecheckerboard="0"
     inkscape:deskcolor="#d1d1d1"
     inkscape:document-units="px"
     showgrid="false"
     inkscape:zoom="5.6568542"
     inkscape:cx="24.218407"
     inkscape:cy="18.031223"
     inkscape:window-width="1366"
     inkscape:window-height="737"
     inkscape:window-x="0"
     inkscape:window-y="0"
     inkscape:window-maximized="1"
     inkscape:current-layer="svg990" /><defs
     id="defs987"><style
       id="style1174">.a{fill:none;stroke:#fff;stroke-linecap:round;stroke-linejoin:round;}</style></defs><path
     id="path12073"
     style="display:inline;fill:none;stroke:#fff;stroke-width:1;stroke-linecap:round;stroke-linejoin:round;stroke-dasharray:none;stroke-opacity:1;stop-color:#000000"
     d="m 29.192752,18.179263 c 1.207833,-1.349112 2.89348,-2.282159 4.840161,-2.521574 l 0.655346,-0.0806 c 4.074928,-0.50116 7.776572,2.223592 8.559108,6.186057 m 0,1e-6 c 0.03695,0.187119 0.06739,0.376999 0.09106,0.56943 l 0.102458,0.833089 c 0.524827,4.267359 -2.488127,8.125345 -6.755486,8.650172 l -0.655346,0.0806 c -3.31688,0.407931 -6.386444,-1.321473 -7.835721,-4.115974 m 4e-6,-10e-7 c -0.05099,-0.09833 -0.09998,-0.19797 -0.146902,-0.298885 m 0,0 c -0.329747,-0.709197 -0.557476,-1.481213 -0.662425,-2.299832 m 11.210971,-2.695849 0.223739,1.819231 c 0.244919,1.991434 -1.067565,3.780321 -2.94278,4.010947 l -0.05576,0.0069 c -1.250327,0.153773 -2.425798,-0.425193 -3.142968,-1.418446 m 1e-6,-4.3e-5 c -0.358428,-0.496407 -0.602383,-1.096298 -0.683999,-1.759914 l -0.262515,-2.134506 c -0.244919,-1.991434 1.067565,-3.78032 2.942781,-4.010946 l 0.05576,-0.0069 c 1.875216,-0.230626 3.582048,1.186926 3.826967,3.17836 l 0.03878,0.315275 M 27.38505,25.181928 24.322796,37.032059 v 0 L 18.174831,35.189854 13.590464,22.372984 10.341606,33.344161 5.6925534,31.932204 m 0,0 -1.1925536,-0.362189 5.6515772,-20.602076 5.633349,1.907329 5.129388,13.485719 2.986194,-11.708704 5.706383,1.931694 -0.412601,1.59666"
     sodipodi:nodetypes="csscccsssccccccsccccssccscccccccccccccccc" /></svg>
