<?xml version="1.0" encoding="UTF-8" standalone="no"?>
<svg
   id="a"
   viewBox="0 0 48 48"
   version="1.1"
   sodipodi:docname="true_iservice.svg"
   inkscape:version="1.2.2 (b0a8486541, 2022-12-01)"
   xmlns:inkscape="http://www.inkscape.org/namespaces/inkscape"
   xmlns:sodipodi="http://sodipodi.sourceforge.net/DTD/sodipodi-0.dtd"
   xmlns="http://www.w3.org/2000/svg"
   xmlns:svg="http://www.w3.org/2000/svg">
  <sodipodi:namedview
     id="namedview33"
     pagecolor="#ffffff"
     bordercolor="#000000"
     borderopacity="0.25"
     inkscape:showpageshadow="2"
     inkscape:pageopacity="0.0"
     inkscape:pagecheckerboard="0"
     inkscape:deskcolor="#d1d1d1"
     showgrid="false"
     inkscape:zoom="11.645833"
     inkscape:cx="7.298748"
     inkscape:cy="24.042934"
     inkscape:window-width="1366"
     inkscape:window-height="737"
     inkscape:window-x="0"
     inkscape:window-y="0"
     inkscape:window-maximized="1"
     inkscape:current-layer="a" />
  <defs
     id="defs4">
    <style
       id="style2">.b{fill:none;stroke:#fff;stroke-linecap:round;stroke-linejoin:round;}</style>
  </defs>
  <path
     id="path532"
     style="fill:none;stroke:#fff;stroke-linecap:round;stroke-linejoin:round;stop-color:#000000"
     d="m 29.694293,20.421733 c 3.318391,3.338923 3.32315,8.71447 0.01063,12.006621 -3.312521,3.292151 -8.687938,3.254234 -12.006328,-0.08469 -3.318391,-3.338923 -3.32315,-8.71447 -0.01063,-12.006621 3.312521,-3.292151 8.687938,-3.254234 12.006328,0.08469 z M 26.851,24.4147 c -0.1612,0.6943 -0.8097,1.1889 -1.559101,1.1889 -0.881699,0 -1.596499,-0.6781 -1.596495,-1.514703 -1e-6,-0.5549 0.319799,-1.065301 0.8335,-1.330501 m 2.321,1.6593 c 0.7904,1.268601 0.7816,2.959401 -0.246701,4.3026 -0.426502,0.557098 -1.030301,0.976298 -1.6994,1.1877 -2.5646,0.8107 -4.923,-1.0819 -4.922999,-3.5254 0,-2.0521 1.6635,-3.715699 3.715597,-3.715702 0.2825,0 0.564001,0.0322 0.839201,0.096 m 3.318909,-0.523596 c 2.320244,2.328471 2.33955,6.071117 0.04312,8.359434 -2.296432,2.288315 -6.038986,2.255762 -8.359229,-0.07271 -2.320244,-2.328471 -2.33955,-6.071117 -0.04312,-8.359434 2.296432,-2.288315 6.038986,-2.255762 8.359229,0.07271 z m 2.02859,9.954896 c 0.0757,0.100399 0.145897,0.207303 0.209998,0.320302 l 3.5677,6.291401 c 0.7121,1.255699 0.380701,2.779599 -0.743,3.416899 -1.1237,0.6372 -2.6016,0.139301 -3.313699,-1.1164 l -3.567701,-6.291399 c -0.0452,-0.0796 -0.0861,-0.160301 -0.1229,-0.241801 m 10.6675,-20.2997 c -0.438699,0.877301 -1.462184,1.462217 -2.485799,1.462201 -1.608501,-10e-7 -2.924501,-1.316001 -2.924504,-2.924497 v -1.7953 c 0,-1.2706996 0.755399,-2.4803998 1.9635,-2.8742001 2.009699,-0.6550999 3.8855,0.8482998 3.8855,2.7685991 V 11.9339 h -5.849 M 10.9803,7.8396004 l 3.217,-6e-7 M 12.5888,5.5000002 V 14.2735 c -1e-6,0.8076 0.6547,1.4622 1.462216,1.462184 h 0.4387 m 2.635901,-7.8961001 v 7.8961001 m -10e-7,-4.9716 c 0,-1.6085002 1.316,-2.9245 2.924497,-2.9245041 m 8.484801,4.9716001 v 2.924501 M 22.685913,7.8395805 V 12.55938 c -1e-6,1.2707 0.7554,2.4804 1.9635,2.8742 2.0097,0.6551 3.8855,-0.8483 3.8855,-2.7686 V 7.8395798"
     sodipodi:nodetypes="ssssscssccscsscssssscccccccccsssscccccccccccccccsssc" />
</svg>
