<?xml version="1.0" encoding="UTF-8" standalone="no"?>
<!-- Created with Inkscape (http://www.inkscape.org/) -->

<svg
   width="48"
   height="48"
   viewBox="0 0 48 48"
   version="1.1"
   id="svg990"
   inkscape:version="1.2.2 (b0a8486541, 2022-12-01)"
   xml:space="preserve"
   sodipodi:docname="tu_greats.svg"
   xmlns:inkscape="http://www.inkscape.org/namespaces/inkscape"
   xmlns:sodipodi="http://sodipodi.sourceforge.net/DTD/sodipodi-0.dtd"
   xmlns="http://www.w3.org/2000/svg"
   xmlns:svg="http://www.w3.org/2000/svg"><sodipodi:namedview
     id="namedview992"
     pagecolor="#858585"
     bordercolor="#000000"
     borderopacity="0.25"
     inkscape:showpageshadow="2"
     inkscape:pageopacity="0"
     inkscape:pagecheckerboard="0"
     inkscape:deskcolor="#d1d1d1"
     inkscape:document-units="px"
     showgrid="false"
     inkscape:zoom="11"
     inkscape:cx="24"
     inkscape:cy="24"
     inkscape:window-width="1366"
     inkscape:window-height="737"
     inkscape:window-x="0"
     inkscape:window-y="0"
     inkscape:window-maximized="1"
     inkscape:current-layer="svg990"
     showguides="false" /><defs
     id="defs987"><style
       id="style1174">.a{fill:none;stroke:#fff;stroke-linecap:round;stroke-linejoin:round;}</style></defs><path
     id="path15983"
     style="fill:none;stroke:#fff;stroke-width:1;stroke-linecap:round;stroke-linejoin:round;stroke-dasharray:none;stroke-opacity:1;stop-color:#000000"
     d="m 11.949503,18.369779 v 11.369447 c 0,3.951881 3.775128,5.482068 6.540963,5.476082 l -5.8e-5,-16.845529 m 4.992462,-5.584663 7.78e-4,13.348588 c 0,5.031219 4.050403,9.081623 9.081622,9.081623 h 1.853087 c 5.031219,0 9.081622,-4.050404 9.081622,-9.081623 v -8.433827 c 0,-2.409674 -1.661689,-4.914761 -6.278892,-4.914761 v 12.642579 c 0,2.071677 -1.610319,3.739491 -3.61058,3.739491 h -0.238164 c -2.000263,0 -3.610582,-1.667814 -3.610582,-3.739491 l -5.27e-4,-7.727819 c 0,-2.409674 -1.736439,-4.91476 -6.323355,-4.91476 m 0.04422,5.471853 H 9.9761212 c -3.9518811,0 -5.4820675,-2.70646 -5.4760828,-5.472296 l 18.9828316,4.44e-4" /></svg>
