<?xml version="1.0" encoding="UTF-8" standalone="no"?>
<svg
   id="a"
   viewBox="0 0 48 48"
   version="1.1"
   sodipodi:docname="tungngern.svg"
   inkscape:version="1.2.2 (b0a8486541, 2022-12-01)"
   xmlns:inkscape="http://www.inkscape.org/namespaces/inkscape"
   xmlns:sodipodi="http://sodipodi.sourceforge.net/DTD/sodipodi-0.dtd"
   xmlns="http://www.w3.org/2000/svg"
   xmlns:svg="http://www.w3.org/2000/svg">
  <sodipodi:namedview
     id="namedview33"
     pagecolor="#ffffff"
     bordercolor="#000000"
     borderopacity="0.25"
     inkscape:showpageshadow="2"
     inkscape:pageopacity="0.0"
     inkscape:pagecheckerboard="0"
     inkscape:deskcolor="#d1d1d1"
     showgrid="false"
     inkscape:zoom="11.645833"
     inkscape:cx="7.298748"
     inkscape:cy="24.042934"
     inkscape:window-width="1366"
     inkscape:window-height="737"
     inkscape:window-x="0"
     inkscape:window-y="0"
     inkscape:window-maximized="1"
     inkscape:current-layer="a" />
  <defs
     id="defs4">
    <style
       id="style2">.b{fill:none;stroke:#fff;stroke-linecap:round;stroke-linejoin:round;}</style>
  </defs>
  <path
     id="line28"
     style="fill:none;stroke-linecap:round;stroke-linejoin:round;stroke:#fff;stroke-opacity:1"
     class="b"
     d="m 32.901402,16.5186 0.281799,-0.8827 m 2.254497,-7.0616002 0.281803,-0.8827 M 34.931999,12.3284 32.0741,11.3707 m 2.8374,0.9372 c 0.9445,0.3187 1.4636,1.3739 1.1536,2.3448 -0.31,0.971 -1.3364,1.5047 -2.2808,1.186 l -2.8334,-0.9561 2.2545,-7.0616 2.8334,0.9561 c 0.9445,0.3187 1.4636,1.3739 1.1536,2.3448 -0.31,0.971 -1.3364,1.5047 -2.2808,1.186 z m 5.810002,-0.2028 a 6.6051002,6.6051002 0 0 1 -6.6051,6.6051 6.6051002,6.6051002 0 0 1 -6.6051,-6.6051 6.6051002,6.6051002 0 0 1 6.6051,-6.6051005 6.6051002,6.6051002 0 0 1 6.6051,6.6051005 z M 16.1677,18.4889 C 15.5525,15.8464 14.2652,12.7538 11.796,9.7276 l 8.0196,-1.6565 c 0.6611,1.2649 1.4191,2.819 1.612,3.7639 m 4.5126,9.6194 c 0.1481,-1.5053 0.9883,-3.6339 2.1973,-6.2891 m -0.6244,-4.3968 -5.1009,-1.1028 -1.2975,3.0837 m -3.0235,6.6892 c 0.4727,-1.1065 1.5599,-1.8242 2.7631,-1.8242 1.6595,0 3.0047,1.3453 3.0047,3.0047 0,0.3904 -0.0761,0.777 -0.224,1.1383 m -6.7891,-2.9632 v -5.8983 h 8.2583 v 8.7328 m -9.6385,3.0291 -3.7836,-5.0348 c 1.7315,-2.5739 4.1695,-1.3293 6.556,0 2.3354,1.3009 4.4899,3.0408 7.59,2.0164 2.8463,-0.9406 3.4102,-2.0362 5.0679,-3.0585 l -4.0122,5.7655 m -11.5093,0.310201 h 11.513 v 2.2686 h -11.513 z m 11.513,2.268599 c 1.2926,1.0976 2.074,0.9083 4.3799,2.88 6.1786,5.283 4.2351,12.4117 -10.1364,12.6947 C 6.7594,42.2168 4.2703,35.047 10.449,29.7639 c 2.3059,-1.9717 3.5117,-1.7453 4.9255,-2.8388" />
</svg>
