<?xml version="1.0" encoding="UTF-8" standalone="no"?>
<!-- Created with Inkscape (http://www.inkscape.org/) -->

<svg
   width="48"
   height="48"
   viewBox="0 0 48 48"
   version="1.1"
   id="svg990"
   inkscape:version="1.2.2 (b0a8486541, 2022-12-01)"
   xml:space="preserve"
   sodipodi:docname="youdanji.svg"
   xmlns:inkscape="http://www.inkscape.org/namespaces/inkscape"
   xmlns:sodipodi="http://sodipodi.sourceforge.net/DTD/sodipodi-0.dtd"
   xmlns="http://www.w3.org/2000/svg"
   xmlns:svg="http://www.w3.org/2000/svg"><sodipodi:namedview
     id="namedview992"
     pagecolor="#858585"
     bordercolor="#000000"
     borderopacity="0.25"
     inkscape:showpageshadow="2"
     inkscape:pageopacity="0"
     inkscape:pagecheckerboard="0"
     inkscape:deskcolor="#d1d1d1"
     inkscape:document-units="px"
     showgrid="false"
     inkscape:zoom="11"
     inkscape:cx="24"
     inkscape:cy="16.727273"
     inkscape:window-width="1366"
     inkscape:window-height="737"
     inkscape:window-x="0"
     inkscape:window-y="0"
     inkscape:window-maximized="1"
     inkscape:current-layer="svg990" /><defs
     id="defs987"><style
       id="style1174">.a{fill:none;stroke:#fff;stroke-linecap:round;stroke-linejoin:round;}</style></defs><path
     id="path2759"
     style="fill:none;stroke:#fff;stroke-width:1;stroke-linecap:round;stroke-linejoin:round;stroke-dasharray:none;stroke-opacity:1;stop-color:#000000"
     d="m 32.780549,29.6969 c 2.590607,0.953344 2.08083,0.179697 1.159167,-1.430588 m 0.879417,-1.093889 c 2.605368,0.966963 1.8959,-0.247838 0.632375,-1.28689 -0.820043,1.666734 -2.89318,3.669858 -3.648658,4.886767 M 5.0063267,34.95979 c -0.7709112,2.500558 -0.7429854,2.663467 0.7969335,0.941332 m 1.9094763,0.733501 c -0.4182619,2.490624 0.4423245,2.298171 1.7146071,0.899396 m 6.2147924,1.253792 c 0.667534,2.573969 1.117653,2.289995 1.835427,0.084 m 0.53765,-26.339308 c 5.245611,4.551728 11.206625,10.364858 17.587541,13.41795 M 11.512123,14.622988 c -2.2029864,6.738575 -5.7740911,13.548469 -6.5238858,20.514697 0.9520837,1.347528 2.373436,1.074375 4.0320345,1.71866 1.6973753,2.53728 4.3899613,2.496298 7.7310163,1.623857 3.017269,1.679239 5.823016,-0.236472 8.915419,-1.23473 M 11.162347,10.600565 C 9.2233918,9.1445702 10.626758,8.2399568 12.160535,8.1698605 c 1.110838,-0.050767 1.471786,-1.322329 3.094298,-0.576817 0.540081,0.2481563 0.152349,1.6087984 0.159833,1.9436518 m -3.764494,2.1732677 c -0.132107,-0.335173 -0.598404,-0.568466 -0.38817,-1.097513 1.165906,-0.7728466 2.847902,-1.1474259 3.970726,-1.1707787 0.164559,0.2048705 0.36544,0.6109637 0.464783,0.8330937 m 2.71312,2.352377 c -2.046137,-1.543687 0.228395,0.274931 -2.345437,0.451672 -0.61728,-0.981389 -0.919445,-1.556572 -0.944782,0.41007 -1.322939,0.351413 -2.287796,1.4949 -2.688996,-0.534874 -0.08545,0.243415 -0.571283,0.805412 -0.436052,1.242096 -2.4205168,1.123774 -2.2506789,-0.425275 -0.687114,-2.2643 1.398703,-0.928418 3.567193,-1.515032 4.902294,-1.669994 0.896213,0.538175 1.773186,1.084034 2.603105,1.729426 -0.134339,0.211968 -0.268679,0.423936 -0.403018,0.635904 z m -1.630849,16.482047 c 3.160562,-1.311246 7.664406,-1.140244 11.275475,1.986486 m -7.267554,-2.86645 c 3.93373,-3.78641 8.632685,0.750853 11.837607,3.506724 1.891371,1.506528 3.462364,1.790357 5.76002,0.377595 1.32064,-0.860835 2.095816,-2.480937 3.690353,-2.94197 1.529796,-0.442314 1.542448,2.471894 1.292172,3.247332 -1.521444,4.713938 -7.546393,6.673589 -11.830306,6.826291 -5.851074,-0.03231 -9.669782,-6.72214 -15.199441,-5.693502 -2.688846,-0.924454 -1.484971,-3.603224 0.441674,-4.442506 m -2.141446,-0.617982 c 3.061231,-0.754293 6.203452,-1.446128 8.9795,-3.070025 2.105513,2.235093 1.881783,0.593694 1.390726,-1.211592 2.042511,-3.938183 3.166497,1.674789 2.701149,3.516573 m -13.301336,0.735489 c -0.275255,2.723579 -0.07076,2.314823 -2.197422,0.05581 -0.734605,-0.400988 -1.834097,-1.125496 -2.7340015,-0.945627 -0.5957571,0.119077 1.3425725,2.945208 1.5513365,3.188228 2.266207,2.638069 5.407432,3.489361 8.775084,2.859883 M 14.806247,18.194312 c 3.15185,-4.173755 9.134901,2.509159 6.132339,5.716485 -4.174103,4.458761 -10.217625,-1.15869 -6.132339,-5.716485 z m 3.113622,1.572772 c 1.727309,0.66706 0.959595,3.876847 -1.062209,2.902569 -1.751091,-0.843827 -0.862475,-3.61018 1.062209,-2.902569 z" /></svg>
