<?xml version="1.0" encoding="UTF-8" standalone="no"?>
<!-- Created with Inkscape (http://www.inkscape.org/) -->

<svg
   width="48"
   height="48"
   viewBox="0 0 48 48"
   version="1.1"
   id="svg990"
   inkscape:version="1.2.1 (9c6d41e, 2022-07-14)"
   xml:space="preserve"
   sodipodi:docname="debeka_meine_gesundheit.svg"
   xmlns:inkscape="http://www.inkscape.org/namespaces/inkscape"
   xmlns:sodipodi="http://sodipodi.sourceforge.net/DTD/sodipodi-0.dtd"
   xmlns="http://www.w3.org/2000/svg"
   xmlns:svg="http://www.w3.org/2000/svg"><sodipodi:namedview
     id="namedview992"
     pagecolor="#858585"
     bordercolor="#000000"
     borderopacity="0.25"
     inkscape:showpageshadow="2"
     inkscape:pageopacity="0"
     inkscape:pagecheckerboard="0"
     inkscape:deskcolor="#d1d1d1"
     inkscape:document-units="px"
     showgrid="false"
     inkscape:zoom="11"
     inkscape:cx="23.954545"
     inkscape:cy="24"
     inkscape:window-width="1366"
     inkscape:window-height="737"
     inkscape:window-x="0"
     inkscape:window-y="0"
     inkscape:window-maximized="1"
     inkscape:current-layer="layer2" /><defs
     id="defs987"><style
       id="style1174">.a{fill:none;stroke:#fff;stroke-linecap:round;stroke-linejoin:round;}</style></defs><g
     inkscape:groupmode="layer"
     id="layer2"
     inkscape:label="Layer 2"
     transform="matrix(0.86867179,0,0,0.86867179,3.1518852,3.0017888)"
     style="stroke-width:1.15118277;stroke-dasharray:none"><path
       style="display:inline;fill:none;fill-opacity:0.941176;stroke:#ffffff;stroke-width:1.15118277;stroke-linecap:round;stroke-linejoin:round;stroke-dasharray:none;stroke-opacity:1;stop-color:#000000"
       d="m 16.240656,18.822442 8.801461,0.926766 -0.225597,-5.711335 C 27.618192,13.791357 31.740316,14.528275 35.0978,9.2478091 36.30303,7.3522883 36.113904,4.9426288 37.642359,2.3347572 36.839085,3.0478828 34.377783,3.8067694 31.830011,4.1538465 28.267808,4.6391173 25.002178,6.1654853 24.519626,8.6103115 24.764882,5.7574213 23.358159,3.1952829 20.884488,0.79329768 19.367937,1.252981 18.905435,1.820336 18.876365,2.4319654 c 3.797473,2.8567168 3.503364,6.2787352 4.648534,8.5048866 2.688543,-1.8190661 5.469435,-3.7935976 7.064415,-2.6201404 -1.856913,0.9312655 -1.435892,1.3478905 -3.185898,2.5456334 -2.605132,1.783011 -3.266039,1.518381 -5.055371,1.329012 L 10.270008,10.913114 C 7.4632243,10.616066 5.4795154,13.78911 5.798161,16.052616 L 8.2609989,33.547439 12.910711,32.934296 12.064933,21.541323 c -0.178749,-2.407828 1.925964,-2.955773 4.175723,-2.718881 z"
       id="path400"
       sodipodi:nodetypes="sccscscccccssssccss" /><path
       style="display:inline;fill:none;fill-opacity:0.941176;stroke:#ffffff;stroke-width:1.15118277;stroke-linecap:round;stroke-linejoin:round;stroke-dasharray:none;stroke-opacity:1;stop-color:#000000"
       d="m 27.357691,15.807172 0.0128,7.221198 1.739608,0.111352 v -1.682089 l 6.49692,0.362273 c 0.745223,0.04155 1.530632,0.167843 1.402922,1.391773 l -0.889172,8.521497 h 4.544706 l 1.557946,-12.344469 c 0.09917,-0.785769 -0.394856,-2.51142 -2.637855,-2.677289 z"
       id="path1126"
       sodipodi:nodetypes="ccccssccssc" /><path
       style="display:inline;fill:none;fill-opacity:0.941176;stroke:#ffffff;stroke-width:1.15118277;stroke-linecap:round;stroke-linejoin:round;stroke-dasharray:none;stroke-opacity:1;stop-color:#000000"
       d="m 35.830333,34.186658 -0.0052,2.077366 -2.324163,-0.120952 c -1.626281,-0.08463 -1.558236,1.812328 -1.573374,2.303177 l 2.524592,-0.07149 -0.566237,2.97975 c -0.16091,0.846766 -0.503321,1.201972 -0.939603,1.328808 -1.463347,0.425424 -2.696666,0.355995 -4.324307,0.429338 -0.0962,-0.524913 -0.317979,-1.049825 -0.797406,-1.574738 -0.376217,-0.41191 -1.890646,-0.03568 -2.074698,1.187418 0.500391,0.960386 0.929743,2.035355 1.501372,2.88084 2.705274,-0.280387 5.654274,-0.388632 7.962921,-0.949155 1.605096,-0.389706 2.522539,-1.377288 2.577628,-2.40276 l 0.436191,-8.119572 z"
       id="path1128"
       sodipodi:nodetypes="ccsccsscsccsscc" /><path
       style="display:inline;fill:none;fill-opacity:0.941176;stroke:#ffffff;stroke-width:1.15118277;stroke-linecap:round;stroke-linejoin:round;stroke-dasharray:none;stroke-opacity:1;stop-color:#000000"
       d="m 24.916341,47.552257 c 0.175225,-1.894358 -0.937742,-3.042065 -2.35532,-3.162509 l -3.474572,-0.295215 c -2.306779,-0.195994 -1.904119,-2.748957 -2.314937,-5.481531 1.691788,0.02804 3.140883,-0.213318 3.008514,-1.657652 -0.23809,-0.851584 -1.768414,-0.352253 -3.680691,0.03862 -0.882313,0.180347 -1.867495,0.144829 -2.536844,0.431852 l -0.206263,-2.169139 -2.645809,0.444385 c 1.283238,3.836023 -0.255088,10.776103 3.5225,11.056943 z"
       id="path1184"
       sodipodi:nodetypes="cssccscccsc" /></g></svg>
