<?xml version="1.0" encoding="UTF-8" standalone="no"?>
<!-- Created with Inkscape (http://www.inkscape.org/) -->

<svg
   width="48"
   height="48"
   viewBox="0 0 48 48"
   version="1.1"
   id="svg990"
   inkscape:version="1.2.1 (9c6d41e, 2022-07-14)"
   xml:space="preserve"
   sodipodi:docname="droid_dashcam.svg"
   xmlns:inkscape="http://www.inkscape.org/namespaces/inkscape"
   xmlns:sodipodi="http://sodipodi.sourceforge.net/DTD/sodipodi-0.dtd"
   xmlns="http://www.w3.org/2000/svg"
   xmlns:svg="http://www.w3.org/2000/svg"><sodipodi:namedview
     id="namedview992"
     pagecolor="#858585"
     bordercolor="#000000"
     borderopacity="0.25"
     inkscape:showpageshadow="2"
     inkscape:pageopacity="0"
     inkscape:pagecheckerboard="0"
     inkscape:deskcolor="#d1d1d1"
     inkscape:document-units="px"
     showgrid="false"
     inkscape:zoom="11"
     inkscape:cx="23.954545"
     inkscape:cy="24"
     inkscape:window-width="1366"
     inkscape:window-height="737"
     inkscape:window-x="0"
     inkscape:window-y="0"
     inkscape:window-maximized="1"
     inkscape:current-layer="svg990" /><defs
     id="defs987"><style
       id="style1174">.a{fill:none;stroke:#fff;stroke-linecap:round;stroke-linejoin:round;}</style></defs><g
     inkscape:groupmode="layer"
     id="layer2"
     inkscape:label="Layer 2"
     transform="matrix(1.1399497,0,0,1.1399497,-3.4220706,-3.4926933)"><path
       id="rect11282"
       style="fill:none;fill-opacity:0.941176;stroke:#ffffff;stroke-width:0.87723169;stroke-linecap:round;stroke-linejoin:round;stroke-dasharray:none;stroke-opacity:1;stop-color:#000000"
       d="m 38.603934,37.100047 v 1.625022 c 0,0.830768 -0.676774,1.499586 -1.517425,1.499586 H 9.6713054 c -0.8406512,0 -1.5174253,-0.668818 -1.5174253,-1.499586 V 21.218977 c 0,-0.830768 0.6767741,-1.499586 1.5174253,-1.499586 v 0 H 21.359292" /><path
       id="path12055"
       style="fill:none;fill-opacity:0.941176;stroke:#ffffff;stroke-width:0.87723169;stroke-linecap:round;stroke-linejoin:round;stroke-dasharray:none;stroke-opacity:1;stop-color:#000000"
       d="m 38.603935,28.699546 v 2.544956" /><path
       id="rect11809"
       style="fill:none;fill-opacity:0.941176;stroke:#ffffff;stroke-width:0.87723169;stroke-linecap:round;stroke-linejoin:round;stroke-dasharray:none;stroke-opacity:1;stop-color:#000000"
       d="m 38.603999,22.843903 v 0 h 0.85314 c 0.277,0 0.5,0.223 0.5,0.5 v 4.856224 c 0,0.277 -0.223,0.5 -0.5,0.5 h -0.85314" /><path
       id="path11933"
       style="fill:none;fill-opacity:0.941176;stroke:#ffffff;stroke-width:0.87723169;stroke-linecap:round;stroke-linejoin:round;stroke-dasharray:none;stroke-opacity:1;stop-color:#000000"
       d="m 25.291097,19.719392 11.795412,-10e-7 c 0.840652,0 1.517425,0.668817 1.517425,1.499586 v 1.625021" /><path
       id="rect11803"
       style="fill:none;fill-opacity:0.941176;stroke:#ffffff;stroke-width:0.87723169;stroke-linecap:round;stroke-linejoin:round;stroke-dasharray:none;stroke-opacity:1;stop-color:#000000"
       d="m 21.243799,13.846707 h -3.965353 c -1.107999,0 -2,-0.892001 -2,-2 v -1.836438 c 0,-1.1079987 0.892001,-1.9999998 2,-1.9999998 v 0 h 12.09335 c 1.107999,0 2,0.8920011 2,1.9999998 v 1.836438 c 0,1.107999 -0.892001,2 -2,2 h -3.965353" /><path
       id="rect11807"
       style="fill:none;fill-opacity:0.941176;stroke:#ffffff;stroke-width:0.87723169;stroke-linecap:round;stroke-linejoin:round;stroke-dasharray:none;stroke-opacity:1;stop-color:#000000"
       d="m 12.225862,22.55928 h 22.306091 c 0.277,0 0.5,0.223 0.5,0.5 v 13.825486 c 0,0.277 -0.223,0.5 -0.5,0.5 H 12.225862 c -0.277,0 -0.5,-0.223 -0.5,-0.5 V 23.05928 c 0,-0.277 0.223,-0.5 0.5,-0.5 z" /><path
       id="path12030"
       style="fill:none;fill-opacity:0.941176;stroke:#ffffff;stroke-width:0.87723169;stroke-linecap:round;stroke-linejoin:round;stroke-dasharray:none;stroke-opacity:1;stop-color:#000000"
       d="m 38.603999,31.243919 h 0.85314 c 0.277,0 0.5,0.223 0.5,0.5 v 4.856225 c 0,0.277 -0.223,0.5 -0.5,0.5 h -0.85314" /><path
       id="rect11805"
       style="display:inline;fill:none;fill-opacity:0.941176;stroke:#ffffff;stroke-width:0.87723169;stroke-linecap:round;stroke-linejoin:round;stroke-dasharray:none;stroke-opacity:1;stop-color:#000000"
       d="m 21.357623,19.719841 c -0.07386,-0.209192 -0.11402,-0.434566 -0.11402,-0.669665 v -7.035929 c 0,-1.107999 0.892001,-2 2,-2 v 0 h 0.163036 c 1.107999,0 2,0.892001 2,2 v 7.035929 c 0,0.235099 -0.04016,0.460473 -0.11402,0.669665" /><path
       id="path11870"
       style="fill:none;fill-opacity:0.941176;stroke:#ffffff;stroke-width:0.87723169;stroke-linecap:round;stroke-linejoin:round;stroke-dasharray:none;stroke-opacity:1;stop-color:#000000"
       d="m 21.359292,19.719391 3.931805,10e-7" /></g></svg>
