<?xml version="1.0" encoding="UTF-8" standalone="no"?>
<!-- Created with Inkscape (http://www.inkscape.org/) -->

<svg
   width="48"
   height="48"
   viewBox="0 0 48 48"
   version="1.1"
   id="svg990"
   inkscape:version="1.2.1 (9c6d41e, 2022-07-14)"
   xml:space="preserve"
   sodipodi:docname="dukto.svg"
   xmlns:inkscape="http://www.inkscape.org/namespaces/inkscape"
   xmlns:sodipodi="http://sodipodi.sourceforge.net/DTD/sodipodi-0.dtd"
   xmlns="http://www.w3.org/2000/svg"
   xmlns:svg="http://www.w3.org/2000/svg"><sodipodi:namedview
     id="namedview992"
     pagecolor="#858585"
     bordercolor="#000000"
     borderopacity="0.25"
     inkscape:showpageshadow="2"
     inkscape:pageopacity="0"
     inkscape:pagecheckerboard="0"
     inkscape:deskcolor="#d1d1d1"
     inkscape:document-units="px"
     showgrid="false"
     inkscape:zoom="8.072484"
     inkscape:cx="28.182156"
     inkscape:cy="18.457763"
     inkscape:window-width="1366"
     inkscape:window-height="737"
     inkscape:window-x="0"
     inkscape:window-y="0"
     inkscape:window-maximized="1"
     inkscape:current-layer="svg990" /><defs
     id="defs987"><style
       id="style1174">.a{fill:none;stroke:#fff;stroke-linecap:round;stroke-linejoin:round;}</style></defs><g
     inkscape:groupmode="layer"
     id="layer2"
     inkscape:label="Layer 2"
     style="stroke:#ffffff;stroke-width:0.562665;stroke-linecap:round;stroke-linejoin:round;stroke-dasharray:none;stroke-opacity:1"
     transform="matrix(1.7772561,0,0,1.7772561,-17.820956,-18.220707)"><path
       id="rect3089"
       style="fill:none;stroke:#ffffff;stroke-width:0.562665;stroke-linecap:round;stroke-linejoin:round;stroke-dasharray:none;stroke-opacity:1;stop-color:#000000"
       d="m 21.105239,12.969605 h 4.851908 c 3.429106,0 6.189722,0.437691 6.189722,0.981371 v 8.11023 c 0,0.54368 -2.760616,0.98137 -6.189722,0.98137 h -4.851908 c -3.429105,0 -6.189722,-0.43769 -6.189722,-0.98137 v -8.11023 c 0,-0.54368 2.760617,-0.981371 6.189722,-0.981371 z" /><path
       id="path4364"
       style="fill:none;stroke:#ffffff;stroke-width:0.562665;stroke-linecap:round;stroke-linejoin:round;stroke-dasharray:none;stroke-opacity:1;stop-color:#000000"
       d="m 29.056813,23.324921 c 0.0012,0.0089 0.0019,0.0178 0.0019,0.02675 v 10.192808 c 0,0.552977 -2.48431,0.998153 -5.570199,0.998153 -3.085888,0 -5.570198,-0.445176 -5.570198,-0.998153 v -10.19281 c 0,-0.0089 6.5e-4,-0.01786 0.0019,-0.02674" /></g></svg>
