<?xml version="1.0" encoding="UTF-8" standalone="no"?>
<!-- Created with Inkscape (http://www.inkscape.org/) -->

<svg
   width="48"
   height="48"
   viewBox="0 0 48 48"
   version="1.1"
   id="svg990"
   inkscape:version="1.2.1 (9c6d41e, 2022-07-14)"
   xml:space="preserve"
   sodipodi:docname="hi_app.svg"
   xmlns:inkscape="http://www.inkscape.org/namespaces/inkscape"
   xmlns:sodipodi="http://sodipodi.sourceforge.net/DTD/sodipodi-0.dtd"
   xmlns="http://www.w3.org/2000/svg"
   xmlns:svg="http://www.w3.org/2000/svg"><sodipodi:namedview
     id="namedview992"
     pagecolor="#858585"
     bordercolor="#000000"
     borderopacity="0.25"
     inkscape:showpageshadow="2"
     inkscape:pageopacity="0"
     inkscape:pagecheckerboard="0"
     inkscape:deskcolor="#d1d1d1"
     inkscape:document-units="px"
     showgrid="false"
     showguides="false"
     inkscape:zoom="11"
     inkscape:cx="15.590909"
     inkscape:cy="24"
     inkscape:window-width="1366"
     inkscape:window-height="737"
     inkscape:window-x="0"
     inkscape:window-y="0"
     inkscape:window-maximized="1"
     inkscape:current-layer="layer2" /><defs
     id="defs987"><style
       id="style1174">.a{fill:none;stroke:#fff;stroke-linecap:round;stroke-linejoin:round;}</style></defs><g
     inkscape:groupmode="layer"
     id="layer2"
     inkscape:label="Layer 2"
     transform="matrix(1.109526,0,0,1.109526,4.4087171,-2.1346883)"
     style="stroke-width:0.90128577;stroke-dasharray:none"><path
       id="rect1621"
       style="display:inline;fill:none;fill-opacity:0.941176;stroke:#ffffff;stroke-width:0.90128577;stroke-linecap:round;stroke-linejoin:round;stroke-opacity:1;stop-color:#000000;stroke-dasharray:none"
       transform="rotate(-0.00381167)"
       d="M 13.932103,6.7300503 C 8.5913595,7.5894422 4.5494084,11.980249 4.5494084,17.299727 c 0,5.940061 5.0400515,10.722132 11.3005636,10.722132 h 3.612444 c 6.260513,0 11.300564,-4.782071 11.300564,-10.722132 0,-3.633621 -1.88596,-6.833928 -4.772241,-8.7992411 M 24.360203,7.5733046 C 23.299074,7.0779345 22.146091,6.732714 20.933123,6.5664895 21.276185,3.9544265 12.085645,2.6810874 14.698882,8.340209 c 1.314522,2.846674 9.892855,4.548745 12.413616,-2.179775 -3.805034,3.3159804 -8.1061,2.9182064 -9.195262,0.7792734"
       sodipodi:nodetypes="csssscccscc" /><path
       style="fill:none;fill-opacity:0.941176;stroke:#ffffff;stroke-linecap:round;stroke-linejoin:round;stroke-opacity:1;stop-color:#000000;stroke-width:0.90128577;stroke-dasharray:none"
       d="m 21.682,20.716517 c -0.62634,4.198475 -6.302029,3.172973 -6.913726,0.390729 2.947055,0.471364 4.615019,0.406868 6.913726,-0.390729 z"
       id="path2667"
       sodipodi:nodetypes="ccc" /><path
       id="path2721"
       style="fill:none;fill-opacity:0.941176;stroke:#ffffff;stroke-linecap:round;stroke-linejoin:round;stroke-opacity:1;stop-color:#000000;stroke-width:0.90128577;stroke-dasharray:none"
       d="m 25.54818,18.504642 a 1.1955663,1.532461 0 0 1 -1.195567,1.532462 1.1955663,1.532461 0 0 1 -1.195566,-1.532462 1.1955663,1.532461 0 0 1 1.195566,-1.532461 1.1955663,1.532461 0 0 1 1.195567,1.532461 z" /><path
       id="path2721-6"
       style="fill:none;fill-opacity:0.941176;stroke:#ffffff;stroke-linecap:round;stroke-linejoin:round;stroke-opacity:1;stop-color:#000000;stroke-width:0.90128577;stroke-dasharray:none"
       d="M 13.691133,18.604461 A 1.1955663,1.532461 0 0 1 12.495566,20.136923 1.1955663,1.532461 0 0 1 11.3,18.604461 1.1955663,1.532461 0 0 1 12.495566,17.072 a 1.1955663,1.532461 0 0 1 1.195567,1.532461 z" /><path
       style="fill:none;fill-opacity:0.941176;stroke:#ffffff;stroke-linecap:round;stroke-linejoin:round;stroke-opacity:1;stop-color:#000000;stroke-width:0.90128577;stroke-dasharray:none"
       d="m 22.347,27.729 c 2.565565,1.715848 2.399379,5.115997 2.513848,8.203423 -2.748369,2.482345 -6.914358,2.481949 -10.865128,0.944729 l 0.956417,-2.549959"
       id="path2780"
       sodipodi:nodetypes="cccc" /><path
       style="display:inline;fill:none;fill-opacity:0.941176;stroke:#ffffff;stroke-linecap:round;stroke-linejoin:round;stroke-opacity:1;stop-color:#000000;stroke-width:0.90128577;stroke-dasharray:none"
       d="m 16.011105,30.700736 c 2.779291,-1.167351 5.793833,0.42212 3.950382,2.36166 -1.467597,1.544094 -4.878245,1.562964 -6.572844,0.619216 -1.902758,-1.059675 0.687155,-5.039814 2.622462,-2.980876 z"
       id="path2782"
       sodipodi:nodetypes="cssc" /><path
       style="fill:none;fill-opacity:0.941176;stroke:#ffffff;stroke-linecap:round;stroke-linejoin:round;stroke-opacity:1;stop-color:#000000;stroke-width:0.90128577;stroke-dasharray:none"
       d="m 13.692898,27.886334 c -1.027816,1.260257 -1.02116,3.636083 -0.94133,4.435264"
       id="path2784"
       sodipodi:nodetypes="cc" /><path
       style="fill:none;fill-opacity:0.941176;stroke:#ffffff;stroke-linecap:round;stroke-linejoin:round;stroke-opacity:1;stop-color:#000000;stroke-width:0.90128577;stroke-dasharray:none"
       d="m 24.180914,29.631857 c 1.664033,-0.75314 3.37583,-1.143927 4.991173,-2.266452 0.406632,-0.282574 1.257615,-1.328634 0.69837,-2.477558 C 29.471004,24.067204 28.871586,24.185245 28.274,24.239"
       id="path2786"
       sodipodi:nodetypes="cssc" /><path
       style="fill:none;fill-opacity:0.941176;stroke:#ffffff;stroke-linecap:round;stroke-linejoin:round;stroke-opacity:1;stop-color:#000000;stroke-width:0.90128577;stroke-dasharray:none"
       d="m 25.803385,26.240118 c 0.245352,0.392116 0.748073,1.30401 0.327478,2.263639"
       id="path2788"
       sodipodi:nodetypes="cc" /><path
       style="fill:none;fill-opacity:0.941176;stroke:#ffffff;stroke-linecap:round;stroke-linejoin:round;stroke-opacity:1;stop-color:#000000;stroke-width:0.90128577;stroke-dasharray:none"
       d="m 14.469121,37.123971 c 0.229671,0.170498 -0.92867,4.006375 -0.816196,4.733091 1.466103,1.001793 3.209373,1.030131 5.025582,0.802298 0.351031,-1.245387 0.751378,-2.629181 1.755723,-3.629665"
       id="path2790"
       sodipodi:nodetypes="cccc" /><path
       style="fill:none;fill-opacity:0.941176;stroke:#ffffff;stroke-linecap:round;stroke-linejoin:round;stroke-opacity:1;stop-color:#000000;stroke-width:0.90128577;stroke-dasharray:none"
       d="m 19.901758,39.924317 0.07968,1.989407 c 0.637653,0.877157 3.179828,0.578075 4.476145,-0.514492 -0.157957,-1.491933 -0.255526,-3.064165 -0.204567,-4.772134"
       id="path2792"
       sodipodi:nodetypes="cccc" /></g></svg>
