<?xml version="1.0" encoding="UTF-8" standalone="no"?>
<!-- Created with Inkscape (http://www.inkscape.org/) -->

<svg
   width="48"
   height="48"
   viewBox="0 0 48 48"
   version="1.1"
   id="svg990"
   inkscape:version="1.2.1 (9c6d41e, 2022-07-14)"
   xml:space="preserve"
   sodipodi:docname="haffazulmutoon.svg"
   xmlns:inkscape="http://www.inkscape.org/namespaces/inkscape"
   xmlns:sodipodi="http://sodipodi.sourceforge.net/DTD/sodipodi-0.dtd"
   xmlns="http://www.w3.org/2000/svg"
   xmlns:svg="http://www.w3.org/2000/svg"><sodipodi:namedview
     id="namedview992"
     pagecolor="#858585"
     bordercolor="#000000"
     borderopacity="0.25"
     inkscape:showpageshadow="2"
     inkscape:pageopacity="0"
     inkscape:pagecheckerboard="0"
     inkscape:deskcolor="#d1d1d1"
     inkscape:document-units="px"
     showgrid="false"
     inkscape:zoom="11"
     inkscape:cx="23.681818"
     inkscape:cy="24"
     inkscape:window-width="1366"
     inkscape:window-height="737"
     inkscape:window-x="0"
     inkscape:window-y="0"
     inkscape:window-maximized="1"
     inkscape:current-layer="svg990" /><defs
     id="defs987"><style
       id="style1174">.a{fill:none;stroke:#fff;stroke-linecap:round;stroke-linejoin:round;}</style></defs><g
     inkscape:groupmode="layer"
     id="layer2"
     inkscape:label="Layer 2"
     transform="matrix(1.207185,0,0,1.207185,-5.1399402,-5.1580024)"><path
       style="fill:none;fill-opacity:0.941176;stroke:#ffffff;stroke-width:0.828373;stroke-linecap:round;stroke-linejoin:round;stroke-dasharray:none;stroke-opacity:1;stop-color:#000000"
       d="m 11.074105,35.2166 c -3.0075845,-4.78156 -2.9011385,-13.601445 0.50131,-14.932649 -0.648363,-4.081662 4.117177,-6.241468 5.922429,-6.345974 0.687428,-2.446758 2.362838,-3.286628 3.937668,-4.2954369 1.358389,-0.8701609 2.125006,-1.9295085 2.703241,-2.8951668 0.578234,0.9656583 1.344851,2.0250059 2.70324,2.8951668 1.57483,1.0088089 3.25024,1.8486789 3.937668,4.2954369 1.805252,0.104506 6.570792,2.264312 5.922429,6.345974 3.402449,1.331204 3.508895,10.151089 0.50131,14.932649 -2.53881,4.036286 -7.166066,6.588149 -13.064648,6.324948 C 18.240171,41.804749 13.612915,39.252886 11.074105,35.2166 Z"
       id="path3018"
       sodipodi:nodetypes="sccscsccscs" /></g></svg>
