<?xml version="1.0" encoding="UTF-8" standalone="no"?>
<!-- Created with Inkscape (http://www.inkscape.org/) -->

<svg
   width="48"
   height="48"
   viewBox="0 0 48 48"
   version="1.1"
   id="svg990"
   inkscape:version="1.2.1 (9c6d41e, 2022-07-14)"
   xml:space="preserve"
   sodipodi:docname="idle_egg_factory.svg"
   xmlns:inkscape="http://www.inkscape.org/namespaces/inkscape"
   xmlns:sodipodi="http://sodipodi.sourceforge.net/DTD/sodipodi-0.dtd"
   xmlns="http://www.w3.org/2000/svg"
   xmlns:svg="http://www.w3.org/2000/svg"><sodipodi:namedview
     id="namedview992"
     pagecolor="#858585"
     bordercolor="#000000"
     borderopacity="0.25"
     inkscape:showpageshadow="2"
     inkscape:pageopacity="0"
     inkscape:pagecheckerboard="0"
     inkscape:deskcolor="#d1d1d1"
     inkscape:document-units="px"
     showgrid="false"
     inkscape:zoom="15.556349"
     inkscape:cx="22.852406"
     inkscape:cy="23.784501"
     inkscape:window-width="1366"
     inkscape:window-height="737"
     inkscape:window-x="0"
     inkscape:window-y="0"
     inkscape:window-maximized="1"
     inkscape:current-layer="layer4" /><defs
     id="defs987"><style
       id="style1174">.a{fill:none;stroke:#fff;stroke-linecap:round;stroke-linejoin:round;}</style></defs><g
     inkscape:groupmode="layer"
     id="layer4"
     inkscape:label="eggs"
     transform="matrix(0.95185789,0,0,0.95185789,-1.3841724,-7.1714027)"><path
       style="display:inline;fill:none;stroke:#ffffff;stroke-width:1.05057699;stroke-linecap:round;stroke-linejoin:round;stroke-dasharray:none;stroke-opacity:1;stop-color:#000000"
       d="m 12.731649,29.34866 -7.5681413,1.382265 6.9950443,13.504628 8.882877,-3.028328 m 0.06072,-1.066801 -7.266283,-10.579228 M 32.087821,21.766482 13.835866,29.561196 12.731649,29.34866 9.6519722,23.812508 28.864533,16.573623 31.991741,21.11466 m 8.555345,8.197262 -8.459265,-7.54544 -0.09608,-0.651822 5.576858,-3.793131 10.298746,7.459329 -6.043904,4.652534 m -1.276355,-0.12147 1.276355,0.12147 6.349134,3.055513 -22.4537,14.145722 -4.677446,-5.427402 m 0,0 0.06072,-1.066801 19.444937,-10.828502"
       id="path332"
       sodipodi:nodetypes="cccccccccccccccccccccc" /><path
       id="path510"
       style="display:inline;fill:none;stroke:#ffffff;stroke-width:1.05057699;stroke-linecap:round;stroke-linejoin:round;stroke-dasharray:none;stroke-opacity:1;stop-color:#000000"
       d="m 17.261917,42.894053 3.848296,6.027085" /><path
       id="path535"
       style="display:inline;fill:none;stroke:#ffffff;stroke-width:1.05057699;stroke-linecap:round;stroke-linejoin:round;stroke-dasharray:none;stroke-opacity:1;stop-color:#000000"
       d="m 25.19394,46.371022 -4.084931,2.5513 -0.214415,-7.305158" /><path
       style="fill:none;stroke:#ffffff;stroke-width:1.05057699;stroke-linecap:round;stroke-linejoin:round;stroke-dasharray:none;stroke-opacity:1;stop-color:#000000"
       d="m 25.227325,35.201879 c -0.0558,1.044189 -1.031156,2.358255 -2.252809,2.312004 -1.221653,0.04625 -2.197009,-1.267815 -2.252809,-2.312004 -0.131465,-2.460239 1.381552,-3.159688 2.252809,-3.159688 0.871257,0 2.384274,0.699449 2.252809,3.159688 z"
       id="path329"
       sodipodi:nodetypes="scsss" /><path
       id="path573"
       style="fill:none;stroke:#ffffff;stroke-width:1.05057699;stroke-linecap:round;stroke-linejoin:round;stroke-dasharray:none;stroke-opacity:1;stop-color:#000000"
       d="m 30.957282,33.18026 2.42e-4,-0.0019 c 0.225819,-1.753472 1.467821,-2.281824 2.225048,-2.281824 0.612375,0 1.541798,0.345546 1.994407,1.405161" /><path
       id="path669"
       style="fill:none;stroke:#ffffff;stroke-width:1.05057699;stroke-linecap:round;stroke-linejoin:round;stroke-dasharray:none;stroke-opacity:1;stop-color:#000000"
       d="m 34.123606,31.136362 c 0.387716,-1.315284 1.439706,-1.730353 2.11086,-1.730353 0.578587,0 1.440206,0.30847 1.915271,1.236235" /><path
       style="fill:none;stroke:#ffffff;stroke-width:1.05057699;stroke-linecap:round;stroke-linejoin:round;stroke-dasharray:none;stroke-opacity:1;stop-color:#000000"
       d="m 29.019809,33.53796 c -0.410476,0.870168 -1.724576,1.662675 -2.784997,1.214944 -1.092429,-0.368995 -1.497146,-1.813568 -1.185002,-2.721039 0.735451,-2.138115 2.310627,-2.227732 3.078311,-1.936497 0.767684,0.291236 1.858814,1.392369 0.891688,3.442592 z"
       id="path329-3"
       sodipodi:nodetypes="scsss" /><path
       style="fill:none;stroke:#ffffff;stroke-width:1.05057699;stroke-linecap:round;stroke-linejoin:round;stroke-dasharray:none;stroke-opacity:1;stop-color:#000000"
       d="m 29.738245,26.677802 c 0.675111,0.596376 1.040407,1.957976 0.355525,2.758009 -0.622433,0.849526 -2.031477,0.804918 -2.7663,0.283887 -1.731334,-1.227618 -1.394,-2.623355 -0.927826,-3.21157 0.466175,-0.588215 1.747951,-1.235458 3.338601,0.169674 z"
       id="path329-6"
       sodipodi:nodetypes="scsss" /><path
       id="path590"
       style="font-variation-settings:normal;fill:none;fill-opacity:1;stroke:#ffffff;stroke-width:1.05057699;stroke-linecap:round;stroke-linejoin:round;stroke-miterlimit:4;stroke-dasharray:none;stroke-dashoffset:0;stroke-opacity:1;stop-color:#000000"
       d="m 19.766101,38.195836 c 0.490733,-0.743637 1.250769,-0.998639 1.776834,-0.998639 0.639985,0 1.626246,0.377403 2.052643,1.55286" /><path
       style="font-variation-settings:normal;fill:none;fill-opacity:1;stroke:#ffffff;stroke-width:1.05057699;stroke-linecap:round;stroke-linejoin:round;stroke-miterlimit:4;stroke-dasharray:none;stroke-dashoffset:0;stroke-opacity:1;stop-color:#000000"
       d="m 26.778065,35.027581 c 0.72376,0.53374 0.645087,0.764549 0.914604,1.254059"
       id="path593"
       sodipodi:nodetypes="cc" /><path
       style="font-variation-settings:normal;fill:none;fill-opacity:1;stroke:#ffffff;stroke-width:1.05057699;stroke-linecap:round;stroke-linejoin:round;stroke-miterlimit:4;stroke-dasharray:none;stroke-dashoffset:0;stroke-opacity:1;stop-color:#000000"
       d="m 29.474661,32.739481 c 1.083393,-0.175618 1.925589,0.734083 2.057562,1.23825"
       id="path595"
       sodipodi:nodetypes="cc" /><path
       id="path755"
       style="fill:none;stroke:#ffffff;stroke-width:1.05057699;stroke-linecap:round;stroke-linejoin:round;stroke-dasharray:none;stroke-opacity:1;stop-color:#000000"
       d="m 30.709839,28.537718 c 0.770248,0 2.042078,0.546672 2.235786,2.373354" /><path
       id="path329-6-7"
       style="fill:none;stroke:#ffffff;stroke-width:1.05057699;stroke-linecap:round;stroke-linejoin:round;stroke-dasharray:none;stroke-opacity:1;stop-color:#000000"
       d="m 31.940546,28.913501 c 0.22247,-1.513111 1.304267,-1.948018 1.957667,-1.934707 0.716323,0.01459 1.925149,0.588415 1.897372,2.481738"
       sodipodi:nodetypes="csc" /><path
       id="path329-6-7-9"
       style="fill:none;stroke:#ffffff;stroke-width:1.05057699;stroke-linecap:round;stroke-linejoin:round;stroke-dasharray:none;stroke-opacity:1;stop-color:#000000"
       d="m 29.786,26.58 c 0.22247,-1.513111 1.204363,-1.848088 1.857763,-1.83478 0.676869,0.01379 1.793482,0.5269 1.890996,2.180774"
       sodipodi:nodetypes="csc" /><path
       style="fill:none;stroke:#ffffff;stroke-width:1.05057699;stroke-linecap:round;stroke-linejoin:round;stroke-dasharray:none;stroke-opacity:1;stop-color:#000000"
       d="M 20.348618,34.477891 C 18.018759,34.128172 17.257,31.448985 18.5782,30.243596 c 1.783525,-1.62719 3.93665,0.568101 3.841304,1.734295"
       id="path975"
       sodipodi:nodetypes="csc" /><path
       style="fill:none;stroke:#ffffff;stroke-width:1.05057699;stroke-linecap:round;stroke-linejoin:round;stroke-dasharray:none;stroke-opacity:1;stop-color:#000000"
       d="m 18.823801,33.889817 c -0.489998,0.168784 -0.776898,0.526313 -0.913749,1.047794"
       id="path977"
       sodipodi:nodetypes="cc" /><path
       style="fill:none;stroke:#ffffff;stroke-width:1.05057699;stroke-linecap:round;stroke-linejoin:round;stroke-dasharray:none;stroke-opacity:1;stop-color:#000000"
       d="m 15.859201,32.391502 c 0.383689,-0.589839 1.28902,-1.073299 1.971791,-1.097927"
       id="path979"
       sodipodi:nodetypes="cc" /><path
       style="fill:none;stroke:#ffffff;stroke-width:1.05057699;stroke-linecap:round;stroke-linejoin:round;stroke-dasharray:none;stroke-opacity:1;stop-color:#000000"
       d="m 22.383231,31.623335 c -0.375762,-2.062713 1.679447,-4.771568 4.157026,-2.133064"
       id="path983"
       sodipodi:nodetypes="cc" /></g></svg>
