<?xml version="1.0" encoding="UTF-8" standalone="no"?>
<!-- Created with Inkscape (http://www.inkscape.org/) -->

<svg
   width="48"
   height="48"
   viewBox="0 0 48 48"
   version="1.1"
   id="svg990"
   inkscape:version="1.2.1 (9c6d41e, 2022-07-14)"
   xml:space="preserve"
   sodipodi:docname="jagran_sarkari_naukri.svg"
   xmlns:inkscape="http://www.inkscape.org/namespaces/inkscape"
   xmlns:sodipodi="http://sodipodi.sourceforge.net/DTD/sodipodi-0.dtd"
   xmlns="http://www.w3.org/2000/svg"
   xmlns:svg="http://www.w3.org/2000/svg"><sodipodi:namedview
     id="namedview992"
     pagecolor="#858585"
     bordercolor="#000000"
     borderopacity="0.25"
     inkscape:showpageshadow="2"
     inkscape:pageopacity="0"
     inkscape:pagecheckerboard="0"
     inkscape:deskcolor="#d1d1d1"
     inkscape:document-units="px"
     showgrid="false"
     inkscape:zoom="11.313708"
     inkscape:cx="35.045981"
     inkscape:cy="39.244428"
     inkscape:window-width="1366"
     inkscape:window-height="737"
     inkscape:window-x="0"
     inkscape:window-y="0"
     inkscape:window-maximized="1"
     inkscape:current-layer="layer2" /><defs
     id="defs987"><style
   id="style1174">.a{fill:none;stroke:#fff;stroke-linecap:round;stroke-linejoin:round;}</style>
		
	</defs><g
     inkscape:groupmode="layer"
     id="layer2"
     inkscape:label="Layer 2"
     transform="matrix(1.1368625,0,0,1.1368625,-3.385766,5.2264062)"
     style="stroke:#ffffff;stroke-opacity:1;stroke-width:0.87961385;stroke-dasharray:none"><path
       d="m 39.308636,18.43996 c 0.950562,1.89818 1.571404,3.814634 1.787429,5.987867 M 32.047939,25.217 H 7.0218328 m 0,0 C 7.2213472,15.569564 15.104309,7.8100268 24.799553,7.8100262 c 6.962411,-4e-7 12.990218,4.0015138 15.909083,9.8302048 l -8.462112,4.215106"
       style="fill:none;fill-opacity:0.941176;stroke:#ffffff;stroke-width:0.87961385;stroke-linecap:round;stroke-linejoin:round;stroke-dasharray:none;stroke-opacity:1;stop-color:#000000"
       id="path2210"
       sodipodi:nodetypes="cccccscc" /><path
       d="M 8.8204074,25.14 C 8.9997989,16.465595 16.087693,9.588338 24.805085,9.588338 c 4.005386,0 7.666764,1.472875 10.472067,3.906561 l -5.072604,5.774577"
       style="fill:none;fill-opacity:0.941176;stroke:#ffffff;stroke-width:0.87961385;stroke-linecap:round;stroke-linejoin:round;stroke-opacity:1;stop-color:#000000;stroke-dasharray:none"
       id="path2336"
       sodipodi:nodetypes="csc" /><path
       id="path2351"
       style="fill:none;fill-opacity:0.941176;stroke:#ffffff;stroke-linecap:round;stroke-linejoin:round;stroke-opacity:1;stop-color:#000000;stroke-width:0.87961385;stroke-dasharray:none"
       d="m 13.600001,25.070816 c -0.01052,-0.199038 -0.01585,-0.399453 -0.01585,-0.601113 10e-7,-6.188211 5.016537,-11.204748 11.204748,-11.204748 1.166893,0 2.292124,0.178376 3.349913,0.509347 L 27.112,17.286"
       sodipodi:nodetypes="ccscc" /><path
       id="path2354"
       style="fill:none;fill-opacity:0.941176;stroke:#ffffff;stroke-width:0.87961385;stroke-linecap:round;stroke-linejoin:round;stroke-dasharray:none;stroke-opacity:1;stop-color:#000000"
       d="m 16.835269,25.07189 c 0,-4.396528 3.56409,-7.960618 7.960618,-7.960618 2.116839,0 4.040699,0.826237 5.466681,2.173809 0.798333,0.754435 1.440616,1.672273 1.873346,2.70001 0.331692,0.787771 0.540265,1.640112 0.601623,2.532929"
       sodipodi:nodetypes="csssc" /><path
       id="circle2644"
       style="fill:none;stroke-width:1;stroke-linecap:round;stroke-linejoin:round;stroke-dasharray:none"
       class="a"
       transform="matrix(0.87961385,0,0,0.87961385,2.9781667,-4.5972193)"
       d="m 45.5,38.5 a 7,7 0 0 1 -7,7 7,7 0 0 1 -7,-7 7,7 0 0 1 7,-7 7,7 0 0 1 7,7 z" /><path
       class="st5"
       d="m 34.600284,31.994717 c 0.439807,0.527768 0.967575,0.791652 1.759228,0.791652 h 1.055536 c 0.967576,0 1.759228,-0.791652 1.759228,-1.759227 v 0 c 0,-0.967575 -0.791652,-1.759228 -1.759228,-1.759228 H 36.27155 c -0.967575,0 -1.759227,-0.791652 -1.759227,-1.759228 v 0 c 0,-0.967575 0.791652,-1.759227 1.759227,-1.759227 h 1.055537 c 0.791652,0 1.319421,0.175922 1.759228,0.791652"
       id="path7159"
       style="fill:none;stroke:#ffffff;stroke-width:0.87961385;stroke-linecap:round;stroke-linejoin:round;stroke-miterlimit:10;stroke-dasharray:none" /></g></svg>
