<?xml version="1.0" encoding="UTF-8" standalone="no"?>
<!-- Created with Inkscape (http://www.inkscape.org/) -->

<svg
   width="48"
   height="48"
   viewBox="0 0 48 48"
   version="1.1"
   id="svg990"
   inkscape:version="1.2.1 (9c6d41e, 2022-07-14)"
   xml:space="preserve"
   sodipodi:docname="mykid.svg"
   xmlns:inkscape="http://www.inkscape.org/namespaces/inkscape"
   xmlns:sodipodi="http://sodipodi.sourceforge.net/DTD/sodipodi-0.dtd"
   xmlns="http://www.w3.org/2000/svg"
   xmlns:svg="http://www.w3.org/2000/svg"><sodipodi:namedview
     id="namedview992"
     pagecolor="#858585"
     bordercolor="#000000"
     borderopacity="0.25"
     inkscape:showpageshadow="2"
     inkscape:pageopacity="0"
     inkscape:pagecheckerboard="0"
     inkscape:deskcolor="#d1d1d1"
     inkscape:document-units="px"
     showgrid="false"
     inkscape:zoom="11"
     inkscape:cx="15.863636"
     inkscape:cy="24"
     inkscape:window-width="1366"
     inkscape:window-height="737"
     inkscape:window-x="0"
     inkscape:window-y="0"
     inkscape:window-maximized="1"
     inkscape:current-layer="layer2" /><defs
     id="defs987"><style
   id="style1174">.a{fill:none;stroke:#fff;stroke-linecap:round;stroke-linejoin:round;}</style>
		
		
	
			
			
		</defs><g
     inkscape:groupmode="layer"
     id="layer2"
     inkscape:label="Layer 2"
     transform="matrix(1.0805394,0,0,1.0805394,-1.6300031,-1.4844695)"><line
       class="st5"
       x1="24.511435"
       y1="30.075874"
       x2="24.511435"
       y2="39.346989"
       id="line6250"
       style="fill:none;stroke:#ffffff;stroke-width:0.925464;stroke-linecap:round;stroke-linejoin:round;stroke-miterlimit:10;stroke-dasharray:none;stroke-opacity:1" /><path
       class="st5"
       d="m 28.059798,39.305803 v -9.271112 h 2.086 c 2.201889,0 4.056112,1.854222 4.056112,4.056111 v 1.158889 c 0,2.201889 -1.854223,4.056112 -4.056112,4.056112 z"
       id="path6640"
       style="fill:none;stroke:#ffffff;stroke-width:0.925464;stroke-linecap:round;stroke-linejoin:round;stroke-miterlimit:10;stroke-dasharray:none;stroke-opacity:1" /><line
       class="st5"
       x1="16.675917"
       y1="30.03528"
       x2="16.675917"
       y2="39.30584"
       id="line7575"
       style="fill:none;stroke:#ffffff;stroke-width:0.925464;stroke-linecap:round;stroke-linejoin:round;stroke-miterlimit:10;stroke-dasharray:none;stroke-opacity:1" /><line
       class="st5"
       x1="16.675917"
       y1="36.061142"
       x2="21.548201"
       y2="30.03528"
       id="line7577"
       style="fill:none;stroke:#ffffff;stroke-width:0.925464;stroke-linecap:round;stroke-linejoin:round;stroke-miterlimit:10;stroke-dasharray:none;stroke-opacity:1" /><line
       class="st5"
       x1="21.548201"
       y1="39.30584"
       x2="17.835981"
       y2="34.670559"
       id="line7581"
       style="fill:none;stroke:#ffffff;stroke-width:0.925464;stroke-linecap:round;stroke-linejoin:round;stroke-miterlimit:10;stroke-dasharray:none;stroke-opacity:1" /><path
       style="fill:none;fill-opacity:0.941176;stroke:#ffffff;stroke-linecap:round;stroke-linejoin:round;stroke-opacity:1;stop-color:#000000;stroke-width:0.92546371;stroke-dasharray:none"
       d="m 41.280674,14.76139 c 1.732581,0.785628 -0.192134,6.426813 -3.860623,4.616849 l -0.870602,2.185487 c 0.261726,2.18695 1.818029,4.569229 0.156763,6.512363 -2.417455,2.827626 -4.719128,0.720617 -2.522121,-3.576579 l -2.436725,-3.464523 c -3.196028,5.460532 -7.768297,9.296809 -8.106316,-3.453368 l -1.718083,3.881852 c -0.226572,1.7937 0.549352,3.791318 -0.867666,5.472488 -1.007836,1.19571 -6.096249,2.42458 -2.746582,-3.356076 l -1.928104,-4.379437 c -3.604412,25.993141 -17.21881759,7.036012 -7.3288221,5.603171 0.1312287,8.511276 4.0350701,3.845216 5.1626671,-6.558529 0.222524,-2.053109 -0.157469,-3.106989 -0.54663,-4.187443 -1.285393,-4.2542545 2.816188,-6.9360602 4.861574,-5.1013802 0.361075,0.3238791 0.747516,0.2216519 -0.852323,3.7664352 l 3.301062,6.468693 2.366307,-5.91196 c 0.284014,-5.4613175 3.308531,-5.9827286 4.468785,-5.2031714 1.327001,0.8915918 -0.651618,3.0252024 -1.421207,4.6734814 1.320245,7.226219 0.544265,13.215805 4.368561,6.03752 -2.176486,-3.477012 -0.920394,-5.239432 0.849742,-6.242502 1.520514,-0.861618 2.472286,-0.06061 2.121508,0.899806 -0.855935,2.343509 0.144839,3.676134 1.035864,5.193971 0.658873,1.122372 1.124175,-0.05707 1.088218,-1.366033 -0.629343,-2.966999 -0.936107,-5.535512 0.647529,-5.768795 3.649071,1.440113 1.546416,4.263617 1.763714,5.406427 0.414719,2.181085 2.123939,-0.475049 3.01351,-2.148747 z"
       id="path7889"
       sodipodi:nodetypes="cccsccccscccscscccsccsssccsc" /></g></svg>
