<?xml version="1.0" encoding="UTF-8" standalone="no"?>
<!-- Created with Inkscape (http://www.inkscape.org/) -->

<svg
   width="48"
   height="48"
   viewBox="0 0 48 48"
   version="1.1"
   id="svg990"
   inkscape:version="1.2.1 (9c6d41e, 2022-07-14)"
   xml:space="preserve"
   sodipodi:docname="rucoy_online.svg"
   xmlns:inkscape="http://www.inkscape.org/namespaces/inkscape"
   xmlns:sodipodi="http://sodipodi.sourceforge.net/DTD/sodipodi-0.dtd"
   xmlns="http://www.w3.org/2000/svg"
   xmlns:svg="http://www.w3.org/2000/svg"><sodipodi:namedview
     id="namedview992"
     pagecolor="#858585"
     bordercolor="#000000"
     borderopacity="0.25"
     inkscape:showpageshadow="2"
     inkscape:pageopacity="0"
     inkscape:pagecheckerboard="0"
     inkscape:deskcolor="#d1d1d1"
     inkscape:document-units="px"
     showgrid="false"
     inkscape:zoom="11"
     inkscape:cx="23.954545"
     inkscape:cy="24"
     inkscape:window-width="1366"
     inkscape:window-height="737"
     inkscape:window-x="0"
     inkscape:window-y="0"
     inkscape:window-maximized="1"
     inkscape:current-layer="layer2" /><defs
     id="defs987"><style
       id="style1174">.a{fill:none;stroke:#fff;stroke-linecap:round;stroke-linejoin:round;}</style></defs><g
     inkscape:groupmode="layer"
     id="layer2"
     inkscape:label="Layer 2"
     style="display:inline"
     transform="matrix(0.87535678,0,0,0.87535678,2.4015401,1.9746692)"><path
       style="display:inline;fill:none;fill-opacity:1;stroke:#ffffff;stroke-linecap:round;stroke-linejoin:round;stroke-opacity:1;stop-color:#000000;stroke-width:1.14239133;stroke-dasharray:none"
       d="m 33.865229,14.4 h 2.429541 l 2.3e-4,11.450459 h 2.237819 v 5.832898 H 33.95269 v 2.564534 h -2.333406 v 2.14422 h 9.557261 V 38.646 H 45.626 l 1.7e-5,5.552 H 3.7217697 V 25.150459 h 1.9437908 v -11.25079 h 2.429541 V 8.5743254 H 13.19836 V 6.1250937 H 28.762 V 8.5743254 M 10.914829,27.081363 H 32.841 m 1.11169,4.601994 V 27.081363 L 32.841,27.081092 m -1.221716,9.311019 h -2.20516 L 29.414,38.646 l -16.830522,6.3e-5 v -2.149014 h -1.778074"
       id="path14196"
       sodipodi:nodetypes="cccccccccccccccccccccccccccccccccc" /><path
       style="display:inline;fill:none;fill-opacity:1;stroke:#ffffff;stroke-linecap:round;stroke-linejoin:round;stroke-opacity:1;stop-color:#000000;stroke-width:1.14239133;stroke-dasharray:none"
       d="M 10.641947,22.633179 H 5.8 M 27.972158,17.892 v 2.066287 h 3.286339 v 2.674892 h 4.841947 m -25.458497,0 v -2.674892 h 3.286339 v -2.066779 h 4.559413 v -2.347462 h 4.925046 V 17.892 h 2.336743 M 10.642,43.898 10.641947,22.633179 M 25.749488,17.892 h 2.22267 M 33.865229,14.4 33.865074,8.5743254 h -5.103258"
       id="path14272"
       sodipodi:nodetypes="ccccccccccccccccccccccc" /><path
       style="display:inline;fill:none;fill-opacity:1;stroke:#ffffff;stroke-linecap:round;stroke-linejoin:round;stroke-opacity:1;stop-color:#000000;stroke-width:1.14239133;stroke-dasharray:none"
       d="m 26.693,43.898 1.72e-4,-5.062"
       id="path14303"
       sodipodi:nodetypes="cc" /><path
       style="display:inline;fill:none;fill-opacity:1;stroke:#ffffff;stroke-linecap:round;stroke-linejoin:round;stroke-opacity:1;stop-color:#000000;stroke-width:1.14239133;stroke-dasharray:none"
       d="m 31.6245,44.0737 5e-4,-3.008502 h 9.345 l -5e-4,3.057102"
       id="path14328"
       sodipodi:nodetypes="cccc" /><path
       style="display:inline;fill:none;fill-opacity:1;stroke:#ffffff;stroke-linecap:round;stroke-linejoin:round;stroke-opacity:1;stop-color:#000000;stroke-width:1.14239133;stroke-dasharray:none"
       d="M 26.79565,27.504625 V 32.37711"
       id="path14330" /><path
       style="display:inline;fill:none;fill-opacity:1;stroke:#ffffff;stroke-linecap:round;stroke-linejoin:round;stroke-opacity:1;stop-color:#000000;stroke-width:1.14239133;stroke-dasharray:none"
       d="M 15.29565,27.504625 V 32.37711"
       id="path14330-6" /></g></svg>
