<?xml version="1.0" encoding="UTF-8" standalone="no"?>
<!-- Created with Inkscape (http://www.inkscape.org/) -->

<svg
   width="48"
   height="48"
   viewBox="0 0 48 48"
   version="1.1"
   id="svg990"
   inkscape:version="1.2.1 (9c6d41e, 2022-07-14)"
   xml:space="preserve"
   sodipodi:docname="spb.svg"
   xmlns:inkscape="http://www.inkscape.org/namespaces/inkscape"
   xmlns:sodipodi="http://sodipodi.sourceforge.net/DTD/sodipodi-0.dtd"
   xmlns="http://www.w3.org/2000/svg"
   xmlns:svg="http://www.w3.org/2000/svg"><sodipodi:namedview
     id="namedview992"
     pagecolor="#858585"
     bordercolor="#000000"
     borderopacity="0.25"
     inkscape:showpageshadow="2"
     inkscape:pageopacity="0"
     inkscape:pagecheckerboard="0"
     inkscape:deskcolor="#d1d1d1"
     inkscape:document-units="px"
     showgrid="false"
     inkscape:zoom="11"
     inkscape:cx="21.318182"
     inkscape:cy="24"
     inkscape:window-width="1366"
     inkscape:window-height="737"
     inkscape:window-x="0"
     inkscape:window-y="0"
     inkscape:window-maximized="1"
     inkscape:current-layer="layer2" /><defs
     id="defs987"><style
   id="style1174">.a{fill:none;stroke:#fff;stroke-linecap:round;stroke-linejoin:round;}</style>
		
		
		
	
		
	</defs><g
     inkscape:groupmode="layer"
     id="layer2"
     inkscape:label="Layer 2"
     transform="matrix(0.88971137,0,0,0.88971137,2.0033444,2.9241758)"
     style="stroke-width:1.12396;stroke-dasharray:none"><path
       style="fill:none;fill-opacity:0.941176;stroke:#ffffff;stroke-width:1.12396;stroke-linecap:round;stroke-linejoin:round;stroke-dasharray:none;stroke-opacity:1;stop-color:#000000"
       d="m 33.61047,14.281455 c -3.860285,0.126058 -8.542368,2.392294 -12.784211,5.838274 m -5.888451,-0.938411 c 2.026971,0.02185 4.034582,0.369951 5.888451,0.938411 l 8.715494,18.877486 C 22.575951,35.382236 16.472778,37.827251 12.28072,40.12285 10.109331,34.090033 7.5503368,28.189586 5.4580052,22.13012 4.6998812,24.01037 3.7888231,26.232689 2.7938008,27.743584 l 6.3875463,17.197838 c 5.1274839,-4.140703 14.2101709,-5.921776 16.4759129,-4.77816 1.418462,0.715958 2.500816,1.952948 5.057468,1.371725 1.260647,-0.542844 2.551348,-1.95231 3.831287,-3.008831 3.357182,-2.77118 9.497014,-3.587594 12.106958,-2.83544 L 43.97919,30.798895"
       id="path3660"
       sodipodi:nodetypes="cccccccccscscc" /><path
       style="fill:none;fill-opacity:0.941176;stroke:#ffffff;stroke-width:1.12396;stroke-linecap:round;stroke-linejoin:round;stroke-dasharray:none;stroke-opacity:1;stop-color:#000000"
       d="m 30.936096,17.359018 -1.924423,4.637642 0.105033,2.280984 6.237527,-2.465258 -4.418137,-4.453368 7.830571,-8.4993264 c 1.655075,-1.7964231 2.481794,-1.9993473 3.749241,-0.8965427 l 1.8502,1.6098569 c 0.814773,0.7089332 1.008886,1.9360062 0.06512,2.9063892 l -9.076995,9.332991"
       id="path5213"
       sodipodi:nodetypes="cccccssssc" /><path
       style="fill:none;fill-opacity:0.941176;stroke:#ffffff;stroke-width:1.12396;stroke-linecap:round;stroke-linejoin:round;stroke-dasharray:none;stroke-opacity:1;stop-color:#000000"
       d="m 29.42385,21.355786 1.827197,1.788664"
       id="path5215" /><path
       style="fill:none;fill-opacity:0.941176;stroke:#ffffff;stroke-width:1.12396;stroke-linecap:round;stroke-linejoin:round;stroke-dasharray:none;stroke-opacity:1;stop-color:#000000"
       d="m 29.541753,38.997215 c 1.542355,-3.056697 7.326636,-8.756356 16.069561,-8.452043 L 37.745,19.480948 m 7.034309,13.121571 C 42.577327,32.34424 34.049272,33.052818 29.541753,38.997215"
       id="path5217"
       sodipodi:nodetypes="ccccc" /><polyline
       class="st5"
       points="97.5,32.7 97.5,24.6 93.2,30 98.5,30   "
       id="polyline9543-5"
       style="fill:none;stroke:#ffffff;stroke-width:0.966821;stroke-linecap:round;stroke-linejoin:round;stroke-miterlimit:10;stroke-dasharray:none;stroke-opacity:1"
       transform="matrix(1.1257742,-0.33043553,0.12931848,1.1625314,-92.99096,11.032973)" /><path
       class="st5"
       d="m 25.375095,11.525883 c 0.429156,0.42586 0.822266,0.596204 2.014674,0.596204 h 0.255516 c 0.936891,0 1.850816,-0.766548 2.030944,-1.70344 v 0 C 29.856356,9.4817551 29.237186,8.7152071 28.300294,8.7152071"
       id="path10037-2"
       style="fill:none;stroke:#ffffff;stroke-width:1.12396;stroke-linecap:round;stroke-linejoin:round;stroke-miterlimit:10;stroke-dasharray:none;stroke-opacity:1" /><path
       class="st5"
       d="m 26.472235,5.8193592 c 0.592908,-0.4258599 1.136691,-0.5962039 2.243927,-0.5962039 h 0.255516 c 0.936892,0 1.556063,0.7665479 1.375935,1.7034399 v 0 c -0.180127,0.936892 -1.094052,1.7034399 -2.030944,1.7034399"
       id="path10039-9"
       style="fill:none;stroke:#ffffff;stroke-width:1.12396;stroke-linecap:round;stroke-linejoin:round;stroke-miterlimit:10;stroke-dasharray:none;stroke-opacity:1" /><line
       class="st5"
       x1="27.022715"
       y1="8.7152081"
       x2="28.300295"
       y2="8.7152081"
       id="line10041-1"
       style="fill:none;stroke:#ffffff;stroke-width:1.12396;stroke-linecap:round;stroke-linejoin:round;stroke-miterlimit:10;stroke-dasharray:none;stroke-opacity:1" /><path
       class="st5"
       d="m 8.0442232,22.786969 c 0.9248813,0.09188 1.5808214,-0.05051 3.0107688,-0.946229 l 0.219991,-0.137797 c 1.31995,-0.826813 1.890096,-2.526395 1.25432,-3.739077 v 0 C 11.893528,16.751179 10.263758,16.429621 8.9438075,17.256434 l -2.9698874,1.86033 -1.8543436,-3.536991 5.389796,-3.376155"
       id="path10562-5"
       style="fill:none;stroke:#ffffff;stroke-width:1.12396;stroke-linecap:round;stroke-linejoin:round;stroke-miterlimit:10;stroke-dasharray:none;stroke-opacity:1" /><path
       class="st5"
       d="m 35.00185,4.0916163 c 0.283251,-1.0019639 1.452733,-1.816059 2.46421,-1.6281902 0.653442,0.1252453 1.040014,0.7514716 0.907902,1.4403214 -0.079,0.500982 -0.4262,1.0645865 -0.890452,1.3776997 -0.848179,0.5636046 -3.437633,2.1917948 -3.437633,2.1917948 h 3.319003"
       id="path9759"
       style="fill:none;stroke:#ffffff;stroke-width:1.12396;stroke-linecap:round;stroke-linejoin:round;stroke-miterlimit:10;stroke-dasharray:none;stroke-opacity:1" /></g></svg>
