<?xml version="1.0" encoding="UTF-8" standalone="no"?>
<!-- Created with Inkscape (http://www.inkscape.org/) -->

<svg
   width="48"
   height="48"
   viewBox="0 0 48 48"
   version="1.1"
   id="svg990"
   inkscape:version="1.2.1 (9c6d41e, 2022-07-14)"
   xml:space="preserve"
   sodipodi:docname="unlock.svg"
   xmlns:inkscape="http://www.inkscape.org/namespaces/inkscape"
   xmlns:sodipodi="http://sodipodi.sourceforge.net/DTD/sodipodi-0.dtd"
   xmlns="http://www.w3.org/2000/svg"
   xmlns:svg="http://www.w3.org/2000/svg"><sodipodi:namedview
     id="namedview992"
     pagecolor="#858585"
     bordercolor="#000000"
     borderopacity="0.25"
     inkscape:showpageshadow="2"
     inkscape:pageopacity="0"
     inkscape:pagecheckerboard="0"
     inkscape:deskcolor="#d1d1d1"
     inkscape:document-units="px"
     showgrid="false"
     inkscape:zoom="11"
     inkscape:cx="23.954545"
     inkscape:cy="24"
     inkscape:window-width="1366"
     inkscape:window-height="737"
     inkscape:window-x="0"
     inkscape:window-y="0"
     inkscape:window-maximized="1"
     inkscape:current-layer="svg990" /><defs
     id="defs987"><style
       id="style1174">.a{fill:none;stroke:#fff;stroke-linecap:round;stroke-linejoin:round;}</style></defs><g
     inkscape:groupmode="layer"
     id="layer2"
     inkscape:label="Layer 2"
     transform="matrix(0.97606882,0,0,0.97606882,-0.16506238,1.1945381)"
     style="stroke-width:1.02451792;stroke-dasharray:none;stroke:#ffffff;stroke-opacity:1;stroke-linejoin:round;stroke-linecap:round"><path
       style="fill:none;stroke:#ffffff;stroke-width:1.02452;stroke-linecap:round;stroke-linejoin:round;stroke-dasharray:none;stroke-opacity:1;stop-color:#000000"
       d="m 45.042333,16.847 v 8.765"
       id="path2787"
       sodipodi:nodetypes="cc" /><path
       id="path2840"
       style="fill:none;stroke:#ffffff;stroke-width:1.02452;stroke-linecap:round;stroke-linejoin:round;stroke-dasharray:none;stroke-opacity:1;stop-color:#000000"
       d="m 45.765788,28.932981 a 0.72345489,0.94922781 0 0 1 -0.723455,0.949228 0.72345489,0.94922781 0 0 1 -0.723455,-0.949228 0.72345489,0.94922781 0 0 1 0.723455,-0.949228 0.72345489,0.94922781 0 0 1 0.723455,0.949228 z" /><path
       id="rect2666"
       style="fill:none;stroke:#ffffff;stroke-width:1.02451792;stroke-linecap:round;stroke-linejoin:round;stroke-dasharray:none;stroke-opacity:1;stop-color:#000000"
       d="m 7.4687089,16.958731 10e-8,11.533308 c 0,0.554 -0.446,1.000099 -1,1 l -1.7194178,-3.08e-4 c -0.554,-9.9e-5 -1.0000001,-0.445346 -1.0000001,-0.999346 V 16.958731"
       sodipodi:nodetypes="cssssc" /><path
       style="fill:none;stroke:#ffffff;stroke-width:1.02451792;stroke-linecap:round;stroke-linejoin:round;stroke-dasharray:none;stroke-opacity:1;stop-color:#000000"
       d="M 10.681814,29.491731 V 16.922688 l 3.47451,12.569043 v -12.533"
       id="path2669"
       sodipodi:nodetypes="cccc" /><path
       style="fill:none;stroke:#ffffff;stroke-width:1.02451792;stroke-linecap:round;stroke-linejoin:round;stroke-dasharray:none;stroke-opacity:1;stop-color:#000000"
       d="m 17.450015,16.958731 v 12.533 H 20.51"
       id="path2671"
       sodipodi:nodetypes="ccc" /><path
       id="rect2673"
       style="fill:none;stroke:#ffffff;stroke-width:1.02451792;stroke-linecap:round;stroke-linejoin:round;stroke-dasharray:none;stroke-opacity:1;stop-color:#000000"
       d="m 24.264737,16.863 h 1.991287 c 0.517318,0 0.933786,0.34493 0.933786,0.773384 v 10.990812 c 0,0.428455 -0.416468,0.773384 -0.933786,0.773384 h -1.991287 c -0.517318,0 -0.933786,-0.344929 -0.933786,-0.773384 V 17.636384 c 0,-0.428454 0.416468,-0.773384 0.933786,-0.773384 z"
       sodipodi:nodetypes="sssssssss" /><path
       id="rect2673-6"
       style="fill:none;stroke:#ffffff;stroke-width:1.02451792;stroke-linecap:round;stroke-linejoin:round;stroke-dasharray:none;stroke-opacity:1;stop-color:#000000"
       d="m 34.39,18.364 -1.9e-4,-0.727616 C 34.389698,17.207929 33.973342,16.863 33.456024,16.863 h -1.991287 c -0.517318,0 -0.933786,0.344929 -0.933786,0.773384 v 10.990812 c 0,0.428454 0.416468,0.773275 0.933786,0.773384 l 1.991287,4.2e-4 c 0.517318,1.09e-4 0.933786,-0.34535 0.933786,-0.773804 V 27.768"
       sodipodi:nodetypes="cssssssssc" /><path
       style="fill:none;stroke:#ffffff;stroke-width:1.02451792;stroke-linecap:round;stroke-linejoin:round;stroke-dasharray:none;stroke-opacity:1;stop-color:#000000"
       d="m 37.501449,16.863 v 6.269 m 2.265399,0 1.810127,-6.28475 m 4.9e-5,12.5695 -1.810176,-6.28475 h -2.265399 v 6.269"
       id="path2698"
       sodipodi:nodetypes="cccccccc" /></g></svg>
