<?xml version="1.0" encoding="UTF-8" standalone="no"?>
<!-- Created with Inkscape (http://www.inkscape.org/) -->

<svg
   width="48"
   height="48"
   viewBox="0 0 48 48"
   version="1.1"
   id="svg990"
   inkscape:version="1.2.1 (9c6d41e, 2022-07-14)"
   xml:space="preserve"
   sodipodi:docname="uno.svg"
   xmlns:inkscape="http://www.inkscape.org/namespaces/inkscape"
   xmlns:sodipodi="http://sodipodi.sourceforge.net/DTD/sodipodi-0.dtd"
   xmlns="http://www.w3.org/2000/svg"
   xmlns:svg="http://www.w3.org/2000/svg"><sodipodi:namedview
     id="namedview992"
     pagecolor="#858585"
     bordercolor="#000000"
     borderopacity="0.25"
     inkscape:showpageshadow="2"
     inkscape:pageopacity="0"
     inkscape:pagecheckerboard="0"
     inkscape:deskcolor="#d1d1d1"
     inkscape:document-units="px"
     showgrid="false"
     inkscape:zoom="8"
     inkscape:cx="32.0625"
     inkscape:cy="23.625"
     inkscape:window-width="1366"
     inkscape:window-height="737"
     inkscape:window-x="0"
     inkscape:window-y="0"
     inkscape:window-maximized="1"
     inkscape:current-layer="svg990" /><defs
     id="defs987"><style
       id="style1174">.a{fill:none;stroke:#fff;stroke-linecap:round;stroke-linejoin:round;}</style></defs><g
     inkscape:groupmode="layer"
     id="layer3"
     inkscape:label="Layer 3"
     style="display:inline;stroke:#54c36c;stroke-opacity:1;stroke-width:1.00047015;stroke-dasharray:none"
     transform="matrix(0.90292189,-0.29391162,0.29391162,0.90292189,-8.6066607,4.2002792)"><path
       id="path2627"
       style="display:inline;fill:none;stroke:#ffffff;stroke-width:1.05312647;stroke-linecap:round;stroke-linejoin:round;stroke-dasharray:none;stroke-opacity:1;stop-color:#000000"
       d="M 44.840677,33.843966 A 13.614076,20.457051 78.815299 0 1 23.036868,44.395971 13.614076,20.457051 78.815299 0 1 8.0401967,38.480355" /><path
       id="path2771"
       style="display:inline;fill:none;stroke:#ffffff;stroke-width:1.05312647;stroke-linecap:round;stroke-linejoin:round;stroke-dasharray:none;stroke-opacity:1;stop-color:#000000"
       d="M 8.0502618,26.368839 A 13.614076,20.457051 78.815299 0 1 29.405463,16.530916 13.614076,20.457051 78.815299 0 1 43.857018,21.800838" /><path
       id="path1952"
       style="fill:none;stroke:#ffffff;stroke-width:1.05312647;stroke-linecap:round;stroke-linejoin:round;stroke-dasharray:none;stroke-opacity:1;stop-color:#000000"
       d="m 41.072475,29.075344 a 4.367723,3.7457236 85.096807 0 1 -3.358696,4.671896 4.367723,3.7457236 85.096807 0 1 -4.105336,-4.031584 4.367723,3.7457236 85.096807 0 1 3.358696,-4.671894 4.367723,3.7457236 85.096807 0 1 4.105336,4.031582 z" /><path
       id="path1952-5"
       style="fill:none;stroke:#ffffff;stroke-width:1.05312647;stroke-linecap:round;stroke-linejoin:round;stroke-dasharray:none;stroke-opacity:1;stop-color:#000000"
       d="m 44.294569,28.799378 c 0.352403,4.107918 -2.499443,7.707198 -6.369775,8.03922 -3.870334,0.332022 -7.293537,-2.728945 -7.645941,-6.836864 -0.352403,-4.107917 2.499442,-7.707198 6.369775,-8.039221 3.870333,-0.332021 7.293537,2.728947 7.645941,6.836865 z"
       sodipodi:nodetypes="sssss" /><path
       id="path1834"
       style="fill:none;stroke:#ffffff;stroke-width:1.05312647;stroke-linecap:round;stroke-linejoin:round;stroke-dasharray:none;stroke-opacity:1;stop-color:#000000"
       d="m 13.498538,23.954879 3.444519,-0.295493 c 0.368474,3.24426 0.566279,6.579972 0.804969,9.383406 0.260434,3.035847 -1.973687,5.689968 -5.009556,5.950148 l -1.530452,0.131161 C 8.1721501,39.384282 5.5183355,37.150122 5.2579011,34.114275 5.0455083,31.03689 4.5855605,27.721628 4.4529326,24.730869 L 7.8972815,24.43539 c 0.2446294,2.880861 0.494242,5.761311 0.7413627,8.641962 0.1428082,1.664695 1.5070158,2.8977 3.0586958,2.764587 1.551681,-0.133113 2.685539,-1.580418 2.542731,-3.245113 -0.24756,-2.880616 -0.492847,-5.761429 -0.741363,-8.641962 z"
       sodipodi:nodetypes="cccssccccsccc" /><path
       style="display:inline;fill:none;stroke:#ffffff;stroke-width:1.05312647;stroke-linecap:round;stroke-linejoin:round;stroke-dasharray:none;stroke-opacity:1;stop-color:#000000"
       d="m 18.403259,38.506913 3.406448,-0.292227 -0.77421,-9.024853 7.343319,8.461313 2.461959,-0.211185 -1.275081,-14.863444 m -11.162435,15.930396 3.406448,-0.292227 -0.77421,-9.024853 7.343319,8.461313 2.461959,-0.211185 -1.275081,-14.863444 m 1e-6,1.8e-5 -3.406447,0.292227 0.77421,9.024853 -7.343319,-8.461313 -2.461959,0.211185 1.275081,14.863444 m 11.162434,-15.930396 -3.406447,0.292227 0.77421,9.024853 -7.343319,-8.461313 -2.461959,0.211185 1.275081,14.863444"
       id="path1858"
       sodipodi:nodetypes="cccccccccccccccccccccccc" /><path
       style="display:inline;fill:none;stroke:#ffffff;stroke-width:1.05312647;stroke-linecap:round;stroke-linejoin:round;stroke-dasharray:none;stroke-opacity:1;stop-color:#000000"
       d="m 47.936049,32.433595 -0.74993,-11.263064 -3.385794,0.114827 0.885814,11.215601 m 3.24991,-0.06736 -3.24991,0.06736 0.326906,2.905341 3.226129,-0.13114 z"
       id="path2715"
       sodipodi:nodetypes="cccccc" /></g></svg>
