<?xml version="1.0" encoding="UTF-8" standalone="no"?>
<!-- Created with Inkscape (http://www.inkscape.org/) -->

<svg
   width="48"
   height="48"
   viewBox="0 0 48 48"
   version="1.1"
   id="svg990"
   inkscape:version="1.2.2 (b0a8486541, 2022-12-01)"
   xml:space="preserve"
   sodipodi:docname="google_pay_for_business.svg"
   xmlns:inkscape="http://www.inkscape.org/namespaces/inkscape"
   xmlns:sodipodi="http://sodipodi.sourceforge.net/DTD/sodipodi-0.dtd"
   xmlns="http://www.w3.org/2000/svg"
   xmlns:svg="http://www.w3.org/2000/svg"><sodipodi:namedview
     id="namedview992"
     pagecolor="#858585"
     bordercolor="#000000"
     borderopacity="0.25"
     inkscape:showpageshadow="2"
     inkscape:pageopacity="0"
     inkscape:pagecheckerboard="0"
     inkscape:deskcolor="#d1d1d1"
     inkscape:document-units="px"
     showgrid="false"
     inkscape:zoom="11.645833"
     inkscape:cx="29.366726"
     inkscape:cy="24.042934"
     inkscape:window-width="1366"
     inkscape:window-height="737"
     inkscape:window-x="0"
     inkscape:window-y="0"
     inkscape:window-maximized="1"
     inkscape:current-layer="svg990" /><defs
     id="defs987"><style
   id="style1174">.a{fill:none;stroke:#fff;stroke-linecap:round;stroke-linejoin:round;}</style>
		
	
		
		
	
		
	
		
		
	
		
	
		
	
		
	
		
	
		
		
	
		
		
	
			
		</defs><path
     id="line6209"
     style="fill:none;stroke:#fff;stroke-width:1;stroke-linecap:round;stroke-linejoin:round;stroke-miterlimit:10;stroke-dasharray:none;stroke-opacity:1"
     class="st5"
     d="M 9.5662555,34.337164 H 7.37948 m 2.1867775,-1e-6 c 0.7290315,0 1.3255105,0.59648 1.3255105,1.325511 0,0.729031 -0.596479,1.325511 -1.3255105,1.325511 H 7.3791645 L 7.37948,31.686142 h 2.1867775 c 0.7290315,0 1.3255105,0.596479 1.3255105,1.32551 0,0.729031 -0.596479,1.325511 -1.3255105,1.325511 z M 30.858112,36.988185 H 28.20709 v -5.302043 h 2.651022 m -2.651022,2.65102 h 1.723164 m -17.669728,-2.65102 v 3.512603 c 0,0.994134 0.795307,1.78944 1.723164,1.78944 0.927858,0 1.723164,-0.795306 1.723164,-1.78944 v -3.512603 m 1.435034,4.705563 c 0.331377,0.397653 0.729031,0.59648 1.32551,0.59648 h 0.795307 c 0.729031,0 1.325511,-0.59648 1.325511,-1.325511 v 0 c 0,-0.729031 -0.59648,-1.325511 -1.325511,-1.325511 h -0.861582 c -0.729031,0 -1.325511,-0.59648 -1.325511,-1.325511 v 0 c 0,-0.729031 0.59648,-1.32551 1.325511,-1.32551 h 0.795306 c 0.59648,0 0.994134,0.132551 1.325511,0.596479 m 16.652568,4.109084 c 0.331377,0.397653 0.729031,0.59648 1.32551,0.59648 h 0.795307 c 0.729031,0 1.325511,-0.59648 1.325511,-1.325511 v 0 c 0,-0.729031 -0.59648,-1.325511 -1.325511,-1.325511 h -0.861582 c -0.729031,0 -1.325511,-0.59648 -1.325511,-1.325511 v 0 c 0,-0.729031 0.59648,-1.32551 1.325511,-1.32551 h 0.795306 c 0.59648,0 0.994134,0.132551 1.325511,0.596479 m -8.261412,4.109084 c 0.331377,0.397653 0.729031,0.59648 1.32551,0.59648 h 0.795307 c 0.729031,0 1.325511,-0.59648 1.325511,-1.325511 v 0 c 0,-0.729031 -0.59648,-1.325511 -1.325511,-1.325511 h -0.861582 c -0.729031,0 -1.325511,-0.59648 -1.325511,-1.325511 v 0 c 0,-0.729031 0.59648,-1.32551 1.325511,-1.32551 h 0.795306 c 0.59648,0 0.994134,0.132551 1.325511,0.596479 m -12.347472,4.705564 v -5.302043 l 3.512603,5.302043 v -5.302043 m -4.881359,0 v 5.302044 M 5.5,26.095274 h 37 M 32.983173,19.545998 V 14.146 m 0,3.400001 c 0,1.1 -0.9,2 -2,2 v 0 c -1.1,0 -2,-0.9 -2,-2 v -1.3 c 0,-1.1 0.9,-2 2,-2 v 0 c 1.1,0 2,0.9 2,2 m 5.922687,-2.09995 v 3.3 c 0,1.1 -0.9,2 -2,2 v 0 c -1.1,0 -2,-0.9 -2,-2 v -3.3 m 4,3.4 v 2.7 c 0,1.1 -0.9,2 -2,2 v 0 c -0.6,0 -1.1,-0.2 -1.4,-0.6 M 22.26049,19.546052 v -8 h 2.6 c 1.5,0 2.7,1.2 2.7,2.7 0,1.5 -1.2,2.7 -2.7,2.7 h -2.6 m -8.066923,-2.498221 h 4.952109 a 4.9777665,4.9777665 0 0 1 -4.856236,5.09667 l -0.09612,0.0015 a 5.0981711,5.0981711 0 1 1 0,-10.196342 5.0201959,5.0201959 0 0 1 2.528246,0.670486 M 40.5,5.4999999 h -33 c -1.1045695,1e-7 -1.9999999,0.8954305 -1.9999999,2 L 5.5,40.5 c 0,1.104569 0.8954305,2 2,2 h 33 c 1.104569,0 2,-0.895431 2,-2 V 7.4999999 c 0,-1.1045695 -0.895431,-2 -2,-2 z" /></svg>
