<?xml version="1.0" encoding="UTF-8" standalone="no"?>
<!-- Created with Inkscape (http://www.inkscape.org/) -->

<svg
   width="48"
   height="48"
   viewBox="0 0 48 48"
   version="1.1"
   id="svg990"
   inkscape:version="1.2.2 (b0a8486541, 2022-12-01)"
   xml:space="preserve"
   sodipodi:docname="pnc.svg"
   xmlns:inkscape="http://www.inkscape.org/namespaces/inkscape"
   xmlns:sodipodi="http://sodipodi.sourceforge.net/DTD/sodipodi-0.dtd"
   xmlns="http://www.w3.org/2000/svg"
   xmlns:svg="http://www.w3.org/2000/svg"><sodipodi:namedview
     id="namedview992"
     pagecolor="#858585"
     bordercolor="#000000"
     borderopacity="0.25"
     inkscape:showpageshadow="2"
     inkscape:pageopacity="0"
     inkscape:pagecheckerboard="0"
     inkscape:deskcolor="#d1d1d1"
     inkscape:document-units="px"
     showgrid="false"
     inkscape:zoom="1"
     inkscape:cx="37"
     inkscape:cy="22"
     inkscape:window-width="1366"
     inkscape:window-height="737"
     inkscape:window-x="0"
     inkscape:window-y="0"
     inkscape:window-maximized="1"
     inkscape:current-layer="svg990" /><defs
     id="defs987"><style
       id="style1174">.a{fill:none;stroke:#fff;stroke-linecap:round;stroke-linejoin:round;}</style></defs><path
     id="path1492-2"
     style="fill:none;stroke:#fff;stroke-width:1;stroke-linecap:round;stroke-linejoin:round;stroke-dasharray:none;stroke-opacity:1;stop-color:#000000"
     d="m 26.690861,27.881535 -5.634866,0.0062 m 0,0 -1.990375,0.0059 c -0.757375,0.0021 -1.447065,-1.15963 -1.071018,-1.816992 m 3.835227,-6.671158 -2.846832,4.943354 -0.988395,1.727804 c -5.097538,8.84623 -6.419067,12.229186 -3.831315,14.924961 -1.112983,-0.616365 -1.989496,-1.652939 -2.002388,-2.766698 m 9.668864,-18.82946 0.990085,-1.726809 c 0.372984,-0.650521 1.714673,-0.667655 2.089955,-0.01879 m 1.012293,1.750283 -1.012293,-1.750283 C 20.871617,11.661886 17.17897,4.3959959 13.793136,6.9307758 14.874355,6.2802232 16.198323,6.0411795 17.157642,6.5844145 l 5.175366,2.9306625 m 3.589088,9.895053 2.868341,4.955502 m 0,0 0.99456,1.717358 c 0.367835,0.635158 -0.26329,1.796326 -0.997774,1.796898 m 8.11832,1.974658 -14.281784,8.411979 m 0,0 -5.039268,2.980529 c -0.958769,0.567074 -2.308222,0.370916 -3.421204,-0.24545 m -2.002388,-2.766698 -0.06777,-5.854778 -0.145778,-16.779161 m -2.22e-4,0 -0.062,-5.8547751 c -0.01168,-1.1028018 0.826789,-2.1648635 1.908007,-2.8154161 m 8.539872,2.5843012 14.658581,8.294066 m 0,0 5.081336,2.87358 c 0.939656,0.531391 1.441872,1.768421 1.476433,3.009588 m -6.643817,6.162233 5.314317,-3.127828 c 0.930966,-0.547935 1.36406,-1.793238 1.3295,-3.034405 0,3.846652 -2.560212,4.477775 -14.762135,4.187577 l -2.096362,0.0016 m 18.722204,-3.968423 a 21.5,21.5 0 0 1 -21.5,21.5 21.5,21.5 0 0 1 -21.5,-21.5 21.5,21.5 0 0 1 21.5,-21.5 21.5,21.5 0 0 1 21.5,21.5 z" /></svg>
