<?xml version="1.0" encoding="UTF-8" standalone="no"?>
<!-- Created with Inkscape (http://www.inkscape.org/) -->

<svg
   width="48"
   height="48"
   viewBox="0 0 48 48"
   version="1.1"
   id="svg990"
   inkscape:version="1.2.2 (b0a8486541, 2022-12-01)"
   xml:space="preserve"
   sodipodi:docname="santa_cruz.svg"
   xmlns:inkscape="http://www.inkscape.org/namespaces/inkscape"
   xmlns:sodipodi="http://sodipodi.sourceforge.net/DTD/sodipodi-0.dtd"
   xmlns="http://www.w3.org/2000/svg"
   xmlns:svg="http://www.w3.org/2000/svg"><sodipodi:namedview
     id="namedview992"
     pagecolor="#858585"
     bordercolor="#000000"
     borderopacity="0.25"
     inkscape:showpageshadow="2"
     inkscape:pageopacity="0"
     inkscape:pagecheckerboard="0"
     inkscape:deskcolor="#d1d1d1"
     inkscape:document-units="px"
     showgrid="false"
     inkscape:zoom="11"
     inkscape:cx="24"
     inkscape:cy="24"
     inkscape:window-width="1366"
     inkscape:window-height="737"
     inkscape:window-x="0"
     inkscape:window-y="0"
     inkscape:window-maximized="1"
     inkscape:current-layer="svg990" /><defs
     id="defs987"><style
       id="style1174">.a{fill:none;stroke:#fff;stroke-linecap:round;stroke-linejoin:round;}</style></defs><path
     id="path13656"
     style="fill:none;stroke:#fff;stroke-width:1;stroke-linecap:round;stroke-linejoin:round;stroke-dasharray:none;stroke-opacity:1;stop-color:#000000"
     d="m 31.872021,36.05889 0.496841,0.743226 -10.01932,6.697832 -3.867618,-5.785588 M 15.83402,12.00898 15.29181,11.197884 v 0 l 10.01932,-6.697832 3.799935,5.684341 M 9.3516904,24.293998 c 0,-3.714861 1.6226566,-7.765635 3.8521896,-10.189683 2.229533,-2.424049 5.806227,-3.919226 9.222994,-3.919382 l 10.474606,-4.76e-4 8.213675,13.318957 H 38.64831 c 0,3.714862 -1.622656,7.865722 -3.852189,10.28977 -2.229534,2.424049 -5.806228,3.919226 -9.222995,3.919381 L 15.09852,37.713043 6.8848449,24.293998 23.681525,24.293741 c 0.868341,-1.090156 1.107831,-0.78962 2.868333,-0.78971 l 12.098452,-6.17e-4" /></svg>
