<?xml version="1.0" encoding="UTF-8" standalone="no"?>
<!-- Created with Inkscape (http://www.inkscape.org/) -->

<svg
   width="48"
   height="48"
   viewBox="0 0 48 48"
   version="1.1"
   id="svg990"
   inkscape:version="1.2.2 (b0a8486541, 2022-12-01)"
   xml:space="preserve"
   sodipodi:docname="skyview_free.svg"
   xmlns:inkscape="http://www.inkscape.org/namespaces/inkscape"
   xmlns:sodipodi="http://sodipodi.sourceforge.net/DTD/sodipodi-0.dtd"
   xmlns="http://www.w3.org/2000/svg"
   xmlns:svg="http://www.w3.org/2000/svg"><sodipodi:namedview
     id="namedview992"
     pagecolor="#858585"
     bordercolor="#000000"
     borderopacity="0.25"
     inkscape:showpageshadow="2"
     inkscape:pageopacity="0"
     inkscape:pagecheckerboard="0"
     inkscape:deskcolor="#d1d1d1"
     inkscape:document-units="px"
     showgrid="false"
     inkscape:zoom="11.313708"
     inkscape:cx="25.986174"
     inkscape:cy="17.589281"
     inkscape:window-width="1366"
     inkscape:window-height="737"
     inkscape:window-x="0"
     inkscape:window-y="0"
     inkscape:window-maximized="1"
     inkscape:current-layer="svg990" /><defs
     id="defs987"><style
       id="style1174">.a{fill:none;stroke:#fff;stroke-linecap:round;stroke-linejoin:round;}</style></defs><path
     id="path12074"
     style="display:inline;fill:none;stroke:#fff;stroke-width:1;stroke-linecap:round;stroke-linejoin:round;stroke-dasharray:none;stroke-opacity:1;stop-color:#000000"
     d="m 28.215041,19.61881 a 1.6531694,1.6531694 0 0 1 -1.653169,1.65317 1.6531694,1.6531694 0 0 1 -1.653169,-1.65317 1.6531694,1.6531694 0 0 1 1.653169,-1.653169 1.6531694,1.6531694 0 0 1 1.653169,1.653169 z M 17.65153,13.710091 a 1.100818,1.100818 0 0 1 -1.100818,1.100817 1.100818,1.100818 0 0 1 -1.100818,-1.100817 1.100818,1.100818 0 0 1 1.100818,-1.100819 1.100818,1.100818 0 0 1 1.100818,1.100819 z m 20.018992,20.717987 a 1.1685256,1.1685256 0 0 1 -1.168525,1.168526 1.1685256,1.1685256 0 0 1 -1.168527,-1.168526 1.1685256,1.1685256 0 0 1 1.168527,-1.168526 1.1685256,1.1685256 0 0 1 1.168525,1.168526 z m 5.79648,-7.458506 a 1.2984838,1.2984838 0 0 1 -1.298484,1.298484 1.2984838,1.2984838 0 0 1 -1.298484,-1.298484 1.2984838,1.2984838 0 0 1 1.298484,-1.298484 1.2984838,1.2984838 0 0 1 1.298484,1.298484 z M 26.763225,30.00353 a 1.0951568,1.0951568 0 0 1 -1.095157,1.095157 1.0951568,1.0951568 0 0 1 -1.095157,-1.095157 1.0951568,1.0951568 0 0 1 1.095157,-1.095157 1.0951568,1.0951568 0 0 1 1.095157,1.095157 z M 6.6572749,13.458547 A 1.0951568,1.0951568 0 0 1 5.5621182,14.553704 1.0951568,1.0951568 0 0 1 4.4669615,13.458547 1.0951568,1.0951568 0 0 1 5.5621182,12.36339 1.0951568,1.0951568 0 0 1 6.6572749,13.458547 Z m 19.7120551,7.773555 -0.854273,7.716774 m 1.158653,1.478138 8.785854,3.535365 m 1.806315,-0.418081 4.205677,-5.499003 M 41.00706,26.460292 28.01703,20.359325 M 25.127269,18.845651 17.401386,14.363042 M 15.482559,13.83398 6.6438337,13.637201" /></svg>
