<?xml version="1.0" encoding="UTF-8" standalone="no"?>
<!-- Created with Inkscape (http://www.inkscape.org/) -->

<svg
   width="48"
   height="48"
   viewBox="0 0 48 48"
   version="1.1"
   id="svg990"
   inkscape:version="1.2.2 (b0a8486541, 2022-12-01)"
   xml:space="preserve"
   sodipodi:docname="stop_motion_studio.svg"
   xmlns:inkscape="http://www.inkscape.org/namespaces/inkscape"
   xmlns:sodipodi="http://sodipodi.sourceforge.net/DTD/sodipodi-0.dtd"
   xmlns="http://www.w3.org/2000/svg"
   xmlns:svg="http://www.w3.org/2000/svg"><sodipodi:namedview
     id="namedview992"
     pagecolor="#858585"
     bordercolor="#000000"
     borderopacity="0.25"
     inkscape:showpageshadow="2"
     inkscape:pageopacity="0"
     inkscape:pagecheckerboard="0"
     inkscape:deskcolor="#d1d1d1"
     inkscape:document-units="px"
     showgrid="false"
     inkscape:zoom="11"
     inkscape:cx="15.181818"
     inkscape:cy="24"
     inkscape:window-width="1366"
     inkscape:window-height="737"
     inkscape:window-x="0"
     inkscape:window-y="0"
     inkscape:window-maximized="1"
     inkscape:current-layer="svg990" /><defs
     id="defs987"><style
       id="style1174">.a{fill:none;stroke:#fff;stroke-linecap:round;stroke-linejoin:round;}</style></defs><path
     id="rect14875"
     style="fill:none;stroke:#fff;stroke-width:1;stroke-linecap:round;stroke-linejoin:round;stroke-dasharray:none;stroke-opacity:1;stop-color:#000000"
     d="m 33.274159,30.170854 h 3.134722 l 6.929248,-3.467251 v 11.267748 l -6.929248,-3.496589 -3.134722,-0.02934 M 18.505458,19.197389 a 3.8620498,3.8620498 0 0 1 -3.86205,3.86205 3.8620498,3.8620498 0 0 1 -3.86205,-3.86205 3.8620498,3.8620498 0 0 1 3.86205,-3.86205 3.8620498,3.8620498 0 0 1 3.86205,3.86205 z m 18.977827,0 a 3.8620498,3.8620498 0 0 1 -3.86205,3.86205 3.8620498,3.8620498 0 0 1 -3.862049,-3.86205 3.8620498,3.8620498 0 0 1 3.862049,-3.86205 3.8620498,3.8620498 0 0 1 3.86205,3.86205 z M 23.990687,15.906833 A 10.011037,10.011037 0 0 1 33.488913,9.0587931 10.011037,10.011037 0 0 1 43.49995,19.06983 10.011037,10.011037 0 0 1 33.488913,29.080866 10.011037,10.011037 0 0 1 33.274001,29.078566 M 13.997356,29.067676 A 10.011037,10.011037 0 0 1 4.50005,19.06983 10.011037,10.011037 0 0 1 14.511087,9.0587931 10.011037,10.011037 0 0 1 24.011078,15.912137 m 9.262581,13.15044 5.6e-5,1.107391 m 2.16e-4,4.275271 2.28e-4,4.495968 H 13.999915 v -9.90592" /></svg>
