<?xml version="1.0" encoding="UTF-8" standalone="no"?>
<!-- Created with Inkscape (http://www.inkscape.org/) -->

<svg
   width="48"
   height="48"
   viewBox="0 0 48 48"
   version="1.1"
   id="svg990"
   inkscape:version="1.2.2 (b0a8486541, 2022-12-01)"
   xml:space="preserve"
   sodipodi:docname="tellonym.svg"
   xmlns:inkscape="http://www.inkscape.org/namespaces/inkscape"
   xmlns:sodipodi="http://sodipodi.sourceforge.net/DTD/sodipodi-0.dtd"
   xmlns="http://www.w3.org/2000/svg"
   xmlns:svg="http://www.w3.org/2000/svg"><sodipodi:namedview
     id="namedview992"
     pagecolor="#858585"
     bordercolor="#000000"
     borderopacity="0.25"
     inkscape:showpageshadow="2"
     inkscape:pageopacity="0"
     inkscape:pagecheckerboard="0"
     inkscape:deskcolor="#d1d1d1"
     inkscape:document-units="px"
     showgrid="false"
     inkscape:zoom="11"
     inkscape:cx="30.818182"
     inkscape:cy="29.181818"
     inkscape:window-width="1366"
     inkscape:window-height="737"
     inkscape:window-x="0"
     inkscape:window-y="0"
     inkscape:window-maximized="1"
     inkscape:current-layer="svg990" /><defs
     id="defs987"><style
       id="style1174">.a{fill:none;stroke:#fff;stroke-linecap:round;stroke-linejoin:round;}</style></defs><path
     id="path10504"
     style="fill:none;stroke:#fff;stroke-width:1;stroke-linecap:round;stroke-linejoin:round;stroke-dasharray:none;stroke-opacity:1;stop-color:#000000"
     d="m 24.987925,30.369655 c 3.591229,1.841088 6.515023,1.831447 9.172992,-0.98414 m 4.155727,-5.035894 a 1.9669222,1.9669222 0 0 1 -1.966922,1.966922 1.9669222,1.9669222 0 0 1 -1.966922,-1.966922 1.9669222,1.9669222 0 0 1 1.966922,-1.966923 1.9669222,1.9669222 0 0 1 1.966922,1.966923 z M 24.105755,25.40286 a 1.9669222,1.9669222 0 0 1 -1.966923,1.966923 1.9669222,1.9669222 0 0 1 -1.966922,-1.966923 1.9669222,1.9669222 0 0 1 1.966922,-1.966922 1.9669222,1.9669222 0 0 1 1.966923,1.966922 z M 15.555618,5.5000592 41.092455,6.4049227 c 0.636792,-0.1899649 0.651259,9.4935403 0.590524,14.3174893 -0.08299,6.591817 0.02761,19.777 0.02761,19.777 l -2.572263,-2.039138 c -0.859254,-0.681165 -1.303748,-0.829647 -2.105228,0.0085 l -3.090365,3.232056 -3.416125,-2.437019 c -0.695117,-0.495886 -1.156781,-1.061581 -2.336722,0 l -3.117303,2.804614 -3.854769,-2.492357 c -0.511459,-0.330692 -1.152164,-1.10315 -2.246138,0.148353 l -2.426087,2.775437 C 15.661865,25.325045 15.966866,16.894471 15.555618,5.5000592 M 6.3336404,9.7065049 c 0,0 -0.075611,3.2724541 -0.028628,4.9077111 0.2562648,8.919352 1.6928219,26.715518 1.6928219,26.715518 L 10.53187,40.230205 c 0.531504,-0.230623 0.590864,-0.12167 1.046921,0.07945 M 15.555618,5.5000642 6.3336406,9.7065099 9.9982653,15.897821 M 15.555618,5.5000642 9.9982653,15.897821 11.578791,40.309655 16.54559,42.499941" /></svg>
