<?xml version="1.0" encoding="UTF-8" standalone="no"?>
<!-- Created with Inkscape (http://www.inkscape.org/) -->

<svg
   width="48"
   height="48"
   viewBox="0 0 48 48"
   version="1.1"
   id="svg990"
   inkscape:version="1.2.2 (b0a8486541, 2022-12-01)"
   xml:space="preserve"
   sodipodi:docname="ticketnew.svg"
   xmlns:inkscape="http://www.inkscape.org/namespaces/inkscape"
   xmlns:sodipodi="http://sodipodi.sourceforge.net/DTD/sodipodi-0.dtd"
   xmlns="http://www.w3.org/2000/svg"
   xmlns:svg="http://www.w3.org/2000/svg"><sodipodi:namedview
     id="namedview992"
     pagecolor="#858585"
     bordercolor="#000000"
     borderopacity="0.25"
     inkscape:showpageshadow="2"
     inkscape:pageopacity="0"
     inkscape:pagecheckerboard="0"
     inkscape:deskcolor="#d1d1d1"
     inkscape:document-units="px"
     showgrid="false"
     inkscape:zoom="11"
     inkscape:cx="26.818182"
     inkscape:cy="24"
     inkscape:window-width="1366"
     inkscape:window-height="737"
     inkscape:window-x="0"
     inkscape:window-y="0"
     inkscape:window-maximized="1"
     inkscape:current-layer="svg990" /><defs
     id="defs987"><style
   id="style1174">.a{fill:none;stroke:#fff;stroke-linecap:round;stroke-linejoin:round;}</style>
		
		
	</defs><path
     id="path7328-2"
     style="fill:none;stroke:#fff;stroke-width:1;stroke-linecap:round;stroke-linejoin:round;stroke-dasharray:none;stroke-opacity:1;stop-color:#000000"
     d="m 17.591231,13.920422 c -1.052561,-1.050348 -2.760986,-1.044863 -3.81588,0.01225 v 0 c -1.054894,1.057115 -1.056787,2.765549 -0.0043,3.815898 z M 34.09116,30.385704 c 1.052558,1.050349 1.050665,2.758784 -0.0043,3.815896 v 0 c -1.054894,1.057115 -2.763322,1.062599 -3.815879,0.01225 z M 15.518805,32.497182 31.588357,16.393815 M 26.354749,11.171197 36.821962,21.61643 m -5.992041,16.022831 -2.703806,-2.698128 c -1.770274,-1.766558 -1.773267,-4.613904 -0.0067,-6.384179 l 0.448068,-0.449011 c 1.766558,-1.770273 4.613904,-1.773267 6.384179,-0.0067 l 2.703806,2.698129 m -20.485386,-20.44237 2.703805,2.698129 c 1.770274,1.766556 1.773267,4.613904 0.0067,6.384177 l -0.448071,0.449013 c -1.766556,1.770274 -4.613904,1.773266 -6.384177,0.0067 L 10.344545,17.196903 M 29.671676,4.4999704 43.489941,18.289219 m -0.306977,6.97026 -5.527807,5.53944 m -6.825681,6.840045 -5.527809,5.539438 M 18.332068,43.50003 4.5100591,29.707046 m 0.316942,-6.980245 5.5178429,-5.529454 m 6.825682,-6.840046 5.527806,-5.5394389 m 2.613253,38.3490419 a 6.2699851,5.2639764 44.93978 0 0 -6.937688,0.280443 6.2699851,5.2639764 44.93978 0 0 -0.04755,0.0484 M 4.5143733,29.712755 a 6.2699851,5.2639764 44.93978 0 0 0.048283,-0.04765 6.2699851,5.2639764 44.93978 0 0 0.2656669,-6.938559 m 38.3431638,2.542871 a 6.2699851,5.2639764 44.93978 0 1 0.265858,-6.938262 6.2699851,5.2639764 44.93978 0 1 0.0483,-0.04765 M 29.6732,4.5010003 a 6.2699851,5.2639764 44.93978 0 1 -0.0471,0.047919 v 0 a 6.2699851,5.2639764 44.93978 0 1 -6.937684,0.2804423" /></svg>
