<?xml version="1.0" encoding="UTF-8" standalone="no"?>
<!-- Created with Inkscape (http://www.inkscape.org/) -->

<svg
   width="48"
   height="48"
   viewBox="0 0 48 48"
   version="1.1"
   id="svg990"
   inkscape:version="1.2.2 (b0a8486541, 2022-12-01)"
   xml:space="preserve"
   sodipodi:docname="usps_mobile.svg"
   xmlns:inkscape="http://www.inkscape.org/namespaces/inkscape"
   xmlns:sodipodi="http://sodipodi.sourceforge.net/DTD/sodipodi-0.dtd"
   xmlns="http://www.w3.org/2000/svg"
   xmlns:svg="http://www.w3.org/2000/svg"><sodipodi:namedview
     id="namedview992"
     pagecolor="#858585"
     bordercolor="#000000"
     borderopacity="0.25"
     inkscape:showpageshadow="2"
     inkscape:pageopacity="0"
     inkscape:pagecheckerboard="0"
     inkscape:deskcolor="#d1d1d1"
     inkscape:document-units="px"
     showgrid="false"
     inkscape:zoom="5.6568542"
     inkscape:cx="14.495689"
     inkscape:cy="14.495689"
     inkscape:window-width="1366"
     inkscape:window-height="737"
     inkscape:window-x="0"
     inkscape:window-y="0"
     inkscape:window-maximized="1"
     inkscape:current-layer="svg990" /><defs
     id="defs987"><style
       id="style1174">.a{fill:none;stroke:#fff;stroke-linecap:round;stroke-linejoin:round;}</style></defs><path
     id="path4760"
     style="fill:none;fill-opacity:1;stroke:#fff;stroke-linecap:round;stroke-linejoin:round;stroke-opacity:1;stop-color:#000000"
     d="m 31.527435,20.212297 c -0.80078,0.343022 -1.938998,0.538886 -3.418656,0.585848 M 5.5,11.114488 c 8.856563,2.161801 26.571254,4.413484 27.459026,7.283155 C 28.29524,16.448524 21.656107,16.897751 5.5,16.551619 m 0,20.386738 C 16.034158,31.96182 29.207747,25.204902 36.149809,24.875798 l 1.120019,0.715664 c 0.962723,-1.624689 1.478469,-2.880243 1.731566,-3.918889 0.580704,-2.383065 -0.199963,-3.27493 -1.572079,-3.27493 h -4.470289 c -0.0052,0.258581 -0.05757,0.496561 -0.157426,0.713846 H 11.700852 l 3.343405,10.171781 c 5.853188,-3.522469 15.461256,-6.969466 20.594736,-6.156602 M 32.8016,19.111489 c -0.21139,0.459971 -0.635435,0.827202 -1.274165,1.100808 h 4.549301 c 1.790399,0 1.182579,2.048007 1.018161,2.358621 M 40.5,5.5 h -33 a 2,2 0 0 0 -2,2 v 33 a 2,2 0 0 0 2,2 h 33 a 2,2 0 0 0 2,-2 v -33 a 2,2 0 0 0 -2,-2 z" /></svg>
