<?xml version="1.0" encoding="UTF-8" standalone="no"?>
<!-- Created with Inkscape (http://www.inkscape.org/) -->

<svg
   width="48"
   height="48"
   viewBox="0 0 48 48"
   version="1.1"
   id="svg990"
   inkscape:version="1.2.2 (b0a8486541, 2022-12-01)"
   xml:space="preserve"
   sodipodi:docname="video_to_audio.svg"
   xmlns:inkscape="http://www.inkscape.org/namespaces/inkscape"
   xmlns:sodipodi="http://sodipodi.sourceforge.net/DTD/sodipodi-0.dtd"
   xmlns="http://www.w3.org/2000/svg"
   xmlns:svg="http://www.w3.org/2000/svg"><path
     id="path21371-3-5"
     style="color:#000000;display:inline;fill:none;stroke:#fff;stroke-width:1;stroke-linecap:round;stroke-linejoin:round;stroke-dasharray:none;stroke-opacity:1"
     d="m 32.583224,27.506259 c 0,-0.735368 -0.602681,-1.338049 -1.33805,-1.338049 -0.735368,0 -1.338049,0.602681 -1.338049,1.338049 0,0.735368 0.602681,1.33805 1.338049,1.33805 0.735369,0 1.33805,-0.602682 1.33805,-1.33805 z m 2.96887,2.969642 c 0,-0.735368 -0.602681,-1.33805 -1.338049,-1.33805 -0.735368,0 -1.33805,0.602682 -1.33805,1.33805 0,0.735368 0.602682,1.33805 1.33805,1.33805 0.735368,0 1.338049,-0.602682 1.338049,-1.33805 z m 2.969642,-2.969642 c 0,-0.735368 -0.602681,-1.338049 -1.33805,-1.338049 -0.735368,0 -1.338049,0.602681 -1.338049,1.338049 0,0.735368 0.602681,1.33805 1.338049,1.33805 0.735369,0 1.33805,-0.602682 1.33805,-1.33805 z m -2.969642,-2.96887 c 0,-0.735368 -0.602681,-1.33805 -1.338049,-1.33805 -0.735368,0 -1.33805,0.602682 -1.33805,1.33805 0,0.735368 0.602682,1.338049 1.33805,1.338049 0.735368,0 1.338049,-0.602681 1.338049,-1.338049 z m -1.337714,9.872032 c 3.705825,0 6.709897,-3.090506 6.709897,-6.90283 0,-3.812324 -3.004072,-6.90283 -6.709897,-6.90283 -2.96263,0 -5.47682,1.975217 -6.366091,4.71537 m 1.736594,7.184202 c 1.204098,1.180996 2.834489,1.906088 4.629497,1.906088 h 6.709897 M 16.833391,25.116547 c 0,-1.833393 -1.486259,-3.319652 -3.319652,-3.319652 -1.833393,0 -3.319652,1.486258 -3.319651,3.319652 0,1.833393 1.486258,3.319651 3.319651,3.319651 1.833393,0 3.319652,-1.486258 3.319652,-3.319651 L 16.286567,15.88596 20.727309,14.634163 M 5.499923,36.19666 H 30.48223 L 23.088701,5.616974 5.499923,5.616854 Z m 16.51974,-5.03e-4 2.119941,6.186869 18.360473,1.2e-4 v -30.579806 0 H 24.584952" /><sodipodi:namedview
     id="namedview992"
     pagecolor="#858585"
     bordercolor="#000000"
     borderopacity="0.25"
     inkscape:showpageshadow="2"
     inkscape:pageopacity="0"
     inkscape:pagecheckerboard="0"
     inkscape:deskcolor="#d1d1d1"
     inkscape:document-units="px"
     showgrid="false"
     inkscape:zoom="11.313708"
     inkscape:cx="37.565048"
     inkscape:cy="27.665553"
     inkscape:window-width="1366"
     inkscape:window-height="737"
     inkscape:window-x="0"
     inkscape:window-y="0"
     inkscape:window-maximized="1"
     inkscape:current-layer="svg990" /><defs
     id="defs987"><style
       id="style1174">.a{fill:none;stroke:#fff;stroke-linecap:round;stroke-linejoin:round;}</style></defs></svg>
