<?xml version="1.0" encoding="UTF-8" standalone="no"?>
<!-- Created with Inkscape (http://www.inkscape.org/) -->

<svg
   width="48"
   height="48"
   viewBox="0 0 48 48"
   version="1.1"
   id="svg990"
   inkscape:version="1.2.1 (9c6d41e, 2022-07-14)"
   xml:space="preserve"
   sodipodi:docname="bitkub.svg"
   xmlns:inkscape="http://www.inkscape.org/namespaces/inkscape"
   xmlns:sodipodi="http://sodipodi.sourceforge.net/DTD/sodipodi-0.dtd"
   xmlns="http://www.w3.org/2000/svg"
   xmlns:svg="http://www.w3.org/2000/svg"><sodipodi:namedview
     id="namedview992"
     pagecolor="#858585"
     bordercolor="#000000"
     borderopacity="0.25"
     inkscape:showpageshadow="2"
     inkscape:pageopacity="0"
     inkscape:pagecheckerboard="0"
     inkscape:deskcolor="#d1d1d1"
     inkscape:document-units="px"
     showgrid="false"
     inkscape:zoom="14.854167"
     inkscape:cx="18.614305"
     inkscape:cy="17.772791"
     inkscape:window-width="1366"
     inkscape:window-height="737"
     inkscape:window-x="0"
     inkscape:window-y="0"
     inkscape:window-maximized="1"
     inkscape:current-layer="layer2" /><defs
     id="defs987"><style
       id="style1174">.a{fill:none;stroke:#fff;stroke-linecap:round;stroke-linejoin:round;}</style></defs><g
     inkscape:groupmode="layer"
     id="layer2"
     inkscape:label="Layer 2"
     style="stroke:#ffffff;stroke-width:0.867636;stroke-linecap:round;stroke-linejoin:round;stroke-dasharray:none;stroke-opacity:0.994932"
     transform="matrix(1.1525574,0,0,1.1525574,-3.6933207,-3.7484153)"><path
       id="path10720"
       style="fill:none;stroke:#ffffff;stroke-width:0.867636;stroke-linecap:round;stroke-linejoin:round;stroke-dasharray:none;stroke-opacity:1;stop-color:#000000"
       d="m 19.475581,24.075523 a 2.4107869,2.4107869 0 0 1 -2.379915,2.41059 2.4107869,2.4107869 0 0 1 -2.440868,-2.348852 2.4107869,2.4107869 0 0 1 2.317402,-2.470746 2.4107869,2.4107869 0 0 1 2.500219,2.285573" /><path
       id="path11429"
       style="fill:none;stroke:#ffffff;stroke-width:0.867636;stroke-linecap:round;stroke-linejoin:round;stroke-dasharray:none;stroke-opacity:1;stop-color:#000000"
       d="M 17.250076,34.202505 7.123078,24.075508 17.250076,13.94851 l 7.082257,7.082257"
       sodipodi:nodetypes="cccc" /><path
       id="path10720-8"
       style="fill:none;stroke:#ffffff;stroke-width:0.867636;stroke-linecap:round;stroke-linejoin:round;stroke-dasharray:none;stroke-opacity:1;stop-color:#000000"
       d="m 28.579849,24.075511 a 2.4107869,2.4107869 0 0 1 2.379915,-2.41059 2.4107869,2.4107869 0 0 1 2.440868,2.348852 2.4107869,2.4107869 0 0 1 -2.317402,2.470746 2.4107869,2.4107869 0 0 1 -2.500219,-2.285573" /><path
       id="path11429-7"
       style="fill:none;stroke:#ffffff;stroke-width:0.867636;stroke-linecap:round;stroke-linejoin:round;stroke-dasharray:none;stroke-opacity:1;stop-color:#000000"
       d="M 30.805354,13.948529 40.932352,24.075526 30.805354,34.202524 23.723097,27.120267"
       sodipodi:nodetypes="cccc" /></g></svg>
