<?xml version="1.0" encoding="UTF-8" standalone="no"?>
<!-- Created with Inkscape (http://www.inkscape.org/) -->

<svg
   width="48"
   height="48"
   viewBox="0 0 48 48"
   version="1.1"
   id="svg990"
   inkscape:version="1.2.1 (9c6d41e, 2022-07-14)"
   xml:space="preserve"
   sodipodi:docname="dns_changer3.svg"
   xmlns:inkscape="http://www.inkscape.org/namespaces/inkscape"
   xmlns:sodipodi="http://sodipodi.sourceforge.net/DTD/sodipodi-0.dtd"
   xmlns="http://www.w3.org/2000/svg"
   xmlns:svg="http://www.w3.org/2000/svg"><sodipodi:namedview
     id="namedview992"
     pagecolor="#858585"
     bordercolor="#000000"
     borderopacity="0.25"
     inkscape:showpageshadow="2"
     inkscape:pageopacity="0"
     inkscape:pagecheckerboard="0"
     inkscape:deskcolor="#d1d1d1"
     inkscape:document-units="px"
     showgrid="false"
     inkscape:zoom="11.313708"
     inkscape:cx="-4.7287768"
     inkscape:cy="18.915107"
     inkscape:window-width="1366"
     inkscape:window-height="737"
     inkscape:window-x="0"
     inkscape:window-y="0"
     inkscape:window-maximized="1"
     inkscape:current-layer="layer2" /><defs
     id="defs987"><style
       id="style1174">.a{fill:none;stroke:#fff;stroke-linecap:round;stroke-linejoin:round;}</style></defs><g
     inkscape:groupmode="layer"
     id="layer2"
     inkscape:label="Layer 2"
     style="display:inline"><path
       class="st5"
       d="m 11.62017,19.128383 v 9.743233 h 2.192227 c 2.314019,0 4.262664,-1.948648 4.262664,-4.262665 v -1.217905 c 0,-2.314017 -1.948645,-4.262663 -4.262664,-4.262663 z"
       id="path6127"
       style="fill:none;stroke:#ffffff;stroke-width:1;stroke-linecap:round;stroke-linejoin:round;stroke-miterlimit:10;stroke-dasharray:none;stroke-opacity:1" /><polyline
       class="st5"
       points="183.4,48.7 183.4,40.7 188.7,48.7 188.7,40.7   "
       id="polyline5849"
       style="fill:none;stroke:#ffffff;stroke-width:0.821083;stroke-linecap:round;stroke-linejoin:round;stroke-miterlimit:10;stroke-dasharray:none;stroke-opacity:1"
       transform="matrix(1.2179041,0,0,1.2179041,-202.59106,-30.440313)" /><path
       class="st5"
       d="m 30.046729,27.775502 c 0.608951,0.730743 1.339694,1.096114 2.435807,1.096114 h 1.461486 c 1.339694,0 2.435808,-1.096114 2.435808,-2.435808 v 0 c 0,-1.339695 -1.096114,-2.435809 -2.435808,-2.435809 h -1.583275 c -1.339696,0 -2.435808,-1.096114 -2.435808,-2.435809 v 0 c 0,-1.339693 1.096112,-2.435807 2.435808,-2.435807 h 1.461484 c 1.096114,0 1.826857,0.24358 2.435809,1.096114"
       id="path5977"
       style="fill:none;stroke:#ffffff;stroke-width:1;stroke-linecap:round;stroke-linejoin:round;stroke-miterlimit:10;stroke-dasharray:none;stroke-opacity:1" /><path
       class="a"
       d="m 40.5,5.5 h -33 a 2,2 0 0 0 -2,2 v 33 a 2,2 0 0 0 2,2 h 33 a 2,2 0 0 0 2,-2 v -33 a 2,2 0 0 0 -2,-2 z"
       id="path13563"
       style="display:inline;fill:none;stroke:#ffffff;stroke-linecap:round;stroke-linejoin:round;stroke-opacity:1" /></g></svg>
