<?xml version="1.0" encoding="UTF-8" standalone="no"?>
<!-- Created with Inkscape (http://www.inkscape.org/) -->

<svg
   width="48"
   height="48"
   viewBox="0 0 48 48"
   version="1.1"
   id="svg990"
   inkscape:version="1.2.1 (9c6d41e, 2022-07-14)"
   xml:space="preserve"
   sodipodi:docname="dns_changer2.svg"
   xmlns:inkscape="http://www.inkscape.org/namespaces/inkscape"
   xmlns:sodipodi="http://sodipodi.sourceforge.net/DTD/sodipodi-0.dtd"
   xmlns="http://www.w3.org/2000/svg"
   xmlns:svg="http://www.w3.org/2000/svg"><sodipodi:namedview
     id="namedview992"
     pagecolor="#858585"
     bordercolor="#000000"
     borderopacity="0.25"
     inkscape:showpageshadow="2"
     inkscape:pageopacity="0"
     inkscape:pagecheckerboard="0"
     inkscape:deskcolor="#d1d1d1"
     inkscape:document-units="px"
     showgrid="false"
     inkscape:zoom="11.313708"
     inkscape:cx="19.312855"
     inkscape:cy="18.915107"
     inkscape:window-width="1366"
     inkscape:window-height="737"
     inkscape:window-x="0"
     inkscape:window-y="0"
     inkscape:window-maximized="1"
     inkscape:current-layer="layer2" /><defs
     id="defs987"><style
       id="style1174">.a{fill:none;stroke:#fff;stroke-linecap:round;stroke-linejoin:round;}</style></defs><g
     inkscape:groupmode="layer"
     id="layer2"
     inkscape:label="Layer 2"
     style="display:inline"><path
       id="path11999"
       style="fill:none;stroke:#ffffff;stroke-width:1;stroke-linecap:round;stroke-linejoin:round;stroke-opacity:1;stop-color:#000000"
       inkscape:transform-center-y="4.6070998"
       d="M 5.9702921,14.27853 C 6.9271301,12.925747 12.524265,6.0794642 24,6.0788715 35.475735,6.0794642 41.07287,12.925747 42.029708,14.27853 43.873927,30.116606 33.965978,39.025759 24,41.921131 14.034022,39.025759 4.1260728,30.116606 5.9702921,14.27853 Z"
       sodipodi:nodetypes="ccccc" /><path
       sodipodi:type="star"
       style="fill:none;stroke:#ffffff;stroke-width:0.67413;stroke-linecap:round;stroke-linejoin:round;stroke-dasharray:none;stroke-opacity:1;stop-color:#000000"
       id="path12466"
       inkscape:flatsided="false"
       sodipodi:sides="5"
       sodipodi:cx="22.382683"
       sodipodi:cy="8.4444551"
       sodipodi:r1="2.8122993"
       sodipodi:r2="1.4061496"
       sodipodi:arg1="-2.8229684"
       sodipodi:arg2="-2.1946499"
       inkscape:rounded="0"
       inkscape:randomized="0"
       d="m 19.711934,7.5634733 1.849322,-0.2602961 0.833984,-1.6709933 0.819028,1.678374 1.846924,0.2767999 -1.343135,1.2975882 0.307479,1.842065 -1.649132,-0.8764202 -1.656891,0.8616592 0.323915,-1.8392461 z"
       inkscape:transform-center-x="0.016076008"
       inkscape:transform-center-y="-0.38304691"
       transform="matrix(1.4831798,-0.02511999,0.02511999,1.4831798,-9.3935929,1.2089635)" /><g
       id="g13113"
       transform="translate(-2.0771285)"><path
         class="st5"
         d="m 16.226563,21.416069 v 7.752639 h 1.744344 c 1.841252,0 3.391779,-1.550529 3.391779,-3.39178 v -0.969081 c 0,-1.841251 -1.550527,-3.391778 -3.391779,-3.391778 z"
         id="path6127"
         style="fill:none;stroke:#ffffff;stroke-width:1;stroke-linecap:round;stroke-linejoin:round;stroke-miterlimit:10;stroke-dasharray:none;stroke-opacity:1" /><polyline
         class="st5"
         points="183.4,48.7 183.4,40.7 188.7,48.7 188.7,40.7   "
         id="polyline5849"
         style="fill:none;stroke:#ffffff;stroke-width:1.03191;stroke-linecap:round;stroke-linejoin:round;stroke-miterlimit:10;stroke-dasharray:none;stroke-opacity:1"
         transform="matrix(0.96907986,0,0,0.96907986,-154.22018,-18.025481)" /><path
         class="st5"
         d="m 30.888479,28.296536 c 0.484539,0.581448 1.065987,0.872172 1.938159,0.872172 h 1.162896 c 1.065988,0 1.93816,-0.872172 1.93816,-1.93816 v 0 c 0,-1.065988 -0.872172,-1.93816 -1.93816,-1.93816 h -1.259803 c -1.065989,0 -1.93816,-0.872172 -1.93816,-1.93816 v 0 c 0,-1.065987 0.872171,-1.938159 1.93816,-1.938159 h 1.162895 c 0.872172,0 1.45362,0.193815 1.93816,0.872172"
         id="path5977"
         style="fill:none;stroke:#ffffff;stroke-width:1;stroke-linecap:round;stroke-linejoin:round;stroke-miterlimit:10;stroke-dasharray:none;stroke-opacity:1" /></g></g></svg>
