<?xml version="1.0" encoding="UTF-8" standalone="no"?>
<!-- Created with Inkscape (http://www.inkscape.org/) -->

<svg
   width="48"
   height="48"
   viewBox="0 0 48 48"
   version="1.1"
   id="svg990"
   inkscape:version="1.2.1 (9c6d41e, 2022-07-14)"
   xml:space="preserve"
   sodipodi:docname="kkp_mobile.svg"
   xmlns:inkscape="http://www.inkscape.org/namespaces/inkscape"
   xmlns:sodipodi="http://sodipodi.sourceforge.net/DTD/sodipodi-0.dtd"
   xmlns="http://www.w3.org/2000/svg"
   xmlns:svg="http://www.w3.org/2000/svg"><path
     id="rect19276"
     style="fill:none;stroke:#ffffff;stroke-width:1;stroke-linecap:round;stroke-linejoin:round;stroke-dasharray:none;stroke-opacity:1;stop-color:#000000"
     d="m 30.639547,25.418132 c -4.010903,0.989229 -8.6319,2.345878 -13.063989,3.550812 l 0.02772,5.24189 c 4.350615,0.0121 8.701862,-0.0071 13.036329,-0.03069 z m 5.945946,8.729374 c 2.641439,-0.0137 5.218499,-0.02464 7.862002,-0.02682 l 2e-6,-2e-6 c -3.432482,7.48725 -5.595104,6.588298 -9.729515,6.588298 H 17.050235 c -11.7850337,0 -9.5645871,0.0097 -13.4977435,-6.588298 2.7501867,0.0513 5.495748,0.08245 8.2955925,0.08183 l 0.05755,-20.316473 c 0.0105,-3.722 2.621683,-4.2449076 5.669454,-6.2298137 -0.114585,0.8263511 -0.283576,1.7102501 4.72e-4,2.1149611 7.701672,-0.555626 16.953311,1.2535166 21.621548,-2.5188968 -1.969342,4.2720154 -0.81216,8.1077144 -11.196215,8.1082564 l -10.425333,0.02501 v 7.395161 l 12.837754,-3.390743 c 5.18648,-1.369814 4.479732,-1.169461 8.730576,3.874512 -1.177028,0.0049 -2.277031,0.04501 -2.558368,0.461106 z"
     sodipodi:nodetypes="ccccccccssccscccsccsccc" /><sodipodi:namedview
     id="namedview992"
     pagecolor="#858585"
     bordercolor="#000000"
     borderopacity="0.25"
     inkscape:showpageshadow="2"
     inkscape:pageopacity="0"
     inkscape:pagecheckerboard="0"
     inkscape:deskcolor="#d1d1d1"
     inkscape:document-units="px"
     showgrid="false"
     inkscape:zoom="7.9999999"
     inkscape:cx="2.1875"
     inkscape:cy="21"
     inkscape:window-width="1366"
     inkscape:window-height="737"
     inkscape:window-x="0"
     inkscape:window-y="0"
     inkscape:window-maximized="1"
     inkscape:current-layer="svg990"
     inkscape:lockguides="true" /><defs
     id="defs987"><style
       id="style1174">.a{fill:none;stroke:#fff;stroke-linecap:round;stroke-linejoin:round;}</style></defs></svg>
