<?xml version="1.0" encoding="UTF-8" standalone="no"?>
<!-- Created with Inkscape (http://www.inkscape.org/) -->

<svg
   width="48"
   height="48"
   viewBox="0 0 48 48"
   version="1.1"
   id="svg990"
   inkscape:version="1.2.1 (9c6d41e, 2022-07-14)"
   xml:space="preserve"
   sodipodi:docname="promplus.svg"
   xmlns:inkscape="http://www.inkscape.org/namespaces/inkscape"
   xmlns:sodipodi="http://sodipodi.sourceforge.net/DTD/sodipodi-0.dtd"
   xmlns="http://www.w3.org/2000/svg"
   xmlns:svg="http://www.w3.org/2000/svg"><sodipodi:namedview
     id="namedview992"
     pagecolor="#858585"
     bordercolor="#000000"
     borderopacity="0.25"
     inkscape:showpageshadow="2"
     inkscape:pageopacity="0"
     inkscape:pagecheckerboard="0"
     inkscape:deskcolor="#d1d1d1"
     inkscape:document-units="px"
     showgrid="false"
     inkscape:zoom="11"
     inkscape:cx="15.863636"
     inkscape:cy="24"
     inkscape:window-width="1366"
     inkscape:window-height="737"
     inkscape:window-x="0"
     inkscape:window-y="0"
     inkscape:window-maximized="1"
     inkscape:current-layer="layer2" /><defs
     id="defs987"><style
       id="style1174">.a{fill:none;stroke:#fff;stroke-linecap:round;stroke-linejoin:round;}</style></defs><g
     inkscape:groupmode="layer"
     id="layer2"
     inkscape:label="Layer 2"
     transform="matrix(1.125376,0,0,1.125376,-2.9514549,-2.9537793)"><circle
       style="fill:none;fill-opacity:1;stroke:#ffffff;stroke-width:0.888592;stroke-linecap:round;stroke-linejoin:round;stroke-dasharray:none;stroke-opacity:0.999666;stop-color:#000000"
       id="path9296"
       cx="33.086529"
       cy="10.513976"
       r="3.8076296" /><path
       style="display:inline;fill:none;fill-opacity:1;stroke:#ffffff;stroke-width:0.888592;stroke-linecap:round;stroke-linejoin:round;stroke-dasharray:none;stroke-opacity:0.999666;stop-color:#000000"
       d="m 40.573579,27.51075 c 0.04161,-0.943644 -0.92937,-1.111717 -1.510963,-0.958706 -1.247501,0.328202 -0.964962,2.614569 -1.709987,3.35893 -0.941133,0.940295 -2.817724,0.795793 -4.2661,0.795793 -1.448376,0 -3.324966,0.144502 -4.2661,-0.795793 -0.745025,-0.744361 -0.462485,-3.030728 -1.709986,-3.35893 -0.581594,-0.153011 -1.552569,0.01506 -1.510964,0.958706 0.249629,5.66194 4.397662,5.269848 7.48705,5.269848 3.089388,0 7.237421,0.392092 7.48705,-5.269848 z"
       id="path10899-2"
       sodipodi:nodetypes="sasasasas" /><rect
       style="fill:none;fill-opacity:1;stroke:#ffffff;stroke-width:0.888592;stroke-linecap:round;stroke-linejoin:round;stroke-dasharray:none;stroke-opacity:0.999666;stop-color:#000000"
       id="rect10821"
       width="1.9693973"
       height="1.9547632"
       x="30.151987"
       y="15.629091" /><rect
       style="fill:none;fill-opacity:1;stroke:#ffffff;stroke-width:0.888592;stroke-linecap:round;stroke-linejoin:round;stroke-dasharray:none;stroke-opacity:0.999666;stop-color:#000000"
       id="rect10821-6"
       width="1.9693973"
       height="1.9547632"
       x="34.051968"
       y="-17.583855"
       transform="scale(1,-1)" /><path
       style="fill:none;fill-opacity:1;stroke:#ffffff;stroke-width:0.888592;stroke-linecap:round;stroke-linejoin:round;stroke-dasharray:none;stroke-opacity:0.999666;stop-color:#000000"
       d="m 39.834612,25.860769 c 0.28975,-1.939061 0.714227,-5.367346 0.916806,-7.254888 0.07472,-0.696159 -0.934489,-2.050748 -2.312326,-2.050705 l -2.067165,6.6e-5"
       id="path11014-9"
       sodipodi:nodetypes="cssc" /><path
       style="display:inline;fill:none;fill-opacity:1;stroke:#ffffff;stroke-width:0.888592;stroke-linecap:round;stroke-linejoin:round;stroke-dasharray:none;stroke-opacity:0.999666;stop-color:#000000"
       d="m 26.338447,25.860769 c -0.28975,-1.939061 -0.792056,-5.360609 -0.916807,-7.254888 -0.151905,-0.68348 0.934489,-2.050748 2.312326,-2.050705 l 2.067165,6.6e-5"
       id="path11014-9-2"
       sodipodi:nodetypes="ccsc" /><path
       id="rect11042-1"
       style="fill:none;stroke:#ffffff;stroke-width:0.888592;stroke-linecap:round;stroke-linejoin:round;stroke-dasharray:none;stroke-opacity:0.999666;stop-color:#000000"
       d="m 31.572877,25.739574 v 2.544922 h 3.058593 v -2.544922 h 2.529297 V 22.68098 h -2.544922 v -2.546875 h -3.058593 v 2.546875 m 0,0 h -2.546875 v 3.058594 h 2.562484"
       sodipodi:nodetypes="cccccccccccccc" /><path
       id="path11277"
       style="fill:none;fill-opacity:1;stroke:#ffffff;stroke-width:0.888592;stroke-linecap:round;stroke-linejoin:round;stroke-dasharray:none;stroke-opacity:0.999666;stop-color:#000000"
       d="M 9.3942558,31.21687 A 4.0819752,4.0819752 0 0 1 7.1611265,27.5776 4.0819752,4.0819752 0 0 1 11.243102,23.495624 4.0819752,4.0819752 0 0 1 15.325077,27.5776 v 0 a 4.0819752,4.0819752 0 0 1 -2.233507,3.639462" /><circle
       style="fill:none;fill-opacity:1;stroke:#ffffff;stroke-width:0.888592;stroke-linecap:round;stroke-linejoin:round;stroke-dasharray:none;stroke-opacity:0.999666;stop-color:#000000"
       id="path11340"
       cx="11.243102"
       cy="27.556343"
       r="1.8608555" /><path
       id="rect11342"
       style="fill:none;stroke:#ffffff;stroke-width:0.888592;stroke-linecap:round;stroke-linejoin:round;stroke-dasharray:none;stroke-opacity:0.999666;stop-color:#000000"
       d="m 32.636242,32.813333 c -1.149622,4.821959 -5.408248,8.38214 -10.514931,8.38214 -5.994689,0 -10.820738,-4.906 -10.820738,-11 v -0.723821"
       sodipodi:nodetypes="cssc" /></g></svg>
