<?xml version="1.0" encoding="UTF-8" standalone="no"?>
<!-- Created with Inkscape (http://www.inkscape.org/) -->

<svg
   width="48"
   height="48"
   viewBox="0 0 48 48"
   version="1.1"
   id="svg990"
   inkscape:version="1.2.1 (9c6d41e, 2022-07-14)"
   xml:space="preserve"
   sodipodi:docname="sso_connect.svg"
   xmlns:inkscape="http://www.inkscape.org/namespaces/inkscape"
   xmlns:sodipodi="http://sodipodi.sourceforge.net/DTD/sodipodi-0.dtd"
   xmlns="http://www.w3.org/2000/svg"
   xmlns:svg="http://www.w3.org/2000/svg"><sodipodi:namedview
     id="namedview992"
     pagecolor="#858585"
     bordercolor="#000000"
     borderopacity="0.25"
     inkscape:showpageshadow="2"
     inkscape:pageopacity="0"
     inkscape:pagecheckerboard="0"
     inkscape:deskcolor="#d1d1d1"
     inkscape:document-units="px"
     showgrid="false"
     inkscape:zoom="11.313708"
     inkscape:cx="10.47402"
     inkscape:cy="23.157748"
     inkscape:window-width="1366"
     inkscape:window-height="737"
     inkscape:window-x="0"
     inkscape:window-y="0"
     inkscape:window-maximized="1"
     inkscape:current-layer="layer2" /><defs
     id="defs987"><style
   id="style1174">.a{fill:none;stroke:#fff;stroke-linecap:round;stroke-linejoin:round;}</style>
		
		
	
		
		
	
		
	
		
	
		
		
	</defs><g
     inkscape:groupmode="layer"
     id="layer2"
     inkscape:label="Layer 2"><path
       class="a"
       d="m 40.5,5.4999999 h -33 a 2,2 0 0 0 -1.9999999,2 V 40.5 A 2,2 0 0 0 7.5,42.5 h 33 a 2,2 0 0 0 2,-2 V 7.4999999 a 2,2 0 0 0 -2,-2 z"
       id="path1178"
       inkscape:label="references"
       style="display:inline;stroke-width:1;stroke-dasharray:none" /><path
       class="st5"
       d="m 11.266666,24.101785 c 0.666666,0.8 1.466666,1.2 2.666666,1.2 h 1.6 c 1.466667,0 2.666667,-1.2 2.666667,-2.666667 v 0 c 0,-1.466667 -1.2,-2.666666 -2.666667,-2.666666 h -1.733333 c -1.466667,0 -2.666667,-1.2 -2.666667,-2.666667 v 0 c 0,-1.466667 1.2,-2.666667 2.666667,-2.666667 h 1.6 c 1.2,0 2,0.266667 2.666666,1.2"
       id="path4499"
       style="fill:none;stroke:#ffffff;stroke-width:1;stroke-linecap:round;stroke-linejoin:round;stroke-miterlimit:10;stroke-dasharray:none" /><path
       class="st5"
       d="m 20.599996,24.101785 c 0.666666,0.8 1.466666,1.2 2.666666,1.2 h 1.6 c 1.466667,0 2.666667,-1.2 2.666667,-2.666667 v 0 c 0,-1.466667 -1.2,-2.666666 -2.666667,-2.666666 h -1.733333 c -1.466667,0 -2.666667,-1.2 -2.666667,-2.666667 v 0 c 0,-1.466667 1.2,-2.666667 2.666667,-2.666667 h 1.6 c 1.2,0 2,0.266667 2.666666,1.2"
       id="path4499-6"
       style="fill:none;stroke:#ffffff;stroke-width:1;stroke-linecap:round;stroke-linejoin:round;stroke-miterlimit:10;stroke-dasharray:none" /><path
       class="st5"
       d="m 33.266666,25.301784 v 0 c -2,0 -3.466666,-1.6 -3.466666,-3.466666 v -3.6 c 0,-2 1.6,-3.6 3.466666,-3.6 v 0 c 2,0 3.6,1.6 3.6,3.6 v 3.466667 c 0,1.999999 -1.6,3.599999 -3.6,3.599999 z"
       id="path5037"
       style="fill:none;stroke:#ffffff;stroke-width:1;stroke-linecap:round;stroke-linejoin:round;stroke-miterlimit:10;stroke-dasharray:none" /><path
       class="b"
       d="m 12.008149,29.14363 c -0.430535,-0.675513 -1.183398,-1.123173 -2.040166,-1.123173 -1.3375518,0 -2.4218641,1.091031 -2.4218641,2.436781 0,0.540437 0.1748457,1.039708 0.4707113,1.44379 -0.2198145,0.665706 -0.054595,1.502821 0.1372896,1.44548 0.1161262,0.08104 0.8700419,-0.02604 1.337835,-0.499618 v 2e-6 c 0.1574282,0.03193 0.3165373,0.04773 0.4760282,0.04715 0.831089,0 1.564407,-0.421221 2.000591,-1.063041"
       id="path6048"
       style="fill:none;stroke:#ffffff;stroke-width:1;stroke-linecap:round;stroke-linejoin:round;stroke-dasharray:none;stroke-opacity:1"
       sodipodi:nodetypes="csscccccc" /><ellipse
       style="display:inline;fill:none;stroke:#ffffff;stroke-width:1;stroke-linecap:round;stroke-linejoin:round;stroke-dasharray:none;stroke-opacity:1;stop-color:#000000"
       id="path6908"
       cx="15.842838"
       cy="30.476959"
       rx="2.7620068"
       ry="2.9634714" /><path
       class="st5"
       d="m 23.337223,32.652605 v -2.801376 c 0,-0.933792 -0.764012,-1.697803 -1.697804,-1.697803 v 0 c -0.933792,0 -1.697804,0.764011 -1.697804,1.697803"
       id="path4625"
       style="fill:none;stroke:#ffffff;stroke-width:1;stroke-linecap:round;stroke-linejoin:round;stroke-miterlimit:10;stroke-dasharray:none" /><line
       class="st5"
       x1="19.941618"
       y1="32.652603"
       x2="19.941618"
       y2="28.068535"
       id="line4627"
       style="fill:none;stroke:#ffffff;stroke-width:1;stroke-linecap:round;stroke-linejoin:round;stroke-miterlimit:10;stroke-dasharray:none" /><path
       class="st5"
       d="m 28.171953,32.652605 v -2.801376 c 0,-0.933792 -0.764012,-1.697803 -1.697804,-1.697803 v 0 c -0.933792,0 -1.697804,0.764011 -1.697804,1.697803"
       id="path4625-5"
       style="fill:none;stroke:#ffffff;stroke-width:1;stroke-linecap:round;stroke-linejoin:round;stroke-miterlimit:10;stroke-dasharray:none" /><line
       class="st5"
       x1="24.776348"
       y1="32.652603"
       x2="24.776348"
       y2="28.068535"
       id="line4627-3"
       style="fill:none;stroke:#ffffff;stroke-width:1;stroke-linecap:round;stroke-linejoin:round;stroke-miterlimit:10;stroke-dasharray:none" /><path
       class="st5"
       d="m 37.501838,31.803704 c -0.25467,0.509341 -0.848902,0.848902 -1.443133,0.848902 v 0 c -0.933792,0 -1.697804,-0.764012 -1.697804,-1.697804 V 29.85123 c 0,-0.933792 0.764012,-1.697804 1.697804,-1.697804 v 0 c 0.594231,0 1.188463,0.339561 1.443133,0.848902"
       id="path4575"
       style="fill:none;stroke:#ffffff;stroke-width:1;stroke-linecap:round;stroke-linejoin:round;stroke-miterlimit:10;stroke-dasharray:none" /><path
       class="st5"
       d="m 39.350308,26.710293 v 5.093411 c 0,0.509341 0.339561,0.848901 0.848902,0.848901 h 0.254671"
       id="path4559"
       style="fill:#000000;fill-opacity:0;stroke:#ffffff;stroke-width:1;stroke-linecap:round;stroke-linejoin:round;stroke-miterlimit:10;stroke-dasharray:none" /><line
       class="st5"
       x1="38.416512"
       y1="28.068535"
       x2="40.284107"
       y2="28.068535"
       id="line4561"
       style="fill:#000000;fill-opacity:0;stroke:#ffffff;stroke-width:1;stroke-linecap:round;stroke-linejoin:round;stroke-miterlimit:10;stroke-dasharray:none" /><path
       class="st5"
       d="m 32.667113,31.803704 c -0.254671,0.509341 -0.848902,0.848902 -1.443133,0.848902 v 0 c -0.933792,0 -1.697804,-0.764012 -1.697804,-1.697804 V 29.85123 c 0,-0.933792 0.764012,-1.697804 1.697804,-1.697804 v 0 c 0.933792,0 1.697803,0.764012 1.697803,1.697804 v 0.594231 h -3.395607"
       id="path4661"
       style="fill:none;stroke:#ffffff;stroke-width:1;stroke-linecap:round;stroke-linejoin:round;stroke-miterlimit:10;stroke-dasharray:none" /></g></svg>
