<?xml version="1.0" encoding="UTF-8" standalone="no"?>
<!-- Created with Inkscape (http://www.inkscape.org/) -->

<svg
   width="48"
   height="48"
   viewBox="0 0 48 48"
   version="1.1"
   id="svg990"
   inkscape:version="1.2.1 (9c6d41e, 2022-07-14)"
   xml:space="preserve"
   sodipodi:docname="whoscall.svg"
   xmlns:inkscape="http://www.inkscape.org/namespaces/inkscape"
   xmlns:sodipodi="http://sodipodi.sourceforge.net/DTD/sodipodi-0.dtd"
   xmlns="http://www.w3.org/2000/svg"
   xmlns:svg="http://www.w3.org/2000/svg"><sodipodi:namedview
     id="namedview992"
     pagecolor="#858585"
     bordercolor="#000000"
     borderopacity="0.25"
     inkscape:showpageshadow="2"
     inkscape:pageopacity="0"
     inkscape:pagecheckerboard="0"
     inkscape:deskcolor="#d1d1d1"
     inkscape:document-units="px"
     showgrid="false"
     inkscape:zoom="11"
     inkscape:cx="15.863636"
     inkscape:cy="24"
     inkscape:window-width="1366"
     inkscape:window-height="737"
     inkscape:window-x="0"
     inkscape:window-y="0"
     inkscape:window-maximized="1"
     inkscape:current-layer="layer2" /><defs
     id="defs987"><style
   id="style1174">.a{fill:none;stroke:#fff;stroke-linecap:round;stroke-linejoin:round;}</style>
		
		
	
		
	
		
	
		
		
	
			
		</defs><g
     inkscape:groupmode="layer"
     id="layer2"
     inkscape:label="Layer 2"><path
       class="c"
       d="M 10.263844,30.780095 C 10.074336,30.148325 9.94091,29.492249 9.8693843,28.817735 9.7990656,28.154768 9.220829,27.661794 8.5541474,27.661794 H 5.4616723 c -0.7952295,0 -1.4078433,0.686822 -1.3378406,1.478965 0.7051301,7.979821 7.0616403,14.336332 15.0414623,15.041462 0.792142,0.07001 1.478964,-0.540372 1.478964,-1.335559 v -2.756917 c 0,-1.006536 -0.493017,-1.58276 -1.15594,-1.653032 -0.674515,-0.07153 -1.330588,-0.20495 -1.962359,-0.394459 -0.772805,-0.231805 -1.609392,-0.0136 -2.179934,0.556889 l -1.323337,1.323339 C 11.638833,38.63231 9.6737443,36.667219 8.3835711,34.283365 L 9.7069108,32.959983 C 10.277406,32.389486 10.495605,31.552855 10.2638,30.780095 Z"
       id="path7648"
       style="fill:none;stroke:#ffffff;stroke-width:1;stroke-linecap:round;stroke-linejoin:round;stroke-dasharray:none;stroke-opacity:1" /><path
       id="rect8330"
       style="fill-opacity:0;stroke:#ffffff;stroke-width:1;stroke-linecap:round;stroke-linejoin:round;stroke-dasharray:none;stroke-opacity:1;stop-color:#000000"
       d="m 23.983391,3.8124851 h 6.176702 c 7.601636,0 13.721364,5.9269877 13.721364,13.2892119 v 1.956098 c 0,7.362223 -6.119728,13.289212 -13.721364,13.289212 0,0 -4.118078,0.03284 -6.176702,0 -4.661951,-0.07439 -2.414429,4.025765 -4.590057,3.391644 -3.229927,-0.941412 -9.131308,-8.532472 -9.131308,-16.680856 v -1.956098 c 0,-7.3622242 6.119729,-13.2892119 13.721365,-13.2892119 z"
       sodipodi:nodetypes="ssssssssss" /><polyline
       class="st5"
       points="279.3,59.3 277.6,64.7 276,59.3 274.4,64.7 272.7,59.3   "
       id="polyline4395"
       style="fill:none;stroke:#ffffff;stroke-width:0.947884;stroke-linecap:round;stroke-linejoin:round;stroke-miterlimit:10;stroke-dasharray:none;stroke-opacity:1"
       transform="matrix(1.0549817,0,0,1.0549817,-273.28155,-50.990796)" /><line
       class="st5"
       x1="23.449638"
       y1="8.7210426"
       x2="23.449638"
       y2="17.266394"
       id="line4445"
       style="fill:none;stroke:#ffffff;stroke-width:1;stroke-linecap:round;stroke-linejoin:round;stroke-miterlimit:10;stroke-dasharray:none;stroke-opacity:1" /><path
       class="st5"
       d="m 23.449638,13.679458 c 0,-1.16048 0.949484,-2.109963 2.109963,-2.109963 v 0 c 1.16048,0 2.109964,0.949483 2.109964,2.109963 v 3.48144"
       id="path4447"
       style="fill:none;stroke:#ffffff;stroke-width:1;stroke-linecap:round;stroke-linejoin:round;stroke-miterlimit:10;stroke-dasharray:none;stroke-opacity:1" /><path
       class="st5"
       d="m 31.854325,17.266393 v 0 c -1.16048,0 -2.109963,-0.949484 -2.109963,-2.109964 v -1.371476 c 0,-1.16048 0.949483,-2.109963 2.109963,-2.109963 v 0 c 1.16048,0 2.109964,0.949483 2.109964,2.109963 v 1.371476 c 0,1.16048 -0.949484,2.109964 -2.109964,2.109964 z"
       id="path4423"
       style="fill:none;stroke:#ffffff;stroke-width:1;stroke-linecap:round;stroke-linejoin:round;stroke-miterlimit:10;stroke-dasharray:none;stroke-opacity:1" /><path
       class="st5"
       d="m 36.250083,16.8444 c 0.421992,0.316494 0.843985,0.421993 1.68797,0.421993 h 0.421993 c 0.738487,0 1.371476,-0.632989 1.371476,-1.371477 v 0 c 0,-0.738487 -0.632989,-1.371476 -1.371476,-1.371476 h -0.949484 c -0.738487,0 -1.371476,-0.632989 -1.371476,-1.371476 v 0 c 0,-0.738487 0.632989,-1.371476 1.371476,-1.371476 h 0.421993 c 0.949484,0 1.371476,0.105498 1.687971,0.421992"
       id="path4503"
       style="fill:none;stroke:#ffffff;stroke-width:1;stroke-linecap:round;stroke-linejoin:round;stroke-miterlimit:10;stroke-dasharray:none;stroke-opacity:1" /><path
       class="st5"
       d="m 22.583191,26.548666 c -0.316494,0.632989 -1.054981,1.054982 -1.793469,1.054982 v 0 c -1.160479,0 -2.109963,-0.949484 -2.109963,-2.109964 v -1.371476 c 0,-1.16048 0.949484,-2.109963 2.109963,-2.109963 v 0 c 0.738488,0 1.476975,0.421992 1.793469,1.054981"
       id="path4575"
       style="fill:none;stroke:#ffffff;stroke-width:1;stroke-linecap:round;stroke-linejoin:round;stroke-miterlimit:10;stroke-dasharray:none;stroke-opacity:1" /><path
       class="st5"
       d="m 28.766558,25.493685 c 0,1.160479 -0.949484,2.109963 -2.109964,2.109963 v 0 c -1.16048,0 -2.109963,-0.949484 -2.109963,-2.109963 v -1.371477 c 0,-1.160479 0.949483,-2.109963 2.109963,-2.109963 v 0 c 1.16048,0 2.109964,0.949484 2.109964,2.109963"
       id="path4601"
       style="fill:none;stroke:#ffffff;stroke-width:1;stroke-linecap:round;stroke-linejoin:round;stroke-miterlimit:10;stroke-dasharray:none;stroke-opacity:1" /><line
       class="st5"
       x1="28.766558"
       y1="27.603645"
       x2="28.766558"
       y2="21.906746"
       id="line4605"
       style="fill:none;stroke:#ffffff;stroke-width:1;stroke-linecap:round;stroke-linejoin:round;stroke-miterlimit:10;stroke-dasharray:none;stroke-opacity:1" /><path
       class="st5"
       d="m 31.067196,19.163794 v 7.384872 c 0,0.632989 0.421993,1.054982 1.054982,1.054982 h 0.316494"
       id="path4557"
       style="fill:none;stroke:#ffffff;stroke-width:1;stroke-linecap:round;stroke-linejoin:round;stroke-miterlimit:10;stroke-dasharray:none;stroke-opacity:1" /><path
       class="st5"
       d="m 34.092248,19.163794 v 7.384872 c 0,0.632989 0.421993,1.054982 1.054982,1.054982 h 0.316495"
       id="path4557-5"
       style="fill:none;stroke:#ffffff;stroke-width:1;stroke-linecap:round;stroke-linejoin:round;stroke-miterlimit:10;stroke-dasharray:none;stroke-opacity:1" /></g></svg>
