<?xml version="1.0" encoding="UTF-8"?>
<svg id="a" width="48" height="48" version="1.1" viewBox="0 0 48 48" xmlns="http://www.w3.org/2000/svg">
 <defs>
  <style>.b{fill:none;stroke:#fff;stroke-linecap:round;stroke-linejoin:round;}</style>
 </defs>
 <path d="m24.401 12.301v30.764m-2.7946-33.946s-7.8159 2.6789 1.796 8.6386c6.6721 4.1337 4.6554 6.3611 2.9698 7.4346m-4.8561-20.127c-7.5149 1.194-13.254 7.6253-13.254 15.371 0 7.3243 5.137 13.475 12.05 15.13m7.7256-0.07024c6.7925-1.7357 11.809-7.8259 11.809-15.07s-5.4581-13.836-12.682-15.261m-4.0181 33.67c-0.49163 0.75249-0.6321 1.5773 0.05016 2.2796m-0.43142-13.24c-1.0836 1.3043-1.4801 2.9857 1.279 4.5609 2.4251 1.3858 3.0872 2.67 1.6321 4.1803m-4.0702-27.498s-7.8159 2.6789 1.796 8.6386c6.6721 4.1337 4.6554 6.3611 2.9698 7.4346m-3.2782 8.7724c-1.2291 1.2501-1.2838 2.4183 1.5784 4.0524 2.117 1.204 1.2231 2.785 0.93102 3.1558m-2.9536-21.489c-3.3411 2.9297-1.7057 4.6253-0.301 5.5083 1.4421 0.9098 6.5536 3.5002 3.6706 6.2671m0.47317-14.464c7.7557-5.418 0.62206-7.8661 0.62206-7.8661" fill="none" stroke="#fff" stroke-linecap="round" stroke-linejoin="round"/>
</svg>
