<?xml version="1.0" encoding="UTF-8"?>
<!-- Created with Inkscape (http://www.inkscape.org/) -->
<svg width="48" height="48" version="1.1" viewBox="0 0 48 48" xml:space="preserve" xmlns="http://www.w3.org/2000/svg"><path d="m39.412 27.307c0.28287 0.61016 0.53387 1.2731 0.74818 1.9798 0.53742 1.7722 0.84414 3.7848 0.84414 5.9658-1.7e-5 0.21052-0.0029 0.42101-0.0088 0.63125l-33.986 0.0032c-0.0059-0.21131-0.0089-0.42288-0.0089-0.63448 0-1.0467 0.07219-2.089 0.21479-3.1014m28.108-4.7514c-0.28286 0.61016-0.5223 1.1454-0.73661 1.8521-0.53742 1.7722-0.84414 3.8196-0.84414 6.0006 1.6e-5 0.21052 0.0029 0.42101-0.02756 0.6329-0.01151-0.43119 1e-3 -0.8662 1e-3 -1.3015v0c0-4.3874-1.2412-8.2343-3.1047-10.387m-6.9049 0.01722c-0.5213 0.6058-0.9936 1.3444-1.4033 2.1905m17.334-6.4886c-0.65591-0.41387-1.4323-0.65327-2.2644-0.65327-2.3519 0-4.2584 1.9123-4.2584 4.2713 0 2.359 1.9066 4.2713 4.2584 4.2713s4.2584-1.9123 4.2584-4.2713c0-1.5244-0.7961-2.8622-1.994-3.6181 0.471-0.72024 2.3515-1.183 2.4951 0.24591 0.19065 1.8972 2.3851 1.5954 2.3667-0.09202m-10.829-1.4107a6.5265 6.5463 0 0 1-6.5265 6.5463 6.5265 6.5463 0 0 1-6.5265-6.5463 6.5265 6.5463 0 0 1 6.5265-6.5463 6.5265 6.5463 0 0 1 6.5265 6.5463zm-12.447 2.7416c-0.11037 0.88707-0.42911 1.7022-0.90325 2.3986m0.32928-5.5957c-0.93695-1.803-2.7958-2.9338-4.8229-2.9338-2.0121 0-3.7225 1.1239-4.7098 2.7252-0.80817 1.3108-1.8677 0.7717-2.5619-0.09329-0.65081 2.1438 0.95618 3.9598 1.9325 3.8679 0.48588 2.5131 2.6916 4.4106 5.3392 4.4106 1.8521 0 3.5084-0.93401 4.4937-2.3811 0.58609 0.60447 1.6022 1.7305 1.9837 2.6052-1.0483 2.1649-1.6865 5.0331-1.6865 8.1792 0 0.43532 0.01249 0.87033 0.03741 1.3032m-8.7129-5.4848c0.30746-0.55618 0.48253-1.1962 0.48253-1.8772 0-1.2319-0.64412-2.2478-1.466-3.0398l-2.7426-2.6426c-0.39858 0.13511-0.03799 1.0511-0.9857 0.62847-0.58249-0.25977-0.64081 0.03002-0.73643 0.42678-0.059184 0.24557 0.19737 0.62852-0.67097 0.47602-0.35713-0.06272-0.68654-0.19184-0.57278 0.54168 0.045037 0.2904 0.41084 0.82595-0.45822 0.75507-0.41093-0.03352-0.65183 0.05056-0.52368 0.52527 0.078651 0.29135 0.75874 0.74682-0.19638 0.82073-0.96515 0.07469-0.46145 0.61001-0.29457 0.82073 0.62256 0.78614 0.59664 0.96777-0.064512 1.0815l1.9824 2.2088c0.70449 0.78492 1.7286 1.274 2.8645 1.274 1.4556 0 2.7233-0.80712 3.3825-1.9995 1.1182 1.6176 1.3988 3.5076 1.465 5.4847-0.0059-0.21131-0.0088-0.42288-0.0088-0.63448 0-3.4743 0.79386-6.784 2.1828-9.1004" fill="none" stroke="#fff" stroke-linecap="round" stroke-linejoin="round"/></svg>
