<?xml version="1.0" encoding="UTF-8" standalone="no"?>
<!-- Created with Inkscape (http://www.inkscape.org/) -->

<svg
   width="48"
   height="48"
   viewBox="0 0 48 48"
   version="1.1"
   id="svg1"
   xml:space="preserve"
   inkscape:version="1.3.2 (091e20e, 2023-11-25, custom)"
   sodipodi:docname="familywall.svg"
   xmlns:inkscape="http://www.inkscape.org/namespaces/inkscape"
   xmlns:sodipodi="http://sodipodi.sourceforge.net/DTD/sodipodi-0.dtd"
   xmlns="http://www.w3.org/2000/svg"
   xmlns:svg="http://www.w3.org/2000/svg"><sodipodi:namedview
     id="namedview1"
     pagecolor="#505050"
     bordercolor="#eeeeee"
     borderopacity="1"
     inkscape:showpageshadow="0"
     inkscape:pageopacity="0"
     inkscape:pagecheckerboard="0"
     inkscape:deskcolor="#505050"
     inkscape:document-units="px"
     inkscape:zoom="17.9375"
     inkscape:cx="23.972125"
     inkscape:cy="28.404181"
     inkscape:window-width="1920"
     inkscape:window-height="1057"
     inkscape:window-x="-8"
     inkscape:window-y="-8"
     inkscape:window-maximized="1"
     inkscape:current-layer="svg1"
     showgrid="false" /><defs
     id="defs1" /><path
     id="path21"
     style="display:inline;fill:none;stroke:#ffffff;stroke-width:1;stroke-linecap:round;stroke-linejoin:round;stroke-opacity:1"
     d="m 39.412387,27.30686 c 0.282866,0.610159 0.533869,1.273091 0.748183,1.979802 0.537419,1.772159 0.844143,3.784804 0.844143,5.965818 -1.7e-5,0.210524 -0.0029,0.421013 -0.0088,0.631254 l -33.9859199,0.0032 c -0.0059,-0.211313 -0.0089,-0.422877 -0.0089,-0.634477 0,-1.046673 0.07219,-2.089003 0.214787,-3.101352 M 35.3243,27.399736 c -0.282865,0.610159 -0.522297,1.145416 -0.736611,1.852126 -0.537418,1.772156 -0.844142,3.819626 -0.844142,6.000638 1.6e-5,0.210524 0.0029,0.421013 -0.02756,0.632903 -0.01151,-0.431186 0.001,-0.866197 0.001,-1.301519 v 0 c 0,-4.387353 -1.241189,-8.234271 -3.104657,-10.386925 m -6.904892,0.01722 c -0.521302,0.6058 -0.993603,1.344423 -1.403279,2.190473 m 17.333835,-6.48858 c -0.655912,-0.413873 -1.432296,-0.653268 -2.264419,-0.653268 -2.351872,0 -4.258445,1.912348 -4.258445,4.271343 0,2.358996 1.906573,4.271344 4.258445,4.271344 2.351872,0 4.258444,-1.912348 4.258444,-4.271344 0,-1.524351 -0.796102,-2.862203 -1.994025,-3.618075 0.470996,-0.720237 2.35152,-1.182961 2.495108,0.245914 0.190648,1.897169 2.385066,1.595448 2.366737,-0.09202 m -10.829254,-1.41072 a 6.5265298,6.5462985 0 0 1 -6.52653,6.546298 6.5265298,6.5462985 0 0 1 -6.52653,-6.546298 6.5265298,6.5462985 0 0 1 6.52653,-6.546299 6.5265298,6.5462985 0 0 1 6.52653,6.546299 z m -12.446901,2.741609 c -0.110374,0.887068 -0.429112,1.702238 -0.903249,2.398597 m 0.329275,-5.59567 c -0.936952,-1.803011 -2.795838,-2.933758 -4.822935,-2.933758 -2.012124,0 -3.722483,1.123924 -4.709776,2.72522 -0.80817,1.310777 -1.8676549,0.7717 -2.5618879,-0.09329 -0.650814,2.143792 0.956178,3.959766 1.9324969,3.867925 0.485879,2.513141 2.6916,4.410644 5.339169,4.410644 1.852056,0 3.508381,-0.934008 4.493658,-2.381071 0.58609,0.604471 1.602199,1.730491 1.983724,2.605197 -1.048274,2.164864 -1.686519,5.033098 -1.686519,8.179236 0,0.435322 0.01249,0.870332 0.03741,1.303168 m -8.712857,-5.484751 c 0.307463,-0.55618 0.482534,-1.196182 0.482534,-1.877199 0,-1.231935 -0.644123,-2.247831 -1.466036,-3.039756 L 8.2160591,22.842782 c -0.398579,0.135109 -0.03799,1.051116 -0.985697,0.628467 -0.5824884,-0.25977 -0.6408057,0.03002 -0.7364286,0.426781 -0.059184,0.245569 0.1973699,0.62852 -0.6709685,0.476025 -0.3571253,-0.06272 -0.6865408,-0.191838 -0.5727778,0.541683 0.045037,0.290396 0.4108382,0.825951 -0.4582223,0.755074 -0.4109272,-0.03352 -0.6518306,0.05056 -0.5236827,0.525269 0.078651,0.291352 0.7587369,0.746817 -0.196381,0.820733 -0.9651473,0.07469 -0.4614493,0.610008 -0.2945714,0.820732 0.6225599,0.786135 0.5966429,0.967774 -0.064512,1.081509 l 1.9824421,2.208769 c 0.70449,0.784918 1.7285842,1.273988 2.8644652,1.273988 1.4556209,0 2.7232999,-0.807117 3.3824669,-1.99951 1.118163,1.617637 1.39879,3.50756 1.46497,5.484658 -0.0059,-0.211314 -0.0088,-0.422878 -0.0088,-0.634477 0,-3.474253 0.793862,-6.784003 2.182781,-9.100407" /></svg>
