<?xml version="1.0" encoding="UTF-8"?>
<!-- Created with Inkscape (http://www.inkscape.org/) -->
<svg width="48" height="48" version="1.1" viewBox="0 0 48 48" xml:space="preserve" xmlns="http://www.w3.org/2000/svg"><path d="m37.531 29.377h1.7739m-1.8528-10.693 0.68986-0.0099m1.0446 0.05913h0.56174m0 0h0.56174m-1.8528 6.8199v3.8041m-1.6951-10.663 0.68986-0.0099 1.0052 6.8691 1.291-6.8199m-5.824-0.01455 0.61582-0.05132m-1.2316 0.10264 0.61582-0.05132-0.03421 6.7056-0.22238 4.02-1.779-10.845-0.68202 0.03897m-0.51541 0.02945 0.51541-0.02945 0.04909 10.806h0.61582m-1.2316 3e-6h0.61582m-3.4512-10.726 0.61582-0.05132m-1.2316 0.10264 0.61582-0.05132-0.03421 6.7056-0.22238 4.02-1.779-10.845-0.68202 0.03897m-0.51541 0.02945 0.51541-0.02945 0.04909 10.806h0.61582m-1.2316 3e-6h0.61582m-4.3632-0.02425h0.82846m-2.4638-0.09375h-0.70838m1.2702-0.20992-0.56182 0.20992c0.14036-0.97439 0.274-1.9515 0.36373-2.9461m1.8127-0.0089c-0.23412-2.5189-0.4449-5.0436-0.51913-7.6024l-0.67396 0.01105c-0.15688 1.5428-0.29416 3.2145-0.50991 4.9339 0.01389 0.909-0.03102 1.7945-0.10969 2.6665l1.8127-0.0089c0.09449 1.0166 0.19277 2.0322 0.28742 3.0488h0.79654m-8.1644-0.22059h-1.6162m0.77136-6.4258 0.01608 2.819m0 0 0.02068 3.6265m-0.63073-10.249c0.27894-0.05906-0.01602-0.2424 0.5716-0.11826l0.0053 0.92602m1.6701 4.2972c0.57908 0 0.72928-0.67796 0.72928-1.3009v-3.4099c0-0.29064-0.04246-0.62987-0.59131-0.80812-0.32662-0.10608-0.8318-0.11047-1.1038 0-0.59045 0.23983-0.70695 0.75514-0.70429 1.2217l0.01709 2.9961c-0.08604 0.70307 0.3317 1.3011 0.90401 1.3011m0 0h0.74899c0.80335 0.26027 0.67998 1.1131 0.67998 2.2864v2.72c0 0.27917 0.36643 0.20836 0.60116 0.22667m-7.2534-3.9322 0.82783-0.07884 0.0099 4.0603c-1.9598 0.52105-2.1793-0.01975-2.1793-2.0499 0-0.96191-0.038174-2.0524-0.038174-2.9565v-4.6516c0.049159-1.4548 1.3175-1.1639 2.3258-1.1038l-0.07884 2.7594m0.78841 3.8632-0.7687 0.09855m30.544-19.816h-33a2 2 0 0 0-2 2v33a2 2 0 0 0 2 2h33a2 2 0 0 0 2-2v-33a2 2 0 0 0-2-2z" fill="none" stroke="#fff" stroke-linecap="round" stroke-linejoin="round"/></svg>
