<?xml version="1.0" encoding="UTF-8" standalone="no"?>
<!-- Created with Inkscape (http://www.inkscape.org/) -->

<svg
   width="48"
   height="48"
   viewBox="0 0 48 48"
   version="1.1"
   id="svg1"
   xml:space="preserve"
   inkscape:version="1.3.2 (091e20e, 2023-11-25, custom)"
   sodipodi:docname="granny.svg"
   xmlns:inkscape="http://www.inkscape.org/namespaces/inkscape"
   xmlns:sodipodi="http://sodipodi.sourceforge.net/DTD/sodipodi-0.dtd"
   xmlns="http://www.w3.org/2000/svg"
   xmlns:svg="http://www.w3.org/2000/svg"><sodipodi:namedview
     id="namedview1"
     pagecolor="#505050"
     bordercolor="#eeeeee"
     borderopacity="1"
     inkscape:showpageshadow="0"
     inkscape:pageopacity="0"
     inkscape:pagecheckerboard="0"
     inkscape:deskcolor="#505050"
     inkscape:document-units="px"
     inkscape:zoom="11.313708"
     inkscape:cx="33.410795"
     inkscape:cy="35.04598"
     inkscape:window-width="1920"
     inkscape:window-height="1057"
     inkscape:window-x="-8"
     inkscape:window-y="-8"
     inkscape:window-maximized="1"
     inkscape:current-layer="svg1" /><defs
     id="defs1" /><path
     id="path9"
     style="fill:none;stroke:#ffffff;stroke-linecap:round;stroke-linejoin:round;stroke-opacity:1"
     d="m 37.531116,29.376792 h 0.886963 0.886964 m -1.852768,-10.692879 0.68986,-0.0099 m 1.044646,0.05913 h 0.561743 m 0,0 h 0.561744 M 38.4575,25.552995 v 3.804087 m -1.695085,-10.663269 0.68986,-0.0099 1.005225,6.869082 1.291024,-6.819852 m -5.824043,-0.01455 0.615823,-0.05132 m -1.231646,0.10264 0.615823,-0.05132 -0.03421,6.705632 -0.22238,4.019957 -1.779045,-10.845331 -0.682024,0.03897 m -0.51541,0.02945 0.51541,-0.02945 0.04909,10.806358 h 0.615824 m -1.231646,3e-6 h 0.615823 m -3.451174,-10.725589 0.615823,-0.05132 m -1.231646,0.10264 0.615823,-0.05132 -0.03421,6.705632 -0.22238,4.019957 -1.779045,-10.845331 -0.682024,0.03897 m -0.51541,0.02945 0.51541,-0.02945 0.04909,10.806358 h 0.615824 m -1.231646,3e-6 h 0.615823 m -4.363239,-0.02425 h 0.828456 m -2.463825,-0.09375 h -0.708381 m 1.270201,-0.209922 -0.56182,0.209922 c 0.140358,-0.974394 0.273998,-1.951475 0.363727,-2.94612 m 1.81268,-0.0089 c -0.234115,-2.518879 -0.444899,-5.04359 -0.519126,-7.602441 l -0.673961,0.01105 c -0.156885,1.542764 -0.294156,3.214507 -0.509907,4.933866 0.01389,0.909 -0.03102,1.794478 -0.109686,2.666456 l 1.81268,-0.0089 c 0.09449,1.016597 0.192774,2.032243 0.287418,3.048801 h 0.796544 M 14.233549,29.1994 h -0.808122 -0.808122 m 0.771361,-6.425796 0.01608,2.819042 m 0,0 0.02068,3.626464 M 12.794698,18.969756 c 0.278945,-0.05906 -0.01602,-0.242403 0.571598,-0.11826 l 0.0053,0.926016 m 1.670095,4.297211 c 0.579076,0 0.729281,-0.677955 0.729281,-1.300879 v -3.409881 c 0,-0.290636 -0.04246,-0.629868 -0.591309,-0.808122 -0.32662,-0.106079 -0.831804,-0.11047 -1.103776,0 -0.590448,0.23983 -0.706952,0.755144 -0.704291,1.221671 l 0.01709,2.996092 c -0.08604,0.703069 0.331702,1.301119 0.904014,1.301119 m 0,0 h 0.748991 c 0.803352,0.260274 0.679985,1.11311 0.679985,2.286395 v 2.72002 c 0,0.279168 0.366426,0.208362 0.601164,0.226668 m -7.2533875,-3.932203 0.8278327,-0.07884 0.0099,4.060319 c -1.9598034,0.521046 -2.1792794,-0.01975 -2.1792794,-2.049919 0,-0.961914 -0.038174,-2.052405 -0.038174,-2.956495 v -4.65163 c 0.049159,-1.454846 1.3175239,-1.163893 2.3258142,-1.103776 l -0.07884,2.759441 m 0.788411,3.86322 -0.768702,0.09855 M 40.5,5.5 h -33 a 2,2 0 0 0 -2,2 v 33 a 2,2 0 0 0 2,2 h 33 a 2,2 0 0 0 2,-2 v -33 a 2,2 0 0 0 -2,-2 z" /></svg>
