<?xml version="1.0" encoding="UTF-8" standalone="no"?>
<!-- Created with Inkscape (http://www.inkscape.org/) -->

<svg
   width="48"
   height="48"
   viewBox="0 0 48 48"
   version="1.1"
   id="svg1"
   xml:space="preserve"
   inkscape:version="1.3.2 (091e20e, 2023-11-25, custom)"
   sodipodi:docname="huachiew_connect.svg"
   xmlns:inkscape="http://www.inkscape.org/namespaces/inkscape"
   xmlns:sodipodi="http://sodipodi.sourceforge.net/DTD/sodipodi-0.dtd"
   xmlns="http://www.w3.org/2000/svg"
   xmlns:svg="http://www.w3.org/2000/svg"><sodipodi:namedview
     id="namedview1"
     pagecolor="#505050"
     bordercolor="#eeeeee"
     borderopacity="1"
     inkscape:showpageshadow="0"
     inkscape:pageopacity="0"
     inkscape:pagecheckerboard="0"
     inkscape:deskcolor="#505050"
     inkscape:document-units="px"
     inkscape:zoom="12.683728"
     inkscape:cx="14.979823"
     inkscape:cy="26.687737"
     inkscape:window-width="1920"
     inkscape:window-height="1057"
     inkscape:window-x="-8"
     inkscape:window-y="-8"
     inkscape:window-maximized="1"
     inkscape:current-layer="svg1" /><defs
     id="defs1" /><path
     id="path10703"
     style="fill:none;stroke:#ffffff;stroke-linecap:round;stroke-linejoin:round;stroke-opacity:1"
     class="a"
     d="m 40.5,5.5 h -33 a 2,2 0 0 0 -2,2 v 33 a 2,2 0 0 0 2,2 h 33 a 2,2 0 0 0 2,-2 v -33 a 2,2 0 0 0 -2,-2 z M 23.235142,37.253285 V 32.51623 l 3.227742,4.737055 V 32.51623 m -8.500092,4.737055 V 32.51623 l 3.227742,4.737055 V 32.51623 m -6.694667,-2.1e-5 c 0.894085,0 1.613872,0.69984 1.613872,1.569149 v 1.598756 c 0,0.869309 -0.719787,1.569149 -1.613872,1.569149 -0.894084,0 -1.613871,-0.69984 -1.613871,-1.569149 v -1.598756 c 0,-0.869309 0.719787,-1.569149 1.613871,-1.569149 z m -3.271439,3.148508 v 0.01942 c 0,0.866644 -0.722527,1.569149 -1.6138711,1.569149 v 0 c -0.8913438,0 -1.6138713,-0.702505 -1.6138713,-1.569149 V 34.08538 c 0,-0.866643 0.7225275,-1.569149 1.6138713,-1.569149 v 0 c 0.8913441,0 1.6138711,0.702506 1.6138711,1.569149 v 0.01942 m 19.664501,3.148488 h -2.436032 v -4.737054 h 2.436032 m -2.436032,2.368527 h 1.588293 m 8.34825,2.368527 v -4.737054 m -1.61387,0 h 3.227736 m -4.582395,3.148483 v 0.01942 c 0,0.866644 -0.722526,1.569149 -1.61387,1.569149 v 0 c -0.891344,0 -1.613871,-0.702505 -1.613871,-1.569149 V 34.08538 c 0,-0.866643 0.722527,-1.569149 1.613871,-1.569149 v 0 c 0.891344,0 1.61387,0.702506 1.61387,1.569149 v 0.01942 m 4.57909,-13.221264 -1.76775,7.158668 -1.767749,-7.158668 -1.76775,7.158668 -1.767749,-7.158668 m -2.673649,7.158597 h -3.535499 v -7.158668 h 3.535499 m -3.535499,3.579336 H 29.025 m -5.745339,-3.579336 v 7.158668 M 15.09011,24.449286 h 4.684538 m 0,-3.565821 v 7.158669 M 15.09011,20.883465 v 7.158669 m -2.405572,-2.400659 v 0.02935 c 0,1.309679 -1.048629,2.37131 -2.342268,2.37131 v 0 c -1.2936396,0 -2.3422686,-1.061631 -2.3422686,-2.37131 v -2.41605 c 0,-1.309678 1.048629,-2.371309 2.3422686,-2.371309 v 0 c 1.293639,0 2.342268,1.061631 2.342268,2.371309 v 0.02935 m 16.912302,-5.374637 2.348777,-7.164994 2.348776,7.164994 m -0.778018,-2.373402 h -3.141514 m -8.723637,-4.791543 v 4.791589 c 0,1.310836 1.051544,2.373404 2.348777,2.373404 1.297234,0 2.348778,-1.062568 2.348778,-2.373404 v -4.791589 m -12.643172,3.56897 h 4.697556 m 0,-3.56897 v 7.164995 m -4.697556,-7.164995 v 7.164995" /></svg>
