<?xml version="1.0" encoding="UTF-8"?>
<!-- Created with Inkscape (http://www.inkscape.org/) -->
<svg width="48" height="48" version="1.1" viewBox="0 0 48 48" xml:space="preserve" xmlns="http://www.w3.org/2000/svg"><path class="a" d="m40.5 5.5h-33a2 2 0 0 0-2 2v33a2 2 0 0 0 2 2h33a2 2 0 0 0 2-2v-33a2 2 0 0 0-2-2zm-17.265 31.753v-4.7371l3.2277 4.7371v-4.7371m-8.5001 4.7371v-4.7371l3.2277 4.7371v-4.7371m-6.6947-2.1e-5c0.89408 0 1.6139 0.69984 1.6139 1.5691v1.5988c0 0.86931-0.71979 1.5691-1.6139 1.5691-0.89408 0-1.6139-0.69984-1.6139-1.5691v-1.5988c0-0.86931 0.71979-1.5691 1.6139-1.5691zm-3.2714 3.1485v0.01942c0 0.86664-0.72253 1.5691-1.6139 1.5691v0c-0.89134 0-1.6139-0.7025-1.6139-1.5691v-1.5988c0-0.86664 0.72253-1.5691 1.6139-1.5691v0c0.89134 0 1.6139 0.70251 1.6139 1.5691v0.01942m19.665 3.1485h-2.436v-4.7371h2.436m-2.436 2.3685h1.5883m8.3482 2.3685v-4.7371m-1.6139 0h3.2277m-4.5824 3.1485v0.01942c0 0.86664-0.72253 1.5691-1.6139 1.5691v0c-0.89134 0-1.6139-0.7025-1.6139-1.5691v-1.5988c0-0.86664 0.72253-1.5691 1.6139-1.5691v0c0.89134 0 1.6139 0.70251 1.6139 1.5691v0.01942m4.5791-13.221-1.7678 7.1587-1.7677-7.1587-1.7678 7.1587-1.7677-7.1587m-2.6736 7.1586h-3.5355v-7.1587h3.5355m-3.5355 3.5793h2.3051m-5.7453-3.5793v7.1587m-8.1896-3.5928h4.6845m0-3.5658v7.1587m-4.6845-7.1587v7.1587m-2.4056-2.4007v0.02935c0 1.3097-1.0486 2.3713-2.3423 2.3713v0c-1.2936 0-2.3423-1.0616-2.3423-2.3713v-2.416c0-1.3097 1.0486-2.3713 2.3423-2.3713v0c1.2936 0 2.3423 1.0616 2.3423 2.3713v0.02935m16.912-5.3746 2.3488-7.165 2.3488 7.165m-0.77802-2.3734h-3.1415m-8.7236-4.7915v4.7916c0 1.3108 1.0515 2.3734 2.3488 2.3734 1.2972 0 2.3488-1.0626 2.3488-2.3734v-4.7916m-12.643 3.569h4.6976m0-3.569v7.165m-4.6976-7.165v7.165" fill="none" stroke="#fff" stroke-linecap="round" stroke-linejoin="round"/></svg>
