<?xml version="1.0" encoding="UTF-8"?>
<!-- Created with Inkscape (http://www.inkscape.org/) -->
<svg width="48" height="48" version="1.1" viewBox="0 0 48 48" xml:space="preserve" xmlns="http://www.w3.org/2000/svg"><path class="a" d="m40.5 5.5h-33a2 2 0 0 0-2 2v33a2 2 0 0 0 2 2h33a2 2 0 0 0 2-2v-33a2 2 0 0 0-2-2zm-26.649 14.854 1.5573-0.71258 1.5573 0.71258m20.654 5.4895c0.29624 0.24493 0.616 0.35725 1.3343 0.35725h0.36397c0.59231 0 1.0724-0.47389 1.0724-1.0585v0c0-0.58461-0.48012-1.0585-1.0724-1.0585h-0.72793c-0.59231 0-1.0724-0.47389-1.0724-1.0585v0c0-0.58461 0.48012-1.0585 1.0724-1.0585h0.36397c0.7182 0 1.038 0.11224 1.3343 0.35725m-4.6477 2.279v1.5977m-3.2446-4.234v2.6363c0 0.88243 0.72631 1.5977 1.6223 1.5977v0c0.89601 0 1.6223-0.71531 1.6223-1.5977v-2.6363m-8.3663-1e-6v6.391m-2e-6 -3.7547c0 0.88243 0.72631 1.5977 1.6223 1.5977v0c0.89601 0 1.6223-0.71531 1.6223-1.5977v-1.0385c0-0.88243-0.72631-1.5977-1.6223-1.5977v0c-0.89601 0-1.6223 0.71531-1.6223 1.5977m-5.1217 0c0-0.88243 0.72631-1.5977 1.6223-1.5977v0c0.89601 0 1.6223 0.71531 1.6223 1.5977v2.6363m-6.4893-4.234v4.234m-2e-6 -2.6363c0-0.88243 0.72631-1.5977 1.6223-1.5977v0c0.89601 0 1.6223 0.71531 1.6223 1.5977v2.6363m-5.1217 2e-6v-4.234m-1e-6 2.6363c0 0.88243-0.72631 1.5977-1.6223 1.5977v0c-0.89601 0-1.6223-0.71531-1.6223-1.5977v-1.0385c0-0.88243 0.72631-1.5977 1.6223-1.5977v0c0.89601 0 1.6223 0.71531 1.6223 1.5977m-5.1217 0.49306v0.02621c0 1.1692-0.96236 2.117-2.1496 2.117v0c-1.1872 0-2.1496-0.94778-2.1496-2.117v-2.1569c0-1.1692 0.96236-2.117 2.1496-2.117v0c1.1872 0 2.1496 0.94778 2.1496 2.117v0.02621" fill="none" stroke="#fff" stroke-linecap="round" stroke-linejoin="round"/></svg>
