<?xml version="1.0" encoding="UTF-8" standalone="no"?>
<!-- Created with Inkscape (http://www.inkscape.org/) -->

<svg
   width="48"
   height="48"
   viewBox="0 0 48 48"
   version="1.1"
   id="svg1"
   xml:space="preserve"
   inkscape:version="1.3.2 (091e20e, 2023-11-25, custom)"
   sodipodi:docname="krungthai_campus.svg"
   xmlns:inkscape="http://www.inkscape.org/namespaces/inkscape"
   xmlns:sodipodi="http://sodipodi.sourceforge.net/DTD/sodipodi-0.dtd"
   xmlns="http://www.w3.org/2000/svg"
   xmlns:svg="http://www.w3.org/2000/svg"><sodipodi:namedview
     id="namedview1"
     pagecolor="#505050"
     bordercolor="#eeeeee"
     borderopacity="1"
     inkscape:showpageshadow="0"
     inkscape:pageopacity="0"
     inkscape:pagecheckerboard="0"
     inkscape:deskcolor="#505050"
     inkscape:document-units="px"
     inkscape:zoom="17.9375"
     inkscape:cx="23.972125"
     inkscape:cy="28.404181"
     inkscape:window-width="1920"
     inkscape:window-height="1057"
     inkscape:window-x="-8"
     inkscape:window-y="-8"
     inkscape:window-maximized="1"
     inkscape:current-layer="svg1" /><defs
     id="defs1" /><path
     id="path10703"
     style="fill:none;stroke:#ffffff;stroke-width:1;stroke-linecap:round;stroke-linejoin:round;stroke-dasharray:none;stroke-opacity:1"
     class="a"
     d="m 40.5,5.5 h -33 a 2,2 0 0 0 -2,2 v 33 a 2,2 0 0 0 2,2 h 33 a 2,2 0 0 0 2,-2 v -33 a 2,2 0 0 0 -2,-2 z m -26.648997,14.854452 1.557312,-0.712581 1.557314,0.712581 m 20.653897,5.489475 c 0.296236,0.244933 0.615995,0.357254 1.334276,0.357254 h 0.363968 c 0.592308,0 1.072433,-0.473889 1.072433,-1.058501 v 0 c 0,-0.584613 -0.480125,-1.058501 -1.072433,-1.058501 h -0.727934 c -0.592309,0 -1.072434,-0.473889 -1.072434,-1.058502 v 0 c 0,-0.584612 0.480125,-1.0585 1.072434,-1.0585 h 0.363966 c 0.718201,0 1.03804,0.11224 1.334276,0.357253 m -4.647731,2.279014 v 1.597737 m -3.244638,-4.234007 v 2.636267 c 0,0.882431 0.726313,1.597737 1.62232,1.597737 v 0 c 0.896006,0 1.622318,-0.715306 1.622318,-1.597737 v -2.636267 m -8.366327,-1e-6 v 6.390951 m -2e-6,-3.754682 c 0,0.882431 0.726312,1.597737 1.622318,1.597737 v 0 c 0.896007,0 1.62232,-0.715306 1.62232,-1.597737 v -1.03853 c 0,-0.88243 -0.726313,-1.597737 -1.62232,-1.597737 v 0 c -0.896006,0 -1.622318,0.715307 -1.622318,1.597737 m -5.121692,0 c 0,-0.882429 0.726312,-1.597737 1.622318,-1.597737 v 0 c 0.896007,0 1.622319,0.715308 1.622319,1.597737 v 2.636267 M 18.90769,21.967173 v 4.234008 m -2e-6,-2.636269 c 0,-0.882429 0.726313,-1.597737 1.622319,-1.597737 v 0 c 0.896007,0 1.622319,0.715308 1.622319,1.597737 v 2.636267 m -5.121691,2e-6 v -4.234007 m -1e-6,2.636269 c 0,0.88243 -0.726313,1.597737 -1.62232,1.597737 v 0 c -0.896006,0 -1.622318,-0.715307 -1.622318,-1.597737 v -1.03853 c 0,-0.88243 0.726312,-1.597737 1.622318,-1.597737 v 0 c 0.896007,0 1.62232,0.715307 1.62232,1.597737 m -5.121693,0.493063 v 0.02621 c 0,1.169224 -0.962358,2.117002 -2.1495714,2.117002 v 0 c -1.1872129,0 -2.1495722,-0.947778 -2.1495722,-2.117002 V 21.92724 c 0,-1.169225 0.9623593,-2.117003 2.1495722,-2.117003 v 0 c 1.1872134,0 2.1495714,0.947778 2.1495714,2.117003 v 0.02621" /></svg>
