<?xml version="1.0" encoding="UTF-8"?>
<!-- Created with Inkscape (http://www.inkscape.org/) -->
<svg width="48" height="48" version="1.1" viewBox="0 0 48 48" xml:space="preserve" xmlns="http://www.w3.org/2000/svg"><path d="m15.036 21.454 1.3614 0.26699m9.4499 1.415 1.4949 0.0534m-8.8741-3.4504c-0.17924 1.0389-0.67197 1.8212-1.1006 1.7472-0.42859-0.07396-0.63072-0.97614-0.45149-2.0151 0.17924-1.0389 0.67197-1.8212 1.1006-1.7472 0.42859 0.07396 0.63072 0.97614 0.45149 2.0151zm7.7681 1.1147c-0.17924 1.0389-0.67197 1.8212-1.1006 1.7472-0.42859-0.07396-0.63072-0.97614-0.45149-2.0151 0.17924-1.0389 0.67198-1.8212 1.1006-1.7472 0.42859 0.07396 0.63072 0.97614 0.45149 2.0151zm-8.8811-4.0723c0.12579-0.27034 0.29593-0.58086 0.53713-0.9608m1.7351-7.796c-3.0724 3.3104-4.0289 7.9487-3.921 11.59m0.29056 3.7083c0.71844 0.91033 1.2651 1.3749 2.5102 1.6663l-5.3387-0.06865c0.04638-0.49699-0.0028-0.86658 0.23917-1.6244-0.22232-5.186 0.38504-8.7561 1.363-11.224m12.839 0.59783c0.13138 3.0021 0.53556 6.6338-0.3922 9.1882m-6.2014-2.1398c1.0961-0.21926 1.6202-0.79605 2.1623-1.3616m-3.3368 1.3349c-0.55491-1.7399-0.87863-3.6882-0.7198-5.6686m0 0c0.09478-1.1818 0.3614-2.3751 0.85328-3.5424m5.9293 5.1673c-0.4415 1.8132-1.2526 3.3087-2.5391 4.4442m2.9097-10.092c0.12506 2.1203 0.02739 4.0132-0.37063 5.6479 0.3286 0.67618 0.52681 1.2881 0.64739 1.8633m-13.383 7.4091-2.5908-0.03331m0 0c-0.07507 2.4585-0.25746 5.4551-0.37731 8.3033-0.34653-0.11251-0.38723-0.13491-1.5186-0.28116-0.5977-0.07726-0.84312-0.19508-1.6988-0.03776 1.1917-2.6658 2.1308-5.5001 3.5948-7.9844zm15.413 18.613c-0.05353-5.6447 0.35235-12.304 0.52853-18.408l2.4916 7.4962 9.0616-0.057m-7.9277-7.6372c-1.7097 0.0047-3.123 0.05076-3.6256 0.19795m-16.319 8.0983c-0.17248 4.099-0.2154 7.8907 0.37764 9.3288l15.413 0.98111c5.8002-0.22736 8.247-0.17687 12.002-0.44714l0.0794-10.522m-6.8397-16.203c0.0543-3.028-0.53897-5.8859-2.3692-8.0901 0.30018 0.046387 0.60219 0.093473 0.90362 0.13721-2.2468-2.0703-5.0878-2.5881-8.565-1.9527-0.20814 0.038035-0.45681 0.086433-0.73544 0.15703m-1.9598 18.41 8.0123 0.10302m-11.118-14.378c-0.22266 0.41097-0.43408 0.86227-0.63055 1.3581-0.90922-2.356-0.95374-4.4023-0.74899-6.8244m0 0c0.02205-0.26081 0.16017-0.49838 0.24025-0.74756-0.08211-0.012634 2.162 0.47103 4.1142 1.3787 0.87164 0.40525 2.091 0.70068 2.091 0.70068m9.3004 1.7957c0.76181 0.11054 1.5199 0.19966 2.2349 0.20185 1.5667 0.00479 3.0241 0.3168 4.6059 0.86031m-16.141-2.8578c-1.3821 0.35023-3.5013 1.2468-5.0659 4.1346m15.512 9.1782c0.18086-1.1949 0.29888-2.3923 0.31989-3.5642 1.0666-0.58633 1.9917-0.74794 2.7027-0.26735m1.2537 1.8822c-0.09572-0.77581-0.52257-1.5127-1.2537-1.8822l2.714-6.4375c-1.4304 0.98344-3.1526 2.0417-4.5559 3.9812-0.68373 0.94496-0.61027 1.8393-0.8608 2.7236m3.7433 8.6098c-1.5569-0.01935-3.3113-0.04793-4.8313-0.04376l0.08017-1.4913c0.26873-1.1496 0.50906-2.3288 0.68793-3.5106 0.56815 0.43491 0.9617 0.88291 2.3019 0.70722 1.4944-0.19591 2.1207-1.4716 1.9745-2.6566 0.76577 1.4394 0.0071 3.3498-0.10588 5.2197l-0.10727 1.7753c0.78136 0.0097 1.513 0.0171 2.1403 0.01686l3.8995 7.558-2.9434 0.01851" fill="none" stroke="#fff" stroke-linecap="round" stroke-linejoin="round" style="-inkscape-stroke:none"/></svg>
