<?xml version="1.0" encoding="UTF-8" standalone="no"?>
<!-- Created with Inkscape (http://www.inkscape.org/) -->

<svg
   width="48"
   height="48"
   viewBox="0 0 48 48"
   version="1.1"
   id="svg1"
   xml:space="preserve"
   sodipodi:docname="nekobox.svg"
   inkscape:version="1.3.2 (091e20e, 2023-11-25, custom)"
   xmlns:inkscape="http://www.inkscape.org/namespaces/inkscape"
   xmlns:sodipodi="http://sodipodi.sourceforge.net/DTD/sodipodi-0.dtd"
   xmlns="http://www.w3.org/2000/svg"
   xmlns:svg="http://www.w3.org/2000/svg"><sodipodi:namedview
     id="namedview1"
     pagecolor="#505050"
     bordercolor="#eeeeee"
     borderopacity="1"
     inkscape:showpageshadow="0"
     inkscape:pageopacity="0"
     inkscape:pagecheckerboard="0"
     inkscape:deskcolor="#505050"
     inkscape:document-units="px"
     inkscape:zoom="17.9375"
     inkscape:cx="23.972125"
     inkscape:cy="24"
     inkscape:window-width="1920"
     inkscape:window-height="1057"
     inkscape:window-x="-8"
     inkscape:window-y="-8"
     inkscape:window-maximized="1"
     inkscape:current-layer="svg1" /><defs
     id="defs1" /><path
     id="path10"
     style="fill:none;stroke:#ffffff;stroke-width:0.999998;stroke-linecap:round;stroke-linejoin:round;stroke-opacity:1;-inkscape-stroke:none"
     d="m 15.036452,21.453597 1.361425,0.266987 m 9.449889,1.415032 1.494897,0.0534 m -8.874064,-3.45038 c -0.179236,1.038937 -0.671974,1.821203 -1.10056,1.747241 -0.428586,-0.07396 -0.630723,-0.976145 -0.451487,-2.015081 0.179237,-1.038936 0.671974,-1.821202 1.10056,-1.74724 0.428586,0.07396 0.630723,0.976144 0.451487,2.01508 z m 7.768122,1.114668 c -0.179236,1.038935 -0.671973,1.821201 -1.100559,1.74724 -0.428587,-0.07396 -0.630725,-0.976143 -0.451489,-2.01508 0.179236,-1.038938 0.671975,-1.821205 1.100561,-1.747241 0.428586,0.07396 0.630723,0.976145 0.451487,2.015081 z m -8.881079,-4.072333 c 0.125792,-0.27034 0.295933,-0.580864 0.537133,-0.960802 M 19.627923,8.0241424 C 16.555497,11.33453 15.599024,15.972842 15.706898,19.614209 m 0.290555,3.708298 c 0.718445,0.910334 1.265128,1.374878 2.51018,1.6663 l -5.338724,-0.06865 c 0.04638,-0.496992 -0.0028,-0.866583 0.239167,-1.62435 -0.222324,-5.186005 0.385042,-8.756126 1.362963,-11.223924 m 12.838569,0.597833 c 0.131381,3.002077 0.535555,6.633824 -0.392203,9.188239 m -6.201363,-2.139778 c 1.096091,-0.219256 1.620212,-0.796048 2.162262,-1.361634 M 19.84148,19.691478 C 19.286572,17.951557 18.962847,16.00331 19.121677,14.022861 m 0,0 c 0.09478,-1.181821 0.361401,-2.375109 0.853276,-3.54244 m 5.929295,5.167301 c -0.441502,1.813222 -1.252558,3.30866 -2.539081,4.444238 M 26.27488,9.9998475 c 0.125064,2.1203415 0.02739,4.0132435 -0.370631,5.6478775 0.328604,0.676177 0.526809,1.288144 0.647394,1.863345 m -13.382729,7.40909 -2.590791,-0.03331 m 0,0 c -0.07507,2.45851 -0.257462,5.455094 -0.377307,8.303278 -0.3465289,-0.112509 -0.3872316,-0.134906 -1.5186394,-0.28116 -0.5976954,-0.07726 -0.843125,-0.195081 -1.698834,-0.03776 1.1916861,-2.665837 2.1308057,-5.500078 3.5947804,-7.98436 z M 25.991408,43.5 c -0.05353,-5.644678 0.352351,-12.304017 0.528527,-18.408177 l 2.491622,7.496206 9.061648,-0.057 m -7.927692,-7.637162 c -1.709724,0.0047 -3.123035,0.05076 -3.625578,0.197951 m -16.319119,8.09831 c -0.172479,4.099046 -0.2153999,7.890727 0.377637,9.328757 l 15.412955,0.981114 c 5.800207,-0.227364 8.246957,-0.176866 12.002402,-0.44714 l 0.0794,-10.521831 M 31.233505,16.327805 c 0.0543,-3.02795 -0.538968,-5.885853 -2.369249,-8.0900723 0.300177,0.046387 0.602193,0.093473 0.903619,0.1372139 -2.246765,-2.0703203 -5.087841,-2.5880872 -8.564969,-1.9527263 -0.20814,0.038035 -0.456814,0.086433 -0.73544,0.157034 m -1.959827,18.4095527 8.012296,0.103019 M 15.401596,10.713827 c -0.222658,0.410971 -0.434083,0.862269 -0.630551,1.358059 C 13.861823,9.7158734 13.817304,7.6696086 14.022058,5.2474765 m 0,0 c 0.02205,-0.2608143 0.160167,-0.4983768 0.240251,-0.7475642 -0.08211,-0.012634 2.162,0.471034 4.114207,1.3786666 0.871641,0.4052493 2.09095,0.7006754 2.09095,0.7006754 m 9.300409,1.7956923 c 0.761812,0.1105397 1.519859,0.1996578 2.234933,0.2018454 1.566676,0.00479 3.024129,0.3168017 4.605891,0.8603079 M 20.467466,6.5792543 c -1.382144,0.3502313 -3.501326,1.2468242 -5.06587,4.1345727 m 15.512015,9.178191 c 0.180855,-1.194851 0.298878,-2.392268 0.319894,-3.564213 1.06662,-0.586327 1.991691,-0.747942 2.702725,-0.267348 m 1.253748,1.882198 c -0.09572,-0.775813 -0.522571,-1.51272 -1.253748,-1.882198 l 2.714015,-6.4375033 c -1.430354,0.9834353 -3.152561,2.0416593 -4.555942,3.9812213 -0.683731,0.94496 -0.610266,1.839286 -0.860798,2.72363 m 3.743319,8.609834 c -1.556907,-0.01935 -3.311256,-0.04793 -4.831311,-0.04376 l 0.08017,-1.491263 c 0.268729,-1.149598 0.509061,-2.328837 0.687932,-3.510586 0.568153,0.434906 0.961701,0.882911 2.301865,0.70722 1.494383,-0.195909 2.120696,-1.471628 1.974502,-2.656583 0.765774,1.43944 0.0071,3.349769 -0.10588,5.21966 l -0.107274,1.775314 c 0.781365,0.0097 1.513,0.0171 2.140328,0.01686 l 3.899499,7.558017 -2.943446,0.01851"
     sodipodi:nodetypes="ccccssssssssssccccccccccccccccccccccccscscssccccccccccccccsccccccccsccscccccccccscccccscscccc" /></svg>
