<?xml version="1.0" encoding="UTF-8" standalone="no"?>
<!-- Created with Inkscape (http://www.inkscape.org/) -->

<svg
   width="48"
   height="48"
   viewBox="0 0 48 48"
   version="1.1"
   id="svg1"
   xml:space="preserve"
   sodipodi:docname="salatuk.svg"
   inkscape:version="1.3.2 (091e20e, 2023-11-25, custom)"
   xmlns:inkscape="http://www.inkscape.org/namespaces/inkscape"
   xmlns:sodipodi="http://sodipodi.sourceforge.net/DTD/sodipodi-0.dtd"
   xmlns="http://www.w3.org/2000/svg"
   xmlns:svg="http://www.w3.org/2000/svg"><sodipodi:namedview
     id="namedview1"
     pagecolor="#505050"
     bordercolor="#eeeeee"
     borderopacity="1"
     inkscape:showpageshadow="0"
     inkscape:pageopacity="0"
     inkscape:pagecheckerboard="0"
     inkscape:deskcolor="#505050"
     inkscape:document-units="px"
     inkscape:zoom="11.313708"
     inkscape:cx="33.499185"
     inkscape:cy="16.307651"
     inkscape:window-width="1920"
     inkscape:window-height="1057"
     inkscape:window-x="-8"
     inkscape:window-y="-8"
     inkscape:window-maximized="1"
     inkscape:current-layer="svg1" /><defs
     id="defs1" /><path
     id="path5"
     style="fill:none;stroke:#ffffff;stroke-width:1;stroke-linecap:round;stroke-linejoin:round;stroke-opacity:1"
     d="m 14.388601,7.994533 c 0.590355,1.0382874 0.901034,2.212328 0.901577,3.407014 -9.12e-4,3.807086 -3.084481,6.892733 -6.887655,6.892295 -1.0029724,-0.0011 -1.9936048,-0.221449 -2.9026375,-0.645694 1.2566794,1.633983 3.1979705,2.593888 5.2579755,2.599897 3.67755,1.22e-4 6.659202,-2.983502 6.660429,-6.664834 -2.59e-4,-2.256035 -1.140247,-4.3589005 -3.029689,-5.588678 z m 0.08308,19.339025 c 0.464516,-0.837222 0.747092,-2.307947 0.747649,-3.891285 -2.55e-4,-1.876441 -0.389682,-3.489658 -0.947463,-4.200695 m -1.681359,0.746028 c -0.332395,0.841028 -0.54239,2.076901 -0.542578,3.454667 7.91e-4,1.585604 0.284387,3.057752 0.750092,3.893731 m 2.863545,4.170107 c 0.390167,-0.4711 0.604398,-1.063435 0.605938,-1.67538 -6.62e-4,-1.132104 -0.723543,-2.137302 -1.795824,-2.497173 m -1.673659,0.0025 c -1.07143,0.359584 -1.794113,1.363523 -1.795824,2.494727 0.0012,0.615073 0.217294,1.210351 0.610826,1.682718 m 0,0 c -1.032494,0.991061 -1.655647,2.673189 -1.658999,4.47828 0.0031,1.536045 0.455695,2.9968 1.243637,4.013575 h 4.871936 c 0.787942,-1.016775 1.24057,-2.47753 1.243637,-4.013575 -4.2e-5,-1.805649 -0.620482,-3.49065 -1.651668,-4.485618 M 31.582089,21.485683 c 0.162532,-0.352849 0.252071,-0.807968 0.251659,-1.279158 5.98e-4,-1.06388 -0.448033,-1.927014 -1.001751,-1.927298 -0.553719,2.84e-4 -1.00235,0.863418 -1.001752,1.927298 0.0012,0.471577 0.09253,0.925875 0.256546,1.276713 m 0,0 c -0.803638,0.47687 -1.412368,1.700518 -1.52706,3.223579 -5.356122,0.870484 -9.394479,4.75636 -9.394479,9.418816 0,2.21604 -0.08778,4.25485 1.443989,5.87973 h 20.447955 c 1.53177,-1.62488 1.441545,-3.66369 1.441545,-5.87973 0,-4.662456 -4.035913,-8.548332 -9.392035,-9.418816 -0.114564,-1.521314 -0.722497,-2.743035 -1.524617,-3.221134" /></svg>
