<?xml version="1.0" encoding="UTF-8"?>
<!-- Created with Inkscape (http://www.inkscape.org/) -->
<svg width="48" height="48" version="1.1" viewBox="0 0 48 48" xml:space="preserve" xmlns="http://www.w3.org/2000/svg"><path d="m14.389 7.9945c0.59036 1.0383 0.90103 2.2123 0.90158 3.407-9.12e-4 3.8071-3.0845 6.8927-6.8877 6.8923-1.003-0.0011-1.9936-0.22145-2.9026-0.64569 1.2567 1.634 3.198 2.5939 5.258 2.5999 3.6776 1.22e-4 6.6592-2.9835 6.6604-6.6648-2.59e-4 -2.256-1.1402-4.3589-3.0297-5.5887zm0.08308 19.339c0.46452-0.83722 0.74709-2.3079 0.74765-3.8913-2.55e-4 -1.8764-0.38968-3.4897-0.94746-4.2007m-1.6814 0.74603c-0.3324 0.84103-0.54239 2.0769-0.54258 3.4547 7.91e-4 1.5856 0.28439 3.0578 0.75009 3.8937m2.8635 4.1701c0.39017-0.4711 0.6044-1.0634 0.60594-1.6754-6.62e-4 -1.1321-0.72354-2.1373-1.7958-2.4972m-1.6737 0.0025c-1.0714 0.35958-1.7941 1.3635-1.7958 2.4947 0.0012 0.61507 0.21729 1.2104 0.61083 1.6827m0 0c-1.0325 0.99106-1.6556 2.6732-1.659 4.4783 0.0031 1.536 0.4557 2.9968 1.2436 4.0136h4.8719c0.78794-1.0168 1.2406-2.4775 1.2436-4.0136-4.2e-5 -1.8056-0.62048-3.4906-1.6517-4.4856m15.921-10.02c0.16253-0.35285 0.25207-0.80797 0.25166-1.2792 5.98e-4 -1.0639-0.44803-1.927-1.0018-1.9273-0.55372 2.84e-4 -1.0024 0.86342-1.0018 1.9273 0.0012 0.47158 0.09253 0.92588 0.25655 1.2767m0 0c-0.80364 0.47687-1.4124 1.7005-1.5271 3.2236-5.3561 0.87048-9.3945 4.7564-9.3945 9.4188 0 2.216-0.08778 4.2548 1.444 5.8797h20.448c1.5318-1.6249 1.4415-3.6637 1.4415-5.8797 0-4.6625-4.0359-8.5483-9.392-9.4188-0.11456-1.5213-0.7225-2.743-1.5246-3.2211" fill="none" stroke="#fff" stroke-linecap="round" stroke-linejoin="round"/></svg>
