<?xml version="1.0" encoding="UTF-8"?>
<!-- Created with Inkscape (http://www.inkscape.org/) -->
<svg width="48" height="48" version="1.1" viewBox="0 0 48 48" xml:space="preserve" xmlns="http://www.w3.org/2000/svg"><path class="t" d="m10.044 33.495c0.56641 1.3004 1.5258 1.7846 3.0071 1.7846h2.05c1.9078 0 3.8507-1.8231 4.3397-4.0721v0c0.48901-2.249-0.66113-4.0721-2.5689-4.0721h-2.265c-1.9078 0-3.0579-1.8231-2.5689-4.0721v0c0.48901-2.249 2.4319-4.0721 4.3397-4.0721h2.05c1.4813 0 2.4406 0.48438 3.0071 1.7846m-7.9074 16.533 4.427-20.361m14.584 18.659 5.4173-24.915m-3.1827 14.638c0.74799-3.4402-1.1075-6.2288-4.1445-6.2288v0c-3.037 0-6.1052 2.7886-6.8531 6.2288l-0.88031 4.0487c-0.74799 3.4402 1.1075 6.2288 4.1445 6.2288v0c3.037 0 6.1052-2.7886 6.8531-6.2288m6.6072-23.878h-33a2 2 0 0 0-2 2v33a2 2 0 0 0 2 2h33a2 2 0 0 0 2-2v-33a2 2 0 0 0-2-2z" fill="none" stroke="#fff" stroke-linecap="round" stroke-linejoin="round"/></svg>
