<?xml version="1.0" encoding="UTF-8" standalone="no"?>
<!-- Created with Inkscape (http://www.inkscape.org/) -->

<svg
   width="48"
   height="48"
   viewBox="0 0 48 48"
   version="1.1"
   id="svg1"
   xml:space="preserve"
   sodipodi:docname="slickdeals.svg"
   inkscape:version="1.3.2 (091e20e, 2023-11-25, custom)"
   xmlns:inkscape="http://www.inkscape.org/namespaces/inkscape"
   xmlns:sodipodi="http://sodipodi.sourceforge.net/DTD/sodipodi-0.dtd"
   xmlns="http://www.w3.org/2000/svg"
   xmlns:svg="http://www.w3.org/2000/svg"><sodipodi:namedview
     id="namedview1"
     pagecolor="#505050"
     bordercolor="#eeeeee"
     borderopacity="1"
     inkscape:showpageshadow="0"
     inkscape:pageopacity="0"
     inkscape:pagecheckerboard="0"
     inkscape:deskcolor="#505050"
     inkscape:document-units="px"
     inkscape:zoom="17.9375"
     inkscape:cx="33.142857"
     inkscape:cy="24"
     inkscape:window-width="1920"
     inkscape:window-height="1057"
     inkscape:window-x="-8"
     inkscape:window-y="-8"
     inkscape:window-maximized="1"
     inkscape:current-layer="svg1" /><defs
     id="defs1" /><path
     id="line499"
     style="fill:none;stroke:#ffffff;stroke-width:1;stroke-linecap:round;stroke-linejoin:round;stroke-opacity:1"
     class="t"
     d="m 10.044265,33.494608 c 0.566409,1.300432 1.525788,1.784607 3.00706,1.784607 h 2.050033 c 1.907755,0 3.850674,-1.823089 4.339681,-4.072122 v 0 c 0.489006,-2.249032 -0.661126,-4.072121 -2.568882,-4.072121 h -2.265005 c -1.907756,0 -3.057889,-1.823089 -2.568882,-4.072121 v 0 c 0.489006,-2.249033 2.431926,-4.072122 4.339682,-4.072122 h 2.050032 c 1.481273,0 2.440607,0.484379 3.00706,1.784608 m -7.907384,16.533014 0.440971,-2.028108 3.5416,-16.288486 0.444429,-2.044013 m 14.583784,18.659042 5.417291,-24.915137 m -3.182657,14.637636 c 0.747992,-3.440156 -1.1075,-6.228784 -4.144499,-6.228784 v 0 c -3.036998,0 -6.105151,2.788628 -6.853144,6.228784 l -0.88031,4.048711 c -0.747992,3.440157 1.1075,6.228784 4.144499,6.228784 v 0 c 3.036999,0 6.105152,-2.788627 6.853144,-6.228784 M 40.5,5.5 h -33 a 2,2 0 0 0 -2,2 v 33 a 2,2 0 0 0 2,2 h 33 a 2,2 0 0 0 2,-2 v -33 a 2,2 0 0 0 -2,-2 z" /></svg>
