<?xml version="1.0" encoding="UTF-8" standalone="no"?>
<svg
   id="b"
   viewBox="0 0 48 48"
   version="1.1"
   sodipodi:docname="sonic_the_hedgehog_2.svg"
   inkscape:version="1.3.2 (091e20e, 2023-11-25, custom)"
   xmlns:inkscape="http://www.inkscape.org/namespaces/inkscape"
   xmlns:sodipodi="http://sodipodi.sourceforge.net/DTD/sodipodi-0.dtd"
   xmlns="http://www.w3.org/2000/svg"
   xmlns:svg="http://www.w3.org/2000/svg">
  <sodipodi:namedview
     id="namedview15"
     pagecolor="#505050"
     bordercolor="#eeeeee"
     borderopacity="1"
     inkscape:showpageshadow="0"
     inkscape:pageopacity="0"
     inkscape:pagecheckerboard="0"
     inkscape:deskcolor="#505050"
     inkscape:zoom="17.9375"
     inkscape:cx="23.972125"
     inkscape:cy="24"
     inkscape:window-width="1920"
     inkscape:window-height="1057"
     inkscape:window-x="-8"
     inkscape:window-y="-8"
     inkscape:window-maximized="1"
     inkscape:current-layer="b" />
  <defs
     id="defs1">
    <style
       id="style1">.c{fill:none;stroke:#fff;stroke-linecap:round;stroke-linejoin:round;}</style>
  </defs>
  <path
     id="path424"
     style="fill:none;stroke:#ffffff;stroke-linecap:round;stroke-linejoin:round"
     class="t"
     d="m 35.849922,37.149547 c 0,-1.6355 1.4816,-2.925 3.1759,-2.5994 1.1113,0.2136 1.9988,1.1747 2.1094,2.301 0.0823,0.8378 -0.1828,1.6644 -0.7615,2.1722 -1.072,0.9408 -4.5238,3.4762 -4.5238,3.4762 h 5.3 M 45.5,38.5 a 7,7 0 0 1 -7,7 7,7 0 0 1 -7,-7 7,7 0 0 1 7,-7 7,7 0 0 1 7,7 z M 5.9996,16.8811 C 4.021302,13.914903 4.2482008,8.7614992 5.0701,7.9575 c 0.6958993,-0.6808993 5.270402,0.085102 7.3586,1.9501 m 5.7628,27.3235 c 5.106782,-0.380668 9.269591,-0.605007 13.385001,0.235565 m 5.694789,-5.84701 C 36.498356,30.951417 35.582384,30.35422 34.5059,29.856 m 0,10e-5 c 5.760094,-2.368198 9.758901,-0.3956 10.409,-0.0688 m 0,-10e-5 C 45.787199,23.000007 40.233994,18.872298 34.1064,16.9787 m 0,0 c 4.580895,-4.272496 8.074302,-3.9697 10.3085,-4.0638 m 0,0 C 38.191506,1.7447112 21.799292,4.1772047 14.1489,8.8298 c -3.132197,1.904798 -7.2768014,4.540605 -8.6305,9.4428 -0.6761993,2.448798 -0.6559988,5.463204 0.5347,9.2345 m 14.736,1.3291 c 1.889798,-2.715897 2.1436,-3.747804 2.5266,-7.95 0.3686,-4.044396 -0.936202,-5.9681 -2.7021,-6.4149 -2.688497,-0.680199 -8.026601,3.574505 -9.1277,9.0319 C 11.0387,25.719598 9.794399,25.832997 8.7902,22.4676 8.6303002,21.931801 8.4792985,16.5082 6.9803,16.6575 6.3397006,16.7213 5.7941997,17.547501 5.5262,18.2446 M 7.005,31.081 c 2.0800979,4.078596 6.007703,5.6941 9.4737,6.0679 4.733995,0.510599 7.698,-1.5138 8.1383,-1.8298 1.808498,-1.297899 2.6869,-2.571702 2.6869,-4.443 0,-1.871298 -0.873103,-3.3883 -3.3883,-3.3883 -1.871298,0 -2.399702,0.841901 -4.1231,2.1983 -0.533299,0.4197 -1.750003,1.0585 -4.7267,0.7663 -2.173598,-0.2134 -2.757402,-1.739699 -4.853,-1.2218 m -5.2626,0.8802 c 0.4850995,0.3652 1.1242007,0.6889 1.8548,0.9126 1.8151982,0.555799 3.5081,0.283499 3.7811,-0.6081 0.273,-0.891699 -0.9772018,-2.065001 -2.7925,-2.6208 -1.8152982,-0.555799 -3.5081003,-0.283499 -3.7811,0.6081 -0.1630998,0.532799 0.2176007,1.166101 0.9377,1.7082 v 0 m 3.84,-7.6432 c -0.5667994,0.3968 -0.7290999,1.452002 -0.5859,3.0934 0.1680998,1.926898 0.8228005,2.9022 1.3696,2.832 0.546799,-0.0701 0.8202,-1.451802 0.6106,-3.086 -0.0142,-0.1107 -0.0303,-0.2198 -0.048,-0.3268 m 10.427799,-0.5247 a 1.3112,3.5146 0 0 1 -1.3112,3.5146 1.3112,3.5146 0 0 1 -1.3112,-3.5146 1.3112,3.5146 0 0 1 1.3112,-3.5146 1.3112,3.5146 0 0 1 1.3112,3.5146 v 0 m 2.425101,5.9062 c 1.893598,-0.574499 2.3085,0.263401 2.3085,1 m -5.9149,2.6596 c 2.616997,-0.4787 4.255301,-1.308502 5.234,-3.3962 M 23.6443,11.636 c 0.793999,0.4076 2.884901,2.196701 3.7742,3.1919 0.905199,-0.910499 1.265899,-4.634801 0.6276,-5.1515 -0.4489,-0.3633996 -3.227701,0.616801 -4.4018,1.9596 v 0 M 21.7234,10.4255 C 24.489397,7.7872026 29.106401,6.6170007 30,7.3404 c 1.270699,1.028599 0.233999,6.957403 -0.6809,9.6383" />
</svg>
