<?xml version="1.0" encoding="UTF-8"?>
<svg id="b" version="1.1" viewBox="0 0 48 48" xmlns="http://www.w3.org/2000/svg">
 <defs>
  <style>.c{fill:none;stroke:#fff;stroke-linecap:round;stroke-linejoin:round;}</style>
 </defs>
 <path class="t" d="m35.85 37.15c0-1.6355 1.4816-2.925 3.1759-2.5994 1.1113 0.2136 1.9988 1.1747 2.1094 2.301 0.0823 0.8378-0.1828 1.6644-0.7615 2.1722-1.072 0.9408-4.5238 3.4762-4.5238 3.4762h5.3m4.3501-3.9995a7 7 0 0 1-7 7 7 7 0 0 1-7-7 7 7 0 0 1 7-7 7 7 0 0 1 7 7zm-39.5-21.619c-1.9783-2.9662-1.7514-8.1196-0.9295-8.9236 0.6959-0.6809 5.2704 0.085102 7.3586 1.9501m5.7628 27.324c5.1068-0.38067 9.2696-0.60501 13.385 0.23556m5.6948-5.847c-0.77293-0.66824-1.6889-1.2654-2.7654-1.7637m0 1e-4c5.7601-2.3682 9.7589-0.3956 10.409-0.0688m0-1e-4c0.8723-6.7872-4.6809-10.915-10.808-12.808m0 0c4.5809-4.2725 8.0743-3.9697 10.308-4.0638m0 0c-6.2234-11.17-22.616-8.7377-30.266-4.0851-3.1322 1.9048-7.2768 4.5406-8.6305 9.4428-0.6762 2.4488-0.656 5.4632 0.5347 9.2345m14.736 1.3291c1.8898-2.7159 2.1436-3.7478 2.5266-7.95 0.3686-4.0444-0.9362-5.9681-2.7021-6.4149-2.6885-0.6802-8.0266 3.5745-9.1277 9.0319-0.4472 2.2164-1.6915 2.3298-2.6957-1.0356-0.1599-0.5358-0.3109-5.9594-1.8099-5.8101-0.6406 0.0638-1.1861 0.89-1.4541 1.5871m1.4788 12.836c2.0801 4.0786 6.0077 5.6941 9.4737 6.0679 4.734 0.5106 7.698-1.5138 8.1383-1.8298 1.8085-1.2979 2.6869-2.5717 2.6869-4.443s-0.8731-3.3883-3.3883-3.3883c-1.8713 0-2.3997 0.8419-4.1231 2.1983-0.5333 0.4197-1.75 1.0585-4.7267 0.7663-2.1736-0.2134-2.7574-1.7397-4.853-1.2218m-5.2626 0.8802c0.4851 0.3652 1.1242 0.6889 1.8548 0.9126 1.8152 0.5558 3.5081 0.2835 3.7811-0.6081 0.273-0.8917-0.9772-2.065-2.7925-2.6208s-3.5081-0.2835-3.7811 0.6081c-0.1631 0.5328 0.2176 1.1661 0.9377 1.7082v0m3.84-7.6432c-0.5668 0.3968-0.7291 1.452-0.5859 3.0934 0.1681 1.9269 0.8228 2.9022 1.3696 2.832 0.5468-0.0701 0.8202-1.4518 0.6106-3.086-0.0142-0.1107-0.0303-0.2198-0.048-0.3268m10.428-0.5247a1.3112 3.5146 0 0 1-1.3112 3.5146 1.3112 3.5146 0 0 1-1.3112-3.5146 1.3112 3.5146 0 0 1 1.3112-3.5146 1.3112 3.5146 0 0 1 1.3112 3.5146v0m2.4251 5.9062c1.8936-0.5745 2.3085 0.2634 2.3085 1m-5.9149 2.6596c2.617-0.4787 4.2553-1.3085 5.234-3.3962m-0.9727-18.989c0.794 0.4076 2.8849 2.1967 3.7742 3.1919 0.9052-0.9105 1.2659-4.6348 0.6276-5.1515-0.4489-0.3634-3.2277 0.6168-4.4018 1.9596v0m-1.9209-1.2105c2.766-2.6383 7.383-3.8085 8.2766-3.0851 1.2707 1.0286 0.234 6.9574-0.6809 9.6383" fill="none" stroke="#fff" stroke-linecap="round" stroke-linejoin="round"/>
</svg>
