<?xml version="1.0" encoding="UTF-8"?>
<!-- Created with Inkscape (http://www.inkscape.org/) -->
<svg width="48" height="48" version="1.1" viewBox="0 0 48 48" xml:space="preserve" xmlns="http://www.w3.org/2000/svg"><path d="m32.851 24.127c0.66298-0.07756 1.2516-0.07102 1.1076 0.76457-0.0222 0.70802 1.0135 0.219 1.4895 0.36326h0.30184m-6.112 5.2408c-0.21871 1.0444-0.43741 2.0888-0.65612 3.1332m2.321-4.3045c1.1624-0.81778 2.3248-1.6356 3.4871-2.4533m-4.4481 0.26307c-0.23465 1.1205-0.46931 2.2411-0.70396 3.3616 0.87265-0.48481 1.5816-1.4638 2.6476-1.3965 1.4534 0.20301 1.3787 1.8752 1.5391 2.9963 0.06163 0.49775 0.12325 0.9955 0.18488 1.4933m-8.1984 0.04007c0.49655-2.2532 0.89911-4.5326 1.4561-6.769 0.66852-1.2371 3.1798-2.7622 1.424-4.1813-0.96541-0.40595-2.1752 0.01331-2.8768 0.73599m-6.7275 3.7201c-0.23051 1.5825-0.93568 3.1456-0.62748 4.7576 0.3379 1.9749 3.5257 2.112 4.0985 0.22925 0.48431-1.6214 0.65462-3.3293 1.0017-4.9869m0.32798-1.7923c0.0938-0.51258 0.1876-1.0252 0.28139-1.5377m-5.6064 5.8367c-0.27834 1.3292-0.55669 2.6584-0.83503 3.9875m-11.812-5.838h3.1498c0.055882-0.25812 0.11176-0.51624 0.16765-0.77437m0.26035-1.2026c0.052455-0.24229 0.10491-0.48458 0.15737-0.72688m-1.5105 8.4897c0.16857-1.3242 0.81513-2.6644 0.42287-3.9919-1.0317-1.5005-3.0557 0.22496-3.5352 1.3972-0.1751 0.86488-0.3502 1.7298-0.5253 2.5946m0.91986-4.5436c-0.11878 0.58671-0.23756 1.1734-0.35635 1.7601m19.327-16.549c0.81365-0.27548 0.84656 0.34487 1.0162 0.80836h1.2974m-1.7282 5.8258c0.16857-1.3242 0.81513-2.6644 0.42287-3.9919-1.0317-1.5005-3.0557 0.22496-3.5352 1.3972-0.1751 0.86488-0.3502 1.7298-0.5253 2.5946m0.91986-4.5436c-0.11878 0.58671-0.23756 1.1734-0.35635 1.7601m-5.9245 9.0395c-0.45336 2.1649-0.90672 4.3298-1.3601 6.4948m-1.391-6.4948c-0.45336 2.1649-0.90672 4.3298-1.3601 6.4948m8.4477-17.294c-0.30662 1.5145-0.61324 3.029-0.91986 4.5436m-0.94076-4.5436c-0.30662 1.5145-0.61324 3.029-0.91986 4.5436m-3.7425-4.3891c1.0455 1.1908-1.4336 1.7801-1.2258 3.1939-0.21518 1.6261 2.3335 1.7226 2.961 0.53636 0.52663-1.2042 0.64482-2.5664 0.98475-3.8372m-6.7551 5.6566c0.90542-0.20246 0.51776 0.31896 0.4352 0.89597m0.5194-6.2113c-0.90593-0.63982-2.3982-0.23053-2.8722 0.76859m2.9823 1.9144c0.14802-0.88254 0.71897-1.9627-0.11005-2.683 0.18047-0.18956 0.36094-0.37912 0.54141-0.56867m-0.82961 4.9746c0.08612-0.8677 0.76015-1.8523 0.11667-2.6273-1.3542-1.1966-4.0441 0.1753-3.4076 2.0327 0.29886 0.56238 1.0483 0.43297 1.5501 0.30033m15.778-9.4982c2.2583 0.41858 4.1904 2.0546 5.1037 4.1445 3.4298-2.6864 8.9204-2.8087 11.989 0.51904 2.541 2.6649 2.3229 6.815 0.84912 9.9477-2.2287 5.0472-6.5138 8.8773-11.454 11.193" fill="none" stroke="#fff" stroke-linecap="round" stroke-linejoin="round"/></svg>
