<?xml version="1.0" encoding="UTF-8" standalone="no"?>
<!-- Created with Inkscape (http://www.inkscape.org/) -->

<svg
   width="48"
   height="48"
   viewBox="0 0 48 48"
   version="1.1"
   id="svg1"
   xml:space="preserve"
   sodipodi:docname="sooktae_tee_mae_hai.svg"
   inkscape:version="1.3.2 (091e20e, 2023-11-25, custom)"
   xmlns:inkscape="http://www.inkscape.org/namespaces/inkscape"
   xmlns:sodipodi="http://sodipodi.sourceforge.net/DTD/sodipodi-0.dtd"
   xmlns="http://www.w3.org/2000/svg"
   xmlns:svg="http://www.w3.org/2000/svg"><sodipodi:namedview
     id="namedview1"
     pagecolor="#505050"
     bordercolor="#eeeeee"
     borderopacity="1"
     inkscape:showpageshadow="0"
     inkscape:pageopacity="0"
     inkscape:pagecheckerboard="0"
     inkscape:deskcolor="#505050"
     inkscape:document-units="px"
     inkscape:zoom="17.9375"
     inkscape:cx="23.972125"
     inkscape:cy="32.919861"
     inkscape:window-width="1920"
     inkscape:window-height="1057"
     inkscape:window-x="-8"
     inkscape:window-y="-8"
     inkscape:window-maximized="1"
     inkscape:current-layer="svg1" /><defs
     id="defs1" /><path
     id="path3-7"
     style="fill:none;stroke:#ffffff;stroke-width:1;stroke-linecap:round;stroke-linejoin:round;stroke-opacity:1"
     d="m 32.851287,24.127178 c 0.662976,-0.07756 1.251628,-0.07102 1.107599,0.764566 -0.0222,0.708015 1.01349,0.218998 1.489517,0.363255 0.100613,0 0.201226,0 0.301839,0 m -6.111982,5.240768 c -0.218706,1.044384 -0.437411,2.088769 -0.656117,3.133153 m 2.321035,-4.304494 c 1.162378,-0.817782 2.324756,-1.635564 3.487134,-2.453346 m -4.448092,0.263067 c -0.234653,1.12054 -0.469307,2.24108 -0.70396,3.36162 0.872654,-0.484808 1.581635,-1.463828 2.64755,-1.396515 1.453366,0.20301 1.378705,1.875152 1.539135,2.996343 0.06163,0.497751 0.123253,0.995503 0.184879,1.493255 m -8.198431,0.04007 c 0.496548,-2.253206 0.899109,-4.532585 1.456073,-6.768966 0.668515,-1.237105 3.179756,-2.762168 1.423989,-4.181309 -0.965408,-0.405949 -2.175223,0.01331 -2.876753,0.73599 m -6.727522,3.720131 c -0.230514,1.582502 -0.93568,3.145603 -0.627483,4.757607 0.337899,1.974897 3.525732,2.112038 4.098474,0.229252 0.484308,-1.621368 0.65462,-3.329333 1.001665,-4.986859 m 0.327981,-1.792334 c 0.0938,-0.512581 0.187596,-1.025163 0.281394,-1.537744 M 18.5628,29.641391 c -0.278344,1.329176 -0.556688,2.658353 -0.835032,3.987529 M 5.9157464,27.790941 c 1.0499419,0 2.0998839,0 3.1498258,0 0.055882,-0.258122 0.1117643,-0.516245 0.1676464,-0.774367 M 9.4935727,25.813986 C 9.5460277,25.571693 9.5984829,25.329401 9.650938,25.087108 M 8.1404796,33.57676 c 0.1685669,-1.324242 0.8151281,-2.664399 0.4228672,-3.991851 -1.0316807,-1.500542 -3.05572,0.224955 -3.535197,1.397209 -0.1750984,0.864881 -0.3501968,1.729761 -0.5252952,2.594642 m 0.91986,-4.543553 C 5.3039323,29.61992 5.1851499,30.206632 5.0663676,30.793345 M 24.393099,14.243902 c 0.81365,-0.275479 0.846555,0.344868 1.016162,0.808363 0.432476,0 0.864951,0 1.297427,0 m -1.728228,5.825783 c 0.168567,-1.324242 0.815128,-2.664399 0.422867,-3.991851 -1.03168,-1.500542 -3.05572,0.224955 -3.535197,1.397209 -0.175098,0.864881 -0.350197,1.729761 -0.525295,2.594642 m 0.91986,-4.543553 c -0.118782,0.586713 -0.237565,1.173425 -0.356347,1.760138 m -5.924503,9.039514 c -0.453359,2.164924 -0.906718,4.329849 -1.360077,6.494773 m -1.390987,-6.494773 c -0.453359,2.164924 -0.906717,4.329849 -1.360076,6.494773 m 8.447737,-17.294425 c -0.30662,1.514518 -0.61324,3.029035 -0.91986,4.543553 m -0.940765,-4.543553 c -0.30662,1.514518 -0.61324,3.029035 -0.91986,4.543553 m -3.742491,-4.389134 c 1.045531,1.190776 -1.433576,1.780149 -1.225758,3.193889 -0.215177,1.626086 2.333547,1.72259 2.961037,0.536363 0.526626,-1.204245 0.644821,-2.566447 0.984747,-3.837233 M 9.7583875,22.03856 c 0.9054245,-0.202462 0.5177575,0.318961 0.4352045,0.895967 m 0.519401,-6.211255 C 9.8070592,16.08345 8.3147854,16.492746 7.8407685,17.491862 m 2.9822775,1.914363 c 0.148016,-0.882538 0.71897,-1.962745 -0.110053,-2.682953 0.18047,-0.189558 0.36094,-0.379116 0.54141,-0.568674 m -0.829608,4.974622 c 0.08612,-0.867705 0.760146,-1.852333 0.116671,-2.627251 -1.3541666,-1.196609 -4.0440908,0.175301 -3.4075516,2.03272 0.2988605,0.562382 1.0483407,0.432972 1.5500621,0.300334 M 24.461778,11.336815 c 2.258293,0.418583 4.190438,2.054581 5.103735,4.144452 3.429842,-2.686424 8.920395,-2.808667 11.989001,0.519045 2.540962,2.664911 2.322858,6.81496 0.84912,9.947691 -2.22869,5.047206 -6.513758,8.87734 -11.454341,11.193387" /></svg>
