<?xml version="1.0" encoding="UTF-8"?>
<!-- Created with Inkscape (http://www.inkscape.org/) -->
<svg width="48" height="48" version="1.1" viewBox="0 0 48 48" xml:space="preserve" xmlns="http://www.w3.org/2000/svg"><path d="m24.459 11.337c2.2457 0.45043 4.0841 1.9097 5.1037 4.1445 7.8592-5.8428 19.933 1.7039 10.473 14.452-2.0278 2.7328-4.8854 5.1763-9.0895 7.2077m-4.1592-11.301c0.9804-1.3035 2.4871-2.1763 4.0202-2.1763 2.3196 0 3.8212 1.998 3.3539 4.4628-0.46726 2.4647-2.7264 4.4628-5.046 4.4628-2.797 0-3.8794-2.6412-3.255-4.8862h2.7453m-13.397-4.704 0.34556 8.8734 4.9974-8.8202 0.90379 8.7937 4.1734-8.7405m-8.6923-11.583 0.77088 1.4878c-2.5848 1.8411-4.4736 5.9932-2.1266 7.12 1.9623 0.94204 4.6908 0.20488 5.2898-2.5239l1.3823-6.2964m-12.44 11.238h1.2228l-0.37215 1.78m1.0152-12.34c-0.48021-0.38754-1.1422-0.60203-1.9456-0.59843-2.0786 0.0093-3.2549 1.2184-3.6683 2.1254m5.829 3.8032 0.5507-2.4217c0.29037-1.2769-0.01622-2.3035-0.7658-2.9084l1.0582-1.1298m-1.6215 9.8829 0.7784-3.423c0.28374-1.2271-0.71215-2.6765-3.1176-2.6608-1.174 0.0076-3.5357 0.63307-4.1202 2.8958-0.58256 2.2552 0.46298 3.3319 3.0569 2.6036" fill="none" stroke="#fff" stroke-linecap="round" stroke-linejoin="round"/></svg>
