<?xml version="1.0" encoding="UTF-8" standalone="no"?>
<!-- Created with Inkscape (http://www.inkscape.org/) -->

<svg
   width="48"
   height="48"
   viewBox="0 0 48 48"
   version="1.1"
   id="svg1"
   xml:space="preserve"
   inkscape:version="1.3.2 (091e20e, 2023-11-25, custom)"
   sodipodi:docname="sookpor_tee_por_sorn.svg"
   xmlns:inkscape="http://www.inkscape.org/namespaces/inkscape"
   xmlns:sodipodi="http://sodipodi.sourceforge.net/DTD/sodipodi-0.dtd"
   xmlns="http://www.w3.org/2000/svg"
   xmlns:svg="http://www.w3.org/2000/svg"><sodipodi:namedview
     id="namedview1"
     pagecolor="#505050"
     bordercolor="#eeeeee"
     borderopacity="1"
     inkscape:showpageshadow="0"
     inkscape:pageopacity="0"
     inkscape:pagecheckerboard="0"
     inkscape:deskcolor="#505050"
     inkscape:document-units="px"
     inkscape:zoom="12.683728"
     inkscape:cx="46.31919"
     inkscape:cy="25.268596"
     inkscape:window-width="1920"
     inkscape:window-height="1057"
     inkscape:window-x="-8"
     inkscape:window-y="-8"
     inkscape:window-maximized="1"
     inkscape:current-layer="svg1" /><defs
     id="defs1" /><path
     id="path6"
     style="fill:none;stroke:#ffffff;stroke-width:0.999998;stroke-linecap:round;stroke-linejoin:round;stroke-opacity:1"
     d="m 24.458923,11.336815 c 2.245715,0.450434 4.084075,1.909657 5.103735,4.144452 7.859214,-5.842842 19.93294,1.703931 10.473287,14.452446 -2.027776,2.732778 -4.885365,5.176338 -9.089507,7.207677 M 26.78724,25.840728 c 0.980395,-1.30351 2.487105,-2.176339 4.020197,-2.176339 2.319567,0 3.821155,1.99805 3.353891,4.462769 -0.467264,2.46472 -2.726437,4.46277 -5.046004,4.46277 -2.796959,0 -3.879412,-2.641179 -3.254964,-4.886178 h 2.745348 m -13.397302,-4.704023 0.345565,8.873378 4.997407,-8.820243 0.903786,8.793676 4.173365,-8.740543 m -8.692297,-11.583211 0.770877,1.487752 c -2.584805,1.84106 -4.473622,5.993222 -2.126556,7.119955 1.96233,0.942038 4.690758,0.204884 5.289807,-2.523865 l 1.382262,-6.296378 M 9.8122703,22.548088 h 1.2227687 l -0.372146,1.779989 M 11.67808,11.988376 c -0.480207,-0.387538 -1.14222,-0.602026 -1.9455555,-0.598427 -2.0786077,0.0093 -3.2549396,1.21839 -3.6683088,2.12536 m 5.8289663,3.803204 0.550701,-2.42172 c 0.290372,-1.276918 -0.01622,-2.30349 -0.765803,-2.908417 l 1.058205,-1.129767 m -1.621499,9.882923 0.778396,-3.423019 c 0.283735,-1.227083 -0.712151,-2.67653 -3.1176077,-2.660823 -1.1739601,0.0076 -3.535705,0.633067 -4.1202019,2.895802 -0.5825595,2.255235 0.4629769,3.331929 3.056924,2.603567" /></svg>
