<?xml version="1.0" encoding="UTF-8" standalone="no"?>
<!-- Created with Inkscape (http://www.inkscape.org/) -->

<svg
   width="48"
   height="48"
   viewBox="0 0 48 48"
   version="1.1"
   id="svg1"
   xml:space="preserve"
   inkscape:version="1.3.2 (091e20e, 2023-11-25, custom)"
   sodipodi:docname="thaid.svg"
   xmlns:inkscape="http://www.inkscape.org/namespaces/inkscape"
   xmlns:sodipodi="http://sodipodi.sourceforge.net/DTD/sodipodi-0.dtd"
   xmlns="http://www.w3.org/2000/svg"
   xmlns:svg="http://www.w3.org/2000/svg"><sodipodi:namedview
     id="namedview1"
     pagecolor="#505050"
     bordercolor="#eeeeee"
     borderopacity="1"
     inkscape:showpageshadow="0"
     inkscape:pageopacity="0"
     inkscape:pagecheckerboard="0"
     inkscape:deskcolor="#505050"
     inkscape:document-units="px"
     inkscape:zoom="17.9375"
     inkscape:cx="23.972125"
     inkscape:cy="19.54007"
     inkscape:window-width="1920"
     inkscape:window-height="1057"
     inkscape:window-x="-8"
     inkscape:window-y="-8"
     inkscape:window-maximized="1"
     inkscape:current-layer="svg1" /><defs
     id="defs1" /><path
     id="path10703"
     style="fill:none;stroke:#ffffff;stroke-linecap:round;stroke-linejoin:round;stroke-opacity:1"
     class="a"
     d="m 40.5,5.5 h -33 a 2,2 0 0 0 -2,2 v 33 a 2,2 0 0 0 2,2 h 33 a 2,2 0 0 0 2,-2 v -33 a 2,2 0 0 0 -2,-2 z m -8.828601,22.557616 v -1.811294 c 0,-0.507992 0.521989,-0.619018 0.521989,-1.042867 v -2.524834 c 0,-0.917871 -0.787098,-0.938113 -1.569403,-0.933092 -0.782303,-0.005 -1.569402,0.01522 -1.569402,0.933092 v 2.524834 c 0,0.423849 0.521989,0.534875 0.521989,1.042867 v 1.811294 c 0,0.547056 0.265085,0.599841 1.047414,0.576321 0.782328,0.02352 1.047413,-0.02927 1.047413,-0.576321 z m -0.254137,-7.903838 a 0.82419355,0.8233157 0 0 1 -0.824193,0.823315 0.82419355,0.8233157 0 0 1 -0.824194,-0.823315 0.82419355,0.8233157 0 0 1 0.824194,-0.823315 0.82419355,0.8233157 0 0 1 0.824193,0.823315 z m 2.995713,8.241321 v -8.88453 h 1.98198 c 2.128427,0 3.853852,1.740258 3.853852,3.886981 v 1.110567 c 0,2.146724 -1.725425,3.886982 -3.853852,3.886982 z m -7.57798,0.274438 v -5.886002 m -2e-6,3.664869 c 0,1.22673 -0.985926,2.221131 -2.202202,2.221131 v 0 c -1.216275,0 -2.202202,-0.994401 -2.202202,-2.221131 v -1.443737 c 0,-1.226731 0.985928,-2.221132 2.202202,-2.221132 v 0 c 1.216276,0 2.202202,0.994401 2.202202,2.221132 m -11.028392,-1e-6 c 0,-1.22673 0.985925,-2.221131 2.202202,-2.221131 v 0 c 1.216274,0 2.2022,0.994401 2.2022,2.221131 v 3.664867 m -4.404401,-8.884526 v 8.884529 m -5.137499,0 v -8.884529 m -2.9179102,0 h 5.8358212" /></svg>
