<?xml version="1.0" encoding="UTF-8"?>
<!-- Created with Inkscape (http://www.inkscape.org/) -->
<svg width="48" height="48" version="1.1" viewBox="0 0 48 48" xml:space="preserve" xmlns="http://www.w3.org/2000/svg"><path class="a" d="m40.5 5.5h-33a2 2 0 0 0-2 2v33a2 2 0 0 0 2 2h33a2 2 0 0 0 2-2v-33a2 2 0 0 0-2-2zm-8.8286 22.558v-1.8113c0-0.50799 0.52199-0.61902 0.52199-1.0429v-2.5248c0-0.91787-0.7871-0.93811-1.5694-0.93309-0.7823-5e-3 -1.5694 0.01522-1.5694 0.93309v2.5248c0 0.42385 0.52199 0.53488 0.52199 1.0429v1.8113c0 0.54706 0.26508 0.59984 1.0474 0.57632 0.78233 0.02352 1.0474-0.02927 1.0474-0.57632zm-0.25414-7.9038a0.82419 0.82332 0 0 1-0.82419 0.82332 0.82419 0.82332 0 0 1-0.82419-0.82332 0.82419 0.82332 0 0 1 0.82419-0.82332 0.82419 0.82332 0 0 1 0.82419 0.82332zm2.9957 8.2413v-8.8845h1.982c2.1284 0 3.8539 1.7403 3.8539 3.887v1.1106c0 2.1467-1.7254 3.887-3.8539 3.887zm-7.578 0.27444v-5.886m-2e-6 3.6649c0 1.2267-0.98593 2.2211-2.2022 2.2211v0c-1.2163 0-2.2022-0.9944-2.2022-2.2211v-1.4437c0-1.2267 0.98593-2.2211 2.2022-2.2211v0c1.2163 0 2.2022 0.9944 2.2022 2.2211m-11.028-1e-6c0-1.2267 0.98592-2.2211 2.2022-2.2211v0c1.2163 0 2.2022 0.9944 2.2022 2.2211v3.6649m-4.4044-8.8845v8.8845m-5.1375 0v-8.8845m-2.9179 0h5.8358" fill="none" stroke="#fff" stroke-linecap="round" stroke-linejoin="round"/></svg>
