<?xml version="1.0" encoding="UTF-8"?>
<!-- Created with Inkscape (http://www.inkscape.org/) -->
<svg width="48" height="48" version="1.1" viewBox="0 0 48 48" xml:space="preserve" xmlns="http://www.w3.org/2000/svg"><path d="m29.016 38.498c0-2.1589-1.7486-3.9091-3.6053-3.912-5.2633-0.0029-9.862-4.1295-10.596-9.4858l-7.8095-0.0394c0.74805 9.6666 8.8373 17.255 18.406 17.312 1.857 0.01116 3.6053-1.7159 3.6053-3.8749zm11.98-0.23914a4.2458 4.2413 0 0 0-4.2458-4.2413 4.2458 4.2413 0 0 0-4.2458 4.2413 4.2458 4.2413 0 0 0 4.2458 4.2413 4.2458 4.2413 0 0 0 4.2458-4.2413zm-11.98-28.756c0 2.1589-1.7486 3.9091-3.6053 3.912-5.2633 0.0029-9.862 4.1295-10.596 9.4858l-7.8095 0.0394c0.74805-9.6666 8.8373-17.255 18.406-17.312 1.857-0.011157 3.6053 1.7159 3.6053 3.8749zm11.98 0.23914a4.2458 4.2413 0 0 1-4.2458 4.2413 4.2458 4.2413 0 0 1-4.2458-4.2413 4.2458 4.2413 0 0 1 4.2458-4.2413 4.2458 4.2413 0 0 1 4.2458 4.2413z" fill="none" stroke="#fff" stroke-linecap="round" stroke-linejoin="round"/></svg>
