<?xml version="1.0" encoding="UTF-8" standalone="no"?>
<!-- Created with Inkscape (http://www.inkscape.org/) -->

<svg
   width="48"
   height="48"
   viewBox="0 0 48 48"
   version="1.1"
   id="svg1"
   xml:space="preserve"
   inkscape:version="1.3.2 (091e20e, 2023-11-25, custom)"
   sodipodi:docname="traffic_racer.svg"
   xmlns:inkscape="http://www.inkscape.org/namespaces/inkscape"
   xmlns:sodipodi="http://sodipodi.sourceforge.net/DTD/sodipodi-0.dtd"
   xmlns="http://www.w3.org/2000/svg"
   xmlns:svg="http://www.w3.org/2000/svg"><sodipodi:namedview
     id="namedview1"
     pagecolor="#505050"
     bordercolor="#eeeeee"
     borderopacity="1"
     inkscape:showpageshadow="0"
     inkscape:pageopacity="0"
     inkscape:pagecheckerboard="0"
     inkscape:deskcolor="#505050"
     inkscape:document-units="px"
     inkscape:zoom="17.9375"
     inkscape:cx="23.972125"
     inkscape:cy="24"
     inkscape:window-width="1920"
     inkscape:window-height="1057"
     inkscape:window-x="-8"
     inkscape:window-y="-8"
     inkscape:window-maximized="1"
     inkscape:current-layer="svg1" /><defs
     id="defs1" /><path
     id="path10"
     style="fill:none;stroke:#ffffff;stroke-width:1;stroke-linecap:round;stroke-linejoin:round;stroke-opacity:1;-inkscape-stroke:none"
     d="m 12.907941,22.487121 c -0.20317,1.088188 -0.309159,2.254414 -0.289101,3.470428 m 5.897659,-1.041128 -4.931941,-3.406582 m 1.020737,-4.383735 c 1.574407,0.81643 2.948559,1.966335 3.795564,2.873877 M 13.584558,21.509839 8.8027076,18.206926 C 8.3109943,17.867291 8.0021097,16.758822 9.3519993,16.32711 c 1.7189857,-0.549752 3.5969597,-0.05993 5.2532957,0.798994 -0.916002,1.356525 -0.922539,2.878466 -1.020737,4.383735 m 7.79404,3.117379 c -0.630885,-1.255119 -0.878432,-1.972564 -1.676785,-3.557188 -0.511011,-1.01429 0.885448,-1.281474 1.647876,-1.532774 3.851799,-1.269573 4.786156,-2.264171 6.07112,-3.267986 m -6.736052,9.196635 c -1.347182,0.354048 -1.433395,0.759645 -1.156405,1.301411 0.129709,0.253698 0.799846,0.659288 1.503325,0.08676 m 19.357657,4.33684 c -1.013944,0.85803 -2.399986,1.690047 -3.977485,2.372652 M 23.980507,27.924125 c 2.126616,1.264089 3.977631,2.661593 5.608559,4.135594 m 5.406188,1.821976 c 0.04068,0.868519 -0.803083,1.333866 -2.91992,1.30141 -1.563765,-0.02398 -2.855585,-0.351341 -2.688638,-0.925448 0.237685,-0.817369 0.742792,-0.794526 1.734605,-0.809766 2.17513,-0.03343 3.030078,0.04075 3.873953,0.433804 z M 33.231738,17.888804 c 0.394672,-0.283949 0.851974,0.121374 0.664933,0.795306 M 8.4173124,26.185645 C 7.5324425,26.272389 6.5471543,25.631024 6.0248751,24.545112 5.7879789,24.052562 5.6798372,23.5382 5.6889186,23.060904 M 27.645631,37.609536 c -0.728808,0.20614 -1.627507,0.02172 -2.364839,-0.558664 -0.602397,-0.474169 -0.973341,-1.115228 -1.073198,-1.746848 M 23.696519,26.48937 c 3.681856,-1.354268 6.807314,-3.207907 9.113554,-5.211844 M 33.9834,20.173502 c 2.753756,1.510032 6.50896,5.051694 8.263798,6.887311 m 0,0 c 0.245898,0.257216 0.452519,0.480935 0.611602,0.660871 m -0.644164,5.683073 c 1.402722,-1.982205 1.722206,-4.15175 0.644164,-5.683073 0.36431,0.966288 -0.435161,3.926867 -1.040764,2.834183 -0.77709,-1.402095 0.37322,-2.769143 0.429162,-3.495054 M 33.9834,20.173502 c -1.636755,-1.709473 -3.193804,-3.441725 -5.348367,-5.0032 -2.932198,-1.92652 -6.473442,-3.764942 -9.569242,-5.118882 M 4.6974739,15.980067 c -0.4234389,1.955235 -0.028728,4.058401 0.028911,5.408085 l 0.7805725,0.173521 c 0.097461,-1.533393 1.7173523,-1.716481 3.1190137,0.157976 0.7080302,0.946857 1.2345262,2.854873 1.4776909,4.093299 l 13.240824,8.444709 c -0.384981,-1.705757 0.98844,-3.07797 2.862098,-1.850895 2.560235,1.676721 2.659586,3.789807 3.00665,5.812968 6.131662,0.835074 10.845701,-1.768722 13.001402,-4.814973 l -0.526695,-0.824474 c -0.489348,0.401981 -0.915033,0.797698 -1.089103,0.928731 -0.898943,0.676692 -2.108483,1.463465 -3.435327,2.021134 -0.804515,0.338135 -0.473049,1.089115 -0.231281,1.561692 M 19.065791,10.05142 c -3.136799,1.499905 -6.020028,2.498016 -9.01995,4.887519 l -5.3483671,1.041128 c 2.74685,-2.680579 7.0719941,-4.568375 10.0896231,-5.9864894 1.152521,-0.5416196 3.025479,-0.416502 4.278694,0.05784"
     sodipodi:nodetypes="cccccccsscccssccsccccccsssccccsccscccccccccscccccccsccscccssccccsc" /></svg>
