<?xml version="1.0" encoding="UTF-8"?>
<!-- Created with Inkscape (http://www.inkscape.org/) -->
<svg width="48" height="48" version="1.1" viewBox="0 0 48 48" xml:space="preserve" xmlns="http://www.w3.org/2000/svg"><path d="m12.908 22.487c-0.20317 1.0882-0.30916 2.2544-0.2891 3.4704m5.8977-1.0411-4.9319-3.4066m1.0207-4.3837c1.5744 0.81643 2.9486 1.9663 3.7956 2.8739m-4.8163 1.5099-4.7819-3.3029c-0.49171-0.33964-0.8006-1.4481 0.54929-1.8798 1.719-0.54975 3.597-0.05993 5.2533 0.79899-0.916 1.3565-0.92254 2.8785-1.0207 4.3837m7.794 3.1174c-0.63088-1.2551-0.87843-1.9726-1.6768-3.5572-0.51101-1.0143 0.88545-1.2815 1.6479-1.5328 3.8518-1.2696 4.7862-2.2642 6.0711-3.268m-6.7361 9.1966c-1.3472 0.35405-1.4334 0.75964-1.1564 1.3014 0.12971 0.2537 0.79985 0.65929 1.5033 0.08676m19.358 4.3368c-1.0139 0.85803-2.4 1.69-3.9775 2.3727m-12.431-5.6394c2.1266 1.2641 3.9776 2.6616 5.6086 4.1356m5.4062 1.822c0.04068 0.86852-0.80308 1.3339-2.9199 1.3014-1.5638-0.02398-2.8556-0.35134-2.6886-0.92545 0.23768-0.81737 0.74279-0.79453 1.7346-0.80977 2.1751-0.03343 3.0301 0.04075 3.874 0.4338zm-1.7635-15.993c0.39467-0.28395 0.85197 0.12137 0.66493 0.79531m-25.479 7.5015c-0.88487 0.086744-1.8702-0.55462-2.3924-1.6405-0.2369-0.49255-0.34504-1.0069-0.33596-1.4842m21.957 14.549c-0.72881 0.20614-1.6275 0.02172-2.3648-0.55866-0.6024-0.47417-0.97334-1.1152-1.0732-1.7468m-0.51108-8.8147c3.6819-1.3543 6.8073-3.2079 9.1136-5.2118m1.1733-1.104c2.7538 1.51 6.509 5.0517 8.2638 6.8873m0 0c0.2459 0.25722 0.45252 0.48094 0.6116 0.66087m-0.64416 5.6831c1.4027-1.9822 1.7222-4.1518 0.64416-5.6831 0.36431 0.96629-0.43516 3.9269-1.0408 2.8342-0.77709-1.4021 0.37322-2.7691 0.42916-3.4951m-8.2638-6.8873c-1.6368-1.7095-3.1938-3.4417-5.3484-5.0032-2.9322-1.9265-6.4734-3.7649-9.5692-5.1189m-14.368 5.9286c-0.42344 1.9552-0.028728 4.0584 0.028911 5.4081l0.78057 0.17352c0.097461-1.5334 1.7174-1.7165 3.119 0.15798 0.70803 0.94686 1.2345 2.8549 1.4777 4.0933l13.241 8.4447c-0.38498-1.7058 0.98844-3.078 2.8621-1.8509 2.5602 1.6767 2.6596 3.7898 3.0066 5.813 6.1317 0.83507 10.846-1.7687 13.001-4.815l-0.5267-0.82447c-0.48935 0.40198-0.91503 0.7977-1.0891 0.92873-0.89894 0.67669-2.1085 1.4635-3.4353 2.0211-0.80452 0.33814-0.47305 1.0891-0.23128 1.5617m-17.866-27.04c-3.1368 1.4999-6.02 2.498-9.02 4.8875l-5.3484 1.0411c2.7468-2.6806 7.072-4.5684 10.09-5.9865 1.1525-0.54162 3.0255-0.4165 4.2787 0.05784" fill="none" stroke="#fff" stroke-linecap="round" stroke-linejoin="round" style="-inkscape-stroke:none"/></svg>
