<?xml version="1.0" encoding="UTF-8"?>
<!-- Created with Inkscape (http://www.inkscape.org/) -->
<svg width="48" height="48" version="1.1" viewBox="0 0 48 48" xml:space="preserve" xmlns="http://www.w3.org/2000/svg"><path d="m25.965 14.205h3.8628v1.9413m-1.8722 1.9705v7.8402m-13.735-7.8402v7.8402m-1.9402 3.8429h5.8596m-3.9193-21.439-3.8581-0.060824v1.9702h-1.9684l-0.06062 3.8725m29.278-5.7819 3.8898-0.060824v1.9703h1.9386l0.06036 3.8725m-37.081 21.594h-1.9187v-5.9364m9.7523-15.595h-1.9716l-8.49e-4 1.9413h-1.9184v1.9705h-1.9678l-0.05965 7.8402-1.9152-2e-3v1.9412m3.9427 0.02072 9.7915 0.06941h13.585v1.8136h1.9532m-3.869 1.9711-3.8669-0.01515m1.8717 0 1e-3 3.9806c-4.073 0.04564-13.051 0.03128-23.409 0v1.9851h1.9152v1.9779h3.9459m23.411-3.9714-1.9534 0.0085 3.98e-4 1.985h-1.916v1.9787h-19.542m27.301-7.9292 2.79e-4 -1.9712h1.9198v-1.9037h1.9698l-7.39e-4 -9.7794h-1.9691v-1.9704h-1.92l9.01e-4 -1.9413h-1.9712l9.03e-4 -1.9788h-1.9204v-1.9558h-3.8681l-9.61e-4 -1.9702h-11.669l-7.06e-4 1.9702h-3.9815l6.69e-4 1.9559h-1.92l5.78e-4 1.9788h1.9194m-9.753 13.691h-1.9187v1.9037m31.191 5.9288v-1.9873l1.92 4.77e-4v-1.9853l1.9697 0.01515" fill="none" stroke="#fff" stroke-linecap="round" stroke-linejoin="round" style="-inkscape-stroke:none"/></svg>
