<?xml version="1.0" encoding="UTF-8" standalone="no"?>
<!-- Created with Inkscape (http://www.inkscape.org/) -->

<svg
   width="48"
   height="48"
   viewBox="0 0 48 48"
   version="1.1"
   id="svg1"
   xml:space="preserve"
   inkscape:version="1.3.2 (091e20e, 2023-11-25, custom)"
   sodipodi:docname="yandex_bank.svg"
   xmlns:inkscape="http://www.inkscape.org/namespaces/inkscape"
   xmlns:sodipodi="http://sodipodi.sourceforge.net/DTD/sodipodi-0.dtd"
   xmlns="http://www.w3.org/2000/svg"
   xmlns:svg="http://www.w3.org/2000/svg"><sodipodi:namedview
     id="namedview1"
     pagecolor="#505050"
     bordercolor="#eeeeee"
     borderopacity="1"
     inkscape:showpageshadow="0"
     inkscape:pageopacity="0"
     inkscape:pagecheckerboard="0"
     inkscape:deskcolor="#505050"
     inkscape:document-units="px"
     inkscape:zoom="17.9375"
     inkscape:cx="23.972125"
     inkscape:cy="10.620209"
     inkscape:window-width="1920"
     inkscape:window-height="1057"
     inkscape:window-x="-8"
     inkscape:window-y="-8"
     inkscape:window-maximized="1"
     inkscape:current-layer="svg1" /><defs
     id="defs1" /><path
     id="line565"
     style="fill:none;stroke:#ffffff;stroke-width:0.999999;stroke-linecap:round;stroke-linejoin:round;stroke-opacity:1"
     class="t"
     d="m 24.051443,31.518437 -4.351907,4.293844 m 8.704127,0.0033 v -13.08851 c 0,0 -4.352232,0 -4.352232,0 -2.460448,0 -4.455094,1.968021 -4.455094,4.395613 0,2.427591 1.994648,4.395613 4.455094,4.395613 h 4.352232 M 5.499999,16.053915 V 10.97881 c 0,-2.2704656 1.827191,-4.0983185 4.096837,-4.0983185 v 0 h 28.806327 c 2.269645,0 4.096836,1.8278529 4.096836,4.0983185 v 5.075105 m -37,5.468046 v -5.467682 c 0,-2.270466 1.827191,-4.098319 4.096837,-4.098319 v 0 h 28.806327 c 2.269645,0 4.096836,1.827853 4.096836,4.098319 l 2e-6,5.467682 M 9.596836,17.423101 h 28.806327 c 2.269647,0 4.096836,1.827851 4.096836,4.09832 v 15.499768 c 0,2.270469 -1.827189,4.098319 -4.096836,4.098319 H 9.596836 c -2.269648,0 -4.096837,-1.82785 -4.096837,-4.098319 V 21.521421 c 0,-2.270469 1.827189,-4.09832 4.096837,-4.09832 z" /></svg>
