<?xml version="1.0" encoding="UTF-8"?>
<!-- Created with Inkscape (http://www.inkscape.org/) -->
<svg width="48" height="48" version="1.1" viewBox="0 0 48 48" xml:space="preserve" xmlns="http://www.w3.org/2000/svg"><path class="t" d="m24.051 31.518-4.3519 4.2938m8.7041 0.0033v-13.089h-4.3522c-2.4604 0-4.4551 1.968-4.4551 4.3956 0 2.4276 1.9946 4.3956 4.4551 4.3956h4.3522m-22.904-15.464v-5.0751c0-2.2705 1.8272-4.0983 4.0968-4.0983v0h28.806c2.2696 0 4.0968 1.8279 4.0968 4.0983v5.0751m-37 5.468v-5.4677c0-2.2705 1.8272-4.0983 4.0968-4.0983v0h28.806c2.2696 0 4.0968 1.8279 4.0968 4.0983l2e-6 5.4677m-32.903-4.0989h28.806c2.2696 0 4.0968 1.8279 4.0968 4.0983v15.5c0 2.2705-1.8272 4.0983-4.0968 4.0983h-28.806c-2.2696 0-4.0968-1.8278-4.0968-4.0983v-15.5c0-2.2705 1.8272-4.0983 4.0968-4.0983z" fill="none" stroke="#fff" stroke-linecap="round" stroke-linejoin="round"/></svg>
