<?xml version="1.0" encoding="UTF-8" standalone="no"?>
<svg
   viewBox="0 0 48 48"
   version="1.1"
   id="svg1"
   sodipodi:docname="abrp.svg"
   inkscape:version="1.3.2 (091e20ef0f, 2023-11-25)"
   xml:space="preserve"
   xmlns:inkscape="http://www.inkscape.org/namespaces/inkscape"
   xmlns:sodipodi="http://sodipodi.sourceforge.net/DTD/sodipodi-0.dtd"
   xmlns="http://www.w3.org/2000/svg"
   xmlns:svg="http://www.w3.org/2000/svg"><sodipodi:namedview
     id="namedview1"
     pagecolor="#505050"
     bordercolor="#eeeeee"
     borderopacity="1"
     inkscape:showpageshadow="0"
     inkscape:pageopacity="0"
     inkscape:pagecheckerboard="0"
     inkscape:deskcolor="#505050"
     inkscape:zoom="8.90625"
     inkscape:cx="13.305263"
     inkscape:cy="31.94386"
     inkscape:window-width="1918"
     inkscape:window-height="1053"
     inkscape:window-x="0"
     inkscape:window-y="0"
     inkscape:window-maximized="1"
     inkscape:current-layer="svg1" /><defs
     id="defs1"><style
       id="style1">.a { fill:none;stroke:#fff;stroke-linecap:round;stroke-linejoin:round; }
</style></defs><path
     id="path18"
     style="fill:none;stroke:#ffffff;stroke-linecap:round;stroke-linejoin:round;stroke-opacity:1"
     d="M 25.822242,39.767772 C 23.868108,41.596188 21.525785,42.69546 18.45691,42.354215 16.585392,42.146111 14.892395,41.2784 13.048047,40.726139 10.551042,39.978451 8.2230627,39.380968 5.6276746,39.472493 M 24.255775,37.370079 C 22.742144,37.860197 21.449544,38.694983 18.678291,38.09252 15.569562,37.416692 13.057179,34.620874 9.8448268,32.65504 8.2471364,31.677315 7.0125227,31.01536 5.5037091,30.752448 m 16.9566119,3.950288 c -1.6818,0.513637 -3.511792,0.965744 -5.41692,0.139078 -3.056383,-1.326215 -4.796354,-3.716979 -8.3061718,-5.611339 -1.083006,-0.584533 -2.1878926,-1.157844 -3.2376821,-1.27931 m 3.332e-4,-5.3134 0.7673539,-0.607632 -0.2283681,2.123429 3.512796,-4.05077 0.9368709,2.375044 1.839427,-2.953496 2.550722,1.501928 m -9.3792547,-0.535767 5.3225297,-6.308545 3.378102,3.443869 m 2.120174,7.079742 -1.654679,2.027767 m 27.835305,8.979459 c -1.472485,2.169639 -2.967051,4.362112 -4.470385,6.765731 M 17.147468,5.4422715 c -0.01207,0.019292 -0.02412,0.038602 -0.03613,0.05793 m 0,0 c -3.451254,5.5520236 -4.480449,12.5903716 -0.211683,20.3243776 3.385372,6.133504 7.019815,10.758623 10.707022,16.653946 M 9.5,5.5 h 29 c 2.216,0 4,1.784 4,4 v 29 c 0,2.216 -1.784,4 -4,4 h -29 c -2.216,0 -4,-1.784 -4,-4 v -29 c 0,-2.216 1.784,-4 4,-4 z m 20.147992,2.2632607 -3.710814,17.2501023 4.455349,-1.117307 -2.667123,11.943096 11.996022,-15.017231 -6.669,0.900566 8.475346,-14.2667476 z" /></svg>
