<?xml version="1.0" encoding="UTF-8" standalone="no"?>
<svg
   viewBox="0 0 48 48"
   version="1.1"
   id="svg1"
   sodipodi:docname="antutu_3dbench_lite.svg"
   inkscape:version="1.3.2 (091e20ef0f, 2023-11-25)"
   xmlns:inkscape="http://www.inkscape.org/namespaces/inkscape"
   xmlns:sodipodi="http://sodipodi.sourceforge.net/DTD/sodipodi-0.dtd"
   xmlns="http://www.w3.org/2000/svg"
   xmlns:svg="http://www.w3.org/2000/svg">
  <sodipodi:namedview
     id="namedview1"
     pagecolor="#505050"
     bordercolor="#eeeeee"
     borderopacity="1"
     inkscape:showpageshadow="0"
     inkscape:pageopacity="0"
     inkscape:pagecheckerboard="0"
     inkscape:deskcolor="#505050"
     inkscape:zoom="8.90625"
     inkscape:cx="9.6"
     inkscape:cy="24.870175"
     inkscape:window-width="1918"
     inkscape:window-height="1053"
     inkscape:window-x="0"
     inkscape:window-y="0"
     inkscape:window-maximized="1"
     inkscape:current-layer="svg1" />
  <defs
     id="defs1">
    <style
       id="style1">.a { fill:none;stroke:#fff;stroke-linecap:round;stroke-linejoin:round; }
</style>
  </defs>
  <path
     id="line470"
     style="display:inline;fill:none;stroke:#ffffff;stroke-linecap:round;stroke-linejoin:round"
     class="t"
     d="M 40.326236 31.74295 C 41.030227 29.787797 41.4149 27.672573 41.4149 25.464694 C 41.4149 19.237392 38.35476 13.747198 33.700854 10.506522 C 33.232242 11.583684 32.904463 12.39483 31.561248 13.272391 C 31.433883 7.8557881 27.263353 6.7348087 24.181597 4.4999385 C 24.676984 7.5980132 23.675234 11.05532 21.089304 12.12233 L 21.089304 12.12233 C 19.768823 10.930136 19.536347 9.3148233 19.884712 7.2979949 C 17.256281 9.4090108 14.417669 12.11059 14.456112 16.619234 C 13.21316 16.746261 12.279184 16.220351 11.801288 14.548548 C 8.8221838 16.744714 6.5807655 22.20524 6.5851064 25.464694 C 6.5983654 35.425279 14.270594 43.5 23.928201 43.5 C 26.891471 43.5 29.6826 42.739795 32.128232 41.398166 " />
  <path
     id="path36"
     style="display:inline;fill:none;stroke:#ffffff;stroke-linecap:round;stroke-linejoin:round"
     class="t"
     d="M 15.898704 23.168263 C 16.656787 24.792721 17.450896 26.540915 17.605713 28.473841 " />
  <path
     id="path35"
     style="display:inline;fill:none;stroke:#ffffff;stroke-linecap:round;stroke-linejoin:round"
     class="t"
     d="M 15.609393 18.181188 C 14.820241 18.505394 14.362378 19.18181 14.684296 20.252205 C 14.907762 20.995239 15.244604 21.759459 15.611683 22.55236 " />
  <path
     id="path34"
     style="display:inline;fill:none;stroke:#ffffff;stroke-linecap:round;stroke-linejoin:round"
     class="t"
     d="M 28.716469 27.482236 C 27.355944 27.075559 25.900506 26.856007 24.393489 26.856007 C 22.75135 26.856007 21.174599 27.115807 19.716535 27.592205 C 19.883952 26.640208 19.992322 25.714887 20.045691 24.83902 " />
  <path
     id="path33"
     style="display:inline;fill:none;stroke:#ffffff;stroke-linecap:round;stroke-linejoin:round"
     class="t"
     d="M 27.929491 24.846082 C 28.221364 25.724693 28.453295 26.573189 28.716469 27.482236 " />
  <path
     id="path32"
     style="display:inline;fill:none;stroke:#ffffff;stroke-linecap:round;stroke-linejoin:round"
     class="t"
     d="M 35.573592 32.14187 C 34.373692 30.536651 32.736703 29.214891 30.8202 28.294587 C 31.184778 27.179114 31.36541 26.016383 31.404977 24.843382 " />
  <path
     id="path30"
     style="display:inline;fill:none;stroke:#ffffff;stroke-linecap:round;stroke-linejoin:round"
     class="t"
     d="M 11.086839 37.647998 C 11.416788 33.714919 13.959937 30.356622 17.605713 28.473828 " />
  <path
     id="path29"
     style="display:inline;fill:none;stroke:#ffffff;stroke-linecap:round;stroke-linejoin:round"
     class="t"
     d="M 31.361193 32.213827 L 25.721819 33.548218 C 25.751149 34.997882 28.482556 35.552303 29.219542 34.697589 L 31.361193 32.213827 L 31.361193 32.213827 " />
  <path
     id="path28"
     style="display:inline;fill:none;stroke:#ffffff;stroke-linecap:round;stroke-linejoin:round"
     class="t"
     d="M 16.500374 32.06147 L 22.139747 33.395861 C 22.110417 34.845525 19.379011 35.399946 18.642024 34.545232 L 16.500374 32.06147 L 16.500374 32.06147 " />
  <path
     id="path27"
     style="display:inline;fill:none;stroke:#ffffff;stroke-linecap:round;stroke-linejoin:round"
     class="t"
     d="M 25.225 22.714546 L 25.225 14.714546 L 27.025 14.714546 C 28.957998 14.714546 30.525 16.281548 30.525 18.214546 L 30.525 19.214546 C 30.525 21.147544 28.957998 22.714546 27.025 22.714546 L 25.225 22.714546 L 25.225 22.714546 " />
  <path
     id="path26"
     style="display:inline;fill:none;stroke:#ffffff;stroke-linecap:round;stroke-linejoin:round"
     class="t"
     d="M 17.4759 22.039715 C 18.028199 22.502515 18.624401 22.714515 19.9635 22.714515 L 20.2755 22.714515 C 21.379799 22.714515 22.275 21.819314 22.275 20.715015 L 22.275 20.715015 C 22.275 19.610716 21.379799 18.715515 20.2755 18.715515 " />
  <path
     id="path25"
     style="display:inline;fill:none;stroke:#ffffff;stroke-linecap:round;stroke-linejoin:round"
     class="t"
     d="M 17.475 15.382715 C 18.028499 14.921415 18.625301 14.711015 19.9644 14.714615 L 20.2755 14.716415 C 21.379799 14.716415 22.275 15.611616 22.275 16.715915 L 22.275 16.715915 C 22.275 17.820214 21.379799 18.715415 20.2755 18.715415 " />
  <path
     id="path24"
     style="display:inline;fill:none;stroke:#ffffff;stroke-linecap:round;stroke-linejoin:round"
     class="t"
     d="M 18.7385 18.715415 L 20.2755 18.715415 " />
  <path
     id="polyline340"
     style="fill:none;stroke:#ffffff;stroke-linecap:round;stroke-linejoin:round"
     class="t"
     d="m 36.5,34.5 v 8 h 4 m 5,-4 a 7,7 0 0 1 -7,7 7,7 0 0 1 -7,-7 7,7 0 0 1 7,-7 7,7 0 0 1 7,7 z" />
</svg>
