<?xml version="1.0" encoding="UTF-8" standalone="no"?>
<svg
   viewBox="0 0 48 48"
   version="1.1"
   id="svg1"
   sodipodi:docname="antutu_3dbench.svg"
   inkscape:version="1.3.2 (091e20ef0f, 2023-11-25)"
   xmlns:inkscape="http://www.inkscape.org/namespaces/inkscape"
   xmlns:sodipodi="http://sodipodi.sourceforge.net/DTD/sodipodi-0.dtd"
   xmlns="http://www.w3.org/2000/svg"
   xmlns:svg="http://www.w3.org/2000/svg">
  <sodipodi:namedview
     id="namedview1"
     pagecolor="#505050"
     bordercolor="#eeeeee"
     borderopacity="1"
     inkscape:showpageshadow="0"
     inkscape:pageopacity="0"
     inkscape:pagecheckerboard="0"
     inkscape:deskcolor="#505050"
     inkscape:zoom="8.90625"
     inkscape:cx="9.6"
     inkscape:cy="24.870175"
     inkscape:window-width="1918"
     inkscape:window-height="1053"
     inkscape:window-x="0"
     inkscape:window-y="0"
     inkscape:window-maximized="1"
     inkscape:current-layer="svg1" />
  <defs
     id="defs1">
    <style
       id="style1">.a { fill:none;stroke:#fff;stroke-linecap:round;stroke-linejoin:round; }
</style>
  </defs>
  <path
     id="line470"
     style="display:inline;fill:none;stroke:#ffffff;stroke-linecap:round;stroke-linejoin:round"
     class="t"
     d="m 18.7385,18.715415 h 1.537 m -2.8005,-3.3327 c 0.5535,-0.4613 1.1503,-0.6717 2.4894,-0.6681 l 0.3111,0.0018 c 1.1043,0 1.9995,0.8952 1.9995,1.9995 v 0 c 0,1.1043 -0.8952,1.9995 -1.9995,1.9995 m -2.7996,3.3243 c 0.5523,0.4628 1.1485,0.6748 2.4876,0.6748 h 0.312 c 1.1043,0 1.9995,-0.8952 1.9995,-1.9995 v 0 c 0,-1.1043 -0.8952,-1.9995 -1.9995,-1.9995 m 4.9495,3.999031 v -8 h 1.8 c 1.933,0 3.5,1.567 3.5,3.5 v 1 c 0,1.933 -1.567,3.5 -3.5,3.5 z m -8.724626,9.346924 5.639373,1.334391 c -0.02933,1.449665 -2.760735,2.004086 -3.497723,1.149371 l -2.14165,-2.483762 v 0 m 14.860819,0.152357 -5.639374,1.334391 c 0.02933,1.449665 2.760736,2.004086 3.497723,1.149371 l 2.141651,-2.483762 v 0 m -20.274354,5.434171 c 0.329949,-3.933083 2.873094,-7.291374 6.518874,-9.17417 m 19.975478,8.25723 c -0.648079,-3.682882 -3.23017,-6.740973 -6.760991,-8.436471 0.364578,-1.115474 0.54521,-2.278203 0.584777,-3.451205 m -3.475486,0.0027 c 0.291873,0.878612 0.523804,1.727106 0.786978,2.636154 m 0,0 c -1.360526,-0.406677 -2.815961,-0.626229 -4.32298,-0.626229 -1.642141,0 -3.218889,0.2598 -4.676954,0.736198 0.167417,-0.951998 0.275787,-1.877317 0.329156,-2.753185 m -4.436298,-6.657832 c -0.789153,0.324206 -1.247015,1.000621 -0.925097,2.071017 0.223466,0.743035 0.560308,1.507253 0.927387,2.300155 m 0.287021,0.615903 c 0.758084,1.62446 1.552192,3.37265 1.707009,5.305578 M 21.089304,12.12233 C 19.768822,10.930135 19.536347,9.3148253 19.884712,7.2979949 17.256278,9.4090129 14.417669,12.110585 14.456112,16.619234 13.213159,16.746261 12.279184,16.220353 11.801288,14.548548 8.8221808,16.744716 6.5807655,22.205237 6.5851064,25.464694 6.5983654,35.425289 14.270584,43.5 23.928201,43.5 33.585818,43.5 41.4149,35.425298 41.4149,25.464694 c 0,-6.227308 -3.060135,-11.717493 -7.714046,-14.958172 -0.468612,1.077163 -0.79639,1.888307 -2.139606,2.765869 -0.127365,-5.4166083 -4.297892,-6.5375801 -7.379651,-8.7724525 0.495387,3.0980778 -0.50636,6.5553805 -3.092293,7.6223915 v 0" />
</svg>
