<?xml version="1.0" encoding="UTF-8" standalone="no"?>
<svg
   viewBox="0 0 48 48"
   version="1.1"
   id="svg1"
   sodipodi:docname="banco_del_bienestar.svg"
   inkscape:version="1.3.2 (091e20ef0f, 2023-11-25)"
   xml:space="preserve"
   xmlns:inkscape="http://www.inkscape.org/namespaces/inkscape"
   xmlns:sodipodi="http://sodipodi.sourceforge.net/DTD/sodipodi-0.dtd"
   xmlns="http://www.w3.org/2000/svg"
   xmlns:svg="http://www.w3.org/2000/svg"><sodipodi:namedview
     id="namedview1"
     pagecolor="#505050"
     bordercolor="#eeeeee"
     borderopacity="1"
     inkscape:showpageshadow="0"
     inkscape:pageopacity="0"
     inkscape:pagecheckerboard="0"
     inkscape:deskcolor="#505050"
     inkscape:zoom="12.59534"
     inkscape:cx="10.44037"
     inkscape:cy="30.050798"
     inkscape:window-width="1918"
     inkscape:window-height="1053"
     inkscape:window-x="0"
     inkscape:window-y="0"
     inkscape:window-maximized="1"
     inkscape:current-layer="svg1" /><defs
     id="defs1"><style
       id="style1">.a { fill:none;stroke:#fff;stroke-linecap:round;stroke-linejoin:round; }
</style></defs><path
     id="path3"
     style="display:inline;fill:none;stroke:#ffffff;stroke-width:1;stroke-linecap:round;stroke-linejoin:round;stroke-opacity:1"
     d="m 26.116384,29.89469 c -0.23533,0.446338 -0.678803,0.747203 -1.187104,0.747203 v 0 c -0.754562,0 -1.366215,-0.66288 -1.366215,-1.480635 v -0.962414 c 0,-0.817755 0.611653,-1.480637 1.366215,-1.480637 v 0 c 0.75456,0 1.366215,0.662882 1.366215,1.480637 v 0.481206 c 0,0 -2.73243,0 -2.73243,0 M 10.316153,27.680697 H 8.0619028 m 2.2542502,-7.5e-5 c 0.754561,0 1.366215,0.662881 1.366215,1.480636 0,0.817755 -0.611654,1.480635 -1.366215,1.480635 H 8.0619028 V 24.71935 h 2.2542502 c 0.754561,0 1.366215,0.662881 1.366215,1.480636 0,0.817755 -0.611654,1.480636 -1.366215,1.480636 z m 7.336157,2.214068 c -0.235329,0.446338 -0.678803,0.747203 -1.187104,0.747203 v 0 c -0.754561,0 -1.366215,-0.66288 -1.366215,-1.480635 v -0.962414 c 0,-0.817755 0.611654,-1.480637 1.366215,-1.480637 v 0 c 0.754561,0 1.366216,0.662882 1.366216,1.480637 v 0.481206 c 0,0 -2.732431,0 -2.732431,0 m 4.232043,1.961843 v -3.923688 m 2.732424,3.923686 v -2.443048 c 0,-0.817755 -0.611654,-1.480637 -1.366215,-1.480637 v 0 c -0.75456,0 -1.366215,0.662881 -1.366215,1.480637 m 17.561601,2.443051 v -3.923688 m 0,2.443051 c 0,0.817755 -0.611655,1.480635 -1.366215,1.480635 v 0 c -0.754562,0 -1.366215,-0.66288 -1.366215,-1.480635 v -0.962414 c 0,-0.817755 0.611653,-1.480636 1.366215,-1.480636 v 0 c 0.75456,0 1.366215,0.662881 1.366215,1.480636 M 31.41459,26.718206 h 1.434512 m -0.717256,-1.221521 v 4.40489 c 0,0.408877 0.305827,0.740318 0.683107,0.740318 h 0.204933 m -5.138782,-0.331071 c 0.24947,0.226982 0.518752,0.331071 1.123644,0.331071 h 0.306509 c 0.498805,0 0.903138,-0.439157 0.903138,-0.980922 v 0 c 0,-0.541763 -0.404333,-0.980921 -0.903138,-0.980921 h -0.61302 c -0.498805,0 -0.903137,-0.439156 -0.903137,-0.980921 v 0 c 0,-0.541764 0.404332,-0.980922 0.903137,-0.980922 h 0.306511 c 0.604823,0 0.874171,0.104021 1.123643,0.331072 m -16.229595,-2.14485 c 0,0.286206 -0.214086,0.518224 -0.478175,0.518224 -0.264089,0 -0.478176,-0.232018 -0.478176,-0.518224 0,-0.286206 0.214087,-0.518222 0.478176,-0.518222 0.264089,0 0.478175,0.232016 0.478175,0.518222 z m -0.478175,1.813776 v 3.923688 m 25.151261,-3.923688 v 3.923688 m 0,-2.443051 c 0,-0.817755 0.611654,-1.480636 1.366215,-1.480636 v 0 m -28.725401,-7.0599 H 9.4022203 m 1.8104757,-5.8e-5 c 0.606017,0 1.097257,0.514887 1.097257,1.150071 0,0.635185 -0.49124,1.150072 -1.097257,1.150072 H 9.4022203 v -4.600285 h 1.8104757 c 0.606017,0 1.097257,0.514888 1.097257,1.150072 0,0.635184 -0.49124,1.15007 -1.097257,1.15007 z m 12.013929,1.720909 c -0.189159,0.346114 -0.545008,0.579234 -0.952805,0.579234 v 0 c -0.606015,0 -1.097256,-0.514887 -1.097256,-1.150071 v -0.747547 c 0,-0.635184 0.491241,-1.150072 1.097256,-1.150072 v 0 c 0.407029,0 0.762266,0.232259 0.951709,0.57728 m -5.736004,2.47041 v -3.04769 m 2.194511,3.04769 v -1.897618 c 0,-0.635184 -0.491241,-1.150072 -1.097257,-1.150072 v 0 c -0.606015,0 -1.097258,0.514888 -1.097258,1.150072 m -1.492526,1.897618 v -3.04769 m 0,1.897619 c 0,0.635184 -0.491241,1.150071 -1.097257,1.150071 v 0 c -0.606015,0 -1.097257,-0.514887 -1.097257,-1.150071 v -0.747547 c 0,-0.635184 0.491242,-1.150072 1.097257,-1.150072 v 0 c 0.606016,0 1.097257,0.514888 1.097257,1.150072 m 9.819415,-1.150071 c 0.607879,0 1.097257,0.512931 1.097257,1.150071 v 0.747546 c 0,0.63714 -0.489378,1.150071 -1.097257,1.150071 -0.607881,0 -1.097259,-0.512931 -1.097259,-1.150071 v -0.747546 c 0,-0.63714 0.489378,-1.150071 1.097259,-1.150071 z m 7.080093,3.047694 v -4.599884 m 0,2.70243 c 0,-0.63513 -0.491204,-1.149971 -1.097174,-1.149971 v 0 c -0.605969,0 -1.097175,0.514841 -1.097175,1.149971 v 0.747482 c 0,0.635128 0.491206,1.149969 1.097175,1.149969 v 0 c 0.60597,0 1.097174,-0.514841 1.097174,-1.149969 m 3.447391,0.56964 c -0.188979,0.346658 -0.54513,0.580332 -0.953335,0.580332 v 0 c -0.605969,0 -1.097175,-0.514842 -1.097175,-1.149971 v -0.747482 c 0,-0.635128 0.491206,-1.149972 1.097175,-1.149972 v 0 c 0.60597,0 1.097173,0.514844 1.097173,1.149972 v 0.37374 c 0,0 -2.194348,0 -2.194348,0 m 3.59123,-3.076171 v 4.024899 c 0,0.317565 0.245602,0.574985 0.548587,0.574985 h 0.164581 M 9.5,5.5 h 29 c 2.216,0 4,1.784 4,4 v 29 c 0,2.216 -1.784,4 -4,4 h -29 c -2.216,0 -4,-1.784 -4,-4 v -29 c 0,-2.216 1.784,-4 4,-4 z" /></svg>
