<?xml version="1.0" encoding="UTF-8" standalone="no"?>
<svg
   viewBox="0 0 48 48"
   version="1.1"
   id="svg1"
   sodipodi:docname="classdojo.svg"
   inkscape:version="1.3.2 (091e20ef0f, 2023-11-25)"
   xml:space="preserve"
   xmlns:inkscape="http://www.inkscape.org/namespaces/inkscape"
   xmlns:sodipodi="http://sodipodi.sourceforge.net/DTD/sodipodi-0.dtd"
   xmlns="http://www.w3.org/2000/svg"
   xmlns:svg="http://www.w3.org/2000/svg"><sodipodi:namedview
     id="namedview1"
     pagecolor="#505050"
     bordercolor="#eeeeee"
     borderopacity="1"
     inkscape:showpageshadow="0"
     inkscape:pageopacity="0"
     inkscape:pagecheckerboard="0"
     inkscape:deskcolor="#505050"
     inkscape:zoom="8.90625"
     inkscape:cx="-2.6385965"
     inkscape:cy="26.778947"
     inkscape:window-width="1918"
     inkscape:window-height="1053"
     inkscape:window-x="0"
     inkscape:window-y="0"
     inkscape:window-maximized="1"
     inkscape:current-layer="svg1" /><defs
     id="defs1"><style
       id="style1">.a { fill:none;stroke:#fff;stroke-linecap:round;stroke-linejoin:round; }
</style></defs><path
     id="path55"
     style="display:inline;fill:none;stroke:#ffffff;stroke-width:1;stroke-linecap:round;stroke-linejoin:round;stroke-opacity:1"
     d="m 23.240536,31.936731 a 3.4674588,5.5678956 66.842121 0 1 3.165472,-2.404851 3.4674588,5.5678956 66.842121 0 1 4.039764,-0.611368 m -8.980478,3.786045 c 0.814998,-1.29127 2.34411,-1.158337 2.545537,0.521063 0.160779,-1.449653 1.585701,-1.903189 2.565729,-0.504739 -0.225928,-1.538888 1.249947,-2.150623 2.388346,-0.975537 -0.588033,-1.64434 0.815145,-2.345267 2.175424,-1.391344 -1.51716,-1.32584 -0.438995,-2.605692 1.403735,-2.118877 m 0.389184,0.478339 c 0.233034,-1.782988 -0.234571,-3.526517 -1.417803,-3.939638 -1.121893,-0.391706 -2.086484,0.164405 -2.829232,0.972121 -0.75552,0.8216 -1.487943,1.398439 -2.836343,1.975191 -1.3484,0.576751 -2.271417,0.707995 -3.387389,0.686889 -1.097109,-0.02075 -2.165494,0.292697 -2.657101,1.374551 -0.518485,1.140998 0.419398,2.683376 1.869724,3.746339 1.413725,1.036127 3.196057,1.471768 6.655528,-0.008 3.459473,-1.479721 4.375464,-3.069518 4.602616,-4.807499 z m -3.340485,-6.778039 a 1.0002966,1.0002964 66.842121 0 1 -0.526314,1.31308 1.0002966,1.0002964 66.842121 0 1 -1.31308,-0.526315 1.0002966,1.0002964 66.842121 0 1 0.526314,-1.31308 1.0002966,1.0002964 66.842121 0 1 1.31308,0.526315 z m -9.040401,3.866857 a 1.0002966,1.0002964 66.842121 0 1 -0.526314,1.313078 1.0002966,1.0002964 66.842121 0 1 -1.31308,-0.526313 1.0002966,1.0002964 66.842121 0 1 0.526315,-1.31308 1.0002966,1.0002964 66.842121 0 1 1.313079,0.526315 z m 19.861241,-2.048011 a 16.37503,16.375027 66.842121 0 1 -1.733988,7.582298 m 0,0 a 16.37503,16.375027 66.842121 0 1 -8.199465,7.718333 16.37503,16.375027 66.842121 0 1 -11.24482,0.598557 m 0,0 A 16.37503,16.375027 66.842121 0 1 12.554502,35.672433 M 10.015814,32.454241 A 16.37503,16.375027 66.842121 0 1 8.9848016,30.441036 16.37503,16.375027 66.842121 0 1 8.6016906,29.459094 M 7.908327,26.811552 A 16.37503,16.375027 66.842121 0 1 7.6654045,24.030539 m 0.3268029,-3.284527 a 16.37503,16.375027 66.842121 0 1 5.3526766,-9.14421 M 16.43263,9.5008334 a 16.37503,16.375027 66.842121 0 1 1.168033,-0.5551464 16.37503,16.375027 66.842121 0 1 21.495348,8.615864 v 0 a 16.37503,16.375027 66.842121 0 1 0.74376,2.136071 M 11.408368,8.7593544 A 1.6291746,1.6291742 66.842121 0 1 10.551164,10.897956 1.6291746,1.6291742 66.842121 0 1 8.4125603,10.040753 1.6291746,1.6291742 66.842121 0 1 9.2697659,7.90215 1.6291746,1.6291742 66.842121 0 1 11.408368,8.7593544 v 0 m 4.261499,22.3308676 c -1.267235,-0.110476 -2.393104,0.106043 -3.592916,0.431601 -0.670428,-0.360957 -2.1282654,-1.010032 -2.2554887,-0.460825 -0.092249,0.398237 0.3068647,0.876989 0.5206437,1.166698 -0.116208,0.07656 -0.225065,0.151291 -0.32708,0.224824 m 0,0 c -0.880161,0.634494 -1.2505202,1.180643 -1.4300536,2.056866 -0.099885,0.487498 0.1987408,0.913844 0.6657883,0.885962 1.1655313,-0.06958 2.2677143,0.03422 3.3289783,0.250807 m 0,0 c 2.085122,0.425543 4.012309,1.286487 5.951719,2.123286 m -3.16503,-22.402206 c -1.449749,0.941848 -2.572933,2.03944 -3.131837,3.544539 -0.448633,1.208143 -0.570073,1.829871 -0.466925,2.477874 M 30.628361,13.322351 C 30.230996,12.800193 29.697515,12.458597 28.513973,11.948584 26.242324,10.969685 23.745071,11.627488 20.9568,12.657404 19.773345,11.241927 18.123677,10.166223 16.453062,9.5298884 m 0,0 C 15.791326,9.2778324 15.1263,9.0947114 14.485661,8.9867157 13.643585,8.8447623 12.501704,9.1402624 12.64993,10.26813 c 0.0599,0.455741 0.345101,0.895258 0.70528,1.349175 m 0,0 c 0.457147,0.576131 1.035065,1.175468 1.426327,1.860642 0.376592,0.659498 0.548508,1.288724 0.584887,1.889294 m -1.749952,11.096645 c 0.633308,1.553452 1.294207,3.027112 2.333833,5.233619 1.479385,3.139851 2.08123,4.712391 3.255965,7.855226 M 34.948207,22.844285 c 0.795367,-0.992713 1.729562,-1.657347 2.793682,-2.300141 0.202025,-0.734133 0.739544,-2.236682 1.224576,-1.949355 0.351704,0.208345 0.422253,0.827633 0.484106,1.182325 0.135626,-0.03116 0.264856,-0.05826 0.388492,-0.08124 m 0,0 c 1.066752,-0.198259 1.717504,-0.08887 2.475151,0.38649 0.421527,0.264474 0.523587,0.774898 0.180844,1.093389 -0.855329,0.794802 -1.541524,1.663545 -2.117894,2.5806 m 0,0 c -1.132423,1.801786 -1.840902,3.790085 -2.575284,5.770546 M 33.020892,18.164022 c 0.685973,1.530925 1.295189,3.026691 2.172787,5.302503 1.248818,3.238471 1.970329,4.759827 3.431722,7.780049 M 8.0224995,20.745132 c -0.8680557,0.131637 -1.7713022,0.431217 -2.7219857,0.858046 0.5148004,1.003141 1.3393236,1.867112 2.384348,2.432803 m 0,0 c 0.6960706,0.376795 1.4899737,0.621256 2.3553382,0.686363 -0.908344,0.527461 -1.6103929,1.254721 -2.0957032,2.080968 m 0,0 c -0.50184,0.854391 -0.7719276,1.814632 -0.7987167,2.769257 0.5265464,-0.01269 1.028041,-0.04945 1.5036746,-0.115743 m 0,0 c 2.1617393,-0.301273 3.7893133,-1.212356 4.8070583,-3.243987 0.04995,0.08612 0.09364,0.163846 0.146807,0.253945 2.498912,-2.871574 3.869917,-4.496963 8.687615,-6.55764 4.817702,-2.060678 6.938144,-1.928688 10.7407,-1.75245 -0.641855,-2.272864 -1.096988,-3.2109 -2.309353,-4.821377 -3.490883,-0.40904 -5.703038,-0.332679 -10.506634,1.721969 h 3e-6 v 0 c -4.781636,2.045252 -6.373997,3.589579 -8.474864,6.372291 -1.187725,-0.700364 -2.4132571,-0.882286 -3.7182855,-0.684445" /></svg>
