<?xml version="1.0" encoding="UTF-8" standalone="no"?>
<svg
   viewBox="0 0 48 48"
   version="1.1"
   id="svg1"
   sodipodi:docname="flipkart_health_plus.svg"
   inkscape:version="1.3.2 (091e20ef0f, 2023-11-25)"
   xml:space="preserve"
   xmlns:inkscape="http://www.inkscape.org/namespaces/inkscape"
   xmlns:sodipodi="http://sodipodi.sourceforge.net/DTD/sodipodi-0.dtd"
   xmlns="http://www.w3.org/2000/svg"
   xmlns:svg="http://www.w3.org/2000/svg"><sodipodi:namedview
     id="namedview1"
     pagecolor="#505050"
     bordercolor="#eeeeee"
     borderopacity="1"
     inkscape:showpageshadow="0"
     inkscape:pageopacity="0"
     inkscape:pagecheckerboard="0"
     inkscape:deskcolor="#505050"
     inkscape:zoom="8.90625"
     inkscape:cx="-22.624561"
     inkscape:cy="24.757895"
     inkscape:window-width="1918"
     inkscape:window-height="1053"
     inkscape:window-x="0"
     inkscape:window-y="0"
     inkscape:window-maximized="1"
     inkscape:current-layer="svg1" /><defs
     id="defs1"><style
       id="style1">.a { fill:none;stroke:#fff;stroke-linecap:round;stroke-linejoin:round; }
</style></defs><path
     id="path7"
     style="fill:none;stroke:#ffffff;stroke-width:0.999998;stroke-linecap:round;stroke-linejoin:round;stroke-opacity:1"
     d="m 15.235035,28.379003 h -0.376348 m 2.764693,0 h -0.718699 m 4.135384,0 h -1.74704 m 14.032069,0 H 22.709712 M 35.960376,19.44294 c -3.853838,-0.0036 -6.183115,1.832778 -6.764388,5.669728 l -1.680544,11.09317 M 9.6367188,3.9765625 V 11.082031 H 2.9824219 v 6.816407 h 6.6542969 v 6.935546 h 7.2109372 v -6.935546 h 6.878906 V 11.082031 H 16.847656 V 3.9765625 Z M 4.005996,20.325344 c 0,2.668458 0.957042,5.107528 2.538102,6.975456 l 13.908866,14.063026 c 0.644865,0.652013 1.92077,1.482217 3.495396,1.482217 1.574627,0 2.850532,-0.830204 3.495397,-1.482217 L 41.352619,27.3008 c 1.58106,-1.867928 2.538102,-4.306998 2.538102,-6.975456 0,-5.877487 -4.642946,-10.6421314 -10.370309,-10.6421308 -2.937657,3e-7 -5.590021,1.2534968 -7.476909,3.2677178" /></svg>
