<?xml version="1.0" encoding="UTF-8" standalone="no"?>
<svg
   viewBox="0 0 48 48"
   version="1.1"
   id="svg1"
   sodipodi:docname="goldex.svg"
   inkscape:version="1.3.2 (091e20ef0f, 2023-11-25)"
   xml:space="preserve"
   xmlns:inkscape="http://www.inkscape.org/namespaces/inkscape"
   xmlns:sodipodi="http://sodipodi.sourceforge.net/DTD/sodipodi-0.dtd"
   xmlns="http://www.w3.org/2000/svg"
   xmlns:svg="http://www.w3.org/2000/svg"><sodipodi:namedview
     id="namedview1"
     pagecolor="#505050"
     bordercolor="#eeeeee"
     borderopacity="1"
     inkscape:showpageshadow="0"
     inkscape:pageopacity="0"
     inkscape:pagecheckerboard="0"
     inkscape:deskcolor="#505050"
     inkscape:zoom="8.90625"
     inkscape:cx="4.0982456"
     inkscape:cy="47.326316"
     inkscape:window-width="1918"
     inkscape:window-height="1053"
     inkscape:window-x="0"
     inkscape:window-y="0"
     inkscape:window-maximized="1"
     inkscape:current-layer="svg1" /><defs
     id="defs1"><style
       id="style1">.a { fill:none;stroke:#fff;stroke-linecap:round;stroke-linejoin:round; }
</style></defs><path
     id="path7"
     style="fill:none;stroke:#ffffff;stroke-width:1;stroke-linecap:round;stroke-linejoin:round;stroke-opacity:1"
     d="m 22.619131,43.099087 c -1.875568,-1.068951 -3.044723,-2.637705 -4.205417,-4.216307 -0.602017,-2.295243 -1.222135,-4.691295 -1.148864,-7.102906 0.01881,-0.619344 0.513241,-1.014631 0.947756,-0.844688 1.26158,0.493418 3.333886,0.07255 4.381355,-0.507952 0.211717,-0.956055 0.624352,-1.423509 1.406039,-1.423509 0.781686,0 1.194321,0.467454 1.406039,1.423509 1.047469,0.580505 3.119776,1.00137 4.381354,0.507952 0.434515,-0.169943 0.92894,0.225344 0.947756,0.844688 0.07327,2.411611 -0.546846,4.807663 -1.148863,7.102906 -1.160695,1.578602 -2.329849,3.147356 -4.205417,4.216307 -0.415676,0.236907 -0.83998,0.400911 -1.380868,0.400913 -0.540888,2e-6 -0.965193,-0.164006 -1.38087,-0.400913 z M 16.843143,26.301753 c 1.831196,0.372752 3.396274,1.594412 4.084998,3.557241 -0.789577,0.443723 -1.791927,0.399547 -2.709778,-0.277956 -1.133267,-0.836508 -1.468499,-2.09036 -1.37522,-3.279285 z m 14.313715,0 c -1.831197,0.372752 -3.396274,1.594412 -4.084999,3.557241 0.789578,0.443723 1.791927,0.399547 2.709779,-0.277956 1.133266,-0.836508 1.468498,-2.09036 1.37522,-3.279285 z M 25.366007,24.009225 A 1.3660064,1.3659126 0 0 1 24,25.375138 1.3660064,1.3659126 0 0 1 22.633994,24.009225 1.3660064,1.3659126 0 0 1 24,22.643313 1.3660064,1.3659126 0 0 1 25.366007,24.009225 Z M 17.436519,31.168691 15.320439,27.913867 9.4802022,15.68967 C 8.9828774,14.648724 9.9019758,14.687029 10.54934,15.058498 l 5.183599,2.974442 c 0.960788,0.551317 1.847167,0.02192 1.678187,-1.035039 L 15.540742,5.2987051 c -0.0562,-0.3515087 0.475177,-1.2094863 0.905731,-0.5658693 L 24,16.005601 31.553529,4.7328358 c 0.430554,-0.643617 0.961927,0.2143606 0.90573,0.5658693 L 30.588875,16.997901 c -0.16898,1.056959 0.7174,1.586356 1.678188,1.035039 l 5.183598,-2.974442 c 0.647365,-0.371469 1.56646,-0.409774 1.069138,0.631172 l -5.840236,12.224197 -2.11608,3.254824" /></svg>
