<?xml version="1.0" encoding="UTF-8" standalone="no"?>
<svg
   viewBox="0 0 48 48"
   version="1.1"
   id="svg1"
   sodipodi:docname="greggs.svg"
   inkscape:version="1.3.2 (091e20ef0f, 2023-11-25)"
   xml:space="preserve"
   xmlns:inkscape="http://www.inkscape.org/namespaces/inkscape"
   xmlns:sodipodi="http://sodipodi.sourceforge.net/DTD/sodipodi-0.dtd"
   xmlns="http://www.w3.org/2000/svg"
   xmlns:svg="http://www.w3.org/2000/svg"><sodipodi:namedview
     id="namedview1"
     pagecolor="#505050"
     bordercolor="#eeeeee"
     borderopacity="1"
     inkscape:showpageshadow="0"
     inkscape:pageopacity="0"
     inkscape:pagecheckerboard="0"
     inkscape:deskcolor="#505050"
     inkscape:zoom="8.90625"
     inkscape:cx="0.056140351"
     inkscape:cy="34.189474"
     inkscape:window-width="1918"
     inkscape:window-height="1053"
     inkscape:window-x="0"
     inkscape:window-y="0"
     inkscape:window-maximized="1"
     inkscape:current-layer="svg1" /><defs
     id="defs1"><style
       id="style1">.a { fill:none;stroke:#fff;stroke-linecap:round;stroke-linejoin:round; }
</style></defs><path
     id="path5"
     style="fill:none;stroke:#ffffff;stroke-width:0.999996;stroke-linecap:round;stroke-linejoin:round;stroke-opacity:1"
     d="m 28.994654,27.276413 h 11.787111 c 0.951903,0 1.718237,0.76637 1.718237,1.71832 v 11.786948 c 0,0.95195 -0.766334,1.718321 -1.718237,1.718321 H 28.994654 c -0.951904,0 -1.718238,-0.76637 -1.718238,-1.718321 V 28.994733 c 0,-0.95195 0.766334,-1.71832 1.718238,-1.71832 z m -21.7764185,0 H 19.005349 c 0.951904,0 1.718238,0.766334 1.718238,1.718238 v 11.787113 c 0,0.951904 -0.766334,1.718238 -1.718238,1.718238 H 7.2182355 c -0.951904,0 -1.718238,-0.766334 -1.718238,-1.718238 V 28.994651 c 0,-0.951904 0.766334,-1.718238 1.718238,-1.718238 z M 28.994654,5.4999975 h 11.787111 c 0.951903,0 1.718237,0.76637 1.718237,1.718321 V 19.005265 c 0,0.951951 -0.766334,1.718321 -1.718237,1.718321 H 28.994654 c -0.951904,0 -1.718238,-0.76637 -1.718238,-1.718321 V 7.2183185 c 0,-0.951951 0.766334,-1.718321 1.718238,-1.718321 z m -21.7764185,0 H 19.005349 c 0.951904,0 1.718238,0.766334 1.718238,1.718238 V 19.005348 c 0,0.951904 -0.766334,1.718238 -1.718238,1.718238 H 7.2182355 c -0.951904,0 -1.718238,-0.766334 -1.718238,-1.718238 V 7.2182355 c 0,-0.951904 0.766334,-1.718238 1.718238,-1.718238 z" /></svg>
