<?xml version="1.0" encoding="UTF-8" standalone="no"?>
<svg
   viewBox="0 0 48 48"
   version="1.1"
   id="svg1"
   sodipodi:docname="guitar_songs.svg"
   inkscape:version="1.3.2 (091e20ef0f, 2023-11-25)"
   xml:space="preserve"
   xmlns:inkscape="http://www.inkscape.org/namespaces/inkscape"
   xmlns:sodipodi="http://sodipodi.sourceforge.net/DTD/sodipodi-0.dtd"
   xmlns="http://www.w3.org/2000/svg"
   xmlns:svg="http://www.w3.org/2000/svg"><sodipodi:namedview
     id="namedview1"
     pagecolor="#505050"
     bordercolor="#eeeeee"
     borderopacity="1"
     inkscape:showpageshadow="0"
     inkscape:pageopacity="0"
     inkscape:pagecheckerboard="0"
     inkscape:deskcolor="#505050"
     inkscape:zoom="8.90625"
     inkscape:cx="52.603509"
     inkscape:cy="21.501754"
     inkscape:window-width="1918"
     inkscape:window-height="1053"
     inkscape:window-x="0"
     inkscape:window-y="0"
     inkscape:window-maximized="1"
     inkscape:current-layer="svg1" /><defs
     id="defs1"><style
       id="style1">.a { fill:none;stroke:#fff;stroke-linecap:round;stroke-linejoin:round; }
</style></defs><path
     id="path36"
     style="fill:none;stroke:#ffffff;stroke-linecap:round;stroke-linejoin:round;stroke-opacity:1"
     d="m 12.585129,30.825802 h 29.914155 m -29.914155,7.285455 29.914155,-1e-6 m -29.914155,-1.45709 29.914155,-10e-7 m -29.914155,-1.45709 29.914155,-10e-7 m -29.914155,-1.457089 29.914155,-10e-7 M 12.585129,32.282893 H 42.499284 M 10.241768,42.4994 9.2336053,38.983189 V 30.355118 L 10.44105,26.143864 c 0.303767,-1.085771 1.328692,-1.072552 2.145256,-1.075052 v 17.431196 m 6.217344,-24.152615 1.494695,-8.201326 7.00187,1.25202 M 22.85129,20.746205 28.863557,8.1149753 42.500594,14.835249 M 5.4993743,15.883841 c 2.7180662,-1.514784 9.2199117,-0.737307 13.0550507,2.276097 4.74631,3.729343 9.124904,4.305712 12.881661,2.758071 4.407927,-1.8159 9.204831,-0.946192 11.064535,0.946341 m 0,0 c 0.0025,0.0026 0.005,0.0051 0.0075,0.0077 m -6.082275,12.596513 a 5.3112226,5.3112226 0 0 1 -5.311223,5.311222 5.3112226,5.3112226 0 0 1 -5.311222,-5.311222 5.3112226,5.3112226 0 0 1 5.311222,-5.311223 5.3112226,5.3112226 0 0 1 5.311223,5.311223 z M 9.5,5.5 h 29 c 2.216,0 4,1.784 4,4 v 29 c 0,2.216 -1.784,4 -4,4 h -29 c -2.216,0 -4,-1.784 -4,-4 v -29 c 0,-2.216 1.784,-4 4,-4 z" /></svg>
