<?xml version="1.0" encoding="UTF-8" standalone="no"?>
<svg
   viewBox="0 0 48 48"
   version="1.1"
   id="svg1"
   sodipodi:docname="huggingassist.svg"
   inkscape:version="1.3.2 (091e20ef0f, 2023-11-25)"
   xml:space="preserve"
   xmlns:inkscape="http://www.inkscape.org/namespaces/inkscape"
   xmlns:sodipodi="http://sodipodi.sourceforge.net/DTD/sodipodi-0.dtd"
   xmlns="http://www.w3.org/2000/svg"
   xmlns:svg="http://www.w3.org/2000/svg"><sodipodi:namedview
     id="namedview1"
     pagecolor="#505050"
     bordercolor="#eeeeee"
     borderopacity="1"
     inkscape:showpageshadow="0"
     inkscape:pageopacity="0"
     inkscape:pagecheckerboard="0"
     inkscape:deskcolor="#505050"
     inkscape:zoom="6.2976698"
     inkscape:cx="-8.1776279"
     inkscape:cy="27.391084"
     inkscape:window-width="1918"
     inkscape:window-height="1053"
     inkscape:window-x="0"
     inkscape:window-y="0"
     inkscape:window-maximized="1"
     inkscape:current-layer="svg1"
     showguides="true"
     showgrid="false" /><defs
     id="defs1"><style
       id="style1">.a { fill:none;stroke:#fff;stroke-linecap:round;stroke-linejoin:round; }
</style></defs><path
     id="path8"
     style="fill:none;stroke:#ffffff;stroke-width:1;stroke-linecap:round;stroke-linejoin:round;stroke-opacity:1"
     d="M 9.601022,36.730137 C 7.9214288,35.770283 6.6550171,34.756994 5.6585251,32.887912 5.1789723,31.988433 6.3659277,30.7253 7.2266252,31.411664 l 3.3131758,2.872099 m 0,0 C 9.1512284,33.158242 7.4762958,31.666988 6.8512889,29.904881 6.3406443,28.465201 7.9996228,27.641446 8.6676898,28.587759 9.7146803,29.94478 10.898034,31.229964 12.14536,32.48145 10.932407,31.160305 10.035266,30.063387 9.6165584,28.535825 9.296577,27.368443 10.804292,27.080911 11.427445,27.759898 c 1.6425,2.37232 2.597542,4.190625 4.441223,4.936423 m -0.201136,5.060169 c -1.162263,-1.108307 -1.280466,-4.558653 0.443507,-4.862416 -0.980727,-2.615351 -0.568419,-5.386947 1.298781,-4.21249 0.09966,3.219901 0.868998,3.915151 1.450312,6.052253 1.022094,3.757555 -0.959964,6.736066 -3.984658,6.658662 C 11.339388,41.302009 8.4490298,39.467797 6.3247584,37.251387 4.3456037,35.186389 6.4527138,34.017699 7.156701,34.964268 m 31.242277,1.765869 c 1.679593,-0.959854 2.946005,-1.973143 3.942497,-3.842225 0.479553,-0.899479 -0.707403,-2.162612 -1.5681,-1.476248 l -3.31318,2.872099 m 0,0 c 1.388577,-1.125521 3.063509,-2.616775 3.688516,-4.378882 0.510645,-1.43968 -1.148334,-2.263435 -1.816401,-1.317122 -1.04699,1.357021 -2.230349,2.642205 -3.477676,3.893691 1.212953,-1.321145 2.110101,-2.418063 2.528808,-3.945625 0.319981,-1.167382 -1.18774,-1.454914 -1.810893,-0.775927 -1.642499,2.37232 -2.597542,4.190625 -4.441222,4.936423 m 0.201136,5.060169 c 1.162262,-1.108307 1.280466,-4.558653 -0.443507,-4.862416 0.980726,-2.615351 0.568418,-5.386947 -1.298781,-4.21249 -0.09966,3.219901 -0.868999,3.915151 -1.450313,6.052253 -1.022093,3.757555 0.959965,6.736066 3.984659,6.658662 3.536086,-0.09049 6.426449,-1.924702 8.550721,-4.141112 1.979154,-2.064998 -0.127956,-3.233688 -0.831943,-2.287119 M 30.806319,15.998445 c -1.018437,-1.892276 -3.992712,-1.695185 -4.355907,0.73508 m -10.76973,2.309894 c 0.236746,-2.133925 3.070461,-3.054991 4.317158,-0.934662 m -5.372443,6.347411 c 8.015888,3.535018 15.264171,1.008191 19.980201,-4.408781 M 30.645399,40.658898 A 18.315646,18.238579 0 0 1 24,41.901733 18.315646,18.238579 0 0 1 17.354599,40.658897 M 7.5934588,31.770658 A 18.315646,18.238579 0 0 1 5.6843544,23.663155 18.315646,18.238579 0 0 1 24,5.4245758 18.315646,18.238579 0 0 1 42.315646,23.663155 v 0 a 18.315646,18.238579 0 0 1 -1.909104,8.107502" /></svg>
