<?xml version="1.0" encoding="UTF-8" standalone="no"?>
<svg
   viewBox="0 0 48 48"
   version="1.1"
   id="svg1"
   sodipodi:docname="manga_dogs.svg"
   inkscape:version="1.3.2 (091e20ef0f, 2023-11-25)"
   xml:space="preserve"
   xmlns:inkscape="http://www.inkscape.org/namespaces/inkscape"
   xmlns:sodipodi="http://sodipodi.sourceforge.net/DTD/sodipodi-0.dtd"
   xmlns="http://www.w3.org/2000/svg"
   xmlns:svg="http://www.w3.org/2000/svg"><sodipodi:namedview
     id="namedview1"
     pagecolor="#505050"
     bordercolor="#eeeeee"
     borderopacity="1"
     inkscape:showpageshadow="0"
     inkscape:pageopacity="0"
     inkscape:pagecheckerboard="0"
     inkscape:deskcolor="#505050"
     inkscape:zoom="17.8125"
     inkscape:cx="31.859649"
     inkscape:cy="20.85614"
     inkscape:window-width="1918"
     inkscape:window-height="1053"
     inkscape:window-x="0"
     inkscape:window-y="0"
     inkscape:window-maximized="1"
     inkscape:current-layer="svg1" /><defs
     id="defs1"><style
       id="style1">.a { fill:none;stroke:#fff;stroke-linecap:round;stroke-linejoin:round; }
</style></defs><path
     id="path17"
     style="fill:none;stroke:#ffffff;stroke-width:1;stroke-linecap:round;stroke-linejoin:round;stroke-opacity:1"
     d="m 18.968595,14.247852 -3.070514,1.603353 -3.354274,-2.316882 c -1.072725,-0.740959 -2.8089065,0.565101 -2.7992005,2.169932 0.0105,1.736547 0.5796175,4.613242 0.04208,5.935397 -1.131816,2.783856 -5.2294176,1.34607 -5.1864165,-1.547617 -0.5082318,-3.47258 1.0410568,-6.518225 2.374618,-8.050054 1.4522105,-1.66812 4.037024,-3.1902712 6.07482,-1.808256 z m 9.085298,1.717007 3.37656,-0.772727 1.049013,-3.939724 c 0.335483,-1.2599564 2.503888,-1.3929394 3.53772,-0.16555 1.118681,1.328124 2.552056,3.886295 3.818878,4.54345 2.667348,1.383667 4.852308,-2.36957 2.94216,-4.543421 C 40.911915,8.1148302 37.757068,6.8029028 35.748531,6.5028099 33.561289,6.176017 30.606972,6.6953264 29.9531,9.0693596 Z m -14.123102,17.47361 -0.236978,1.05237 m 1.452555,-0.926045 -0.158751,0.915159 m 1.416693,-0.929383 -0.158237,0.654317 m 16.370449,-0.766418 0.236977,1.05237 m -1.452555,-0.926045 0.158751,0.915159 m -1.416693,-0.929383 0.158237,0.654317 m -12.1666,-4.041438 c 0,0.470823 -0.381626,0.8525 -0.852385,0.8525 -0.47076,1e-6 -0.852387,-0.381677 -0.852387,-0.8525 -1e-6,-0.470824 0.381626,-0.852503 0.852387,-0.852502 0.47076,0 0.852386,0.381679 0.852385,0.852502 z m 1.796378,-1.689572 c 0,0.690965 -0.560062,1.251102 -1.250933,1.251102 -0.690871,0 -1.250933,-0.560137 -1.250933,-1.251102 0,-0.690965 0.560062,-1.251102 1.250933,-1.251102 0.690871,0 1.250933,0.560137 1.250933,1.251102 z m -3.169544,-2.840193 c 0,1.03183 -0.83635,1.868293 -1.86804,1.868293 -1.031691,1e-6 -1.868041,-0.836463 -1.868041,-1.868293 0,-1.03183 0.836351,-1.868293 1.868041,-1.868292 1.03169,0 1.86804,0.836463 1.86804,1.868292 z m 4.404997,1.528459 c 0,2.553763 -2.069954,4.623997 -4.623373,4.623997 -2.553418,-1e-6 -4.623371,-2.070235 -4.623371,-4.623997 0,-2.553762 2.069954,-4.623995 4.623371,-4.623996 2.553418,0 4.623373,2.070233 4.623373,4.623996 z m 10.429285,3.001306 c 0,0.470823 -0.381627,0.8525 -0.852386,0.8525 -0.470759,0 -0.852386,-0.381677 -0.852386,-0.8525 -10e-7,-0.470824 0.381626,-0.852502 0.852386,-0.852502 0.47076,0 0.852387,0.381678 0.852386,0.852502 z m 1.79638,-1.689572 c 0,0.690965 -0.560062,1.251102 -1.250933,1.251102 -0.690871,0 -1.250933,-0.560137 -1.250933,-1.251102 0,-0.690965 0.560062,-1.251102 1.250933,-1.251102 0.690871,0 1.250933,0.560137 1.250933,1.251102 z m -3.169546,-2.840193 c 0,1.03183 -0.83635,1.868294 -1.868041,1.868293 -1.03169,0 -1.86804,-0.836463 -1.86804,-1.868293 0,-1.031829 0.83635,-1.868292 1.86804,-1.868292 1.03169,-10e-7 1.868041,0.836462 1.868041,1.868292 z m 4.404997,1.528459 c 0,2.553763 -2.069954,4.623997 -4.623373,4.623997 -2.553418,-1e-6 -4.623371,-2.070235 -4.623371,-4.623997 0,-2.553762 2.069954,-4.623995 4.623371,-4.623996 2.553418,0 4.623373,2.070233 4.623373,4.623996 z M 31.592935,14.575025 c 4.274375,2.51107 7.220542,7.811708 7.518311,14.39078 0.502311,10.140918 -5.974189,12.621272 -15.83759,12.621272 -9.863402,0 -16.3399002,-2.480354 -15.83759,-12.621272 0.096725,-2.137089 0.4721423,-4.158927 1.0815435,-5.999613 m 1.4898915,-3.372007 c 1.148358,-2.014961 2.631872,-3.662418 4.356832,-4.804267 m 3.259178,-1.457906 c 0.763827,-0.194282 1.557113,-0.316419 2.369748,-0.368 0,0 1.001312,-0.152079 3.280397,-0.152079 2.279085,0 3.280397,0.152079 3.280397,0.152079 v 0 c 0,0 1.495842,0.227067 2.210506,0.419589"
     sodipodi:nodetypes="ccssccsccccssscsscccccccccccccssssssssssssssssssssssssssssssssssssssssccscccccszcsc" /></svg>
