<?xml version="1.0" encoding="UTF-8" standalone="no"?>
<svg
   viewBox="0 0 48 48"
   version="1.1"
   id="svg1"
   sodipodi:docname="master_for_minecraft_pe.svg"
   inkscape:version="1.3.2 (091e20ef0f, 2023-11-25)"
   xml:space="preserve"
   xmlns:inkscape="http://www.inkscape.org/namespaces/inkscape"
   xmlns:sodipodi="http://sodipodi.sourceforge.net/DTD/sodipodi-0.dtd"
   xmlns="http://www.w3.org/2000/svg"
   xmlns:svg="http://www.w3.org/2000/svg"><sodipodi:namedview
     id="namedview1"
     pagecolor="#505050"
     bordercolor="#eeeeee"
     borderopacity="1"
     inkscape:showpageshadow="0"
     inkscape:pageopacity="0"
     inkscape:pagecheckerboard="0"
     inkscape:deskcolor="#505050"
     inkscape:zoom="12.59534"
     inkscape:cx="47.438181"
     inkscape:cy="30.288981"
     inkscape:window-width="1918"
     inkscape:window-height="1053"
     inkscape:window-x="0"
     inkscape:window-y="0"
     inkscape:window-maximized="1"
     inkscape:current-layer="svg1" /><defs
     id="defs1"><style
       id="style1">.a { fill:none;stroke:#fff;stroke-linecap:round;stroke-linejoin:round; }
</style></defs><path
     id="path2"
     style="display:inline;fill:none;stroke:#ffffff;stroke-linecap:round;stroke-linejoin:round;stroke-opacity:1"
     d="m 31.635415,15.222998 c -0.391737,-0.391736 -1.022477,-0.391736 -1.414214,0 l -0.812068,0.812068 c -2.839801,-2.839635 -8.840212,-5.024457 -12.776259,-3.44024 -1.575204,0.634004 -1.099329,1.845833 0.394986,1.925209 3.749859,0.199188 7.311496,2.352088 9.580468,4.315837 L 12.61811,32.82609 c -0.713825,0.713826 -0.714674,1.870687 -0.0014,2.583979 0.713292,0.713291 1.870152,0.712443 2.583979,-0.0014 l 13.99576,-13.992962 c 1.832382,2.067034 3.854681,4.45323 4.471898,7.761602 0.124905,0.669507 0.267399,2.077233 1.077435,2.174405 0.463666,0.05562 0.784325,-0.498108 0.927876,-0.950779 0.926603,-2.921943 -0.826083,-8.96067 -3.680547,-11.78189 l 0.812068,-0.812069 c 0.391737,-0.391736 0.391738,-1.022476 0,-1.414213 z M 9.5,5.5 h 29 c 2.216,0 4,1.784 4,4 v 29 c 0,2.216 -1.784,4 -4,4 h -29 c -2.216,0 -4,-1.784 -4,-4 v -29 c 0,-2.216 1.784,-4 4,-4 z" /></svg>
