<?xml version="1.0" encoding="UTF-8" standalone="no"?>
<svg
   viewBox="0 0 48 48"
   version="1.1"
   id="svg1"
   sodipodi:docname="material_photo_widget.svg"
   inkscape:version="1.3.2 (091e20ef0f, 2023-11-25)"
   xml:space="preserve"
   xmlns:inkscape="http://www.inkscape.org/namespaces/inkscape"
   xmlns:sodipodi="http://sodipodi.sourceforge.net/DTD/sodipodi-0.dtd"
   xmlns="http://www.w3.org/2000/svg"
   xmlns:svg="http://www.w3.org/2000/svg"><sodipodi:namedview
     id="namedview1"
     pagecolor="#505050"
     bordercolor="#eeeeee"
     borderopacity="1"
     inkscape:showpageshadow="0"
     inkscape:pageopacity="0"
     inkscape:pagecheckerboard="0"
     inkscape:deskcolor="#505050"
     inkscape:zoom="8.90625"
     inkscape:cx="37.445614"
     inkscape:cy="19.592982"
     inkscape:window-width="1918"
     inkscape:window-height="1053"
     inkscape:window-x="0"
     inkscape:window-y="0"
     inkscape:window-maximized="1"
     inkscape:current-layer="svg1" /><defs
     id="defs1"><style
       id="style1">.a { fill:none;stroke:#fff;stroke-linecap:round;stroke-linejoin:round; }
</style></defs><path
     id="path6"
     style="fill:none;stroke:#ffffff;stroke-width:0.999995;stroke-linecap:round;stroke-linejoin:round;stroke-opacity:1"
     d="m 24.354,28.401268 0.851207,-0.851206 c 1.383457,-1.383456 2.34,-1.744446 4.084446,0 l 2.278871,2.278869 m -15.925261,-1.363745 2.345656,-2.345655 c 1.383458,-1.383457 2.339998,-1.744448 4.084446,0 l 7.350067,7.350066 M 28.355786,20.181832 a 1.5644479,1.5644479 0 0 1 -1.564448,1.564448 1.5644479,1.5644479 0 0 1 -1.564448,-1.564448 1.5644479,1.5644479 0 0 1 1.564448,-1.564449 1.5644479,1.5644479 0 0 1 1.564448,1.564449 z m 6.578684,3.818169 -5.467236,9.469528 H 18.532765 l -5.467234,-9.469528 5.467234,-9.469529 h 10.934469 z m 4.268326,15.202796 c -2.025032,2.02503 -5.645703,0.386529 -8.291533,1.482468 C 28.265433,41.781204 26.863826,45.5 24,45.5 21.136174,45.500001 19.734567,41.781204 17.088738,40.685265 14.442907,39.589326 10.822235,41.227828 8.7972043,39.202797 6.7721734,37.177766 8.4106749,33.557094 7.3147362,30.911265 6.2187972,28.265433 2.5,26.863827 2.4999999,24.000001 2.4999998,21.136176 6.2187968,19.734568 7.3147356,17.088739 8.4106746,14.442908 6.7721731,10.822236 8.7972042,8.7972043 10.822234,6.7721735 14.442906,8.4106751 17.088736,7.3147363 19.734566,6.2187974 21.136173,2.5000001 24,2.5 c 2.863826,-2e-7 4.265431,3.718797 6.911262,4.8147357 2.64583,1.0959389 6.266502,-0.5425625 8.291534,1.4824685 2.025031,2.0250308 0.386528,5.6457028 1.482467,8.2915328 1.09594,2.64583 4.814737,4.047438 4.814737,6.911264 0,2.863825 -3.718796,4.265431 -4.814736,6.911262 -1.095939,2.64583 0.542563,6.266502 -1.482468,8.291534 z" /></svg>
