<?xml version="1.0" encoding="UTF-8" standalone="no"?>
<svg
   viewBox="0 0 48 48"
   version="1.1"
   id="svg1"
   sodipodi:docname="mediainfo.svg"
   inkscape:version="1.3.2 (091e20ef0f, 2023-11-25)"
   xml:space="preserve"
   xmlns:inkscape="http://www.inkscape.org/namespaces/inkscape"
   xmlns:sodipodi="http://sodipodi.sourceforge.net/DTD/sodipodi-0.dtd"
   xmlns="http://www.w3.org/2000/svg"
   xmlns:svg="http://www.w3.org/2000/svg"><sodipodi:namedview
     id="namedview1"
     pagecolor="#505050"
     bordercolor="#eeeeee"
     borderopacity="1"
     inkscape:showpageshadow="0"
     inkscape:pageopacity="0"
     inkscape:pagecheckerboard="0"
     inkscape:deskcolor="#505050"
     inkscape:zoom="6.2976698"
     inkscape:cx="42.158451"
     inkscape:cy="36.918417"
     inkscape:window-width="1918"
     inkscape:window-height="1053"
     inkscape:window-x="0"
     inkscape:window-y="0"
     inkscape:window-maximized="1"
     inkscape:current-layer="svg1" /><defs
     id="defs1"><style
       id="style1">.a { fill:none;stroke:#fff;stroke-linecap:round;stroke-linejoin:round; }
</style></defs><path
     id="path11"
     style="fill:none;stroke:#ffffff;stroke-width:1;stroke-linecap:round;stroke-linejoin:round;stroke-opacity:1"
     d="M 21.531557,5.4999993 C 32.928758,5.4999997 42.168014,13.782732 42.168014,24 v 0 c 0,10.217268 -9.239256,18.500001 -20.636457,18.500001 -0.34293,0 -0.685806,-0.0077 -1.025229,-0.02298 9.947516,-0.491175 17.755757,-8.61801 17.755757,-18.477024 v 0 c 0,-9.738796 -7.625095,-17.8100037 -17.440445,-18.4739424 0.235341,-0.022389 0.47262,-0.026058 0.709917,-0.026058 z M 30.708361,24.11743 c 0,-6.091241 -4.222925,-11.134562 -9.648369,-11.530716 0.132812,-0.0126 0.266487,-0.01445 0.400171,-0.01445 7.145001,0 12.937168,5.168948 12.937168,11.545167 10e-7,6.37622 -5.792167,11.545168 -12.937168,11.545168 -0.196448,0 -0.392872,-0.004 -0.587555,-0.01195 5.50369,-0.280566 9.835754,-5.361074 9.835753,-11.533211 z M 18.364782,22.300798 c 0,-0.474604 0.192322,-0.904287 0.50338,-1.215299 0.311057,-0.311013 0.740618,-0.503433 1.215172,-0.503433 0.949109,0 1.718551,0.769524 1.718551,1.718732 0,0.474605 -0.160294,0.940069 -0.50338,1.2153 -0.355662,0.28531 -1.221343,0.752726 -1.221343,1.479985 m 0.592042,1.835919 a 0.58586974,0.58593138 0 0 1 -0.58587,0.585932 0.58586974,0.58593138 0 0 1 -0.58587,-0.585932 0.58586974,0.58593138 0 0 1 0.58587,-0.585931 0.58586974,0.58593138 0 0 1 0.58587,0.585931 z M 26.168078,24 A 6.084745,6.0853851 0 0 1 20.083334,30.085385 6.084745,6.0853851 0 0 1 13.998589,24 6.084745,6.0853851 0 0 1 20.083334,17.914615 6.084745,6.0853851 0 0 1 26.168078,24 Z M 9.9873058,6.0970764 V 42.035079 M 7.9096457,6.0970764 V 42.035079 M 5.8319857,6.0970764 V 42.035079" /></svg>
