<?xml version="1.0" encoding="UTF-8" standalone="no"?>
<svg
   viewBox="0 0 48 48"
   version="1.1"
   id="svg1"
   sodipodi:docname="mi_buds_m8.svg"
   inkscape:version="1.3.2 (091e20ef0f, 2023-11-25)"
   xml:space="preserve"
   xmlns:inkscape="http://www.inkscape.org/namespaces/inkscape"
   xmlns:sodipodi="http://sodipodi.sourceforge.net/DTD/sodipodi-0.dtd"
   xmlns="http://www.w3.org/2000/svg"
   xmlns:svg="http://www.w3.org/2000/svg"><sodipodi:namedview
     id="namedview1"
     pagecolor="#505050"
     bordercolor="#eeeeee"
     borderopacity="1"
     inkscape:showpageshadow="0"
     inkscape:pageopacity="0"
     inkscape:pagecheckerboard="0"
     inkscape:deskcolor="#505050"
     inkscape:zoom="8.90625"
     inkscape:cx="-7.6912281"
     inkscape:cy="25.880702"
     inkscape:window-width="1918"
     inkscape:window-height="1053"
     inkscape:window-x="0"
     inkscape:window-y="0"
     inkscape:window-maximized="1"
     inkscape:current-layer="svg1" /><defs
     id="defs1"><style
       id="style1">.a { fill:none;stroke:#fff;stroke-linecap:round;stroke-linejoin:round; }
</style></defs><path
     id="path7-4"
     style="fill:none;stroke:#ffffff;stroke-width:1;stroke-linecap:round;stroke-linejoin:round;stroke-opacity:1"
     d="m 31.826679,15.768964 c -1.791056,0.110811 -3.935219,-1.116932 -4.973505,-2.013052 -2.177189,-1.87908 -2.828675,-5.6734209 -1.114253,-7.4863805 1.711954,-1.8103484 3.864233,-2.2886926 6.262082,-1.2306118 1.963428,0.8663872 3.298868,2.1954353 3.724642,3.8966774 m -8.172147,-1.2729966 1.575631,1.2998942 m 8.785826,4.1775523 -1.552085,1.800092 m 0.763239,-6.043212 c -1.54746,-0.2197208 -3.191702,0.4754833 -4.357093,1.635916 -1.679661,1.672514 -1.919684,5.233954 0.582214,6.58472 2.181124,1.17758 4.728703,0.491187 5.855252,-0.996678 2.472081,-3.264946 0.904334,-6.8001637 -2.080373,-7.223958 z m -20.907052,9.606972 c 1.791057,0.110812 3.935219,-1.116931 4.973506,-2.013052 2.177188,-1.879081 2.828675,-5.673417 1.114252,-7.4863767 C 20.594862,7.1941221 18.442583,6.7157779 16.044733,7.7738587 14.081305,8.6402459 12.745866,9.9692943 12.320092,11.670536 m 8.172147,-1.272996 -1.575631,1.299892 m -8.785826,4.177551 1.552085,1.800092 m -0.763239,-6.04321 c 1.547459,-0.21972 3.191702,0.475482 4.357092,1.635914 1.679662,1.672514 1.919685,5.233953 -0.582214,6.58472 -2.181124,1.17758 -4.728703,0.491187 -5.8552522,-0.996679 -2.4720802,-3.264945 -0.9043334,-6.800163 2.0803742,-7.223955 z m 11.177507,19.83414 v 4.701286 m 7.34927,-6.989044 v 6.989044 m -11.006295,0 v -6.988992 h 5.626208 c 0.971017,0 1.758177,0.768177 1.758177,1.71578 v 5.273212 M 15.150121,19.55813 v 2.503446 H 8.8264434 c -0.8613293,1e-6 -1.2550038,0.410783 -1.2550038,1.080436 v 13.092927 c 0,4.024839 3.2408454,7.265064 7.2664514,7.265064 h 18.222897 c 4.025606,10e-7 7.266452,-3.240225 7.266452,-7.265064 V 23.142012 c 0,-0.669653 -0.393675,-1.080436 -1.255004,-1.080436 h -6.335843 v -5.375822 m -3.840028,-1.627747 h -0.233159 v 7.003569 h -9.439898 v -4.303495" /></svg>
