<?xml version="1.0" encoding="UTF-8" standalone="no"?>
<svg
   viewBox="0 0 48 48"
   version="1.1"
   id="svg1"
   sodipodi:docname="mygovid.svg"
   inkscape:version="1.3.2 (091e20ef0f, 2023-11-25)"
   xml:space="preserve"
   xmlns:inkscape="http://www.inkscape.org/namespaces/inkscape"
   xmlns:sodipodi="http://sodipodi.sourceforge.net/DTD/sodipodi-0.dtd"
   xmlns="http://www.w3.org/2000/svg"
   xmlns:svg="http://www.w3.org/2000/svg"><sodipodi:namedview
     id="namedview1"
     pagecolor="#505050"
     bordercolor="#eeeeee"
     borderopacity="1"
     inkscape:showpageshadow="0"
     inkscape:pageopacity="0"
     inkscape:pagecheckerboard="0"
     inkscape:deskcolor="#505050"
     inkscape:zoom="12.59534"
     inkscape:cx="21.555591"
     inkscape:cy="12.742808"
     inkscape:window-width="1918"
     inkscape:window-height="1053"
     inkscape:window-x="0"
     inkscape:window-y="0"
     inkscape:window-maximized="1"
     inkscape:current-layer="svg1" /><defs
     id="defs1"><style
       id="style1">.a { fill:none;stroke:#fff;stroke-linecap:round;stroke-linejoin:round; }
</style></defs><path
     id="path2"
     style="fill:none;stroke:#ffffff;stroke-linecap:round;stroke-linejoin:round;stroke-opacity:1"
     d="m 14.824363,33.597445 c 0,-1.313883 -1.061986,-2.378922 -2.372102,-2.378922 v 0 c -1.310117,0 -2.372104,1.065039 -2.372104,2.378922 v 2.423807 c 0,1.313883 1.061987,2.378921 2.372104,2.378921 v 0 c 1.310116,0 2.372102,-1.065038 2.372102,-2.378921 h -2.372102 m 18.303464,2.378921 v -7.18165 h 1.611241 c 1.730292,0 3.132965,1.406706 3.132965,3.141973 v 0.897706 c 0,1.735266 -1.402673,3.141971 -3.132965,3.141971 z m -2.062263,-7.18165 v 7.18165 M 18.575717,33.642432 c 0.991807,0 1.790266,0.800754 1.790266,1.795412 v 1.167019 c 0,0.99466 -0.798459,1.795413 -1.790266,1.795413 -0.991808,0 -1.790267,-0.800753 -1.790267,-1.795413 v -1.167019 c 0,-0.994658 0.798459,-1.795412 1.790267,-1.795412 z m 6.752725,0 -1.790265,4.757843 -1.790267,-4.757843 m -8.08722,-8.422844 c 0,-0.991606 0.801501,-1.795412 1.790265,-1.795412 v 0 c 0.988765,0 1.790267,0.803806 1.790267,1.795412 v 2.962431 m -7.161065,-4.757845 v 4.757847 m 0,-2.962433 c 0,-0.991606 0.801502,-1.795412 1.790266,-1.795412 v 0 c 0.988764,0 1.790267,0.803806 1.790267,1.795412 v 2.962431 m 9.365978,-4.757845 v 2.962431 c 0,0.991606 -0.801502,1.795412 -1.790266,1.795412 v 0 c -0.988764,0 -1.790267,-0.803806 -1.790267,-1.795412 v -2.962431 m 3.580533,2.962431 v 2.423807 c 0,0.991606 -0.801502,1.795411 -1.790266,1.795411 v 0 c -0.494382,0 -0.941949,-0.200906 -1.265897,-0.525875 M 27.76692,5.5006076 C 27.530876,6.0417404 27.3095,6.5718763 27.108484,7.1033257 m -1.004808,3.5624753 c -0.259127,1.885303 -0.162232,4.196117 0.41265,7.03706 M 30.952618,6.5306688 c -4.231833,7.1495222 0.216191,15.0220762 4.151975,17.6514162 m 5.646114,-8.720851 c 0.43033,0.653446 1.109716,1.109804 1.750246,1.379681 m -2.289078,-4.203356 c -0.150794,-1.94388 -0.594356,-2.7232339 -2.350761,-2.703144 -1.364547,0.331262 -1.801338,1.394121 -1.857639,2.673059 -0.170366,3.870023 2.123647,5.545442 3.922353,6.892704 M 42.404529,8.6116956 C 41.109056,6.4856722 38.567736,5.8645649 36.323456,6.6395664 34.168325,7.3837821 33.010519,9.3349397 32.722015,11.648723 M 9.5000002,5.5000001 H 38.5 c 2.216,0 4,1.784 4,3.9999997 V 38.5 c 0,2.216 -1.784,4 -4,4 H 9.5000002 c -2.2160003,0 -4.0000003,-1.784 -4.0000003,-4 V 9.4999998 c 0,-2.2159997 1.784,-3.9999997 4.0000003,-3.9999997 z M 32.856008,14.952515 c 0.174019,0.902601 0.456428,1.802331 0.840978,2.657934 1.486048,3.306386 4.174722,4.79246 6.5408,5.551253" /></svg>
