<?xml version="1.0" encoding="UTF-8" standalone="no"?>
<svg
   viewBox="0 0 48 48"
   version="1.1"
   id="svg1"
   sodipodi:docname="nokoprint.svg"
   inkscape:version="1.3.2 (091e20ef0f, 2023-11-25)"
   xml:space="preserve"
   xmlns:inkscape="http://www.inkscape.org/namespaces/inkscape"
   xmlns:sodipodi="http://sodipodi.sourceforge.net/DTD/sodipodi-0.dtd"
   xmlns="http://www.w3.org/2000/svg"
   xmlns:svg="http://www.w3.org/2000/svg"><sodipodi:namedview
     id="namedview1"
     pagecolor="#505050"
     bordercolor="#eeeeee"
     borderopacity="1"
     inkscape:showpageshadow="0"
     inkscape:pageopacity="0"
     inkscape:pagecheckerboard="0"
     inkscape:deskcolor="#505050"
     inkscape:zoom="8.90625"
     inkscape:cx="36.322807"
     inkscape:cy="35.424561"
     inkscape:window-width="1918"
     inkscape:window-height="1053"
     inkscape:window-x="0"
     inkscape:window-y="0"
     inkscape:window-maximized="1"
     inkscape:current-layer="svg1" /><defs
     id="defs1"><style
       id="style1">.a { fill:none;stroke:#fff;stroke-linecap:round;stroke-linejoin:round; }
</style></defs><path
     id="path18"
     style="fill:none;stroke:#ffffff;stroke-width:1;stroke-linecap:round;stroke-linejoin:round;stroke-opacity:1"
     d="m 20.472981,31.000199 a 1.2906198,0.98684411 0 0 1 -1.29062,0.986844 1.2906198,0.98684411 0 0 1 -1.29062,-0.986844 1.2906198,0.98684411 0 0 1 1.29062,-0.986844 1.2906198,0.98684411 0 0 1 1.29062,0.986844 z m 10.947128,4.344499 0.591191,2.927996 c 0.0451,0.223351 -0.221802,0.219979 -0.497315,0.219979 H 16.486013 c -0.275513,0 -0.542408,0.0034 -0.497315,-0.219979 l 0.393875,-1.950744 1.435899,-1.318834 4.453651,2.142719 3.680835,-4.285604 5.02403,2.622305 z M 16.099508,28.277377 13.775756,39.964028 c -0.06322,0.317913 0.310918,0.313125 0.697126,0.313125 h 19.054289 c 0.386207,0 0.759861,0.0049 0.697125,-0.313125 L 31.900544,28.277377 Z m -0.223821,1.134411 h -4.413906 c -0.386207,0 -0.697125,-0.139653 -0.697125,-0.313124 v -2.088319 c 0,-0.173472 0.310918,-0.313126 0.697125,-0.313126 v 0 h 25.076438 c 0.386207,0 0.697125,0.139654 0.697125,0.313126 v 2.088319 c 0,0.173471 -0.310918,0.313124 -0.697125,0.313124 l -4.307248,-1e-6 m 7.804448,-8.713741 h 0.741363 c 0.386208,0 0.697126,0.31117 0.697126,0.69769 v 0.120279 c 0,0.38652 -0.310918,0.697691 -0.697126,0.697691 h -0.741363 c -0.386207,0 -0.697126,-0.311171 -0.697126,-0.697691 v -0.120279 c 0,-0.38652 0.310919,-0.69769 0.697126,-0.69769 z m -24.944648,12.659555 -9.4288959,10e-7 c -0.6436766,0 -1.161876,-0.51862 -1.161876,-1.162818 V 19.944315 c 0,-0.644198 0.5181994,-1.162818 1.161876,-1.162818 l 5.1219379,3.87e-4 4.194121,-1.619785 m 18.03795,16.195502 9.322241,10e-7 c 0.643676,0 1.161876,-0.51862 1.161876,-1.162818 V 19.944315 c 0,-0.644198 -0.5182,-1.162818 -1.161876,-1.162818 v 0 l -5.121938,3.86e-4 -4.194122,-1.619784 H 14.977934 l -6.27e-4,-9.4410002 v 0 h 18.045386 l -6.28e-4,9.4410002" /></svg>
