<?xml version="1.0" encoding="UTF-8" standalone="no"?>
<svg
   viewBox="0 0 48 48"
   version="1.1"
   id="svg1"
   sodipodi:docname="nova_google_companion.svg"
   inkscape:version="1.3.2 (091e20ef0f, 2023-11-25)"
   xml:space="preserve"
   xmlns:inkscape="http://www.inkscape.org/namespaces/inkscape"
   xmlns:sodipodi="http://sodipodi.sourceforge.net/DTD/sodipodi-0.dtd"
   xmlns="http://www.w3.org/2000/svg"
   xmlns:svg="http://www.w3.org/2000/svg"><sodipodi:namedview
     id="namedview1"
     pagecolor="#505050"
     bordercolor="#eeeeee"
     borderopacity="1"
     inkscape:showpageshadow="0"
     inkscape:pageopacity="0"
     inkscape:pagecheckerboard="0"
     inkscape:deskcolor="#505050"
     inkscape:zoom="6.2976698"
     inkscape:cx="1.3497056"
     inkscape:cy="22.627417"
     inkscape:window-width="1918"
     inkscape:window-height="1053"
     inkscape:window-x="0"
     inkscape:window-y="0"
     inkscape:window-maximized="1"
     inkscape:current-layer="svg1" /><defs
     id="defs1"><style
       id="style1">.a { fill:none;stroke:#fff;stroke-linecap:round;stroke-linejoin:round; }
</style></defs><path
     id="path1-0"
     style="fill:none;stroke:#ffffff;stroke-width:1;stroke-linecap:round;stroke-linejoin:round;stroke-opacity:1"
     d="m 30.417964,21.802658 v -5.046984 m -12.83593,10.11228 v 5.75989 h 12.83593 v -5.75989 m 2.658378,-2.403423 -9.076343,-9.09239 -9.076343,9.09239 M 24,2.5006125 l 1e-6,5.8806922 M 24,39.618694 v 5.880692 M 2.4995169,24 l 5.8809917,-1e-6 M 39.619493,24 h 5.880991 m -5.880663,0 A 15.619821,15.619821 0 0 1 24,39.619821 15.619821,15.619821 0 0 1 8.3801794,24 15.619821,15.619821 0 0 1 24,8.3801794 15.619821,15.619821 0 0 1 39.619821,24 Z M 45.5,24 A 21.5,21.5 0 0 1 24,45.5 21.5,21.5 0 0 1 2.5,24 21.5,21.5 0 0 1 24,2.5 21.5,21.5 0 0 1 45.5,24 Z" /></svg>
