<?xml version="1.0" encoding="UTF-8" standalone="no"?>
<svg
   viewBox="0 0 48 48"
   version="1.1"
   id="svg1"
   sodipodi:docname="nuinvest.svg"
   inkscape:version="1.3.2 (091e20ef0f, 2023-11-25)"
   xml:space="preserve"
   xmlns:inkscape="http://www.inkscape.org/namespaces/inkscape"
   xmlns:sodipodi="http://sodipodi.sourceforge.net/DTD/sodipodi-0.dtd"
   xmlns="http://www.w3.org/2000/svg"
   xmlns:svg="http://www.w3.org/2000/svg"><sodipodi:namedview
     id="namedview1"
     pagecolor="#505050"
     bordercolor="#eeeeee"
     borderopacity="1"
     inkscape:showpageshadow="0"
     inkscape:pageopacity="0"
     inkscape:pagecheckerboard="0"
     inkscape:deskcolor="#505050"
     inkscape:zoom="12.59534"
     inkscape:cx="8.7730862"
     inkscape:cy="28.462909"
     inkscape:window-width="1918"
     inkscape:window-height="1053"
     inkscape:window-x="0"
     inkscape:window-y="0"
     inkscape:window-maximized="1"
     inkscape:current-layer="svg1" /><defs
     id="defs1"><style
       id="style1">.a { fill:none;stroke:#fff;stroke-linecap:round;stroke-linejoin:round; }
</style></defs><path
     id="path11"
     style="fill:none;stroke:#ffffff;stroke-width:1;stroke-linecap:round;stroke-linejoin:round;stroke-opacity:1"
     d="m 43.5,13.495186 -5.39e-4,11.824458 c 0,4.292217 -3.003493,7.747695 -6.734281,7.747695 -3.730789,0 -6.734283,-3.455478 -6.734283,-7.747695 l -2.68e-4,-11.824457 -5.097819,-7.78e-4 -5.65e-4,13.694071 c 0,4.292218 3.003494,7.747696 6.734283,7.747696 v 0 c 3.730788,0 6.734282,-3.455478 6.734282,-7.747696 l -1.26e-4,-13.694071 z m -39,21.009626 5.38e-4,-11.824457 c 0,-4.292217 3.003494,-7.747693 6.734282,-7.747693 3.730789,0 6.734282,3.455476 6.734282,7.747693 l 2.69e-4,11.824457 5.097819,7.78e-4 5.64e-4,-13.694071 c 0,-4.292219 -3.003494,-7.747695 -6.734283,-7.747695 v 0 c -3.730788,0 -6.734281,3.455476 -6.734281,7.747695 l 1.25e-4,13.694071 z" /></svg>
