<?xml version="1.0" encoding="UTF-8" standalone="no"?>
<svg
   viewBox="0 0 48 48"
   version="1.1"
   id="svg1"
   sodipodi:docname="pinnit.svg"
   inkscape:version="1.3.2 (091e20ef0f, 2023-11-25)"
   xml:space="preserve"
   xmlns:inkscape="http://www.inkscape.org/namespaces/inkscape"
   xmlns:sodipodi="http://sodipodi.sourceforge.net/DTD/sodipodi-0.dtd"
   xmlns="http://www.w3.org/2000/svg"
   xmlns:svg="http://www.w3.org/2000/svg"><sodipodi:namedview
     id="namedview1"
     pagecolor="#505050"
     bordercolor="#eeeeee"
     borderopacity="1"
     inkscape:showpageshadow="0"
     inkscape:pageopacity="0"
     inkscape:pagecheckerboard="0"
     inkscape:deskcolor="#505050"
     inkscape:zoom="8.90625"
     inkscape:cx="-5.1087719"
     inkscape:cy="31.607018"
     inkscape:window-width="1918"
     inkscape:window-height="1053"
     inkscape:window-x="0"
     inkscape:window-y="0"
     inkscape:window-maximized="1"
     inkscape:current-layer="svg1" /><defs
     id="defs1"><style
       id="style1">.a { fill:none;stroke:#fff;stroke-linecap:round;stroke-linejoin:round; }
</style></defs><path
     id="path12"
     style="fill:none;stroke:#ffffff;stroke-width:1;stroke-linecap:round;stroke-linejoin:round;stroke-opacity:1"
     d="M 9.8219655,29.213149 H 18.200676 M 9.8219655,24.06947 H 18.200676 M 15.727555,9.464553 H 32.27245 v 2.502852 H 15.727555 v -2.502852 0 m 7.139039,6.851776 H 10.582575 v -2.369553 h 12.284021 z m 5.285351,18.670587 H 5.6181672 c -0.6194635,0 -1.1181677,-0.499208 -1.1181677,-1.119297 V 19.415 c 0,-0.620088 0.4987042,-1.119297 1.1181677,-1.119297 v 0 H 23.566592 m 15.317932,0 h 3.497309 c 0.619463,0 1.118167,0.499208 1.118167,1.119297 v 14.452619 c 0,0.62009 -0.498704,1.119297 -1.118167,1.119297 H 34.46198 m -3.124657,-5.701287 v 9.249818 m 4.82275,-15.816721 v -5.841331 h 1.85415 V 13.451734 H 24.659545 v 3.425661 h 1.854149 v 5.841331 l -2.159454,2.106426 v 4.460757 h 13.966166 v -4.460757 z" /></svg>
