<?xml version="1.0" encoding="UTF-8" standalone="no"?>
<svg
   viewBox="0 0 48 48"
   version="1.1"
   id="svg1"
   sodipodi:docname="pixelify_gphotos.svg"
   inkscape:version="1.3.2 (091e20ef0f, 2023-11-25)"
   xml:space="preserve"
   xmlns:inkscape="http://www.inkscape.org/namespaces/inkscape"
   xmlns:sodipodi="http://sodipodi.sourceforge.net/DTD/sodipodi-0.dtd"
   xmlns="http://www.w3.org/2000/svg"
   xmlns:svg="http://www.w3.org/2000/svg"><sodipodi:namedview
     id="namedview1"
     pagecolor="#505050"
     bordercolor="#eeeeee"
     borderopacity="1"
     inkscape:showpageshadow="0"
     inkscape:pageopacity="0"
     inkscape:pagecheckerboard="0"
     inkscape:deskcolor="#505050"
     inkscape:zoom="12.59534"
     inkscape:cx="6.3912529"
     inkscape:cy="30.050798"
     inkscape:window-width="1918"
     inkscape:window-height="1053"
     inkscape:window-x="0"
     inkscape:window-y="0"
     inkscape:window-maximized="1"
     inkscape:current-layer="svg1" /><defs
     id="defs1"><style
       id="style1">.a { fill:none;stroke:#fff;stroke-linecap:round;stroke-linejoin:round; }
</style></defs><path
     id="path9"
     style="fill:none;stroke:#ffffff;stroke-width:0.999994;stroke-linecap:round;stroke-linejoin:round"
     class="cls-1"
     d="m 31.935676,31.671621 a 2.8602447,2.8685189 45.159045 0 0 0.262703,-0.228423 2.8602447,2.8685189 45.159045 0 0 0.228424,-0.2627 l 0.946347,0.113876 a 0.17313829,0.17363917 45.159055 0 0 0.191453,-0.130232 l 0.37103,-1.374916 A 0.17313829,0.17363917 45.159055 0 0 33.836623,29.58217 L 32.958085,29.2095 a 2.7148085,2.7226622 45.159053 0 0 -0.178042,-0.669155 l 0.572439,-0.760966 a 0.17313829,0.17363917 45.159055 0 0 -0.01683,-0.228018 l -1.00636,-1.006342 a 0.17313829,0.17363917 45.159055 0 0 -0.228021,-0.01684 l -0.760978,0.572429 A 2.6594042,2.6670975 45.159054 0 0 30.671127,26.922575 L 30.296001,26.0416 a 0.17313829,0.17363917 45.159055 0 0 -0.207057,-0.09901 l -1.374939,0.371019 a 0.17313829,0.17363917 45.159055 0 0 -0.130232,0.191454 l 0.11266,0.945108 a 2.884484,2.8928284 45.15906 0 0 -0.262711,0.228417 2.8602447,2.8685189 45.159045 0 0 -0.228415,0.262706 L 27.26018,27.828643 a 0.17313829,0.17363917 45.159055 0 0 -0.191455,0.130233 l -0.371028,1.374917 a 0.17313829,0.17363917 45.159055 0 0 0.09901,0.207055 l 0.878541,0.372673 a 2.7148085,2.7226622 45.159053 0 0 0.178038,0.669155 l -0.57244,0.760965 a 0.17313829,0.17363917 45.159055 0 0 0.01683,0.228019 l 1.003911,1.003894 a 0.17313829,0.17363917 45.159055 0 0 0.228023,0.01684 l 0.760979,-0.572429 a 2.6594042,2.6670975 45.159054 0 0 0.669164,0.178034 l 0.372678,0.878526 a 0.17313829,0.17363917 45.159055 0 0 0.207058,0.09901 l 1.37494,-0.371021 A 0.17313829,0.17363917 45.159055 0 0 32.044661,32.61306 Z M 29.43508,30.44307 a 1.243133,1.2467291 45.159077 1 1 1.759388,-0.0037 1.2414016,1.2449928 45.159053 0 1 -1.759388,0.0037 z m -2.35284,6.756115 a 3.7237145,3.7313628 15.111952 0 0 0.147397,-0.428179 3.7237145,3.7313628 15.111952 0 0 0.08644,-0.444511 l 1.140936,-0.487002 a 0.22540643,0.22586942 15.111964 0 0 0.131013,-0.271221 l -0.477027,-1.790397 a 0.22540643,0.22586942 15.111964 0 0 -0.246433,-0.168924 l -1.233009,0.151327 a 3.534373,3.5416326 15.111952 0 0 -0.636415,-0.638195 l 0.14979,-1.229598 a 0.22540643,0.22586942 15.111964 0 0 -0.167451,-0.245969 l -1.789708,-0.479543 a 0.22540643,0.22586942 15.111964 0 0 -0.268003,0.129291 l -0.485088,1.139758 a 3.4622429,3.4693542 15.111957 0 0 -0.870249,0.234493 l -0.996508,-0.748713 a 0.22540643,0.22586942 15.111964 0 0 -0.29788,0.02307 l -1.308331,1.312021 a 0.22540643,0.22586942 15.111964 0 0 -0.02215,0.300391 l 0.742398,0.991629 a 3.7552713,3.7629845 15.111963 0 0 -0.147407,0.428177 3.7237145,3.7313628 15.111952 0 0 -0.08643,0.444513 l -1.138758,0.487584 a 0.22540643,0.22586942 15.111964 0 0 -0.131015,0.271222 l 0.477026,1.790397 a 0.22540643,0.22586942 15.111964 0 0 0.246434,0.168924 l 1.233009,-0.151327 a 3.534373,3.5416326 15.111952 0 0 0.636413,0.638197 l -0.14979,1.2296 a 0.22540643,0.22586942 15.111964 0 0 0.16745,0.245969 l 1.785354,0.478375 a 0.22540643,0.22586942 15.111964 0 0 0.268002,-0.129291 l 0.485089,-1.139756 a 3.4622429,3.4693542 15.111957 0 0 0.870251,-0.234496 l 0.992154,0.747547 a 0.22540643,0.22586942 15.111964 0 0 0.29788,-0.02308 l 1.30833,-1.312019 a 0.22540643,0.22586942 15.111964 0 0 0.02215,-0.300391 z m -3.618795,0.241638 a 1.6184183,1.6217423 15.111954 1 1 1.980842,-1.148193 1.6161642,1.6194838 15.111977 0 1 -1.980842,1.148193 z M 5.4993708,26.576364 C 11.328208,19.967615 18.91017,17.398656 26.478951,25.059633 M 12.311001,42.498874 C 18.094439,28.057801 30.512405,16.024646 42.500663,31.157121 m -7.035467,-16.86482 a 4.5741782,4.5741782 0 0 1 -4.574178,4.574178 4.5741782,4.5741782 0 0 1 -4.574178,-4.574178 4.5741782,4.5741782 0 0 1 4.574178,-4.574178 4.5741782,4.5741782 0 0 1 4.574178,4.574178 z M 9.5,5.5 h 29 c 2.216,0 4,1.784 4,4 v 29 c 0,2.216 -1.784,4 -4,4 h -29 c -2.216,0 -4,-1.784 -4,-4 v -29 c 0,-2.216 1.784,-4 4,-4 z" /></svg>
