<?xml version="1.0" encoding="UTF-8" standalone="no"?>
<svg
   viewBox="0 0 48 48"
   version="1.1"
   id="svg1"
   sodipodi:docname="providers.svg"
   inkscape:version="1.3.2 (091e20ef0f, 2023-11-25)"
   xml:space="preserve"
   xmlns:inkscape="http://www.inkscape.org/namespaces/inkscape"
   xmlns:sodipodi="http://sodipodi.sourceforge.net/DTD/sodipodi-0.dtd"
   xmlns="http://www.w3.org/2000/svg"
   xmlns:svg="http://www.w3.org/2000/svg"><sodipodi:namedview
     id="namedview1"
     pagecolor="#505050"
     bordercolor="#eeeeee"
     borderopacity="1"
     inkscape:showpageshadow="0"
     inkscape:pageopacity="0"
     inkscape:pagecheckerboard="0"
     inkscape:deskcolor="#505050"
     inkscape:zoom="8.90625"
     inkscape:cx="58.554386"
     inkscape:cy="12.182456"
     inkscape:window-width="1918"
     inkscape:window-height="1053"
     inkscape:window-x="0"
     inkscape:window-y="0"
     inkscape:window-maximized="1"
     inkscape:current-layer="svg1" /><defs
     id="defs1"><style
       id="style1">.a { fill:none;stroke:#fff;stroke-linecap:round;stroke-linejoin:round; }
</style></defs><path
     id="path2"
     style="fill:none;stroke:#ffffff;stroke-width:0.999997;stroke-linecap:round;stroke-linejoin:round;stroke-opacity:1"
     d="m 15.901559,4.5249429 0.01824,-0.024945 c 4.265273,0.3801917 8.558773,1.904536 7.844147,7.1097111 -5.101827,1.24033 -7.052467,-2.8783458 -7.862392,-7.0847659 z M 32.076293,28.450344 A 8.0762921,8.0792497 0 0 1 24,36.529593 8.0762921,8.0792497 0 0 1 15.923709,28.450344 8.0762921,8.0792497 0 0 1 24,20.371094 a 8.0762921,8.0792497 0 0 1 8.076293,8.07925 z m 6.967854,0 A 15.044147,15.049656 0 0 1 24,43.5 15.044147,15.049656 0 0 1 8.9558532,28.450344 15.044147,15.049656 0 0 1 24,13.400687 15.044147,15.049656 0 0 1 39.044147,28.450344 Z" /></svg>
