<?xml version="1.0" encoding="UTF-8" standalone="no"?>
<svg
   viewBox="0 0 48 48"
   version="1.1"
   id="svg1"
   sodipodi:docname="raiplay.svg"
   inkscape:version="1.3.2 (091e20ef0f, 2023-11-25)"
   xml:space="preserve"
   xmlns:inkscape="http://www.inkscape.org/namespaces/inkscape"
   xmlns:sodipodi="http://sodipodi.sourceforge.net/DTD/sodipodi-0.dtd"
   xmlns="http://www.w3.org/2000/svg"
   xmlns:svg="http://www.w3.org/2000/svg"><sodipodi:namedview
     id="namedview1"
     pagecolor="#505050"
     bordercolor="#eeeeee"
     borderopacity="1"
     inkscape:showpageshadow="0"
     inkscape:pageopacity="0"
     inkscape:pagecheckerboard="0"
     inkscape:deskcolor="#505050"
     inkscape:zoom="25.190679"
     inkscape:cx="14.509335"
     inkscape:cy="26.894868"
     inkscape:window-width="1918"
     inkscape:window-height="1053"
     inkscape:window-x="0"
     inkscape:window-y="0"
     inkscape:window-maximized="1"
     inkscape:current-layer="svg1" /><defs
     id="defs1"><style
       id="style1">.a { fill:none;stroke:#fff;stroke-linecap:round;stroke-linejoin:round; }
</style></defs><path
     style="fill:none;stroke:#ffffff;stroke-width:0.999999;stroke-linecap:round;stroke-linejoin:round;stroke-opacity:1"
     d="M 4.499999,14.986129 H 22.481523 V 33.013871 H 4.499999 Z"
     id="path14" /><path
     style="fill:none;stroke:#ffffff;stroke-width:0.999998;stroke-linecap:round;stroke-linejoin:round;stroke-opacity:1"
     d="m 7.0067154,27.594142 v -6.805465 h 2.1629589 c 1.2228667,0 2.2141617,1.023293 2.2141617,2.285544 0,1.26225 -0.991295,2.285542 -2.2141617,2.285542 H 7.0067154"
     id="path13" /><path
     style="fill:none;stroke:#ffffff;stroke-width:0.999998;stroke-linecap:round;stroke-linejoin:round;stroke-opacity:1"
     d="M 9.1696743,25.359802 11.33254,27.592435"
     id="path12" /><path
     style="fill:none;stroke:#ffffff;stroke-width:0.999998;stroke-linecap:round;stroke-linejoin:round;stroke-opacity:1"
     d="m 19.396697,23.085486 v 4.508648"
     id="path11" /><path
     style="fill:none;stroke:#ffffff;stroke-width:0.999998;stroke-linecap:round;stroke-linejoin:round;stroke-opacity:1"
     d="m 19.974808,21.001303 c 0,0.328875 -0.258829,0.595482 -0.578111,0.595482 -0.319282,0 -0.578111,-0.266607 -0.578111,-0.595482 0,-0.328873 0.258829,-0.595482 0.578111,-0.595482 0.319282,0 0.578111,0.266609 0.578111,0.595482 z"
     id="path10" /><path
     style="fill:none;stroke:#ffffff;stroke-width:0.999998;stroke-linecap:round;stroke-linejoin:round;stroke-opacity:1"
     d="m 16.706535,25.892758 c 0,0.939669 -0.739488,1.701374 -1.651744,1.701374 v 0 c -0.912258,0 -1.651743,-0.761705 -1.651743,-1.701374 v -1.105896 c 0,-0.939668 0.739485,-1.701375 1.651743,-1.701375 v 0 c 0.912256,0 1.651744,0.761707 1.651744,1.701375"
     id="path9" /><path
     style="fill:none;stroke:#ffffff;stroke-width:0.999998;stroke-linecap:round;stroke-linejoin:round;stroke-opacity:1"
     d="M 16.706535,27.594134 V 23.085486"
     id="path8" /><path
     style="fill:none;stroke:#ffffff;stroke-width:0.999999;stroke-linecap:round;stroke-linejoin:round;stroke-opacity:1"
     d="m 25.752129,27.555244 v -6.54151 h 2.069543 c 1.170054,0 2.118535,0.983599 2.118535,2.196884 0,1.213287 -0.948481,2.196884 -2.118535,2.196884 h -2.069543"
     id="path7" /><path
     style="fill:none;stroke:#ffffff;stroke-width:0.999999;stroke-linecap:round;stroke-linejoin:round;stroke-opacity:1"
     d="m 43.501319,25.919863 v 2.20776 c 0,0.903219 -0.707548,1.635377 -1.580407,1.635377 v 0 c -0.43643,0 -0.831531,-0.182999 -1.117506,-0.479002"
     id="path6" /><path
     style="fill:none;stroke:#ffffff;stroke-width:0.999999;stroke-linecap:round;stroke-linejoin:round;stroke-opacity:1"
     d="m 43.501319,23.22149 v 2.698373 c 0,0.903219 -0.707548,1.635377 -1.580407,1.635377 v 0 c -0.872859,0 -1.580408,-0.732158 -1.580408,-1.635377 V 23.22149"
     id="path5" /><path
     style="fill:none;stroke:#ffffff;stroke-width:0.999999;stroke-linecap:round;stroke-linejoin:round;stroke-opacity:1"
     d="m 32.134897,21.013734 v 5.723821 c 0,0.45161 0.353774,0.817689 0.790203,0.817689 h 0.237061"
     id="path4" /><path
     style="fill:none;stroke:#ffffff;stroke-width:0.999999;stroke-linecap:round;stroke-linejoin:round;stroke-opacity:1"
     d="m 38.059185,25.919864 c 0,0.903219 -0.707548,1.635378 -1.580406,1.635378 v 0 c -0.87286,0 -1.580408,-0.732159 -1.580408,-1.635378 V 24.85687 c 0,-0.903219 0.707548,-1.635377 1.580408,-1.635377 v 0 c 0.872858,0 1.580406,0.732158 1.580406,1.635377"
     id="path3" /><path
     style="fill:none;stroke:#ffffff;stroke-width:0.999999;stroke-linecap:round;stroke-linejoin:round;stroke-opacity:1"
     d="M 38.059185,27.555244 V 23.22149"
     id="line405-1" /></svg>
