<?xml version="1.0" encoding="UTF-8" standalone="no"?>
<svg
   viewBox="0 0 48 48"
   version="1.1"
   id="svg1"
   sodipodi:docname="recargapay.svg"
   inkscape:version="1.3.2 (091e20ef0f, 2023-11-25)"
   xml:space="preserve"
   xmlns:inkscape="http://www.inkscape.org/namespaces/inkscape"
   xmlns:sodipodi="http://sodipodi.sourceforge.net/DTD/sodipodi-0.dtd"
   xmlns="http://www.w3.org/2000/svg"
   xmlns:svg="http://www.w3.org/2000/svg"><sodipodi:namedview
     id="namedview1"
     pagecolor="#505050"
     bordercolor="#eeeeee"
     borderopacity="1"
     inkscape:showpageshadow="0"
     inkscape:pageopacity="0"
     inkscape:pagecheckerboard="0"
     inkscape:deskcolor="#505050"
     inkscape:zoom="12.59534"
     inkscape:cx="-8.376114"
     inkscape:cy="24.334398"
     inkscape:window-width="1918"
     inkscape:window-height="1053"
     inkscape:window-x="0"
     inkscape:window-y="0"
     inkscape:window-maximized="1"
     inkscape:current-layer="svg1" /><defs
     id="defs1"><style
       id="style1">.a { fill:none;stroke:#fff;stroke-linecap:round;stroke-linejoin:round; }
</style></defs><path
     id="line469"
     style="fill:none;stroke:#ffffff;stroke-width:1;stroke-linecap:round;stroke-linejoin:round;stroke-opacity:1"
     class="t"
     d="m 21.87829,34.60833 0.424341,-2.121665 m 3.394734,-16.973331 0.424341,-2.121666 m -8.82678,17.235351 c 0.788233,1.355108 2.015396,1.85964 3.863162,1.85964 h 2.557252 c 2.37977,0 4.688892,-1.899739 5.157618,-4.243331 v 0 c 0.468729,-2.343593 -1.080483,-4.243334 -3.460253,-4.243334 h -2.825414 c -2.379772,0 -3.928982,-1.89974 -3.460253,-4.243331 v 0 c 0.468726,-2.343593 2.777848,-4.243333 5.15762,-4.243333 h 2.55725 c 1.847768,0 3.074886,0.504743 3.863161,1.859639 M 16.762711,39.483049 12.73478,43.5 h 13.508371 c 2.737032,0 6.449465,-0.199103 7.265205,-4.171414 l 5.794432,-28.216457 m -8.0655,-2.5951775 4.027932,-4.016951 H 21.756848 c -2.737031,0 -6.449465,0.199103 -7.265204,4.171414 L 8.697212,36.887872" /></svg>
