<?xml version="1.0" encoding="UTF-8" standalone="no"?>
<svg
   viewBox="0 0 48 48"
   version="1.1"
   id="svg1"
   sodipodi:docname="sbpay.svg"
   inkscape:version="1.3.2 (091e20ef0f, 2023-11-25)"
   xml:space="preserve"
   xmlns:inkscape="http://www.inkscape.org/namespaces/inkscape"
   xmlns:sodipodi="http://sodipodi.sourceforge.net/DTD/sodipodi-0.dtd"
   xmlns="http://www.w3.org/2000/svg"
   xmlns:svg="http://www.w3.org/2000/svg"><sodipodi:namedview
     id="namedview1"
     pagecolor="#505050"
     bordercolor="#eeeeee"
     borderopacity="1"
     inkscape:showpageshadow="0"
     inkscape:pageopacity="0"
     inkscape:pagecheckerboard="0"
     inkscape:deskcolor="#505050"
     inkscape:zoom="8"
     inkscape:cx="34.5625"
     inkscape:cy="25.8125"
     inkscape:window-width="1918"
     inkscape:window-height="1053"
     inkscape:window-x="0"
     inkscape:window-y="0"
     inkscape:window-maximized="1"
     inkscape:current-layer="svg1" /><defs
     id="defs1"><style
       id="style1">.a { fill:none;stroke:#fff;stroke-linecap:round;stroke-linejoin:round; }
</style></defs><path
     id="path13"
     style="fill:none;stroke:#ffffff;stroke-width:0.999995;stroke-linecap:round;stroke-linejoin:round;stroke-opacity:1"
     d="m 12.714678,21.455642 1e-6,5.088719 m 18.116312,-10.994894 -4.09789,-2.555043 m 4.09789,19.477478 -4.09789,-2.555042 m 0,0 10e-7,5.088719 M 7.8428989,12.961217 v 22.077566 m 0,0 13.6826141,-8.221218 M 21.860324,27.015788 21.860323,43.5 M 40.157101,32.507444 26.132282,24.011094 m 0,0 14.024819,-8.426086 m 0,0 L 21.860323,4.4999995 m 0,39.0000005 18.296778,-10.992556 -9.32611,-0.03554 m 0,-2e-6 -4.097889,2.533677 L 21.860323,43.5 m 0,-22.046132 -14.0174241,-8.492651 4.8717791,8.494425 m 4.09789,2.555043 -4.097889,2.533676 -4.8717801,8.494422 M 26.733101,12.994424 21.860323,4.4999995 V 21.453868 l 4.271959,2.557226 m 0.600819,-11.01667 10e-7,5.088719 -0.60082,5.927951 m 14.024819,-8.426088 -9.32611,-0.03554 -4.097889,2.533676 -4.872779,3.370725 m -9.145645,0.0018 4.09789,2.555042 9.920533,5.906175"
     sodipodi:nodetypes="cccccccccccccccccccccccccccccccccccccccccccccc" /></svg>
