<?xml version="1.0" encoding="UTF-8" standalone="no"?>
<svg
   viewBox="0 0 48 48"
   version="1.1"
   id="svg1"
   sodipodi:docname="smart_transport.svg"
   inkscape:version="1.3.2 (091e20ef0f, 2023-11-25)"
   xml:space="preserve"
   xmlns:inkscape="http://www.inkscape.org/namespaces/inkscape"
   xmlns:sodipodi="http://sodipodi.sourceforge.net/DTD/sodipodi-0.dtd"
   xmlns="http://www.w3.org/2000/svg"
   xmlns:svg="http://www.w3.org/2000/svg"><sodipodi:namedview
     id="namedview1"
     pagecolor="#505050"
     bordercolor="#eeeeee"
     borderopacity="1"
     inkscape:showpageshadow="0"
     inkscape:pageopacity="0"
     inkscape:pagecheckerboard="0"
     inkscape:deskcolor="#505050"
     inkscape:zoom="12.59534"
     inkscape:cx="24.01682"
     inkscape:cy="17.665264"
     inkscape:window-width="1918"
     inkscape:window-height="1053"
     inkscape:window-x="0"
     inkscape:window-y="0"
     inkscape:window-maximized="1"
     inkscape:current-layer="svg1" /><defs
     id="defs1"><style
       id="style1">.a { fill:none;stroke:#fff;stroke-linecap:round;stroke-linejoin:round; }
</style></defs><path
     id="path11"
     style="fill:none;stroke:#ffffff;stroke-width:1;stroke-linecap:round;stroke-linejoin:round;stroke-opacity:1"
     d="m 37.428811,8.2928523 v 4.2760887 h 3.518043 m 2.017306,-0.511355 h -0.718721 m -9.210456,0 h -0.71872 M 37.640211,6.7329509 V 7.451764 m 0,9.211644 v 0.718813 m 6.55674,-5.324635 a 6.5567406,6.5575857 0 0 1 -6.55674,6.557586 6.5567406,6.5575857 0 0 1 -6.55674,-6.557586 6.5567406,6.5575857 0 0 1 6.55674,-6.5575861 6.5567406,6.5575857 0 0 1 6.55674,6.5575861 z M 19.64755,27.665453 a 1.3202426,1.3209534 0 0 1 -1.320242,1.320954 1.3202426,1.3209534 0 0 1 -1.320242,-1.320954 1.3202426,1.3209534 0 0 1 1.320242,-1.320953 1.3202426,1.3209534 0 0 1 1.320242,1.320953 z m 11.345381,0 a 1.3202426,1.3209534 0 0 1 -1.320243,1.320954 1.3202426,1.3209534 0 0 1 -1.320242,-1.320954 1.3202426,1.3209534 0 0 1 1.320242,-1.320953 1.3202426,1.3209534 0 0 1 1.320243,1.320953 z m -9.310805,-1.114545 h 4.635742 c 0.499016,0 0.900751,0.401951 0.900751,0.901236 v 0.426619 c 0,0.499285 -0.401735,0.901236 -0.900751,0.901236 h -4.635742 c -0.499016,0 -0.900751,-0.401951 -0.900751,-0.901236 v -0.426619 c 0,-0.499285 0.401735,-0.901236 0.900751,-0.901236 z m -0.05951,-14.119744 h 4.754762 c 0.249509,0 0.450376,0.200976 0.450376,0.450618 v 0.500432 c 0,0.249641 -0.200867,0.450617 -0.450376,0.450617 h -4.754762 c -0.249507,0 -0.450375,-0.200976 -0.450375,-0.450617 v -0.500432 c 0,-0.249642 0.200868,-0.450618 0.450375,-0.450618 z m -2.337923,2.723729 h 9.43061 c 1.24754,0 2.251877,1.004878 2.251877,2.25309 v 3.155654 c 0,1.248212 -1.004337,2.25309 -2.251877,2.25309 h -9.430608 c -1.247541,0 -2.251879,-1.004878 -2.251879,-2.25309 v -3.155654 c 0,-1.248212 1.004338,-2.25309 2.251879,-2.25309 z M 31.11473,11.649751 c -0.628437,-0.472056 -1.41078,-0.751244 -2.260717,-0.751244 h -9.708026 v 0 c -2.083342,0 -3.760552,1.677426 -3.760552,3.761036 v 13.440931 c 0,1.192851 0.551138,2.250239 1.412043,2.938309 v 1.329585 c 0,1.041805 0.838605,1.880518 1.880276,1.880518 h 0.134043 c 1.041671,0 1.880276,-0.838713 1.880276,-1.880518 V 31.86151 h 6.615853 v 0.506858 c 0,1.041805 0.838605,1.880518 1.880275,1.880518 h 0.134043 c 1.041671,0 1.880276,-0.838713 1.880276,-1.880518 v -1.329585 c 0.861458,-0.688049 1.412044,-1.745014 1.412044,-2.938309 V 16.259086 m 0.238707,-8.6643415 -19.092879,-1e-7 v 0 c -2.083341,0 -3.7605506,1.6774263 -3.7605506,3.7610366 v 21.37253 c 0,2.083611 1.6772096,3.761037 3.7605506,3.761037 h 5.018353 l 5.161577,6.010679 5.163415,-6.010679 h 5.13587 c 2.083341,0 3.760551,-1.677426 3.760551,-3.761037 V 18.604225" /></svg>
