<?xml version="1.0" encoding="UTF-8" standalone="no"?>
<svg
   viewBox="0 0 48 48"
   version="1.1"
   id="svg1"
   sodipodi:docname="spamblocker.svg"
   inkscape:version="1.3.2 (091e20ef0f, 2023-11-25)"
   xml:space="preserve"
   xmlns:inkscape="http://www.inkscape.org/namespaces/inkscape"
   xmlns:sodipodi="http://sodipodi.sourceforge.net/DTD/sodipodi-0.dtd"
   xmlns="http://www.w3.org/2000/svg"
   xmlns:svg="http://www.w3.org/2000/svg"><sodipodi:namedview
     id="namedview1"
     pagecolor="#505050"
     bordercolor="#eeeeee"
     borderopacity="1"
     inkscape:showpageshadow="0"
     inkscape:pageopacity="0"
     inkscape:pagecheckerboard="0"
     inkscape:deskcolor="#505050"
     inkscape:zoom="12.59534"
     inkscape:cx="5.8354918"
     inkscape:cy="28.542303"
     inkscape:window-width="1918"
     inkscape:window-height="1053"
     inkscape:window-x="0"
     inkscape:window-y="0"
     inkscape:window-maximized="1"
     inkscape:current-layer="svg1" /><defs
     id="defs1"><style
       id="style1">.a { fill:none;stroke:#fff;stroke-linecap:round;stroke-linejoin:round; }
</style></defs><path
     id="path4"
     style="fill:none;stroke:#ffffff;stroke-width:1;stroke-linecap:round;stroke-linejoin:round;stroke-opacity:1"
     d="m 22.553161,31.711653 v -4.057676 l -6.021033,-9.74379 h 14.846743 l -6.021034,9.74379 -0.05579,2.905629 z m 7.026622,7.003911 a 5.7354325,3.1644657 0 0 1 0.111153,0.61997 v 0 A 5.7354325,3.1644657 0 0 1 23.955499,42.5 5.7354325,3.1644657 0 0 1 18.220067,39.335534 5.7354325,3.1644657 0 0 1 18.330766,38.716825 m 13.563905,-7.43e-4 c 7.060954,0.01782 11.751148,-2.305776 7.729465,-7.495381 C 37.830612,28.906325 35.415784,26.337659 35.391994,21.591529 35.355904,14.390974 33.293381,10.816214 29.985602,9.182753 26.49829,7.460635 27.988137,5.5 24,5.5 c -3.988138,0 -2.498291,1.960635 -5.985603,3.682753 -3.307779,1.633461 -5.370306,5.208221 -5.406391,12.408776 -0.02379,4.74613 -2.438618,7.314796 -4.2321428,9.629172 -4.021682,5.189605 0.668512,7.513199 7.7294658,7.495381 z" /></svg>
