<?xml version="1.0" encoding="UTF-8" standalone="no"?>
<svg
   viewBox="0 0 48 48"
   version="1.1"
   id="svg1"
   sodipodi:docname="state_io.svg"
   inkscape:version="1.3.2 (091e20ef0f, 2023-11-25)"
   xml:space="preserve"
   xmlns:inkscape="http://www.inkscape.org/namespaces/inkscape"
   xmlns:sodipodi="http://sodipodi.sourceforge.net/DTD/sodipodi-0.dtd"
   xmlns="http://www.w3.org/2000/svg"
   xmlns:svg="http://www.w3.org/2000/svg"><sodipodi:namedview
     id="namedview1"
     pagecolor="#505050"
     bordercolor="#eeeeee"
     borderopacity="1"
     inkscape:showpageshadow="0"
     inkscape:pageopacity="0"
     inkscape:pagecheckerboard="0"
     inkscape:deskcolor="#505050"
     inkscape:zoom="8.90625"
     inkscape:cx="-9.4877193"
     inkscape:cy="39.691228"
     inkscape:window-width="1918"
     inkscape:window-height="1053"
     inkscape:window-x="0"
     inkscape:window-y="0"
     inkscape:window-maximized="1"
     inkscape:current-layer="svg1" /><defs
     id="defs1"><style
       id="style1">.a { fill:none;stroke:#fff;stroke-linecap:round;stroke-linejoin:round; }
</style></defs><path
     id="path24"
     style="fill:none;stroke:#ffffff;stroke-linecap:round;stroke-linejoin:round;stroke-opacity:1"
     d="m 6.5604114,41.150528 c 3.0500626,-4.23891 3.4598006,-3.904161 7.1993646,-3.835565 l 2.657619,0.04875 c 0.145291,-0.266238 0.28407,-0.533375 0.41838,-0.799633 M 36.502724,13.673896 c 0.335383,-0.341297 0.649685,-0.730413 0.934214,-1.184992 0.812416,-1.297963 0.03832,-2.6283041 0.09585,-3.9771861 0.04364,-1.0232937 0.283407,-2.0130001 0.67744,-3.0112326 M 21.393298,29.76387 c 0.105801,-1.497277 -0.439822,-4.076556 0.03158,-5.294499 0.909165,-2.348962 2.487801,-1.983256 2.832538,-4.217735 0.113672,-0.736789 0.06188,-1.367215 -0.01127,-1.92296 m 0.329596,-3.805253 -3.407431,-2.101316 3.995381,-0.251128 -0.927306,1.017936 z m 1.691221,3.69712 -0.486178,-3.973631 2.690818,2.964057 -1.374123,-0.08875 z m 3.40158,-2.495041 -2.461313,-3.157223 3.832352,1.157241 -1.22396,0.63088 z m 4.98245,2.02807 -2.461313,-3.157223 3.832352,1.157241 -1.22396,0.63088 z m -3.62486,3.073227 -0.148361,-4.000514 2.430487,3.181016 -1.361692,-0.204648 z m 4.848273,1.915463 -0.506405,-3.971105 2.705875,2.950317 -1.374556,-0.08175 z m -2.054611,3.133603 -0.07382,-4.002584 2.370814,3.225735 -1.357644,-0.229977 z m -3.625921,0.547539 0.399306,-3.983301 1.97335,3.483105 -1.320992,-0.388673 z m -3.776676,1.407315 1.007551,-3.8744 1.413817,3.745297 -1.245441,-0.587334 z m 0.753542,-5.168308 1.212404,-3.81526 1.212404,3.81526 -1.212404,-0.652811 z m -3.59306,12.273254 a 1.1496086,1.1496086 0 0 1 -1.149609,1.149609 1.1496086,1.1496086 0 0 1 -1.149609,-1.149609 1.1496086,1.1496086 0 0 1 1.149609,-1.149608 1.1496086,1.1496086 0 0 1 1.149609,1.149608 z M 19.409256,34.59882 a 1.1496086,1.1496086 0 0 1 -1.149609,1.149608 1.1496086,1.1496086 0 0 1 -1.149608,-1.149608 1.1496086,1.1496086 0 0 1 1.149608,-1.149609 1.1496086,1.1496086 0 0 1 1.149609,1.149609 z m 0.729832,-3.494732 a 1.1496086,1.1496086 0 0 1 -1.149609,1.149608 1.1496086,1.1496086 0 0 1 -1.149609,-1.149608 1.1496086,1.1496086 0 0 1 1.149609,-1.149609 1.1496086,1.1496086 0 0 1 1.149609,1.149609 z m -3.999999,0.729832 a 1.1496086,1.1496086 0 0 1 -1.149609,1.149608 1.1496086,1.1496086 0 0 1 -1.149609,-1.149608 1.1496086,1.1496086 0 0 1 1.149609,-1.149609 1.1496086,1.1496086 0 0 1 1.149609,1.149609 z m 2.505259,-3.719296 a 1.1496086,1.1496086 0 0 1 -1.149608,1.149609 1.1496086,1.1496086 0 0 1 -1.149609,-1.149609 1.1496086,1.1496086 0 0 1 1.149609,-1.149609 1.1496086,1.1496086 0 0 1 1.149608,1.149609 z m -4.505267,-0.336845 a 1.1496086,1.1496086 0 0 1 -1.149609,1.149608 1.1496086,1.1496086 0 0 1 -1.149608,-1.149608 1.1496086,1.1496086 0 0 1 1.149608,-1.149609 1.1496086,1.1496086 0 0 1 1.149609,1.149609 z m 2.39298,-2.954396 a 1.1496086,1.1496086 0 0 1 -1.149609,1.149609 1.1496086,1.1496086 0 0 1 -1.149609,-1.149609 1.1496086,1.1496086 0 0 1 1.149609,-1.149608 1.1496086,1.1496086 0 0 1 1.149609,1.149608 z m 3.122806,-2.449127 a 1.1496086,1.1496086 0 0 1 -1.149608,1.149609 1.1496086,1.1496086 0 0 1 -1.149609,-1.149609 1.1496086,1.1496086 0 0 1 1.149609,-1.149608 1.1496086,1.1496086 0 0 1 1.149608,1.149608 z m -7.010536,0.449127 a 1.1496086,1.1496086 0 0 1 -1.149609,1.149609 1.1496086,1.1496086 0 0 1 -1.149608,-1.149609 1.1496086,1.1496086 0 0 1 1.149608,-1.149608 1.1496086,1.1496086 0 0 1 1.149609,1.149608 z m 26.532058,10.474091 a 5.7762804,5.7762804 0 0 1 -5.776281,5.77628 5.7762804,5.7762804 0 0 1 -5.77628,-5.77628 5.7762804,5.7762804 0 0 1 5.77628,-5.77628 5.7762804,5.7762804 0 0 1 5.776281,5.77628 z M 20.46763,14.455359 A 5.7762804,5.7762804 0 0 1 14.69135,20.23164 5.7762804,5.7762804 0 0 1 8.9150696,14.455359 5.7762804,5.7762804 0 0 1 14.69135,8.6790791 5.7762804,5.7762804 0 0 1 20.46763,14.455359 Z M 9.5,5.5 h 29 c 2.216,0 4,1.784 4,4 v 29 c 0,2.216 -1.784,4 -4,4 h -29 c -2.216,0 -4,-1.784 -4,-4 v -29 c 0,-2.216 1.784,-4 4,-4 z" /></svg>
