<?xml version="1.0" encoding="UTF-8" standalone="no"?>
<svg
   viewBox="0 0 48 48"
   version="1.1"
   id="svg1"
   sodipodi:docname="suzuri.svg"
   inkscape:version="1.3.2 (091e20ef0f, 2023-11-25)"
   xml:space="preserve"
   xmlns:inkscape="http://www.inkscape.org/namespaces/inkscape"
   xmlns:sodipodi="http://sodipodi.sourceforge.net/DTD/sodipodi-0.dtd"
   xmlns="http://www.w3.org/2000/svg"
   xmlns:svg="http://www.w3.org/2000/svg"><sodipodi:namedview
     id="namedview1"
     pagecolor="#505050"
     bordercolor="#eeeeee"
     borderopacity="1"
     inkscape:showpageshadow="0"
     inkscape:pageopacity="0"
     inkscape:pagecheckerboard="0"
     inkscape:deskcolor="#505050"
     inkscape:zoom="4.453125"
     inkscape:cx="13.136842"
     inkscape:cy="69.950877"
     inkscape:window-width="1918"
     inkscape:window-height="1053"
     inkscape:window-x="0"
     inkscape:window-y="0"
     inkscape:window-maximized="1"
     inkscape:current-layer="svg1" /><defs
     id="defs1"><style
       id="style1">.a { fill:none;stroke:#fff;stroke-linecap:round;stroke-linejoin:round; }
</style></defs><path
     id="ellipse6"
     style="fill:none;stroke:#ffffff;stroke-width:0.999996;stroke-linecap:round;stroke-linejoin:round;stroke-opacity:1"
     d="m 26.187507,27.588535 a 1.4416108,1.9730234 0 0 1 -1.441611,1.973023 1.4416108,1.9730234 0 0 1 -1.441611,-1.973023 1.4416108,1.9730234 0 0 1 1.441611,-1.973024 1.4416108,1.9730234 0 0 1 1.441611,1.973024 z m 8.280534,-2.537238 a 1.4416108,1.9730234 0 0 1 -1.44161,1.973024 1.4416108,1.9730234 0 0 1 -1.441612,-1.973024 1.4416108,1.9730234 0 0 1 1.441612,-1.973023 1.4416108,1.9730234 0 0 1 1.44161,1.973023 z m -6.924117,4.383282 a 3.5595099,4.855516 0 0 1 -3.559511,4.855516 3.5595099,4.855516 0 0 1 -3.559509,-4.855516 3.5595099,4.855516 0 0 1 3.559509,-4.855516 3.5595099,4.855516 0 0 1 3.559511,4.855516 z m 8.53287,-2.155013 a 3.7023367,5.0877505 0 0 1 -3.702337,5.08775 3.7023367,5.0877505 0 0 1 -3.702336,-5.08775 3.7023367,5.0877505 0 0 1 3.702336,-5.087751 3.7023367,5.0877505 0 0 1 3.702337,5.087751 z m -1.523568,-12.179738 6.76473,21.154888 M 39.320655,11.744995 4.4998924,36.255005 H 43.5" /></svg>
