<?xml version="1.0" encoding="UTF-8" standalone="no"?>
<svg
   viewBox="0 0 48 48"
   version="1.1"
   id="svg1"
   sodipodi:docname="t3_arena.svg"
   inkscape:version="1.3.2 (091e20ef0f, 2023-11-25)"
   xml:space="preserve"
   xmlns:inkscape="http://www.inkscape.org/namespaces/inkscape"
   xmlns:sodipodi="http://sodipodi.sourceforge.net/DTD/sodipodi-0.dtd"
   xmlns="http://www.w3.org/2000/svg"
   xmlns:svg="http://www.w3.org/2000/svg"><sodipodi:namedview
     id="namedview1"
     pagecolor="#505050"
     bordercolor="#eeeeee"
     borderopacity="1"
     inkscape:showpageshadow="0"
     inkscape:pageopacity="0"
     inkscape:pagecheckerboard="0"
     inkscape:deskcolor="#505050"
     inkscape:zoom="12.59534"
     inkscape:cx="11.71068"
     inkscape:cy="26.239863"
     inkscape:window-width="1918"
     inkscape:window-height="1053"
     inkscape:window-x="0"
     inkscape:window-y="0"
     inkscape:window-maximized="1"
     inkscape:current-layer="svg1" /><defs
     id="defs1"><style
       id="style1">.a { fill:none;stroke:#fff;stroke-linecap:round;stroke-linejoin:round; }
</style></defs><path
     id="path6"
     style="fill:none;stroke:#ffffff;stroke-width:0.999998;stroke-linecap:round;stroke-linejoin:round;stroke-opacity:1"
     d="M 33.457945,26.59761 H 26.90457 c -0.263713,0 -0.521679,-0.211374 -0.476015,-0.465202 l 0.781667,-4.344952 c 0.04565,-0.253828 0.2123,-0.465202 0.476011,-0.465202 h 6.516984 c 1.273097,0 1.328484,-1.502966 0.29711,-1.502966 h -8.164688 c -0.325432,0 -0.643773,-0.267822 -0.587422,-0.589438 l 0.964609,-5.50529 c 0.05635,-0.321615 0.261986,-0.589437 0.587417,-0.589437 v 0 H 42.90678 c 0.325431,0 0.643773,0.267822 0.587421,0.589437 l -3.640755,20.470744 c -0.05635,0.321615 -0.26199,0.589437 -0.587421,0.589437 H 23.659492 c -0.325432,0 -0.643772,-0.267823 -0.58742,-0.589437 l 0.964606,-5.505291 c 0.05635,-0.321615 0.261989,-0.589438 0.587419,-0.589438 h 8.463006 c 2.014785,0 2.014568,-1.502965 0.370842,-1.502965 z M 6.0592553,13.134563 c -0.3254312,0 -0.5310729,0.267824 -0.5874243,0.589438 l -0.9660325,5.505248 c -0.056351,0.321616 0.2619902,0.589438 0.5874212,0.589438 H 11.242789 L 8.7875513,34.186215 c -0.05498,0.321853 0.154148,0.680632 0.479574,0.679234 l 5.5713247,-0.02304 c 0.325426,-0.0015 0.621932,-0.159364 0.67691,-0.48122 l 2.485067,-14.542518 h 5.050445 c 0.325432,0 0.531065,-0.267822 0.587423,-0.589438 l 0.963738,-5.505248 c 0.05636,-0.321614 -0.261993,-0.589438 -0.587422,-0.589438 z" /></svg>
