<?xml version="1.0" encoding="UTF-8" standalone="no"?>
<svg
   viewBox="0 0 48 48"
   version="1.1"
   id="svg1"
   sodipodi:docname="virtual_pag_ibig.svg"
   inkscape:version="1.3.2 (091e20ef0f, 2023-11-25)"
   xml:space="preserve"
   xmlns:inkscape="http://www.inkscape.org/namespaces/inkscape"
   xmlns:sodipodi="http://sodipodi.sourceforge.net/DTD/sodipodi-0.dtd"
   xmlns="http://www.w3.org/2000/svg"
   xmlns:svg="http://www.w3.org/2000/svg"><sodipodi:namedview
     id="namedview1"
     pagecolor="#505050"
     bordercolor="#eeeeee"
     borderopacity="1"
     inkscape:showpageshadow="0"
     inkscape:pageopacity="0"
     inkscape:pagecheckerboard="0"
     inkscape:deskcolor="#505050"
     inkscape:zoom="8.90625"
     inkscape:cx="-5.1087719"
     inkscape:cy="34.189474"
     inkscape:window-width="1918"
     inkscape:window-height="1053"
     inkscape:window-x="0"
     inkscape:window-y="0"
     inkscape:window-maximized="1"
     inkscape:current-layer="svg1" /><defs
     id="defs1"><style
       id="style1">.a { fill:none;stroke:#fff;stroke-linecap:round;stroke-linejoin:round; }
</style></defs><path
     id="path5"
     style="fill:none;stroke:#ffffff;stroke-width:1;stroke-linecap:round;stroke-linejoin:round;stroke-opacity:1"
     d="m 37.138786,24.072417 v 12.296862 c 0,2.280223 -1.836564,4.115925 -4.117858,4.115925 H 24.830616 C 24.03716,38.5001 25.22372,35.341046 27.367302,34.52989 c 1.569829,-0.594041 3.964476,-2.328695 4.905014,-3.864029 0.597794,0.492573 0.46901,2.555855 -1.838439,3.870723 -0.588209,0.335183 -0.312364,1.362553 0.565017,1.028858 1.951545,-0.742232 3.904453,-2.506767 3.986866,-6.311609 0.03774,-1.7422 -0.06889,-3.553055 0.458196,-4.579392 0.31365,-0.610733 0.907926,-0.912833 1.69483,-0.602024 z m -26.277573,0 v 12.296862 c 0,2.280223 1.836565,4.115925 4.117859,4.115925 h 8.190313 C 23.96284,38.5001 22.776281,35.341046 20.632698,34.52989 c -1.569829,-0.594041 -3.964477,-2.328695 -4.905013,-3.864029 -0.597795,0.492573 -0.469011,2.555855 1.838438,3.870723 0.588208,0.335183 0.312364,1.362553 -0.565017,1.028858 -1.951545,-0.742232 -3.904453,-2.506767 -3.986866,-6.311609 -0.03774,-1.7422 0.06889,-3.553055 -0.458195,-4.579392 -0.313651,-0.610733 -0.907927,-0.912833 -1.694832,-0.602024 z M 38.836366,15.75546 c 0.710372,0.308341 1.751363,0.17559 2.197666,-0.753422 0.446303,-0.929012 -0.08815,-2.200872 -0.920672,-2.562671 L 24.000001,5.4999951 7.8866406,12.439367 C 7.054115,12.801166 6.5196658,14.073026 6.965969,15.002038 7.4122721,15.93105 8.4532628,16.063801 9.1636354,15.75546 L 24.000001,9.4006984 Z m 0.491586,0.226308 v 21.804911 c 0,2.611177 -2.10235,4.713321 -4.713784,4.713321 H 13.385834 C 10.7744,42.5 8.6720496,40.397856 8.6720496,37.786679 V 15.981768 m 22.4509074,4.276764 a 8.272278,8.2714662 0 0 1 1.149321,4.206018 v 0 a 8.272278,8.2714662 0 0 1 -8.272277,8.271466 8.272278,8.2714662 0 0 1 -8.272278,-8.271466 8.272278,8.2714662 0 0 1 8.272278,-8.271466 8.272278,8.2714662 0 0 1 4.081375,1.076829 m -1.426365,1.617774 2.98381,2.752291 m 2.56915,-3.280138 a 2.2101848,2.2099679 0 0 1 -2.210184,2.209969 2.2101848,2.2099679 0 0 1 -2.210186,-2.209969 2.2101848,2.2099679 0 0 1 2.210186,-2.209967 2.2101848,2.2099679 0 0 1 2.210184,2.209967 z" /></svg>
