<?xml version="1.0" encoding="UTF-8" standalone="no"?>
<svg
   viewBox="0 0 48 48"
   version="1.1"
   id="svg1"
   sodipodi:docname="wallspy.svg"
   inkscape:version="1.3.2 (091e20ef0f, 2023-11-25)"
   xml:space="preserve"
   xmlns:inkscape="http://www.inkscape.org/namespaces/inkscape"
   xmlns:sodipodi="http://sodipodi.sourceforge.net/DTD/sodipodi-0.dtd"
   xmlns="http://www.w3.org/2000/svg"
   xmlns:svg="http://www.w3.org/2000/svg"><sodipodi:namedview
     id="namedview1"
     pagecolor="#505050"
     bordercolor="#eeeeee"
     borderopacity="1"
     inkscape:showpageshadow="0"
     inkscape:pageopacity="0"
     inkscape:pagecheckerboard="0"
     inkscape:deskcolor="#505050"
     inkscape:zoom="8.90625"
     inkscape:cx="-2.8631579"
     inkscape:cy="38.905263"
     inkscape:window-width="1918"
     inkscape:window-height="1053"
     inkscape:window-x="0"
     inkscape:window-y="0"
     inkscape:window-maximized="1"
     inkscape:current-layer="svg1" /><defs
     id="defs1"><style
       id="style1">.a { fill:none;stroke:#fff;stroke-linecap:round;stroke-linejoin:round; }
</style></defs><path
     id="path1-6"
     style="color:#000000;fill:none;fill-opacity:0.425368;stroke:#ffffff;stroke-width:1;stroke-linecap:round;stroke-linejoin:round;stroke-opacity:1;-inkscape-stroke:none"
     d="M 10.285312,12.90712 A 4.3018674,4.302646 0 0 0 6.9956479,13.0396 4.3018674,4.302646 0 0 0 4.8961152,18.750097 l 6.9252958,14.988078 a 4.3018674,4.302646 0 0 0 5.71144,2.099912 4.3018674,4.302646 0 0 0 2.099532,-5.710497 L 12.705112,15.139513 a 4.3018674,4.302646 0 0 0 -2.4198,-2.232393 z m 9.155306,21.196859 8.838993,-15.122535 a 4.3018674,4.302646 0 0 0 -1.542029,-5.886479 4.3018674,4.302646 0 0 0 -3.261986,-0.446874 v 0 a 4.3018674,4.302646 0 0 0 -2.623427,1.99116 l -4.678656,8.00466 m 9.071097,1.530288 6.211978,7.185261 a 4.3018674,4.302646 0 0 0 6.067294,0.438965 4.3018674,4.302646 0 0 0 0.440863,-6.068393 L 27.901461,14.092011 m 15.59855,1.710929 a 4.0372286,4.0379593 0 0 1 -4.037229,4.03796 4.0372286,4.0379593 0 0 1 -4.037228,-4.03796 4.0372286,4.0379593 0 0 1 4.037228,-4.037959 4.0372286,4.0379593 0 0 1 4.037229,4.037959 z" /></svg>
