<?xml version="1.0" encoding="UTF-8" standalone="no"?>
<!-- Created with Inkscape (http://www.inkscape.org/) -->

<svg
   width="48"
   height="48"
   viewBox="0 0 48 48"
   version="1.1"
   id="svg1"
   xml:space="preserve"
   inkscape:version="1.3.2 (091e20e, 2023-11-25, custom)"
   sodipodi:docname="agrimap_mobile.svg"
   xmlns:inkscape="http://www.inkscape.org/namespaces/inkscape"
   xmlns:sodipodi="http://sodipodi.sourceforge.net/DTD/sodipodi-0.dtd"
   xmlns="http://www.w3.org/2000/svg"
   xmlns:svg="http://www.w3.org/2000/svg"><sodipodi:namedview
     id="namedview1"
     pagecolor="#505050"
     bordercolor="#eeeeee"
     borderopacity="1"
     inkscape:showpageshadow="0"
     inkscape:pageopacity="0"
     inkscape:pagecheckerboard="0"
     inkscape:deskcolor="#505050"
     inkscape:document-units="px"
     inkscape:zoom="12.683728"
     inkscape:cx="19.631452"
     inkscape:cy="24.795549"
     inkscape:window-width="1920"
     inkscape:window-height="1057"
     inkscape:window-x="-8"
     inkscape:window-y="-8"
     inkscape:window-maximized="1"
     inkscape:current-layer="svg1" /><defs
     id="defs1" /><path
     id="path2"
     style="fill:none;stroke:#ffffff;stroke-width:1;stroke-linecap:round;stroke-linejoin:round;stroke-opacity:1;-inkscape-stroke:none"
     d="m 41.573159,4.7131374 c -4.635639,0.217115 -4.726244,3.8810982 -5.95022,6.4560716 -3.193379,6.71816 -7.378944,4.076121 -9.480011,3.530664 M 41.573159,4.7131374 c -9.19098,-0.738107 -19.411872,0.034148 -15.430231,9.9867356 -3.269332,4.32785 -2.870596,7.13199 -3.277653,10.743305 4.985021,0 9.02618,4.042158 9.02618,9.028412 0,4.986255 -4.041158,9.028413 -9.02618,9.028413 -4.985022,0 -9.026181,-4.042158 -9.026181,-9.028413 0,-4.986255 4.041159,-9.028412 9.026181,-9.028412 -0.363247,-3.650534 -1.232422,-3.702597 -3.983631,-6.607385 -2.533241,1.81267 -5.971107,1.963367 -7.715115,-2.269712 C 10.116635,14.017769 8.8583994,12.068015 6.4265233,12.026656 11.955393,10.595282 21.942428,9.9538649 18.881644,18.835793"
     sodipodi:nodetypes="cscccssscccscc" /></svg>
