<?xml version="1.0" encoding="UTF-8"?>
<svg width="48" height="48" version="1.1" viewBox="0 0 48 48" xml:space="preserve" xmlns="http://www.w3.org/2000/svg"><path d="m41.573 4.7131c-4.6356 0.21712-4.7262 3.8811-5.9502 6.4561-3.1934 6.7182-7.3789 4.0761-9.48 3.5307m15.43-9.9867c-9.191-0.73811-19.412 0.034148-15.43 9.9867-3.2693 4.3278-2.8706 7.132-3.2777 10.743 4.985 0 9.0262 4.0422 9.0262 9.0284 0 4.9863-4.0412 9.0284-9.0262 9.0284s-9.0262-4.0422-9.0262-9.0284 4.0412-9.0284 9.0262-9.0284c-0.36325-3.6505-1.2324-3.7026-3.9836-6.6074-2.5332 1.8127-5.9711 1.9634-7.7151-2.2697-1.0499-2.5483-2.3081-4.4981-4.74-4.5394 5.5289-1.4314 15.516-2.0728 12.455 6.8091" fill="none" stroke="#fff" stroke-linecap="round" stroke-linejoin="round" style="-inkscape-stroke:none"/></svg>
