<?xml version="1.0" encoding="UTF-8" standalone="no"?>
<!-- Created with Inkscape (http://www.inkscape.org/) -->

<svg
   width="48"
   height="48"
   viewBox="0 0 48 48"
   version="1.1"
   id="svg1"
   xml:space="preserve"
   inkscape:version="1.3.2 (091e20e, 2023-11-25, custom)"
   sodipodi:docname="aia_connect.svg"
   xmlns:inkscape="http://www.inkscape.org/namespaces/inkscape"
   xmlns:sodipodi="http://sodipodi.sourceforge.net/DTD/sodipodi-0.dtd"
   xmlns="http://www.w3.org/2000/svg"
   xmlns:svg="http://www.w3.org/2000/svg"><sodipodi:namedview
     id="namedview1"
     pagecolor="#505050"
     bordercolor="#eeeeee"
     borderopacity="1"
     inkscape:showpageshadow="0"
     inkscape:pageopacity="0"
     inkscape:pagecheckerboard="0"
     inkscape:deskcolor="#505050"
     inkscape:document-units="px"
     inkscape:zoom="12.683728"
     inkscape:cx="31.063423"
     inkscape:cy="26.924261"
     inkscape:window-width="1920"
     inkscape:window-height="1057"
     inkscape:window-x="-8"
     inkscape:window-y="-8"
     inkscape:window-maximized="1"
     inkscape:current-layer="svg1" /><defs
     id="defs1" /><path
     id="path1-6-2-8"
     style="fill:none;stroke:#ffffff;stroke-width:0.999999;stroke-linecap:round;stroke-linejoin:round;stroke-opacity:1"
     d="m 28.910186,32.931075 c -0.80167,0.388494 -1.354415,1.209644 -1.354415,2.159815 0,1.324906 1.07471,2.398954 2.400434,2.398954 1.325723,0 2.400434,-1.074048 2.400434,-2.398954 0,-1.324906 -1.074711,-2.398954 -2.400434,-2.398954 -0.374966,0 -0.729851,0.08592 -1.046019,0.239139 l -2.174144,-4.96171 c -0.817989,0.453356 -1.759288,0.711503 -2.760917,0.711503 -0.716486,0 -1.402102,-0.13209 -2.033796,-0.373232 m 2.84876,-10.964024 c -0.266166,-0.03807 -0.538263,-0.05778 -0.814964,-0.05778 -1.228505,0 -2.366253,0.388337 -3.297042,1.048878 m -2.543822,18.958 c -0.339927,-0.122915 -0.706635,-0.189921 -1.089002,-0.189921 -1.767629,0 -3.200578,1.432065 -3.200578,3.198605 0,1.766541 1.432947,3.198605 3.200578,3.198605 1.767632,0 3.20058,-1.432064 3.20058,-3.198605 0,-1.38441 -0.88006,-2.563396 -2.111578,-3.008684 l 3.807068,-8.98508 c -2.144278,-0.818556 -3.667236,-2.893677 -3.667236,-5.324282 0,-0.452539 0.05279,-0.892754 0.152557,-1.314831 l -4.931475,-0.827235 c -0.292816,1.750137 -1.815463,3.083973 -3.6498358,3.083973 -2.043822,0 -3.700669,-1.655824 -3.7006693,-3.698386 -2e-7,-2.042564 1.6568453,-3.698388 3.7006693,-3.698388 2.0438228,0 3.7006698,1.655824 3.7006698,3.698388 0,0.20932 -0.01741,0.41458 -0.05084,0.614413 m 5.346239,-4.917801 c -0.39879,0.331906 -0.911672,0.531555 -1.471215,0.531555 -1.270485,0 -2.300416,-1.029296 -2.300416,-2.298998 0,-1.269701 1.029931,-2.298996 2.300416,-2.298996 1.270485,0 2.300417,1.029295 2.300417,2.298996 0,0.710504 -0.322507,1.34573 -0.829202,1.767443 l 1.836669,2.411229 c -1.111693,0.788923 -1.928163,1.966143 -2.251433,3.333807 m 11.625551,-2.748515 c 0.602133,0.801584 1.561096,1.320126 2.641244,1.320126 1.82287,0 3.300598,-1.476817 3.300598,-3.298561 0,-1.821746 -1.477728,-3.298562 -3.300598,-3.298562 -1.822868,0 -3.300596,1.476817 -3.300596,3.298562 0,0.742262 0.24532,1.427261 0.659352,1.978435 l -1.367961,0.850946 c 0.625864,0.914568 0.99192,2.020763 0.99192,3.212402 0,0.515188 -0.06841,1.014405 -0.196677,1.48907 m 4.529898,1.504097 c -0.101248,0.351715 -0.155495,0.723321 -0.155495,1.10759 0,2.208177 1.791186,3.998258 4.000726,3.998258 2.209538,0 4.000724,-1.790082 4.000724,-3.998258 0,-2.208176 -1.791186,-3.998256 -4.000724,-3.998256 -1.825033,0 -3.364649,1.221268 -3.845231,2.890666 L 29.479477,24.47242 c -0.405901,1.502208 -1.411097,2.758516 -2.743437,3.496942 M 25.621869,10.672157 c 0.129944,0.01659 0.262402,0.02514 0.396859,0.02514 1.712391,0 3.100559,-1.387312 3.100559,-3.0986482 0,-1.7113363 -1.388168,-3.0986485 -3.100559,-3.0986489 -1.712393,-4e-7 -3.100562,1.3873122 -3.100562,3.0986489 0,1.5769631 1.17873,2.8787892 2.703703,3.0735042 l -0.83178,6.671454 c 1.615565,0.231101 3.012586,1.139127 3.894147,2.427339"
     sodipodi:nodetypes="cssssccsccsccssssccsccssssccssssccccssssccsccssssccccssssccc" /></svg>
