<?xml version="1.0" encoding="UTF-8"?>
<svg width="48" height="48" version="1.1" viewBox="0 0 48 48" xml:space="preserve" xmlns="http://www.w3.org/2000/svg"><path d="m28.91 32.931c-0.80167 0.38849-1.3544 1.2096-1.3544 2.1598 0 1.3249 1.0747 2.399 2.4004 2.399 1.3257 0 2.4004-1.074 2.4004-2.399s-1.0747-2.399-2.4004-2.399c-0.37497 0-0.72985 0.08592-1.046 0.23914l-2.1741-4.9617c-0.81799 0.45336-1.7593 0.7115-2.7609 0.7115-0.71649 0-1.4021-0.13209-2.0338-0.37323m2.8488-10.964c-0.26617-0.03807-0.53826-0.05778-0.81496-0.05778-1.2285 0-2.3663 0.38834-3.297 1.0489m-2.5438 18.958c-0.33993-0.12292-0.70664-0.18992-1.089-0.18992-1.7676 0-3.2006 1.4321-3.2006 3.1986 0 1.7665 1.4329 3.1986 3.2006 3.1986 1.7676 0 3.2006-1.4321 3.2006-3.1986 0-1.3844-0.88006-2.5634-2.1116-3.0087l3.8071-8.9851c-2.1443-0.81856-3.6672-2.8937-3.6672-5.3243 0-0.45254 0.05279-0.89275 0.15256-1.3148l-4.9315-0.82724c-0.29282 1.7501-1.8155 3.084-3.6498 3.084-2.0438 0-3.7007-1.6558-3.7007-3.6984-2e-7 -2.0426 1.6568-3.6984 3.7007-3.6984 2.0438 0 3.7007 1.6558 3.7007 3.6984 0 0.20932-0.01741 0.41458-0.05084 0.61441m5.3462-4.9178c-0.39879 0.33191-0.91167 0.53156-1.4712 0.53156-1.2705 0-2.3004-1.0293-2.3004-2.299 0-1.2697 1.0299-2.299 2.3004-2.299s2.3004 1.0293 2.3004 2.299c0 0.7105-0.32251 1.3457-0.8292 1.7674l1.8367 2.4112c-1.1117 0.78892-1.9282 1.9661-2.2514 3.3338m11.626-2.7485c0.60213 0.80158 1.5611 1.3201 2.6412 1.3201 1.8229 0 3.3006-1.4768 3.3006-3.2986 0-1.8217-1.4777-3.2986-3.3006-3.2986-1.8229 0-3.3006 1.4768-3.3006 3.2986 0 0.74226 0.24532 1.4273 0.65935 1.9784l-1.368 0.85095c0.62586 0.91457 0.99192 2.0208 0.99192 3.2124 0 0.51519-0.06841 1.0144-0.19668 1.4891m4.5299 1.5041c-0.10125 0.35172-0.1555 0.72332-0.1555 1.1076 0 2.2082 1.7912 3.9983 4.0007 3.9983 2.2095 0 4.0007-1.7901 4.0007-3.9983s-1.7912-3.9983-4.0007-3.9983c-1.825 0-3.3646 1.2213-3.8452 2.8907l-4.5299-1.5041c-0.4059 1.5022-1.4111 2.7585-2.7434 3.4969m-1.1142-17.297c0.12994 0.01659 0.2624 0.02514 0.39686 0.02514 1.7124 0 3.1006-1.3873 3.1006-3.0986 0-1.7113-1.3882-3.0986-3.1006-3.0986-1.7124-4e-7 -3.1006 1.3873-3.1006 3.0986 0 1.577 1.1787 2.8788 2.7037 3.0735l-0.83178 6.6715c1.6156 0.2311 3.0126 1.1391 3.8941 2.4273" fill="none" stroke="#fff" stroke-linecap="round" stroke-linejoin="round"/></svg>
