<?xml version="1.0" encoding="UTF-8"?>
<svg width="48" height="48" version="1.1" viewBox="0 0 48 48" xml:space="preserve" xmlns="http://www.w3.org/2000/svg"><path d="m34.715 20.975v6.0499m-3.0249-3.0249h6.0499m-15.007 3.3003 3.3074-6.6008 3.3074 6.6008m-1.0956-2.1865s-1.0564 0.29992-2.2118 0.29992c-1.1554 0-2.2118-0.29992-2.2118-0.29992m-13.569 2.1865 3.3074-6.6008 3.3074 6.6008m-1.0956-2.1865s-1.0564 0.29992-2.2118 0.29992-2.2118-0.29992-2.2118-0.29992m8.4484-4.4142v6.6008m-10.304-21.8h29c2.216 0 4 1.784 4 4v29c0 2.216-1.784 4-4 4h-29c-2.216 0-4-1.784-4-4v-29c0-2.216 1.784-4 4-4z" fill="none" stroke="#fff" stroke-linecap="round" stroke-linejoin="round"/></svg>
