<?xml version="1.0" encoding="UTF-8"?>
<svg id="b" version="1.1" viewBox="0 0 48 48" xmlns="http://www.w3.org/2000/svg"><defs><style>.c{fill:none;stroke:#fff;stroke-linecap:round;stroke-linejoin:round;}</style></defs><path class="t" d="m36.008 41.624c0.4906 0.6387 1.1057 0.8765 1.9615 0.8765h1.1844c1.1022 0 1.9957-0.8935 1.9957-1.9957v-0.0086c0-1.1022-0.8935-1.9957-1.9957-1.9957h-1.3065c-1.1034 0-1.9978-0.8945-1.9978-1.9978v0c0-1.1058 0.8964-2.0022 2.0022-2.0022h1.1779c0.8558 0 1.4709 0.2379 1.9615 0.8765m4.5084 3.1235a7 7 0 0 1-7 7 7 7 0 0 1-7-7 7 7 0 0 1 7-7 7 7 0 0 1 7 7zm-26.799-15.688c-5.2491 3.6019-9.6549 2.1047-10.99 1.1644-0.1214 1.593 0.0911 3.3991 0.0911 3.3991-1.973 0.7437-5.312 2.8989-4.0068 4.8112s8.0136 1.7606 13.963 0.1821m-0.1974-10.533c0.9258 0.5464 1.5329 1.199 1.5936 2.3525m-10.31 0.1821s1.457-1.538 2.4688-2.4284c0 0-0.1619-0.6476-0.688-1.9427 0 0 6.4352-2.7117 14.854-3.9258-0.8499-0.8499-1.2142-1.0523-1.2142-1.0523l1.2142-0.6071s5.8281 0.4857 6.3542 3.5616-8.4851 11.703-7.8112 14.165c1.0523 3.8449 13.073-1.1332 20.479-4.2496" fill="none" stroke="#fff" stroke-linecap="round" stroke-linejoin="round"/></svg>
