<?xml version="1.0" encoding="UTF-8" standalone="no"?>
<svg
   id="b"
   viewBox="0 0 48 48"
   version="1.1"
   sodipodi:docname="alibaba_supplier.svg"
   inkscape:version="1.3.2 (091e20e, 2023-11-25, custom)"
   xmlns:inkscape="http://www.inkscape.org/namespaces/inkscape"
   xmlns:sodipodi="http://sodipodi.sourceforge.net/DTD/sodipodi-0.dtd"
   xmlns="http://www.w3.org/2000/svg"
   xmlns:svg="http://www.w3.org/2000/svg">
  <sodipodi:namedview
     id="namedview3"
     pagecolor="#505050"
     bordercolor="#eeeeee"
     borderopacity="1"
     inkscape:showpageshadow="0"
     inkscape:pageopacity="0"
     inkscape:pagecheckerboard="0"
     inkscape:deskcolor="#505050"
     inkscape:zoom="17.9375"
     inkscape:cx="23.972125"
     inkscape:cy="24"
     inkscape:window-width="1920"
     inkscape:window-height="1057"
     inkscape:window-x="-8"
     inkscape:window-y="-8"
     inkscape:window-maximized="1"
     inkscape:current-layer="b" />
  <defs
     id="defs1">
    <style
       id="style1">.c{fill:none;stroke:#fff;stroke-linecap:round;stroke-linejoin:round;}</style>
  </defs>
  <path
     id="path388"
     style="fill:none;stroke:#ffffff;stroke-linecap:round;stroke-linejoin:round"
     class="t"
     d="M 36.0084,41.6235 C 36.499,42.2622 37.1141,42.5 37.9699,42.5 h 1.1844 c 1.1022,0 1.9957,-0.8935 1.9957,-1.9957 V 40.4957 C 41.15,39.3935 40.2565,38.5 39.1543,38.5 H 37.8478 C 36.7444,38.5 35.85,37.6055 35.85,36.5022 v 0 c 0,-1.1058 0.8964,-2.0022 2.0022,-2.0022 h 1.1779 c 0.8558,0 1.4709,0.2379 1.9615,0.8765 M 45.5,38.5 a 7,7 0 0 1 -7,7 7,7 0 0 1 -7,-7 7,7 0 0 1 7,-7 7,7 0 0 1 7,7 z M 18.7009,22.8116 c -5.2491,3.6019 -9.6549,2.1047 -10.9905,1.1644 -0.1214,1.593 0.0911,3.3991 0.0911,3.3991 -1.973,0.7437 -5.312,2.8989 -4.0068,4.8112 1.3052,1.9123 8.0136,1.7606 13.9631,0.1821 M 17.5604,21.8353 c 0.9258,0.5464 1.5329,1.199 1.5936,2.3525 M 8.8436,24.3699 c 0,0 1.457,-1.538 2.4688,-2.4284 0,0 -0.1619,-0.6476 -0.688,-1.9427 0,0 6.4352,-2.7117 14.8535,-3.9258 -0.8499,-0.8499 -1.2142,-1.0523 -1.2142,-1.0523 l 1.2142,-0.6071 c 0,0 5.8281,0.4857 6.3542,3.5616 0.5261,3.0759 -8.4851,11.7033 -7.8112,14.1654 1.0523,3.8449 13.0727,-1.1332 20.4792,-4.2496" />
</svg>
