<?xml version="1.0" encoding="UTF-8"?>
<svg width="48" height="48" version="1.1" viewBox="0 0 48 48" xml:space="preserve" xmlns="http://www.w3.org/2000/svg"><path d="m13.425 16.955c2.6849-3.9182 6.3634-7.7412 10.575-12.455 4.2897 4.8005 8.0261 8.6773 10.723 12.672m1.7132 19.797c1.6638-2.4153 2.8325-5.3455 2.6375-8.4903-0.26797-4.323-2.0174-7.8506-4.3507-11.306-2.7603 5.3323-5.1808 8.9229-8.7906 12.874 3.3969 2.6888 6.9145 4.9364 10.504 6.9225-2.7171 3.9444-7.2744 6.5314-12.436 6.5314-8.3226 0-15.382-6.7312-15.074-15.022 0.16431-4.419 2.0831-7.9988 4.4985-11.524 3.8941 5.369 8.0992 9.6019 12.508 13.092" fill="none" stroke="#fff" stroke-linecap="round" stroke-linejoin="round"/></svg>
