<?xml version="1.0" encoding="UTF-8" standalone="no"?>
<!-- Created with Inkscape (http://www.inkscape.org/) -->

<svg
   width="48"
   height="48"
   viewBox="0 0 48 48"
   version="1.1"
   id="svg1"
   xml:space="preserve"
   inkscape:version="1.3.2 (091e20e, 2023-11-25, custom)"
   sodipodi:docname="bongkoch.svg"
   xmlns:inkscape="http://www.inkscape.org/namespaces/inkscape"
   xmlns:sodipodi="http://sodipodi.sourceforge.net/DTD/sodipodi-0.dtd"
   xmlns="http://www.w3.org/2000/svg"
   xmlns:svg="http://www.w3.org/2000/svg"><sodipodi:namedview
     id="namedview1"
     pagecolor="#505050"
     bordercolor="#eeeeee"
     borderopacity="1"
     inkscape:showpageshadow="0"
     inkscape:pageopacity="0"
     inkscape:pagecheckerboard="0"
     inkscape:deskcolor="#505050"
     inkscape:document-units="px"
     inkscape:zoom="17.9375"
     inkscape:cx="23.972125"
     inkscape:cy="24"
     inkscape:window-width="1920"
     inkscape:window-height="1057"
     inkscape:window-x="-8"
     inkscape:window-y="-8"
     inkscape:window-maximized="1"
     inkscape:current-layer="svg1" /><defs
     id="defs1" /><path
     id="path1-9"
     style="fill:none;stroke:#ffffff;stroke-width:1;stroke-linecap:round;stroke-linejoin:round;stroke-opacity:1"
     d="m 13.424716,16.95456 c 2.684869,-3.918247 6.363379,-7.7411858 10.575283,-12.4545855 4.289715,4.8004718 8.026141,8.6772795 10.72306,12.6718385 m 1.713164,19.796761 c 1.66377,-2.415284 2.832458,-5.345535 2.637522,-8.490279 -0.267972,-4.322987 -2.017443,-7.850581 -4.350687,-11.306482 -2.760286,5.332274 -5.180763,8.922902 -8.790571,12.874252 3.396857,2.688798 6.91451,4.936374 10.503736,6.922509 C 33.71915,40.912931 29.161829,43.5 23.999998,43.5 15.677379,43.5 8.6179964,36.768824 8.9262545,28.478295 9.090563,24.059257 11.009389,20.479445 13.424716,16.95456 c 3.894064,5.36904 8.099185,9.601868 12.507771,13.091505"
     sodipodi:nodetypes="ccccsccccscc" /></svg>
