<?xml version="1.0" encoding="UTF-8" standalone="no"?>
<!-- Created with Inkscape (http://www.inkscape.org/) -->

<svg
   width="48"
   height="48"
   viewBox="0 0 48 48"
   version="1.1"
   id="svg1"
   xml:space="preserve"
   inkscape:version="1.3.2 (091e20e, 2023-11-25, custom)"
   sodipodi:docname="boyaa_texas_poker.svg"
   xmlns:inkscape="http://www.inkscape.org/namespaces/inkscape"
   xmlns:sodipodi="http://sodipodi.sourceforge.net/DTD/sodipodi-0.dtd"
   xmlns="http://www.w3.org/2000/svg"
   xmlns:svg="http://www.w3.org/2000/svg"><sodipodi:namedview
     id="namedview1"
     pagecolor="#505050"
     bordercolor="#eeeeee"
     borderopacity="1"
     inkscape:showpageshadow="0"
     inkscape:pageopacity="0"
     inkscape:pagecheckerboard="0"
     inkscape:deskcolor="#505050"
     inkscape:document-units="px"
     inkscape:zoom="12.683728"
     inkscape:cx="14.7433"
     inkscape:cy="30.472114"
     inkscape:window-width="1920"
     inkscape:window-height="1057"
     inkscape:window-x="-8"
     inkscape:window-y="-8"
     inkscape:window-maximized="1"
     inkscape:current-layer="svg1" /><defs
     id="defs1"><style
       id="style1">.a{fill:none;stroke:#fff;stroke-linecap:round;stroke-linejoin:round;}</style></defs><path
     id="path11-6"
     style="fill:none;stroke:#ffffff;stroke-width:0.999996;stroke-linecap:round;stroke-linejoin:round;stroke-opacity:1;-inkscape-stroke:none"
     d="m 21.157709,19.822095 c 1.110098,-1.11348 0.380727,-3.3335 -1.32895,-1.926235 -0.777107,-2.073708 -2.518586,-0.515861 -2.113859,1.003583 0.249223,0.935646 0.787688,1.857795 1.278421,2.114838 0.553488,0.0228 1.48081,-0.506524 2.164388,-1.192186 z m 0.09138,-5.098067 0.649077,0.173949 m 0.649079,0.173949 -0.649079,-0.173949 -0.304911,-4.575037 -1.597549,1.451615 -0.653285,2.438498 0.649079,0.173949 m 2.975739,-6.0762716 0.649079,0.173949 m 0.649078,0.173949 -0.649078,-0.173949 -2.023063,1.8382606 m -2.899912,3.716164 0.649078,0.173949 m 1.069073,-6.5872478 0.649079,0.1739496 M 21.70965,7.9737033 21.060573,7.7997548 19.995706,11.774555 m 3.041542,29.990738 H 10.107503 c -1.0759355,0 -1.9421255,-0.866333 -1.9421255,-1.942449 V 8.4052454 c 0,-1.076117 0.86619,-1.9424504 1.9421255,-1.9424504 v 0 l 7.97601,-1e-6 m 2.519616,-1.8966796 17.792098,4.768176 c 1.039276,0.278519 1.651763,1.3395546 1.37329,2.3790036 l -8.130111,30.347072 c -0.278473,1.03945 -1.339332,1.652039 -2.378607,1.373519 L 11.467701,38.66571 C 10.428425,38.38719 9.8159385,37.326154 10.094411,36.286705 L 18.224525,5.9396341 C 18.502999,4.9001847 19.563858,4.2875944 20.603133,4.5661144 Z M 14.594025,19.491155 c -0.210214,-0.898501 -1.090714,-1.434134 -1.975105,-0.196172 -1.287253,-1.801884 -2.566259,0.153684 -1.782129,1.516584 0.482854,0.83925 1.241603,1.59059 1.782129,1.711841 0.446544,-0.100169 1.042022,-0.630363 1.507838,-1.284894 m 0.351787,-5.036832 h -0.478316 m -0.865634,0 h 0.866003 l -0.402227,-1.837228 m -3.024728,1.837228 h 0.478316 m 0.865634,0 H 11.05159 l 0.402227,-1.837228 m 0,0 1.072277,-4.9449516 1.072277,4.9449516 z" /></svg>
