<?xml version="1.0" encoding="UTF-8" standalone="no"?>
<!-- Created with Inkscape (http://www.inkscape.org/) -->

<svg
   width="48"
   height="48"
   viewBox="0 0 48 48"
   version="1.1"
   id="svg1"
   inkscape:version="1.3.2 (091e20e, 2023-11-25, custom)"
   sodipodi:docname="drawing.svg"
   xml:space="preserve"
   xmlns:inkscape="http://www.inkscape.org/namespaces/inkscape"
   xmlns:sodipodi="http://sodipodi.sourceforge.net/DTD/sodipodi-0.dtd"
   xmlns="http://www.w3.org/2000/svg"
   xmlns:svg="http://www.w3.org/2000/svg"><sodipodi:namedview
     id="namedview1"
     pagecolor="#505050"
     bordercolor="#eeeeee"
     borderopacity="1"
     inkscape:showpageshadow="0"
     inkscape:pageopacity="0"
     inkscape:pagecheckerboard="0"
     inkscape:deskcolor="#505050"
     inkscape:document-units="px"
     inkscape:zoom="17.9375"
     inkscape:cx="26.703833"
     inkscape:cy="22.494774"
     inkscape:window-width="1920"
     inkscape:window-height="1057"
     inkscape:window-x="-8"
     inkscape:window-y="-8"
     inkscape:window-maximized="1"
     inkscape:current-layer="svg1" /><defs
     id="defs1" /><path
     style="fill:none;stroke:#ffffff;stroke-width:0.999998;stroke-linecap:round;stroke-linejoin:round;stroke-opacity:1;-inkscape-stroke:none"
     d="m 13.311647,32.247022 c 4.000332,-2.053408 8.922233,-3.817199 12.68391,-4.942055 M 15.779418,26.79599 c 2.422636,-0.781173 4.804881,-1.85026 7.207321,-2.076175 M 20.584175,18.766696 C 20.422469,17.70965 20.129991,16.668447 19.688474,15.682347 m 13.217382,9.55004 C 39.339716,22.105679 45.549148,26.359 39.161865,32.014648 29.187524,40.846471 9.274135,45.586931 6.473964,40.258594 5.062168,37.572145 8.528,34.702512 13.311647,32.247022 10.076172,30.480434 11.442835,28.19431 15.779418,26.79599 c -2.138256,-1.640879 0.860841,-3.644113 4.886318,-4.518733 0.11616,-1.154196 0.0972,-2.34206 -0.08156,-3.510561 -10.291166,6.30641 -12.419292,-4.567943 -6.303431,-9.8944787 7.472749,-6.5083005 16.059143,-2.9435014 9.5611,5.4056587"
     id="path1"
     sodipodi:nodetypes="cssccccscccccsc" /></svg>
