<?xml version="1.0" encoding="UTF-8"?>
<svg width="48" height="48" version="1.1" viewBox="0 0 48 48" xml:space="preserve" xmlns="http://www.w3.org/2000/svg"><path d="m13.312 32.247c4.0003-2.0534 8.9222-3.8172 12.684-4.9421m-10.216-0.50898c2.4226-0.78117 4.8049-1.8503 7.2073-2.0762m-2.4026-5.9531c-0.16171-1.057-0.45418-2.0982-0.8957-3.0843m13.217 9.55c6.4339-3.1267 12.643 1.1266 6.256 6.7823-9.9743 8.8318-29.888 13.572-32.688 8.2439-1.4118-2.6864 2.054-5.5561 6.8377-8.0116-3.2355-1.7666-1.8688-4.0527 2.4678-5.451-2.1383-1.6409 0.86084-3.6441 4.8863-4.5187 0.11616-1.1542 0.0972-2.3421-0.08156-3.5106-10.291 6.3064-12.419-4.5679-6.3034-9.8945 7.4727-6.5083 16.059-2.9435 9.5611 5.4057" fill="none" stroke="#fff" stroke-linecap="round" stroke-linejoin="round" style="-inkscape-stroke:none"/></svg>
