<?xml version="1.0" encoding="UTF-8"?>
<svg width="48" height="48" version="1.1" viewBox="0 0 48 48" xml:space="preserve" xmlns="http://www.w3.org/2000/svg"><path d="m32.73 23.832h-7.5794m3.7897-3.7897v7.5794m-2.4377-0.32963c-1.4975 1.3817-3.2816 2.6296-5.0609 3.6982-4.7449-2.8497-9.5237-6.9745-8.811-11.509 0.84711-5.3906 7.2566-4.5084 8.811-0.84215 1.4464-3.4116 7.0968-4.4125 8.5574-0.19161m12.445 24.053-6.8155-11.143c1.9044-2.7473 2.9299-6.008 2.9406-9.3508 2.11e-4 -9.1164-7.3902-16.507-16.507-16.507-9.1164-2.121e-4 -16.507 7.3902-16.507 16.507-2.125e-4 9.1164 7.3902 16.507 16.507 16.507 3.4405-0.01314 6.791-1.1011 9.5829-3.1117z" fill="none" stroke="#fff" stroke-linecap="round" stroke-linejoin="round" style="-inkscape-stroke:none"/></svg>
