<?xml version="1.0" encoding="UTF-8" standalone="no"?>
<!-- Created with Inkscape (http://www.inkscape.org/) -->

<svg
   width="48"
   height="48"
   viewBox="0 0 48 48"
   version="1.1"
   id="svg1"
   xml:space="preserve"
   inkscape:version="1.3.2 (091e20e, 2023-11-25, custom)"
   sodipodi:docname="ddccare.svg"
   xmlns:inkscape="http://www.inkscape.org/namespaces/inkscape"
   xmlns:sodipodi="http://sodipodi.sourceforge.net/DTD/sodipodi-0.dtd"
   xmlns="http://www.w3.org/2000/svg"
   xmlns:svg="http://www.w3.org/2000/svg"><sodipodi:namedview
     id="namedview1"
     pagecolor="#505050"
     bordercolor="#eeeeee"
     borderopacity="1"
     inkscape:showpageshadow="0"
     inkscape:pageopacity="0"
     inkscape:pagecheckerboard="0"
     inkscape:deskcolor="#505050"
     inkscape:document-units="px"
     inkscape:zoom="12.683728"
     inkscape:cx="23.336988"
     inkscape:cy="28.579926"
     inkscape:window-width="1920"
     inkscape:window-height="1057"
     inkscape:window-x="-8"
     inkscape:window-y="-8"
     inkscape:window-maximized="1"
     inkscape:current-layer="svg1" /><defs
     id="defs1" /><path
     id="path3-1"
     style="fill:none;stroke:#ffffff;stroke-width:1;stroke-linecap:round;stroke-linejoin:round;stroke-opacity:1;-inkscape-stroke:none"
     d="M 32.73041,23.831584 H 25.151039 M 28.940725,20.0419 v 7.579368 m -2.437743,-0.32963 c -1.497489,1.381651 -3.281588,2.629604 -5.060924,3.698236 -4.744894,-2.849682 -9.523652,-6.974538 -8.811021,-11.50941 0.847108,-5.390631 7.256608,-4.508433 8.811021,-0.842152 1.446433,-3.411597 7.096848,-4.412478 8.557449,-0.191613 M 42.444064,42.500114 35.628612,31.357397 C 37.533053,28.610122 38.558472,25.34936 38.56919,22.006563 38.569401,12.890153 31.179033,5.4997889 22.062618,5.5000007 12.946202,5.4997886 5.5558332,12.890153 5.5560449,22.006563 c -2.125e-4,9.116411 7.3901561,16.506776 16.5065731,16.506563 3.440549,-0.01314 6.790997,-1.101076 9.582938,-3.1117 z" /></svg>
