<?xml version="1.0" encoding="UTF-8"?>
<svg width="48" height="48" version="1.1" viewBox="0 0 48 48" xml:space="preserve" xmlns="http://www.w3.org/2000/svg"><defs><style>
      .cls-1 {
        fill: none;
        stroke: #fff;
        stroke-linecap: round;
        stroke-linejoin: round;
      }
    </style></defs><path d="m26.474 35.414c-1.2847 1.5737-1.8212 3.3139-0.9388 5.3964 2.6242-0.05122 4.0061-1.3017 5.2908-2.8754l-4.352-2.521 11.03-13.512m4.352 2.521 2.5375-3.1084c-0.79674-1.7493-2.3549-2.7877-4.352-2.521l-2.5375 3.1084c1.8092 0.3623 3.4862 1.1636 4.352 2.521l-11.03 13.512m-17.072-2.0601c-0.48492 2.642-0.40959 3.6085 1.1568 6.5934 0.15316-1.4956 0.07729-2.0639 0.64236-2.9549 0.99296 1.1617 1.9505 2.1372 3.6615 2.1198-2.2914-0.94198-1.438-2.2627-1.2853-5.7583m-1.8931-7.5541 2.7182-16.849h4.7993c5.1539 0 8.7995 3.3003 8.1428 7.3713l-0.33977 2.1061c-0.65678 4.0711-5.3673 7.3713-10.521 7.3713l-4.7993 1e-6v0m26.464-0.34986v0m0 0c0 3.1917-2.5695 5.7607-5.7612 5.7612m-11.293 0.0014-13.546 0.0026c-3.1552 6.06e-4 -5.7023 2.511-5.7602 5.6518m6.1509 3.1124h-1.0291c-3.1917 0-5.7612-2.5695-5.7612-5.7612v-25.478c0-3.1917 2.5695-5.7612 5.7612-5.7612h25.478c3.1917 0 5.7612 2.5695 5.7612 5.7612l-1e-6 5.8868m-1e-6 9.287 2e-6 10.304c1e-6 3.1917-2.5695 5.7612-5.7612 5.7612h-15.437" fill="none" stroke="#fff" stroke-linecap="round" stroke-linejoin="round" style="-inkscape-stroke:none"/></svg>
