<?xml version="1.0" encoding="UTF-8"?>
<svg width="48" height="48" version="1.1" viewBox="0 0 48 48" xml:space="preserve" xmlns="http://www.w3.org/2000/svg"><path d="m21.02 14.848c-0.37376-0.01339-0.76564 0.15481-1.0846-0.40714-0.23969 0.4343-0.59902 0.56152-1.0952 0.59791-0.41382 0.03039-0.74362-0.2707-0.73925-0.68817l0.0021-0.19601c0.0044-0.41747 0.34112-0.78272 0.75504-0.81895l2.2794-0.19949m9.1067 0.65673 3.6099-0.31593 0.0098-0.9314m-0.19574 7.005 0.02844-2.7144c0.01032-0.98547-0.78111-1.7088-1.7745-1.6219l-0.49784 0.04357c-0.9934 0.08694-1.8014 1.1326-1.9122 2.2828-0.1801 1.8685 0.943 2.5913 2.1142 2.1782m-4.1708 0.37549 0.02844-2.7144c0.01032-0.98547-0.78111-1.7088-1.7745-1.6219l-0.49784 0.04357c-0.99782 0.08733-1.5214 0.92167-1.7327 1.4825 0.49876 0.158 0.76091 0.316 1.3378 0.441-0.52106 0.0456-1.103 0.60732-1.1091 1.1932l-0.01691 1.6137m-2.2124 0.0854 0.02844-2.7144c0.01023-0.98547-0.7812-1.7088-1.7746-1.6219l-0.49784 0.04357c-0.9934 0.08694-1.8014 1.1326-1.9122 2.2828-0.1801 1.8685 0.943 2.5913 2.1142 2.1782m-3.8316 0.34589-0.4681 0.04097c-0.39005 0.03414-0.70072-0.25727-0.69657-0.65337l0.03959-3.7784m-0.88582 7.4629 20.813-1.8215m-5.6645 11.975-1.95-8.2867-1.8714 8.6212m0.44123-2.0333 2.9192-0.25548m5.589-5.3524c-0.0041-0.88563-0.70449-1.5376-1.5703-1.4618l-0.06068 0.0053c-0.8658 0.07577-1.5595 0.84975-1.5553 1.7354l0.0025 0.52757c0.0077 1.6488 3.196 1.7948 3.2046 3.6365l0.0038 0.81364c0.0041 0.88563-0.68955 1.6596-1.5553 1.7354l-0.06068 0.0053c-0.8658 0.07577-1.5662-0.5762-1.5703-1.4618m-7.668-0.14287 0.0038 0.81364c0.0041 0.88563-0.68955 1.6596-1.5553 1.7354l-0.06068 0.0053c-0.8658 0.07577-1.5662-0.5762-1.5703-1.4618l-0.02456-5.2565c-0.0041-0.88563 0.68955-1.6596 1.5553-1.7354l0.06068-0.0053c0.8658-0.07577 1.5662 0.5762 1.5703 1.4618l0.0025 0.52714m-6.8617-1.5261 2.0826-0.18227m-4.1653 0.36453 2.0826-0.18227 0.03951 8.4536m-6.6999-29.954h29c2.216 0 4 1.784 4 4v29c0 2.216-1.784 4-4 4h-29c-2.216 0-4-1.784-4-4v-29c0-2.216 1.784-4 4-4z" fill="none" stroke="#fff" stroke-linecap="round" stroke-linejoin="round"/></svg>
