<?xml version="1.0" encoding="UTF-8" standalone="no"?>
<!-- Created with Inkscape (http://www.inkscape.org/) -->

<svg
   width="48"
   height="48"
   viewBox="0 0 48 48"
   version="1.1"
   id="svg1"
   xml:space="preserve"
   sodipodi:docname="dekd_tcas.svg"
   inkscape:version="1.3.2 (091e20e, 2023-11-25, custom)"
   xmlns:inkscape="http://www.inkscape.org/namespaces/inkscape"
   xmlns:sodipodi="http://sodipodi.sourceforge.net/DTD/sodipodi-0.dtd"
   xmlns="http://www.w3.org/2000/svg"
   xmlns:svg="http://www.w3.org/2000/svg"><sodipodi:namedview
     id="namedview1"
     pagecolor="#505050"
     bordercolor="#eeeeee"
     borderopacity="1"
     inkscape:showpageshadow="0"
     inkscape:pageopacity="0"
     inkscape:pagecheckerboard="0"
     inkscape:deskcolor="#505050"
     inkscape:document-units="px"
     inkscape:zoom="8.96875"
     inkscape:cx="-7.6933798"
     inkscape:cy="40.864111"
     inkscape:window-width="1920"
     inkscape:window-height="1057"
     inkscape:window-x="-8"
     inkscape:window-y="-8"
     inkscape:window-maximized="1"
     inkscape:current-layer="svg1" /><defs
     id="defs1" /><path
     id="rect9"
     style="fill:none;stroke:#ffffff;stroke-linecap:round;stroke-linejoin:round;stroke-opacity:1"
     d="m 21.019682,14.84796 c -0.373758,-0.01339 -0.765642,0.154812 -1.084639,-0.407136 -0.239686,0.434305 -0.599015,0.561515 -1.09517,0.597908 -0.413816,0.03039 -0.743623,-0.270699 -0.739249,-0.68817 l 0.0021,-0.19601 c 0.0044,-0.417471 0.341122,-0.782721 0.755039,-0.818946 l 2.279429,-0.19949 m 9.106672,0.65673 3.609895,-0.315929 0.0098,-0.931397 m -0.195744,7.005034 0.02844,-2.714393 c 0.01032,-0.985466 -0.781107,-1.708827 -1.774509,-1.621887 l -0.497839,0.04357 c -0.993402,0.08694 -1.801376,1.132621 -1.912234,2.282751 -0.180098,1.868482 0.943005,2.591301 2.114186,2.178193 m -4.170821,0.375489 0.02844,-2.714393 c 0.01032,-0.985466 -0.781107,-1.708828 -1.77451,-1.621888 l -0.497838,0.04357 c -0.997824,0.08733 -1.521372,0.921672 -1.732663,1.482489 0.498758,0.158001 0.76091,0.316005 1.337849,0.440996 -0.521055,0.0456 -1.102972,0.607325 -1.10911,1.193195 l -0.01691,1.613737 m -2.212413,0.0854 0.02844,-2.714393 c 0.01023,-0.985469 -0.781197,-1.70883 -1.7746,-1.62189 l -0.497838,0.04357 c -0.993403,0.08694 -1.801377,1.132621 -1.912235,2.28275 -0.180098,1.868483 0.943005,2.591301 2.114186,2.178194 m -3.831609,0.345893 -0.468099,0.04097 c -0.390048,0.03414 -0.700717,-0.257267 -0.696567,-0.65337 l 0.03959,-3.778391 m -0.885824,7.462863 20.813355,-1.82153 m -5.664489,11.974825 -1.950003,-8.28673 -1.871391,8.621169 m 0.441231,-2.033284 2.919151,-0.255475 M 33.87014,27.05014 c -0.0041,-0.885626 -0.704487,-1.537603 -1.570291,-1.461831 l -0.06068,0.0053 c -0.865801,0.07577 -1.559486,0.849752 -1.555348,1.735379 l 0.0025,0.527574 c 0.0077,1.648759 3.196009,1.794751 3.204615,3.636459 l 0.0038,0.813644 c 0.0041,0.885626 -0.689547,1.659605 -1.555349,1.735377 l -0.06068,0.0053 c -0.865802,0.07577 -1.56615,-0.576204 -1.57029,-1.46183 m -7.668038,-0.142871 0.0038,0.813643 c 0.0041,0.885628 -0.689548,1.659605 -1.555349,1.735379 l -0.06068,0.0053 c -0.865802,0.07577 -1.566152,-0.576202 -1.570291,-1.46183 l -0.02456,-5.256526 c -0.0041,-0.885628 0.689547,-1.659606 1.555349,-1.73538 l 0.06068,-0.0053 c 0.865802,-0.07577 1.566152,0.576203 1.57029,1.461831 l 0.0025,0.527135 m -6.86173,-1.526057 2.082632,-0.182266 m -4.165264,0.364533 2.082632,-0.182267 0.03951,8.453649 M 9.5,5.5 h 29 c 2.216,0 4,1.784 4,4 v 29 c 0,2.216 -1.784,4 -4,4 h -29 c -2.216,0 -4,-1.784 -4,-4 v -29 c 0,-2.216 1.784,-4 4,-4 z" /></svg>
