<?xml version="1.0" encoding="UTF-8" standalone="no"?>
<!-- Created with Inkscape (http://www.inkscape.org/) -->

<svg
   width="48"
   height="48"
   viewBox="0 0 48 48"
   version="1.1"
   id="svg1"
   xml:space="preserve"
   inkscape:version="1.3.2 (091e20e, 2023-11-25, custom)"
   sodipodi:docname="dekd.svg"
   xmlns:inkscape="http://www.inkscape.org/namespaces/inkscape"
   xmlns:sodipodi="http://sodipodi.sourceforge.net/DTD/sodipodi-0.dtd"
   xmlns="http://www.w3.org/2000/svg"
   xmlns:svg="http://www.w3.org/2000/svg"><sodipodi:namedview
     id="namedview1"
     pagecolor="#505050"
     bordercolor="#eeeeee"
     borderopacity="1"
     inkscape:showpageshadow="0"
     inkscape:pageopacity="0"
     inkscape:pagecheckerboard="0"
     inkscape:deskcolor="#505050"
     inkscape:document-units="px"
     inkscape:zoom="6.3418639"
     inkscape:cx="-17.975788"
     inkscape:cy="13.954888"
     inkscape:window-width="1920"
     inkscape:window-height="1057"
     inkscape:window-x="-8"
     inkscape:window-y="-8"
     inkscape:window-maximized="1"
     inkscape:current-layer="svg1" /><defs
     id="defs1" /><path
     id="path3"
     style="fill:none;stroke:#ffffff;stroke-width:1;stroke-linecap:round;stroke-linejoin:round;stroke-opacity:1;-inkscape-stroke:none"
     d="m 13.753784,35.874511 c -0.484921,2.641973 -0.409588,3.608456 1.156808,6.593375 0.153163,-1.495564 0.07729,-2.063916 0.642361,-2.954862 0.992956,1.161657 1.950481,2.137234 3.661459,2.119793 -2.291362,-0.941981 -1.43801,-2.262699 -1.285281,-5.758306 m -1.893127,-7.554054 2.718157,-16.848742 h 4.799295 c 5.153911,0 8.799547,3.300247 8.142771,7.371325 l -0.339767,2.106092 c -0.656776,4.071078 -5.367248,7.371325 -10.521161,7.371325 z M 42.5,27.970594 v 0 m 0,0 c 0,3.191688 -2.569489,5.760661 -5.761177,5.761176 l -24.839299,0.004 c -3.1551562,5.13e-4 -5.7022755,2.511016 -5.76017,5.651829 M 12.290268,42.5 H 11.261177 C 8.0694851,42.5 5.5000004,39.930515 5.5000004,36.738823 V 11.261177 c 0,-3.1916919 2.5694847,-5.7611766 5.7611766,-5.7611766 h 25.477646 c 3.191692,0 5.761177,2.5694847 5.761177,5.7611766 V 36.738823 C 42.5,39.930515 39.930515,42.5 36.738823,42.5 H 21.302085"
     sodipodi:nodetypes="cccccccsssscccccsccssssssssc" /></svg>
