<?xml version="1.0" encoding="UTF-8"?>
<svg version="1.1" viewBox="0 0 48 48" xmlns="http://www.w3.org/2000/svg"><defs><style>.a{fill:none;stroke:#fff;stroke-linecap:round;stroke-linejoin:round;}</style></defs><path class="t" d="m27.342 30.985h5.3m0-3.9849v8m-5.3-8v8m-4.9598 0v-8m-2.65 0h5.3m-0.61612-6h-4v-8h4m-4 4h2.608m3.634 4v-8l5.3 8v-8m-19.228-8.5v39h24.87a2 2 0 0 0 2-2v-35a2 2 0 0 0-2-2zm-4.33 2v35a2 2 0 0 0 2 2h2.33v-39h-2.33a2 2 0 0 0-2 2z" fill="none" stroke="#fff" stroke-linecap="round" stroke-linejoin="round"/></svg>
