<?xml version="1.0" encoding="UTF-8" standalone="no"?>
<!-- Created with Inkscape (http://www.inkscape.org/) -->

<svg
   width="48"
   height="48"
   viewBox="0 0 48 48"
   version="1.1"
   id="svg1"
   xml:space="preserve"
   inkscape:version="1.3.2 (091e20e, 2023-11-25, custom)"
   sodipodi:docname="fondue_manager.svg"
   xmlns:inkscape="http://www.inkscape.org/namespaces/inkscape"
   xmlns:sodipodi="http://sodipodi.sourceforge.net/DTD/sodipodi-0.dtd"
   xmlns="http://www.w3.org/2000/svg"
   xmlns:svg="http://www.w3.org/2000/svg"><sodipodi:namedview
     id="namedview1"
     pagecolor="#505050"
     bordercolor="#eeeeee"
     borderopacity="1"
     inkscape:showpageshadow="0"
     inkscape:pageopacity="0"
     inkscape:pagecheckerboard="0"
     inkscape:deskcolor="#505050"
     inkscape:document-units="px"
     inkscape:zoom="8.96875"
     inkscape:cx="-12.376307"
     inkscape:cy="26.034843"
     inkscape:window-width="1920"
     inkscape:window-height="1057"
     inkscape:window-x="-8"
     inkscape:window-y="-8"
     inkscape:window-maximized="1"
     inkscape:current-layer="svg1" /><defs
     id="defs1" /><path
     id="path10"
     style="fill:none;stroke:#ffffff;stroke-width:1;stroke-linecap:round;stroke-linejoin:round;stroke-opacity:1;-inkscape-stroke:none"
     d="m 18.733258,33.321775 1.540876,-0.643864 1.161892,2.781253 -0.824832,0.34466 m -2.831881,-3.742423 0.953843,1.260812 m 1.878074,2.482478 3.427034,4.529927 -2.842636,2.165401 -6.708558,-8.86752 m 5.860213,-2.709551 -4.175076,-9.994006 m 0,0 C 19.806031,19.323959 26.662585,15.632847 28.468566,9.180208 l 9.926589,22.527102 c 0.402608,0.913664 1.42298,1.342341 2.28879,0.960731 0.865812,-0.381612 1.239551,-1.424749 0.836945,-2.338411 l -3.624416,-8.225138 c 1.521883,-1.100272 2.126093,-3.148705 1.33824,-4.936636 -0.787893,-1.788035 -2.707841,-2.725869 -4.546774,-2.344714 L 31.063525,6.5980016 C 30.660918,5.6843392 29.638934,5.2563722 28.773125,5.6379816 27.907314,6.019591 27.535184,7.06202 27.937789,7.9756825 l 0.530778,1.2045251 m 9.345107,21.3271644 c -5.859208,-3.249694 -13.770987,-1.042002 -17.466391,0.415576 -0.967169,0.426912 -1.808407,0.795588 -2.5826,1.142381 m -3.27507,1.558773 c -0.722875,0.372825 -1.469365,0.780655 -2.302541,1.262447 -0.877455,-0.935068 -1.661331,-1.919634 -2.3313214,-2.964421 M 16.172207,20.928942 c -3.064716,1.278071 -5.81768,2.259939 -8.8720609,3.041506 0.068998,1.438537 0.3145766,2.783698 0.7129474,4.048043 l -1.6932614,1.098382 1.6647425,3.333377 1.871176,-0.528122" /></svg>
