<?xml version="1.0" encoding="UTF-8"?>
<svg width="48" height="48" version="1.1" viewBox="0 0 48 48" xml:space="preserve" xmlns="http://www.w3.org/2000/svg"><path d="m18.733 33.322 1.5409-0.64386 1.1619 2.7813-0.82483 0.34466m-2.8319-3.7424 0.95384 1.2608m1.8781 2.4825 3.427 4.5299-2.8426 2.1654-6.7086-8.8675m5.8602-2.7096-4.1751-9.994m0 0c3.6338-1.605 10.49-5.2961 12.296-11.749l9.9266 22.527c0.40261 0.91366 1.423 1.3423 2.2888 0.96073 0.86581-0.38161 1.2396-1.4247 0.83694-2.3384l-3.6244-8.2251c1.5219-1.1003 2.1261-3.1487 1.3382-4.9366-0.78789-1.788-2.7078-2.7259-4.5468-2.3447l-3.6244-8.2251c-0.40261-0.91366-1.4246-1.3416-2.2904-0.96002-0.86581 0.38161-1.2379 1.424-0.83534 2.3377l0.53078 1.2045m9.3451 21.327c-5.8592-3.2497-13.771-1.042-17.466 0.41558-0.96717 0.42691-1.8084 0.79559-2.5826 1.1424m-3.2751 1.5588c-0.72288 0.37282-1.4694 0.78066-2.3025 1.2624-0.87746-0.93507-1.6613-1.9196-2.3313-2.9644m6.3165-10.993c-3.0647 1.2781-5.8177 2.2599-8.8721 3.0415 0.068998 1.4385 0.31458 2.7837 0.71295 4.048l-1.6933 1.0984 1.6647 3.3334 1.8712-0.52812" fill="none" stroke="#fff" stroke-linecap="round" stroke-linejoin="round" style="-inkscape-stroke:none"/></svg>
