<?xml version="1.0" encoding="UTF-8"?>
<svg width="48" height="48" version="1.1" viewBox="0 0 48 48" xml:space="preserve" xmlns="http://www.w3.org/2000/svg"><defs><style>.c{fill:none;stroke:#fff;stroke-linecap:round;stroke-linejoin:round;}</style></defs><path d="m23.561 25.995 8.665 11.28h-3.2099c-1.33 0-2.0146-0.87213-2.7192-1.7977l-5.0364-6.616 2.3004-2.8662 2.736-3.466c0.7046-0.92556 1.3892-1.7977 2.7192-1.7977h3.2099s-6.3254 8.3094-6.3254 8.3094m-10.446-8.1451h3.9886v16.17h-3.9886zm26.543-3.7821c-0.36787 0.14492-0.767 0.22414-1.1845 0.22414-1.8531 0-3.3449-1.561-3.3449-3.5m-0.01153-6.6518v6.6518c0 1.939-1.4918 3.5-3.3449 3.5s-3.3449-1.561-3.3485-3.5c-0.0036 1.939-1.4954 3.5-3.3485 3.5s-3.3449-1.561-3.3449-3.5m-8.44e-4 -7.8334-5e-3 7.8334c-0.0058 1.939-1.4976 3.5-3.3507 3.5s-3.3449-1.561-3.3438-3.5c0.0011 1.939-1.4907 3.5-3.3438 3.5s-3.3449-1.561-3.3507-3.5c-0.0057 1.939-1.4976 3.5-3.3507 3.5-0.46944 0-0.91569-0.10018-1.3204-0.28129m24.756-11.052v7.8334m-13.389-7.8334v7.8334m-6.7013-6.728v6.728m4.3345-7.8345h17.993c4.986 0 9 4.014 9 9v17.993c0 4.986-4.014 9-9 9h-17.993c-4.986 0-9-4.014-9-9v-17.993c0-4.986 4.014-9 9-9z" fill="none" stroke="#fff" stroke-linecap="round" stroke-linejoin="round"/></svg>
