<?xml version="1.0" encoding="UTF-8" standalone="no"?>
<!-- Created with Inkscape (http://www.inkscape.org/) -->

<svg
   width="48"
   height="48"
   viewBox="0 0 48 48"
   version="1.1"
   id="svg1"
   xml:space="preserve"
   inkscape:version="1.3.2 (091e20e, 2023-11-25, custom)"
   sodipodi:docname="k_shop.svg"
   xmlns:inkscape="http://www.inkscape.org/namespaces/inkscape"
   xmlns:sodipodi="http://sodipodi.sourceforge.net/DTD/sodipodi-0.dtd"
   xmlns="http://www.w3.org/2000/svg"
   xmlns:svg="http://www.w3.org/2000/svg"><sodipodi:namedview
     id="namedview1"
     pagecolor="#505050"
     bordercolor="#eeeeee"
     borderopacity="1"
     inkscape:showpageshadow="0"
     inkscape:pageopacity="0"
     inkscape:pagecheckerboard="0"
     inkscape:deskcolor="#505050"
     inkscape:document-units="px"
     inkscape:zoom="12.683728"
     inkscape:cx="21.208276"
     inkscape:cy="21.641902"
     inkscape:window-width="1920"
     inkscape:window-height="1057"
     inkscape:window-x="-8"
     inkscape:window-y="-8"
     inkscape:window-maximized="1"
     inkscape:current-layer="svg1" /><defs
     id="defs1"><style
       id="style1">.c{fill:none;stroke:#fff;stroke-linecap:round;stroke-linejoin:round;}</style></defs><path
     id="path14"
     style="fill:none;stroke:#ffffff;stroke-width:1;stroke-linecap:round;stroke-linejoin:round;stroke-opacity:1"
     d="m 23.560892,25.995351 8.66504,11.279929 h -3.209865 c -1.329961,0 -2.014563,-0.872129 -2.719162,-1.797692 l -5.03637,-6.616022 2.300357,-2.866215 2.736013,-3.465968 c 0.704599,-0.925563 1.389201,-1.797692 2.719162,-1.797692 h 3.209865 c 0,0 -6.325439,8.309377 -6.325439,8.309377 M 15.454708,20.895936 h 3.988609 v 16.170297 h -3.988609 z m 26.542673,-3.782095 c -0.367869,0.144917 -0.766999,0.224138 -1.184461,0.224138 -1.853099,0 -3.344948,-1.561002 -3.344948,-3.5 m -0.01153,-6.6518202 v 6.6518202 c 0,1.938998 -1.491849,3.5 -3.344948,3.5 -1.853099,0 -3.344948,-1.561002 -3.348548,-3.5 -0.0036,1.938998 -1.495449,3.5 -3.348548,3.5 -1.853099,0 -3.344948,-1.561002 -3.344948,-3.5 m -8.44e-4,-7.8333683 -0.005,7.8333683 c -0.0058,1.938998 -1.497614,3.5 -3.350713,3.5 -1.853099,0 -3.344948,-1.561002 -3.343798,-3.5 0.0011,1.938998 -1.490699,3.5 -3.343798,3.5 -1.853099,0 -3.344948,-1.561002 -3.350667,-3.5 -0.0057,1.938998 -1.4975677,3.5 -3.3506669,3.5 -0.4694352,0 -0.9156888,-0.100175 -1.3203787,-0.281292 M 30.759346,6.0046112 V 13.837979 M 17.370324,6.0046112 V 13.837979 M 10.66899,7.1099929 v 6.7279861 m 4.334495,-7.8344943 h 17.99303 c 4.986,0 9,4.0140003 9,9.0000003 v 17.99303 c 0,4.986 -4.014,9 -9,9 h -17.99303 c -4.986,0 -9.0000003,-4.014 -9.0000003,-9 v -17.99303 c 0,-4.986 4.0140003,-9.0000003 9.0000003,-9.0000003 z" /></svg>
