<?xml version="1.0" encoding="UTF-8"?>
<svg width="48" height="48" version="1.1" viewBox="0 0 48 48" xml:space="preserve" xmlns="http://www.w3.org/2000/svg"><defs><style>
      .cls-1 {
        fill: none;
        stroke: #fff;
        stroke-linecap: round;
        stroke-linejoin: round;
      }
    </style></defs><path class="t" d="m27.307 27.723v-7.05m0 4.1418c0-0.97342-0.7596-1.7625-1.6967-1.7625v0c-0.93707 0-1.6967 0.78907-1.6967 1.7625v1.1456c0 0.97342 0.7596 1.7625 1.6967 1.7625v0c0.93707 0 1.6967-0.78907 1.6967-1.7625m10.632 0.87305c-0.29225 0.5313-0.84299 0.88944-1.4742 0.88944v0c-0.93707 0-1.6967-0.78907-1.6967-1.7625v-1.1456c0-0.97342 0.7596-1.7625 1.6967-1.7625v0c0.93707 0 1.6967 0.78907 1.6967 1.7625v0.57281h-3.3933m-2.2561 1.4459c-0.29225 0.5313-0.84299 0.88944-1.4742 0.88944v0c-0.93707 0-1.6967-0.78907-1.6967-1.7625v-1.1456c0-0.97342 0.7596-1.7625 1.6967-1.7625v0c0.93707 0 1.6967 0.78907 1.6967 1.7625v0.57281h-3.3933m-10.682 2.3353v-4.6706m0 2.9081c0 0.97342-0.7596 1.7625-1.6967 1.7625v0c-0.93707 0-1.6967-0.78907-1.6967-1.7625v-1.1456c0-0.97342 0.7596-1.7625 1.6967-1.7625v0c0.93707 0 1.6967 0.78907 1.6967 1.7625m3.2213-3.9215c0 0.34069-0.26587 0.61687-0.59384 0.61687-0.32797 0-0.59384-0.27618-0.59384-0.61687s0.26587-0.61687 0.59384-0.61687c0.32797 0 0.59384 0.27618 0.59384 0.61687zm-0.59384 2.159v4.6706m-10.469-2.5082 2.415 2.4976m-3.3927-1.487 3.0719-3.1756m-3.0726-2.3768v7.05m-0.33873-22.223h29c2.216 0 4 1.784 4 4v29c0 2.216-1.784 4-4 4h-29c-2.216 0-4-1.784-4-4v-29c0-2.216 1.784-4 4-4z" fill="none" stroke="#fff" stroke-linecap="round" stroke-linejoin="round"/></svg>
