<?xml version="1.0" encoding="UTF-8" standalone="no"?>
<!-- Created with Inkscape (http://www.inkscape.org/) -->

<svg
   width="48"
   height="48"
   viewBox="0 0 48 48"
   version="1.1"
   id="svg1"
   xml:space="preserve"
   sodipodi:docname="kung_fu_house.svg"
   inkscape:version="1.3.2 (091e20e, 2023-11-25, custom)"
   xmlns:inkscape="http://www.inkscape.org/namespaces/inkscape"
   xmlns:sodipodi="http://sodipodi.sourceforge.net/DTD/sodipodi-0.dtd"
   xmlns="http://www.w3.org/2000/svg"
   xmlns:svg="http://www.w3.org/2000/svg"><sodipodi:namedview
     id="namedview1"
     pagecolor="#505050"
     bordercolor="#eeeeee"
     borderopacity="1"
     inkscape:showpageshadow="0"
     inkscape:pageopacity="0"
     inkscape:pagecheckerboard="0"
     inkscape:deskcolor="#505050"
     inkscape:document-units="px"
     inkscape:zoom="6.3418639"
     inkscape:cx="49.03921"
     inkscape:cy="35.55737"
     inkscape:window-width="1920"
     inkscape:window-height="1057"
     inkscape:window-x="-8"
     inkscape:window-y="-8"
     inkscape:window-maximized="1"
     inkscape:current-layer="svg1" /><defs
     id="defs1" /><path
     id="path5-6"
     style="fill:none;stroke:#ffffff;stroke-width:1;stroke-linecap:round;stroke-linejoin:round;-inkscape-stroke:none"
     d="m 24.709424,27.107729 c -0.61956,3.253464 -1.006263,6.553014 -0.740268,9.851438 m -3.433708,-9.983573 c -1.662453,1.947266 -2.125301,15.742944 3.926297,3.714049 m 12.731195,5.837569 c 1.631141,0.414252 3.538602,-0.862405 5.031535,-1.469369 m -6.201823,-2.421622 c 1.254448,-0.35398 2.56032,-0.449563 3.833217,-0.731531 m -4.015417,-4.023424 c 1.818222,-0.260529 3.627775,-0.49279 5.466012,-0.517117 m -3.510861,-0.536037 c -1.04855,2.880641 -1.485525,6.405166 -0.553609,9.383785 m -3.91731,-11.054956 c -1.365804,0.232809 -2.537158,1.46059 -3.349684,2.535136 -3.357567,4.440302 6.642847,3.105443 3.321653,6.627928 -1.397533,1.482237 -5.237581,1.870473 -6.222845,-0.03153 M 13.885301,32.371357 c -0.348364,-1.462767 -0.04654,-3.380496 1.52768,-3.991893 1.540589,-0.598337 2.008574,1.451327 2.025227,2.560361 0.07912,5.268749 -5.589964,7.195464 -4.996496,1.526126 0.07744,-0.739703 0.333582,-1.313435 0.658725,-1.973874 m -7.2950251,0.409911 c 0.9489976,-0.497541 2.0423703,-0.587933 3.0693764,-0.832433 m 0.8058873,-3.44955 C 8.5875258,29.606442 8.421123,32.625763 8.5804649,35.732618 M 6.7514528,26.500185 C 5.4458105,29.379505 5.635699,32.847836 6.2679206,35.732618 M 43.5,14.709404 c -0.381227,2.096211 -0.619173,4.222117 -0.455501,6.347297 m -2.112824,-6.432432 c -1.022938,1.254627 -1.307737,10.143205 2.415923,2.392968 M 31.363472,11.611553 c 2.892104,-0.837585 5.476336,-0.549586 8.311141,0.0946 m -8.496846,3.972968 c 1.663531,-0.815135 3.449319,-0.702916 5.224247,-0.822973 m -3.882271,-3.209909 c -0.634241,3.0066 -1.092121,6.02507 -1.496146,9.065315 m -3.913224,-6.549099 c -6.551409,-0.750522 -2.820506,11.319824 1.538191,2.825225 m -2.543798,0.35946 c 0.8406,-0.225255 1.719549,-0.354849 2.561318,-0.504505 M 18.01787,19.693086 c -0.196022,-1.599748 -0.144012,-3.191347 0.311843,-4.723424 m 0.210231,0.138738 c 4.285236,6.603349 3.267734,5.394036 3.451298,-1.649099 m -5.669237,0.715766 c -0.381227,2.096212 -0.619173,4.222118 -0.455501,6.347298 M 13.75368,14.089932 c -1.022938,1.254627 -1.307737,10.143206 2.415923,2.392969 M 7.3976877,15.552996 c 1.4653327,1.819046 3.1673763,3.424065 4.7932723,5.076576 m 0.434478,-9.588739 c -2.028672,1.432769 -3.8980367,3.075868 -5.7778554,4.691892 M 6.668886,11.766058 C 5.9888465,14.574372 5.2035643,17.35969 4.5000001,20.162906" /></svg>
