<?xml version="1.0" encoding="UTF-8"?>
<svg width="48" height="48" version="1.1" viewBox="0 0 48 48" xml:space="preserve" xmlns="http://www.w3.org/2000/svg"><path d="m24.709 27.108c-0.61956 3.2535-1.0063 6.553-0.74027 9.8514m-3.4337-9.9836c-1.6625 1.9473-2.1253 15.743 3.9263 3.714m12.731 5.8376c1.6311 0.41425 3.5386-0.8624 5.0315-1.4694m-6.2018-2.4216c1.2544-0.35398 2.5603-0.44956 3.8332-0.73153m-4.0154-4.0234c1.8182-0.26053 3.6278-0.49279 5.466-0.51712m-3.5109-0.53604c-1.0486 2.8806-1.4855 6.4052-0.55361 9.3838m-3.9173-11.055c-1.3658 0.23281-2.5372 1.4606-3.3497 2.5351-3.3576 4.4403 6.6428 3.1054 3.3217 6.6279-1.3975 1.4822-5.2376 1.8705-6.2228-0.03153m-13.189-1.9171c-0.34836-1.4628-0.04654-3.3805 1.5277-3.9919 1.5406-0.59834 2.0086 1.4513 2.0252 2.5604 0.07912 5.2687-5.59 7.1955-4.9965 1.5261 0.07744-0.7397 0.33358-1.3134 0.65872-1.9739m-7.295 0.40991c0.949-0.49754 2.0424-0.58793 3.0694-0.83243m0.80589-3.4496c-1.0931 2.9864-1.2596 6.0058-1.1002 9.1126m-1.829-9.2324c-1.3056 2.8793-1.1158 6.3477-0.48353 9.2324m37.232-21.023c-0.38123 2.0962-0.61917 4.2221-0.4555 6.3473m-2.1128-6.4324c-1.0229 1.2546-1.3077 10.143 2.4159 2.393m-11.984-5.4057c2.8921-0.83758 5.4763-0.54959 8.3111 0.0946m-8.4968 3.973c1.6635-0.81514 3.4493-0.70292 5.2242-0.82297m-3.8823-3.2099c-0.63424 3.0066-1.0921 6.0251-1.4961 9.0653m-3.9132-6.5491c-6.5514-0.75052-2.8205 11.32 1.5382 2.8252m-2.5438 0.35946c0.8406-0.22526 1.7195-0.35485 2.5613-0.5045m-10.648 2.8505c-0.19602-1.5997-0.14401-3.1913 0.31184-4.7234m0.21023 0.13874c4.2852 6.6033 3.2677 5.394 3.4513-1.6491m-5.6692 0.71577c-0.38123 2.0962-0.61917 4.2221-0.4555 6.3473m-2.1128-6.4324c-1.0229 1.2546-1.3077 10.143 2.4159 2.393m-8.7719-0.9299c1.4653 1.819 3.1674 3.4241 4.7933 5.0766m0.43448-9.5887c-2.0287 1.4328-3.898 3.0759-5.7779 4.6919m-0.1787-3.9667c-0.68004 2.8083-1.4653 5.5936-2.1689 8.3968" fill="none" stroke="#fff" stroke-linecap="round" stroke-linejoin="round" style="-inkscape-stroke:none"/></svg>
