<?xml version="1.0" encoding="UTF-8" standalone="no"?>
<svg
   id="a"
   viewBox="0 0 48 48"
   version="1.1"
   sodipodi:docname="lazada_seller_center.svg"
   xml:space="preserve"
   inkscape:version="1.3.2 (091e20e, 2023-11-25, custom)"
   xmlns:inkscape="http://www.inkscape.org/namespaces/inkscape"
   xmlns:sodipodi="http://sodipodi.sourceforge.net/DTD/sodipodi-0.dtd"
   xmlns="http://www.w3.org/2000/svg"
   xmlns:svg="http://www.w3.org/2000/svg"><sodipodi:namedview
     id="namedview2"
     pagecolor="#505050"
     bordercolor="#eeeeee"
     borderopacity="1"
     inkscape:showpageshadow="0"
     inkscape:pageopacity="0"
     inkscape:pagecheckerboard="0"
     inkscape:deskcolor="#505050"
     inkscape:zoom="11.011148"
     inkscape:cx="46.225879"
     inkscape:cy="18.299636"
     inkscape:window-width="1920"
     inkscape:window-height="1057"
     inkscape:window-x="-8"
     inkscape:window-y="-8"
     inkscape:window-maximized="1"
     inkscape:current-layer="a" /><defs
     id="defs1"><style
       id="style1">.b{fill:none;stroke:#fff;stroke-linecap:round;stroke-linejoin:round;}</style></defs><path
     id="line469"
     style="display:inline;fill:none;stroke:#ffffff;stroke-width:0.999999;stroke-linecap:round;stroke-linejoin:round;stroke-opacity:1"
     class="t"
     d="M 24,31.6806 V 30.14448 17.85552 16.3194 m -3.935085,12.478668 c 0.774824,0.98112 1.746277,1.346409 3.097876,1.346409 h 1.870571 c 1.74075,0 3.151891,-1.375442 3.151891,-3.07224 v 0 c 0,-1.696798 -1.411141,-3.07224 -3.151891,-3.07224 h -2.066725 c -1.740749,0 -3.15189,-1.375442 -3.15189,-3.07224 v 0 c 0,-1.696798 1.411141,-3.07224 3.15189,-3.07224 h 1.870571 c 1.3516,0 2.323052,0.365443 3.097877,1.346409 M 24.060976,34.163 v 7.591002 M 43.499975,11.5437 v 19.2712 l -18.5339,10.7006 c -0.560099,0.3233 -1.250101,0.3233 -1.8101,0 l -18.656,-10.771 V 11.4733 m 26.44769,7.317628 12.55241,-7.247128 -9.1177,-5.2641 -1e-4,-10e-5 v 0 l -6.4263,3.7102 c -2.182498,1.260099 -5.732202,1.253699 -7.9285,-0.0143 l -6.4666,-3.7335 -9.0608,5.2313 12.552883,7.247443"
     sodipodi:nodetypes="cccccssssssssssccccccccccccccccccc" /><path
     id="rect476"
     style="display:none;fill:none;stroke:#ffffff;stroke-width:0.999996;stroke-linecap:round;stroke-linejoin:round"
     class="t"
     d="m 23.072585,17.5 c 2.465081,0 4.449604,1.920588 4.449604,4.30625 v 4.3875 c 0,2.385662 -1.984523,4.30625 -4.449604,4.30625 -2.465081,0 -4.449605,-1.920588 -4.449605,-4.30625 v -4.3875 c 0,-2.385662 1.984524,-4.30625 4.449605,-4.30625 z m 7.201206,13 v -13 h 4.397553 c 2.486237,0 4.501656,1.954712 4.501656,4.365888 0,2.411174 -2.015419,4.365887 -4.501656,4.365887 H 30.273791 M 10.504682,17.5 v 13 h 6.716384" /></svg>
