<?xml version="1.0" encoding="UTF-8"?>
<svg id="a" version="1.1" viewBox="0 0 48 48" xml:space="preserve" xmlns="http://www.w3.org/2000/svg"><defs><style>.b{fill:none;stroke:#fff;stroke-linecap:round;stroke-linejoin:round;}</style></defs><path class="t" d="m24 31.681v-15.361m-3.9351 12.479c0.77482 0.98112 1.7463 1.3464 3.0979 1.3464h1.8706c1.7408 0 3.1519-1.3754 3.1519-3.0722v0c0-1.6968-1.4111-3.0722-3.1519-3.0722h-2.0667c-1.7407 0-3.1519-1.3754-3.1519-3.0722v0c0-1.6968 1.4111-3.0722 3.1519-3.0722h1.8706c1.3516 0 2.3231 0.36544 3.0979 1.3464m-3.8741 14.961v7.591m19.439-30.21v19.271l-18.534 10.701c-0.5601 0.3233-1.2501 0.3233-1.8101 0l-18.656-10.771v-19.271m26.448 7.3176 12.552-7.2471-9.1177-5.2641-1e-4 -1e-4v0l-6.4263 3.7102c-2.1825 1.2601-5.7322 1.2537-7.9285-0.0143l-6.4666-3.7335-9.0608 5.2313 12.553 7.2474" fill="none" stroke="#fff" stroke-linecap="round" stroke-linejoin="round"/></svg>
