<?xml version="1.0" encoding="UTF-8"?>
<svg id="a" version="1.1" viewBox="0 0 48 48" xml:space="preserve" xmlns="http://www.w3.org/2000/svg"><defs><style>.b{fill:none;stroke:#fff;stroke-linecap:round;stroke-linejoin:round;}</style></defs><path class="t" d="m23.333 18.499c2.101 0 3.7924 1.6254 3.7924 3.6444v3.7132c0 2.019-1.6914 3.6444-3.7924 3.6444-2.101 0-3.7924-1.6254-3.7924-3.6444v-3.7132c0-2.019 1.6914-3.6444 3.7924-3.6444zm6.1377 11.002v-11.002h3.7481c2.119 0 3.8368 1.6543 3.8368 3.6949 0 2.0406-1.7178 3.6949-3.8368 3.6949h-3.7481m-16.849-7.3898v11.002h5.7244m5.7148 2.8678v9.3852m19.439-30.21v19.271l-18.534 10.701c-0.5601 0.3233-1.2501 0.3233-1.8101 0l-18.656-10.771v-19.271m31.92 4.158 7.0798-4.0875-9.1177-5.2641-1e-4 -1e-4v0l-6.4263 3.7102c-2.1825 1.2601-5.7322 1.2537-7.9285-0.0143l-6.4666-3.7335-9.0608 5.2313 7.2013 4.1577" fill="none" stroke="#fff" stroke-linecap="round" stroke-linejoin="round"/></svg>
