<?xml version="1.0" encoding="UTF-8"?>
<svg width="48" height="48" version="1.1" viewBox="0 0 48 48" xml:space="preserve" xmlns="http://www.w3.org/2000/svg"><path d="m33.11 37.758a1.4509 2.4978 59.62 0 1-2.6282-0.38542 1.4509 2.4978 59.62 0 1 1.8589-2.4852 1.4509 2.4978 59.62 0 1 2.6282 0.38541 1.4509 2.4978 59.62 0 1-1.8589 2.4852zm-7.2422-2.2393a1.4509 2.4978 59.62 0 1-2.6282-0.38542 1.4509 2.4978 59.62 0 1 1.8589-2.4852 1.4509 2.4978 59.62 0 1 2.6282 0.38541 1.4509 2.4978 59.62 0 1-1.8589 2.4852zm-10.271-1.6804a2.4976 1.451 74.612 0 1-1.0525 2.4387 2.4976 1.451 74.612 0 1-1.9196-2.4387 2.4976 1.451 74.612 0 1 1.0525-2.4387 2.4976 1.451 74.612 0 1 1.9196 2.4387zm3.297-5.8029a2.4976 1.451 74.612 0 1-1.0525 2.4387 2.4976 1.451 74.612 0 1-1.9196-2.4387 2.4976 1.451 74.612 0 1 1.0525-2.4387 2.4976 1.451 74.612 0 1 1.9196 2.4387zm-7.2422-2.8112a2.4976 1.451 74.612 0 1-1.0525 2.4387 2.4976 1.451 74.612 0 1-1.9196-2.4387 2.4976 1.451 74.612 0 1 1.0525-2.4387 2.4976 1.451 74.612 0 1 1.9196 2.4387zm3.297-5.8029a2.4976 1.451 74.612 0 1-1.0525 2.4387 2.4976 1.451 74.612 0 1-1.9196-2.4387 2.4976 1.451 74.612 0 1 1.0525-2.4387 2.4976 1.451 74.612 0 1 1.9196 2.4387zm16.816-2.5544a2.6619 2.307 42.895 0 1-2.1235 2.4777 2.6619 2.307 42.895 0 1-2.8333-2.4777 2.6619 2.307 42.895 0 1 2.1235-2.4777 2.6619 2.307 42.895 0 1 2.8333 2.4777zm8.9813 12.664-3.6667 6.4701c-1.32 2.3292-2.9114 3.3719-4.8463 3.7338l-12.71 2.3769m0 0-1.948 0.35748m1.948-0.35748-1.948 0.35748m-5.2194-2.6872c1.2392 2.7305 3.1785 3.0185 4.8395 0.08761l3.6667-6.4701c1.4579-2.7782 1.3699-5.0411 0.68077-7.1036l-5.8236-12.832c-1.2716-2.8019-1.2726-4.8601 2.2917-5.5333m5.5326 22.938c-0.98251 0.47294-1.9366 1.2168-2.6815 2.5312m5.5338-3.4372c-3.05 0.57607-3.7356-1.2041-4.853-3.6664m4.853 3.6664 9.706-1.8332c6.1992-1.1708 7.1406-2.8042 5.217-7.043l-5.8236-12.832c-1.4984-3.3017-3.2734-3.0075-7.7783-2.1567l-9.706 1.8332m-5.332 2.9144c-0.66064 0.81138-1.2504 1.8391-2.0284 3.212l-3.6667 6.4701c-0.98584 1.7396-1.8764 3.2834-0.4516 6.4229l5.8236 12.832" fill="none" stroke="#fff" stroke-linecap="round" stroke-linejoin="round"/></svg>
