<?xml version="1.0" encoding="UTF-8" standalone="no"?>
<!-- Created with Inkscape (http://www.inkscape.org/) -->

<svg
   width="48"
   height="48"
   viewBox="0 0 48 48"
   version="1.1"
   id="svg1"
   xml:space="preserve"
   inkscape:version="1.3.2 (091e20e, 2023-11-25, custom)"
   sodipodi:docname="line_lets_get_rich.svg"
   xmlns:inkscape="http://www.inkscape.org/namespaces/inkscape"
   xmlns:sodipodi="http://sodipodi.sourceforge.net/DTD/sodipodi-0.dtd"
   xmlns="http://www.w3.org/2000/svg"
   xmlns:svg="http://www.w3.org/2000/svg"><sodipodi:namedview
     id="namedview1"
     pagecolor="#505050"
     bordercolor="#eeeeee"
     borderopacity="1"
     inkscape:showpageshadow="0"
     inkscape:pageopacity="0"
     inkscape:pagecheckerboard="0"
     inkscape:deskcolor="#505050"
     inkscape:document-units="px"
     inkscape:zoom="4.484375"
     inkscape:cx="84.961672"
     inkscape:cy="29.993031"
     inkscape:window-width="1920"
     inkscape:window-height="1057"
     inkscape:window-x="-8"
     inkscape:window-y="-8"
     inkscape:window-maximized="1"
     inkscape:current-layer="svg1" /><defs
     id="defs1" /><path
     id="path6-1-3"
     style="fill:none;stroke:#ffffff;stroke-width:1;stroke-linecap:round;stroke-linejoin:round;stroke-opacity:1"
     d="m 33.110002,37.75795 a 1.4509252,2.4977552 59.619505 0 1 -2.628191,-0.385415 1.4509252,2.4977552 59.619505 0 1 1.858935,-2.485226 1.4509252,2.4977552 59.619505 0 1 2.628192,0.385414 1.4509252,2.4977552 59.619505 0 1 -1.858936,2.485227 z m -7.242188,-2.239274 a 1.4509252,2.4977552 59.619505 0 1 -2.628192,-0.385415 1.4509252,2.4977552 59.619505 0 1 1.858936,-2.485225 1.4509252,2.4977552 59.619505 0 1 2.628192,0.385413 1.4509252,2.4977552 59.619505 0 1 -1.858936,2.485227 z m -10.2713,-1.680412 a 2.4976009,1.4510147 74.612165 0 1 -1.052541,2.438654 2.4976009,1.4510147 74.612165 0 1 -1.919637,-2.438654 2.4976009,1.4510147 74.612165 0 1 1.052542,-2.438653 2.4976009,1.4510147 74.612165 0 1 1.919636,2.438653 z m 3.296994,-5.80286 a 2.4976009,1.4510147 74.612165 0 1 -1.052541,2.438654 2.4976009,1.4510147 74.612165 0 1 -1.919637,-2.438654 2.4976009,1.4510147 74.612165 0 1 1.052542,-2.438653 2.4976009,1.4510147 74.612165 0 1 1.919636,2.438653 z m -7.242181,-2.81118 a 2.4976009,1.4510147 74.612165 0 1 -1.052542,2.438655 2.4976009,1.4510147 74.612165 0 1 -1.9196357,-2.438654 2.4976009,1.4510147 74.612165 0 1 1.0525413,-2.438655 2.4976009,1.4510147 74.612165 0 1 1.9196364,2.438654 z m 3.296996,-5.802861 a 2.4976009,1.4510147 74.612165 0 1 -1.052542,2.438654 2.4976009,1.4510147 74.612165 0 1 -1.919636,-2.438654 2.4976009,1.4510147 74.612165 0 1 1.052541,-2.438654 2.4976009,1.4510147 74.612165 0 1 1.919637,2.438654 z m 16.81583,-2.554396 a 2.661884,2.3069789 42.895154 0 1 -2.123534,2.477735 2.661884,2.3069789 42.895154 0 1 -2.833343,-2.477734 2.661884,2.3069789 42.895154 0 1 2.123534,-2.477734 2.661884,2.3069789 42.895154 0 1 2.833343,2.477733 z m 8.981283,12.66374 -3.66672,6.470089 c -1.31998,2.329162 -2.911382,3.371924 -4.846268,3.73378 L 19.52277,42.111498 m 0,0 -1.94804,0.357475 m 1.94804,-0.357475 -1.94804,0.357475 m -5.219408,-2.687219 c 1.239177,2.730528 3.178538,3.018507 4.83953,0.08761 l 3.66672,-6.470088 c 1.457892,-2.778158 1.369929,-5.041077 0.68077,-7.103617 L 15.718729,13.463321 C 14.447146,10.661385 14.446083,8.6032518 18.010431,7.9300481 m 5.532644,22.9379829 c -0.98251,0.472942 -1.936557,1.216759 -2.681503,2.531248 m 5.533782,-3.437235 c -3.05005,0.576067 -3.735554,-1.204061 -4.853012,-3.666382 m 4.853012,3.666384 9.706022,-1.833191 c 6.199178,-1.170848 7.14064,-2.804186 5.216986,-7.042962 L 35.49475,8.2535526 C 33.996372,4.9518758 32.221308,5.2460183 27.716453,6.0968565 L 18.010431,7.9300481 M 12.678456,10.84446 c -0.660643,0.81138 -1.250434,1.839149 -2.028427,3.211953 l -3.6667191,6.470088 c -0.9858448,1.739568 -1.8764014,3.283358 -0.4516001,6.422911 l 5.8236122,12.832342" /></svg>
