<?xml version="1.0" encoding="UTF-8"?>
<svg width="48" height="48" version="1.1" viewBox="0 0 48 48" xml:space="preserve" xmlns="http://www.w3.org/2000/svg"><path d="m12.074 39.64h2.5951v3.8597l-1.2976-1.6347-1.2976 1.6347zm8.8741-26.971v16.914h9.0258m-17.39-22.634h25.755v28.355h-25.755v-28.355m27.856 35.894h-0.54716m-29.576-1.5136c-0.48584-0.31183-0.88009-0.7399-1.1101-1.3323 0.22977-0.59172 0.62337-1.0195 1.1084-1.3312m0 0c0.08533-0.05484 0.17349-0.10609 0.26409-0.154m0 0c1.1853-0.62692 2.7876-0.68392 3.9248-0.75532h25.389m0.54716 0h-0.54716v5.0865h-23.465m-6.1142-0.25267c-1.6193-0.49305-2.7514-1.6552-2.7514-3.0168v-31.804c0-1.8113 2.0033-3.2695 4.4917-3.2695h28.386v33.257" fill="none" stroke="#fff" stroke-linecap="round" stroke-linejoin="round"/></svg>
