<?xml version="1.0" encoding="UTF-8"?>
<svg width="48" height="48" version="1.1" viewBox="0 0 48 48" xml:space="preserve" xmlns="http://www.w3.org/2000/svg"><defs><style>.a{fill:none;stroke:#fff;stroke-linecap:round;stroke-linejoin:round;}</style></defs><path d="m31.997 17.567c-0.40654 0-0.73611 0.31992-0.73611 0.71457s0.32957 0.71457 0.73611 0.71457c0.40654 0 0.73611-0.31992 0.73611-0.71457s-0.32957-0.71457-0.73611-0.71457m-6.0873-4.823v-1.1279m-2.8436 6.6806c0 0.38632-0.32261 0.69951-0.72058 0.69951-0.39796 0-0.72058-0.31319-0.72058-0.69951 0-0.38632 0.32291-0.6846 0.72058-0.6995 0.51662-0.01935 1.8563 0.34696 3.5642 1.399v-5.2877m-2.8436 4.5882v-3.8101c0-0.42973-0.35886-0.7781-0.80154-0.7781s-0.80154 0.34836-0.80154 0.7781c0 0.42973 0.35886 0.77809 0.80154 0.77809s0.80154-0.34836 0.80154-0.77809m-4.6259 3.7315c0 0.42973 0.35886 0.77809 0.80154 0.77809 0.44268 0 0.80154-0.34836 0.80154-0.77809 0-0.42972-0.35886-0.77809-0.80154-0.77809-0.44268 0-0.80155 0.34836-0.80154 0.77809v-4.5097m-2.8667 4.5097c0 0.42973 0.35886 0.77809 0.80154 0.77809s0.80154-0.34836 0.80154-0.77809c0-0.42972-0.35886-0.77809-0.80154-0.77809s-0.80154 0.34836-0.80154 0.77809v-4.5097m13.506 0.77825c0 0.42973-0.35886 0.77809-0.80154 0.77809s-0.80154-0.34836-0.80154-0.77809c0-0.42973 0.35886-0.7781 0.80154-0.7781s0.80155 0.34836 0.80154 0.7781v4.5096c1.0379-0.84104 1.7813-1.206 2.9173-1.4291v-3.8585m2.2276 10.169-10.131 7.7685-10.131-7.7685c-0.51941-0.39822-0.82388-1.0155-0.8237-1.67v-15.024c0-0.92961 0.75359-1.6832 1.6832-1.6832h18.542c0.92961 0 1.6832 0.75359 1.6832 1.6832v15.025c2.2e-5 0.65432-0.30443 1.2714-0.8237 1.6695zm0.3125-0.081h2.5247c0.23312 0 0.4208 0.18768 0.4208 0.4208v2.5247c0 0.23312-0.18768 0.4208-0.4208 0.4208h-2.5247c-0.23312 0-0.4208-0.18768-0.4208-0.4208v-2.5247c0-0.23312 0.18768-0.4208 0.4208-0.4208zm-2.9072 2.0708v0.8747c0 0.2324-0.1884 0.4208-0.4208 0.4208h-1.2687m-11.693 0h-1.2687c-0.2324 0-0.4208-0.1884-0.4208-0.4208v-0.8747m-5.4319-2.0708h2.5247c0.23312 0 0.4208 0.18768 0.4208 0.4208v2.5247c0 0.23312-0.18768 0.4208-0.4208 0.4208h-2.5247c-0.23312 0-0.4208-0.18768-0.4208-0.4208v-2.5247c0-0.23312 0.18768-0.4208 0.4208-0.4208zm23.411 5.9835h2.5247c0.23312 0 0.4208 0.18768 0.4208 0.4208v2.5247c0 0.23312-0.18768 0.4208-0.4208 0.4208h-2.5247c-0.23312 0-0.4208-0.18768-0.4208-0.4208v-2.5247c0-0.23312 0.18768-0.4208 0.4208-0.4208zm-5.8527 0h2.5247c0.23312 0 0.4208 0.18768 0.4208 0.4208v2.5247c0 0.23312-0.18768 0.4208-0.4208 0.4208h-2.5247c-0.23312 0-0.4208-0.18768-0.4208-0.4208v-2.5247c0-0.23312 0.18768-0.4208 0.4208-0.4208zm-2.9072 0.5753v2.37c0 0.2324-0.1884 0.4208-0.4208 0.4208h-2.5243c-0.23238 0-0.42076-0.18842-0.4207-0.4208v-2.37m-5.4325-0.5753h2.5247c0.23312 0 0.4208 0.18768 0.4208 0.4208v2.5247c0 0.23312-0.18768 0.4208-0.4208 0.4208h-2.5247c-0.23312 0-0.4208-0.18768-0.4208-0.4208v-2.5247c0-0.23312 0.18768-0.4208 0.4208-0.4208zm-5.8527 0h2.5247c0.23312 0 0.4208 0.18768 0.4208 0.4208v2.5247c0 0.23312-0.18768 0.4208-0.4208 0.4208h-2.5247c-0.23312 0-0.4208-0.18768-0.4208-0.4208v-2.5247c0-0.23312 0.18768-0.4208 0.4208-0.4208zm3.3663 5.9834h19.203c0.23312 0 0.4208 0.18768 0.4208 0.4208v2.4854c0 0.23312-0.18768 0.4208-0.4208 0.4208h-19.203c-0.23312 0-0.4208-0.18768-0.4208-0.4208v-2.4854c0-0.23312 0.18768-0.4208 0.4208-0.4208zm-1.3528-17.19h-5.5276c-1.1476 0-2.0778 0.93025-2.0779 2.0778v19.771c5.52e-5 1.1476 0.93035 2.0778 2.0779 2.0778h32.72c1.1476 0 2.0778-0.93025 2.0779-2.0778v-19.771c-5.5e-5 -1.1476-0.93035-2.0778-2.0779-2.0778h-5.284" fill="none" stroke="#fff" stroke-linecap="round" stroke-linejoin="round"/></svg>
