<?xml version="1.0" encoding="UTF-8"?>
<svg width="48" height="48" version="1.1" viewBox="0 0 48 48" xml:space="preserve" xmlns="http://www.w3.org/2000/svg"><defs><style>.a{fill:none;stroke:#fff;stroke-linecap:round;stroke-linejoin:round;}</style><style>
      .cls-1 {
        fill: none;
        stroke: #fff;
        stroke-linecap: round;
        stroke-linejoin: round;
      }
    </style></defs><path class="cls-1" d="m9.5 5.5h29c2.216 0 4 1.784 4 4v29c0 2.216-1.784 4-4 4h-29c-2.216 0-4-1.784-4-4v-29c0-2.216 1.784-4 4-4zm25.13 29.29c-0.55096 0-0.99761 0.44187-0.99761 0.98694s0.44665 0.98694 0.99761 0.98694 0.99761-0.44187 0.99761-0.98694-0.44665-0.98694-0.99761-0.98694m-8.3129-6.6614v-1.5578m-3.8538 9.227c0 0.53357-0.43722 0.96614-0.97656 0.96614s-0.97656-0.43257-0.97656-0.96614c0-0.53357 0.43762-0.94554 0.97656-0.96612 0.70015-0.02673 2.5157 0.47921 4.8303 1.9323v-7.3032m-3.8538 6.337v-5.2624c1e-6 -0.59353-0.48635-1.0747-1.0863-1.0747-0.59994 0-1.0863 0.48115-1.0863 1.0747 0 0.59352 0.48635 1.0747 1.0863 1.0747 0.59994 0 1.0863-0.48114 1.0863-1.0747m3.8538-19.578v-1.5578m-3.8538 9.227c0 0.53357-0.43722 0.96614-0.97656 0.96614s-0.97656-0.43257-0.97656-0.96614c0-0.53357 0.43762-0.94554 0.97656-0.96612 0.70015-0.02673 2.5157 0.47921 4.8303 1.9323v-7.3032m-3.8538 6.337v-5.2624c1e-6 -0.59353-0.48635-1.0747-1.0863-1.0747-0.59994 0-1.0863 0.48115-1.0863 1.0747 0 0.59352 0.48635 1.0747 1.0863 1.0747 0.59994 0 1.0863-0.48114 1.0863-1.0747m-6.2061 22.325c0 0.59352 0.48635 1.0747 1.0863 1.0747 0.59994 0 1.0863-0.48114 1.0863-1.0747 0-0.59352-0.48635-1.0747-1.0863-1.0747-0.59994 0-1.0863 0.48115-1.0863 1.0747v-6.2287m-3.8851 6.2287c0 0.59352 0.48635 1.0747 1.0863 1.0747s1.0863-0.48114 1.0863-1.0747c0-0.59352-0.48635-1.0747-1.0863-1.0747s-1.0863 0.48115-1.0863 1.0747v-6.2287m18.304 1.0749c0 0.59352-0.48635 1.0747-1.0863 1.0747-0.59994 0-1.0863-0.48114-1.0863-1.0747 0-0.59353 0.48635-1.0747 1.0863-1.0747 0.59994 0 1.0863 0.48115 1.0863 1.0747v6.2285c1.4065-1.1616 2.414-1.6657 3.9536-1.9739v-5.3293m0-11.841c-0.55096 0-0.99761 0.44187-0.99761 0.98694s0.44665 0.98694 0.99761 0.98694 0.99761-0.44187 0.99761-0.98694-0.44665-0.98694-0.99761-0.98694m-18.373 0.89918c0 0.59352 0.48635 1.0747 1.0863 1.0747 0.59994 0 1.0863-0.48114 1.0863-1.0747 0-0.59352-0.48635-1.0747-1.0863-1.0747-0.59994 0-1.0863 0.48115-1.0863 1.0747v-6.2287m-3.8851 6.2287c0 0.59352 0.48635 1.0747 1.0863 1.0747s1.0863-0.48114 1.0863-1.0747c0-0.59352-0.48635-1.0747-1.0863-1.0747s-1.0863 0.48115-1.0863 1.0747v-6.2287m18.304 1.0749c0 0.59352-0.48635 1.0747-1.0863 1.0747-0.59994 0-1.0863-0.48114-1.0863-1.0747 0-0.59353 0.48635-1.0747 1.0863-1.0747 0.59994 0 1.0863 0.48115 1.0863 1.0747v6.2285c1.4065-1.1616 2.414-1.6657 3.9536-1.9739v-5.3293" fill="none" stroke="#fff" stroke-linecap="round" stroke-linejoin="round"/></svg>
