<?xml version="1.0" encoding="UTF-8" standalone="no"?>
<!-- Created with Inkscape (http://www.inkscape.org/) -->

<svg
   width="48"
   height="48"
   viewBox="0 0 48 48"
   version="1.1"
   id="svg1"
   xml:space="preserve"
   inkscape:version="1.3.2 (091e20e, 2023-11-25, custom)"
   sodipodi:docname="manman.svg"
   xmlns:inkscape="http://www.inkscape.org/namespaces/inkscape"
   xmlns:sodipodi="http://sodipodi.sourceforge.net/DTD/sodipodi-0.dtd"
   xmlns="http://www.w3.org/2000/svg"
   xmlns:svg="http://www.w3.org/2000/svg"><sodipodi:namedview
     id="namedview1"
     pagecolor="#505050"
     bordercolor="#eeeeee"
     borderopacity="1"
     inkscape:showpageshadow="0"
     inkscape:pageopacity="0"
     inkscape:pagecheckerboard="0"
     inkscape:deskcolor="#505050"
     inkscape:document-units="px"
     inkscape:zoom="12.683728"
     inkscape:cx="36.818828"
     inkscape:cy="23.691773"
     inkscape:window-width="1920"
     inkscape:window-height="1057"
     inkscape:window-x="-8"
     inkscape:window-y="-8"
     inkscape:window-maximized="1"
     inkscape:current-layer="svg1" /><defs
     id="defs1"><style
       id="style1">.a{fill:none;stroke:#fff;stroke-linecap:round;stroke-linejoin:round;}</style></defs><path
     id="path4"
     style="display:inline;fill:none;stroke:#ffffff;stroke-width:0.999999;stroke-linecap:round;stroke-linejoin:round;stroke-opacity:1"
     d="m 31.997001,17.567416 c -0.406543,0 -0.736112,0.319924 -0.736112,0.71457 0,0.394646 0.329569,0.71457 0.736112,0.71457 0.406544,0 0.736113,-0.319924 0.736113,-0.71457 0,-0.394646 -0.329569,-0.71457 -0.736113,-0.71457 m -6.087312,-4.823038 v -1.127912 m -2.843589,6.68058 c 0,0.386317 -0.322613,0.69951 -0.720577,0.69951 -0.397963,0 -0.720577,-0.313193 -0.720577,-0.69951 0,-0.38632 0.32291,-0.684599 0.720577,-0.699495 0.516622,-0.01935 1.856263,0.346964 3.564166,1.399005 V 13.708868 M 23.0661,18.297046 v -3.810083 c 0,-0.42973 -0.358864,-0.778095 -0.801545,-0.778095 -0.442681,0 -0.801545,0.348365 -0.801545,0.778095 0,0.429726 0.358864,0.778087 0.801545,0.778087 0.442681,0 0.801545,-0.348361 0.801545,-0.778087 m -4.625853,3.731484 c 0,0.429726 0.358863,0.778087 0.801545,0.778087 0.442681,0 0.801545,-0.348361 0.801545,-0.778087 0,-0.429725 -0.358864,-0.778087 -0.801545,-0.778087 -0.442682,0 -0.801546,0.348362 -0.801545,0.778087 v -4.509732 m -2.866741,4.509732 c 0,0.429726 0.358864,0.778087 0.801545,0.778087 0.442681,0 0.801545,-0.348361 0.801545,-0.778087 0,-0.429725 -0.358864,-0.778087 -0.801545,-0.778087 -0.442681,0 -0.801545,0.348362 -0.801545,0.778087 v -4.509732 m 13.506225,0.778248 c 0,0.429726 -0.358864,0.778087 -0.801545,0.778087 -0.442681,0 -0.801545,-0.348361 -0.801545,-0.778087 0,-0.42973 0.358864,-0.778095 0.801545,-0.778095 0.442681,0 0.801546,0.348365 0.801545,0.778095 v 4.509593 c 1.037856,-0.841038 1.781266,-1.206038 2.91727,-1.42914 v -3.858548 m 2.227624,10.168632 -10.1306,7.7685 -10.1306,-7.7685 c -0.51941,-0.398216 -0.823878,-1.015505 -0.8237,-1.67 V 7.1832 c 0,-0.9296057 0.753594,-1.6832 1.6832,-1.6832 h 18.5422 c 0.929606,0 1.6832,0.7535943 1.6832,1.6832 V 22.208 c 2.2e-5,0.654319 -0.304429,1.271391 -0.8237,1.6695 z m 0.3125,-0.081 h 2.5247 c 0.233124,0 0.4208,0.187677 0.4208,0.4208 v 2.5247 c 0,0.233124 -0.187676,0.4208 -0.4208,0.4208 h -2.5247 c -0.233123,0 -0.4208,-0.187676 -0.4208,-0.4208 v -2.5247 c 0,-0.233123 0.187677,-0.4208 0.4208,-0.4208 z m -2.9072,2.070801 v 0.8747 c 0,0.232401 -0.188399,0.4208 -0.4208,0.4208 h -1.2687 m -11.6928,0 h -1.2687 c -0.232401,0 -0.4208,-0.188399 -0.4208,-0.4208 v -0.8747 m -5.4319,-2.070801 h 2.5247 c 0.233124,0 0.4208,0.187677 0.4208,0.4208 v 2.5247 c 0,0.233124 -0.187676,0.4208 -0.4208,0.4208 h -2.5247 c -0.233123,0 -0.4208,-0.187676 -0.4208,-0.4208 v -2.5247 c 0,-0.233123 0.187677,-0.4208 0.4208,-0.4208 z m 23.4109,5.983502 h 2.5247 c 0.233124,0 0.4208,0.187676 0.4208,0.4208 v 2.5247 c 0,0.233123 -0.187676,0.4208 -0.4208,0.4208 h -2.5247 c -0.233123,0 -0.4208,-0.187677 -0.4208,-0.4208 v -2.5247 c 0,-0.233124 0.187677,-0.4208 0.4208,-0.4208 z m -5.852699,0 h 2.5247 c 0.233123,0 0.4208,0.187676 0.4208,0.4208 v 2.5247 c 0,0.233123 -0.187677,0.4208 -0.4208,0.4208 h -2.5247 c -0.233123,0 -0.4208,-0.187677 -0.4208,-0.4208 v -2.5247 c 0,-0.233124 0.187677,-0.4208 0.4208,-0.4208 z M 25.777225,30.3553 v 2.37 c 0,0.232401 -0.188399,0.4208 -0.4208,0.4208 h -2.5243 c -0.232385,0 -0.420755,-0.188415 -0.4207,-0.4208 v -2.37 m -5.432499,-0.575299 h 2.524701 c 0.233123,0 0.4208,0.187676 0.4208,0.4208 v 2.5247 c 0,0.233123 -0.187677,0.4208 -0.4208,0.4208 h -2.524701 c -0.233123,0 -0.4208,-0.187677 -0.4208,-0.4208 v -2.5247 c 0,-0.233124 0.187677,-0.4208 0.4208,-0.4208 z m -5.852701,0 h 2.5247 c 0.233124,0 0.4208,0.187676 0.4208,0.4208 v 2.5247 c 0,0.233123 -0.187676,0.4208 -0.4208,0.4208 h -2.5247 c -0.233123,0 -0.4208,-0.187677 -0.4208,-0.4208 v -2.5247 c 0,-0.233124 0.187677,-0.4208 0.4208,-0.4208 z m 3.3663,5.9834 h 19.2029 c 0.233123,0 0.4208,0.187677 0.4208,0.4208 v 2.4854 c 0,0.233123 -0.187677,0.4208 -0.4208,0.4208 h -19.2029 c -0.233123,0 -0.4208,-0.187677 -0.4208,-0.4208 v -2.4854 c 0,-0.233123 0.187677,-0.4208 0.4208,-0.4208 z M 13.139725,18.573 H 7.6121254 c -1.1475534,0 -2.0778448,0.930247 -2.0779,2.0778 v 19.7714 c 5.52e-5,1.147553 0.9303466,2.0778 2.0779,2.0778 H 40.332125 c 1.147553,0 2.077845,-0.930247 2.0779,-2.0778 V 20.6508 c -5.5e-5,-1.147553 -0.930347,-2.0778 -2.0779,-2.0778 h -5.284" /></svg>
