<?xml version="1.0" encoding="UTF-8" standalone="no"?>
<!-- Created with Inkscape (http://www.inkscape.org/) -->

<svg
   width="48"
   height="48"
   viewBox="0 0 48 48"
   version="1.1"
   id="svg1"
   xml:space="preserve"
   inkscape:version="1.3.2 (091e20e, 2023-11-25, custom)"
   sodipodi:docname="manman_alt.svg"
   xmlns:inkscape="http://www.inkscape.org/namespaces/inkscape"
   xmlns:sodipodi="http://sodipodi.sourceforge.net/DTD/sodipodi-0.dtd"
   xmlns="http://www.w3.org/2000/svg"
   xmlns:svg="http://www.w3.org/2000/svg"><sodipodi:namedview
     id="namedview1"
     pagecolor="#505050"
     bordercolor="#eeeeee"
     borderopacity="1"
     inkscape:showpageshadow="0"
     inkscape:pageopacity="0"
     inkscape:pagecheckerboard="0"
     inkscape:deskcolor="#505050"
     inkscape:document-units="px"
     inkscape:zoom="17.9375"
     inkscape:cx="33.170732"
     inkscape:cy="20.264808"
     inkscape:window-width="1920"
     inkscape:window-height="1057"
     inkscape:window-x="-8"
     inkscape:window-y="-8"
     inkscape:window-maximized="1"
     inkscape:current-layer="svg1" /><defs
     id="defs1"><style
       id="style1">.a{fill:none;stroke:#fff;stroke-linecap:round;stroke-linejoin:round;}</style><style
       id="style1-1">
      .cls-1 {
        fill: none;
        stroke: #fff;
        stroke-linecap: round;
        stroke-linejoin: round;
      }
    </style></defs><path
     id="rect1"
     style="display:inline;fill:none;stroke:#ffffff;stroke-linecap:round;stroke-linejoin:round"
     class="cls-1"
     d="m 9.5,5.5 h 29 c 2.216,0 4,1.784 4,4 v 29 c 0,2.216 -1.784,4 -4,4 h -29 c -2.216,0 -4,-1.784 -4,-4 v -29 c 0,-2.216 1.784,-4 4,-4 z m 25.130105,29.29041 c -0.550965,0 -0.997611,0.441868 -0.997611,0.986939 0,0.545071 0.446646,0.986939 0.997611,0.986939 0.550965,0 0.997611,-0.441868 0.997611,-0.986939 0,-0.545071 -0.446646,-0.986939 -0.997611,-0.986939 m -8.312862,-6.661409 v -1.557833 m -3.853754,9.226981 c 0,0.533567 -0.437219,0.966139 -0.976556,0.966139 -0.539337,0 -0.976556,-0.432572 -0.976556,-0.966139 0,-0.533572 0.43762,-0.945543 0.976556,-0.966117 0.700148,-0.02673 2.515686,0.479214 4.83031,1.932256 v -7.303167 m -3.853754,6.337028 v -5.262352 c 1e-6,-0.593527 -0.486347,-1.074676 -1.086287,-1.074676 -0.599941,0 -1.086289,0.481149 -1.086289,1.074676 0,0.593522 0.486348,1.074666 1.086289,1.074666 0.59994,0 1.086287,-0.481144 1.086287,-1.074666 M 26.317243,10.958272 V 9.4004394 M 22.463489,18.62742 c 0,0.533567 -0.437219,0.966139 -0.976556,0.966139 -0.539337,0 -0.976556,-0.432572 -0.976556,-0.966139 0,-0.533572 0.43762,-0.945543 0.976556,-0.966117 0.700148,-0.02673 2.515686,0.479214 4.83031,1.932256 v -7.303167 m -3.853754,6.337028 v -5.262352 c 1e-6,-0.593527 -0.486347,-1.074676 -1.086287,-1.074676 -0.599941,0 -1.086289,0.481149 -1.086289,1.074676 0,0.593522 0.486348,1.074666 1.086289,1.074666 0.59994,0 1.086287,-0.481144 1.086287,-1.074666 m -6.206076,22.324524 c 0,0.593521 0.486348,1.074666 1.086289,1.074666 0.59994,0 1.086288,-0.481145 1.086288,-1.074666 0,-0.593522 -0.486348,-1.074668 -1.086288,-1.074668 -0.599941,0 -1.086289,0.481146 -1.086289,1.074668 v -6.228683 m -3.885128,6.228683 c 0,0.593521 0.486347,1.074666 1.086287,1.074666 0.59994,0 1.086288,-0.481145 1.086288,-1.074666 0,-0.593522 -0.486348,-1.074668 -1.086288,-1.074668 -0.59994,0 -1.086288,0.481146 -1.086287,1.074668 v -6.228683 m 18.304211,1.074888 c 0,0.593522 -0.486348,1.074666 -1.086288,1.074666 -0.599939,0 -1.086288,-0.481144 -1.086288,-1.074666 0,-0.593527 0.486349,-1.074676 1.086288,-1.074676 0.59994,0 1.086289,0.481149 1.086288,1.074676 v 6.228491 c 1.406546,-1.161612 2.414049,-1.665737 3.953609,-1.973878 v -5.329289 m 0,-11.84144 c -0.550965,0 -0.997611,0.441868 -0.997611,0.986939 0,0.545071 0.446646,0.986939 0.997611,0.986939 0.550965,0 0.997611,-0.441868 0.997611,-0.986939 0,-0.545071 -0.446646,-0.986939 -0.997611,-0.986939 m -18.372692,0.899182 c 0,0.593521 0.486348,1.074666 1.086289,1.074666 0.59994,0 1.086288,-0.481145 1.086288,-1.074666 0,-0.593522 -0.486348,-1.074668 -1.086288,-1.074668 -0.599941,0 -1.086289,0.481146 -1.086289,1.074668 V 12.29018 m -3.885128,6.228683 c 0,0.593521 0.486347,1.074666 1.086287,1.074666 0.59994,0 1.086288,-0.481145 1.086288,-1.074666 0,-0.593522 -0.486348,-1.074668 -1.086288,-1.074668 -0.59994,0 -1.086288,0.481146 -1.086287,1.074668 V 12.29018 m 18.304211,1.074888 c 0,0.593522 -0.486348,1.074666 -1.086288,1.074666 -0.599939,0 -1.086288,-0.481144 -1.086288,-1.074666 0,-0.593527 0.486349,-1.074676 1.086288,-1.074676 0.59994,0 1.086289,0.481149 1.086288,1.074676 v 6.228491 c 1.406546,-1.161612 2.414049,-1.665737 3.953609,-1.973878 v -5.329289" /></svg>
