<?xml version="1.0" encoding="UTF-8" standalone="no"?>
<!-- Created with Inkscape (http://www.inkscape.org/) -->

<svg
   width="48"
   height="48"
   viewBox="0 0 48 48"
   version="1.1"
   id="svg1"
   xml:space="preserve"
   inkscape:version="1.3.2 (091e20e, 2023-11-25, custom)"
   sodipodi:docname="meb.svg"
   xmlns:inkscape="http://www.inkscape.org/namespaces/inkscape"
   xmlns:sodipodi="http://sodipodi.sourceforge.net/DTD/sodipodi-0.dtd"
   xmlns="http://www.w3.org/2000/svg"
   xmlns:svg="http://www.w3.org/2000/svg"><sodipodi:namedview
     id="namedview1"
     pagecolor="#505050"
     bordercolor="#eeeeee"
     borderopacity="1"
     inkscape:showpageshadow="0"
     inkscape:pageopacity="0"
     inkscape:pagecheckerboard="0"
     inkscape:deskcolor="#505050"
     inkscape:document-units="px"
     inkscape:zoom="6.3418639"
     inkscape:cx="-19.394929"
     inkscape:cy="20.892911"
     inkscape:window-width="1920"
     inkscape:window-height="1057"
     inkscape:window-x="-8"
     inkscape:window-y="-8"
     inkscape:window-maximized="1"
     inkscape:current-layer="svg1" /><defs
     id="defs1" /><path
     id="path4-9-8"
     style="fill:none;stroke:#ffffff;stroke-width:0.999996;stroke-linecap:round;stroke-linejoin:round;stroke-opacity:1;-inkscape-stroke:none"
     d="m 23.720794,41.611665 c -1.055401,-0.265963 -2.168249,-0.426739 -3.561901,-0.07336 m 4.562465,-1.679228 c -1.908886,-0.520046 -3.892384,-0.822408 -6.240583,-0.06073 m 7.240527,-2.953651 c -5.235624,-0.520665 -9.554809,0.174932 -11.816083,0.841825 -1.546486,0.456088 -2.193504,-1.149989 -2.664875,-2.288842 L 5.9619487,22.644868 C 5.4968009,21.521057 6.1632211,20.558942 6.5870778,20.227878 6.8749057,20.003063 7.1745431,19.831039 7.4835489,19.700535 M 22.295525,17.173788 C 18.240815,14.582883 12.976504,13.634755 9.6673765,14.597153 7.5781583,15.204762 7.9324977,16.704791 8.6434299,18.458488 l 5.2445191,12.936916 c 0.937583,2.312782 1.177189,2.481126 3.420668,2.4822 4.772262,0.0022 6.506764,0.80819 11.847195,2.414721 L 22.295525,17.173788 c 1.48234,-4.577882 4.942767,-8.6568916 8.108787,-10.0181076 1.998868,-0.8594038 2.679075,0.5236856 3.245328,2.3293015 l 4.1772,13.3199241 c 0.746774,2.381254 0.668866,2.663539 -1.06207,4.090836 -3.682,3.036105 -4.508382,4.760989 -7.608958,9.396583 m 7.576983,0.64997 c 0.64551,-0.876337 1.402238,-1.708013 2.702596,-2.321385 m -4.589156,1.604844 c 1.142727,-1.61512 2.481442,-3.109662 4.778158,-4.014817 m -7.466474,2.323971 c 3.710063,-3.730833 7.48606,-5.940205 9.655424,-6.863248 1.483624,-0.63127 0.961896,-2.282306 0.60165,-3.461039 L 38.380991,11.011259 C 38.025506,9.848095 36.899429,9.5292201 36.36179,9.54319 35.996695,9.55268 35.656052,9.610421 35.334573,9.7061642"
     sodipodi:nodetypes="cccccsscsccscssccscssccccccsscsc" /></svg>
