<?xml version="1.0" encoding="UTF-8"?>
<svg width="48" height="48" version="1.1" viewBox="0 0 48 48" xml:space="preserve" xmlns="http://www.w3.org/2000/svg"><path d="m23.721 41.612c-1.0554-0.26596-2.1682-0.42674-3.5619-0.07336m4.5625-1.6792c-1.9089-0.52005-3.8924-0.82241-6.2406-0.06073m7.2405-2.9537c-5.2356-0.52066-9.5548 0.17493-11.816 0.84182-1.5465 0.45609-2.1935-1.15-2.6649-2.2888l-5.2784-12.753c-0.46515-1.1238 0.20127-2.0859 0.62513-2.417 0.28783-0.22482 0.58747-0.39684 0.89647-0.52734m14.812-2.5267c-4.0547-2.5909-9.319-3.539-12.628-2.5766-2.0892 0.60761-1.7349 2.1076-1.0239 3.8613l5.2445 12.937c0.93758 2.3128 1.1772 2.4811 3.4207 2.4822 4.7723 0.0022 6.5068 0.80819 11.847 2.4147l-6.8603-19.119c1.4823-4.5779 4.9428-8.6569 8.1088-10.018 1.9989-0.8594 2.6791 0.52369 3.2453 2.3293l4.1772 13.32c0.74677 2.3813 0.66887 2.6635-1.0621 4.0908-3.682 3.0361-4.5084 4.761-7.609 9.3966m7.577 0.64997c0.64551-0.87634 1.4022-1.708 2.7026-2.3214m-4.5892 1.6048c1.1427-1.6151 2.4814-3.1097 4.7782-4.0148m-7.4665 2.324c3.7101-3.7308 7.4861-5.9402 9.6554-6.8632 1.4836-0.63127 0.9619-2.2823 0.60165-3.461l-4.034-13.199c-0.35548-1.1632-1.4816-1.482-2.0192-1.4681-0.3651 0.00949-0.70574 0.067231-1.0272 0.16297" fill="none" stroke="#fff" stroke-linecap="round" stroke-linejoin="round" style="-inkscape-stroke:none"/></svg>
