<?xml version="1.0" encoding="UTF-8"?>
<svg width="48" height="48" version="1.1" viewBox="0 0 48 48" xml:space="preserve" xmlns="http://www.w3.org/2000/svg"><path d="m19.401 9.75h-9.651v4.75m14.25 23.75h9.561m-14.16 0h4.599v-19m9.561-4.75v-4.75h-9.561v9.5h-4.599v-4.75m4.599-4.75h-4.599m0 4.75h-9.651v4.75h9.651v4.75m-9.651 0v14.25h9.651v-14.25h-9.651v-4.75m23.811-9.5h4.689v4.75h-4.689v23.75h4.689v-23.75m-28.75-9h29c2.216 0 4 1.784 4 4v29c0 2.216-1.784 4-4 4h-29c-2.216 0-4-1.784-4-4v-29c0-2.216 1.784-4 4-4z" fill="none" stroke="#fff" stroke-linecap="round" stroke-linejoin="round"/></svg>
