<?xml version="1.0" encoding="UTF-8"?>
<svg width="48" height="48" version="1.1" viewBox="0 0 48 48" xml:space="preserve" xmlns="http://www.w3.org/2000/svg"><path d="m19.718 21.41 0.07025 0.06002m0 0 4.2122 3.5982 4.2122-3.5982m0 0 0.07026-0.06002m-8.4947 5.2289 4.2122 3.5982 4.2122-3.5982m-18.963-5.2279v14.976h-2.1563v1.366h-1.5928v3.5917h37v-3.5917h-1.5928v-1.366h-2.1563v-14.976h-4.1448v14.976h-2.249v-14.976h-4.1448v14.976h-8.4248v-14.976h-4.1448v14.976h-2.249v-14.976zm-2.0055-4.4864h33.513v2.4788h-33.513zm31.393-2.0067v-1.1804l-14.574-7.0826-14.574 7.0826v1.1804z" fill="none" stroke="#fff" stroke-linecap="round" stroke-linejoin="round" style="-inkscape-stroke:none"/></svg>
