<?xml version="1.0" encoding="UTF-8"?>
<svg width="48" height="48" version="1.1" viewBox="0 0 48 48" xml:space="preserve" xmlns="http://www.w3.org/2000/svg"><path class="cls-1" d="m9.5 5.5h29c2.216 0 4 1.784 4 4v29c0 2.216-1.784 4-4 4h-29c-2.216 0-4-1.784-4-4v-29c0-2.216 1.784-4 4-4zm1.6361 25.506 5.5124-2.5682 2.5447 5.4625-5.5124 2.5682-2.5447-5.4625v0m-2.4801-7.0059-3.0028 4.2188m12.34-4.2175 6.0058 12.815m3.61e-4 1.0025-9.5939 4.597m-8.9049-9.612 4.5052 9.6114m-3.3067-13.112 6.1451 13.112m15.232-2.9285v-12.011h3.5265c3.787-1e-6 6.857 2.3527 6.857 5.2548v1.5014c0 2.9022-3.07 5.2548-6.857 5.2548zm9.11-18.54h-7.8366v-12.011l7.8366 6e-7m-7.8366 6.0055h5.1094m-25.007 6.0055v-12.011l10.383 12.011v-12.011m22.664 15.064h-37m18.5 18.417v-36.834m-6.2375 18.419-11.063 5.3012-1.1018 0.52874" fill="none" stroke="#fff" stroke-linecap="round" stroke-linejoin="round"/></svg>
