<?xml version="1.0" encoding="UTF-8" standalone="no"?>
<!-- Created with Inkscape (http://www.inkscape.org/) -->

<svg
   width="48"
   height="48"
   viewBox="0 0 48 48"
   version="1.1"
   id="svg1"
   xml:space="preserve"
   inkscape:version="1.3.2 (091e20e, 2023-11-25, custom)"
   sodipodi:docname="ned_comics.svg"
   xmlns:inkscape="http://www.inkscape.org/namespaces/inkscape"
   xmlns:sodipodi="http://sodipodi.sourceforge.net/DTD/sodipodi-0.dtd"
   xmlns="http://www.w3.org/2000/svg"
   xmlns:svg="http://www.w3.org/2000/svg"><sodipodi:namedview
     id="namedview1"
     pagecolor="#505050"
     bordercolor="#eeeeee"
     borderopacity="1"
     inkscape:showpageshadow="0"
     inkscape:pageopacity="0"
     inkscape:pagecheckerboard="0"
     inkscape:deskcolor="#505050"
     inkscape:document-units="px"
     inkscape:zoom="6.3418639"
     inkscape:cx="-7.5687527"
     inkscape:cy="44.229899"
     inkscape:window-width="1920"
     inkscape:window-height="1057"
     inkscape:window-x="-8"
     inkscape:window-y="-8"
     inkscape:window-maximized="1"
     inkscape:current-layer="svg1" /><defs
     id="defs1" /><path
     id="rect1"
     style="fill:none;stroke:#ffffff;stroke-linecap:round;stroke-linejoin:round"
     class="cls-1"
     d="m 9.5,5.5 h 29 c 2.216,0 4,1.784 4,4 v 29 c 0,2.216 -1.784,4 -4,4 h -29 c -2.216,0 -4,-1.784 -4,-4 v -29 c 0,-2.216 1.784,-4 4,-4 z m 1.636119,25.505638 5.51235,-2.568182 2.544714,5.462499 -5.512351,2.568182 -2.544712,-5.462499 v 0 M 8.6560538,23.999724 5.6532945,28.218548 m 12.3402165,-4.217513 6.005791,12.81547 m 3.61e-4,1.002507 -9.593873,4.59702 M 5.5008458,32.80407 10.006032,42.415424 M 6.6993058,29.303675 12.844368,42.415796 M 28.07683,39.487333 V 27.476308 h 3.526452 c 3.787019,-1e-6 6.85699,2.352662 6.856991,5.254822 v 1.501379 c 0,2.902165 -3.069973,5.254825 -6.85699,5.254824 z M 37.186832,20.947237 H 29.35027 V 8.9362107 l 7.836561,6e-7 m -7.83656,6.0055137 h 5.109438 M 9.4529339,20.947188 V 8.9361608 L 19.836375,20.947187 V 8.9361619 M 42.5,23.999999 H 5.4999998 M 24,42.416908 V 5.5830926 M 17.762454,24.001635 6.6995638,29.302791 5.5977234,29.831529" /></svg>
