<?xml version="1.0" encoding="UTF-8"?>
<svg width="48" height="48" version="1.1" viewBox="0 0 48 48" xml:space="preserve" xmlns="http://www.w3.org/2000/svg"><path d="m16.836 14.137 0.81074-0.05316m-0.61138 1.2492c-1.019 1.936-2.7556 1.3627-3.0569 1.0631m2.0468-2.206 0.81074-0.05316 0.19936 1.196c1.3343 1.2757 2.9566 0.35663 3.2695-0.05316m1.5085-2.7176a0.8639 0.86378 0 0 1-0.8639 0.86378 0.8639 0.86378 0 0 1-0.8639-0.86378 0.8639 0.86378 0 0 1 0.8639-0.86378 0.8639 0.86378 0 0 1 0.8639 0.86378zm-9.4298 1.7741a0.8639 0.86378 0 0 1-0.8639 0.86378 0.8639 0.86378 0 0 1-0.8639-0.86378 0.8639 0.86378 0 0 1 0.8639-0.86378 0.8639 0.86378 0 0 1 0.8639 0.86378zm15.614 19.168-0.86462 1.6914m-0.78943-1.09 2.0676 0.75174m2.7442-8.0436c0.25572-0.63895 0.56852-1.2247 0.91676-1.745m-5.6909 12.908c3.5092 2.0781 7.3802 3.2439 11.654 3.4956 6.2203 0.36631 7.008-4.6665 3.0074-4.6983-3.8471 1.1351-8.6175 1.0889-10.826-0.52621 4.2891-3.6747 7.6405-7.4296 7.2553-11.502-0.32807-3.4675-3.4299-2.6191-5.3987 0.32228-0.13911-1.8438-1.6501-2.4252-2.4761-1.7116-0.0714-0.92218-0.31813-1.7436-0.72344-2.3149m-13.778 13.48c0.43412-1.3401 0.28238-3.3132 1.0936-4.5414m5.5643 1.9353c0.08293 0.7326 0.0399 1.5303-0.09228 2.3137m2.8358-23.553c-0.39912-0.23242-0.8239-0.40513-1.2675-0.50039m-12.292 1.2049c2.9316-1.954 5.9954-1.8704 8.7566-1.6302m7.8947 5.3156c-1.3654-0.15293-2.6345 0.31466-3.0908 1.7286m0 0c-0.11451 0.35476-0.17785 0.7691-0.17871 1.2482-0.0015 0.84747 1.3896 2.9856 3.7214 3.0565 0.29982 0.0092 0.57775-0.01117 0.8329-0.05813m0 0c1.5512-0.28549 2.2608-1.5574 1.9316-3.211-0.30991-1.5568-1.7406-2.5988-3.2164-2.7641-0.36974-1.67-1.5358-3.4838-3.0919-4.3899 0.13802-1.4159 0.63147-2.7666-0.44346-4.1681-1.4354 0.5441-2.924 1.858-4.3594 3.2425m-4.903 11.191c-1.1252-0.66141-2.7681-0.46406-3.922 0.60945-0.81189 0.75532-1.6048 1.4721-2.3884 2.3245-5.5421-3.8398-4.5857-6.9739-1.4394-10.351m3.4556-1.8339c0.1465-0.10864 0.29338-0.2119 0.4406-0.31003-1.3273-0.99052-2.9998-2.0096-4.6671-1.8428-0.10729 1.3368-0.51816 2.7135 0.77086 3.9867m7.1545 14.329c0.27056-0.26975 0.5032-0.5628 0.68704-0.88109 1.8596-3.2197 1.2544-5.2401-0.09178-6.0313 0.34633-3.1529 5.2203-6.1678 9.7069-4.147m-14.264 13.145c0.20426-0.04005 0.41612-0.09821 0.63519-0.17613 1.258-0.4474 2.4787-1.064 3.3268-1.9096 0.51037 0.9242 1.1297 1.6959 1.9933 2.1257m0 0c0.45812-0.69357 1.2234-1.1495 2.5747-1.1197 1.9504 0.04302 2.7999 1.3786 2.9897 3.055 2.1397-0.17169 4.7107-1.5988 6.0746-3.055 1.3641-1.4564 1.9104-3.6778 1.769-5.504m-21.116 0.51959c-0.32167 0.34997-0.64175 0.72281-0.96091 1.1306-1.6701 2.1338-0.31508 5.5274 2.7141 4.9336-2.8555 5.3532 6.2263 11.589 16.148 8.0361" fill="none" stroke="#fff" stroke-linecap="round" stroke-linejoin="round"/></svg>
