<?xml version="1.0" encoding="UTF-8"?>
<svg width="48" height="48" version="1.1" viewBox="0 0 48 48" xmlns="http://www.w3.org/2000/svg"><path d="m27.904 42.051c0.73629-1.0808 0.92987-2.7097 0.87641-4.5429m-7.4145-14.098 1.4367-0.66859c0.8308 1.2661 2.9344 1.4891 4.1526-0.8256m-2.7947 0.19369-1.3579 0.63191c1.4992 1.7896-1.4981 2.7539-2.4882 2.6055m6.5877-6.3484 3.3262-2.2305m-23.184 1.5064c0.23653 0.25263 0.50202 0.50696 0.80067 0.76325m12.383 8.6686c0.21492 1.8667-0.39154 3.5778-2.5606 4.4404-1.5006 0.59674-3.0309 0.62794-4.2431 0.03303m0 0c-0.91905-0.45104-1.6553-1.262-2.057-2.4592-0.15943-0.47509-0.22615-0.94704-0.21665-1.4051m0 0c0.04047-1.9512 1.4638-3.6507 2.995-4.2689 2.0739-0.83746 4.8689-0.43533 5.674 1.9174 0.1992 0.58209 0.34248 1.1695 0.40842 1.7423m9.6483-18.451c0.03687-0.41593 0.04467-0.85302 0.02376-1.2961 5.3433 1.7267 6.0374 8.0607 2.7612 12.599m0 0c-0.67195 0.93079-1.5109 1.786-2.511 2.5105-2.9638 2.147-5.7852 3.5264-9.9222 4.6381m9.6721-19.748c-0.057106-1.2106-0.32843-2.4664-0.80639-3.4594-3.462 0.59347-4.9121 2.0697-6.6523 3.5816-4.417 0.29091-8.5752 2.1288-10.644 4.9697-2.2588-0.37839-4.6051-0.47799-6.7697 0.93915 0.24461 1.4031 0.64079 2.8151 2.0168 4.2847-1.019 3.6837-0.29622 8.5777 4.1058 10.041m10.665 9.0357c-0.01268 1.3957-0.11906 3.0326 0.30951 4.28-7.1831 1.4773-9.8776-4.4174-8.7005-9.4514m8.7005 9.4514c0.26203 0.76265 0.72402 1.3797 1.5297 1.7071 0.63144 0.2566 1.4619 0.14499 2.2305 0 0.91958-0.17347 1.5703-0.6287 2.0193-1.2877 5.315 0.10096 10.336-2.1797 11.385-6.7173m-0.0775-4.1096c-0.68826-2.9659-2.702-6.5269-6.5504-10.666m6.6279 14.776c0.27986-1.2101 0.27728-2.5808-0.0775-4.1096-0.20637-4.3995 0.16577-8.6845-1.0004-13.321-1.1355-4.5144 3.1126-7.0581 4.1088-2.2305 1.4849 7.1956 0.42116 13.963-3.0309 19.661" fill="none" stroke="#fff" stroke-linecap="round" stroke-linejoin="round"/></svg>
