<?xml version="1.0" encoding="UTF-8"?>
<svg width="48" height="48" version="1.1" viewBox="0 0 48 48" xml:space="preserve" xmlns="http://www.w3.org/2000/svg"><path d="m32.011 28.79c-0.54844-2.794-2.7285-5.3488-6.4574-6.1455m-5.6623 14.905c0.24619 0.36339 0.49238 0.73776 0.73857 1.1014-3.7282 0.40101-7.376 0.46041-10.557-1.4649-1.6057 0.87028-3.0275 1.9243-5.5584 1.8696-0.094511-2.3608 0.26652-3.3554 0.57142-4.5183-1.4715-6.1986 1.4025-10.401 6.8272-12.295m0 0c0.80429-0.28077 1.6646-0.51079 2.5752-0.68905m6.1411 17.097c0.84471 1.2475 1.6894 2.3681 2.5341 2.4821 1.9072-0.88136 2.8534-1.9607 3.6883-3.8951 2.1429-0.74114 3.6248-2.0838 4.4652-3.6694m0 0c0.78367-1.4786 1.0095-3.1684 0.69345-4.7787 1.535 0.04234 2.8258-1.1363 4.0879-2.4582m4.449-11.267c-0.72349-2.5737-2.3134-4.8899-4.6049-6.1309-6.7325-3.6461-12.912-2.3562-18.13 2.9603-3.3271 3.3898-4.6801 6.8993-5.8999 10.349m23.599 7.9247c-0.73436-0.78313-0.43436-2.5591 0.58606-3.8357m0 0c4.4386-1.9088 5.6625-6.9504 4.449-11.267 5.3174 5.0724 3.075 14.331-3.5956 15.464-0.66677 0.11326-1.1395-0.04097-1.4395-0.36093-0.68441 1.2843-2.5008 3.0721-4.1953 3.4011" fill="none" stroke="#fff" stroke-linecap="round" stroke-linejoin="round"/></svg>
