<?xml version="1.0" encoding="UTF-8"?>
<svg width="48" height="48" version="1.1" viewBox="0 0 48 48" xml:space="preserve" xmlns="http://www.w3.org/2000/svg"><path class="t" d="m20.165 20.988v-8.2512l7.669 8.2512v-8.2512m5.7539 4.1256a9.5884 9.583 0 0 1-9.5884 9.583 9.5884 9.583 0 0 1-9.5884-9.583 9.5884 9.583 0 0 1 9.5884-9.583 9.5884 9.583 0 0 1 9.5884 9.583zm2.7299-0.02895c0.075094-6.8112-5.525-12.333-12.318-12.333s-12.393 5.5223-12.318 12.333c0.07409 6.7156 5.677 14.775 12.318 26.667 6.6413-11.892 12.244-19.951 12.318-26.667z" fill="none" stroke="#fff" stroke-linecap="round" stroke-linejoin="round"/></svg>
