<?xml version="1.0" encoding="UTF-8"?>
<svg width="48" height="48" version="1.1" viewBox="0 0 48 48" xml:space="preserve" xmlns="http://www.w3.org/2000/svg"><path d="m42.482 18.689c1.362-1.3628 1.362-3.5724 0-4.9352-1.362-1.3628-3.5702-1.3628-4.9321 0l-7.6722 7.677c-1.3618 1.3629-1.3618 3.5723 0 4.9352l7.6722 7.677c1.362 1.3628 3.5702 1.3628 4.9321 0 1.362-1.3628 1.362-3.5724 0-4.9352l-5.2061-5.2093zm-36.392 13.434c-2.1239 2.1252-2.1239 5.5708 0 7.696 2.1239 2.1252 5.5674 2.1252 7.6913 0l11.964-11.972c2.1236-2.1253 2.1236-5.5707 0-7.696l-11.964-11.972c-2.1239-2.1252-5.5674-2.1252-7.6913 0-2.1239 2.1252-2.1239 5.5708 0 7.696l3.6203 3.6226c2.4838 2.4854 2.4855 6.5151 0.0017 9.0004z" color="#000000" fill="none" stroke="#fff" stroke-linecap="round" stroke-linejoin="round" style="-inkscape-stroke:none"/></svg>
