<?xml version="1.0" encoding="UTF-8" standalone="no"?>
<!-- Created with Inkscape (http://www.inkscape.org/) -->

<svg
   width="48"
   height="48"
   viewBox="0 0 48 48"
   version="1.1"
   id="svg1"
   xml:space="preserve"
   inkscape:version="1.3.2 (091e20e, 2023-11-25, custom)"
   sodipodi:docname="pointx.svg"
   xmlns:inkscape="http://www.inkscape.org/namespaces/inkscape"
   xmlns:sodipodi="http://sodipodi.sourceforge.net/DTD/sodipodi-0.dtd"
   xmlns="http://www.w3.org/2000/svg"
   xmlns:svg="http://www.w3.org/2000/svg"><sodipodi:namedview
     id="namedview1"
     pagecolor="#505050"
     bordercolor="#eeeeee"
     borderopacity="1"
     inkscape:showpageshadow="0"
     inkscape:pageopacity="0"
     inkscape:pagecheckerboard="0"
     inkscape:deskcolor="#505050"
     inkscape:document-units="px"
     inkscape:zoom="8.96875"
     inkscape:cx="4.0139373"
     inkscape:cy="22.801394"
     inkscape:window-width="1920"
     inkscape:window-height="1057"
     inkscape:window-x="-8"
     inkscape:window-y="-8"
     inkscape:window-maximized="1"
     inkscape:current-layer="svg1" /><defs
     id="defs1" /><path
     id="rect2-5"
     style="color:#000000;fill:none;fill-opacity:0.533457;stroke:#ffffff;stroke-width:0.999998;stroke-linecap:round;stroke-linejoin:round;stroke-opacity:1;-inkscape-stroke:none"
     d="m 42.481664,18.689305 c 1.361972,-1.362823 1.361972,-3.572395 0,-4.935218 -1.361977,-1.362821 -3.570174,-1.362819 -4.932149,0 l -7.672232,7.677005 c -1.361782,1.362904 -1.361782,3.572315 0,4.935218 l 7.672232,7.677005 c 1.361975,1.362821 3.570172,1.362821 4.932149,0 1.361972,-1.362823 1.361972,-3.572393 0,-4.935217 L 37.275597,23.898792 Z M 6.0897664,32.123607 c -2.1238801,2.125206 -2.1238801,5.570841 0,7.696048 2.1238845,2.125201 5.5673776,2.125201 7.6912636,0 L 25.745217,27.848024 c 2.12358,-2.125331 2.12358,-5.570718 0,-7.696049 L 13.78103,8.1803451 c -2.123886,-2.1252013 -5.5673791,-2.1252013 -7.6912634,0 -2.1238802,2.1252069 -2.1238802,5.5708419 0,7.6960479 l 3.6203013,3.622555 c 2.4838331,2.485378 2.4855021,6.515056 0.0017,9.000433 z" /></svg>
