<?xml version="1.0" encoding="UTF-8"?>
<svg width="48" height="48" version="1.1" viewBox="0 0 48 48" xml:space="preserve" xmlns="http://www.w3.org/2000/svg"><defs><style>.a{fill:none;stroke:#fff;stroke-linecap:round;stroke-linejoin:round;}</style></defs><path id="c" d="m33.932 19.186c0.9598 2.9944 1.5229 3.3006 2.764 5.3702 0.51123 0.85252 1.0574 3.082-1.0874 4.2068-2.3221 1.2178-3.465-0.39738-3.8098-0.85532-0.41824 0.87822 0.3567 2.3678-0.18583 2.4925-0.4635 0.10648-0.69559-0.69976-1.2207-0.8753-0.49743-0.16624-1.3585 0.26559-1.4625-0.154-0.16923-0.68242 1.5092-1.1779 1.4582-1.9523-0.77304 0.13058-2.6244 0.83048-3.8015-1.8139-0.46526-1.0453 0.12216-2.868 1.9259-3.6726 1.6652-0.74278 2.9151-1.077 5.4195-2.7461zm-9.5332-1.9817-1.2973-2.2747m-0.56221 0.56392 2.4029-2.4103m-2.0476-0.28445-0.54522 4.135m4.9947-0.04103 2.5692-3.5231-0.16192 4.3582m0.05364-1.4437-1.6099-0.55852m-10.006-2.7208c0.70388-0.05159 1.3155 0.52141 1.3714 1.2848l0.10278 1.4039c0.05589 0.76335-0.46578 1.4194-1.1697 1.471-0.70389 0.05159-1.3155-0.52141-1.3714-1.2848l-0.10278-1.4039c-0.05589-0.76335 0.46578-1.4194 1.1697-1.471zm1.5751 4.0665-1.3703-1.2683m-7.4375 4.0286c-0.54401 0.04683-1.0953-0.28135-1.3444-0.84922l-0.56538-1.289c-0.30742-0.70087-0.03463-1.4936 0.61164-1.7774l4e-6 1e-6c0.07375-0.03239 0.14909-0.05671 0.22514-0.07333m0.58556 2.1718-0.22593 1.6633m-3.8139-1.7238 0.65238-0.9065 1.6752 3.8192m4.4666-6.4802 0.70469 3.0477c0.12973 0.56108-0.18451 1.1129-0.70185 1.2326v0c-0.51737 0.11966-1.0419-0.23816-1.1716-0.79924l-0.07801-0.33738m7.604 17.98-4.0336 1.9155c-0.78124 0.371-1.7136 0.0301-2.0904-0.76437l-8.8027-18.558c-0.37685-0.79446-0.051288-1.7327 0.72995-2.1037v0l4.6879-2.2262m11.527 21.192-4.611 1.2437c-0.83496 0.22521-1.6913-0.27706-1.9201-1.1262l-5.3433-19.834c-0.22875-0.84909 0.25928-1.714 1.0942-1.9392v0l4.9643-1.3389m6.9189 22.926-4.4512 0.27479c-0.86312 0.05328-1.6016-0.61043-1.6557-1.4882l-1.2643-20.503c-0.05412-0.87773 0.59716-1.6272 1.4603-1.6805v0l5.1812-0.31986m4.1801 24.126-6.1125-0.72636c-0.85873-0.10204-1.4666-0.88722-1.3629-1.7605l2.4212-20.398c0.10365-0.87326 0.87842-1.4941 1.7371-1.3921v0l4.9761 0.59132m1.5353-0.30645 13.111 4.5484c0.81704 0.28346 1.243 1.1806 0.95509 2.0114l-6.7256 19.408c-0.28792 0.83087-1.1775 1.2716-1.9945 0.98812l-13.111-4.5484c-0.81704-0.28346-1.243-1.1806-0.95509-2.0114l6.7256-19.408c0.28792-0.83087 1.1775-1.2716 1.9945-0.98811z" fill="none" stroke="#fff" stroke-linecap="round" stroke-linejoin="round"/></svg>
