<?xml version="1.0" encoding="UTF-8"?>
<svg width="48" height="48" version="1.1" viewBox="0 0 48 48" xml:space="preserve" xmlns="http://www.w3.org/2000/svg"><path d="m19.453 30.571 0.01953 1.5425c0.01953 1.5047-1.0963 2.6205-2.4727 2.6205s-3.0164-1.2269-2.3622-3.0208l6.3022-17.281c0.36985-1.0038 1.5478-2.5448 3.06-2.5448 1.5122 0 2.6902 1.541 3.06 2.5448l6.3022 17.281c0.6542 1.7938-0.98581 3.0208-2.3622 3.0208s-2.4922-1.1158-2.4727-2.6205l0.01953-1.5425c0.0011-0.08605-0.03554-0.16678-0.14917-0.21071-0.11363-0.04392-0.35024-0.0096-0.46167 0.10179l-0.75439 0.7544c-0.39174 0.39174-1.0223 0.39174-1.4141 0l-1.0605-1.0581c-0.39174-0.39174-1.0223-0.39174-1.4141 0l-1.0605 1.0581c-0.39174 0.39174-1.0223 0.39174-1.4141 0l-0.75439-0.7544c-0.11143-0.11143-0.34804-0.14572-0.46167-0.10179-0.11363 0.04392-0.15026 0.12466-0.14917 0.21071zm4.5469-12.389c0.44233 0 0.60214 0.46355 0.71943 0.80334l1.9811 5.7394c0.13604 0.39413-0.11713 0.74777-0.61324 0.97561-0.34906 0.16031-0.85934 0.39965-2.0873 0.39965s-1.7382-0.23934-2.0873-0.39965v0c-0.49611-0.22784-0.74928-0.58148-0.61324-0.97561l1.9811-5.7394c0.11729-0.33979 0.2771-0.80334 0.71943-0.80334zm-14.5-12.682h29c2.216 0 4 1.784 4 4v29c0 2.216-1.784 4-4 4h-29c-2.216 0-4-1.784-4-4v-29c0-2.216 1.784-4 4-4z" fill="none" stroke="#fff" stroke-linecap="round" stroke-linejoin="round"/></svg>
