<?xml version="1.0" encoding="UTF-8"?>
<svg width="48" height="48" version="1.1" viewBox="0 0 48 48" xml:space="preserve" xmlns="http://www.w3.org/2000/svg"><path d="m17.717 11.346 0.91547 1.1495m11.651-1.1495-0.91547 1.1495m-15.233 4.6344 1.4373 0.30684m18.294-0.30684-1.4373 0.30684m-17.449 6.3152 1.3142-0.65788m16.728 0.65788-1.3142-0.65788m-7.7069-13.943-1.62e-4 1.4694m0.05993 17.699v8.3053m14.777-14.83a14.837 14.834 0 0 1-14.837 14.834 14.837 14.834 0 0 1-14.837-14.834 14.837 14.834 0 0 1 14.837-14.834 14.837 14.834 0 0 1 14.837 14.834zm-16.693 3.7053v1.9749h0.822l0.25163 0.84488h1.5643l0.25163-0.84488h0.822v-1.9749zm-15.608-3.5389c-1e-7 -9.6432 7.819-17.46 17.464-17.46 9.6452 0 17.464 7.8173 17.464 17.46v0c0 6.5329-4.2323 11.589-9.4542 15.516l-8.01 6.0239-7.9522-5.9941c-5.2363-3.947-9.5121-8.9891-9.5121-15.545zm17.045 3.5464a6.1734 6.1721 0 0 1-5.7546-6.1578 6.1734 6.1721 0 0 1 6.1734-6.1721 6.1734 6.1721 0 0 1 6.1734 6.1721v0a6.1734 6.1721 0 0 1-5.7546 6.1578" fill="none" stroke="#fff" stroke-linecap="round" stroke-linejoin="round"/></svg>
