<?xml version="1.0" encoding="UTF-8" standalone="no"?>
<!-- Created with Inkscape (http://www.inkscape.org/) -->

<svg
   width="48"
   height="48"
   viewBox="0 0 48 48"
   version="1.1"
   id="svg1"
   xml:space="preserve"
   inkscape:version="1.3.2 (091e20e, 2023-11-25, custom)"
   sodipodi:docname="rootan.svg"
   xmlns:inkscape="http://www.inkscape.org/namespaces/inkscape"
   xmlns:sodipodi="http://sodipodi.sourceforge.net/DTD/sodipodi-0.dtd"
   xmlns="http://www.w3.org/2000/svg"
   xmlns:svg="http://www.w3.org/2000/svg"><sodipodi:namedview
     id="namedview1"
     pagecolor="#505050"
     bordercolor="#eeeeee"
     borderopacity="1"
     inkscape:showpageshadow="0"
     inkscape:pageopacity="0"
     inkscape:pagecheckerboard="0"
     inkscape:deskcolor="#505050"
     inkscape:document-units="px"
     inkscape:zoom="12.683728"
     inkscape:cx="7.4899115"
     inkscape:cy="22.82452"
     inkscape:window-width="1920"
     inkscape:window-height="1057"
     inkscape:window-x="-8"
     inkscape:window-y="-8"
     inkscape:window-maximized="1"
     inkscape:current-layer="svg1" /><defs
     id="defs1" /><path
     id="path10-0-8"
     style="fill:none;stroke:#ffffff;stroke-width:1;stroke-linecap:round;stroke-linejoin:round;stroke-opacity:1"
     d="m 17.716878,11.346293 0.91547,1.149512 m 11.650773,-1.149512 -0.915469,1.149512 m -15.23331,4.634386 1.437301,0.306836 m 18.294015,-0.306836 -1.437302,0.306836 m -17.449461,6.315232 1.314165,-0.657883 m 16.728045,0.657883 -1.314166,-0.657883 M 24.000081,9.1512499 23.999919,10.620638 m 0.05993,17.698658 v 8.305301 M 38.837159,21.794132 A 14.837158,14.833979 0 0 1 24,36.628111 14.837158,14.833979 0 0 1 9.1628418,21.794132 14.837158,14.833979 0 0 1 24,6.9601523 14.837158,14.833979 0 0 1 38.837159,21.794132 Z m -16.692948,3.705282 v 1.974892 h 0.821999 l 0.251632,0.844884 h 1.564316 l 0.251632,-0.844884 h 0.822 V 25.499414 Z M 6.5357712,21.960493 C 6.5357711,12.317329 14.354773,4.5000003 24,4.5000006 c 9.645227,0 17.464229,7.8173284 17.464229,17.4604924 v 0 c 0,6.532902 -4.232258,11.58856 -9.454179,15.515649 L 24,43.500012 16.047826,37.505872 C 10.81157,33.558919 6.5357708,28.516793 6.5357712,21.960493 Z M 23.581247,25.506887 A 6.1733832,6.1720624 0 0 1 17.826618,19.349041 6.1733832,6.1720624 0 0 1 24,13.176978 a 6.1733832,6.1720624 0 0 1 6.173383,6.172063 v 0 a 6.1733832,6.1720624 0 0 1 -5.75463,6.157846" /></svg>
