<?xml version="1.0" encoding="UTF-8"?>
<svg width="48" height="48" version="1.1" viewBox="0 0 48 48" xml:space="preserve" xmlns="http://www.w3.org/2000/svg"><path class="t" d="m14.731 36.284h2.9481m4.3614-1.0139h-2.4322m2.4322-7.6e-5c0.81413 0 1.4741 0.67255 1.4741 1.5022 0 0.82969-0.65994 1.5022-1.4741 1.5022h-2.4322v-6.009h2.4322c0.81413 0 1.4741 0.67255 1.4741 1.5022s-0.65994 1.5022-1.4741 1.5022zm-9.432 2.2464c-0.25391 0.45285-0.73239 0.75811-1.2808 0.75811v0c-0.81413 0-1.4741-0.67255-1.4741-1.5022v-0.97646c0-0.82969 0.65994-1.5022 1.4741-1.5022v0c0.81413 0 1.4741 0.67255 1.4741 1.5022v0.48823h-2.9481m26.195-0.14737 2.0981 2.1288m-2.9475-1.2674 2.6689-2.7067m-2.6695-2.0258v6.009m-3.4033-3.9809c0.81663 0 1.4741 0.67 1.4741 1.5022v0.97646c0 0.83224-0.65743 1.5022-1.4741 1.5022s-1.4741-0.67-1.4741-1.5022v-0.97646c0-0.83224 0.65743-1.5022 1.4741-1.5022zm-4.8774 0c0.81663 0 1.4741 0.67 1.4741 1.5022v0.97646c0 0.83224-0.65743 1.5022-1.4741 1.5022s-1.4741-0.67-1.4741-1.5022v-0.97646c0-0.83224 0.65743-1.5022 1.4741-1.5022zm5.0224-14.939c-0.17306 2.1156-1.9405 3.7444-4.0632 3.7444s-3.8899-1.6288-4.0629-3.7444m-7.754-0.0034c0.17381-2.1149 1.941-3.7429 4.0631-3.7429 2.1231 1e-6 3.8904 1.6298 4.0629 3.7458m-9.8145-4.9e-4c0 5.3177 4.3108 9.6285 9.6285 9.6285 5.3177 0 9.6285-4.3108 9.6285-9.6285h-19.257c0-5.3177 4.3108-9.6285 9.6285-9.6285s9.6285 4.3108 9.6285 9.6285m-24.128-13.854h29c2.216 0 4 1.784 4 4v29c0 2.216-1.784 4-4 4h-29c-2.216 0-4-1.784-4-4v-29c0-2.216 1.784-4 4-4z" fill="none" stroke="#fff" stroke-linecap="round" stroke-linejoin="round"/></svg>
