<?xml version="1.0" encoding="UTF-8" standalone="no"?>
<!-- Created with Inkscape (http://www.inkscape.org/) -->

<svg
   width="48"
   height="48"
   viewBox="0 0 48 48"
   version="1.1"
   id="svg1"
   xml:space="preserve"
   inkscape:version="1.3.2 (091e20e, 2023-11-25, custom)"
   sodipodi:docname="set_ebook.svg"
   xmlns:inkscape="http://www.inkscape.org/namespaces/inkscape"
   xmlns:sodipodi="http://sodipodi.sourceforge.net/DTD/sodipodi-0.dtd"
   xmlns="http://www.w3.org/2000/svg"
   xmlns:svg="http://www.w3.org/2000/svg"><sodipodi:namedview
     id="namedview1"
     pagecolor="#505050"
     bordercolor="#eeeeee"
     borderopacity="1"
     inkscape:showpageshadow="0"
     inkscape:pageopacity="0"
     inkscape:pagecheckerboard="0"
     inkscape:deskcolor="#505050"
     inkscape:document-units="px"
     inkscape:zoom="8.96875"
     inkscape:cx="-8.6968641"
     inkscape:cy="40.195122"
     inkscape:window-width="1920"
     inkscape:window-height="1057"
     inkscape:window-x="-8"
     inkscape:window-y="-8"
     inkscape:window-maximized="1"
     inkscape:current-layer="svg1" /><defs
     id="defs1" /><path
     id="line445"
     style="fill:none;stroke:#ffffff;stroke-linecap:round;stroke-linejoin:round"
     class="t"
     d="m 14.730833,36.284234 h 2.948093 m 4.361444,-1.013935 h -2.432207 m 2.432207,-7.6e-5 c 0.814126,0 1.474065,0.672552 1.474065,1.50224 0,0.829687 -0.659939,1.50224 -1.474065,1.50224 h -2.432207 v -6.00896 h 2.432207 c 0.814126,0 1.474065,0.672553 1.474065,1.50224 0,0.829687 -0.659939,1.50224 -1.474065,1.50224 z m -9.432024,2.246374 c -0.253907,0.45285 -0.732389,0.758106 -1.280815,0.758106 v 0 c -0.814127,0 -1.4740667,-0.672553 -1.4740667,-1.50224 v -0.976456 c 0,-0.829687 0.6599397,-1.50224 1.4740667,-1.50224 v 0 c 0.814126,0 1.474065,0.672553 1.474065,1.50224 v 0.488228 c 0,0 -2.9481317,0 -2.9481317,0 m 26.1949687,-0.147372 2.098103,2.128825 m -2.947547,-1.26744 2.668875,-2.706662 m -2.669458,-2.025843 v 6.00896 m -3.403302,-3.980936 c 0.816632,0 1.474065,0.669999 1.474065,1.50224 v 0.976456 c 0,0.832241 -0.657433,1.50224 -1.474065,1.50224 -0.816632,0 -1.474065,-0.669999 -1.474065,-1.50224 v -0.976456 c 0,-0.832241 0.657433,-1.50224 1.474065,-1.50224 z m -4.877367,0 c 0.816632,0 1.474065,0.669999 1.474065,1.50224 v 0.976456 c 0,0.832241 -0.657433,1.50224 -1.474065,1.50224 -0.816632,0 -1.474065,-0.669999 -1.474065,-1.50224 v -0.976456 c 0,-0.832241 0.657433,-1.50224 1.474065,-1.50224 z m 5.022379,-14.939042 c -0.173056,2.115602 -1.940534,3.744404 -4.063202,3.744404 -2.122668,0 -3.889858,-1.628802 -4.062914,-3.744404 m -7.75399,-0.0034 c 0.173806,-2.114949 1.940999,-3.742872 4.063077,-3.742872 2.123081,10e-7 3.890381,1.629756 4.062913,3.745815 m -9.814478,-4.9e-4 c 0,5.317662 4.310816,9.628478 9.628478,9.628478 5.317661,0 9.628478,-4.310816 9.628478,-9.628478 H 24.186 23.814 14.371522 c 0,-5.317661 4.310816,-9.6284814 9.628478,-9.6284814 5.317662,0 9.628478,4.3108184 9.628478,9.6284814 M 9.5,5.5 h 29 c 2.216,0 4,1.784 4,4 v 29 c 0,2.216 -1.784,4 -4,4 h -29 c -2.216,0 -4,-1.784 -4,-4 v -29 c 0,-2.216 1.784,-4 4,-4 z" /></svg>
