<?xml version="1.0" encoding="UTF-8"?>
<svg width="48" height="48" version="1.1" viewBox="0 0 48 48" xml:space="preserve" xmlns="http://www.w3.org/2000/svg"><path d="m24.919 31.784h3.8449v-4.6708c0-0.64549 0.60263-1.1652 1.3517-1.1651l13.368 2.14e-4v-3.7638l-13.8 1e-6c-2.6394 0-4.7645 2.1392-4.7645 4.7965zm18.549-12.132-14.88 2.15e-4c-1.1686 0-2.206-0.61489-2.8769-1.4667-0.49596-0.62972-0.79154-1.4273-0.79154-2.297l18.58 2e-6zm-19.631-1.4665c0.49596-0.62972 0.79154-1.4273 0.79154-2.297l-15.365 2e-6c-2.6394 0-4.7642 2.1392-4.7642 4.7965v0.42828c0 2.6572 2.1251 4.8008 4.7645 4.8008h10.55c0.7491 0 1.3522 0.51947 1.3522 1.165v0.10404c0 0.64549-0.60306 1.1651-1.3522 1.1651l-11.365 7.4e-5c-1.1686 0-2.2057 0.6146-2.8766 1.4665-0.49596 0.62971-0.79154 1.4273-0.79154 2.297h15.365c2.6394 0 4.7642-2.1392 4.7642-4.7965v-0.42828c0-2.6572-2.1243-4.7969-4.7636-4.7969h-10.551c-0.7491 0-1.3522-0.52335-1.3522-1.1688v-0.10404c0-0.64549 0.60306-1.1652 1.3522-1.1651l11.365 2.15e-4c1.1686 0 2.206-0.61489 2.8769-1.4667z" fill="none" stroke="#fff" stroke-linecap="round" stroke-linejoin="round"/></svg>
