<?xml version="1.0" encoding="UTF-8" standalone="no"?>
<!-- Created with Inkscape (http://www.inkscape.org/) -->

<svg
   width="48"
   height="48"
   viewBox="0 0 48 48"
   version="1.1"
   id="svg1"
   xml:space="preserve"
   inkscape:version="1.3.2 (091e20e, 2023-11-25, custom)"
   sodipodi:docname="sf_cinema.svg"
   xmlns:inkscape="http://www.inkscape.org/namespaces/inkscape"
   xmlns:sodipodi="http://sodipodi.sourceforge.net/DTD/sodipodi-0.dtd"
   xmlns="http://www.w3.org/2000/svg"
   xmlns:svg="http://www.w3.org/2000/svg"><sodipodi:namedview
     id="namedview1"
     pagecolor="#505050"
     bordercolor="#eeeeee"
     borderopacity="1"
     inkscape:showpageshadow="0"
     inkscape:pageopacity="0"
     inkscape:pagecheckerboard="0"
     inkscape:deskcolor="#505050"
     inkscape:document-units="px"
     inkscape:zoom="6.3418639"
     inkscape:cx="6.5438175"
     inkscape:cy="27.673252"
     inkscape:window-width="1920"
     inkscape:window-height="1057"
     inkscape:window-x="-8"
     inkscape:window-y="-8"
     inkscape:window-maximized="1"
     inkscape:current-layer="svg1"
     showguides="false" /><defs
     id="defs1" /><path
     id="path2"
     style="fill:none;stroke:#ffffff;stroke-width:0.999996;stroke-linecap:round;stroke-linejoin:round;stroke-opacity:1"
     d="m 24.919258,31.784405 h 3.844878 v -4.670759 c 0,-0.645491 0.60263,-1.165158 1.351728,-1.165146 l 13.368286,2.14e-4 v -3.763777 l -13.80035,10e-7 c -2.639366,0 -4.764542,2.139229 -4.764542,4.796479 z m 18.54904,-12.132485 -14.880263,2.15e-4 c -1.168566,0 -2.205985,-0.614892 -2.876896,-1.466742 C 25.215183,17.555678 24.9196,16.75805 24.919601,15.888358 l 18.580402,2e-6 z M 23.837495,18.185393 c 0.495956,-0.629715 0.791539,-1.427343 0.791538,-2.297035 l -15.3648359,2e-6 c -2.6393669,0 -4.7641996,2.139229 -4.7641996,4.796479 v 0.428284 c 0,2.65725 2.125127,4.800815 4.7644941,4.800815 H 19.814919 c 0.749097,0 1.352162,0.519466 1.352162,1.164957 v 0.104038 c 0,0.645491 -0.603065,1.165142 -1.352162,1.165147 l -11.3651068,7.4e-5 c -1.1685639,0 -2.205655,0.614604 -2.8765649,1.466456 -0.4959568,0.629712 -0.7915397,1.427342 -0.7915391,2.297032 H 20.146547 c 2.639368,0 4.764201,-2.139229 4.764201,-4.796479 v -0.428284 c 0,-2.657249 -2.124269,-4.796932 -4.763636,-4.796932 H 9.5960815 c -0.749099,0 -1.3521629,-0.52335 -1.3521629,-1.168841 v -0.104038 c 0,-0.645491 0.6030639,-1.165161 1.3521629,-1.165148 l 11.3645165,2.15e-4 c 1.168566,0 2.205987,-0.614892 2.876897,-1.466742 z"
     sodipodi:nodetypes="ccssccsscccscccscsssssssscscsssssssccs" /></svg>
