<?xml version="1.0" encoding="UTF-8"?>
<svg width="48" height="48" version="1.1" viewBox="0 0 48 48" xml:space="preserve" xmlns="http://www.w3.org/2000/svg"><path d="m20.192 18.092-2e-6 8.1977c0 0.3892-0.38311 0.70253-0.859 0.70253-0.47589 0-0.859-0.31333-0.859-0.70253v-8.1977m-2.0166 0-1e-6 8.1977c0 0.3892-0.38311 0.70253-0.859 0.70253s-0.859-0.31333-0.859-0.70253v-8.1977m5.2257 24.407v-9.1506c0-0.96226 0.0058-1.3965 1.2232-2.6151 1.2174-1.2185 1.2232-1.6941 1.2232-2.6151v-8.7044c0-0.73134-0.58901-1.3201-1.3206-1.3201h-0.89757m-5.4525 0h-0.90015c-0.73164 0-1.3206 0.58877-1.3206 1.3201l0.0041 8.7044c0.0041 0.92102 0.0099 1.3965 1.2273 2.6151 1.2174 1.2185 1.2232 1.6528 1.219 2.6151l-0.0041 9.1506m3.5092-24.405h-2.017m17.025 24.405v-11.922a5.2061 6.7651 0 0 0 2.7084-5.925 5.2061 6.7651 0 0 0-5.2078-6.7655v0a5.2061 6.7651 0 0 0-5.2052 6.7655 5.2061 6.7651 0 0 0 2.7058 5.925v11.922m-12.034-29.775v-2.9898c0-0.73134 0.58901-1.3201 1.3206-1.3201h12.456c0.73164 0 1.3206 0.58877 1.3206 1.3201v2.9898zm17.033 29.776h3.2783v0c2.1949 0 3.8838-1.7677 3.9619-3.9603l0.92385-25.917-4.7763-7.1225h-25.744l-4.7763 7.1225 0.92386 25.917c0.07816 2.1926 1.767 3.9603 3.9619 3.9603h3.7297m4.9988 0h8.5195" fill="none" stroke="#fff" stroke-linecap="round" stroke-linejoin="round"/></svg>
