<?xml version="1.0" encoding="UTF-8"?>
<svg id="b" version="1.1" viewBox="0 0 48 48" xmlns="http://www.w3.org/2000/svg"><defs><style>.c{fill:none;stroke:#fff;stroke-linecap:round;stroke-linejoin:round;}</style></defs><path class="t" d="m36.352 42.5v-8h2.619c1.4807 0 2.681 1.2029 2.681 2.6867s-1.2003 2.6867-2.681 2.6867h-2.619m9.1483-1.3734a7 7 0 0 1-7 7 7 7 0 0 1-7-7 7 7 0 0 1 7-7 7 7 0 0 1 7 7zm-26.67-4.4655c1.3342 1.0006 2.6683 1.3341 5.3366 1.3341h1.3342c2.3947 0 4.3359-1.9413 4.3359-4.3359s-1.9413-4.3359-4.3359-4.3359h-3.0019c-2.3947 0-4.3359-1.9413-4.3359-4.3359s1.9413-4.3359 4.3359-4.3359h1.3342c3.0017 0 4.3359 0.3336 5.3366 1.3342m-18.467-5.9037h28.328c1.7344 0 3.4688 1.7344 3.4688 3.4688v15.834m-10.658 7.8692-22.873 1e-6c-1.7344 0-3.4688-1.7344-3.4688-3.4688v-23.703c0-2.8906 0.5781-3.7578 2.8906-3.7578l24.859-2.3125c2.0234-0.1156 2.3125 0.5781 2.3125 1.4453v4.625" fill="none" stroke="#fff" stroke-linecap="round" stroke-linejoin="round"/></svg>
