<?xml version="1.0" encoding="UTF-8" standalone="no"?>
<!-- Created with Inkscape (http://www.inkscape.org/) -->

<svg
   width="48"
   height="48"
   viewBox="0 0 48 48"
   version="1.1"
   id="svg1"
   xml:space="preserve"
   inkscape:version="1.3.2 (091e20e, 2023-11-25, custom)"
   sodipodi:docname="shopee_food_driver.svg"
   xmlns:inkscape="http://www.inkscape.org/namespaces/inkscape"
   xmlns:sodipodi="http://sodipodi.sourceforge.net/DTD/sodipodi-0.dtd"
   xmlns="http://www.w3.org/2000/svg"
   xmlns:svg="http://www.w3.org/2000/svg"><sodipodi:namedview
     id="namedview1"
     pagecolor="#505050"
     bordercolor="#eeeeee"
     borderopacity="1"
     inkscape:showpageshadow="0"
     inkscape:pageopacity="0"
     inkscape:pagecheckerboard="0"
     inkscape:deskcolor="#505050"
     inkscape:document-units="px"
     inkscape:zoom="8.96875"
     inkscape:cx="9.9233449"
     inkscape:cy="24.250871"
     inkscape:window-width="1920"
     inkscape:window-height="1057"
     inkscape:window-x="-8"
     inkscape:window-y="-8"
     inkscape:window-maximized="1"
     inkscape:current-layer="svg1" /><defs
     id="defs1" /><path
     id="path13"
     style="fill:none;stroke:#ffffff;stroke-width:0.999996;stroke-linecap:round;stroke-linejoin:round;stroke-opacity:1"
     d="m 20.192452,18.091988 -2e-6,8.197745 c 0,0.389205 -0.383113,0.702533 -0.858997,0.702533 -0.475888,0 -0.859001,-0.313328 -0.859001,-0.702533 v -8.197745 m -2.016573,0 -10e-7,8.197745 c 0,0.389205 -0.383113,0.702533 -0.858999,0.702533 -0.475886,0 -0.859,-0.313328 -0.859,-0.702533 v -8.197745 m 5.225707,24.406796 v -9.150629 c 0,-0.962262 0.0058,-1.396537 1.223166,-2.615074 1.21736,-1.218535 1.223166,-1.694054 1.223166,-2.61507 v -8.704372 c 0,-0.731339 -0.589009,-1.320108 -1.320644,-1.320108 h -0.897573 m -5.452493,0 h -0.900152 c -0.731635,0 -1.320643,0.588769 -1.320643,1.320108 l 0.0041,8.704372 c 0.0041,0.921016 0.0099,1.396535 1.227298,2.61507 1.217354,1.218537 1.223166,1.652812 1.219033,2.615074 l -0.0041,9.150629 M 18.475933,18.093531 H 16.458976 M 33.484389,42.498784 V 30.576568 a 5.2060551,6.7651203 0 0 0 2.708352,-5.92501 5.2060551,6.7651203 0 0 0 -5.207774,-6.765548 v 0 a 5.2060551,6.7651203 0 0 0 -5.205193,6.765548 5.2060551,6.7651203 0 0 0 2.705772,5.92501 V 42.498784 M 16.451222,12.724124 V 9.7343109 c 0,-0.7313392 0.589007,-1.320107 1.320644,-1.320107 h 12.456272 c 0.731636,0 1.320643,0.5887678 1.320643,1.320107 v 2.9898131 z m 17.032995,29.775878 h 3.278335 v 0 c 2.1949,0 3.88377,-1.767703 3.961932,-3.960321 L 41.648338,12.622476 36.872002,5.4999981 H 11.127999 L 6.351662,12.622476 7.275518,38.539681 c 0.07816,2.192618 1.767029,3.960321 3.961931,3.960321 h 3.729718 m 4.998753,0 h 8.519544" /></svg>
