<?xml version="1.0" encoding="UTF-8" standalone="no"?>
<svg
   id="b"
   viewBox="0 0 48 48"
   version="1.1"
   sodipodi:docname="shopeepay_partner.svg"
   inkscape:version="1.3.2 (091e20e, 2023-11-25, custom)"
   xmlns:inkscape="http://www.inkscape.org/namespaces/inkscape"
   xmlns:sodipodi="http://sodipodi.sourceforge.net/DTD/sodipodi-0.dtd"
   xmlns="http://www.w3.org/2000/svg"
   xmlns:svg="http://www.w3.org/2000/svg">
  <sodipodi:namedview
     id="namedview2"
     pagecolor="#505050"
     bordercolor="#eeeeee"
     borderopacity="1"
     inkscape:showpageshadow="0"
     inkscape:pageopacity="0"
     inkscape:pagecheckerboard="0"
     inkscape:deskcolor="#505050"
     inkscape:zoom="17.9375"
     inkscape:cx="23.972125"
     inkscape:cy="24"
     inkscape:window-width="1920"
     inkscape:window-height="1057"
     inkscape:window-x="-8"
     inkscape:window-y="-8"
     inkscape:window-maximized="1"
     inkscape:current-layer="b" />
  <defs
     id="defs1">
    <style
       id="style1">.c{fill:none;stroke:#fff;stroke-linecap:round;stroke-linejoin:round;}</style>
  </defs>
  <path
     id="path355"
     style="display:inline;fill:none;stroke:#ffffff;stroke-linecap:round;stroke-linejoin:round"
     class="t"
     d="m 36.351741,42.5 v -8 h 2.619 c 1.4807,0 2.681,1.2029 2.681,2.6867 0,1.4838 -1.2003,2.6867 -2.681,2.6867 h -2.619 M 45.5,38.5 a 7,7 0 0 1 -7,7 7,7 0 0 1 -7,-7 7,7 0 0 1 7,-7 7,7 0 0 1 7,7 z M 18.8304,34.0345 c 1.3342,1.0006 2.6683,1.3341 5.3366,1.3341 h 1.3342 c 2.3947,0 4.3359,-1.9413 4.3359,-4.3359 0,-2.3946 -1.9413,-4.3359 -4.3359,-4.3359 h -3.0019 c -2.3947,0 -4.3359,-1.9413 -4.3359,-4.3359 0,-2.3946 1.9413,-4.3359 4.3359,-4.3359 h 1.3342 c 3.0017,0 4.3359,0.3336 5.3366,1.3342 m -18.467,-5.9037 h 28.3281 c 1.734398,0 3.4688,1.734402 3.4688,3.4688 V 32.758304 M 31.84177,40.627499 8.9688,40.6275 C 7.2344017,40.6275 5.5,38.893098 5.5,37.1587 V 13.4555 C 5.5,10.564903 6.0781023,9.6977 8.3906,9.6977 L 33.25,7.3852 c 2.023398,-0.1155999 2.3125,0.5781009 2.3125,1.4453 v 4.625" />
</svg>
