<?xml version="1.0" encoding="UTF-8" standalone="no"?>
<!-- Created with Inkscape (http://www.inkscape.org/) -->

<svg
   width="48"
   height="48"
   viewBox="0 0 48 48"
   version="1.1"
   id="svg1"
   xml:space="preserve"
   inkscape:version="1.3.2 (091e20e, 2023-11-25, custom)"
   sodipodi:docname="siam_inter_comics.svg"
   xmlns:inkscape="http://www.inkscape.org/namespaces/inkscape"
   xmlns:sodipodi="http://sodipodi.sourceforge.net/DTD/sodipodi-0.dtd"
   xmlns="http://www.w3.org/2000/svg"
   xmlns:svg="http://www.w3.org/2000/svg"><sodipodi:namedview
     id="namedview1"
     pagecolor="#505050"
     bordercolor="#eeeeee"
     borderopacity="1"
     inkscape:showpageshadow="0"
     inkscape:pageopacity="0"
     inkscape:pagecheckerboard="0"
     inkscape:deskcolor="#505050"
     inkscape:document-units="px"
     inkscape:zoom="8"
     inkscape:cx="-1.375"
     inkscape:cy="28.9375"
     inkscape:window-width="1920"
     inkscape:window-height="1057"
     inkscape:window-x="-8"
     inkscape:window-y="-8"
     inkscape:window-maximized="1"
     inkscape:current-layer="svg1"
     showguides="false" /><defs
     id="defs1" /><path
     id="path1-6"
     style="display:inline;fill:none;stroke:#ffffff;stroke-width:0.999996;stroke-linecap:round;stroke-linejoin:round;stroke-opacity:1"
     d="m 28.748736,31.001359 v 5.868 m -7.596554,0.06971 0.950175,-6.832 2.182194,7.83 2.182189,-7.83 0.950175,6.832 m -7.311827,-3.003707 a 2.934,2.934 0 0 1 -2.934,2.934 2.934,2.934 0 0 1 -2.934,-2.934 2.934,2.934 0 0 1 2.934,-2.934 2.934,2.934 0 0 1 2.934,2.934 z m 14.729162,2.44689 a 2.934,2.934 0 0 1 -1.618977,0.48711 2.934,2.934 0 0 1 -2.934,-2.934 2.934,2.934 0 0 1 2.934,-2.934 2.934,2.934 0 0 1 1.616998,0.485802 M 13.27619,36.382252 a 2.934,2.934 0 0 1 -1.618977,0.48711 2.934,2.934 0 0 1 -2.9340002,-2.934 2.934,2.934 0 0 1 2.9340002,-2.934 2.934,2.934 0 0 1 1.616998,0.485802 m 22.499292,3.978809 c 0,0.788978 0.784237,1.428571 1.751642,1.428571 0.967405,0 1.751642,-0.639593 1.751642,-1.428571 0,-0.394489 -0.196059,-0.751631 -0.513044,-1.010152 -0.316985,-0.258521 -0.45994,-0.251064 -1.192046,-0.585666 -0.732105,-0.334603 -0.723413,-0.317006 -0.988238,-0.559133 -0.264826,-0.242126 -0.428623,-0.576622 -0.428623,-0.946095 10e-7,-0.738945 0.655193,-1.337979 1.463414,-1.337979 0.585343,0 1.09042,0.314203 1.324471,0.768202 m -7.316214,-7.458703 2.20494,2.597774 m -3.216024,-5.560417 c 0.287002,-0.19395 0.639991,-0.30802 1.022469,-0.30802 v 0 c 0.9671,0 1.745669,0.729293 1.745669,1.635184 0,0.905891 -0.778569,1.635185 -1.745669,1.635185 -0.382478,0 -0.735468,-0.11407 -1.022469,-0.30802 M 26.2683,21.065779 h 2.863272 m -13.303002,5.868 v -5.568 l 4.804508,5.068 v -5.368 h 2.850494 v 5.868 m 0,-5.868 H 26.2683 m 0,2.634 v 3.234 m 0,0 h 2.863272 m -2.863272,-5.868 v 2.634 h 2.863272 m -15.08994,-2.634 v 5.868 m 16.574524,-5.868 v 5.868 M 21.533084,15.135668 h 3.901739 m -5.861941,-4.108796 v 5.868 h 1.21469 l 2.696,-6.67 2.695816,6.67 h 0.663436 l 0.950175,-6.832 2.182194,7.83 2.182189,-7.83 0.950175,6.832 M 14.711003,15.465973 c 0,0.788978 0.784237,1.428899 1.751642,1.428899 0.967405,0 1.751642,-0.639921 1.751642,-1.428899 0,-0.394489 -0.196059,-0.751631 -0.513044,-1.010152 -0.316985,-0.258521 -0.45994,-0.251064 -1.192046,-0.585666 -0.732105,-0.334603 -0.723413,-0.317006 -0.988238,-0.559133 -0.264826,-0.242126 -0.428623,-0.576622 -0.428623,-0.946095 1e-6,-0.738945 0.655193,-1.338055 1.463414,-1.338055 0.585343,0 1.09042,0.314279 1.324471,0.768278 M 9.5,5.5 h 29 c 2.216,0 4,1.784 4,4 v 29 c 0,2.216 -1.784,4 -4,4 h -29 c -2.216,0 -4,-1.784 -4,-4 v -29 c 0,-2.216 1.784,-4 4,-4 z" /></svg>
