<?xml version="1.0" encoding="UTF-8"?>
<svg width="48" height="48" version="1.1" viewBox="0 0 48 48" xml:space="preserve" xmlns="http://www.w3.org/2000/svg"><path d="m28.749 31.001v5.868m-7.5966 0.06971 0.95018-6.832 2.1822 7.83 2.1822-7.83 0.95018 6.832m-7.3118-3.0037a2.934 2.934 0 0 1-2.934 2.934 2.934 2.934 0 0 1-2.934-2.934 2.934 2.934 0 0 1 2.934-2.934 2.934 2.934 0 0 1 2.934 2.934zm14.729 2.4469a2.934 2.934 0 0 1-1.619 0.48711 2.934 2.934 0 0 1-2.934-2.934 2.934 2.934 0 0 1 2.934-2.934 2.934 2.934 0 0 1 1.617 0.4858m-21.556 4.8951a2.934 2.934 0 0 1-1.619 0.48711 2.934 2.934 0 0 1-2.934-2.934 2.934 2.934 0 0 1 2.934-2.934 2.934 2.934 0 0 1 1.617 0.4858m22.499 3.9788c0 0.78898 0.78424 1.4286 1.7516 1.4286s1.7516-0.63959 1.7516-1.4286c0-0.39449-0.19606-0.75163-0.51304-1.0102s-0.45994-0.25106-1.192-0.58567c-0.7321-0.3346-0.72341-0.31701-0.98824-0.55913-0.26483-0.24213-0.42862-0.57662-0.42862-0.9461 1e-6 -0.73894 0.65519-1.338 1.4634-1.338 0.58534 0 1.0904 0.3142 1.3245 0.7682m-7.3162-7.4587 2.2049 2.5978m-3.216-5.5604c0.287-0.19395 0.63999-0.30802 1.0225-0.30802v0c0.9671 0 1.7457 0.72929 1.7457 1.6352s-0.77857 1.6352-1.7457 1.6352c-0.38248 0-0.73547-0.11407-1.0225-0.30802m-4.3471-2.9624h2.8633m-13.303 5.868v-5.568l4.8045 5.068v-5.368h2.8505v5.868m0-5.868h2.7847m0 2.634v3.234m0 0h2.8633m-2.8633-5.868v2.634h2.8633m-15.09-2.634v5.868m16.575-5.868v5.868m-9.0831-11.798h3.9017m-5.8619-4.1088v5.868h1.2147l2.696-6.67 2.6958 6.67h0.66344l0.95018-6.832 2.1822 7.83 2.1822-7.83 0.95018 6.832m-18.397-1.4289c0 0.78898 0.78424 1.4289 1.7516 1.4289s1.7516-0.63992 1.7516-1.4289c0-0.39449-0.19606-0.75163-0.51304-1.0102s-0.45994-0.25106-1.192-0.58567c-0.7321-0.3346-0.72341-0.31701-0.98824-0.55913-0.26483-0.24213-0.42862-0.57662-0.42862-0.9461 1e-6 -0.73894 0.65519-1.3381 1.4634-1.3381 0.58534 0 1.0904 0.31428 1.3245 0.76828m-8.3802-6.2952h29c2.216 0 4 1.784 4 4v29c0 2.216-1.784 4-4 4h-29c-2.216 0-4-1.784-4-4v-29c0-2.216 1.784-4 4-4z" fill="none" stroke="#fff" stroke-linecap="round" stroke-linejoin="round"/></svg>
