<?xml version="1.0" encoding="UTF-8"?>
<svg width="48" height="48" version="1.1" viewBox="0 0 48 48" xml:space="preserve" xmlns="http://www.w3.org/2000/svg"><path class="t" d="m10.904 28v-8h2.3301c2.5023 0 4.5308 1.567 4.5308 3.5v1c0 1.933-2.0285 3.5-4.5308 3.5zm19.073-2.6828v0.0328c0 1.4636-1.5358 2.65-3.4305 2.65v0c-1.8947 0-3.4305-1.1864-3.4305-2.65v-2.7c0-1.4636 1.5358-2.65 3.4305-2.65v0c1.8947 0 3.4305 1.1864 3.4305 2.65v0.0328m5.1863 5.3172v-8m-3.4305 0h6.861m-18.154 0v8m22.064 9.5039c-0.08623 0.0032-0.17322 0.0049-0.26088 0.0049h-36.488c-0.087665 0-0.17465-0.0016-0.26088-0.0049m3.56e-5 -5.9555c0.086218-0.0032 0.1732-0.0049 0.26085-0.0049h36.488c0.08765 0 0.17463 0.0016 0.26085 0.0049m0-15.097c-0.08622 0.0032-0.1732 0.0049-0.26085 0.0049h-36.488c-0.087653 0-0.17463-0.0016-0.26085-0.0049m-3.55e-5 -5.9555c0.086229-0.0032 0.17322-0.0049 0.26088-0.0049v0h36.488c0.08767 0 0.17466 0.0016 0.26088 0.0049m-33.005-4.9961h29c2.216 0 4 1.784 4 4v29c0 2.216-1.784 4-4 4h-29c-2.216 0-4-1.784-4-4v-29c0-2.216 1.784-4 4-4z" fill="none" stroke="#fff" stroke-linecap="round" stroke-linejoin="round"/></svg>
