<?xml version="1.0" encoding="UTF-8"?>
<svg width="48" height="48" version="1.1" viewBox="0 0 48 48" xml:space="preserve" xmlns="http://www.w3.org/2000/svg"><path d="m12.856 18.193c0.61386 0.40328 1.2269 0.81631 1.8332 1.4013 0.11416-0.83474 0.33996-1.5385 0.57246-2.2352-0.61385-0.40328-1.2269-0.81632-1.8332-1.4013-0.11416 0.83474-0.33995 1.5385-0.57246 2.2352v0m3.1988 4.6497c-0.11688-0.1008-0.23356-0.20678-0.34999-0.3191-0.11416 0.83474-0.33996 1.5385-0.57246 2.2352v0c0.38366 0.25205 0.76699 0.50791 1.1486 0.80718m10.102-10.782c-0.39343-1.2032-1.9389-0.83232-2.2508 0.0939-0.48162-0.88188-2.1453-0.95806-2.2443 0.40951-0.08326 1.1505 1.2333 2.0746 2.5155 2.6803 0.48204-0.34163 0.96031-0.73871 1.3339-1.1666m-1.4687 4.5861c-0.67773-0.37544-1.6917-0.18184-1.7683 0.87663v0c-0.04696 0.64887 0.35136 1.2257 0.93766 1.7141m7.199 5.3536c0.36251 1.008 0.56004 1.1085 1.01 1.802 0.18533 0.28568 0.3971 1.0371-0.33135 1.4295-0.78869 0.42483-1.2-0.11546-1.3237-0.26852-0.13518 0.29947 0.14782 0.79928-0.03811 0.84443-0.15886 0.03858-0.24737-0.23297-0.43041-0.28949-0.17341-0.05351-0.46606 0.09732-0.50636-0.04408-0.06553-0.22999 0.50856-0.40687 0.48287-0.66863-0.26543 0.04843-0.89707 0.29542-1.3309-0.59295-0.17148-0.35116 0.01222-0.97116 0.62632-1.2533 0.56695-0.26048 0.99479-0.38043 1.8417-0.95896zm4.2576-13.264c0.3625 1.008 0.56003 1.1085 1.01 1.802 0.18533 0.28567 0.3971 1.0371-0.33135 1.4295-0.78869 0.42483-1.2-0.11546-1.3237-0.26852-0.13518 0.29947 0.14782 0.79928-0.03811 0.84443-0.15886 0.03859-0.24737-0.23297-0.43041-0.28949-0.17341-0.05351-0.46606 0.09732-0.50636-0.04408-0.06553-0.22999 0.50856-0.40687 0.48287-0.66863-0.26543 0.04843-0.89707 0.29542-1.3309-0.59295-0.17148-0.35116 0.01222-0.97116 0.62632-1.2533 0.56695-0.26048 0.99479-0.38043 1.8417-0.95896zm-2.1288 6.6318c0.36251 1.008 0.56004 1.1085 1.01 1.802 0.18533 0.28567 0.3971 1.0371-0.33135 1.4295-0.7887 0.42483-1.2-0.11546-1.3237-0.26852-0.13518 0.29947 0.14782 0.79928-0.03811 0.84443-0.15886 0.03859-0.24737-0.23297-0.43041-0.28949-0.17341-0.05351-0.46606 0.09732-0.50636-0.04408-0.06553-0.22999 0.50856-0.40687 0.48287-0.66863-0.26543 0.04843-0.89707 0.29542-1.3309-0.59295-0.17148-0.35116 0.01222-0.97116 0.62632-1.2533 0.56695-0.26048 0.99479-0.38043 1.8417-0.95896zm-24.825-3.1858 0.71196-0.36776m-2.1452-0.97098c0.13902-0.35959 0.36193-0.60599 0.98313-0.92462l0.14457-0.07355c0.51152-0.26423 1.154-0.03763 1.4349 0.50615v0c0.28097 0.54377 0.094081 1.1988-0.41745 1.463m-0.45098 2.3068c0.37359 0.09574 0.7037 0.05748 1.324-0.26293l0.14452-0.07467c0.51153-0.26423 0.69842-0.91923 0.41745-1.463v0c-0.28098-0.54375-0.92342-0.77037-1.4349-0.50614m20.092-3.9715 0.76346 0.24323m-0.82987-2.2032c0.35262-0.15603 0.6845-0.17271 1.3491 0.04108l0.15423 0.05018c0.54854 0.17471 0.84246 0.78915 0.6565 1.3723v0c-0.18591 0.5832-0.78138 0.9143-1.3299 0.73956m-1.9504 1.3126c0.19641 0.3318 0.45686 0.5381 1.122 0.74999l0.15498 0.04937c0.54855 0.17471 1.144-0.15637 1.3299-0.73956v0c0.18591-0.5832-0.10796-1.1976-0.6565-1.3723m-11.668 0.04916 0.8011-0.01931m-1.5039-1.8115c0.28236-0.26256 0.59063-0.38664 1.2886-0.40147l0.16217-0.0029c0.57557-0.01387 1.054 0.47092 1.0687 1.0828v0c0.01466 0.6119-0.44004 1.1192-1.0156 1.1331m-1.415 1.8772c0.29401 0.2495 0.60757 0.35948 1.3055 0.34265l0.16262-0.0039c0.57557-0.01387 1.0303-0.52115 1.0156-1.1331v0c-0.01467-0.61187-0.49314-1.0967-1.0687-1.0828m6.3769 19.249-6.3669 0.52797c-0.86251 0.07153-1.6156-0.57671-1.6885-1.4534l-1.7033-20.479c-0.07293-0.87672 0.56274-1.6401 1.4253-1.7116v0l13.84-1.1477c0.86251-0.07154 1.6156 0.57671 1.6885 1.4534l0.01704 0.20481m-11.162 22.933-5.068 2.5419c-0.77362 0.38801-1.7143 0.06744-2.109-0.71876l-9.2219-18.365c-0.39479-0.7862-0.089814-1.7315 0.6838-2.1195v0l12.414-6.2261c0.77361-0.38801 1.7143-0.06744 2.109 0.71876l0.22201 0.44211m9.0961-0.17834 13.226 4.2331c0.82421 0.2638 1.2719 1.1508 1.0037 1.9888l-6.2635 19.574c-0.26815 0.83797-1.1476 1.3002-1.9718 1.0364l-13.226-4.2331c-0.82421-0.2638-1.2719-1.1508-1.0037-1.9888l6.2635-19.574c0.26815-0.83797 1.1476-1.3002 1.9718-1.0364z" fill="none" stroke="#fff" stroke-linecap="round" stroke-linejoin="round"/></svg>
