<?xml version="1.0" encoding="UTF-8" standalone="no"?>
<!-- Created with Inkscape (http://www.inkscape.org/) -->

<svg
   width="48"
   height="48"
   viewBox="0 0 48 48"
   version="1.1"
   id="svg1"
   xml:space="preserve"
   inkscape:version="1.3.2 (091e20e, 2023-11-25, custom)"
   sodipodi:docname="thai_dict.svg"
   xmlns:inkscape="http://www.inkscape.org/namespaces/inkscape"
   xmlns:sodipodi="http://sodipodi.sourceforge.net/DTD/sodipodi-0.dtd"
   xmlns="http://www.w3.org/2000/svg"
   xmlns:svg="http://www.w3.org/2000/svg"><sodipodi:namedview
     id="namedview1"
     pagecolor="#505050"
     bordercolor="#eeeeee"
     borderopacity="1"
     inkscape:showpageshadow="0"
     inkscape:pageopacity="0"
     inkscape:pagecheckerboard="0"
     inkscape:deskcolor="#505050"
     inkscape:document-units="px"
     inkscape:zoom="8.96875"
     inkscape:cx="1.7839721"
     inkscape:cy="33.170732"
     inkscape:window-width="1920"
     inkscape:window-height="1057"
     inkscape:window-x="-8"
     inkscape:window-y="-8"
     inkscape:window-maximized="1"
     inkscape:current-layer="svg1" /><defs
     id="defs1" /><path
     id="path413"
     style="fill:none;stroke:#ffffff;stroke-width:1;stroke-linecap:round;stroke-linejoin:round;stroke-opacity:1"
     class="t"
     d="m 10.904008,28 v -8 h 2.330143 c 2.502314,0 4.530833,1.567 4.530833,3.5 v 1 c 0,1.933 -2.028519,3.5 -4.530833,3.5 z M 29.977416,25.3172 V 25.35 c 0,1.4636 -1.535823,2.65 -3.430488,2.65 v 0 C 24.652263,28 23.11644,26.8136 23.11644,25.35 v -2.7 c 0,-1.4636 1.535823,-2.65 3.430488,-2.65 v 0 c 1.894665,0 3.430488,1.1864 3.430488,2.65 v 0.0328 M 35.16376,28 v -8 m -3.430475,0 h 6.860963 m -18.153536,0 v 8 m 22.064076,9.503857 c -0.08623,0.0032 -0.173219,0.0049 -0.260884,0.0049 H 5.7560959 c -0.087665,0 -0.1746549,-0.0016 -0.2608844,-0.0049 m 3.56e-5,-5.955451 c 0.086218,-0.0032 0.1731955,-0.0049 0.2608488,-0.0049 H 42.243904 c 0.08765,0 0.174631,0.0016 0.260849,0.0049 m 0,-15.096812 c -0.08622,0.0032 -0.173196,0.0049 -0.260849,0.0049 H 5.7560959 c -0.087653,0 -0.1746309,-0.0016 -0.2608487,-0.0049 m -3.55e-5,-5.955451 c 0.086229,-0.0032 0.1732189,-0.0049 0.2608842,-0.0049 v 0 H 42.243904 c 0.08767,0 0.174655,0.0016 0.260884,0.0049 M 9.5,5.5 h 29 c 2.216,0 4,1.784 4,4 v 29 c 0,2.216 -1.784,4 -4,4 h -29 c -2.216,0 -4,-1.784 -4,-4 v -29 c 0,-2.216 1.784,-4 4,-4 z" /></svg>
