<?xml version="1.0" encoding="UTF-8"?>
<svg width="48" height="48" version="1.1" viewBox="0 0 48 48" xml:space="preserve" xmlns="http://www.w3.org/2000/svg"><path d="m19.206 21.257c0.96414-0.75752 1.7618-2.3171 2.4573-4.4675 0.42356-1.3097 1.1424-2.2789 2.0095-2.9771m4.5432 15.496c0.42165 4.0358-1.0237 8.1908-5.8812 10.868m-7.3293 2.1998c10.159-6.519 7.0834-15.781-1.3493-16.389-4.2113-0.30366-7.0045-1.8808-8.156-4.7358 4.3114 2.1076 8.2777 2.2009 13.706 0.0057 5.003 1.12 11.004 19.998-4.2005 21.119v2e-6m-0.56371-21.805a2.8421 2.6068 37.966 0 0 3.8426-0.31708 2.8421 2.6068 37.966 0 0-0.64756-3.8027 2.8421 2.6068 37.966 0 0-3.8426 0.31708 2.8421 2.6068 37.966 0 0 0.64756 3.8027v0m14.871-8.1029c-1.234-0.28562-2.6639-1.3942-4.2572-3.1003-1.9374-2.0744-4.3806-2.3637-6.4784-1.8972 4.6486 2.7659 5.5378 5.8899 5.1364 9.1157-0.80036 6.4317 1.8472 14.35 10.967 14.946m7.8203-1.1568c-12.361-1.6416-13.544-11.651-5.9231-15.918 3.8061-2.1306 5.7275-4.8304 5.5529-8.0052-3.1089 3.8616-6.7781 5.688-12.818 6.0154-4.1888 3.2412-1.5254 23.527 13.188 17.907zm-9.0323-20.638a2.6926 2.9358 27.001 0 1-3.7334 1.3885 2.6926 2.9358 27.001 0 1-1.0614-3.8401 2.6926 2.9358 27.001 0 1 3.7334-1.3885 2.6926 2.9358 27.001 0 1 1.0614 3.8401z" fill="none" stroke="#fff" stroke-linecap="round" stroke-linejoin="round" stroke-width=".99999"/></svg>
