<?xml version="1.0" encoding="UTF-8"?>
<svg width="48" height="48" version="1.1" viewBox="0 0 48 48" xml:space="preserve" xmlns="http://www.w3.org/2000/svg"><path d="m15.892 21.992 13.455-2.9117 0.70285 3.3133-4.6187 1.255 2.3596 11.396-4.1167 0.90364-2.5102-11.446-4.6187 0.90364zm5.3718 20.282 7.0787-5.8234m0 0 7.882-4.4178m0 0 6.2754-5.5724m0 0-15.161-20.733m-13.957 11.044-7.882 4.6186 15.764 20.884m-1.1045-32.129-6.7775 6.6267 3.7624 4.9491m2.3616 3.1064 2.4284 3.1944m5.4138 7.1213 0.99441 1.308m-1.0041-30.724-7.1791 4.4178 6.9192 9.4271m2.2215 3.0268 6.9244 9.4342" fill="none" stroke="#fff" stroke-linecap="round" stroke-linejoin="round"/></svg>
