<?xml version="1.0" encoding="UTF-8"?>
<svg width="48" height="48" version="1.1" viewBox="0 0 48 48" xml:space="preserve" xmlns="http://www.w3.org/2000/svg"><path d="m34.5 42.491v-7.9912l4 8 4-7.9878v7.9878m3-3.9999c0 3.866-3.134 7-7 7s-7-3.134-7-7 3.134-7 7-7 7 3.134 7 7zm-8.9316-21.327-6.2772 17.346-6.2912-17.346-6.2913 17.346-6.2771-17.346m31.894 16.259c1.3924-2.8477 2.174-6.0486 2.174-9.4321 0-11.874-9.6259-21.5-21.5-21.5v0c-11.874 0-21.5 9.6259-21.5 21.5 4e-4 4.1171 0.9004 7.865 3.1244 11.33l-0.3473 2.6327c-0.2705 2.0494-0.7176 4.1462 0.2424 4.9184 0.96 0.77212 3.1386 0.46068 5.0864 0.19839l2.6886-0.36207c3.3198 1.9926 6.8336 2.7691 10.706 2.7829 3.3881 0 6.5932-0.78371 9.4438-2.1797" fill="none" stroke="#fff" stroke-linecap="round" stroke-linejoin="round"/></svg>
