<?xml version="1.0" encoding="UTF-8"?>
<svg width="48" height="48" version="1.1" viewBox="0 0 48 48" xml:space="preserve" xmlns="http://www.w3.org/2000/svg"><path class="t" d="m36.008 41.624c0.4906 0.6387 1.1057 0.8765 1.9615 0.8765h1.1844c1.1022 0 1.9957-0.8935 1.9957-1.9957v-0.0086c0-1.1022-0.8935-1.9957-1.9957-1.9957h-1.3065c-1.1034 0-1.9978-0.8945-1.9978-1.9978v0c0-1.1058 0.8964-2.0022 2.0022-2.0022h1.1779c0.8558 0 1.4709 0.2379 1.9615 0.8765m4.5084 3.1235a7 7 0 0 1-7 7 7 7 0 0 1-7-7 7 7 0 0 1 7-7 7 7 0 0 1 7 7zm-8.9316-21.327-6.2772 17.346-6.2912-17.346-6.2913 17.346-6.2771-17.346m31.894 16.259c1.3924-2.8477 2.174-6.0486 2.174-9.4321 0-11.874-9.6259-21.5-21.5-21.5v0c-11.874 0-21.5 9.6259-21.5 21.5 4e-4 4.1171 0.9004 7.865 3.1244 11.33l-0.3473 2.6327c-0.2705 2.0494-0.7176 4.1462 0.2424 4.9184 0.96 0.77212 3.1386 0.46068 5.0864 0.19839l2.6886-0.36207c3.3198 1.9926 6.8336 2.7691 10.706 2.7829 3.3881 0 6.5932-0.78371 9.4438-2.1797" fill="none" stroke="#fff" stroke-linecap="round" stroke-linejoin="round"/></svg>
