<?xml version="1.0" encoding="UTF-8"?>
<svg width="48" height="48" version="1.1" viewBox="0 0 48 48" xml:space="preserve" xmlns="http://www.w3.org/2000/svg"><path d="m36.568 17.173-6.2772 17.346-6.2912-17.346-6.2913 17.346-6.2771-17.346m12.568-14.673c-11.874 0-21.5 9.6259-21.5 21.5 4e-4 4.1171 0.9004 7.865 3.1244 11.33l-0.3473 2.6327c-0.2705 2.0494-0.7176 4.1462 0.2424 4.9184 0.96 0.77212 3.1386 0.46068 5.0864 0.19839l2.6886-0.36207c3.3198 1.9926 6.8336 2.7691 10.706 2.7829 11.874 0 21.5-9.6259 21.5-21.5 0-11.874-9.6259-21.5-21.5-21.5z" fill="none" stroke="#fff" stroke-linecap="round" stroke-linejoin="round"/></svg>
