<?xml version="1.0" encoding="UTF-8" standalone="no"?>
<!-- Created with Inkscape (http://www.inkscape.org/) -->

<svg
   width="48"
   height="48"
   viewBox="0 0 48 48"
   version="1.1"
   id="svg990"
   inkscape:version="1.2.2 (b0a8486541, 2022-12-01)"
   xml:space="preserve"
   sodipodi:docname="day_to_day_expenses.svg"
   xmlns:inkscape="http://www.inkscape.org/namespaces/inkscape"
   xmlns:sodipodi="http://sodipodi.sourceforge.net/DTD/sodipodi-0.dtd"
   xmlns="http://www.w3.org/2000/svg"
   xmlns:svg="http://www.w3.org/2000/svg"><sodipodi:namedview
     id="namedview992"
     pagecolor="#858585"
     bordercolor="#000000"
     borderopacity="0.25"
     inkscape:showpageshadow="2"
     inkscape:pageopacity="0"
     inkscape:pagecheckerboard="0"
     inkscape:deskcolor="#d1d1d1"
     inkscape:document-units="px"
     showgrid="false"
     inkscape:zoom="11"
     inkscape:cx="24"
     inkscape:cy="24"
     inkscape:window-width="1366"
     inkscape:window-height="737"
     inkscape:window-x="0"
     inkscape:window-y="0"
     inkscape:window-maximized="1"
     inkscape:current-layer="svg990" /><defs
     id="defs987"><style
       id="style1174">.a{fill:none;stroke:#fff;stroke-linecap:round;stroke-linejoin:round;}</style></defs><path
     id="path7872"
     style="display:inline;fill:none;stroke:#ffffff;stroke-width:1;stroke-linecap:round;stroke-linejoin:round;stroke-dasharray:none;stop-color:#000000"
     d="M 9.3986967,9.66245 C 13.107307,5.8737401 18.278695,3.5225717 23.999224,3.5225716 c 11.283077,-3e-7 20.429817,9.1467404 20.429817,20.4298174 0,11.283076 -9.14674,20.429818 -20.429817,20.429818 -11.283076,0 -20.4298177,-9.146742 -20.4298175,-20.429818 2e-7,-3.942622 1.1168156,-7.624397 3.0513471,-10.746226 M 30.81195,23.824049 a 2.1914215,2.1914215 0 0 1 -2.191421,2.191421 2.1914215,2.1914215 0 0 1 -2.191422,-2.191421 2.1914215,2.1914215 0 0 1 2.191422,-2.191422 2.1914215,2.1914215 0 0 1 2.191421,2.191422 z m -6.164761,-6.777587 h 10.699427 c 1.541804,0 2.783039,1.241235 2.783039,2.783039 v 7.989096 c 0,1.541805 -1.241235,2.78304 -2.783039,2.78304 H 24.647189 c -1.541802,0 -2.78304,-1.241235 -2.78304,-2.78304 v -7.989096 c 0,-1.541804 1.241238,-2.783039 2.78304,-2.783039 z m 11.189693,13.510221 v 2.746805 c 0,1.541803 -1.241238,2.783039 -2.783041,2.783039 H 14.41875 c -1.541803,0 -2.78304,-1.241236 -2.78304,-2.783039 V 14.60129 c 0,-1.541801 1.241237,-2.78304 2.78304,-2.78304 v 0 h 18.635091 c 1.541803,0 2.783041,1.241239 2.783041,2.78304 v 2.489521 M 1.4713584,16.569782 6.8619299,12.621907 7.5856044,19.264216" /></svg>
