<?xml version="1.0" encoding="UTF-8" standalone="no"?>
<!-- Created with Inkscape (http://www.inkscape.org/) -->

<svg
   width="48"
   height="48"
   viewBox="0 0 48 48"
   version="1.1"
   id="svg990"
   inkscape:version="1.2.2 (b0a8486541, 2022-12-01)"
   xml:space="preserve"
   sodipodi:docname="istanbulkart.svg"
   xmlns:inkscape="http://www.inkscape.org/namespaces/inkscape"
   xmlns:sodipodi="http://sodipodi.sourceforge.net/DTD/sodipodi-0.dtd"
   xmlns="http://www.w3.org/2000/svg"
   xmlns:svg="http://www.w3.org/2000/svg"><sodipodi:namedview
     id="namedview992"
     pagecolor="#858585"
     bordercolor="#000000"
     borderopacity="0.25"
     inkscape:showpageshadow="2"
     inkscape:pageopacity="0"
     inkscape:pagecheckerboard="0"
     inkscape:deskcolor="#d1d1d1"
     inkscape:document-units="px"
     showgrid="false"
     inkscape:zoom="11.645833"
     inkscape:cx="19.577818"
     inkscape:cy="24.042934"
     inkscape:window-width="1366"
     inkscape:window-height="737"
     inkscape:window-x="0"
     inkscape:window-y="0"
     inkscape:window-maximized="1"
     inkscape:current-layer="svg990" /><defs
     id="defs987"><style
       id="style1174">.a{fill:none;stroke:#fff;stroke-linecap:round;stroke-linejoin:round;}</style></defs><path
     id="path6584"
     style="fill:none;stroke:#ffffff;stroke-width:1;stroke-linecap:round;stroke-linejoin:round;stroke-dasharray:none;stroke-opacity:1"
     class="c"
     d="m 24.000312,41.069686 c 0,0 14.580557,-9.025858 16.470756,-19.34767 1.172321,-6.401701 -3.936462,-10.493049 -8.852228,-10.493049 -3.236342,0 -6.06074,1.73298 -7.618614,4.315933 -1.557962,-2.582953 -4.382273,-4.315933 -7.618616,-4.315933 -4.915765,0 -10.0269917,4.091774 -8.8520519,10.493049 1.8944039,10.321041 16.4707539,19.34767 16.4707539,19.34767 z m 18.499707,-8.04894 a 20.582142,20.582142 0 0 1 -9.479273,9.479273 m -18.04149,0 A 20.582142,20.582142 0 0 1 5.4999816,33.020746 m -2e-7,-18.04149 A 20.582142,20.582142 0 0 1 14.979256,5.4999815 m 18.086185,0.021861 a 20.582142,20.582142 0 0 1 9.412716,9.4127155 m -9.415187,-9.4076422 9.410114,10e-8 2e-6,9.4101181 m -1e-6,18.069375 -10e-7,9.466675 -9.466676,-10e-7 m -18.012818,10e-7 H 5.526916 l -2e-7,-9.466676 m 10e-8,-18.012818 1e-7,-9.4666741 v 0 l 9.466676,-2e-7" /></svg>
