<?xml version="1.0" encoding="UTF-8" standalone="no"?>
<!-- Created with Inkscape (http://www.inkscape.org/) -->

<svg
   width="48"
   height="48"
   viewBox="0 0 48 48"
   version="1.1"
   id="svg990"
   inkscape:version="1.2.2 (b0a8486541, 2022-12-01)"
   xml:space="preserve"
   sodipodi:docname="office.svg"
   xmlns:inkscape="http://www.inkscape.org/namespaces/inkscape"
   xmlns:sodipodi="http://sodipodi.sourceforge.net/DTD/sodipodi-0.dtd"
   xmlns="http://www.w3.org/2000/svg"
   xmlns:svg="http://www.w3.org/2000/svg"><sodipodi:namedview
     id="namedview992"
     pagecolor="#858585"
     bordercolor="#000000"
     borderopacity="0.25"
     inkscape:showpageshadow="2"
     inkscape:pageopacity="0"
     inkscape:pagecheckerboard="0"
     inkscape:deskcolor="#d1d1d1"
     inkscape:document-units="px"
     showgrid="false"
     inkscape:zoom="8.2348477"
     inkscape:cx="-5.9503226"
     inkscape:cy="33.880408"
     inkscape:window-width="1366"
     inkscape:window-height="737"
     inkscape:window-x="0"
     inkscape:window-y="0"
     inkscape:window-maximized="1"
     inkscape:current-layer="svg990" /><defs
     id="defs987"><style
       id="style1174">.a{fill:none;stroke:#fff;stroke-linecap:round;stroke-linejoin:round;}</style></defs><path
     id="path14151"
     style="fill:none;stroke:#ffffff;stroke-width:0.999997;stroke-linecap:round;stroke-linejoin:round;stroke-dasharray:none"
     class="cls-1"
     d="m 12.573697,17.299994 v -6.305683 h 1.069172 a 3.1528415,3.1528415 0 0 1 3.152841,3.152841 v 0 a 3.1528415,3.1528415 0 0 1 -3.152841,3.152842 z m -5.7346473,-0.01215 v -6.281383 h 2.114044 a 2.1079692,2.1079692 0 1 1 0,4.215938 H 6.8390497 M 18.308344,11.01861 v 6.281385 m 0,-3.140692 h 2.053299 M 18.308344,11.01861 h 3.146767 M 5.4999875,7.2294784 V 21.064827 a 1.7294185,1.7294185 0 0 0 1.7294185,1.729418 h 13.835348 a 1.7294185,1.7294185 0 0 0 1.729419,-1.729418 V 7.2294784 A 1.7294185,1.7294185 0 0 0 21.064754,5.5000598 H 7.229406 A 1.7294185,1.7294185 0 0 0 5.4999875,7.2294784 Z M 25.205827,7.2298045 V 21.065153 a 1.7294185,1.7294185 0 0 0 1.729418,1.729418 h 13.835349 a 1.7294185,1.7294185 0 0 0 1.729418,-1.729418 V 7.2298045 A 1.7294185,1.7294185 0 0 0 40.770594,5.500386 H 26.935245 A 1.7294185,1.7294185 0 0 0 25.205827,7.2298045 Z M 30.532436,18.471025 V 8.9592231 h 3.199424 a 3.1994243,3.1994243 0 0 1 0,6.3902019 h -3.199424 m -5.326609,11.585748 v 13.835349 a 1.7294185,1.7294185 0 0 0 1.729419,1.729418 h 13.835348 a 1.7294185,1.7294185 0 0 0 1.729418,-1.729418 V 26.935173 A 1.7294185,1.7294185 0 0 0 40.770594,25.205755 H 26.935246 a 1.7294185,1.7294185 0 0 0 -1.729419,1.729418 z m 11.829223,2.161773 -3.18213,4.755901 3.18213,4.755901 m -6.36426,-9.511802 3.18213,4.755901 -3.18213,4.755901 m -10.903099,-9.512127 -2.810305,9.511804 m -2.810306,-9.511804 2.810306,9.511804 M 14.14708,29.096621 11.336776,38.608425 M 8.5264702,29.096621 11.336776,38.608425 M 5.4999882,26.934848 v 13.835348 a 1.7294185,1.7294185 0 0 0 1.7294185,1.729419 H 21.064755 a 1.7294185,1.7294185 0 0 0 1.729419,-1.729419 V 26.934848 A 1.7294185,1.7294185 0 0 0 21.064755,25.205429 H 7.2294067 a 1.7294185,1.7294185 0 0 0 -1.7294185,1.729419 z" /></svg>
