<?xml version="1.0" encoding="UTF-8" standalone="no"?>
<!-- Created with Inkscape (http://www.inkscape.org/) -->

<svg
   width="48"
   height="48"
   viewBox="0 0 48 48"
   version="1.1"
   id="svg990"
   inkscape:version="1.2.2 (b0a8486541, 2022-12-01)"
   xml:space="preserve"
   sodipodi:docname="panda_express.svg"
   xmlns:inkscape="http://www.inkscape.org/namespaces/inkscape"
   xmlns:sodipodi="http://sodipodi.sourceforge.net/DTD/sodipodi-0.dtd"
   xmlns="http://www.w3.org/2000/svg"
   xmlns:svg="http://www.w3.org/2000/svg"><sodipodi:namedview
     id="namedview992"
     pagecolor="#858585"
     bordercolor="#000000"
     borderopacity="0.25"
     inkscape:showpageshadow="2"
     inkscape:pageopacity="0"
     inkscape:pagecheckerboard="0"
     inkscape:deskcolor="#d1d1d1"
     inkscape:document-units="px"
     showgrid="false"
     inkscape:zoom="5.6568542"
     inkscape:cx="44.901281"
     inkscape:cy="19.091883"
     inkscape:window-width="1366"
     inkscape:window-height="737"
     inkscape:window-x="0"
     inkscape:window-y="0"
     inkscape:window-maximized="1"
     inkscape:current-layer="svg990" /><defs
     id="defs987"><style
       id="style1174">.a{fill:none;stroke:#fff;stroke-linecap:round;stroke-linejoin:round;}</style></defs><path
     id="path1833"
     style="fill:none;stroke:#ffffff;stroke-width:1.00018;stroke-linecap:round;stroke-linejoin:round;stroke-dasharray:none;stroke-opacity:1;stop-color:#000000"
     d="m 12.729971,23.49866 c 1.013262,0.407689 1.388555,-0.468865 1.971426,-1.456281 1.487625,-2.520115 2.526481,-4.076477 0.173892,-5.167764 -1.694499,-0.786027 -6.0132107,3.510255 -2.145327,6.624045 z m 9.245153,-0.198727 c -0.553812,-2.662775 -2.697245,-4.84429 -0.07812,-5.973852 1.61435,-0.696231 4.316735,1.337277 3.236035,5.55586 -0.565172,1.868858 -2.836487,1.963425 -3.15791,0.417992 z m -4.44492,5.158977 h 0.559346 c 0.253734,-0.963259 1.061513,-0.958183 1.726608,-1.208545 0.348087,-0.131037 0.556984,-0.344778 0.460608,-0.697961 -1.700984,-0.03448 -2.541451,-0.0069 -3.937174,-0.45267 -0.271971,-0.08684 -0.732703,0.332381 -0.450065,0.672853 0.533131,0.642224 1.571865,0.916465 1.640677,1.686323 z M 25.374995,7.0332259 C 23.776156,6.2686764 21.928912,5.8367693 19.895012,5.9301897 18.149167,6.0103724 16.535552,6.370541 15.087443,6.9656711 M 8.6921713,23.428107 c 0.72546,1.222986 1.7575687,2.405136 3.1239527,3.49318 1.21221,0.965276 2.076879,1.721126 2.692046,2.326627 1.980782,2.065237 6.762491,1.440037 10.068854,-1.129209 6.573755,-1.971063 9.385111,-8.651498 6.665142,-14.916558 M 15.087443,6.9656711 C 12.291981,8.1145245 10.113286,10.138993 8.7907613,12.715322 3.3732951,8.5244281 11.244713,0.48669018 15.087443,6.9656711 M 8.7907613,12.715322 c -0.892545,1.738707 -1.395135,3.728766 -1.4341884,5.870659 -0.029274,1.605368 0.3959154,3.258 1.3355984,4.842126 -5.7572179,10.613587 2.6012387,21.956943 9.5497967,17.551247 0.798151,-0.506064 0.698442,-2.054437 -0.489369,-3.815751 -1.416241,-2.100037 0.268813,-4.894782 2.285252,-4.71778 3.270815,0.287108 3.072464,3.295403 1.976381,4.927471 -3.069731,4.570828 -0.599768,8.151292 6.172808,4.828619 2.820325,-1.383673 5.420899,-3.127256 5.870915,-6.255927 6.245725,0.830043 8.607449,-7.168709 6.302076,-15.138605 m 0,0 c -0.384733,-1.330064 -0.899452,-2.659324 -1.547791,-3.94661 m -7.139985,-4.117608 c 0.55218,-0.625246 0.955943,-1.23721 1.23314,-1.827318 2.496057,1.242236 4.819364,3.498618 5.906845,5.944926 m -5.906845,-5.944926 c 2.580882,-5.4942968 -5.809754,-9.0942386 -7.5304,-3.8826191 -0.789435,2.3910962 4.041882,2.8441202 5.133497,4.7208071 0.278393,0.478611 0.522675,0.962111 0.733674,1.448114 0.152367,-0.153709 0.295632,-0.306737 0.430089,-0.458984 3.038208,2.350031 4.128888,7.254942 4.361838,12.476337 0.13585,3.045068 2.724532,1.675774 3.879981,-0.836846 0.482792,-1.04987 0.318975,-2.373938 0.445957,-3.575273" /></svg>
