<?xml version="1.0" encoding="UTF-8" standalone="no"?>
<!-- Created with Inkscape (http://www.inkscape.org/) -->

<svg
   width="48"
   height="48"
   viewBox="0 0 48 48"
   version="1.1"
   id="svg990"
   inkscape:version="1.2.2 (b0a8486541, 2022-12-01)"
   xml:space="preserve"
   sodipodi:docname="pomodoro.svg"
   xmlns:inkscape="http://www.inkscape.org/namespaces/inkscape"
   xmlns:sodipodi="http://sodipodi.sourceforge.net/DTD/sodipodi-0.dtd"
   xmlns="http://www.w3.org/2000/svg"
   xmlns:svg="http://www.w3.org/2000/svg"><sodipodi:namedview
     id="namedview992"
     pagecolor="#858585"
     bordercolor="#000000"
     borderopacity="0.25"
     inkscape:showpageshadow="2"
     inkscape:pageopacity="0"
     inkscape:pagecheckerboard="0"
     inkscape:deskcolor="#d1d1d1"
     inkscape:document-units="px"
     showgrid="false"
     inkscape:zoom="11"
     inkscape:cx="24"
     inkscape:cy="24"
     inkscape:window-width="1366"
     inkscape:window-height="737"
     inkscape:window-x="0"
     inkscape:window-y="0"
     inkscape:window-maximized="1"
     inkscape:current-layer="svg990" /><defs
     id="defs987"><style
       id="style1174">.a{fill:none;stroke:#fff;stroke-linecap:round;stroke-linejoin:round;}</style></defs><path
     id="path2916"
     style="fill:none;stroke:#ffffff;stroke-width:1;stroke-linecap:round;stroke-linejoin:round;stroke-dasharray:none;stroke-opacity:1;stop-color:#000000"
     d="m 24,4.5000752 c 2.28982,1.8801591 2.819265,5.1366856 0,6.7708238 -2.819264,-1.6341382 -2.28982,-4.8906647 0,-6.7708238 z m 5.451964,7.6843688 C 29.513035,14.48037 26.353626,15.680743 24,15.131318 21.646376,15.680743 18.486965,14.48037 18.548036,12.184444 20.420132,10.838584 22.766585,11.950826 24,14.40702 c 1.233417,-2.456194 3.579868,-3.568436 5.451964,-2.222576 z m -7.977233,5.278534 C 19.743528,16.791313 18.511036,15.935637 17.362796,15.945746 2.1525731,16.079652 3.6829768,43.49991 24.000399,43.49991 c 20.317422,0 21.847427,-27.420257 6.637203,-27.554164 -1.155158,-0.01023 -2.383446,0.839632 -4.112332,1.517232 -1.732067,0.678845 -3.206844,0.715309 -5.050539,0 z" /></svg>
