<?xml version="1.0" encoding="UTF-8" standalone="no"?>
<!-- Created with Inkscape (http://www.inkscape.org/) -->

<svg
   width="48"
   height="48"
   viewBox="0 0 48 48"
   version="1.1"
   id="svg990"
   inkscape:version="1.2.2 (b0a8486541, 2022-12-01)"
   xml:space="preserve"
   sodipodi:docname="prezao_free.svg"
   xmlns:inkscape="http://www.inkscape.org/namespaces/inkscape"
   xmlns:sodipodi="http://sodipodi.sourceforge.net/DTD/sodipodi-0.dtd"
   xmlns="http://www.w3.org/2000/svg"
   xmlns:svg="http://www.w3.org/2000/svg"><sodipodi:namedview
     id="namedview992"
     pagecolor="#858585"
     bordercolor="#000000"
     borderopacity="0.25"
     inkscape:showpageshadow="2"
     inkscape:pageopacity="0"
     inkscape:pagecheckerboard="0"
     inkscape:deskcolor="#d1d1d1"
     inkscape:document-units="px"
     showgrid="false"
     inkscape:zoom="11.313708"
     inkscape:cx="22.804194"
     inkscape:cy="29.168155"
     inkscape:window-width="1366"
     inkscape:window-height="737"
     inkscape:window-x="0"
     inkscape:window-y="0"
     inkscape:window-maximized="1"
     inkscape:current-layer="svg990" /><defs
     id="defs987"><style
   id="style1174">.a{fill:none;stroke:#fff;stroke-linecap:round;stroke-linejoin:round;}</style>
		
		
	
		
		
	
		
	
		
		
	
			
		
				
			
		
		
	
			
		</defs><path
     id="line11595"
     style="fill:none;stroke:#ffffff;stroke-width:1;stroke-linecap:round;stroke-linejoin:round;stroke-miterlimit:10;stroke-dasharray:none;stroke-opacity:1"
     class="st5"
     d="m 24.114381,28.233972 h 2.192853 m -1.253059,4.229074 v -5.247184 c 0,-0.626529 0.469897,-1.096426 1.096427,-1.096426 v 0 c 0.548213,0 0.861478,0.156632 1.096426,0.469897 m 11.9513,-10.041466 -2.26362,2.222004 m 3.466995,2.522171 H 38.060895 M 34.36134,15.639337 v 2.340808 m -3.555726,-0.26783 c 0,0.405121 -0.337606,0.675203 -0.675203,0.675203 -0.405122,0 -0.540163,-0.202561 -0.675203,-0.337602 -0.135041,-0.135041 -0.270081,-0.337601 -0.675203,-0.337601 -0.405122,0 -0.675203,0.337601 -0.675203,0.675203 m 2.624344,5.864699 v -4.364433 m 0,2.747978 c 0,0.889051 -0.727401,1.616457 -1.616454,1.616457 v 0 c -0.889053,0 -1.616454,-0.727406 -1.616454,-1.616457 v -1.050697 c 0,-0.889051 0.727401,-1.616457 1.616454,-1.616457 v 0 c 0.889053,0 1.616454,0.727406 1.616454,1.616457 m 9.081191,10.054647 c -0.247001,0.494 -0.823338,0.823334 -1.399667,0.823334 v 0 c -0.905671,0 -1.646668,-0.741 -1.646668,-1.646667 v -1.070334 c 0,-0.905667 0.740997,-1.646667 1.646668,-1.646667 v 0 c 0.905664,0 1.646661,0.741 1.646661,1.646667 v 0.576334 h -3.293329 m -2.151666,1.317333 c -0.247002,0.494 -0.823338,0.823334 -1.399667,0.823334 v 0 c -0.905672,0 -1.646668,-0.741 -1.646668,-1.646667 v -1.070334 c 0,-0.905667 0.740996,-1.646667 1.646668,-1.646667 v 0 c 0.905664,0 1.646668,0.741 1.646668,1.646667 v 0.576334 h -3.293336 m -10.73324,-6.893655 c -0.247,0.494 -0.823333,0.823334 -1.399667,0.823334 v 0 c -0.905667,0 -1.646667,-0.741 -1.646667,-1.646667 v -1.070334 c 0,-0.905667 0.741,-1.646667 1.646667,-1.646667 v 0 c 0.905667,0 1.646668,0.741 1.646668,1.646667 v 0.576334 h -3.293335 m 4.928005,-2.223552 h 3.232916 l -3.232916,4.364434 h 3.232916 m 2.583024,3.846328 v 4.364445 m 0,-2.747982 c 0,-0.889054 0.727408,-1.616462 1.616462,-1.616462 v 0 M 14.710615,19.887613 v 4.364446 m 0,-2.747984 c 0,-0.889053 0.727407,-1.616461 1.616461,-1.616461 v 0 m 17.935641,4.364444 v 0 c -0.905672,0 -1.646668,-0.741001 -1.646668,-1.646667 v -1.070334 c 0,-0.905667 0.740996,-1.646667 1.646668,-1.646667 v 0 c 0.905664,0 1.646668,0.741 1.646668,1.646667 v 1.070334 c 0,0.905666 -0.741004,1.646667 -1.646668,1.646667 z M 8.5791925,24.179468 v -6.367187 h 2.0693355 c 1.193848,0 2.148927,0.955078 2.148927,2.148925 0,1.193848 -0.955079,2.148926 -2.148927,2.148926 H 8.5791925 M 40.499997,5.5 H 7.5000002 A 2,2 0 0 0 5.5000001,7.5000002 V 40.5 a 2,2 0 0 0 2.0000001,2 H 40.499997 a 2,2 0 0 0 2,-2 V 7.5000002 a 2,2 0 0 0 -2,-2.0000002 z" /></svg>
