<?xml version="1.0" encoding="UTF-8" standalone="no"?>
<!-- Created with Inkscape (http://www.inkscape.org/) -->

<svg
   width="48"
   height="48"
   viewBox="0 0 48 48"
   version="1.1"
   id="svg990"
   inkscape:version="1.2.2 (b0a8486541, 2022-12-01)"
   xml:space="preserve"
   sodipodi:docname="quicklyric.svg"
   xmlns:inkscape="http://www.inkscape.org/namespaces/inkscape"
   xmlns:sodipodi="http://sodipodi.sourceforge.net/DTD/sodipodi-0.dtd"
   xmlns="http://www.w3.org/2000/svg"
   xmlns:svg="http://www.w3.org/2000/svg"><sodipodi:namedview
     id="namedview992"
     pagecolor="#858585"
     bordercolor="#000000"
     borderopacity="0.25"
     inkscape:showpageshadow="2"
     inkscape:pageopacity="0"
     inkscape:pagecheckerboard="0"
     inkscape:deskcolor="#d1d1d1"
     inkscape:document-units="px"
     showgrid="false"
     inkscape:zoom="11.645833"
     inkscape:cx="15.627907"
     inkscape:cy="24.042934"
     inkscape:window-width="1366"
     inkscape:window-height="737"
     inkscape:window-x="0"
     inkscape:window-y="0"
     inkscape:window-maximized="1"
     inkscape:current-layer="svg990" /><defs
     id="defs987"><style
       id="style1174">.a{fill:none;stroke:#fff;stroke-linecap:round;stroke-linejoin:round;}</style></defs><path
     id="path11921-7-5"
     style="fill:none;stroke:#ffffff;stroke-width:0.999978;stroke-linecap:round;stroke-linejoin:round;stroke-dasharray:none;stroke-opacity:1;stop-color:#000000"
     d="m 29.420883,26.431091 h 4.741891 m -4.74189,-3.868513 h 8.126843 m -8.126843,-3.868513 h 8.126843 M 16.477245,28.696347 c 0.02907,-1.676326 -1.306184,-3.058768 -2.982508,-3.087846 -1.676324,-0.02908 -3.058768,1.306184 -3.087845,2.982509 -6.39e-4,0.03512 -6.39e-4,0.07022 0,0.105337 7.31e-4,1.676506 1.360408,3.035085 3.036915,3.034354 1.675593,-7.32e-4 3.033895,-1.358853 3.034536,-3.034354 v -8.440598 h 3.559388 M 28.235074,5.6410184 h 11.363552 c 1.607367,0 2.901385,1.2940194 2.901385,2.9013852 V 36.072578 c 0,1.607366 -1.294018,2.901385 -2.901385,2.901385 H 23.16448 M 28.234832,5.6410321 19.856674,38.973221 22.371096,42.35824 M 27.36386,9.0260376 H 8.4013742 v 0 c -1.6073659,0 -2.9013852,1.2940194 -2.9013852,2.9013864 v 27.530173 c 0,1.607365 1.2940193,2.901385 2.9013852,2.901385 H 19.855592 l 2.515504,-7.42e-4 0.793492,-3.384277 h -3.308621" /></svg>
