<?xml version="1.0" encoding="UTF-8" standalone="no"?>
<svg
   viewBox="0 0 48 48"
   version="1.1"
   id="svg18037"
   sodipodi:docname="share.svg"
   inkscape:version="1.2.2 (b0a8486541, 2022-12-01)"
   xmlns:inkscape="http://www.inkscape.org/namespaces/inkscape"
   xmlns:sodipodi="http://sodipodi.sourceforge.net/DTD/sodipodi-0.dtd"
   xmlns="http://www.w3.org/2000/svg"
   xmlns:svg="http://www.w3.org/2000/svg">
  <sodipodi:namedview
     id="namedview18039"
     pagecolor="#ffffff"
     bordercolor="#000000"
     borderopacity="0.25"
     inkscape:showpageshadow="2"
     inkscape:pageopacity="0.0"
     inkscape:pagecheckerboard="0"
     inkscape:deskcolor="#d1d1d1"
     showgrid="false"
     inkscape:zoom="11.645833"
     inkscape:cx="15.627907"
     inkscape:cy="24.042934"
     inkscape:window-width="1366"
     inkscape:window-height="737"
     inkscape:window-x="0"
     inkscape:window-y="0"
     inkscape:window-maximized="1"
     inkscape:current-layer="svg18037" />
  <defs
     id="defs18025">
    <style
       id="style18023">.a{fill:none;stroke:#fff;stroke-linecap:round;stroke-linejoin:round;}</style>
  </defs>
  <path
     id="line18035"
     style="fill:none;stroke:#ffffff;stroke-linecap:round;stroke-linejoin:round"
     class="a"
     d="m 30,15 -12.1,6.07 m 0,5.86 12.18,6.110001 M 42.500001,35.93 a 6.5500002,6.5500002 0 0 1 -6.55,6.55 6.5500002,6.5500002 0 0 1 -6.55,-6.55 6.5500002,6.5500002 0 0 1 6.55,-6.55 6.5500002,6.5500002 0 0 1 6.55,6.55 z M 42.399999,12.07 a 6.5500002,6.5500002 0 0 1 -6.550001,6.55 6.5500002,6.5500002 0 0 1 -6.55,-6.55 6.5500002,6.5500002 0 0 1 6.55,-6.5500005 A 6.5500002,6.5500002 0 0 1 42.399999,12.07 Z M 18.6,24 A 6.5500002,6.5500002 0 0 1 12.05,30.55 6.5500002,6.5500002 0 0 1 5.5,24 6.5500002,6.5500002 0 0 1 12.05,17.45 6.5500002,6.5500002 0 0 1 18.6,24 Z" />
</svg>
