<?xml version="1.0" encoding="UTF-8" standalone="no"?>
<!-- Created with Inkscape (http://www.inkscape.org/) -->

<svg
   width="48"
   height="48"
   viewBox="0 0 48 48"
   version="1.1"
   id="svg990"
   inkscape:version="1.2.2 (b0a8486541, 2022-12-01)"
   xml:space="preserve"
   sodipodi:docname="stylish_text.svg"
   xmlns:inkscape="http://www.inkscape.org/namespaces/inkscape"
   xmlns:sodipodi="http://sodipodi.sourceforge.net/DTD/sodipodi-0.dtd"
   xmlns="http://www.w3.org/2000/svg"
   xmlns:svg="http://www.w3.org/2000/svg"><sodipodi:namedview
     id="namedview992"
     pagecolor="#858585"
     bordercolor="#000000"
     borderopacity="0.25"
     inkscape:showpageshadow="2"
     inkscape:pageopacity="0"
     inkscape:pagecheckerboard="0"
     inkscape:deskcolor="#d1d1d1"
     inkscape:document-units="px"
     showgrid="false"
     inkscape:zoom="8.2348477"
     inkscape:cx="18.943884"
     inkscape:cy="33.273232"
     inkscape:window-width="1366"
     inkscape:window-height="737"
     inkscape:window-x="0"
     inkscape:window-y="0"
     inkscape:window-maximized="1"
     inkscape:current-layer="svg990" /><defs
     id="defs987"><style
       id="style1174">.a{fill:none;stroke:#fff;stroke-linecap:round;stroke-linejoin:round;}</style></defs><path
     id="path16841"
     style="fill:none;stroke:#ffffff;stroke-width:1.00017;stroke-linecap:round;stroke-linejoin:round;stroke-dasharray:none;stroke-opacity:1;stop-color:#000000"
     d="m 14.29124,36.825477 c 0.197305,-0.286753 0.586999,-0.358764 0.873751,-0.161459 l 1.549005,1.065818 c 0.286753,0.197305 0.358765,0.586998 0.161461,0.873752 l -2.346504,0.64335 z M 36.533763,5.6077278 38.082769,6.6735461 c 0.286753,0.197304 0.358765,0.586998 0.16146,0.873753 l -1.054395,1.532402 c -0.197307,0.286754 -0.586999,0.358765 -0.873752,0.16146 l -1.549007,-1.065819 c -0.286753,-0.197305 -0.358762,-0.586998 -0.161458,-0.87375 l 1.054396,-1.5324057 c 0.197304,-0.2867532 0.586997,-0.3587637 0.87375,-0.1614586 z m -2.735325,3.9743943 1.549006,1.0658179 c 0.286753,0.197305 0.358764,0.586998 0.16146,0.873751 L 18.555462,36.160963 c -0.197305,0.286753 -0.586997,0.358764 -0.873752,0.161458 l -1.549006,-1.065818 c -0.286752,-0.197305 -0.358765,-0.586998 -0.161458,-0.87375 L 32.924687,9.7435801 c 0.197305,-0.286753 0.586999,-0.358763 0.873751,-0.161458 z m -1.37175,0.7880059 C 30.492214,8.2896971 29.052036,6.9672431 25.698086,5.6007576 24.16698,5.6329986 21.561968,6.6851781 19.492418,9.1642741 18.074136,10.863224 17.432033,12.57903 17.560056,14.143283 m 11.720246,6.419867 c 3.735875,0.506302 7.826821,1.651193 9.868713,4.815734 3.096561,4.799074 1.646924,12.695087 -5.805362,16.195334 -3.129551,1.469912 -5.656219,1.044344 -7.130874,-0.211046 -4.966055,-4.227658 -4.889173,-3.976455 -7.19543,-5.549723 m -2.773708,-1.855395 c -10.614118,-6.241735 -11.7922709,6.566473 -3.336502,6.743432 7.094452,0.148468 20.034408,-2.462292 20.406069,-8.344068 0.212577,-3.364178 -4.978507,-4.12741 -9.046175,-4.507748 m 0,0 c -0.664291,-0.06211 -1.298622,-0.114012 -1.874562,-0.165365 -0.584003,-0.05208 -1.139993,-0.12522 -1.668667,-0.217527 m 0,0 C 9.359463,25.482592 10.616839,14.648525 17.560056,14.143283 c 0.231342,2.826669 2.977452,5.15847 8.202569,6.001692" /></svg>
