<?xml version="1.0" encoding="UTF-8" standalone="no"?>
<!-- Created with Inkscape (http://www.inkscape.org/) -->

<svg
   width="48"
   height="48"
   viewBox="0 0 48 48"
   version="1.1"
   id="svg990"
   inkscape:version="1.2.2 (b0a8486541, 2022-12-01)"
   xml:space="preserve"
   sodipodi:docname="tv_remote.svg"
   xmlns:inkscape="http://www.inkscape.org/namespaces/inkscape"
   xmlns:sodipodi="http://sodipodi.sourceforge.net/DTD/sodipodi-0.dtd"
   xmlns="http://www.w3.org/2000/svg"
   xmlns:svg="http://www.w3.org/2000/svg"><sodipodi:namedview
     id="namedview992"
     pagecolor="#858585"
     bordercolor="#000000"
     borderopacity="0.25"
     inkscape:showpageshadow="2"
     inkscape:pageopacity="0"
     inkscape:pagecheckerboard="0"
     inkscape:deskcolor="#d1d1d1"
     inkscape:document-units="px"
     showgrid="false"
     inkscape:zoom="11.645833"
     inkscape:cx="10.13238"
     inkscape:cy="17.173525"
     inkscape:window-width="1366"
     inkscape:window-height="737"
     inkscape:window-x="0"
     inkscape:window-y="0"
     inkscape:window-maximized="1"
     inkscape:current-layer="svg990" /><defs
     id="defs987"><style
       id="style1174">.a{fill:none;stroke:#fff;stroke-linecap:round;stroke-linejoin:round;}</style></defs><path
     id="path4298"
     style="fill:none;stroke:#ffffff;stroke-width:1;stroke-linecap:round;stroke-linejoin:round;stroke-dasharray:none;stroke-opacity:1;stop-color:#000000"
     d="m 24.938685,6.9414691 a 16.288207,16.288207 0 0 1 0.90388,5.3505289 v 0 a 16.288207,16.288207 0 0 1 -1.558127,6.95201 m -9.326318,8.4137 A 16.288207,16.288207 0 0 1 9.554358,28.580205 16.288207,16.288207 0 0 1 4.6130021,27.812588 M 18.235203,7.0105792 a 10.161223,10.161223 0 0 1 1.480378,5.2814188 v 0 A 10.161223,10.161223 0 0 1 9.554358,22.453222 10.161223,10.161223 0 0 1 4.5000258,21.106996 M 25.485302,41.058531 h 11.198722 m -9.082568,-6.465765 v -9.119384 l 8.519242,4.559692 z M 20.836443,21.752995 h 20.496441 c 1.200568,0 2.167091,0.966522 2.167091,2.167091 v 12.494562 c 0,1.200569 -0.966523,2.167091 -2.167091,2.167091 H 20.836443 c -1.200569,0 -2.167091,-0.966522 -2.167091,-2.167091 V 23.920086 c 0,-1.200569 0.966522,-2.167091 2.167091,-2.167091 z" /></svg>
