<?xml version="1.0" encoding="UTF-8" standalone="no"?>
<!-- Created with Inkscape (http://www.inkscape.org/) -->

<svg
   width="48"
   height="48"
   viewBox="0 0 48 48"
   version="1.1"
   id="svg990"
   inkscape:version="1.2.2 (b0a8486541, 2022-12-01)"
   xml:space="preserve"
   sodipodi:docname="viral.svg"
   xmlns:inkscape="http://www.inkscape.org/namespaces/inkscape"
   xmlns:sodipodi="http://sodipodi.sourceforge.net/DTD/sodipodi-0.dtd"
   xmlns="http://www.w3.org/2000/svg"
   xmlns:svg="http://www.w3.org/2000/svg"><sodipodi:namedview
     id="namedview992"
     pagecolor="#858585"
     bordercolor="#000000"
     borderopacity="0.25"
     inkscape:showpageshadow="2"
     inkscape:pageopacity="0"
     inkscape:pagecheckerboard="0"
     inkscape:deskcolor="#d1d1d1"
     inkscape:document-units="px"
     showgrid="false"
     inkscape:zoom="11"
     inkscape:cx="24"
     inkscape:cy="24"
     inkscape:window-width="1366"
     inkscape:window-height="737"
     inkscape:window-x="0"
     inkscape:window-y="0"
     inkscape:window-maximized="1"
     inkscape:current-layer="svg990" /><defs
     id="defs987"><style
       id="style1174">.a{fill:none;stroke:#fff;stroke-linecap:round;stroke-linejoin:round;}</style></defs><path
     id="path4740"
     style="display:inline;fill:none;stroke:#ffffff;stroke-linecap:round;stroke-linejoin:round;stroke-opacity:1;stop-color:#000000"
     d="m 36.843283,42.500138 -5.912046,-5.912046 m 0,0 -3.605429,-3.605429 m 0,0 -4.904244,-4.904245 m 19.492305,13.835456 -7.753825,-7.753826 m 0,0 -3.41012,-3.41012 m 0,0 -3.654256,-3.654255 m 0.986652,-4.670206 4.900335,4.900335 m 0,0 3.605429,3.60543 m 0,0 5.912046,5.912046 m -21.595944,-9.747465 -3.662239,3.66224 M 5.5000498,24 H 14.41829 M 24,5.4997898 V 20.018869 M 41.910785,6.0892156 26.814552,21.185448 m 0,0 -0.906281,0.906282 M 6.0853087,6.085309 21.185448,21.185448 m 4.762721,0.944777 C 25.456773,21.618358 24.765594,21.29974 24,21.29974 c -1.491311,0 -2.70026,1.208949 -2.70026,2.70026 0,1.491311 1.208949,2.70026 2.70026,2.70026 1.491311,0 2.70026,-1.208949 2.70026,-2.70026 0,-0.725716 -0.28629,-1.384568 -0.752091,-1.869775 m 1.245694,-1.123375 c 0.733884,0.782781 1.183303,1.835484 1.183303,2.99315 0,2.41744 -1.959726,4.377166 -4.377166,4.377166 -2.41744,0 -4.377166,-1.959726 -4.377166,-4.377166 0,-1.205105 0.487005,-2.296466 1.274943,-3.088008 l 0.241831,0.31864 c 0.723758,-0.747396 1.737821,-1.21199 2.860392,-1.21199 1.137573,0 2.163718,0.477095 2.889253,1.242107 l 0.30461,-0.253899 v 0 M 33.582362,24 A 9.5823622,9.5823622 0 0 1 24,33.582362 9.5823622,9.5823622 0 0 1 14.417638,24 9.5823622,9.5823622 0 0 1 24,14.417638 9.5823622,9.5823622 0 0 1 33.582362,24 v 0 m 4.824571,0 A 14.406933,14.406933 0 0 1 24,38.406933 14.406933,14.406933 0 0 1 9.5930672,24 14.406933,14.406933 0 0 1 24,9.5930672 14.406933,14.406933 0 0 1 38.406933,24 v 0 M 40.5,5.4999999 h -33 a 2,2 0 0 0 -1.9999999,2 V 40.5 A 2,2 0 0 0 7.5,42.5 h 33 a 2,2 0 0 0 2,-2 V 7.4999999 a 2,2 0 0 0 -2,-2 z" /></svg>
