<?xml version="1.0" encoding="UTF-8" standalone="no"?>
<!-- Created with Inkscape (http://www.inkscape.org/) -->

<svg
   width="48"
   height="48"
   viewBox="0 0 48 48"
   version="1.1"
   id="svg990"
   inkscape:version="1.2.2 (b0a8486541, 2022-12-01)"
   xml:space="preserve"
   sodipodi:docname="worldcoin.svg"
   xmlns:inkscape="http://www.inkscape.org/namespaces/inkscape"
   xmlns:sodipodi="http://sodipodi.sourceforge.net/DTD/sodipodi-0.dtd"
   xmlns="http://www.w3.org/2000/svg"
   xmlns:svg="http://www.w3.org/2000/svg"><sodipodi:namedview
     id="namedview992"
     pagecolor="#858585"
     bordercolor="#000000"
     borderopacity="0.25"
     inkscape:showpageshadow="2"
     inkscape:pageopacity="0"
     inkscape:pagecheckerboard="0"
     inkscape:deskcolor="#d1d1d1"
     inkscape:document-units="px"
     showgrid="false"
     inkscape:zoom="5.6568542"
     inkscape:cx="6.0104076"
     inkscape:cy="30.052038"
     inkscape:window-width="1366"
     inkscape:window-height="737"
     inkscape:window-x="0"
     inkscape:window-y="0"
     inkscape:window-maximized="1"
     inkscape:current-layer="svg990" /><defs
     id="defs987"><style
       id="style1174">.a{fill:none;stroke:#fff;stroke-linecap:round;stroke-linejoin:round;}</style></defs><path
     id="path292"
     style="fill:none;stroke:#ffffff;stroke-width:1;stroke-linecap:round;stroke-linejoin:round;stroke-dasharray:none;stroke-opacity:1;stop-color:#000000"
     d="m 2.5000016,24.015431 c 0,-11.882468 9.6258744,-21.5151094 21.5000004,-21.5151094 7.909479,0 14.821408,4.274038 18.555279,10.6400834 m 0,0 c 1.871609,3.190988 2.944717,6.907601 2.944717,10.875026 m 0,0 H 13.679461 c 0,-4.575497 2.579599,-10.875724 12.652463,-10.875724 h 16.223357 m -28.87582,10.84486 H 2.5000016 c 0,11.882466 9.6258744,21.515111 21.5000004,21.515111 7.909479,0 14.821408,-4.274041 18.555279,-10.640082 m 0,0 c 1.871609,-3.190989 2.944717,-6.907604 2.944717,-10.875029 m -31.820537,-1.04e-4 c 0,4.575499 2.579599,10.875828 12.652463,10.875828 h 16.223357"
     sodipodi:nodetypes="cccscccccccsccccsc" /></svg>
