<?xml version="1.0" encoding="UTF-8" standalone="no"?>
<!-- Created with Inkscape (http://www.inkscape.org/) -->

<svg
   width="48"
   height="48"
   viewBox="0 0 48 48"
   version="1.1"
   id="svg990"
   inkscape:version="1.2.1 (9c6d41e, 2022-07-14)"
   xml:space="preserve"
   sodipodi:docname="dukto.svg"
   xmlns:inkscape="http://www.inkscape.org/namespaces/inkscape"
   xmlns:sodipodi="http://sodipodi.sourceforge.net/DTD/sodipodi-0.dtd"
   xmlns="http://www.w3.org/2000/svg"
   xmlns:svg="http://www.w3.org/2000/svg"><sodipodi:namedview
     id="namedview992"
     pagecolor="#858585"
     bordercolor="#000000"
     borderopacity="0.25"
     inkscape:showpageshadow="2"
     inkscape:pageopacity="0"
     inkscape:pagecheckerboard="0"
     inkscape:deskcolor="#d1d1d1"
     inkscape:document-units="px"
     showgrid="false"
     inkscape:zoom="8.072484"
     inkscape:cx="17.157049"
     inkscape:cy="18.457763"
     inkscape:window-width="1366"
     inkscape:window-height="737"
     inkscape:window-x="0"
     inkscape:window-y="0"
     inkscape:window-maximized="1"
     inkscape:current-layer="svg990" /><defs
     id="defs987"><style
       id="style1174">.a{fill:none;stroke:#fff;stroke-linecap:round;stroke-linejoin:round;}</style></defs><path
     id="rect3089"
     style="fill:none;stroke:#fff;stroke-width:1;stroke-linecap:round;stroke-linejoin:round;stroke-dasharray:none;stroke-opacity:1;stop-color:#000000"
     d="m 19.688459,4.8296026 h 8.623083 c 6.094399,0 11.000721,0.777889 11.000721,1.7441476 V 20.987706 c 0,0.966259 -4.906322,1.744146 -11.000721,1.744146 h -8.623083 c -6.094398,0 -11.0007214,-0.777887 -11.0007214,-1.744146 V 6.5737502 c 0,-0.9662586 4.9063234,-1.7441476 11.0007214,-1.7441476 z" /><path
     id="path4364"
     style="fill:none;stroke:#fff;stroke-width:1;stroke-linecap:round;stroke-linejoin:round;stroke-dasharray:none;stroke-opacity:1;stop-color:#000000"
     d="m 33.820442,23.233651 c 0.0021,0.01582 0.0034,0.03164 0.0034,0.04754 v 18.11523 c 0,0.982782 -4.415255,1.773973 -9.89967,1.773973 -5.484413,0 -9.899669,-0.791191 -9.899669,-1.773973 V 23.281189 c 0,-0.01582 0.0012,-0.03174 0.0034,-0.04752" /></svg>
