<?xml version="1.0" encoding="UTF-8" standalone="no"?>
<!-- Created with Inkscape (http://www.inkscape.org/) -->

<svg
   width="48"
   height="48"
   viewBox="0 0 48 48"
   version="1.1"
   id="svg990"
   inkscape:version="1.2.1 (9c6d41e, 2022-07-14)"
   xml:space="preserve"
   sodipodi:docname="huffazulmutoon.svg"
   xmlns:inkscape="http://www.inkscape.org/namespaces/inkscape"
   xmlns:sodipodi="http://sodipodi.sourceforge.net/DTD/sodipodi-0.dtd"
   xmlns="http://www.w3.org/2000/svg"
   xmlns:svg="http://www.w3.org/2000/svg"><sodipodi:namedview
     id="namedview992"
     pagecolor="#858585"
     bordercolor="#000000"
     borderopacity="0.25"
     inkscape:showpageshadow="2"
     inkscape:pageopacity="0"
     inkscape:pagecheckerboard="0"
     inkscape:deskcolor="#d1d1d1"
     inkscape:document-units="px"
     showgrid="false"
     inkscape:zoom="11"
     inkscape:cx="15.590909"
     inkscape:cy="24"
     inkscape:window-width="1366"
     inkscape:window-height="737"
     inkscape:window-x="0"
     inkscape:window-y="0"
     inkscape:window-maximized="1"
     inkscape:current-layer="svg990" /><defs
     id="defs987"><style
       id="style1174">.a{fill:none;stroke:#fff;stroke-linecap:round;stroke-linejoin:round;}</style></defs><path
     style="fill:none;fill-opacity:0.941176;stroke:#fff;stroke-width:1;stroke-linecap:round;stroke-linejoin:round;stroke-dasharray:none;stroke-opacity:1;stop-color:#000000"
     d="M 8.2285532,37.354949 C 4.5978423,31.582721 4.7263424,20.935488 8.8337272,19.328479 8.0510331,14.401158 13.803921,11.793872 15.983195,11.667714 16.813047,8.7140248 18.835577,7.7001463 20.736688,6.4823274 22.376515,5.4318822 23.301964,4.1530537 24,2.9873254 c 0.698036,1.1657283 1.623484,2.4445568 3.263311,3.495002 1.901111,1.2178189 3.923641,2.2316974 4.753494,5.1853866 2.179273,0.126158 7.932161,2.733444 7.149467,7.660765 4.107386,1.607009 4.235886,12.254242 0.605174,18.02647 -3.064813,4.872544 -8.650767,7.953115 -15.771447,7.635382 -7.120678,0.317733 -12.706632,-2.762838 -15.7714458,-7.635382 z"
     id="path3018"
     sodipodi:nodetypes="sccscsccscs" /></svg>
