<?xml version="1.0" encoding="UTF-8" standalone="no"?>
<!-- Created with Inkscape (http://www.inkscape.org/) -->

<svg
   width="48"
   height="48"
   viewBox="0 0 48 48"
   version="1.1"
   id="svg990"
   inkscape:version="1.2.1 (9c6d41e, 2022-07-14)"
   xml:space="preserve"
   sodipodi:docname="mykid.svg"
   xmlns:inkscape="http://www.inkscape.org/namespaces/inkscape"
   xmlns:sodipodi="http://sodipodi.sourceforge.net/DTD/sodipodi-0.dtd"
   xmlns="http://www.w3.org/2000/svg"
   xmlns:svg="http://www.w3.org/2000/svg"><sodipodi:namedview
     id="namedview992"
     pagecolor="#858585"
     bordercolor="#000000"
     borderopacity="0.25"
     inkscape:showpageshadow="2"
     inkscape:pageopacity="0"
     inkscape:pagecheckerboard="0"
     inkscape:deskcolor="#d1d1d1"
     inkscape:document-units="px"
     showgrid="false"
     inkscape:zoom="11"
     inkscape:cx="7.7727273"
     inkscape:cy="24"
     inkscape:window-width="1366"
     inkscape:window-height="737"
     inkscape:window-x="0"
     inkscape:window-y="0"
     inkscape:window-maximized="1"
     inkscape:current-layer="svg990" /><defs
     id="defs987"><style
   id="style1174">.a{fill:none;stroke:#fff;stroke-linecap:round;stroke-linejoin:round;}</style>
		
		
	
			
			
		</defs><line
     class="st5"
     x1="24.855568"
     y1="31.013699"
     x2="24.855568"
     y2="41.031502"
     id="line6250"
     style="fill:none;stroke:#fff;stroke-width:1;stroke-linecap:round;stroke-linejoin:round;stroke-miterlimit:10;stroke-dasharray:none;stroke-opacity:1" /><path
     class="st5"
     d="M 28.689714,40.986999 V 30.969197 h 2.254005 c 2.379228,0 4.382789,2.00356 4.382789,4.382788 v 1.252225 c 0,2.379228 -2.003561,4.382789 -4.382789,4.382789 z"
     id="path6640"
     style="fill:none;stroke:#fff;stroke-width:1;stroke-linecap:round;stroke-linejoin:round;stroke-miterlimit:10;stroke-dasharray:none;stroke-opacity:1" /><line
     class="st5"
     x1="16.388983"
     y1="30.969833"
     x2="16.388983"
     y2="40.987038"
     id="line7575"
     style="fill:none;stroke:#fff;stroke-width:1;stroke-linecap:round;stroke-linejoin:round;stroke-miterlimit:10;stroke-dasharray:none;stroke-opacity:1" /><line
     class="st5"
     x1="16.388983"
     y1="37.481014"
     x2="21.653677"
     y2="30.969833"
     id="line7577"
     style="fill:none;stroke:#fff;stroke-width:1;stroke-linecap:round;stroke-linejoin:round;stroke-miterlimit:10;stroke-dasharray:none;stroke-opacity:1" /><line
     class="st5"
     x1="21.653677"
     y1="40.987038"
     x2="17.642477"
     y2="35.978436"
     id="line7581"
     style="fill:none;stroke:#fff;stroke-width:1;stroke-linecap:round;stroke-linejoin:round;stroke-miterlimit:10;stroke-dasharray:none;stroke-opacity:1" /><path
     style="fill:none;fill-opacity:0.941176;stroke:#fff;stroke-width:1;stroke-linecap:round;stroke-linejoin:round;stroke-dasharray:none;stroke-opacity:1;stop-color:#000000"
     d="m 42.975392,14.465794 c 1.872122,0.848902 -0.207609,6.944425 -4.171556,4.988687 l -0.940719,2.361505 c 0.282805,2.363086 1.964452,4.937232 0.169388,7.036865 -2.612155,3.055361 -5.099204,0.778655 -2.725251,-3.864635 l -2.632977,-3.743553 c -3.453434,5.90032 -8.393951,10.045568 -8.759194,-3.7315 l -1.856456,4.194494 c -0.24482,1.938163 0.593596,4.096668 -0.937548,5.913238 -1.089006,1.292012 -6.587237,2.619855 -2.96779,-3.626372 l -2.083392,-4.732154 c -3.894709,28.086613 -18.605611,7.602688 -7.9190812,6.054447 0.1417977,9.196769 4.3600522,4.154907 5.5784652,-7.086749 0.240446,-2.218465 -0.170151,-3.357224 -0.590655,-4.524697 -1.388918,-4.5968898 3.043002,-7.4946865 5.253122,-5.5122425 0.390156,0.3499641 0.80772,0.2395036 -0.920969,4.0697815 l 3.566928,6.989678 2.556888,-6.388106 c 0.306888,-5.9011687 3.574998,-6.4645739 4.828698,-5.6222316 1.433877,0.9634 -0.704099,3.2688506 -1.53567,5.0498806 1.426577,7.808214 0.5881,14.280198 4.720402,6.523778 -2.351779,-3.757048 -0.994522,-5.661412 0.91818,-6.745269 1.642975,-0.931012 2.671402,-0.06549 2.292373,0.972276 -0.924872,2.532254 0.156504,3.972207 1.119292,5.61229 0.711938,1.212767 1.214715,-0.06167 1.175862,-1.476052 -0.68003,-3.20596 -1.0115,-5.981339 0.699681,-6.233411 3.942965,1.556099 1.670963,4.607007 1.905762,5.841858 0.448121,2.356748 2.295,-0.513309 3.256217,-2.321806 z"
     id="path7889"
     sodipodi:nodetypes="cccsccccscccscscccsccsssccsc" /></svg>
