<?xml version="1.0" encoding="UTF-8" standalone="no"?>
<!-- Created with Inkscape (http://www.inkscape.org/) -->

<svg
   width="48"
   height="48"
   viewBox="0 0 48 48"
   version="1.1"
   id="svg990"
   inkscape:version="1.2.1 (9c6d41e, 2022-07-14)"
   xml:space="preserve"
   sodipodi:docname="nesemu.svg"
   xmlns:inkscape="http://www.inkscape.org/namespaces/inkscape"
   xmlns:sodipodi="http://sodipodi.sourceforge.net/DTD/sodipodi-0.dtd"
   xmlns="http://www.w3.org/2000/svg"
   xmlns:svg="http://www.w3.org/2000/svg"><sodipodi:namedview
     id="namedview992"
     pagecolor="#858585"
     bordercolor="#000000"
     borderopacity="0.25"
     inkscape:showpageshadow="2"
     inkscape:pageopacity="0"
     inkscape:pagecheckerboard="0"
     inkscape:deskcolor="#d1d1d1"
     inkscape:document-units="px"
     showgrid="false"
     inkscape:zoom="11"
     inkscape:cx="7.7727273"
     inkscape:cy="24"
     inkscape:window-width="1366"
     inkscape:window-height="737"
     inkscape:window-x="0"
     inkscape:window-y="0"
     inkscape:window-maximized="1"
     inkscape:current-layer="svg990" /><defs
     id="defs987"><style
   id="style1174">.a{fill:none;stroke:#fff;stroke-linecap:round;stroke-linejoin:round;}</style>
		
		
	
		
		
	
		
		
	
		
		
	
		
	
		
		
		
	
			
		</defs><path
     class="a"
     d="m 40.5,5.4999999 h -33 a 2,2 0 0 0 -1.9999999,2 V 40.5 A 2,2 0 0 0 7.5,42.5 h 33 a 2,2 0 0 0 2,-2 V 7.4999999 a 2,2 0 0 0 -2,-2 z"
     id="path1178"
     inkscape:label="references"
     style="fill:none;stroke:#fff;stroke-width:1;stroke-dasharray:none;stroke-opacity:1" /><path
     class="st5"
     d="m 31.206473,29.494669 v 3.890679 c 0,1.296893 1.061095,2.357988 2.357988,2.357988 v 0 c 1.296893,0 2.357988,-1.061095 2.357988,-2.357988 v -3.890679"
     id="path9461"
     style="fill:none;stroke:#fff;stroke-width:1;stroke-linecap:round;stroke-linejoin:round;stroke-miterlimit:10;stroke-dasharray:none;stroke-opacity:1" /><path
     id="line9463"
     style="fill:none;stroke:#fff;stroke-linecap:round;stroke-linejoin:round;stroke-miterlimit:10;stroke-opacity:1;stroke-width:1;stroke-dasharray:none"
     class="st5"
     d="m 35.922451,33.50325 v 2.357983" /><path
     class="st5"
     d="m 19.284018,31.852657 c 0,-1.296894 1.061095,-2.357988 2.357988,-2.357988 v 0 c 1.296893,0 2.357987,1.061094 2.357987,2.357988 v 3.890679"
     id="path9471"
     style="fill:none;stroke:#fff;stroke-width:1;stroke-linecap:round;stroke-linejoin:round;stroke-miterlimit:10;stroke-dasharray:none;stroke-opacity:1" /><path
     id="line9473"
     style="fill:none;stroke:#fff;stroke-linecap:round;stroke-linejoin:round;stroke-miterlimit:10;stroke-opacity:1;stroke-width:1;stroke-dasharray:none"
     class="st5"
     d="m 19.284018,29.494667 v 6.366566" /><path
     class="st5"
     d="m 23.999993,31.852657 c 0,-1.296894 1.061095,-2.357988 2.357988,-2.357988 v 0 c 1.296893,0 2.357988,1.061094 2.357988,2.357988 v 3.890679"
     id="path9475"
     style="fill:none;stroke:#fff;stroke-width:1;stroke-linecap:round;stroke-linejoin:round;stroke-miterlimit:10;stroke-dasharray:none;stroke-opacity:1" /><path
     id="line9673-6"
     style="fill:none;stroke:#fff;stroke-linecap:round;stroke-linejoin:round;stroke-miterlimit:10;stroke-opacity:1;stroke-width:1;stroke-dasharray:none"
     class="st5"
     d="m 12.077556,31.145258 h 3.065382" /><path
     id="polyline9675-0"
     style="fill:none;stroke:#fff;stroke-width:1;stroke-linecap:round;stroke-linejoin:round;stroke-miterlimit:10;stroke-opacity:1;stroke-dasharray:none"
     class="st5"
     d="m 16.793529,35.861232 h -4.715975 v -9.431951 h 4.715975" /><path
     id="polyline9407"
     style="fill:none;stroke:#fff;stroke-width:1;stroke-linecap:round;stroke-linejoin:round;stroke-miterlimit:10;stroke-opacity:1;stroke-dasharray:none"
     class="st5"
     d="M 10.952299,22.265847 V 12.138768 L 17.66149,22.265847 V 12.138768" /><path
     id="line9673"
     style="fill:none;stroke:#fff;stroke-linecap:round;stroke-linejoin:round;stroke-miterlimit:10;stroke-opacity:1;stroke-width:1;stroke-dasharray:none"
     class="st5"
     d="m 20.40501,17.202309 h 3.2913" /><path
     id="polyline9675"
     style="fill:none;stroke:#fff;stroke-width:1;stroke-linecap:round;stroke-linejoin:round;stroke-miterlimit:10;stroke-opacity:1;stroke-dasharray:none"
     class="st5"
     d="m 25.468551,22.265847 h -5.06354 V 12.138768 h 5.06354" /><path
     class="st5"
     d="m 28.338655,21.126551 c 0.632942,0.759531 1.392473,1.139296 2.53177,1.139296 h 1.519062 c 1.392473,0 2.53177,-1.139296 2.53177,-2.53177 v 0 c 0,-1.392473 -1.139297,-2.53177 -2.53177,-2.53177 h -1.645651 c -1.392473,0 -2.53177,-1.139296 -2.53177,-2.53177 v 0 c 0,-1.392473 1.139297,-2.53177 2.53177,-2.53177 h 1.519062 c 1.139297,0 1.898828,0.253177 2.53177,1.139297"
     id="path9535"
     style="fill:none;stroke:#fff;stroke-width:1;stroke-linecap:round;stroke-linejoin:round;stroke-miterlimit:10;stroke-dasharray:none;stroke-opacity:1" /><path
     id="path13130"
     style="fill:none;stroke:#fff;stroke-linecap:round;stroke-linejoin:round;stroke-opacity:1;stop-color:#000000;stroke-width:1;stroke-dasharray:none"
     d="m 37.547703,22.265846 a 0.5,0.5 0 0 1 -0.5,0.5 0.5,0.5 0 0 1 -0.5,-0.5 0.5,0.5 0 0 1 0.5,-0.5 0.5,0.5 0 0 1 0.5,0.5 z" /></svg>
