<?xml version="1.0" encoding="UTF-8" standalone="no"?>
<!-- Created with Inkscape (http://www.inkscape.org/) -->

<svg
   width="48"
   height="48"
   viewBox="0 0 48 48"
   version="1.1"
   id="svg990"
   inkscape:version="1.2.1 (9c6d41e, 2022-07-14)"
   xml:space="preserve"
   sodipodi:docname="spb.svg"
   xmlns:inkscape="http://www.inkscape.org/namespaces/inkscape"
   xmlns:sodipodi="http://sodipodi.sourceforge.net/DTD/sodipodi-0.dtd"
   xmlns="http://www.w3.org/2000/svg"
   xmlns:svg="http://www.w3.org/2000/svg"><sodipodi:namedview
     id="namedview992"
     pagecolor="#858585"
     bordercolor="#000000"
     borderopacity="0.25"
     inkscape:showpageshadow="2"
     inkscape:pageopacity="0"
     inkscape:pagecheckerboard="0"
     inkscape:deskcolor="#d1d1d1"
     inkscape:document-units="px"
     showgrid="false"
     inkscape:zoom="11"
     inkscape:cx="-11.318182"
     inkscape:cy="24"
     inkscape:window-width="1366"
     inkscape:window-height="737"
     inkscape:window-x="0"
     inkscape:window-y="0"
     inkscape:window-maximized="1"
     inkscape:current-layer="svg990" /><defs
     id="defs987"><style
   id="style1174">.a{fill:none;stroke:#fff;stroke-linecap:round;stroke-linejoin:round;}</style>
		
		
		
	
		
	</defs><path
     style="fill:none;fill-opacity:0.941176;stroke:#fff;stroke-width:1;stroke-linecap:round;stroke-linejoin:round;stroke-dasharray:none;stroke-opacity:1;stop-color:#000000"
     d="M 31.906962,15.630549 C 28.472422,15.742704 24.30672,17.759 20.532704,20.824927 m -5.239022,-0.834914 c 1.803419,0.01944 3.589613,0.329149 5.239022,0.834914 l 7.754274,16.795514 C 22.089425,34.404153 16.659362,36.579511 12.929641,38.621932 10.997731,33.254466 8.7209649,28.004771 6.8593937,22.613595 6.1848821,24.286475 5.3743034,26.263697 4.4890207,27.607958 L 10.172093,42.90907 c 4.561981,-3.684031 12.642951,-5.268672 14.658807,-4.251183 1.262022,0.636996 2.225005,1.73756 4.499687,1.220439 1.121612,-0.482974 2.269963,-1.736992 3.40874,-2.676991 2.986923,-2.465551 8.449601,-3.191923 10.771698,-2.522723 L 41.13213,30.326303"
     id="path3660"
     sodipodi:nodetypes="cccccccccscscc" /><path
     style="fill:none;fill-opacity:0.941176;stroke:#fff;stroke-width:1;stroke-linecap:round;stroke-linejoin:round;stroke-dasharray:none;stroke-opacity:1;stop-color:#000000"
     d="m 29.527541,18.368691 -1.712181,4.126163 0.09345,2.029418 5.549598,-2.193368 -3.930866,-3.962213 6.966948,-7.561947 c 1.472539,-1.5982979 2.20808,-1.7788419 3.335742,-0.797664 l 1.646144,1.432308 c 0.724913,0.630746 0.897617,1.722487 0.05794,2.585847 l -8.075906,8.303669"
     id="path5213"
     sodipodi:nodetypes="cccccssssc" /><path
     style="fill:none;fill-opacity:0.941176;stroke:#fff;stroke-width:1;stroke-linecap:round;stroke-linejoin:round;stroke-dasharray:none;stroke-opacity:1;stop-color:#000000"
     d="m 28.182078,21.924661 1.625678,1.591395"
     id="path5215" /><path
     style="fill:none;fill-opacity:0.941176;stroke:#fff;stroke-width:1;stroke-linecap:round;stroke-linejoin:round;stroke-dasharray:none;stroke-opacity:1;stop-color:#000000"
     d="m 28.286978,37.620441 c 1.372251,-2.719578 6.518591,-7.790629 14.297271,-7.519878 L 35.5855,20.256597 m 6.258505,11.674411 c -1.959129,-0.229794 -9.546636,0.400636 -13.557027,5.689433"
     id="path5217"
     sodipodi:nodetypes="ccccc" /><path
     class="st5"
     d="m 24.579855,13.178885 c 0.381825,0.378892 0.731579,0.530449 1.792478,0.530449 h 0.227336 c 0.833562,0 1.646692,-0.682006 1.806954,-1.51557 v 0 c 0.160261,-0.833563 -0.390622,-1.515569 -1.224185,-1.515569"
     id="path10037-2"
     style="fill:none;stroke:#fff;stroke-width:1;stroke-linecap:round;stroke-linejoin:round;stroke-miterlimit:10;stroke-dasharray:none;stroke-opacity:1" /><path
     class="st5"
     d="M 25.555993,8.1017258 C 26.08351,7.7228335 26.56732,7.5712765 27.55244,7.5712765 h 0.227336 c 0.833563,0 1.384447,0.6820063 1.224185,1.5155698 v 0 C 28.8437,9.9204098 28.03057,10.602416 27.197007,10.602416"
     id="path10039-9"
     style="fill:none;stroke:#fff;stroke-width:1;stroke-linecap:round;stroke-linejoin:round;stroke-miterlimit:10;stroke-dasharray:none;stroke-opacity:1" /><path
     id="line10041-1"
     style="fill:none;stroke:#ffffff;stroke-linecap:round;stroke-linejoin:round;stroke-miterlimit:10;stroke-width:1;stroke-dasharray:none"
     class="st5"
     d="m 26.045761,10.678196 h 1.136677" /><path
     id="path10562-5"
     style="fill:none;stroke:#fff;stroke-width:1;stroke-linecap:round;stroke-linejoin:round;stroke-miterlimit:10;stroke-dasharray:none;stroke-opacity:1"
     class="st5"
     d="m 9.1603812,23.198001 c 0.8228775,0.08175 1.4064748,-0.04494 2.6787148,-0.84187 l 0.195729,-0.1226 c 1.174374,-0.735625 1.68164,-2.247762 1.115983,-3.326699 v 0 C 12.585151,17.82789 11.135127,17.541796 9.9607516,18.277421 L 7.318409,19.932578 5.6685785,16.785677 10.463941,13.781873 m 10.223999,4.116399 -0.931955,-8.3779713 -3.685637,6.8494803 5.308554,-1.558159" /><path
     class="st5"
     d="M 33.144888,6.5645333 C 33.3969,5.6730747 34.437401,4.948765 35.337324,5.115914 35.918699,5.2273462 36.262636,5.7845068 36.145095,6.3973843 36.074808,6.8431137 35.7659,7.344559 35.352849,7.6231394 34.598215,8.1245848 32.294348,9.5732042 32.294348,9.5732042 h 2.952955"
     id="path9759"
     style="fill:none;stroke:#fff;stroke-width:1;stroke-linecap:round;stroke-linejoin:round;stroke-miterlimit:10;stroke-dasharray:none;stroke-opacity:1" /></svg>
