<?xml version="1.0" encoding="UTF-8" standalone="no"?>
<!-- Created with Inkscape (http://www.inkscape.org/) -->

<svg
   width="48"
   height="48"
   viewBox="0 0 48 48"
   version="1.1"
   id="svg990"
   inkscape:version="1.2.1 (9c6d41e, 2022-07-14)"
   xml:space="preserve"
   sodipodi:docname="unlock.svg"
   xmlns:inkscape="http://www.inkscape.org/namespaces/inkscape"
   xmlns:sodipodi="http://sodipodi.sourceforge.net/DTD/sodipodi-0.dtd"
   xmlns="http://www.w3.org/2000/svg"
   xmlns:svg="http://www.w3.org/2000/svg"><sodipodi:namedview
     id="namedview992"
     pagecolor="#858585"
     bordercolor="#000000"
     borderopacity="0.25"
     inkscape:showpageshadow="2"
     inkscape:pageopacity="0"
     inkscape:pagecheckerboard="0"
     inkscape:deskcolor="#d1d1d1"
     inkscape:document-units="px"
     showgrid="false"
     inkscape:zoom="11"
     inkscape:cx="15.863636"
     inkscape:cy="24"
     inkscape:window-width="1366"
     inkscape:window-height="737"
     inkscape:window-x="0"
     inkscape:window-y="0"
     inkscape:window-maximized="1"
     inkscape:current-layer="svg990" /><defs
     id="defs987"><style
       id="style1174">.a{fill:none;stroke:#fff;stroke-linecap:round;stroke-linejoin:round;}</style></defs><path
     style="fill:none;stroke:#fff;stroke-width:1;stroke-linecap:round;stroke-linejoin:round;stroke-dasharray:none;stroke-opacity:1;stop-color:#000000"
     d="m 43.799354,17.63837 v 8.555243"
     id="path2787"
     sodipodi:nodetypes="cc" /><path
     id="path2840"
     style="fill:none;stroke:#fff;stroke-width:1;stroke-linecap:round;stroke-linejoin:round;stroke-dasharray:none;stroke-opacity:1;stop-color:#000000"
     d="m 44.505496,29.435119 a 0.70614176,0.92651167 0 0 1 -0.706142,0.926512 0.70614176,0.92651167 0 0 1 -0.706141,-0.926512 0.70614176,0.92651167 0 0 1 0.706141,-0.926512 0.70614176,0.92651167 0 0 1 0.706142,0.926512 z" /><path
     id="rect2666"
     style="fill:none;stroke:#fff;stroke-width:1;stroke-linecap:round;stroke-linejoin:round;stroke-dasharray:none;stroke-opacity:1;stop-color:#000000"
     d="m 7.1249115,17.747427 1e-7,11.257302 c 0,0.540742 -0.4353267,0.976165 -0.9760688,0.976069 l -1.6782701,-3.01e-4 c -0.5407421,-9.6e-5 -0.9760689,-0.434688 -0.9760689,-0.97543 v -11.25764"
     sodipodi:nodetypes="cssssc" /><path
     style="fill:none;stroke:#fff;stroke-width:1;stroke-linecap:round;stroke-linejoin:round;stroke-dasharray:none;stroke-opacity:1;stop-color:#000000"
     d="M 10.261123,29.980497 V 17.712246 l 3.391361,12.268251 v -12.23307"
     id="path2669"
     sodipodi:nodetypes="cccc" /><path
     style="fill:none;stroke:#fff;stroke-width:1;stroke-linecap:round;stroke-linejoin:round;stroke-dasharray:none;stroke-opacity:1;stop-color:#000000"
     d="m 16.867353,17.747427 v 12.23307 h 2.986756"
     id="path2671"
     sodipodi:nodetypes="ccc" /><path
     id="rect2673"
     style="fill:none;stroke:#fff;stroke-width:1;stroke-linecap:round;stroke-linejoin:round;stroke-dasharray:none;stroke-opacity:1;stop-color:#000000"
     d="m 23.518991,17.653987 h 1.943633 c 0.504938,0 0.911439,0.336675 0.911439,0.754876 v 10.727789 c 0,0.418201 -0.406501,0.754876 -0.911439,0.754876 h -1.943633 c -0.504938,0 -0.91144,-0.336675 -0.91144,-0.754876 V 18.408863 c 0,-0.418201 0.406502,-0.754876 0.91144,-0.754876 z"
     sodipodi:nodetypes="sssssssss" /><path
     id="rect2673-6"
     style="fill:none;stroke:#fff;stroke-width:1;stroke-linecap:round;stroke-linejoin:round;stroke-dasharray:none;stroke-opacity:1;stop-color:#000000"
     d="m 33.401944,19.119066 -1.85e-4,-0.710203 c -1.09e-4,-0.418202 -0.406502,-0.754876 -0.91144,-0.754876 h -1.943633 c -0.504938,0 -0.911439,0.336674 -0.911439,0.754876 v 10.727789 c 0,0.4182 0.406501,0.754769 0.911439,0.754876 l 1.943633,4.09e-4 c 0.504938,1.07e-4 0.91144,-0.337085 0.91144,-0.755285 v -0.838635"
     sodipodi:nodetypes="cssssssssc" /><path
     style="fill:none;stroke:#fff;stroke-width:1;stroke-linecap:round;stroke-linejoin:round;stroke-dasharray:none;stroke-opacity:1;stop-color:#000000"
     d="m 36.438933,17.653987 v 6.118975 m 2.211185,0 1.766809,-6.134348 m 4.7e-5,12.268697 -1.766856,-6.134349 h -2.211185 v 6.118975"
     id="path2698"
     sodipodi:nodetypes="cccccccc" /></svg>
