<?xml version="1.0" encoding="UTF-8" standalone="no"?>
<!-- Created with Inkscape (http://www.inkscape.org/) -->

<svg
   width="48"
   height="48"
   viewBox="0 0 48 48"
   version="1.1"
   id="svg990"
   inkscape:version="1.2.1 (9c6d41e, 2022-07-14)"
   xml:space="preserve"
   sodipodi:docname="uno.svg"
   xmlns:inkscape="http://www.inkscape.org/namespaces/inkscape"
   xmlns:sodipodi="http://sodipodi.sourceforge.net/DTD/sodipodi-0.dtd"
   xmlns="http://www.w3.org/2000/svg"
   xmlns:svg="http://www.w3.org/2000/svg"><sodipodi:namedview
     id="namedview992"
     pagecolor="#858585"
     bordercolor="#000000"
     borderopacity="0.25"
     inkscape:showpageshadow="2"
     inkscape:pageopacity="0"
     inkscape:pagecheckerboard="0"
     inkscape:deskcolor="#d1d1d1"
     inkscape:document-units="px"
     showgrid="false"
     inkscape:zoom="8"
     inkscape:cx="20.9375"
     inkscape:cy="23.625"
     inkscape:window-width="1366"
     inkscape:window-height="737"
     inkscape:window-x="0"
     inkscape:window-y="0"
     inkscape:window-maximized="1"
     inkscape:current-layer="svg990" /><defs
     id="defs987"><style
       id="style1174">.a{fill:none;stroke:#fff;stroke-linecap:round;stroke-linejoin:round;}</style></defs><path
     id="path2627"
     style="display:inline;fill:none;stroke:#fff;stroke-width:1;stroke-linecap:round;stroke-linejoin:round;stroke-dasharray:none;stroke-opacity:1;stop-color:#000000"
     d="M 41.828103,21.579541 A 12.927294,19.425066 60.784625 0 1 25.242323,37.51557 12.927294,19.425066 60.784625 0 1 9.9628324,36.581927" /><path
     id="path2771"
     style="display:inline;fill:none;stroke:#fff;stroke-width:1;stroke-linecap:round;stroke-linejoin:round;stroke-dasharray:none;stroke-opacity:1;stop-color:#000000"
     d="M 6.4122051,25.643216 A 12.927294,19.425066 60.784625 0 1 22.802804,10.483798 12.927294,19.425066 60.784625 0 1 37.40032,10.994646" /><path
     id="path1952"
     style="fill:none;stroke:#fff;stroke-width:1;stroke-linecap:round;stroke-linejoin:round;stroke-dasharray:none;stroke-opacity:1;stop-color:#000000"
     d="m 37.024158,18.381366 a 4.147387,3.5567652 67.066133 0 1 -1.659516,5.205517 4.147387,3.5567652 67.066133 0 1 -4.891727,-2.433599 4.147387,3.5567652 67.066133 0 1 1.659516,-5.205516 4.147387,3.5567652 67.066133 0 1 4.891727,2.433598 z" /><path
     id="path1952-5"
     style="fill:none;stroke:#fff;stroke-width:1;stroke-linecap:round;stroke-linejoin:round;stroke-dasharray:none;stroke-opacity:1;stop-color:#000000"
     d="m 39.852347,17.185179 c 1.525557,3.605554 0.0084,7.693614 -3.388589,9.130939 -3.397024,1.437326 -7.387563,-0.320369 -8.913121,-3.925923 -1.525557,-3.605553 -0.0084,-7.693613 3.388589,-9.13094 3.397023,-1.437325 7.387563,0.320371 8.913121,3.925924 z"
     sodipodi:nodetypes="sssss" /><path
     id="path1834"
     style="fill:none;stroke:#fff;stroke-width:1;stroke-linecap:round;stroke-linejoin:round;stroke-dasharray:none;stroke-opacity:1;stop-color:#000000"
     d="m 10.622082,21.862287 3.023283,-1.279192 c 1.286229,2.821015 2.445236,5.774765 3.484716,8.235893 1.127422,2.664588 -0.109737,5.717687 -2.77442,6.844886 L 13.012332,36.23212 C 10.347651,37.35932 7.2948178,36.122035 6.1673951,33.457447 5.0711418,30.741233 3.6814508,27.882994 2.6826794,25.221554 l 3.0231333,-1.279129 c 1.0675998,2.529293 2.1395782,5.05675 3.2093657,7.585121 0.6182178,1.461117 2.2123856,2.173468 3.5743076,1.59722 1.361923,-0.576247 1.960329,-2.216305 1.342111,-3.677421 -1.070174,-2.528211 -2.138353,-5.057267 -3.209366,-7.585122 z"
     sodipodi:nodetypes="cccssccccsccc" /><path
     style="display:inline;fill:none;stroke:#fff;stroke-width:1;stroke-linecap:round;stroke-linejoin:round;stroke-dasharray:none;stroke-opacity:1;stop-color:#000000"
     d="m 19.327674,33.560082 2.989867,-1.265053 -3.35156,-7.921188 9.117322,5.481618 2.160887,-0.914282 -5.519838,-13.045767 m -5.396678,17.664672 2.989867,-1.265053 -3.35156,-7.921188 9.117322,5.481618 2.160887,-0.914282 -5.519838,-13.045767 m 6e-6,1.6e-5 -2.989866,1.265052 3.35156,7.921188 -9.117322,-5.481618 -2.160886,0.914282 5.519837,13.045768 m 5.396677,-17.664672 -2.989866,1.265052 3.35156,7.921188 -9.117322,-5.481618 -2.160886,0.914282 5.519837,13.045768"
     id="path1858"
     sodipodi:nodetypes="cccccccccccccccccccccccc" /><path
     style="display:inline;fill:none;stroke:#fff;stroke-width:1;stroke-linecap:round;stroke-linejoin:round;stroke-dasharray:none;stroke-opacity:1;stop-color:#000000"
     d="m 44.208458,19.39632 -3.987474,-9.9492536 -3.023358,1.0988036 4.096216,9.866461 m 2.914617,-1.016007 -2.914617,1.016007 1.149084,2.527215 2.874399,-1.066606 z"
     id="path2715"
     sodipodi:nodetypes="cccccc" /></svg>
