<?xml version="1.0" encoding="UTF-8" standalone="no"?>
<!-- Created with Inkscape (http://www.inkscape.org/) -->

<svg
   width="48"
   height="48"
   viewBox="0 0 48 48"
   version="1.1"
   id="svg990"
   inkscape:version="1.2.2 (b0a8486541, 2022-12-01)"
   xml:space="preserve"
   sodipodi:docname="starlink.svg"
   xmlns:inkscape="http://www.inkscape.org/namespaces/inkscape"
   xmlns:sodipodi="http://sodipodi.sourceforge.net/DTD/sodipodi-0.dtd"
   xmlns="http://www.w3.org/2000/svg"
   xmlns:svg="http://www.w3.org/2000/svg"><sodipodi:namedview
     id="namedview992"
     pagecolor="#858585"
     bordercolor="#000000"
     borderopacity="0.25"
     inkscape:showpageshadow="2"
     inkscape:pageopacity="0"
     inkscape:pagecheckerboard="0"
     inkscape:deskcolor="#d1d1d1"
     inkscape:document-units="px"
     showgrid="false"
     inkscape:zoom="11"
     inkscape:cx="13.454545"
     inkscape:cy="24"
     inkscape:window-width="1366"
     inkscape:window-height="737"
     inkscape:window-x="0"
     inkscape:window-y="0"
     inkscape:window-maximized="1"
     inkscape:current-layer="svg990" /><defs
     id="defs987"><style
       id="style1174">.a{fill:none;stroke:#fff;stroke-linecap:round;stroke-linejoin:round;}</style></defs><g
     inkscape:groupmode="layer"
     id="layer2"
     inkscape:label="Layer 2"><path
       id="path2602"
       style="display:inline;fill:none;stroke:#ffffff;stroke-width:0.999982;stroke-linecap:round;stroke-linejoin:round;stroke-dasharray:none;stroke-opacity:1"
       class="a"
       d="m 25.518856,43.981153 a 1.5188564,1.5188564 0 0 1 -1.518857,1.518856 1.5188564,1.5188564 0 0 1 -1.518854,-1.518856 1.5188564,1.5188564 0 0 1 1.518854,-1.518857 1.5188564,1.5188564 0 0 1 1.518857,1.518857 z M 25.632915,8.2880384 A 1.6329154,1.6329154 0 0 1 23.999999,9.9209536 1.6329154,1.6329154 0 0 1 22.367085,8.2880384 1.6329154,1.6329154 0 0 1 23.999999,6.6551231 1.6329154,1.6329154 0 0 1 25.632915,8.2880384 Z M 22.488022,43.982641 A 17.937534,17.937534 0 0 1 6.0624642,26.108942 17.937534,17.937534 0 0 1 22.363562,8.2462095 m 3.26883,-3.702e-4 A 17.937534,17.937534 0 0 1 41.937535,26.108942 17.937534,17.937534 0 0 1 25.51962,43.981992 M 25.638055,8.2414828 A 14.417236,14.417236 0 0 1 38.417235,22.565359 14.417236,14.417236 0 0 1 23.999999,36.982596 14.417236,14.417236 0 0 1 9.5827634,22.565359 14.417236,14.417236 0 0 1 22.361943,8.2414829 M 22.498675,43.92688 A 20.740648,20.740648 0 0 1 3.2593505,23.240639 20.740648,20.740648 0 0 1 23.999999,2.499991 20.740648,20.740648 0 0 1 44.74065,23.240639 v 0 A 20.740648,20.740648 0 0 1 25.514453,43.925923 m 0.514275,-21.457031 a 2.0287287,2.0287287 0 0 1 -2.028729,2.028728 2.0287287,2.0287287 0 0 1 -2.028727,-2.028728 2.0287287,2.0287287 0 0 1 2.028727,-2.028729 2.0287287,2.0287287 0 0 1 2.028729,2.028729 z" /></g></svg>
