<?xml version="1.0" encoding="UTF-8" standalone="no"?>
<svg
   viewBox="0 0 48 48"
   version="1.1"
   id="svg1"
   sodipodi:docname="amazon_drive.svg"
   inkscape:version="1.3.2 (091e20ef0f, 2023-11-25)"
   xml:space="preserve"
   xmlns:inkscape="http://www.inkscape.org/namespaces/inkscape"
   xmlns:sodipodi="http://sodipodi.sourceforge.net/DTD/sodipodi-0.dtd"
   xmlns="http://www.w3.org/2000/svg"
   xmlns:svg="http://www.w3.org/2000/svg"><sodipodi:namedview
     id="namedview1"
     pagecolor="#505050"
     bordercolor="#eeeeee"
     borderopacity="1"
     inkscape:showpageshadow="0"
     inkscape:pageopacity="0"
     inkscape:pagecheckerboard="0"
     inkscape:deskcolor="#505050"
     inkscape:zoom="4.453125"
     inkscape:cx="-49.291228"
     inkscape:cy="33.122807"
     inkscape:window-width="1918"
     inkscape:window-height="1053"
     inkscape:window-x="0"
     inkscape:window-y="0"
     inkscape:window-maximized="1"
     inkscape:current-layer="svg1" /><defs
     id="defs1"><style
       id="style1">.a { fill:none;stroke:#fff;stroke-linecap:round;stroke-linejoin:round; }
</style></defs><path
     id="path2"
     style="fill:none;stroke:#ffffff;stroke-linecap:round;stroke-linejoin:round"
     class="d"
     d="m 9,18.5565 c 2.1619,1.7168 8.5479,4.3449 15.3515,4.3449 6.4857,0 10.4451,-2.3498 12.4989,-3.785 m -2.6706,-1.2021 c 1.3671,-0.5544 3.8007,-1.2899 4.5329,-0.4023 0.7924,0.9606 -0.2091,3.045 -1.1311,4.6645 m 4.922754,13.257371 A 7.2580876,6.8921695 0 0 0 36.976562,33.007812 7.2580876,6.8921695 0 0 0 30.875,36.166016 9.3216934,8.8584433 0 0 0 22.091797,30.267578 v 0 a 9.3216934,8.8584433 0 0 0 -9.304688,8.636719 7.2580876,6.8921695 0 0 0 -1.613281,-0.173828 7.2580876,6.8921695 0 0 0 -5.0476889,1.939933 M 9.5,5.5 h 29 c 2.216,0 4,1.784 4,4 v 29 c 0,2.216 -1.784,4 -4,4 h -29 c -2.216,0 -4,-1.784 -4,-4 v -29 c 0,-2.216 1.784,-4 4,-4 z" /></svg>
