<?xml version="1.0" encoding="UTF-8" standalone="no"?>
<svg
   viewBox="0 0 48 48"
   version="1.1"
   id="svg1"
   sodipodi:docname="android_remote.svg"
   inkscape:version="1.3.2 (091e20ef0f, 2023-11-25)"
   xml:space="preserve"
   xmlns:inkscape="http://www.inkscape.org/namespaces/inkscape"
   xmlns:sodipodi="http://sodipodi.sourceforge.net/DTD/sodipodi-0.dtd"
   xmlns="http://www.w3.org/2000/svg"
   xmlns:svg="http://www.w3.org/2000/svg"><sodipodi:namedview
     id="namedview1"
     pagecolor="#505050"
     bordercolor="#eeeeee"
     borderopacity="1"
     inkscape:showpageshadow="0"
     inkscape:pageopacity="0"
     inkscape:pagecheckerboard="0"
     inkscape:deskcolor="#505050"
     inkscape:zoom="6.2976698"
     inkscape:cx="-30.566862"
     inkscape:cy="26.755928"
     inkscape:window-width="1918"
     inkscape:window-height="1053"
     inkscape:window-x="0"
     inkscape:window-y="0"
     inkscape:window-maximized="1"
     inkscape:current-layer="svg1" /><defs
     id="defs1"><style
       id="style1">.a { fill:none;stroke:#fff;stroke-linecap:round;stroke-linejoin:round; }
</style></defs><path
     id="path5"
     style="fill:none;stroke:#ffffff;stroke-width:1;stroke-linecap:round;stroke-linejoin:round;stroke-opacity:1"
     d="m 11.172211,19.534668 -4.4539518,4.465334 4.4539518,4.465334 z m 25.655583,0 4.453951,4.465334 -4.453951,4.465334 z m -17.293126,17.293126 4.465334,4.453951 4.465334,-4.453951 z m 0,-25.655583 4.465334,-4.4539517 4.465334,4.4539517 z m 3.889141,15.138444 2.045552,4.152968 c 0.429412,0.871812 2.194369,0.08142 1.71993,-0.884028 l -2.071555,-4.215465 4.05023,0.148019 -8.240817,-8.352791 V 29.410535 Z M 33.045461,24 A 9.0454609,9.0454609 0 0 1 24,33.045461 9.0454609,9.0454609 0 0 1 14.954539,24 9.0454609,9.0454609 0 0 1 24,14.954539 9.0454609,9.0454609 0 0 1 33.045461,24 Z m 12.454538,0 A 21.499999,21.499999 0 0 1 24,45.499999 21.499999,21.499999 0 0 1 2.5000008,24 21.499999,21.499999 0 0 1 24,2.5000008 21.499999,21.499999 0 0 1 45.499999,24 Z" /></svg>
