<?xml version="1.0" encoding="UTF-8" standalone="no"?>
<svg
   viewBox="0 0 48 48"
   version="1.1"
   id="svg1"
   sodipodi:docname="android_assistant.svg"
   inkscape:version="1.3.2 (091e20ef0f, 2023-11-25)"
   xmlns:inkscape="http://www.inkscape.org/namespaces/inkscape"
   xmlns:sodipodi="http://sodipodi.sourceforge.net/DTD/sodipodi-0.dtd"
   xmlns="http://www.w3.org/2000/svg"
   xmlns:svg="http://www.w3.org/2000/svg">
  <sodipodi:namedview
     id="namedview1"
     pagecolor="#505050"
     bordercolor="#eeeeee"
     borderopacity="1"
     inkscape:showpageshadow="0"
     inkscape:pageopacity="0"
     inkscape:pagecheckerboard="0"
     inkscape:deskcolor="#505050"
     inkscape:zoom="4.453125"
     inkscape:cx="-52.435088"
     inkscape:cy="73.094737"
     inkscape:window-width="1918"
     inkscape:window-height="1053"
     inkscape:window-x="0"
     inkscape:window-y="0"
     inkscape:window-maximized="1"
     inkscape:current-layer="svg1" />
  <defs
     id="defs1">
    <style
       id="style1">.a { fill:none;stroke:#fff;stroke-linecap:round;stroke-linejoin:round; }
</style>
  </defs>
  <path
     id="path2"
     style="fill:none;stroke:#ffffff;stroke-width:0.999996;stroke-linecap:round;stroke-linejoin:round"
     class="cls-1"
     d="m 42.662185,34.871997 a 7.7585108,7.7640244 0 0 0 0.06574,-0.939954 7.7585108,7.7640244 0 0 0 -0.06574,-0.939955 l 2.033556,-1.593222 a 0.46964351,0.46997726 0 0 0 0.117411,-0.615671 l -1.925539,-3.341538 a 0.46964351,0.46997726 0 0 0 -0.587054,-0.20679 L 39.900681,28.20302 A 7.3640103,7.3692435 0 0 0 38.275714,27.263066 L 37.914089,24.71109 a 0.46964351,0.46997726 0 0 0 -0.469644,-0.404181 h -3.860469 a 0.46964351,0.46997726 0 0 0 -0.469644,0.404181 l -0.361626,2.551976 A 7.2137244,7.2188507 0 0 0 31.12774,28.20302 l -2.409272,-0.968153 a 0.46964351,0.46997726 0 0 0 -0.587054,0.20679 l -1.925538,3.341538 a 0.46964351,0.46997726 0 0 0 0.11741,0.615671 l 2.028861,1.593222 a 7.8242609,7.8298212 0 0 0 -0.06574,0.939955 7.7585108,7.7640244 0 0 0 0.06574,0.939954 l -2.028861,1.593223 a 0.46964351,0.46997726 0 0 0 -0.11741,0.615671 l 1.925538,3.341538 a 0.46964351,0.46997726 0 0 0 0.587054,0.206789 l 2.399879,-0.968152 a 7.3640103,7.3692435 0 0 0 1.624967,0.939955 l 0.361625,2.551976 a 0.46964351,0.46997726 0 0 0 0.469644,0.40418 h 3.851076 a 0.46964351,0.46997726 0 0 0 0.469645,-0.40418 l 0.361624,-2.551976 a 7.2137244,7.2188507 0 0 0 1.624966,-0.939955 l 2.399879,0.968152 a 0.46964351,0.46997726 0 0 0 0.587056,-0.206789 l 1.925537,-3.341538 A 0.46964351,0.46997726 0 0 0 44.676955,36.46522 Z m -7.152671,2.434483 a 3.3720404,3.3744367 0 1 1 3.367344,-3.374437 3.367344,3.369737 0 0 1 -3.367344,3.374437 z m 6.10781,-9.796581 -1.936006,-1.529851 a 16.52,16.52 0 0 0 0.14,-2 16.52,16.52 0 0 0 -0.14,-2 l 4.33,-3.39 a 1,1 0 0 0 0.25,-1.31 l -4.1,-7.11 a 1,1 0 0 0 -1.25,-0.4399997 l -5.11,2.0599997 a 15.68,15.68 0 0 0 -3.46,-1.9999997 l -0.77,-5.43 a 1,1 0 0 0 -1,-0.86 h -8.22 a 1,1 0 0 0 -1,0.86 l -0.77,5.43 a 15.36,15.36 0 0 0 -3.46,1.9999997 L 9.9913178,9.7300483 a 1,1 0 0 0 -1.25,0.4399997 l -4.1,7.11 a 1,1 0 0 0 0.25,1.31 l 4.32,3.39 a 16.66,16.66 0 0 0 -0.14,2 16.52,16.52 0 0 0 0.14,2 l -4.32,3.39 a 1,1 0 0 0 -0.25,1.31 l 4.1,7.11 a 1,1 0 0 0 1.25,0.44 l 5.1100002,-2.06 a 15.68,15.68 0 0 0 3.46,2 l 0.77,5.43 a 1,1 0 0 0 1,0.86 h 8.2 a 1,1 0 0 0 1,-0.86 l 0.496075,-3.498294 m -3.872422,-9.147046 a 7.17,7.17 0 0 1 -1.703653,0.20534 v 0 a 7.18,7.18 0 1 1 7.17,-7.18 7.17,7.17 0 0 1 -1.178632,3.948591" />
</svg>
