<?xml version="1.0" encoding="UTF-8" standalone="no"?>
<svg
   viewBox="0 0 48 48"
   version="1.1"
   id="svg1"
   sodipodi:docname="apatch.svg"
   inkscape:version="1.3.2 (091e20ef0f, 2023-11-25)"
   xml:space="preserve"
   xmlns:inkscape="http://www.inkscape.org/namespaces/inkscape"
   xmlns:sodipodi="http://sodipodi.sourceforge.net/DTD/sodipodi-0.dtd"
   xmlns="http://www.w3.org/2000/svg"
   xmlns:svg="http://www.w3.org/2000/svg"><sodipodi:namedview
     id="namedview1"
     pagecolor="#505050"
     bordercolor="#eeeeee"
     borderopacity="1"
     inkscape:showpageshadow="0"
     inkscape:pageopacity="0"
     inkscape:pagecheckerboard="0"
     inkscape:deskcolor="#505050"
     inkscape:zoom="12.59534"
     inkscape:cx="27.58957"
     inkscape:cy="16.553742"
     inkscape:window-width="1918"
     inkscape:window-height="1053"
     inkscape:window-x="0"
     inkscape:window-y="0"
     inkscape:window-maximized="1"
     inkscape:current-layer="svg1" /><defs
     id="defs1"><style
       id="style1">.a { fill:none;stroke:#fff;stroke-linecap:round;stroke-linejoin:round; }
</style></defs><path
     id="path67"
     style="display:inline;fill:none;stroke:#ffffff;stroke-width:0.999997;stroke-linecap:round;stroke-linejoin:round;stroke-opacity:1"
     d="m 29.492753,28.898039 a 0.6804579,0.68135694 89.99992 0 1 -0.681356,0.680458 0.6804579,0.68135694 89.99992 0 1 -0.681358,-0.680458 0.6804579,0.68135694 89.99992 0 1 0.681358,-0.680457 0.6804579,0.68135694 89.99992 0 1 0.681356,0.680457 z m -9.71501,-3.176637 a 0.6804579,0.68135694 89.99992 0 1 -0.681357,0.680458 0.6804579,0.68135694 89.99992 0 1 -0.681356,-0.680459 0.6804579,0.68135694 89.99992 0 1 0.681356,-0.680457 0.6804579,0.68135694 89.99992 0 1 0.681357,0.680458 z m 6.3643,0.191889 a 7.0424743,2.4437184 36.37925 0 0 -0.741625,-0.57314 7.0424743,2.4437184 36.37925 0 0 -7.117264,-2.206526 7.0424743,2.4437184 36.37925 0 0 0.321578,2.115437 m 0.757748,1.09141 a 7.0424743,2.4437184 36.37925 0 0 2.705307,2.605849 m 1.884117,1.302918 a 7.0424743,2.4437184 36.37925 0 0 5.672625,1.236569 7.0424743,2.4437184 36.37925 0 0 -0.317688,-2.108657 m -0.757786,-1.093397 a 7.0424743,2.4437184 36.37925 0 0 -0.869374,-0.975527 m -2.279262,1.971056 c -3.131834,2.306392 -6.318342,3.294286 -7.117264,2.206526 -0.798922,-1.087761 1.092277,-3.839265 4.224111,-6.145658 3.131835,-2.306391 6.318342,-3.294286 7.117264,-2.206525 0.798922,1.087761 -1.092276,3.839266 -4.224111,6.145657 z m -0.377487,3.449413 a 2.1648357,6.2319169 2.6404685e-7 0 1 -1.069088,0.812942 2.1648357,6.2319169 2.6404685e-7 0 1 -1.069104,-0.81297 m -0.0015,-10.835361 a 2.1648357,6.2319169 2.6404685e-7 0 1 1.07065,-0.815504 2.1648357,6.2319169 2.6404685e-7 0 1 1.070035,0.814495 m -0.388678,5.417422 a 0.6804579,0.68135694 89.99992 0 1 -0.681356,0.680459 0.6804579,0.68135694 89.99992 0 1 -0.681357,-0.680459 0.6804579,0.68135694 89.99992 0 1 0.681356,-0.680457 0.6804579,0.68135694 89.99992 0 1 0.681357,0.680457 z m 13.629057,-8.849654 c 1.053962,10e-7 1.902459,1.032151 1.902458,2.314241 v 8.839137 c 1e-6,1.28209 -0.848496,2.314241 -1.902458,2.314241 -1.053962,0 -1.902459,-1.032152 -1.902458,-2.314241 v -8.839137 c 0,-1.282089 0.848497,-2.314241 1.902458,-2.314241 z m -28.5286095,0 c 1.0539625,0 1.9024575,1.032151 1.9024575,2.314241 v 8.839136 c 1e-6,1.28209 -0.848495,2.314241 -1.9024575,2.314242 -1.053961,-1e-6 -1.902457,-1.032152 -1.902457,-2.314241 v -8.839137 c 0,-1.282089 0.848496,-2.314241 1.902457,-2.314241 z m 4.0364095,0.337524 v 14.744243 c 0,1.282085 1.03298,2.314239 2.316092,2.31424 h 1.918013 v 5.329081 c 1e-6,1.282088 0.84822,2.31424 1.90218,2.314241 1.053961,-10e-7 1.902182,-1.032153 1.902181,-2.314241 v -5.329081 h 4.37886 v 5.329081 c 10e-7,1.282089 0.84822,2.314241 1.902181,2.31424 1.05396,10e-7 1.902181,-1.032152 1.90218,-2.31424 l 10e-7,-5.329081 h 1.918013 c 1.283111,0 2.316091,-1.032155 2.316092,-2.31424 V 18.79759 Z M 31.156148,4.5006054 28.688144,8.7331285 m -11.84428,-4.2325226 2.468004,4.2325236 m -5.540287,7.7776595 c 0.229133,-4.925323 4.720902,-8.8548175 10.228425,-8.8548185 5.507526,0 9.999295,3.9294955 10.228426,8.8548195 z" /></svg>
