<?xml version="1.0" encoding="UTF-8" standalone="no"?>
<svg
   viewBox="0 0 48 48"
   version="1.1"
   id="svg1"
   sodipodi:docname="atom_for_reddit.svg"
   inkscape:version="1.3.2 (091e20ef0f, 2023-11-25)"
   xml:space="preserve"
   xmlns:inkscape="http://www.inkscape.org/namespaces/inkscape"
   xmlns:sodipodi="http://sodipodi.sourceforge.net/DTD/sodipodi-0.dtd"
   xmlns="http://www.w3.org/2000/svg"
   xmlns:svg="http://www.w3.org/2000/svg"><sodipodi:namedview
     id="namedview1"
     pagecolor="#505050"
     bordercolor="#eeeeee"
     borderopacity="1"
     inkscape:showpageshadow="0"
     inkscape:pageopacity="0"
     inkscape:pagecheckerboard="0"
     inkscape:deskcolor="#505050"
     inkscape:zoom="17.8125"
     inkscape:cx="15.242105"
     inkscape:cy="26.133333"
     inkscape:window-width="1918"
     inkscape:window-height="1053"
     inkscape:window-x="0"
     inkscape:window-y="0"
     inkscape:window-maximized="1"
     inkscape:current-layer="svg1" /><defs
     id="defs1"><style
       id="style1">.a { fill:none;stroke:#fff;stroke-linecap:round;stroke-linejoin:round; }
</style></defs><path
     id="circle13"
     style="fill:none;stroke:#ffffff;stroke-width:0.999997;stroke-linecap:round;stroke-linejoin:round;stroke-opacity:1"
     d="m 10.125798,19.763304 a 1.4190834,1.4192121 0 0 1 -1.4190839,1.419213 1.4190834,1.4192121 0 0 1 -1.4190834,-1.419213 1.4190834,1.4192121 0 0 1 1.4190834,-1.419211 1.4190834,1.4192121 0 0 1 1.4190839,1.419211 z m 30.122678,0.878982 a 1.4190834,1.4192121 0 0 1 -1.419084,1.419212 1.4190834,1.4192121 0 0 1 -1.419082,-1.419212 1.4190834,1.4192121 0 0 1 1.419082,-1.419212 1.4190834,1.4192121 0 0 1 1.419084,1.419212 z M 25.562307,5.9192121 A 1.4190834,1.4192121 0 0 1 24.143224,7.3384241 1.4190834,1.4192121 0 0 1 22.72414,5.9192121 1.4190834,1.4192121 0 0 1 24.143224,4.5 1.4190834,1.4192121 0 0 1 25.562307,5.9192121 Z M 35.128473,35.261371 A 18.491224,6.5761257 30.002901 0 0 39.937006,33.66835 18.491224,6.5761257 30.002901 0 0 27.21134,18.726889 18.491224,6.5761257 30.002901 0 0 7.909995,15.17587 18.491224,6.5761257 30.002901 0 0 8.0371423,18.487827 m 1.4477443,2.434508 A 18.491224,6.5761257 30.002901 0 0 20.297338,29.92028 m -7.139365,5.341089 A 6.5761257,18.491224 59.997099 0 1 8.3494402,33.668346 6.5761257,18.491224 59.997099 0 1 21.075106,18.726885 6.5761257,18.491224 59.997099 0 1 40.376452,15.175866 6.5761257,18.491224 59.997099 0 1 39.731546,19.519443 M 38.071401,21.84 A 6.5761257,18.491224 59.997099 0 1 27.99184,29.918672 m -9.983168,1.052627 A 6.5756785,18.492481 0 0 1 17.567545,24.312241 6.5756785,18.492481 0 0 1 22.762769,6.2318526 m 2.760435,-2.862e-4 a 6.5756785,18.492481 0 0 1 5.195698,18.0806746 v 0 A 6.5756785,18.492481 0 0 1 30.277775,30.9713 m -8.459952,5.408524 a 1.2588323,1.7067964 0 0 1 -1.258832,1.706797 1.2588323,1.7067964 0 0 1 -1.258832,-1.706797 1.2588323,1.7067964 0 0 1 1.258832,-1.706797 1.2588323,1.7067964 0 0 1 1.258832,1.706797 z m 7.168465,0 a 1.2588323,1.7067964 0 0 1 -1.258832,1.706797 1.2588323,1.7067964 0 0 1 -1.258832,-1.706797 1.2588323,1.7067964 0 0 1 1.258832,-1.706797 1.2588323,1.7067964 0 0 1 1.258832,1.706797 z m -0.392329,3.914997 c 1.806324,-0.197922 3.70978,-1.472671 3.367605,-3.453094 -0.34117,-1.974615 -1.940985,-3.115924 -3.284321,-3.667139 -0.949769,-0.389721 -1.894147,-0.716491 -4.53402,-0.716491 -2.639873,0 -3.584251,0.32677 -4.534019,0.716491 -1.343337,0.551215 -2.943151,1.692524 -3.284322,3.667139 -0.342175,1.980423 1.561281,3.255172 3.367605,3.453094 1.319828,0.144614 2.383333,0.219825 4.450736,0.219825 2.067403,0 3.130908,-0.07521 4.450736,-0.219825 z M 23.152664,25.320444 22.779717,29.32633 c -2.85675,0.353811 -7.064756,2.111035 -8.421975,5.703076 h -0.577136 c -0.542062,0 -0.978455,0.436432 -0.978455,0.978544 v 2.834337 c 0,0.542112 0.436393,0.978544 0.978455,0.978544 h 0.496872 c 0.670289,1.78807 2.233083,2.803052 4.429802,3.281562 1.898671,0.413587 3.252257,0.397533 5.435944,0.397533 2.183687,0 3.537271,0.01606 5.435944,-0.397533 2.196718,-0.47851 3.759512,-1.493492 4.429801,-3.281562 h 0.496872 c 0.542062,0 0.978455,-0.436432 0.978455,-0.978544 V 36.00795 c 0,-0.542112 -0.436393,-0.978544 -0.978455,-0.978544 H 33.928705 C 32.571486,31.437365 28.363481,29.680141 25.506729,29.32633 l -0.372946,-4.005886 m 0.855672,-1.556467 a 1.8462314,1.8463988 0 0 1 -1.846231,1.8464 1.8462314,1.8463988 0 0 1 -1.846232,-1.8464 1.8462314,1.8463988 0 0 1 1.846232,-1.846399 1.8462314,1.8463988 0 0 1 1.846231,1.846399 z" /></svg>
