<?xml version="1.0" encoding="UTF-8" standalone="no"?>
<svg
   viewBox="0 0 48 48"
   version="1.1"
   id="svg1"
   sodipodi:docname="banco_pan.svg"
   inkscape:version="1.3.2 (091e20ef0f, 2023-11-25)"
   xml:space="preserve"
   xmlns:inkscape="http://www.inkscape.org/namespaces/inkscape"
   xmlns:sodipodi="http://sodipodi.sourceforge.net/DTD/sodipodi-0.dtd"
   xmlns="http://www.w3.org/2000/svg"
   xmlns:svg="http://www.w3.org/2000/svg"><sodipodi:namedview
     id="namedview1"
     pagecolor="#505050"
     bordercolor="#eeeeee"
     borderopacity="1"
     inkscape:showpageshadow="0"
     inkscape:pageopacity="0"
     inkscape:pagecheckerboard="0"
     inkscape:deskcolor="#505050"
     inkscape:zoom="8.90625"
     inkscape:cx="-12.74386"
     inkscape:cy="15.550877"
     inkscape:window-width="1918"
     inkscape:window-height="1053"
     inkscape:window-x="0"
     inkscape:window-y="0"
     inkscape:window-maximized="1"
     inkscape:current-layer="svg1" /><defs
     id="defs1"><style
       id="style1">.a { fill:none;stroke:#fff;stroke-linecap:round;stroke-linejoin:round; }
</style></defs><path
     id="path4"
     style="fill:none;stroke:#ffffff;stroke-width:1;stroke-linecap:round;stroke-linejoin:round;stroke-opacity:1"
     d="m 28.608352,26.360701 a 4.8445589,4.8269464 0 0 1 -4.844558,4.826945 4.8445589,4.8269464 0 0 1 -4.844561,-4.826945 4.8445589,4.8269464 0 0 1 4.844561,-4.826946 4.8445589,4.8269464 0 0 1 4.844558,4.826946 v 0 M 23.763794,13.98589 c 6.859357,1e-6 12.419962,5.540392 12.419962,12.374811 v 0 c -1e-6,6.834418 -5.560607,12.374808 -12.419962,12.374809 -1.667253,0 -3.317439,-0.334463 -4.848895,-0.991922 L 18.918099,43.5 H 11.816245 V 25.600735 c 0,-7.103072 6.838223,-11.614845 11.947487,-11.614845 z M 11.816307,4.4999997 h 7.101891 v 7.0762873 h -7.101891 z" /></svg>
