<?xml version="1.0" encoding="UTF-8" standalone="no"?>
<svg
   viewBox="0 0 48 48"
   version="1.1"
   id="svg1"
   sodipodi:docname="brain_out.svg"
   inkscape:version="1.3.2 (091e20ef0f, 2023-11-25)"
   xml:space="preserve"
   xmlns:inkscape="http://www.inkscape.org/namespaces/inkscape"
   xmlns:sodipodi="http://sodipodi.sourceforge.net/DTD/sodipodi-0.dtd"
   xmlns="http://www.w3.org/2000/svg"
   xmlns:svg="http://www.w3.org/2000/svg"><sodipodi:namedview
     id="namedview1"
     pagecolor="#505050"
     bordercolor="#eeeeee"
     borderopacity="1"
     inkscape:showpageshadow="0"
     inkscape:pageopacity="0"
     inkscape:pagecheckerboard="0"
     inkscape:deskcolor="#505050"
     inkscape:zoom="8.90625"
     inkscape:cx="-1.5157895"
     inkscape:cy="41.375439"
     inkscape:window-width="1918"
     inkscape:window-height="1053"
     inkscape:window-x="0"
     inkscape:window-y="0"
     inkscape:window-maximized="1"
     inkscape:current-layer="svg1" /><defs
     id="defs1"><style
       id="style1">.a { fill:none;stroke:#fff;stroke-linecap:round;stroke-linejoin:round; }
</style></defs><path
     id="path447"
     style="fill:none;stroke:#ffffff;stroke-width:1;stroke-linecap:round;stroke-linejoin:round;stroke-opacity:1"
     class="t"
     d="m 29.428782,20.476491 c 0.357783,-1.002839 1.106861,-1.759934 2.028966,-2.17316 0.922104,-0.413227 2.016773,-0.482934 3.065856,-0.110771 2.098166,0.744326 3.219037,2.973756 2.50347,4.979435 -0.357784,1.00284 -1.063033,1.860656 -2.028966,2.173161 -1.001333,0.323936 -3.267432,0.632689 -3.81568,2.169386 m -0.07522,4.343601 a 1.3742699,1.3144836 18.428027 0 1 -1.736871,0.778612 1.3742699,1.3144836 18.428027 0 1 -0.853455,-1.697533 1.3742699,1.3144836 18.428027 0 1 1.736871,-0.778614 1.3742699,1.3144836 18.428027 0 1 0.853455,1.697535 z M 16.743868,7.5075938 c -0.03628,0.7696327 0.330091,1.9701577 0.939656,2.5344592 0.539939,0.499845 -0.140674,1.798521 0.528917,2.55544 0.740924,0.837554 0.635703,1.323844 -0.02522,2.46966 -1.069761,1.85461 -1.604074,3.642062 -1.022924,6.075505 m 5.233371,4.781092 c -1.272436,0.262885 -2.160453,-1.168946 -2.970991,-2.171872 -1.235484,-1.528739 -2.050102,-2.687262 -3.618477,-2.991873 -3.234804,-0.628265 -4.458073,-5.487509 -2.113812,-7.128304 0.816072,-0.571185 2.055186,-0.763458 2.151368,-2.176485 0.06573,-0.965734 -0.603165,-0.702214 -1.024794,-0.612635 l -1.634239,0.347206 C 12.022885,11.437054 12.74626,9.7952669 13.589155,9.6229974 m 7.5203,20.2212666 C 20.687881,27.966942 19.283873,26.98118 17.44721,26.792324 16.376097,26.682187 15.652583,25.549147 14.830036,24.888596 13.8212,24.078445 12.799988,23.726765 12.051907,24.719799 11.878467,23.809056 11.196028,23.332595 10.65223,22.802325 10.07573,22.240166 9.8187605,21.204807 9.5411736,20.355255 m 3.2173524,9.941705 c 1.724559,0.09164 2.114597,-0.328898 3.081389,-0.64525 0.837851,-0.274161 1.784166,-0.04572 2.242719,0.388297 m 3.221988,4.888505 -2.721348,-1.216585 c -1.949431,-0.871497 -1.109571,-3.2212 -0.01729,-4.051453 m 2.500084,13.701125 c 1.617929,-0.277736 3.302894,-1.905668 2.624217,-3.434964 -0.325063,-0.732479 -0.628147,-1.30264 -0.438594,-2.259676 0.339744,-1.715332 -0.427534,-2.472344 -0.331471,-4.011142 0.07302,-1.169777 0.483864,-2.905657 0.483864,-5.812331 V 21.618923 C 21.534232,20.174781 22.837615,16.360614 22.941164,13.544944 23.034647,11.002963 23.44435,8.4929818 22.751527,5.6346533 21.685659,3.9443165 18.717849,4.2269421 17.512087,5.9215184 17.19322,6.369655 16.597686,5.8259616 15.918714,5.7137579 12.386688,5.1300712 11.360646,8.9972932 10.42071,12.155037 c -0.301945,1.014394 -0.9405141,1.233285 -1.6554313,2.782204 -0.2431247,0.526747 0.1111922,2.566886 -0.8819065,3.401108 -0.8710095,0.731666 -1.9678197,1.861137 -1.5504156,3.339554 0.3618302,1.281578 -0.9283437,3.150102 -0.94491,5.496847 -0.011087,1.570627 1.0400817,1.796805 1.5546545,2.56282 0.4664396,0.694361 -0.9502773,4.266109 1.51731,4.647355 2.2045139,0.340599 1.2021835,1.115097 1.9113959,1.373716 0.514223,0.187514 1.534755,0.456815 1.995107,0.793108 1.288984,0.941617 0.674199,2.868485 2.099669,3.793596 l 4.569795,2.965737 c 0.493875,0.320518 1.40901,0.157131 2.030089,0.05051 z M 40.489286,24.657543 c 0.657305,-1.187627 1.91465,-2.319211 1.736314,-3.856231 -0.14249,-1.228067 -1.458479,-1.649269 -2.334595,-3.019266 -0.508079,-0.79449 -0.01797,-2.33103 -1.751359,-4.109665 C 36.987954,12.490627 36.981827,10.808892 36.465352,9.5208862 35.767934,7.7816373 34.37566,5.8042171 32.890656,5.8343652 31.914173,5.8541895 30.992776,6.836947 29.963677,5.5736328 28.841143,4.1956187 25.981209,5.0812925 26.20729,7.5538087 c -1.577311,1.349045 -2.071112,3.5587733 -1.68205,5.4835443 0.249371,1.233691 -0.475095,2.380789 -0.285772,4.054461 0.09542,0.843493 0.701074,1.118187 0.533177,2.483142 -0.183272,1.489959 0.980579,1.935161 0.678687,2.965613 -0.332273,1.134151 -0.362237,2.085476 -0.207692,2.960925 0.210596,1.19297 0.265671,2.394713 -0.08697,3.592069 -0.366942,1.984247 -1.200662,3.628489 0.08527,5.9801 -0.700613,1.806761 -0.379826,3.613521 0.04765,5.420281 -0.04729,2.955414 2.400809,3.730735 4.708194,2.083784 1.048705,-0.848016 2.165454,-1.511669 3.308764,-2.037458 1.757351,-0.808176 1.869039,-1.558542 2.183708,-2.441217 0.215821,-0.750191 0.90852,-1.180256 1.701529,-1.379562 0.725468,-0.18233 0.607056,-0.988055 1.01148,-1.441511 0.483773,-0.542425 1.062594,-0.683496 1.641704,-0.94422 0.974707,-0.438827 1.233203,-1.364083 1.099753,-2.708647 -0.199239,-2.007415 0.567428,-2.325981 1.137671,-3.07564 1.019733,-1.340573 0.394282,-3.238324 -0.392154,-5.599293" /></svg>
