<?xml version="1.0" encoding="UTF-8" standalone="no"?>
<svg
   viewBox="0 0 48 48"
   version="1.1"
   id="svg1"
   sodipodi:docname="cast_to_tv.svg"
   inkscape:version="1.3.2 (091e20ef0f, 2023-11-25)"
   xml:space="preserve"
   xmlns:inkscape="http://www.inkscape.org/namespaces/inkscape"
   xmlns:sodipodi="http://sodipodi.sourceforge.net/DTD/sodipodi-0.dtd"
   xmlns="http://www.w3.org/2000/svg"
   xmlns:svg="http://www.w3.org/2000/svg"><sodipodi:namedview
     id="namedview1"
     pagecolor="#505050"
     bordercolor="#eeeeee"
     borderopacity="1"
     inkscape:showpageshadow="0"
     inkscape:pageopacity="0"
     inkscape:pagecheckerboard="0"
     inkscape:deskcolor="#505050"
     inkscape:zoom="8.90625"
     inkscape:cx="9.7122807"
     inkscape:cy="21.052632"
     inkscape:window-width="1918"
     inkscape:window-height="1053"
     inkscape:window-x="0"
     inkscape:window-y="0"
     inkscape:window-maximized="1"
     inkscape:current-layer="svg1" /><defs
     id="defs1"><style
       id="style1">.a { fill:none;stroke:#fff;stroke-linecap:round;stroke-linejoin:round; }
</style></defs><path
     id="path6"
     style="fill:none;stroke:#ffffff;stroke-width:0.999995;stroke-linecap:round;stroke-linejoin:round;stroke-opacity:1"
     d="M 22.191865,19.604052 A 2.9193613,2.9193585 0 0 1 24,18.976704 a 2.9193613,2.9193585 0 0 1 1.808135,0.627349 m -6.96555,-3.371897 A 7.5787328,7.5787256 0 0 1 24,14.206646 7.5787328,7.5787256 0 0 1 29.157993,16.232692 M 15.451172,12.811732 A 12.393902,12.39389 0 0 1 24,9.3914828 12.393902,12.39389 0 0 1 32.548572,12.81149 M 22.236984,37.852662 h 3.526031 c 0.819224,0 1.478744,0.659519 1.478744,1.478742 v 0.05249 c 0,0.819223 -0.65952,1.478742 -1.478744,1.478742 h -3.526031 c -0.819224,0 -1.478744,-0.659519 -1.478744,-1.478742 v -0.05249 c 0,-0.819223 0.65952,-1.478742 1.478744,-1.478742 z M 17.476716,36.039609 V 24.714164 c 0,-0.819222 0.65952,-1.478742 1.478743,-1.478742 v 0 h 10.047338 c 0.819223,0 1.478744,0.65952 1.478744,1.478742 V 36.039609 Z M 19.04211,20.366276 h 9.91578 c 2.457672,0 4.436231,1.978557 4.436231,4.436226 v 13.213797 c 0,2.457669 -1.978559,4.436226 -4.436231,4.436226 h -9.91578 c -2.457672,0 -4.436231,-1.978557 -4.436231,-4.436226 V 24.802502 c 0,-2.457669 1.978559,-4.436226 4.436231,-4.436226 z M 14.605569,34.522979 H 7.4716571 c -1.0922975,0 -1.9716581,-0.879359 -1.9716581,-1.971656 V 7.5191309 c 0,-1.0922964 0.8793606,-1.9716562 1.9716581,-1.9716562 v 0 H 40.528343 c 1.092297,0 1.971658,0.8793598 1.971658,1.9716562 V 32.551323 c 0,1.092297 -0.879361,1.971656 -1.971658,1.971656 l -7.133915,-10e-7" /></svg>
