<?xml version="1.0" encoding="UTF-8" standalone="no"?>
<svg
   viewBox="0 0 48 48"
   version="1.1"
   id="svg1"
   sodipodi:docname="chordify.svg"
   inkscape:version="1.3.2 (091e20ef0f, 2023-11-25)"
   xml:space="preserve"
   xmlns:inkscape="http://www.inkscape.org/namespaces/inkscape"
   xmlns:sodipodi="http://sodipodi.sourceforge.net/DTD/sodipodi-0.dtd"
   xmlns="http://www.w3.org/2000/svg"
   xmlns:svg="http://www.w3.org/2000/svg"><sodipodi:namedview
     id="namedview1"
     pagecolor="#505050"
     bordercolor="#eeeeee"
     borderopacity="1"
     inkscape:showpageshadow="0"
     inkscape:pageopacity="0"
     inkscape:pagecheckerboard="0"
     inkscape:deskcolor="#505050"
     inkscape:zoom="8.90625"
     inkscape:cx="-3.3122807"
     inkscape:cy="21.614035"
     inkscape:window-width="1918"
     inkscape:window-height="1053"
     inkscape:window-x="0"
     inkscape:window-y="0"
     inkscape:window-maximized="1"
     inkscape:current-layer="svg1" /><defs
     id="defs1"><style
       id="style1">.a { fill:none;stroke:#fff;stroke-linecap:round;stroke-linejoin:round; }
</style></defs><path
     id="path30"
     style="fill:none;stroke:#ffffff;stroke-width:1;stroke-linecap:round;stroke-linejoin:round;stroke-dasharray:none;stroke-opacity:1"
     d="m 12.408322,26.660661 h 3.745472 m 15.69236,2e-6 h 3.745474 M 11.715099,18.878505 h 4.100705 m 16.368341,0 h 4.100707 M 11.070159,11.09635 h 4.12485 m 17.609931,0 h 4.124849 m -1.336515,13.71964 v 3.689348 M 12.406726,24.81599 v 3.689348 M 36.287255,17.033832 V 20.72318 M 11.712744,17.033832 V 20.72318 M 36.931666,9.2516754 V 12.941023 M 11.068333,9.2516754 v 3.6893476 m 7.500736,24.505942 H 29.433132 M 18.707026,32.181128 H 29.295177 M 26.8317,10.125543 V 25.984102 M 21.168299,10.125543 V 25.984102 M 31.791219,5.7520204 c 0.722527,0.216095 1.255362,0.80018 1.370166,1.26313 -0.602167,7.2520446 -1.216433,12.2914236 -1.359086,21.6415356 l -2.517305,3.072849 0.269483,10.380954 c 0.01695,0.654805 -0.741543,1.38951 -1.402855,1.38951 H 24 19.848377 c -0.661312,0 -1.419854,-0.734705 -1.402855,-1.38951 L 18.715005,31.729535 16.197701,28.656686 C 16.055049,19.306574 15.440782,14.267195 14.838615,7.0151504 c 0.114804,-0.46295 0.647639,-1.047035 1.370166,-1.26313 0,0 2.561368,-1.2520198 7.79122,-1.2520198 5.229851,0 7.791219,1.2520198 7.791218,1.2520198 z" /></svg>
