<?xml version="1.0" encoding="UTF-8" standalone="no"?>
<svg
   viewBox="0 0 48 48"
   version="1.1"
   id="svg1"
   sodipodi:docname="classchartsstudents.svg"
   inkscape:version="1.3.2 (091e20ef0f, 2023-11-25)"
   xml:space="preserve"
   xmlns:inkscape="http://www.inkscape.org/namespaces/inkscape"
   xmlns:sodipodi="http://sodipodi.sourceforge.net/DTD/sodipodi-0.dtd"
   xmlns="http://www.w3.org/2000/svg"
   xmlns:svg="http://www.w3.org/2000/svg"><sodipodi:namedview
     id="namedview1"
     pagecolor="#505050"
     bordercolor="#eeeeee"
     borderopacity="1"
     inkscape:showpageshadow="0"
     inkscape:pageopacity="0"
     inkscape:pagecheckerboard="0"
     inkscape:deskcolor="#505050"
     inkscape:zoom="35.625"
     inkscape:cx="25.052632"
     inkscape:cy="29.712281"
     inkscape:window-width="1918"
     inkscape:window-height="1053"
     inkscape:window-x="0"
     inkscape:window-y="0"
     inkscape:window-maximized="1"
     inkscape:current-layer="svg1" /><defs
     id="defs1"><style
       id="style1">.a { fill:none;stroke:#fff;stroke-linecap:round;stroke-linejoin:round; }
</style></defs><path
     id="ellipse3"
     style="fill:none;stroke:#ffffff;stroke-width:1;stroke-linecap:round;stroke-linejoin:round;stroke-opacity:1"
     d="m 23.48204,6.3235503 c -1.37167,-0.027324 -2.508547,1.1897673 -2.539789,2.718989 -0.03118,1.5295817 1.055586,2.7924177 2.427556,2.8208467 1.372471,0.02862 2.510628,-1.188845 2.541868,-2.7189885 0.03118,-1.5304703 -1.056843,-2.7936821 -2.429635,-2.8208472 z m 7.367882,3.5795861 c -0.19571,-0.008 -0.41887,0.01872 -0.66924,0.08523 -1.409976,0.3745596 -2.597249,1.2928326 -4.007131,2.6670196 -1.304208,1.271189 -2.714727,2.077533 -3.400241,1.519558 -2.103202,-1.711903 -4.774583,-4.3782396 -6.066812,-3.868531 -0.919457,0.362673 -0.780097,1.296515 -0.02494,2.267902 1.038747,1.300941 3.949547,3.500267 3.782664,4.770703 -0.264364,2.012529 -1.334483,3.026162 -2.385988,4.336248 -0.477704,0.595178 -0.587197,1.20406 -0.467637,1.687934 -0.922913,0.761355 -1.863961,1.59686 -2.722688,2.294927 -0.783747,0.637116 -2.397563,-0.284258 -3.888662,-1.735746 C 9.3873311,22.359286 8.0305038,21.310716 6.4184819,20.88303 4.1285002,20.275473 3.8108293,22.627171 5.8968068,24.140412 c 1.4893778,1.080444 3.1535803,1.249853 4.2565372,2.966359 0.807168,1.256175 0.377138,2.920519 -0.4281479,4.097193 -1.2656534,1.849348 -2.8352514,3.035396 -3.3856929,5.458765 -0.2958612,1.302553 0.8201646,1.827423 2.3236368,1.367809 1.729056,-0.528576 2.473983,-2.722503 5.058795,-5.59804 0.259225,-0.288386 0.699826,-0.316989 0.997625,0.03533 l 3.441809,4.072248 c 0.471616,0.535002 0.977322,0.738339 1.421617,0.70885 -0.254059,0.312995 -0.520827,0.624217 -0.785631,0.95414 -1.413223,1.760756 0.394318,3.650383 1.831059,2.018454 l 3.009505,-3.565035 c 0.260472,-0.308561 0.646189,-0.283744 0.872922,-0.03118 2.260839,2.518347 2.912545,4.440827 4.424887,4.903742 1.315031,0.402523 2.291441,-0.05867 2.032662,-1.199431 -0.414666,-1.827943 -1.490019,-2.852878 -2.487829,-4.136688 0.428443,0.0066 0.910289,-0.199531 1.359265,-0.708849 l 3.439731,-4.072248 c 0.297799,-0.352328 0.740478,-0.323724 0.999705,-0.03534 2.584811,2.875537 3.329738,5.069465 5.058793,5.598041 1.503473,0.459614 2.6195,-0.06525 2.323638,-1.367809 -0.550441,-2.423367 -2.120039,-3.611497 -3.385694,-5.460845 -0.805287,-1.176673 -1.235317,-2.838939 -0.428147,-4.095113 1.102957,-1.716506 2.76508,-1.885914 4.254458,-2.966358 2.085979,-1.51324 1.770387,-3.864939 -0.519597,-3.257382 -1.612021,0.427687 -2.970928,1.476255 -4.582843,3.04535 -1.491099,1.451488 -3.102838,2.372861 -3.886584,1.735747 -1.293125,-1.051194 -2.887677,-2.271976 -4.096501,-3.361319 -0.679444,-0.612287 -1.17115,-1.403609 -1.729218,-2.220093 -0.704357,-1.030512 -1.08011,-2.487765 -0.374109,-3.587901 0.964715,-1.503287 2.419687,-1.65011 3.722391,-2.596344 1.59646,-1.159611 1.58404,-2.8833156 0.214074,-2.9393346 z m 3.073935,5.7393956 c -1.568481,-0.03105 -2.868273,1.359226 -2.903506,3.105634 -0.03516,1.746706 1.207989,3.188289 2.776724,3.219964 1.568481,0.03105 2.868273,-1.359225 2.903507,-3.105633 0.03516,-1.746707 -1.207989,-3.188291 -2.776725,-3.219965 z M 14.07526,16.69853 c -1.568736,0.03167 -2.81188,1.473258 -2.776725,3.219965 0.03523,1.747328 1.336304,3.13798 2.905585,3.105634 1.568736,-0.03167 2.81188,-1.473258 2.776725,-3.219965 -0.03523,-1.747328 -1.336304,-3.13798 -2.905585,-3.105634 z m 9.294547,3.209572 c 0.157437,-6.38e-4 0.310624,0.06912 0.423991,0.1954 2.260838,2.518347 2.910467,4.440825 4.422808,4.903743 0.403715,0.123631 1.553813,1.569463 1.745845,1.845922 -1.027666,0.477005 -1.983884,1.2636 -3.071856,2.324028 -1.304209,1.271188 -2.714728,2.079611 -3.400241,1.521636 -1.534093,-1.248677 -3.368385,-3.001215 -4.751194,-3.662736 1.024161,-1.141891 2.424441,-2.342067 3.111346,-3.201256 0.830291,-1.066672 1.00763,-2.090718 0.08521,-2.53606 l 0.983077,-1.164093 c 0.130237,-0.154281 0.293573,-0.225948 0.45101,-0.226581 z m 0.831355,2.937256 c -1.372383,-0.02731 -2.509561,1.191032 -2.539789,2.721068 -0.03014,1.528772 1.056331,2.790329 2.427556,2.818768 1.37167,0.02732 2.508547,-1.189767 2.539789,-2.718989 0.03118,-1.529581 -1.055586,-2.792418 -2.427556,-2.820847 z m -6.677858,6.396276 c 1.124805,1.314155 3.820942,3.400283 3.66004,4.625192 -0.07302,0.555864 -0.210004,1.032696 -0.388659,1.463431 -0.07384,-0.353287 -0.243789,-0.72852 -0.54038,-1.097574 -1.202184,-1.495904 -2.426677,-2.653576 -2.728923,-4.951554 -0.0018,-0.01305 -9.27e-4,-0.02628 -0.0021,-0.03949 z m 12.383031,0.941669 c -0.541319,1.141794 -1.35669,1.99191 -2.161523,2.993381 -0.196426,0.244416 -0.337339,0.490394 -0.432305,0.731717 -0.125187,-0.671374 -0.05673,-1.360629 0.320072,-1.947778 0.614366,-0.957347 1.427533,-1.363205 2.273756,-1.77732 z"
     sodipodi:nodetypes="cccccssssscsscssssssssscccscccsscccsssssssssssssssccccccccccscscssccccssccccccscsccccscsc" /></svg>
