<?xml version="1.0" encoding="UTF-8" standalone="no"?>
<svg
   viewBox="0 0 48 48"
   version="1.1"
   id="svg1"
   sodipodi:docname="daviplata.svg"
   inkscape:version="1.3.2 (091e20ef0f, 2023-11-25)"
   xml:space="preserve"
   xmlns:inkscape="http://www.inkscape.org/namespaces/inkscape"
   xmlns:sodipodi="http://sodipodi.sourceforge.net/DTD/sodipodi-0.dtd"
   xmlns="http://www.w3.org/2000/svg"
   xmlns:svg="http://www.w3.org/2000/svg"><sodipodi:namedview
     id="namedview1"
     pagecolor="#505050"
     bordercolor="#eeeeee"
     borderopacity="1"
     inkscape:showpageshadow="0"
     inkscape:pageopacity="0"
     inkscape:pagecheckerboard="0"
     inkscape:deskcolor="#505050"
     inkscape:zoom="6.29767"
     inkscape:cx="-17.228594"
     inkscape:cy="43.587549"
     inkscape:window-width="1918"
     inkscape:window-height="1053"
     inkscape:window-x="0"
     inkscape:window-y="0"
     inkscape:window-maximized="1"
     inkscape:current-layer="svg1" /><defs
     id="defs1"><style
       id="style1">.a { fill:none;stroke:#fff;stroke-linecap:round;stroke-linejoin:round; }
</style></defs><path
     id="path10"
     style="fill:none;stroke:#ffffff;stroke-width:1;stroke-linecap:round;stroke-linejoin:round;stroke-opacity:1"
     d="m 33.733971,27.695125 v -4.186916 m 0,2.606948 c 0,0.872615 -0.663216,1.579967 -1.481381,1.579967 v 0 c -0.818169,0 -1.481384,-0.707352 -1.481384,-1.579967 v -1.026979 c 0,-0.872616 0.663215,-1.579967 1.481384,-1.579967 v 0 c 0.818165,0 1.481381,0.707351 1.481381,1.579967 m -8.558554,2.606947 v -4.186916 m 0,2.606948 c 0,0.872615 -0.663214,1.579967 -1.481381,1.579967 v 0 c -0.818169,0 -1.481383,-0.707352 -1.481383,-1.579967 v -1.026979 c 0,-0.872616 0.663214,-1.579967 1.481383,-1.579967 v 0 c 0.818167,0 1.481381,0.707351 1.481381,1.579967 m 1.982839,-1.579969 h 1.555435 m -0.777719,-1.303471 v 4.700403 c 0,0.436307 0.331609,0.789983 0.740691,0.789983 h 0.222209 M 14.266029,23.508209 v 6.319869 m 0,-3.712921 c 0,0.872615 0.663215,1.579967 1.481382,1.579967 v 0 c 0.818167,0 1.481382,-0.707352 1.481382,-1.579967 v -1.026979 c 0,-0.872616 -0.663215,-1.579967 -1.481382,-1.579967 v 0 c -0.818167,0 -1.481382,0.707351 -1.481382,1.579967 m 5.368456,-3.712923 v 5.529886 c 0,0.436307 0.331608,0.789983 0.740691,0.789983 h 0.222209 M 6.7154763,18.079023 c -2.8342272,3.033158 -0.4560196,5.343268 4.4099577,4.763081 0.127893,3.836261 -2.7820755,5.713738 -3.5272149,8.753129 -1.176713,4.799753 4.8979179,8.851929 11.5016379,7.571377 0,0 2.04545,0.812832 4.89355,0.812832 2.848102,0 4.89921,-0.812832 4.89921,-0.812832 6.611246,1.280552 12.685877,-2.771624 11.509164,-7.571377 -0.745139,-3.039391 -3.655106,-4.916868 -3.527214,-8.753129 4.865977,0.580187 7.244184,-1.729923 4.409957,-4.763081 -1.40441,-1.502984 -3.054137,-2.658884 -4.607354,-3.580762 0.166155,-1.324196 0.426539,-2.375952 0.680626,-3.445911 C 37.729902,9.4854203 36.781482,9.2869283 36.23973,9.2869283 h -3.508093 c -1.062598,0.099475 -1.04098,0.5662948 -1.031104,1.2939237 l 0.007,0.555574 C 29.139943,9.7291031 26.461857,8.637629 23.810589,8.0205569 17.960526,9.3821369 9.5024841,15.096397 6.7154763,18.079023 Z" /></svg>
