<?xml version="1.0" encoding="UTF-8" standalone="no"?>
<svg
   viewBox="0 0 48 48"
   version="1.1"
   id="svg1"
   sodipodi:docname="eatventure.svg"
   inkscape:version="1.3.2 (091e20ef0f, 2023-11-25)"
   xml:space="preserve"
   xmlns:inkscape="http://www.inkscape.org/namespaces/inkscape"
   xmlns:sodipodi="http://sodipodi.sourceforge.net/DTD/sodipodi-0.dtd"
   xmlns="http://www.w3.org/2000/svg"
   xmlns:svg="http://www.w3.org/2000/svg"><sodipodi:namedview
     id="namedview1"
     pagecolor="#505050"
     bordercolor="#eeeeee"
     borderopacity="1"
     inkscape:showpageshadow="0"
     inkscape:pageopacity="0"
     inkscape:pagecheckerboard="0"
     inkscape:deskcolor="#505050"
     inkscape:zoom="8.90625"
     inkscape:cx="-22.287719"
     inkscape:cy="14.877193"
     inkscape:window-width="1918"
     inkscape:window-height="1053"
     inkscape:window-x="0"
     inkscape:window-y="0"
     inkscape:window-maximized="1"
     inkscape:current-layer="svg1" /><defs
     id="defs1"><style
       id="style1">.a { fill:none;stroke:#fff;stroke-linecap:round;stroke-linejoin:round; }
</style></defs><path
     id="path2"
     style="fill:none;stroke:#ffffff;stroke-width:1;stroke-linecap:round;stroke-linejoin:round;stroke-opacity:1"
     d="m 7.143159,34.757891 c 2.546253,5.332205 10.044675,6.95753 16.856841,6.95753 6.812166,0 14.310587,-1.625325 16.85684,-6.95753 M 8.329438,22.935858 7.108308,22.49538 C 6.944523,13.891548 13.819654,6.2845792 24,6.2845792 c 10.180345,0 17.055477,7.6069688 16.891691,16.2108008 l -1.221129,0.440478 C 35.562918,23.73263 31.313153,24.149946 24,24.149946 c -7.313153,0 -11.562918,-0.417316 -15.670562,-1.214088 z m 0,0 v 3.330423 C 11.909425,27.988 15.641654,28.810749 24,28.810749 c 8.358346,0 12.090575,-0.822749 15.670562,-2.544468 V 22.935858 M 5.5,28.601702 c 0.143176,0.912964 0.658856,1.416329 1.406809,1.66429 v 1.44221 C 11.66706,33.265296 15.866932,33.88953 24,33.88953 c 8.133067,0 12.33294,-0.624234 17.093191,-2.181328 v -1.44221 C 41.841144,30.018031 42.356823,29.514666 42.5,28.601702 m -2.829438,-2.335421 c 1.102364,0.3902 2.022445,1.224923 2.829438,2.335421 -1.754041,1.406597 -3.166528,1.12023 -5.624647,1.22682 -2.571449,0.111497 -4.115108,0.612577 -6.133665,1.390529 -1.852773,0.714058 -3.719039,1.558116 -6.741688,1.558116 -3.02265,0 -4.888915,-0.844058 -6.741688,-1.558116 C 15.239754,30.441099 13.696096,29.940019 11.124646,29.828522 8.666527,29.721925 7.25404,30.008299 5.5,28.601702 6.306993,27.491204 7.227073,26.656481 8.329438,26.266281 m 32.763753,5.441921 c 1.764814,0.733726 1.010996,2.365455 -0.236351,3.049689 -1.024273,0.395449 -1.944738,-0.52813 -2.59456,0.03823 -3.254729,2.83668 -6.319573,4.833524 -9.308246,2.524179 -1.437234,-1.110551 -3.253756,-0.990578 -4.993027,-1.014262 -2.120594,-0.02888 -3.169007,0.7676 -4.134098,1.838841 -1.17262,1.301594 -1.912174,0.974497 -3.161159,0.216707 C 14.793171,37.225446 12.660637,34.291902 10.960138,34.44122 9.93996,34.5308 8.962995,35.266126 7.143159,34.757895 5.895812,34.073661 5.141995,32.441932 6.906809,31.708206"
     sodipodi:nodetypes="cscccsccscccscccccscccccsssssccccsssssscc" /></svg>
