<?xml version="1.0" encoding="UTF-8" standalone="no"?>
<svg
   viewBox="0 0 48 48"
   version="1.1"
   id="svg1"
   sodipodi:docname="experian.svg"
   inkscape:version="1.3.2 (091e20ef0f, 2023-11-25)"
   xml:space="preserve"
   xmlns:inkscape="http://www.inkscape.org/namespaces/inkscape"
   xmlns:sodipodi="http://sodipodi.sourceforge.net/DTD/sodipodi-0.dtd"
   xmlns="http://www.w3.org/2000/svg"
   xmlns:svg="http://www.w3.org/2000/svg"><sodipodi:namedview
     id="namedview1"
     pagecolor="#505050"
     bordercolor="#eeeeee"
     borderopacity="1"
     inkscape:showpageshadow="0"
     inkscape:pageopacity="0"
     inkscape:pagecheckerboard="0"
     inkscape:deskcolor="#505050"
     inkscape:zoom="12.59534"
     inkscape:cx="13.219175"
     inkscape:cy="24.413792"
     inkscape:window-width="1918"
     inkscape:window-height="1053"
     inkscape:window-x="0"
     inkscape:window-y="0"
     inkscape:window-maximized="1"
     inkscape:current-layer="svg1" /><defs
     id="defs1"><style
       id="style1">.a { fill:none;stroke:#fff;stroke-linecap:round;stroke-linejoin:round; }
</style></defs><path
     id="rect5"
     style="fill:none;stroke:#ffffff;stroke-width:0.999999;stroke-linecap:round;stroke-linejoin:round;stroke-opacity:1"
     d="m 35.253059,10.498845 h 2.61231 c 0.613313,0 1.107063,0.497672 1.107063,1.115858 v 2.574001 c 0,0.618186 -0.49375,1.115858 -1.107063,1.115858 h -2.61231 c -0.613313,0 -1.107065,-0.497672 -1.107065,-1.115858 v -2.574001 c 0,-0.618186 0.493752,-1.115858 1.107065,-1.115858 z M 13.371986,27.988401 h 3.004527 c 0.705397,0 1.273281,0.572394 1.273281,1.283395 v 2.960464 c 0,0.710999 -0.567884,1.283392 -1.273281,1.283392 h -3.004527 c -0.705397,0 -1.273279,-0.572393 -1.273279,-1.283392 v -2.960464 c 0,-0.711001 0.567882,-1.283395 1.273279,-1.283395 z m 7.430345,8.489487 h 3.817115 c 0.896175,0 1.617643,0.727199 1.617643,1.630492 v 3.761129 c 0,0.903293 -0.721468,1.630492 -1.617643,1.630492 h -3.817115 c -0.896175,0 -1.617644,-0.727199 -1.617644,-1.630492 V 38.10838 c 0,-0.903293 0.721469,-1.630492 1.617644,-1.630492 z M 23.572215,4.499999 h 4.837705 c 1.135786,0 2.050157,0.921632 2.050157,2.066439 v 4.766746 c 0,1.144807 -0.914371,2.066438 -2.050157,2.066438 h -4.837705 c -1.135787,0 -2.050157,-0.921631 -2.050157,-2.066438 V 6.566438 c 0,-1.144807 0.91437,-2.066439 2.050157,-2.066439 z M 11.365,13.051048 h 5.515577 c 1.294936,0 2.337431,1.050773 2.337431,2.355993 v 5.434675 c 0,1.30522 -1.042495,2.355993 -2.337431,2.355993 H 11.365 c -1.294937,0 -2.3374325,-1.050773 -2.3374325,-2.355993 v -5.434675 c 0,-1.30522 1.0424955,-2.355993 2.3374325,-2.355993 z m 22.298308,16.450543 c -0.836897,1.433223 -2.413999,2.399323 -4.221643,2.399323 v 0 c -2.683407,0 -4.858605,-2.128558 -4.858605,-4.754428 v -3.090379 c 0,-2.62587 2.175198,-4.754428 4.858605,-4.754428 v 0 c 2.683408,0 4.858604,2.128558 4.858604,4.754428 v 1.545189 c 0,0 -9.717209,0 -9.717209,0" /></svg>
