<?xml version="1.0" encoding="UTF-8" standalone="no"?>
<svg
   viewBox="0 0 48 48"
   version="1.1"
   id="svg1"
   sodipodi:docname="forcedoze.svg"
   inkscape:version="1.3.2 (091e20ef0f, 2023-11-25)"
   xml:space="preserve"
   xmlns:inkscape="http://www.inkscape.org/namespaces/inkscape"
   xmlns:sodipodi="http://sodipodi.sourceforge.net/DTD/sodipodi-0.dtd"
   xmlns="http://www.w3.org/2000/svg"
   xmlns:svg="http://www.w3.org/2000/svg"><sodipodi:namedview
     id="namedview1"
     pagecolor="#505050"
     bordercolor="#eeeeee"
     borderopacity="1"
     inkscape:showpageshadow="0"
     inkscape:pageopacity="0"
     inkscape:pagecheckerboard="0"
     inkscape:deskcolor="#505050"
     inkscape:zoom="8.90625"
     inkscape:cx="56.421053"
     inkscape:cy="5.5578947"
     inkscape:window-width="1918"
     inkscape:window-height="1053"
     inkscape:window-x="0"
     inkscape:window-y="0"
     inkscape:window-maximized="1"
     inkscape:current-layer="svg1" /><defs
     id="defs1"><style
       id="style1">.a { fill:none;stroke:#fff;stroke-linecap:round;stroke-linejoin:round; }
</style></defs><path
     id="path18"
     style="fill:none;stroke:#ffffff;stroke-linecap:round;stroke-linejoin:round;stroke-opacity:1"
     d="m 34.720757,24.137385 h 4.779217 m -30.9999497,0 h 4.7792177 m 8.405353,-8.637975 c -0.309141,0.958721 -1.758291,0.985757 -2.07094,0 m 6.70175,0 c 0.309141,0.958721 1.758291,0.985757 2.07094,0 M 17.527215,6.5833128 19.551393,10.197473 M 15.190402,20.51706 c -0.45428,-7.23233 3.097804,-11.1302381 8.809597,-11.1302381 5.711794,0 9.263878,3.8979081 8.809598,11.1302381 -1.369031,1.276375 -4.491473,2.271101 -8.809598,2.271101 -4.318124,0 -7.440566,-0.994726 -8.809597,-2.271101 z m 17.640561,0.247987 3.191657,5.69422 c 0.801465,1.42989 1.107562,3.012352 0.03308,3.850963 -1.132083,0.883567 -2.645983,0.438908 -3.317917,-0.736119 L 29.628812,24.137385 M 30.472784,6.5833128 28.448606,10.197473 m -13.27957,10.567574 -3.191657,5.69422 c -0.801465,1.42989 -1.107561,3.012352 -0.03308,3.850963 1.132083,0.883567 2.645983,0.438908 3.317917,-0.736119 l 3.108971,-5.436726 H 29.628812 M 37.5,4.5 h -27 a 2,2 0 0 0 -2,2 v 35 a 2,2 0 0 0 2,2 h 27 a 2,2 0 0 0 2,-2 v -35 a 2,2 0 0 0 -2,-2 z" /></svg>
