<?xml version="1.0" encoding="UTF-8" standalone="no"?>
<svg
   viewBox="0 0 48 48"
   version="1.1"
   id="svg1"
   sodipodi:docname="futbin.svg"
   inkscape:version="1.3.2 (091e20ef0f, 2023-11-25)"
   xml:space="preserve"
   xmlns:inkscape="http://www.inkscape.org/namespaces/inkscape"
   xmlns:sodipodi="http://sodipodi.sourceforge.net/DTD/sodipodi-0.dtd"
   xmlns="http://www.w3.org/2000/svg"
   xmlns:svg="http://www.w3.org/2000/svg"><sodipodi:namedview
     id="namedview1"
     pagecolor="#505050"
     bordercolor="#eeeeee"
     borderopacity="1"
     inkscape:showpageshadow="0"
     inkscape:pageopacity="0"
     inkscape:pagecheckerboard="0"
     inkscape:deskcolor="#505050"
     inkscape:zoom="6.2976698"
     inkscape:cx="-24.215306"
     inkscape:cy="44.063917"
     inkscape:window-width="1918"
     inkscape:window-height="1053"
     inkscape:window-x="0"
     inkscape:window-y="0"
     inkscape:window-maximized="1"
     inkscape:current-layer="svg1" /><defs
     id="defs1"><style
       id="style1">.a { fill:none;stroke:#fff;stroke-linecap:round;stroke-linejoin:round; }
</style></defs><path
     id="path22"
     style="fill:none;stroke:#ffffff;stroke-width:1;stroke-linecap:round;stroke-linejoin:round;stroke-opacity:1"
     d="m 18.65897,20.6491 3.958923,2.782312 -5.415269,2.605057 m 14.528345,0.135765 -3.958626,-2.78232 5.414974,-2.605057 m -22.226784,2.604335 h 11.65736 M 33.073153,5.4999995 29.112329,20.291268 m -1.65162,6.167825 -4.295393,16.040537 5.93965,3.69e-4 c 3.265852,0 4.348132,-1.15267 5.371151,-4.97302 v 0 l 2.938692,-10.886117 c 0.471837,-1.747878 0.357216,-2.006565 -0.515752,-3.217088 l -2e-6,-8e-6 v 0 m -8.99555,-0.03384 h 9.044493 m -0.04895,0.03386 c 1.185978,-0.711904 1.884088,-1.971972 2.183221,-3.090012 l 2.478435,-9.263443 C 42.384421,7.9942505 42.882,5.5002125 39.308782,5.5002125 H 15.748991 L 5.8411419,42.5" /></svg>
