<?xml version="1.0" encoding="UTF-8" standalone="no"?>
<svg
   viewBox="0 0 48 48"
   version="1.1"
   id="svg1"
   sodipodi:docname="groovifi.svg"
   inkscape:version="1.3.2 (091e20ef0f, 2023-11-25)"
   xml:space="preserve"
   xmlns:inkscape="http://www.inkscape.org/namespaces/inkscape"
   xmlns:sodipodi="http://sodipodi.sourceforge.net/DTD/sodipodi-0.dtd"
   xmlns="http://www.w3.org/2000/svg"
   xmlns:svg="http://www.w3.org/2000/svg"><sodipodi:namedview
     id="namedview1"
     pagecolor="#505050"
     bordercolor="#eeeeee"
     borderopacity="1"
     inkscape:showpageshadow="0"
     inkscape:pageopacity="0"
     inkscape:pagecheckerboard="0"
     inkscape:deskcolor="#505050"
     inkscape:zoom="8.90625"
     inkscape:cx="1.6280702"
     inkscape:cy="34.750877"
     inkscape:window-width="1918"
     inkscape:window-height="1053"
     inkscape:window-x="0"
     inkscape:window-y="0"
     inkscape:window-maximized="1"
     inkscape:current-layer="svg1" /><defs
     id="defs1"><style
       id="style1">.a { fill:none;stroke:#fff;stroke-linecap:round;stroke-linejoin:round; }
</style></defs><path
     id="path5"
     style="fill:none;stroke:#ffffff;stroke-width:0.999997;stroke-linecap:round;stroke-linejoin:round"
     d="m 28.835206,29.164403 a 5.7589124,5.7431743 0 0 1 -5.758914,5.743174 5.7589124,5.7431743 0 0 1 -5.758912,-5.743174 5.7589124,5.7431743 0 0 1 5.758912,-5.743174 5.7589124,5.7431743 0 0 1 5.758914,5.743174 v 0 m 8.61597,-1e-6 a 14.374884,14.3356 0 0 1 0,1e-6 v 0 a 14.374884,14.3356 0 0 1 -14.374884,14.3356 14.374884,14.3356 0 0 1 -14.3748826,-14.3356 14.374884,14.3356 0 0 1 14.3748826,-14.3356 m 14.373609,14.335599 -8.543916,1e-6 V 4.4999858 c 5.17718,1.064967 11.64266,6.7291312 10.18437,16.8332642 m -10.255149,7.831153 a 5.7589124,5.7431743 0 0 1 -5.758914,5.743174 5.7589124,5.7431743 0 0 1 -5.758912,-5.743174 5.7589124,5.7431743 0 0 1 5.758912,-5.743174 5.7589124,5.7431743 0 0 1 5.758914,5.743174 z" /></svg>
