<?xml version="1.0" encoding="UTF-8" standalone="no"?>
<svg
   viewBox="0 0 48 48"
   version="1.1"
   id="svg1"
   sodipodi:docname="gtworld.svg"
   inkscape:version="1.3.2 (091e20ef0f, 2023-11-25)"
   xml:space="preserve"
   xmlns:inkscape="http://www.inkscape.org/namespaces/inkscape"
   xmlns:sodipodi="http://sodipodi.sourceforge.net/DTD/sodipodi-0.dtd"
   xmlns="http://www.w3.org/2000/svg"
   xmlns:svg="http://www.w3.org/2000/svg"><sodipodi:namedview
     id="namedview1"
     pagecolor="#505050"
     bordercolor="#eeeeee"
     borderopacity="1"
     inkscape:showpageshadow="0"
     inkscape:pageopacity="0"
     inkscape:pagecheckerboard="0"
     inkscape:deskcolor="#505050"
     inkscape:zoom="6.2976698"
     inkscape:cx="-35.806895"
     inkscape:cy="54.702773"
     inkscape:window-width="1918"
     inkscape:window-height="1053"
     inkscape:window-x="0"
     inkscape:window-y="0"
     inkscape:window-maximized="1"
     inkscape:current-layer="svg1" /><defs
     id="defs1"><style
       id="style1">.a { fill:none;stroke:#fff;stroke-linecap:round;stroke-linejoin:round; }
</style></defs><path
     id="path481"
     style="display:inline;fill:none;stroke:#ffffff;stroke-width:1;stroke-linecap:round;stroke-linejoin:round;stroke-opacity:1"
     class="t"
     d="M 21.177365,24.598382 C 20.989707,23.687121 20.124263,22.94845 19.244267,22.94845 v 0 c -0.879996,0 -1.441208,0.738671 -1.25355,1.649932 l 0.346184,1.681062 c 0.187658,0.911261 1.053103,1.649932 1.933099,1.649932 v 0 c 0.879996,0 1.441208,-0.738671 1.25355,-1.649932 H 19.930226 M 32.19227,22.94845 c 0.882702,0 1.744863,0.735869 1.933098,1.649932 l 0.346185,1.681062 c 0.188235,0.914063 -0.370849,1.649932 -1.25355,1.649932 -0.882702,0 -1.744864,-0.735869 -1.933099,-1.649932 L 30.93872,24.598382 c -0.188235,-0.914063 0.370848,-1.649932 1.25355,-1.649932 z m -2.360086,3.310572 0.0042,0.02042 c 0.187658,0.911261 -0.373554,1.649932 -1.25355,1.649932 v 0 c -0.879996,0 -1.745441,-0.738671 -1.933099,-1.649932 L 26.303551,24.59838 c -0.187658,-0.911261 0.373554,-1.649932 1.25355,-1.649932 v 0 c 0.879996,0 1.74544,0.738671 1.933098,1.649932 l 0.0042,0.02042 m -4.926664,3.310576 -1.025733,-4.980926 m -1.593318,0 h 3.186642 m 5.776966,-8.117209 1.099617,4.907185 v 0 h -5.68057 L 25.231722,14.831241 Z M 12.341978,12.200528 5.5003907,19.866334 M 16.531881,31.535633 7.3213493,41.855775 m 30.8175517,-10.320142 -9.7853,10.964151 m 5.604122,-30.297845 4.181178,19.333694 v 0 H 16.539131 L 12.357953,12.201939 Z M 9.5,5.5 h 29 c 2.216,0 4,1.784 4,4 v 29 c 0,2.216 -1.784,4 -4,4 h -29 c -2.216,0 -4,-1.784 -4,-4 v -29 c 0,-2.216 1.784,-4 4,-4 z" /></svg>
