<?xml version="1.0" encoding="UTF-8" standalone="no"?>
<svg
   viewBox="0 0 48 48"
   version="1.1"
   id="svg1"
   sodipodi:docname="hitv.svg"
   inkscape:version="1.3.2 (091e20ef0f, 2023-11-25)"
   xml:space="preserve"
   xmlns:inkscape="http://www.inkscape.org/namespaces/inkscape"
   xmlns:sodipodi="http://sodipodi.sourceforge.net/DTD/sodipodi-0.dtd"
   xmlns="http://www.w3.org/2000/svg"
   xmlns:svg="http://www.w3.org/2000/svg"><sodipodi:namedview
     id="namedview1"
     pagecolor="#505050"
     bordercolor="#eeeeee"
     borderopacity="1"
     inkscape:showpageshadow="0"
     inkscape:pageopacity="0"
     inkscape:pagecheckerboard="0"
     inkscape:deskcolor="#505050"
     inkscape:zoom="6.2976698"
     inkscape:cx="-29.614128"
     inkscape:cy="36.124473"
     inkscape:window-width="1918"
     inkscape:window-height="1053"
     inkscape:window-x="0"
     inkscape:window-y="0"
     inkscape:window-maximized="1"
     inkscape:current-layer="svg1" /><defs
     id="defs1"><style
       id="style1">.a { fill:none;stroke:#fff;stroke-linecap:round;stroke-linejoin:round; }
</style></defs><path
     id="path4"
     style="fill:none;stroke:#ffffff;stroke-width:1;stroke-linecap:round;stroke-linejoin:round;stroke-opacity:1"
     d="m 43.500006,14.363252 c 0,-2.090925 -2.062387,-2.086952 -2.919308,-0.986247 l -4.976117,4.324968 c -0.758772,0.659483 -1.202177,1.645094 -1.172455,3.376471 0.0224,1.304886 0.41121,2.527483 1.016453,3.150949 1.678073,1.7286 3.333873,3.105859 5.034222,4.319245 1.219044,0.869923 3.017205,0.96561 3.017205,-1.108794 0,0 0,-4.358864 0,-6.538296 0,-2.179432 0,-6.538296 0,-6.538296 z m -19.063013,2.57878 c -0.03132,0.398814 -0.381084,0.722117 -0.781212,0.722117 -0.400129,0 -0.699103,-0.323303 -0.66778,-0.722117 0.03132,-0.398815 0.381084,-0.722119 0.781214,-0.722119 0.400128,0 0.699102,0.323304 0.667778,0.722119 z m -0.923003,2.527409 -0.429426,5.46747 m -9.606649,-4.14197 h 5.485468 m 0.32287,-4.11081 -0.648189,8.25278 m -4.837279,-8.25278 -0.648189,8.25278 m 1.979468,-11.830805 c -2.046269,0.406561 -3.678385,0.899524 -5.027139,3.152661 -1.3273096,2.217314 -1.4681516,6.607665 -0.1679286,9.491786 0.4893216,1.085403 1.4000056,2.025628 2.7172466,2.523 3.832197,1.446987 7.956367,1.480396 11.509005,0 1.561847,-0.650827 2.821143,-2.008372 3.381399,-3.338058 1.442066,-3.422535 0.701147,-7.052327 -0.223464,-8.966708 -1.44219,-2.986019 -3.558003,-3.011233 -5.541481,-3.152554 -3.036887,-0.216379 -5.069935,-0.02359 -6.647638,0.289873 z m -2.821073,19.875515 c 0.969484,0.121506 1.464033,0.665755 1.612104,1.614417 v 3.234152 c 0,0.955172 1.164144,2.123736 2.189514,1.285799 3.079751,-2.516784 4.205048,-3.964665 6.864102,-5.461847 2.65527,-1.495051 7.224221,-1.852752 8.691566,-6.11033 1.195814,-3.469716 1.649485,-8.009416 0,-12.588672 -1.60651,-4.459952 -5.403617,-6.3391469 -13.06127,-6.3391469 -7.657652,0 -11.4547586,1.8791949 -13.0612693,6.3391469 -1.6494851,4.579256 -1.1236436,8.54965 0,12.588672 0.7364617,2.647266 3.2193577,5.258247 6.7652533,5.437809" /></svg>
