<?xml version="1.0" encoding="UTF-8" standalone="no"?>
<svg
   viewBox="0 0 48 48"
   version="1.1"
   id="svg1"
   sodipodi:docname="honor_health.svg"
   inkscape:version="1.3.2 (091e20ef0f, 2023-11-25)"
   xml:space="preserve"
   xmlns:inkscape="http://www.inkscape.org/namespaces/inkscape"
   xmlns:sodipodi="http://sodipodi.sourceforge.net/DTD/sodipodi-0.dtd"
   xmlns="http://www.w3.org/2000/svg"
   xmlns:svg="http://www.w3.org/2000/svg"><sodipodi:namedview
     id="namedview1"
     pagecolor="#505050"
     bordercolor="#eeeeee"
     borderopacity="1"
     inkscape:showpageshadow="0"
     inkscape:pageopacity="0"
     inkscape:pagecheckerboard="0"
     inkscape:deskcolor="#505050"
     inkscape:zoom="6.2976698"
     inkscape:cx="-33.58385"
     inkscape:cy="49.145162"
     inkscape:window-width="1918"
     inkscape:window-height="1053"
     inkscape:window-x="0"
     inkscape:window-y="0"
     inkscape:window-maximized="1"
     inkscape:current-layer="svg1" /><defs
     id="defs1"><style
       id="style1">.a { fill:none;stroke:#fff;stroke-linecap:round;stroke-linejoin:round; }
</style></defs><path
     id="path3"
     style="color:#000000;fill:none;fill-opacity:0.470664;stroke:#ffffff;stroke-width:1;stroke-linecap:round;stroke-linejoin:round;stroke-opacity:1;-inkscape-stroke:none"
     d="m 32.180625,16.057259 a 2.4139553,2.4148353 0 0 0 -1.707791,0.706423 l -6.548272,6.552756 -3.13898,-3.217684 a 2.4139553,2.4148353 0 0 0 -3.413484,-0.03983 2.4139553,2.4148353 0 0 0 -0.03982,3.414728 l 4.844674,4.963828 a 2.4141967,2.4150767 0 0 0 3.434438,0.02096 l 8.274924,-8.280029 a 2.4139553,2.4148353 0 0 0 0,-3.414728 2.4139553,2.4148353 0 0 0 -1.705694,-0.706421 z m 7.680473,-4.201524 C 35.85673,6.9912886 27.412825,6.8058083 23.999998,12.167686 20.587172,6.8058083 12.143265,6.9912886 8.1388984,11.855735 -1.9584721,24.121871 19.839398,39.834413 23.999998,39.834413 c 4.1606,0 25.958479,-15.712534 15.8611,-27.978678 z" /></svg>
