<?xml version="1.0" encoding="UTF-8" standalone="no"?>
<svg
   viewBox="0 0 48 48"
   version="1.1"
   id="svg1"
   sodipodi:docname="instant_gaming.svg"
   inkscape:version="1.3.2 (091e20ef0f, 2023-11-25)"
   xml:space="preserve"
   xmlns:inkscape="http://www.inkscape.org/namespaces/inkscape"
   xmlns:sodipodi="http://sodipodi.sourceforge.net/DTD/sodipodi-0.dtd"
   xmlns="http://www.w3.org/2000/svg"
   xmlns:svg="http://www.w3.org/2000/svg"><sodipodi:namedview
     id="namedview1"
     pagecolor="#505050"
     bordercolor="#eeeeee"
     borderopacity="1"
     inkscape:showpageshadow="0"
     inkscape:pageopacity="0"
     inkscape:pagecheckerboard="0"
     inkscape:deskcolor="#505050"
     inkscape:zoom="8.90625"
     inkscape:cx="19.929825"
     inkscape:cy="34.189474"
     inkscape:window-width="1918"
     inkscape:window-height="1053"
     inkscape:window-x="0"
     inkscape:window-y="0"
     inkscape:window-maximized="1"
     inkscape:current-layer="svg1" /><defs
     id="defs1"><style
       id="style1">.a { fill:none;stroke:#fff;stroke-linecap:round;stroke-linejoin:round; }
</style></defs><path
     id="rect1"
     style="fill:none;stroke:#ffffff;stroke-linecap:round;stroke-linejoin:round;stroke-opacity:1"
     d="m 9.5,5.5 h 29 c 2.216,0 4,1.784 4,4 v 29 c 0,2.216 -1.784,4 -4,4 h -29 c -2.216,0 -4,-1.784 -4,-4 v -29 c 0,-2.216 1.784,-4 4,-4 z m 6.59047,6.492051 -2.543454,1.452115 m 13.337434,7.802001 -0.765674,0.437142 m -1.851368,1.056989 -1.883214,1.075336 m -2.139947,1.221932 -5.739222,3.277157 c -0.519385,0.296575 -0.957103,0.919573 -0.957004,1.51759 l 7.78e-4,4.774991 v 0 c 0,0.327838 -0.08697,1.033425 0.368393,1.296282 0.455358,0.262857 0.974309,-0.02692 1.25856,-0.190345 L 35.115464,24.249951 C 35.71493,23.905318 35.78517,22.98635 35.041594,22.570309 L 24.17415,16.489835 c -1.247857,-0.69819 -1.668354,-0.493252 -2.726969,0.111167 l -7.899438,4.510193" /></svg>
