<?xml version="1.0" encoding="UTF-8" standalone="no"?>
<svg
   viewBox="0 0 48 48"
   version="1.1"
   id="svg1"
   sodipodi:docname="intelligent_cv.svg"
   inkscape:version="1.3.2 (091e20ef0f, 2023-11-25)"
   xml:space="preserve"
   xmlns:inkscape="http://www.inkscape.org/namespaces/inkscape"
   xmlns:sodipodi="http://sodipodi.sourceforge.net/DTD/sodipodi-0.dtd"
   xmlns="http://www.w3.org/2000/svg"
   xmlns:svg="http://www.w3.org/2000/svg"><sodipodi:namedview
     id="namedview1"
     pagecolor="#505050"
     bordercolor="#eeeeee"
     borderopacity="1"
     inkscape:showpageshadow="0"
     inkscape:pageopacity="0"
     inkscape:pagecheckerboard="0"
     inkscape:deskcolor="#505050"
     inkscape:zoom="8.90625"
     inkscape:cx="21.838596"
     inkscape:cy="22.849123"
     inkscape:window-width="1918"
     inkscape:window-height="1053"
     inkscape:window-x="0"
     inkscape:window-y="0"
     inkscape:window-maximized="1"
     inkscape:current-layer="svg1" /><defs
     id="defs1"><style
       id="style1">.a { fill:none;stroke:#fff;stroke-linecap:round;stroke-linejoin:round; }
</style></defs><path
     id="path13"
     style="display:inline;fill:none;stroke:#ffffff;stroke-width:1;stroke-linecap:round;stroke-linejoin:round;stroke-opacity:1"
     class="t"
     d="m 17.718274,40.313499 h -2.20034 v -4.400683 h 2.20034 m -2.20034,2.200343 h 1.434621 m 20.246999,2.20034 h -2.200342 v -4.400683 h 2.200342 m -2.200342,2.200343 h 1.434623 m -24.192714,0.755541 1.440612,1.443699 m -2.881287,0.0011 v -4.400683 h 1.440674 c 0.81451,0 1.474779,0.661697 1.474779,1.477914 0,0.816217 -0.660269,1.477915 -1.474779,1.477915 h -1.440674 m 13.278562,-2.955829 v 2.942957 c 0,0.805105 0.652621,1.457726 1.457726,1.457726 0.805106,0 1.457727,-0.652621 1.457727,-1.457726 v -2.942957 m -7.545807,3.918534 c 0.269872,0.351339 0.60823,0.482149 1.078993,0.482149 h 0.651521 c 0.606304,0 1.097805,-0.491501 1.097805,-1.097805 v -0.0047 c 0,-0.606304 -0.491502,-1.097805 -1.097805,-1.097805 H 20.46048 c -0.606964,0 -1.09896,-0.492052 -1.09896,-1.098961 v 0 c 0,-0.608285 0.493096,-1.101381 1.101381,-1.101381 h 0.647946 c 0.470763,0 0.80912,0.130865 1.078992,0.48215 m 6.606655,3.913617 v -4.395843 l 2.200342,4.400684 2.200342,-4.393973 v 4.393973 M 12.213,31.582622 h 7.836 m -7.836,-3.404545 h 7.836 m -7.836,-3.404545 h 7.836 m 2.492124,4.869798 h 13.069574 m -13.069574,-4 h 13.069574 m -13.069574,-4 h 13.069574 m -13.069574,-4 h 13.069574 m -13.069574,-4 H 35.610698 M 12.212641,12.261209 h 7.836411 L 20.049,21.705293 H 12.213 Z M 9.7447214,32.847857 v -22.9746709 0 H 38.255279 V 32.847857 m 4.274089,-0.72557 A 26.835068,5.88767 0 0 1 24,33.751163 26.835068,5.88767 0 0 1 5.4706308,32.122287 M 9.5,5.5 h 29 c 2.216,0 4,1.784 4,4 v 29 c 0,2.216 -1.784,4 -4,4 h -29 c -2.216,0 -4,-1.784 -4,-4 v -29 c 0,-2.216 1.784,-4 4,-4 z" /></svg>
