<?xml version="1.0" encoding="UTF-8" standalone="no"?>
<svg
   viewBox="0 0 48 48"
   version="1.1"
   id="svg1"
   sodipodi:docname="krasnoye_and_beloye.svg"
   inkscape:version="1.3.2 (091e20ef0f, 2023-11-25)"
   xml:space="preserve"
   xmlns:inkscape="http://www.inkscape.org/namespaces/inkscape"
   xmlns:sodipodi="http://sodipodi.sourceforge.net/DTD/sodipodi-0.dtd"
   xmlns="http://www.w3.org/2000/svg"
   xmlns:svg="http://www.w3.org/2000/svg"><sodipodi:namedview
     id="namedview1"
     pagecolor="#505050"
     bordercolor="#eeeeee"
     borderopacity="1"
     inkscape:showpageshadow="0"
     inkscape:pageopacity="0"
     inkscape:pagecheckerboard="0"
     inkscape:deskcolor="#505050"
     inkscape:zoom="8.90625"
     inkscape:cx="26.442105"
     inkscape:cy="33.291228"
     inkscape:window-width="1918"
     inkscape:window-height="1053"
     inkscape:window-x="0"
     inkscape:window-y="0"
     inkscape:window-maximized="1"
     inkscape:current-layer="svg1" /><defs
     id="defs1"><style
       id="style1">.a { fill:none;stroke:#fff;stroke-linecap:round;stroke-linejoin:round; }
</style></defs><path
     id="path499"
     style="fill:none;stroke:#ffffff;stroke-width:1;stroke-linecap:round;stroke-linejoin:round;stroke-dasharray:none;stroke-opacity:1"
     class="t"
     d="m 30.940776,24 h 4.915063 c 0,0 0,0 0,0 1.645205,0 2.978825,1.88017 2.978825,4.19962 0,2.31945 -1.33362,4.199619 -2.978825,4.199619 H 30.940776 V 15.600761 H 37.34525 M 9.1653365,24 h 1.5473505 c 1.498498,0 2.897354,1.059144 3.724872,2.820255 l 2.621664,5.578984 M 9.1653365,24 h 1.5473505 c 1.498498,0 2.897354,-1.059144 3.724872,-2.820254 l 2.621664,-5.578985 m -7.8938715,0 V 32.399218 M 27.417837,30.091784 h -0.784713 c -0.519815,0 -1.008403,-0.326367 -1.314161,-0.877826 L 22.09804,23.405137 c -0.414064,-0.713042 -1.142013,-1.651634 -1.142013,-3.042389 0,-1.312932 0.812804,-2.454532 1.94344,-2.454532 1.101153,0 1.881919,1.141448 1.881919,2.454532 0,1.39045 -0.858771,2.579261 -2.445728,2.974162 -1.769086,0.440283 -2.874881,1.713771 -2.874881,3.813152 0,1.697323 0.815591,2.94157 2.445844,2.94157 2.14322,0 3.404564,-2.666222 5.267561,-5.942992 M 45.5,24 A 21.5,21.5 0 0 1 24,45.5 21.5,21.5 0 0 1 2.5,24 21.5,21.5 0 0 1 24,2.5 21.5,21.5 0 0 1 45.5,24 Z" /></svg>
