<?xml version="1.0" encoding="UTF-8" standalone="no"?>
<svg
   viewBox="0 0 48 48"
   version="1.1"
   id="svg1"
   sodipodi:docname="mangadex.svg"
   inkscape:version="1.3.2 (091e20ef0f, 2023-11-25)"
   xml:space="preserve"
   xmlns:inkscape="http://www.inkscape.org/namespaces/inkscape"
   xmlns:sodipodi="http://sodipodi.sourceforge.net/DTD/sodipodi-0.dtd"
   xmlns="http://www.w3.org/2000/svg"
   xmlns:svg="http://www.w3.org/2000/svg"><sodipodi:namedview
     id="namedview1"
     pagecolor="#505050"
     bordercolor="#eeeeee"
     borderopacity="1"
     inkscape:showpageshadow="0"
     inkscape:pageopacity="0"
     inkscape:pagecheckerboard="0"
     inkscape:deskcolor="#505050"
     inkscape:zoom="8.90625"
     inkscape:cx="-10.835088"
     inkscape:cy="28.575439"
     inkscape:window-width="1918"
     inkscape:window-height="1053"
     inkscape:window-x="0"
     inkscape:window-y="0"
     inkscape:window-maximized="1"
     inkscape:current-layer="svg1" /><defs
     id="defs1"><style
       id="style1">.a { fill:none;stroke:#fff;stroke-linecap:round;stroke-linejoin:round; }
</style></defs><path
     id="path26"
     style="display:inline;fill:none;fill-opacity:1;stroke:#ffffff;stroke-width:1;stroke-linecap:round;stroke-linejoin:round;stroke-dasharray:none;stroke-opacity:1"
     d="m 41.30279,22.26854 c -2.57715,-1.194417 -5.644751,-1.340323 -8.290137,-0.454558 m -0.312416,1.956762 c 2.641244,-1.388348 5.923393,-1.464178 8.501841,-0.887773 m -0.273088,0.799892 c -2.642612,0.04285 -5.67504,0.408736 -7.786394,2.693145 m 3.088935,-7.42071 c 0.945209,-0.8918 2.342016,-0.914679 3.354356,0 m -28.2916,11.324104 H 39.734671 M 11.294287,27.891304 h 28.440384 m -16.438025,5.837019 c -1.534452,0.303451 -2.820009,1.303448 -3.418544,2.749011 M 35.819563,12.050082 c -1.58244,0.387775 -3.544458,1.606305 -4.497143,2.538285 -0.449558,-3.109975 1.5901,-6.0354335 4.662937,-6.6879966 M 30.662624,20.791377 C 27.858309,20.0038 25.682571,17.662141 25.07226,14.726851 h -0.0011 c 0.794158,-1.405685 1.812809,-2.671972 3.015616,-3.748714 2.097462,-1.8837156 4.692042,-3.1245915 7.474651,-3.574804 0.0097,-0.00215 0.01932,-0.00215 0.0279,-0.00215 0.307958,-0.002 0.504549,0.3279311 0.356294,0.5979477 -0.630011,1.1426707 -0.930913,2.4377193 -0.86927,3.7411983 2.023096,0.498026 3.866766,1.551782 5.322938,3.042341 -0.121721,0.56794 -0.290158,1.130344 -0.561054,1.707968 m -3.421826,9.437791 c 1.288827,-0.0035 2.577627,-0.007 3.866366,-0.0099 1.703237,-1.31822 3.701412,-3.354535 3.113887,-5.712398 v -5.4e-5 c -1.709583,-1.29187 -1.932586,-3.648132 -3.00096,-5.389144 M 25.029304,14.798753 C 17.916693,10.67046 7.5134872,14.735613 5.3687068,22.760637 4.457636,26.055731 4.0593866,29.748373 5.2094628,32.981526 c 1.1693698,3.287392 5.1134992,3.523011 8.1948492,3.611405 2.568191,0.07368 7.653381,-1.411266 7.632116,1.358618 -0.02639,3.436953 4.273131,3.519963 4.427509,0.294719 0.0038,-3.713068 -2.80283,-6.105384 -7.29541,-6.053165 -2.869944,0.03335 -6.53356,1.024431 -8.7366948,-1.280516 -2.0598248,-3.363007 1.9059178,-5.13038 4.9727978,-5.004502 5.513938,0.226318 11.038874,0.046 16.559445,0.03422 m 4.011397,4.337066 v 4.19959 l 1.797565,-1.041309 1.798638,1.041309 v -4.198516" /></svg>
