<?xml version="1.0" encoding="UTF-8" standalone="no"?>
<svg
   viewBox="0 0 48 48"
   version="1.1"
   id="svg1"
   sodipodi:docname="mininote.svg"
   inkscape:version="1.3.2 (091e20ef0f, 2023-11-25)"
   xml:space="preserve"
   xmlns:inkscape="http://www.inkscape.org/namespaces/inkscape"
   xmlns:sodipodi="http://sodipodi.sourceforge.net/DTD/sodipodi-0.dtd"
   xmlns="http://www.w3.org/2000/svg"
   xmlns:svg="http://www.w3.org/2000/svg"><sodipodi:namedview
     id="namedview1"
     pagecolor="#505050"
     bordercolor="#eeeeee"
     borderopacity="1"
     inkscape:showpageshadow="0"
     inkscape:pageopacity="0"
     inkscape:pagecheckerboard="0"
     inkscape:deskcolor="#505050"
     inkscape:zoom="12.59534"
     inkscape:cx="35.529014"
     inkscape:cy="17.268292"
     inkscape:window-width="1918"
     inkscape:window-height="1053"
     inkscape:window-x="0"
     inkscape:window-y="0"
     inkscape:window-maximized="1"
     inkscape:current-layer="svg1" /><defs
     id="defs1"><style
       id="style1">.a { fill:none;stroke:#fff;stroke-linecap:round;stroke-linejoin:round; }
</style></defs><path
     id="path32"
     style="fill:none;stroke:#ffffff;stroke-width:0.999996;stroke-linecap:round;stroke-linejoin:round;stroke-dashoffset:0;stroke-opacity:1"
     d="m 11.658375,38.041259 c -0.341577,0 -0.651996,-0.128117 -0.886315,-0.339122 m -0.43709,-1.815185 v -0.971457 m 0,-2.700272 v -0.210314 m 0,-4.852917 v -0.970583 m 0,-1.941264 v -0.970099 m 0,-1.940972 v -0.970002 m 0,-4.85544 v -0.970487 m 0,-4.8529169 V 9.3413683 c 0,-0.219866 0.053,-0.4268822 0.147055,-0.6089926 m 1.668769,-0.7147764 0.97018,9.7e-6 m 1.941526,1.93e-5 0.970763,9.7e-6 m 1.942011,1.94e-5 0.971248,9.7e-6 m 1.941428,1.94e-5 0.97086,9.7e-6 m 1.940943,1.94e-5 h 0.970278 m 1.941137,1.94e-5 0.970277,9.8e-6 m 1.940555,1.94e-5 0.970666,9.7e-6 m 1.932498,0.1339405 c 0.319447,0.070066 0.628798,0.1666201 0.92553,0.2872539 m 1.640425,1.019627 c 0.241987,0.2146445 0.465629,0.4496228 0.668207,0.7021687 m 0.936886,1.689494 c 0.105609,0.30224 0.186756,0.616224 0.241016,0.939622 m 0.07998,1.937091 v 0.971069 m 0,1.941263 v 0.971166 m 0,1.940779 v 0.970875 m 0,1.941069 v 0.970972 m 0,1.941749 v 0.970681 m 0,1.940779 v 0.969224 m 0,1.941653 v 0.106473 c 0,0.292436 -0.02165,0.579729 -0.06348,0.860228 m -0.603851,1.835858 c -0.152395,0.287002 -0.328474,0.559445 -0.525616,0.814708 m -1.421346,1.308055 c -0.270233,0.174997 -0.556191,0.327863 -0.855544,0.45598 m -1.878918,0.448798 c -0.127546,0.0084 -0.256256,0.01272 -0.386034,0.01272 h -0.584632 m -1.941817,0 h -0.970859 m -1.940749,0 -0.969598,9.7e-5 m -1.940944,0 h -0.971442 m -1.940846,0 h -0.970083 m -1.941235,0 h -0.970083 m -1.941234,9.7e-5 h -0.971054 m 9.32253,-25.589946 c -4.582361,-0.470067 -9.432789,3.371088 -9.359374,6.457474 0.0778,3.270588 -0.511803,4.783555 -0.258447,6.866219 0.395724,3.252981 1.904817,4.569494 3.20045,6.082852 1.321013,1.543004 2.896447,2.042923 4.348279,2.191488 1.606399,0.164382 3.136782,-0.02997 4.466411,-0.376404 5.030506,0.22398 7.687065,-1.210423 9.27522,-6.803822 0.339163,-2.579511 -0.02529,-3.619767 0.227394,-6.950839 -0.29412,-4.309395 -4.166658,-6.979435 -6.65917,-7.482154 -1.606386,-0.323995 -3.29184,-0.05654 -5.240763,0.01519 z m -2.257369,7.980945 a 2.0082419,1.1171051 0 0 1 -2.008241,1.117105 2.0082419,1.1171051 0 0 1 -2.008243,-1.117105 2.0082419,1.1171051 0 0 1 2.008243,-1.117104 2.0082419,1.1171051 0 0 1 2.008241,1.117104 z m 10.727736,0 a 2.0082419,1.1171051 0 0 1 -2.008241,1.117105 2.0082419,1.1171051 0 0 1 -2.008242,-1.117105 2.0082419,1.1171051 0 0 1 2.008242,-1.117104 2.0082419,1.1171051 0 0 1 2.008241,1.117104 z M 25.764021,19.79138 a 2.2011983,2.4723442 0 0 1 -2.147114,1.927662 2.2011983,2.4723442 0 0 1 -2.146789,-1.926043 m 6.029933,-3.517485 c -0.488479,0.286826 -0.982098,0.572786 -1.29132,0.970044 -0.191832,0.246446 -0.172362,0.449111 0,0.685058 0.296957,0.406507 0.802841,0.683218 1.29132,0.970044 m -6.040444,-1.392245 a 1.1441816,1.2757442 0 0 1 -1.144182,1.275745 1.1441816,1.2757442 0 0 1 -1.144182,-1.275745 1.1441816,1.2757442 0 0 1 1.144182,-1.275744 1.1441816,1.2757442 0 0 1 1.144182,1.275744 z m 16.930081,4.826024 h 5.11035 l -1.506342,2.656423 1.506342,2.656424 h -5.11035 m 0,-14.419308 h 5.11035 l -1.506342,2.656423 1.506342,2.656424 h -5.11035 M 37.373674,9.4409739 c 1.341997,0.8524571 2.336873,2.1984611 2.733065,3.7864701 m 0.188367,5.31288 v 3.795218 m -10e-7,5.31179 2e-6,7.524087 c 0,3.495064 -2.813968,6.308793 -6.309327,6.308793 l -21.590015,2.02e-4 v 0 c -0.806622,0 -1.455999,-0.649323 -1.455999,-1.455875 V 39.539232 M 6.4413295,31.90399 h 2.7403078 c 1.0754977,0 1.9413317,0.71097 1.9413317,1.594102 0,0.883133 -0.865834,1.594103 -1.9413317,1.594103 H 6.4413295 c -1.0754976,0 -1.9413314,-0.71097 -1.9413314,-1.594103 0,-0.883132 0.8658338,-1.594102 1.9413314,-1.594102 z m 0,-4.590689 h 2.7403078 c 1.0754977,0 1.9413317,0.71097 1.9413317,1.594102 0,0.883133 -0.865834,1.594102 -1.9413317,1.594102 H 6.4413295 c -1.0754976,0 -1.9413314,-0.710969 -1.9413314,-1.594102 0,-0.883132 0.8658338,-1.594102 1.9413314,-1.594102 z m 0,-11.755975 h 2.7403078 c 1.0754977,0 1.9413317,0.71097 1.9413317,1.594102 0,0.883133 -0.865834,1.594103 -1.9413317,1.594103 H 6.4413295 c -1.0754976,0 -1.9413314,-0.71097 -1.9413314,-1.594103 0,-0.883132 0.8658338,-1.594102 1.9413314,-1.594102 z m 0,-4.590689 h 2.7403078 c 1.0754977,0 1.9413317,0.71097 1.9413317,1.594102 0,0.883133 -0.865834,1.594102 -1.9413317,1.594102 H 6.4413295 c -1.0754976,0 -1.9413314,-0.710969 -1.9413314,-1.594102 0,-0.883132 0.8658338,-1.594102 1.9413314,-1.594102 z m 2.5571046,20.938565 2e-7,-1.402836 m 0,-3.18861 -10e-8,-8.568679 m 0,-3.186714 v -1.402838 m -10e-8,-3.188608 V 7.9754611 c 0,-0.8065541 0.6493762,-1.4558752 1.4559989,-1.4558752 l 21.590015,2.056e-4 c 3.495363,0 6.309327,2.8137249 6.309327,6.3087915 v 20.401669 c 0,3.495068 -2.813964,6.308793 -6.309327,6.308793 l -21.590015,2.02e-4 v 0 c -0.8066227,0 -1.4559989,-0.649321 -1.4559989,-1.455875 l -2e-7,-2.991456" /></svg>
