<?xml version="1.0" encoding="UTF-8" standalone="no"?>
<svg
   viewBox="0 0 48 48"
   version="1.1"
   id="svg1"
   sodipodi:docname="movieboxpro.svg"
   inkscape:version="1.3.2 (091e20ef0f, 2023-11-25)"
   xml:space="preserve"
   xmlns:inkscape="http://www.inkscape.org/namespaces/inkscape"
   xmlns:sodipodi="http://sodipodi.sourceforge.net/DTD/sodipodi-0.dtd"
   xmlns="http://www.w3.org/2000/svg"
   xmlns:svg="http://www.w3.org/2000/svg"><sodipodi:namedview
     id="namedview1"
     pagecolor="#505050"
     bordercolor="#eeeeee"
     borderopacity="1"
     inkscape:showpageshadow="0"
     inkscape:pageopacity="0"
     inkscape:pagecheckerboard="0"
     inkscape:deskcolor="#505050"
     inkscape:zoom="12.59534"
     inkscape:cx="23.858031"
     inkscape:cy="30.765348"
     inkscape:window-width="1918"
     inkscape:window-height="1053"
     inkscape:window-x="0"
     inkscape:window-y="0"
     inkscape:window-maximized="1"
     inkscape:current-layer="svg1" /><defs
     id="defs1"><style
       id="style1">.a { fill:none;stroke:#fff;stroke-linecap:round;stroke-linejoin:round; }
</style></defs><path
     id="rect476-7"
     style="fill:none;stroke:#ffffff;stroke-width:1;stroke-linecap:round;stroke-linejoin:round;stroke-opacity:1"
     class="t"
     d="m 24.087893,27.597318 c 2.371893,0 4.281395,1.878006 4.281395,4.210776 v 4.290223 c 0,2.332769 -1.909502,4.210775 -4.281395,4.210775 -2.371893,0 -4.281395,-1.878006 -4.281395,-4.210775 v -4.290223 c 0,-2.332769 1.909502,-4.210775 4.281395,-4.210776 z M 12.206005,33.953202 H 6.8744589 m 5.3315461,-1.6e-4 c 1.784615,0 3.231242,1.422765 3.231242,3.177943 0,1.755179 -1.446627,3.177944 -3.231242,3.177944 H 6.8744589 V 27.597154 h 5.3315461 c 1.784615,0 3.231242,1.422765 3.231242,3.177944 0,1.755178 -1.446627,3.177944 -3.231242,3.177944 z m 28.919541,-6.355885 -8.562774,12.711776 m 0,-12.711776 8.562774,12.711776 M 27.431465,15.76099 c 1.524677,0 2.752125,1.238399 2.752125,2.776679 v 2.829069 c 0,1.538282 -1.227448,2.77668 -2.752125,2.77668 -1.524677,0 -2.752125,-1.238398 -2.752125,-2.77668 v -2.829069 c 0,-1.538281 1.227448,-2.776679 2.752125,-2.776679 z M 7.0391982,23.225017 c 0.5095058,0.669234 1.1483116,0.9184 2.0370923,0.9184 h 1.2300435 c 1.144677,0 2.072609,-0.936212 2.072609,-2.091101 v -0.009 c 0,-1.154889 -0.927932,-2.091101 -2.072609,-2.091101 H 8.9494855 c -1.1459234,0 -2.0747922,-0.93726 -2.0747922,-2.093301 v 0 c 0,-1.15866 0.9309461,-2.097912 2.0793612,-2.097912 h 1.2232925 c 0.888781,0 1.527585,0.249272 2.037092,0.918401 m 28.910874,-0.918342 -2.077075,8.382428 -2.077074,-8.382428 -2.077076,8.382428 -2.077075,-8.382428 m -17.039996,4.175307 h 5.50425 m 0,-4.175388 v 8.382426 m -5.50425,-8.382426 v 8.382426 M 33.868767,7.6909077 h 6.191302 l 2.439954,2.3081727 -2.439954,2.3081736 h -6.191302 l 2.432377,-2.3081736 z m -9.456282,0 h 6.191303 l 2.439953,2.3081727 -2.439953,2.3081736 h -6.191303 l 2.432378,-2.3081736 z m -9.45628,0 h 6.191302 l 2.439954,2.3081727 -2.439954,2.3081736 h -6.191302 l 2.432377,-2.3081736 z m -9.4562811,0 h 6.1913021 l 2.439953,2.3081727 -2.439953,2.3081736 H 5.4999239 L 7.9323012,9.9990804 Z" /></svg>
