<?xml version="1.0" encoding="UTF-8" standalone="no"?>
<svg
   viewBox="0 0 48 48"
   version="1.1"
   id="svg1"
   sodipodi:docname="neko_2.svg"
   inkscape:version="1.3.2 (091e20ef0f, 2023-11-25)"
   xml:space="preserve"
   xmlns:inkscape="http://www.inkscape.org/namespaces/inkscape"
   xmlns:sodipodi="http://sodipodi.sourceforge.net/DTD/sodipodi-0.dtd"
   xmlns="http://www.w3.org/2000/svg"
   xmlns:svg="http://www.w3.org/2000/svg"><sodipodi:namedview
     id="namedview1"
     pagecolor="#505050"
     bordercolor="#eeeeee"
     borderopacity="1"
     inkscape:showpageshadow="0"
     inkscape:pageopacity="0"
     inkscape:pagecheckerboard="0"
     inkscape:deskcolor="#505050"
     inkscape:zoom="12.59534"
     inkscape:cx="4.7239695"
     inkscape:cy="29.73322"
     inkscape:window-width="1918"
     inkscape:window-height="1053"
     inkscape:window-x="0"
     inkscape:window-y="0"
     inkscape:window-maximized="1"
     inkscape:current-layer="svg1" /><defs
     id="defs1"><style
       id="style1">.a { fill:none;stroke:#fff;stroke-linecap:round;stroke-linejoin:round; }
</style></defs><path
     id="path36"
     style="fill:none;stroke:#ffffff;stroke-width:1;stroke-linecap:round;stroke-linejoin:round;stroke-opacity:1"
     d="m 8.5297901,19.268911 c 0.055065,0.542748 0.8031976,0.815265 0.7633806,1.21682 -0.026239,0.264583 -0.1655506,0.535627 -0.6087506,0.514307 -0.2899215,-0.01395 -0.6052539,-0.02772 -0.660264,-0.602299 m 2.6086109,-2.443884 c -0.234696,0.379777 -0.356275,0.773338 -0.8024027,1.127351 0.4783777,-3.088892 -1.199775,-3.209046 -2.5466476,-3.785261 0.8328209,0.498016 1.353637,1.590859 0.3087646,2.35262 -0.7777844,0.567043 -1.3217736,1.267052 -1.2974269,2.43441 0.024343,1.167357 0.7760899,2.397027 2.4477809,2.412598 1.6716817,0.01558 2.3265427,-1.329265 2.3964117,-2.322145 0.0645,-0.916638 -0.286542,-1.515118 -0.50648,-2.219573 z m 28.455604,1.315056 c 0.05506,0.542748 0.803194,0.815265 0.763377,1.21682 -0.02624,0.264583 -0.165551,0.535627 -0.608749,0.514307 -0.28992,-0.01395 -0.60525,-0.02772 -0.660259,-0.602299 m 2.608604,-2.443884 c -0.234695,0.379777 -0.356275,0.773338 -0.802402,1.127351 0.478378,-3.088892 -1.199773,-3.209046 -2.546637,-3.785261 0.832816,0.498016 1.353628,1.590859 0.308763,2.35262 -0.777782,0.567043 -1.321772,1.267052 -1.297425,2.43441 0.02434,1.167357 0.77609,2.397027 2.447771,2.412598 1.671681,0.01558 2.326541,-1.329265 2.396411,-2.322145 0.0645,-0.916638 -0.286543,-1.515118 -0.506481,-2.219573 z M 23.809076,9.4726811 c 0.05507,0.5427489 0.803195,0.8152649 0.763378,1.2168209 -0.02624,0.264583 -0.165551,0.535626 -0.60875,0.514307 -0.289919,-0.01395 -0.605249,-0.02772 -0.660258,-0.6023 M 25.91205,8.1576255 c -0.234696,0.3797772 -0.356275,0.7733385 -0.802403,1.127351 0.478378,-3.0888917 -1.199772,-3.2090459 -2.546636,-3.7852606 0.832816,0.4980157 1.353628,1.5908586 0.308763,2.3526197 -0.777783,0.5670436 -1.321772,1.2670517 -1.297425,2.4344094 0.02434,1.167358 0.77609,2.397028 2.447771,2.412599 1.67168,0.01558 2.326541,-1.329265 2.39641,-2.322145 0.0645,-0.9166389 -0.286542,-1.5151181 -0.50648,-2.2195735 z m 5.876738,29.7404355 c 0.615404,-0.05133 1.214133,-0.349381 1.691396,-0.818932 0.633159,-0.622927 0.205471,-1.307544 -0.482347,-2.476073 -0.687818,-1.168528 -1.240291,-2.69695 0.352841,-4.393933 0.972257,-1.035636 2.738562,-1.044777 2.313826,-3.756123 0.847502,0.407605 1.436572,0.943666 1.425866,2.141738 0.282306,0.29936 0.547493,0.232154 1.027426,-0.110027 0.742194,-0.529167 0.990485,-1.813793 -0.431841,-4.121043 2.517652,0.718685 3.617127,3.021704 2.603149,5.787778 -0.368394,1.004954 -1.702614,1.560954 -3.011053,1.848226 -1.013737,0.222569 -1.099971,1.425887 -0.298129,1.810089 0.801842,0.384202 1.618588,-0.545301 1.305598,-1.393974 3.846018,4.147819 -2.231023,8.227316 -6.337292,7.733914 l -0.564259,-0.0678 m -15.172745,-2.18384 c -0.615405,-0.05133 -1.214133,-0.349381 -1.691396,-0.818932 -0.633159,-0.622927 -0.205472,-1.307544 0.482346,-2.476073 0.687819,-1.168528 1.240292,-2.69695 -0.35284,-4.393933 -0.972258,-1.035636 -2.738562,-1.044777 -2.313827,-3.756123 -0.847501,0.407605 -1.436571,0.943666 -1.425866,2.141738 -0.282305,0.29936 -0.547493,0.232154 -1.0274252,-0.110027 -0.7421943,-0.529167 -0.9904844,-1.813793 0.4318412,-4.121043 -2.5176521,0.718685 -3.6171267,3.021704 -2.6031482,5.787778 0.3683933,1.004954 1.7026128,1.560954 3.0110522,1.848226 1.013737,0.222569 1.09997,1.425887 0.298129,1.810089 -0.801842,0.384202 -1.6185885,-0.545301 -1.3055982,-1.393974 -3.8460172,4.147819 2.2310232,8.227316 6.3372912,7.733914 l 0.564257,-0.0678 m 6.486166,0.0073 h 1.7956 m -6.641742,-7.562502 c 0.104584,0.754641 0.276054,1.957995 0.438156,2.944743 0.330361,2.010978 1.648928,5.88729 1.648928,5.88729 0.196728,0.702389 0.643411,0.987021 1.300479,1.022723 0.313195,0.01701 1.321339,-0.165196 1.321339,-1.234322 v -4.639376 m 6.778982,-3.981058 c -0.104584,0.754641 -0.276054,1.957995 -0.438156,2.944743 -0.330362,2.010978 -1.648929,5.88729 -1.648929,5.88729 -0.196727,0.702389 -0.643411,0.987021 -1.300479,1.022723 -0.313194,0.01701 -1.321339,-0.165196 -1.321339,-1.234322 v -4.639376 m -5.488188,-6.510957 c -1.630536,3.791906 -5.637524,8.698034 -1.629774,11.480837 1.835223,1.274298 3.689581,0.994979 6.082922,0.994979 2.393343,0 4.247701,0.279319 6.082924,-0.994979 4.00775,-2.782803 7.62e-4,-7.688931 -1.629775,-11.480838 m -6.639827,-4.462717 c 0.05705,0.711502 0.47375,1.065766 1.151334,1.06702 0.433511,8.03e-4 1.091201,-0.548493 1.035345,-1.349273 -0.05586,0.80078 0.601835,1.350076 1.035346,1.349273 0.677584,-0.0012 1.094284,-0.355518 1.151334,-1.06702 m -2.467372,-0.8709 h 0.561385 m -3.033698,-1.479407 a 2.0616768,2.0614044 0 0 1 -2.061676,2.061404 2.0616768,2.0614044 0 0 1 -2.061677,-2.061404 2.0616768,2.0614044 0 0 1 2.061677,-2.061406 2.0616768,2.0614044 0 0 1 2.061676,2.061406 z m 9.629364,0 a 2.0616768,2.0614044 0 0 1 -2.061677,2.061404 2.0616768,2.0614044 0 0 1 -2.061676,-2.061404 2.0616768,2.0614044 0 0 1 2.061676,-2.061406 2.0616768,2.0614044 0 0 1 2.061677,2.061406 z m -5.646002,-4.266707 a 1.2303572,1.2301947 0 0 1 -1.230357,1.230195 1.2303572,1.2301947 0 0 1 -1.230357,-1.230195 1.2303572,1.2301947 0 0 1 1.230357,-1.230194 1.2303572,1.2301947 0 0 1 1.230357,1.230194 z m -7.017403,-2.680643 -2.747542,-1.148574 1.00089,2.507908 m -1.945525,3.291985 c -1.416782,-2.814763 -1.661137,-5.979735 -1.18943,-9.225417 3.105202,0.724068 5.344385,2.060458 7.170598,3.604087 m 9.285101,0.970011 2.747543,-1.148574 -1.00089,2.507908 m 1.945524,3.291985 c 1.416783,-2.814763 1.661138,-5.979735 1.18943,-9.225417 -3.105201,0.724068 -5.344385,2.060458 -7.170597,3.604087 m 6.387513,8.107801 c -0.231631,-5.655286 -4.597048,-8.581199 -9.885569,-8.581199 -5.288519,0 -9.653936,2.925913 -9.885567,8.581199 -0.184094,4.494655 4.625491,7.355357 9.885567,7.355357 5.260078,0 10.069662,-2.860702 9.885569,-7.355357 z" /></svg>
