<?xml version="1.0" encoding="UTF-8" standalone="no"?>
<svg
   viewBox="0 0 48 48"
   version="1.1"
   id="svg1"
   sodipodi:docname="nintendo_alt_1.svg"
   inkscape:version="1.3.2 (091e20ef0f, 2023-11-25)"
   xml:space="preserve"
   xmlns:inkscape="http://www.inkscape.org/namespaces/inkscape"
   xmlns:sodipodi="http://sodipodi.sourceforge.net/DTD/sodipodi-0.dtd"
   xmlns="http://www.w3.org/2000/svg"
   xmlns:svg="http://www.w3.org/2000/svg"><sodipodi:namedview
     id="namedview1"
     pagecolor="#505050"
     bordercolor="#eeeeee"
     borderopacity="1"
     inkscape:showpageshadow="0"
     inkscape:pageopacity="0"
     inkscape:pagecheckerboard="0"
     inkscape:deskcolor="#505050"
     inkscape:zoom="8.90625"
     inkscape:cx="1.7403509"
     inkscape:cy="15.438596"
     inkscape:window-width="1918"
     inkscape:window-height="1053"
     inkscape:window-x="0"
     inkscape:window-y="0"
     inkscape:window-maximized="1"
     inkscape:current-layer="svg1" /><defs
     id="defs1"><style
       id="style1">.a { fill:none;stroke:#fff;stroke-linecap:round;stroke-linejoin:round; }
</style></defs><path
     id="path3"
     style="fill:none;stroke:#ffffff;stroke-width:0.999999;stroke-linecap:round;stroke-linejoin:round;stroke-opacity:1"
     class="t"
     d="m 28.797507,26.173754 v -2.777809 m 2.771975,2.777807 v -1.729577 c 0,-0.578937 -0.62051,-1.048229 -1.385993,-1.048229 v 0 c -0.765482,0 -1.38599,0.469292 -1.38599,1.048229 m -12.548504,1.729579 v -2.777809 m 2.771974,2.777471 v -1.729241 c 0,-0.578937 -0.62051,-1.048229 -1.385993,-1.048229 v 0 c -0.765482,0 -1.38599,0.469292 -1.38599,1.048229 m 19.389367,1.729579 v -4.192917 m 0,2.463337 c 0,-0.578937 -0.564481,-1.048229 -1.260844,-1.048229 v 0 c -0.696364,0 -1.260843,0.469292 -1.260843,1.048229 v 0.681349 c 0,0.578937 0.564479,1.048229 1.260843,1.048229 v 0 c 0.696363,0 1.260844,-0.469292 1.260844,-1.048229 m -8.653879,0.519242 c -0.274333,0.315988 -0.791306,0.528989 -1.383852,0.528989 v 0 c -0.879618,0 -1.592645,-0.469292 -1.592645,-1.04823 v -0.681348 c 0,-0.578937 0.713027,-1.048229 1.592645,-1.048229 v 0 c 0.879619,0 1.592648,0.469292 1.592648,1.048229 v 0.340674 c 0,0 -3.185293,0 -3.185293,0 m -3.725041,-1.388904 h 2.40603 m -1.203015,-0.864788 v 3.642258 m -6.727106,-4.061551 c 0,0.202623 -0.154313,0.36688 -0.344668,0.36688 -0.190355,0 -0.344666,-0.164257 -0.344666,-0.36688 0,-0.202622 0.154311,-0.366879 0.344666,-0.366879 0.190355,0 0.344668,0.164257 0.344668,0.366879 z m -0.344668,1.284079 v 2.77781 m 24.181434,-2.777808 c 0.749575,0 1.353024,0.467511 1.353024,1.048229 v 0.681349 c 0,0.580719 -0.603449,1.04823 -1.353024,1.04823 -0.749577,0 -1.353026,-0.467511 -1.353026,-1.04823 v -0.681349 c 0,-0.580718 0.603449,-1.048229 1.353026,-1.048229 z M 8.9725035,26.157988 v -4.192917 l 3.5409005,4.192917 V 21.965071 M 8.56439,19.69293 h 30.87122 c 2.251673,0 4.064391,1.815295 4.064391,4.070168 v 0.473804 c 0,2.254873 -1.812718,4.070168 -4.064391,4.070168 H 8.56439 c -2.2516725,0 -4.0643908,-1.815295 -4.0643908,-4.070168 v -0.473804 c 0,-2.254873 1.8127183,-4.070168 4.0643908,-4.070168 z" /></svg>
