<?xml version="1.0" encoding="UTF-8" standalone="no"?>
<svg
   viewBox="0 0 48 48"
   version="1.1"
   id="svg1"
   sodipodi:docname="norton_app_lock.svg"
   inkscape:version="1.3.2 (091e20ef0f, 2023-11-25)"
   xml:space="preserve"
   xmlns:inkscape="http://www.inkscape.org/namespaces/inkscape"
   xmlns:sodipodi="http://sodipodi.sourceforge.net/DTD/sodipodi-0.dtd"
   xmlns="http://www.w3.org/2000/svg"
   xmlns:svg="http://www.w3.org/2000/svg"><sodipodi:namedview
     id="namedview1"
     pagecolor="#505050"
     bordercolor="#eeeeee"
     borderopacity="1"
     inkscape:showpageshadow="0"
     inkscape:pageopacity="0"
     inkscape:pagecheckerboard="0"
     inkscape:deskcolor="#505050"
     inkscape:zoom="4.453125"
     inkscape:cx="-46.147368"
     inkscape:cy="53.557895"
     inkscape:window-width="1918"
     inkscape:window-height="1053"
     inkscape:window-x="0"
     inkscape:window-y="0"
     inkscape:window-maximized="1"
     inkscape:current-layer="svg1"
     showgrid="false" /><defs
     id="defs1"><style
       id="style1">.a { fill:none;stroke:#fff;stroke-linecap:round;stroke-linejoin:round; }
</style></defs><path
     id="path13"
     style="fill:none;stroke:#ffffff;stroke-width:1;stroke-linecap:round;stroke-linejoin:round;stroke-opacity:1"
     d="m 17.831448,36.465319 v 2.321949 m -2.367896,-4.56671 2e-6,-1.035463 c 0,-1.281147 1.031155,-2.31254 2.312005,-2.31254 h 0.111785 c 1.28085,0 2.312005,1.031393 2.312005,2.31254 v 1.035463 m -4.981144,2.15e-4 h 5.226485 c 0.960638,0 1.734004,0.773545 1.734004,1.734406 v 3.34223 c 0,0.960861 -0.773366,1.734406 -1.734004,1.734406 h -5.226485 c -0.960638,0 -1.734004,-0.773545 -1.734004,-1.734406 v -3.34223 c 0,-0.960861 0.773366,-1.734406 1.734004,-1.734406 z m 22.934548,-9.70764 v 2.321949 m -2.367896,-4.56671 2e-6,-1.035464 c 0,-1.281146 1.031155,-2.31254 2.312005,-2.31254 h 0.111785 c 1.28085,0 2.312005,1.031394 2.312005,2.31254 v 1.035464 m -4.981144,2.15e-4 h 5.226485 c 0.960638,0 1.734004,0.773545 1.734004,1.734406 v 3.342229 c 0,0.960861 -0.773366,1.734406 -1.734004,1.734406 H 35.53951 c -0.960638,0 -1.734004,-0.773545 -1.734004,-1.734406 v -3.342229 c 0,-0.960861 0.773366,-1.734406 1.734004,-1.734406 z m -4.160523,-9.707639 v 2.321948 m -2.367896,-4.566709 2e-6,-1.0354636 c 0,-1.281147 1.031155,-2.3125396 2.312005,-2.3125396 h 0.111785 c 1.28085,0 2.312005,1.0313926 2.312005,2.3125397 v 1.0354635 m -4.981144,2.15e-4 h 5.226485 c 0.960638,0 1.734004,0.773545 1.734004,1.734406 v 3.342229 c 0,0.960861 -0.773366,1.734406 -1.734004,1.734406 h -5.226485 c -0.960638,0 -1.734004,-0.773545 -1.734004,-1.734406 v -3.342229 c 0,-0.960861 0.773366,-1.734406 1.734004,-1.734406 z m -2.944438,25.635783 a 5.5576803,5.5589692 0 0 1 5.55768,-5.558969 5.5576803,5.5589692 0 0 1 5.55768,5.558969 5.5576803,5.5589692 0 0 1 -5.55768,5.55897 5.5576803,5.5589692 0 0 1 -5.55768,-5.55897 z M 23.389128,12.047813 a 5.5576803,5.5589692 0 0 1 -5.55768,5.558969 5.5576803,5.5589692 0 0 1 -5.55768,-5.558969 5.5576803,5.5589692 0 0 1 5.55768,-5.5589685 5.5576803,5.5589692 0 0 1 5.55768,5.5589685 z m -6.773767,11.952185 a 5.5576803,5.5589692 0 0 1 -5.55768,5.558969 5.5576803,5.5589692 0 0 1 -5.5576802,-5.558969 5.5576803,5.5589692 0 0 1 5.5576802,-5.558969 5.5576803,5.5589692 0 0 1 5.55768,5.558969 z m 13.547536,0 a 5.5576803,5.5589692 0 0 1 -5.557681,5.558969 5.5576803,5.5589692 0 0 1 -5.557681,-5.558969 5.5576803,5.5589692 0 0 1 5.557681,-5.558969 5.5576803,5.5589692 0 0 1 5.557681,5.558969 z" /></svg>
