<?xml version="1.0" encoding="UTF-8" standalone="no"?>
<svg
   viewBox="0 0 48 48"
   version="1.1"
   id="svg1"
   sodipodi:docname="ozon_bank.svg"
   inkscape:version="1.3.2 (091e20ef0f, 2023-11-25)"
   xml:space="preserve"
   xmlns:inkscape="http://www.inkscape.org/namespaces/inkscape"
   xmlns:sodipodi="http://sodipodi.sourceforge.net/DTD/sodipodi-0.dtd"
   xmlns="http://www.w3.org/2000/svg"
   xmlns:svg="http://www.w3.org/2000/svg"><sodipodi:namedview
     id="namedview1"
     pagecolor="#505050"
     bordercolor="#eeeeee"
     borderopacity="1"
     inkscape:showpageshadow="0"
     inkscape:pageopacity="0"
     inkscape:pagecheckerboard="0"
     inkscape:deskcolor="#505050"
     inkscape:zoom="12.59534"
     inkscape:cx="20.682253"
     inkscape:cy="22.667114"
     inkscape:window-width="1918"
     inkscape:window-height="1053"
     inkscape:window-x="0"
     inkscape:window-y="0"
     inkscape:window-maximized="1"
     inkscape:current-layer="svg1" /><defs
     id="defs1"><style
       id="style1">.a { fill:none;stroke:#fff;stroke-linecap:round;stroke-linejoin:round; }
</style></defs><path
     id="path1"
     style="fill:none;stroke:#ffffff;stroke-width:1;stroke-linecap:round;stroke-linejoin:round;stroke-opacity:1"
     class="t"
     d="m 13.928559,14.53871 c 1.313655,0 2.371218,1.061038 2.371218,2.379008 v 1.546357 c 0,1.317971 -1.057563,2.379008 -2.371218,2.379008 -1.313655,0 -2.371218,-1.061037 -2.371218,-2.379008 v -1.546357 c 0,-1.31797 1.057563,-2.379008 2.371218,-2.379008 z m 17.771676,6.304374 v -6.304376 m 4.742424,6.304374 v -3.925364 c 0,-1.313926 -1.061594,-2.379008 -2.371218,-2.379008 v 0 c -1.309624,0 -2.371218,1.065082 -2.371218,2.379008 M 18.138515,14.53871 h 4.742436 l -4.742436,6.304372 h 4.742436 m 4.209956,-6.304372 c 1.313655,0 2.371218,1.061038 2.371218,2.379008 v 1.546357 c 0,1.317971 -1.057563,2.379008 -2.371218,2.379008 -1.313655,0 -2.371219,-1.061037 -2.371219,-2.379008 v -1.546357 c 0,-1.31797 1.057564,-2.379008 2.371219,-2.379008 z m -7.874424,13.2427 c 0.571464,-0.574174 0.971844,-0.62449 2.074816,-0.62449 1.252122,0 2.074816,0.552525 2.074816,2.046066 v 4.258306 m -3.183479,-3.152186 c -0.860989,0 -1.558957,0.705614 -1.558957,1.576093 0,0.870479 0.697968,1.576093 1.558957,1.576093 h 0.825896 c 1.299664,0 2.353197,-1.065082 2.353197,-2.379008 m -3.179096,-0.773178 h 3.183482 m 2.371218,-0.01187 h 4.742437 m 0,-3.140291 v 6.304348 m -4.742437,-6.304348 v 6.304348 M 15.504697,23.945271 h -1.956255 c -1.735257,0 -3.141866,1.411228 -3.141866,3.152186 v 3.211661 m 6.28373,-1.2e-5 a 3.1418642,3.152186 0 0 1 -3.141863,3.152186 3.1418642,3.152186 0 0 1 -3.141866,-3.152186 3.1418642,3.152186 0 0 1 3.141866,-3.152186 3.1418642,3.152186 0 0 1 3.141863,3.152186 z m 16.160682,0 h 1.927089 c 0.640822,0 1.232085,-0.345908 1.547694,-0.905331 l 1.267653,-2.246855 m 0,6.304372 -1.267653,-2.246854 c -0.315609,-0.559424 -0.906872,-0.905332 -1.547694,-0.905332 h -1.927089 m 0,-3.152174 v 6.280451 M 9.5,5.5 h 29 c 2.216,0 4,1.784 4,4 v 29 c 0,2.216 -1.784,4 -4,4 h -29 c -2.216,0 -4,-1.784 -4,-4 v -29 c 0,-2.216 1.784,-4 4,-4 z" /></svg>
