<?xml version="1.0" encoding="UTF-8" standalone="no"?>
<svg
   viewBox="0 0 48 48"
   version="1.1"
   id="svg1"
   sodipodi:docname="skool.svg"
   inkscape:version="1.3.2 (091e20ef0f, 2023-11-25)"
   xml:space="preserve"
   xmlns:inkscape="http://www.inkscape.org/namespaces/inkscape"
   xmlns:sodipodi="http://sodipodi.sourceforge.net/DTD/sodipodi-0.dtd"
   xmlns="http://www.w3.org/2000/svg"
   xmlns:svg="http://www.w3.org/2000/svg"><sodipodi:namedview
     id="namedview1"
     pagecolor="#505050"
     bordercolor="#eeeeee"
     borderopacity="1"
     inkscape:showpageshadow="0"
     inkscape:pageopacity="0"
     inkscape:pagecheckerboard="0"
     inkscape:deskcolor="#505050"
     inkscape:zoom="17.8125"
     inkscape:cx="24"
     inkscape:cy="19.508772"
     inkscape:window-width="1918"
     inkscape:window-height="1053"
     inkscape:window-x="0"
     inkscape:window-y="0"
     inkscape:window-maximized="1"
     inkscape:current-layer="svg1" /><defs
     id="defs1"><style
       id="style1">.a { fill:none;stroke:#fff;stroke-linecap:round;stroke-linejoin:round; }
</style></defs><path
     id="path2"
     style="fill:none;stroke:#ffffff;stroke-linecap:round;stroke-linejoin:round;stroke-opacity:1"
     d="m 9.5,5.5 h 29 c 2.216,0 4,1.784 4,4 v 29 c 0,2.216 -1.784,4 -4,4 h -29 c -2.216,0 -4,-1.784 -4,-4 v -29 c 0,-2.216 1.784,-4 4,-4 z m 2.151752,27.069344 c 1.034337,0.81219 2.150808,1.184643 4.658763,1.184643 h 1.270829 c 2.068106,0 3.744513,-1.5714 3.744513,-3.509954 v 0 c 0,-1.938554 -1.676407,-3.509954 -3.744513,-3.509954 h -2.541658 c -2.068107,0 -3.744513,-1.5714 -3.744513,-3.509954 v 0 c 0,-1.938554 1.676406,-3.509953 3.744513,-3.509953 h 1.270829 c 2.507671,0 3.624425,0.372187 4.658762,1.184642 m 7.673023,5.315519 8.062527,7.50786 M 25.378079,29.252234 35.633955,19.706481 M 25.375842,12.561813 v 21.192174" /></svg>
