<?xml version="1.0" encoding="UTF-8" standalone="no"?>
<svg
   viewBox="0 0 48 48"
   version="1.1"
   id="svg1"
   sodipodi:docname="sumone.svg"
   inkscape:version="1.3.2 (091e20ef0f, 2023-11-25)"
   xml:space="preserve"
   xmlns:inkscape="http://www.inkscape.org/namespaces/inkscape"
   xmlns:sodipodi="http://sodipodi.sourceforge.net/DTD/sodipodi-0.dtd"
   xmlns="http://www.w3.org/2000/svg"
   xmlns:svg="http://www.w3.org/2000/svg"><sodipodi:namedview
     id="namedview1"
     pagecolor="#505050"
     bordercolor="#eeeeee"
     borderopacity="1"
     inkscape:showpageshadow="0"
     inkscape:pageopacity="0"
     inkscape:pagecheckerboard="0"
     inkscape:deskcolor="#505050"
     inkscape:zoom="6.2976698"
     inkscape:cx="-39.459039"
     inkscape:cy="35.806895"
     inkscape:window-width="1918"
     inkscape:window-height="1053"
     inkscape:window-x="0"
     inkscape:window-y="0"
     inkscape:window-maximized="1"
     inkscape:current-layer="svg1" /><defs
     id="defs1"><style
       id="style1">.a { fill:none;stroke:#fff;stroke-linecap:round;stroke-linejoin:round; }
</style></defs><path
     id="path10"
     style="fill:none;stroke:#ffffff;stroke-linecap:round;stroke-linejoin:round;stroke-opacity:1"
     d="m 23.095688,34.349579 2.35643,-0.09693 c 0.05461,0.558374 -0.15355,1.208583 -1.045969,1.239053 -0.969985,0.03309 -1.436224,-0.654179 -1.310461,-1.142124 z m 8.664782,-2.425617 a 0.88949072,0.88949072 0 0 1 -0.889491,0.88949 0.88949072,0.88949072 0 0 1 -0.88949,-0.88949 0.88949072,0.88949072 0 0 1 0.88949,-0.889491 0.88949072,0.88949072 0 0 1 0.889491,0.889491 z m -13.166349,0.87331 a 0.88949072,0.88949072 0 0 1 -0.889491,0.88949 0.88949072,0.88949072 0 0 1 -0.889491,-0.88949 0.88949072,0.88949072 0 0 1 0.889491,-0.889491 0.88949072,0.88949072 0 0 1 0.889491,0.889491 z M 29.489693,16.259127 c 9.741549,4.295732 13.80287,18.824095 10.158429,25.890503 M 17.287684,16.799178 C 12.926306,18.579089 3.6784442,29.311074 7.7424929,42.095722 M 24.052874,16.28489 c 0.624204,0.05725 1.178371,-0.160905 1.340055,-0.97865 m 1.330521,-1.899211 a 0.88949072,0.88949072 0 0 1 -0.88949,0.889491 0.88949072,0.88949072 0 0 1 -0.889491,-0.889491 0.88949072,0.88949072 0 0 1 0.889491,-0.889491 0.88949072,0.88949072 0 0 1 0.88949,0.889491 z m -3.840513,2.465429 a 0.88949072,0.88949072 0 0 1 -0.889491,0.889491 0.88949072,0.88949072 0 0 1 -0.88949,-0.889491 0.88949072,0.88949072 0 0 1 0.88949,-0.88949 0.88949072,0.88949072 0 0 1 0.889491,0.88949 z m -0.630243,-4.067997 c -2.357722,-1.018386 -4.829216,0.449818 -5.113291,2.742332 -0.419569,3.385967 1.723238,5.491623 5.816546,6.454431 1.687392,0.3969 3.099206,0.39544 4.568614,0.388815 0.560335,-1.380461 1.18593,-3.318205 1.704868,-4.971914 C 30.390278,12.718834 29.54119,9.6765521 27.234784,8.59438 25.157348,7.6196411 22.63077,9.0971518 22.335778,11.631373 M 9.5,5.5 h 29 c 2.216,0 4,1.784 4,4 v 29 c 0,2.216 -1.784,4 -4,4 h -29 c -2.216,0 -4,-1.784 -4,-4 v -29 c 0,-2.216 1.784,-4 4,-4 z" /></svg>
