<?xml version="1.0" encoding="UTF-8" standalone="no"?>
<svg
   viewBox="0 0 48 48"
   version="1.1"
   id="svg1"
   sodipodi:docname="tryhackme.svg"
   inkscape:version="1.3.2 (091e20ef0f, 2023-11-25)"
   xml:space="preserve"
   xmlns:inkscape="http://www.inkscape.org/namespaces/inkscape"
   xmlns:sodipodi="http://sodipodi.sourceforge.net/DTD/sodipodi-0.dtd"
   xmlns="http://www.w3.org/2000/svg"
   xmlns:svg="http://www.w3.org/2000/svg"><path
     id="path31"
     style="display:inline;fill:none;stroke:#ffffff;stroke-width:0.999999;stroke-linecap:round;stroke-linejoin:round;stroke-opacity:1"
     d="m 31.031757,40.748495 c 0.31009,0 0.55973,0.258764 0.55973,0.580186 v 0.591133 c 0,0.321424 -0.24964,0.580189 -0.55973,0.580189 -0.310091,0 -0.55973,-0.258765 -0.55973,-0.580189 v -0.591133 c 0,-0.321422 0.249639,-0.580186 0.55973,-0.580186 z m 1.851947,0.238446 0.213483,-0.238405 v 1.751376 m -8.510363,-4.530846 c 0.310091,0 0.55973,0.258762 0.55973,0.580185 v 0.591135 c 0,0.321423 -0.249639,0.580187 -0.55973,0.580187 -0.310091,0 -0.559729,-0.258764 -0.559729,-0.580187 v -0.591135 c 0,-0.321423 0.249638,-0.580185 0.559729,-0.580185 z m 1.851947,0.238445 0.213483,-0.238404 v 1.751376 m 9.278653,-2.485322 c 0.420449,0 0.758934,0.364028 0.758934,0.816207 v 0.831611 c 0,0.45218 -0.338485,0.81621 -0.758934,0.81621 -0.420452,0 -0.758938,-0.36403 -0.758938,-0.81621 v -0.831611 c 0,-0.452179 0.338486,-0.816207 0.758938,-0.816207 z m 5.253784,0 c 0.420449,0 0.758934,0.364028 0.758934,0.816207 v 0.831611 c 0,0.45218 -0.338485,0.81621 -0.758934,0.81621 -0.420452,0 -0.758937,-0.36403 -0.758937,-0.81621 v -0.831611 c 0,-0.452179 0.338485,-0.816207 0.758937,-0.816207 z m -2.771624,0.335447 0.289461,-0.33539 v 2.463844 m 2.527928,-5.874105 0.289461,-0.33539 v 2.463844 m -2.771621,-2.4639 c 0.420449,0 0.758934,0.364028 0.758934,0.816208 v 0.831609 c 0,0.45218 -0.338485,0.816212 -0.758934,0.816212 -0.420452,0 -0.758937,-0.364032 -0.758937,-0.816212 v -0.831609 c 0,-0.45218 0.338485,-0.816208 0.758937,-0.816208 z m -13.962265,0 c 0.42045,0 0.758936,0.364028 0.758936,0.816208 v 0.831609 c 0,0.45218 -0.338486,0.816212 -0.758936,0.816212 -0.420452,0 -0.758936,-0.364032 -0.758936,-0.816212 v -0.831609 c 0,-0.45218 0.338484,-0.816208 0.758936,-0.816208 z m 7.735945,0.335446 0.289462,-0.33539 v 2.463844 m -2.771622,-2.4639 c 0.42045,0 0.758936,0.364028 0.758936,0.816208 v 0.831609 c 0,0.45218 -0.338486,0.816212 -0.758936,0.816212 -0.420453,0 -0.758937,-0.364032 -0.758937,-0.816212 v -0.831609 c 0,-0.45218 0.338484,-0.816208 0.758937,-0.816208 z m -2.771625,0.335446 0.289462,-0.33539 v 2.463844 m -1.39658,-8.165512 0.421873,-0.50329 v 3.697259 m 2.369655,-3.193969 0.421873,-0.50329 v 3.697259 m 6.26729,-3.697343 c 0.612779,0 1.106101,0.546264 1.106101,1.224805 v 1.24792 c 0,0.678545 -0.493322,1.224811 -1.106101,1.224811 -0.612783,0 -1.106104,-0.546266 -1.106104,-1.224811 v -1.24792 c 0,-0.678541 0.493321,-1.224805 1.106104,-1.224805 z m -3.897635,0.503374 0.421872,-0.50329 v 3.697259 m 7.916427,-10.481433 c 0.612779,0 1.106102,0.546263 1.106102,1.224805 v 1.24792 c 0,0.678546 -0.493323,1.224811 -1.106102,1.224811 -0.612782,0 -1.106103,-0.546265 -1.106103,-1.224811 v -1.24792 c 0,-0.678542 0.493321,-1.224805 1.106103,-1.224805 z m -3.840303,0.503373 0.421873,-0.50329 v 3.69726 m -7.683233,-3.697343 c 0.61278,0 1.106102,0.546263 1.106102,1.224805 v 1.24792 c 0,0.678546 -0.493322,1.224811 -1.106102,1.224811 -0.612781,0 -1.106102,-0.546265 -1.106102,-1.224811 v -1.24792 c 0,-0.678542 0.493321,-1.224805 1.106102,-1.224805 z m -3.840302,0.503373 0.421872,-0.50329 v 3.69726 m -9.964606,-9.461109 c -0.979916,-0.671853 -2.16596,-1.064939 -3.443813,-1.064939 -3.3675796,0 -6.0975415,2.729992 -6.0975411,6.097611 2e-7,3.367617 2.729962,6.09761 6.0975411,6.09761 h 10.495822 m 6.494949,-11.141248 c 0.976803,-0.665161 2.156879,-1.053973 3.427765,-1.053973 2.891244,0 5.312494,2.01231 5.939605,4.712781 0.02131,0.09178 0.04055,0.184355 0.05767,0.277673 M 12.287869,13.673968 c 0.436312,-4.5864494 4.29908,-8.173971 8.999739,-8.1739706 4.822865,4e-7 8.796589,3.7857695 9.030154,8.6030316" /><sodipodi:namedview
     id="namedview1"
     pagecolor="#505050"
     bordercolor="#eeeeee"
     borderopacity="1"
     inkscape:showpageshadow="0"
     inkscape:pageopacity="0"
     inkscape:pagecheckerboard="0"
     inkscape:deskcolor="#505050"
     inkscape:zoom="8.90625"
     inkscape:cx="52.715789"
     inkscape:cy="31.719298"
     inkscape:window-width="1918"
     inkscape:window-height="1053"
     inkscape:window-x="0"
     inkscape:window-y="0"
     inkscape:window-maximized="1"
     inkscape:current-layer="svg1" /><defs
     id="defs1"><style
       id="style1">.a { fill:none;stroke:#fff;stroke-linecap:round;stroke-linejoin:round; }
</style></defs></svg>
