<?xml version="1.0" encoding="UTF-8" standalone="no"?>
<svg
   viewBox="0 0 48 48"
   version="1.1"
   id="svg1"
   sodipodi:docname="wallfever.svg"
   inkscape:version="1.3.2 (091e20ef0f, 2023-11-25)"
   xml:space="preserve"
   xmlns:inkscape="http://www.inkscape.org/namespaces/inkscape"
   xmlns:sodipodi="http://sodipodi.sourceforge.net/DTD/sodipodi-0.dtd"
   xmlns="http://www.w3.org/2000/svg"
   xmlns:svg="http://www.w3.org/2000/svg"><sodipodi:namedview
     id="namedview1"
     pagecolor="#505050"
     bordercolor="#eeeeee"
     borderopacity="1"
     inkscape:showpageshadow="0"
     inkscape:pageopacity="0"
     inkscape:pagecheckerboard="0"
     inkscape:deskcolor="#505050"
     inkscape:zoom="12.59534"
     inkscape:cx="17.268292"
     inkscape:cy="33.147181"
     inkscape:window-width="1918"
     inkscape:window-height="1053"
     inkscape:window-x="0"
     inkscape:window-y="0"
     inkscape:window-maximized="1"
     inkscape:current-layer="svg1" /><defs
     id="defs1"><style
       id="style1">.a { fill:none;stroke:#fff;stroke-linecap:round;stroke-linejoin:round; }
</style></defs><path
     id="line405"
     style="fill:none;stroke:#ffffff;stroke-width:0.999997;stroke-linecap:round;stroke-linejoin:round;stroke-opacity:1"
     class="t"
     d="m 31.194521,27.02084 v -6.04168 m 0,3.761801 c 0,1.259175 -1.014289,2.279876 -2.265555,2.279876 v 0 c -1.251268,0 -2.265557,-1.020701 -2.265557,-2.279876 v -1.48192 c 0,-1.259177 1.014289,-2.279878 2.265557,-2.279878 v 0 c 1.251266,0 2.265555,1.020701 2.265555,2.279878 M 24.327447,20.979229 22.458364,27.020905 20.589282,20.979229 18.7202,27.020905 16.851117,20.979229 M 35.229488,10.570009 V 37.42999 c 0,2.164346 -1.741488,3.906763 -3.904683,3.906763 H 16.675199 c -2.163195,0 -3.904684,-1.742417 -3.904684,-3.906763 V 10.570009 c 0,-2.1643474 1.741489,-3.9067638 3.904684,-3.9067638 h 14.649606 c 2.163195,0 3.904683,1.7424164 3.904683,3.9067638 z m 2.216711,0.219711 h 1.149119 c 2.163191,0 3.904683,1.742418 3.904683,3.906764 v 18.60703 c 0,2.164345 -1.741492,3.906763 -3.904683,3.906763 l -1.149117,3e-6 m -26.892401,-2e-6 H 9.4046819 c -2.1631917,0 -3.9046824,-1.742417 -3.9046824,-3.906763 v -18.60703 c 0,-2.164346 1.7414907,-3.906763 3.9046824,-3.906763 v 0 H 10.5538" /></svg>
