<?xml version="1.0" encoding="UTF-8" standalone="no"?>
<svg
   viewBox="0 0 48 48"
   version="1.1"
   id="svg1"
   sodipodi:docname="xianyu.svg"
   inkscape:version="1.3.2 (091e20ef0f, 2023-11-25)"
   xml:space="preserve"
   xmlns:inkscape="http://www.inkscape.org/namespaces/inkscape"
   xmlns:sodipodi="http://sodipodi.sourceforge.net/DTD/sodipodi-0.dtd"
   xmlns="http://www.w3.org/2000/svg"
   xmlns:svg="http://www.w3.org/2000/svg"><sodipodi:namedview
     id="namedview1"
     pagecolor="#505050"
     bordercolor="#eeeeee"
     borderopacity="1"
     inkscape:showpageshadow="0"
     inkscape:pageopacity="0"
     inkscape:pagecheckerboard="0"
     inkscape:deskcolor="#505050"
     inkscape:zoom="17.8125"
     inkscape:cx="23.438596"
     inkscape:cy="28.82807"
     inkscape:window-width="1918"
     inkscape:window-height="1053"
     inkscape:window-x="0"
     inkscape:window-y="0"
     inkscape:window-maximized="1"
     inkscape:current-layer="svg1" /><defs
     id="defs1"><style
       id="style1">.a { fill:none;stroke:#fff;stroke-linecap:round;stroke-linejoin:round; }
</style></defs><path
     id="path17"
     style="fill:none;stroke:#ffffff;stroke-linecap:round;stroke-linejoin:round;stroke-opacity:1"
     d="m 12.478182,17.411 h 0.152239 m -0.210781,4.64645 h 6.78659 m -3.393295,-2.154944 v 10.903191 m 2.900757,-5.751972 v 5.751972 m -5.801515,-5.751972 v 5.751972 M 9.9193181,17.411 v 13.355 m 5.4251609,-13.355 5.362072,-2.93e-4 c 0.554,-3e-5 1,0.446 1,1 V 30.766 m 4.196213,-0.19427 c 1.363519,-0.865748 3.91843,-0.993663 6.45872,-0.207441 2.149934,0.665407 4.354393,0.330966 6.106636,-0.503559 m -6.474605,-8.983759 v 6.271881 m -6.049716,-3.135939 12.099433,-1e-6 M 26.943638,20.877369 h 10.099754 c 0.554,0 1,0.446 1,1 v 4.271086 c 0,0.554 -0.446,1 -1,1 H 26.943638 c -0.554,0 -1,-0.446 -1,-1 v -4.271086 c 0,-0.554 0.446,-1 1,-1 z m -1,-2.111366 v -0.355296 c 0,-0.554 0.446,-1 1,-1 h 10.099753 c 0.554,0 1,0.446 1,1 v 0.355296 M 9.5,5.5 h 29 c 2.216,0 4,1.784 4,4 v 29 c 0,2.216 -1.784,4 -4,4 h -29 c -2.216,0 -4,-1.784 -4,-4 v -29 c 0,-2.216 1.784,-4 4,-4 z" /></svg>
