<?xml version="1.0" encoding="UTF-8" standalone="no"?>
<svg
   viewBox="0 0 48 48"
   version="1.1"
   id="svg1"
   sodipodi:docname="youla.svg"
   inkscape:version="1.3.2 (091e20ef0f, 2023-11-25)"
   xml:space="preserve"
   xmlns:inkscape="http://www.inkscape.org/namespaces/inkscape"
   xmlns:sodipodi="http://sodipodi.sourceforge.net/DTD/sodipodi-0.dtd"
   xmlns="http://www.w3.org/2000/svg"
   xmlns:svg="http://www.w3.org/2000/svg"><sodipodi:namedview
     id="namedview1"
     pagecolor="#505050"
     bordercolor="#eeeeee"
     borderopacity="1"
     inkscape:showpageshadow="0"
     inkscape:pageopacity="0"
     inkscape:pagecheckerboard="0"
     inkscape:deskcolor="#505050"
     inkscape:zoom="12.59534"
     inkscape:cx="3.2948695"
     inkscape:cy="26.239864"
     inkscape:window-width="1918"
     inkscape:window-height="1053"
     inkscape:window-x="0"
     inkscape:window-y="0"
     inkscape:window-maximized="1"
     inkscape:current-layer="svg1" /><defs
     id="defs1"><style
       id="style1">.a { fill:none;stroke:#fff;stroke-linecap:round;stroke-linejoin:round; }
</style></defs><path
     id="path8"
     style="fill:none;stroke:#ffffff;stroke-width:1;stroke-linecap:round;stroke-linejoin:round;stroke-opacity:1"
     d="M 32.634073,32.511961 C 36.693174,28.452978 41.590376,26.095188 43.839417,25.303645 44.860473,24.944286 45.5,24.683251 45.5,23.926458 45.5,23.169664 44.746144,22.913724 43.839412,22.55917 41.619696,21.691211 36.693172,19.417053 32.634074,15.358073 28.51636,11.240477 26.245705,6.2242343 25.367847,4.046344 24.996727,3.1256316 24.736951,2.3733506 23.980136,2.3733506 c -0.756816,0 -0.989718,0.6495964 -1.369603,1.6648751 -0.813094,2.1730736 -3.116578,7.1919363 -7.244607,11.3198473 -4.059099,4.058981 -8.9856218,6.333138 -11.2053387,7.201097 -0.9067325,0.354554 -1.6605875,0.610494 -1.6605875,1.367288 0,0.756793 0.6395261,1.017828 1.6605827,1.377187 2.2490417,0.791543 7.1462425,3.149332 11.2053435,7.208316 4.277272,4.277148 6.580341,9.516941 7.291654,11.493975 0.347541,0.965956 0.565738,1.620713 1.322556,1.620713 0.756817,0 1.021865,-0.750273 1.349057,-1.618464 0.734889,-1.950002 3.018655,-7.210121 7.30488,-11.496224 z"
     sodipodi:nodetypes="sssssssssssssssss" /></svg>
