<?xml version="1.0" encoding="UTF-8" standalone="no"?>
<!-- Created with Inkscape (http://www.inkscape.org/) -->

<svg
   width="48"
   height="48"
   viewBox="0 0 48 48"
   version="1.1"
   id="svg990"
   inkscape:version="1.2.2 (b0a8486541, 2022-12-01)"
   xml:space="preserve"
   sodipodi:docname="aeon_avenger.svg"
   xmlns:inkscape="http://www.inkscape.org/namespaces/inkscape"
   xmlns:sodipodi="http://sodipodi.sourceforge.net/DTD/sodipodi-0.dtd"
   xmlns="http://www.w3.org/2000/svg"
   xmlns:svg="http://www.w3.org/2000/svg"><sodipodi:namedview
     id="namedview992"
     pagecolor="#858585"
     bordercolor="#000000"
     borderopacity="0.25"
     inkscape:showpageshadow="2"
     inkscape:pageopacity="0"
     inkscape:pagecheckerboard="0"
     inkscape:deskcolor="#d1d1d1"
     inkscape:document-units="px"
     showgrid="false"
     inkscape:zoom="11"
     inkscape:cx="24"
     inkscape:cy="24"
     inkscape:window-width="1366"
     inkscape:window-height="737"
     inkscape:window-x="0"
     inkscape:window-y="0"
     inkscape:window-maximized="1"
     inkscape:current-layer="svg990" /><defs
     id="defs987"><style
       id="style1174">.a{fill:none;stroke:#fff;stroke-linecap:round;stroke-linejoin:round;}</style></defs><path
     id="path2649-2-0-3"
     style="fill:none;fill-opacity:1;stroke:#ffffff;stroke-width:1.00005;stroke-linecap:round;stroke-linejoin:round;stroke-dasharray:none;stroke-opacity:1;stop-color:#000000"
     d="M 4.500024,40.38678 22.8149,28.190961 M 43.499976,40.38678 25.185097,28.190961 M 24.057472,4.9624323 V 26.966359 m 1.105866,1.103262 c 0,0.642494 -0.520844,1.163338 -1.163338,1.163338 -0.642492,0 -1.163338,-0.520844 -1.163338,-1.163338 0,-0.642494 0.520846,-1.163338 1.163338,-1.163338 0.642494,0 1.163338,0.520844 1.163338,1.163338 z m -7.249921,1.308388 c -1.845709,-1.065622 -4.205807,-0.433235 -5.271426,1.412472 -1.06562,1.845709 -0.433233,4.205807 1.412475,5.271426 1.845707,1.06562 4.205804,0.433233 5.271423,-1.412473 1.065621,-1.845709 0.433235,-4.205806 -1.412472,-5.271425 z m 8.013796,4.626767 c -1.845708,-1.065622 -4.205806,-0.433233 -5.271424,1.412474 -1.06562,1.845708 -0.433234,4.205804 1.412472,5.271425 1.845709,1.065621 4.205807,0.433234 5.271427,-1.412475 1.06562,-1.845707 0.433233,-4.205804 -1.412475,-5.271424 z m -9.134749,-9.185089 c -0.773421,0.446536 -1.76239,0.181542 -2.208926,-0.591879 -0.446534,-0.773422 -0.181541,-1.762391 0.591881,-2.208927 0.773421,-0.446535 1.76239,-0.181541 2.208925,0.59188 0.446536,0.773422 0.181541,1.762393 -0.59188,2.208926 z m 1.120953,1.941547 c -1.845709,1.06562 -4.205807,0.433233 -5.271425,-1.412474 -1.065619,-1.845709 -0.433233,-4.205806 1.412476,-5.271425 1.845706,-1.065619 4.205803,-0.433233 5.271423,1.412475 1.06562,1.845707 0.433233,4.205805 -1.412474,5.271424 z m 8.013795,-4.626767 c -1.845708,1.06562 -4.205806,0.433233 -5.271424,-1.412475 -1.065619,-1.845708 -0.433233,-4.205803 1.412473,-5.271424 1.845708,-1.065618 4.205806,-0.433234 5.271426,1.412474 1.065619,1.845707 0.433233,4.205804 -1.412475,5.271425 z m 9.945784,10.590896 c 0,2.13124 -1.727712,3.85895 -3.85895,3.85895 -2.131241,10e-7 -3.858954,-1.72771 -3.858954,-3.85895 0,-2.131238 1.727713,-3.858952 3.858954,-3.85895 2.131238,0 3.85895,1.727712 3.85895,3.85895 z m 0,-9.253535 c 0,2.13124 -1.727712,3.858952 -3.85895,3.858952 -2.131241,0 -3.858953,-1.727712 -3.858953,-3.858952 2e-6,-2.131239 1.727712,-3.858949 3.858953,-3.858949 2.131237,0 3.858949,1.727711 3.85895,3.858949 z M 29.016263,35.1004 27.556711,35.943073 m -7.117696,-0.0025 -1.432945,-0.827313 m -3.603033,-6.176639 v -1.734116 m 3.578086,-6.162209 1.457892,-0.841715 m 7.144303,0.01289 1.463827,0.845142 m 3.549819,6.225519 -10e-7,1.661122 m 6.371055,-0.873693 C 38.968002,36.336198 32.266598,43.037593 24,43.037593 c -8.266606,0 -14.9680158,-6.70141 -14.9680158,-14.968017 0,-8.266607 6.7014098,-14.968016 14.9680158,-14.968016 8.266607,0 14.968018,6.701409 14.968018,14.968016 z" /></svg>
