<?xml version="1.0" encoding="UTF-8" standalone="no"?>
<!-- Created with Inkscape (http://www.inkscape.org/) -->

<svg
   width="48"
   height="48"
   viewBox="0 0 48 48"
   version="1.1"
   id="svg990"
   inkscape:version="1.2.2 (b0a8486541, 2022-12-01)"
   xml:space="preserve"
   sodipodi:docname="buu_app.svg"
   xmlns:inkscape="http://www.inkscape.org/namespaces/inkscape"
   xmlns:sodipodi="http://sodipodi.sourceforge.net/DTD/sodipodi-0.dtd"
   xmlns="http://www.w3.org/2000/svg"
   xmlns:svg="http://www.w3.org/2000/svg"><sodipodi:namedview
     id="namedview992"
     pagecolor="#858585"
     bordercolor="#000000"
     borderopacity="0.25"
     inkscape:showpageshadow="2"
     inkscape:pageopacity="0"
     inkscape:pagecheckerboard="0"
     inkscape:deskcolor="#d1d1d1"
     inkscape:document-units="px"
     showgrid="false"
     inkscape:zoom="11.645833"
     inkscape:cx="21.123435"
     inkscape:cy="18.289803"
     inkscape:window-width="1366"
     inkscape:window-height="737"
     inkscape:window-x="0"
     inkscape:window-y="0"
     inkscape:window-maximized="1"
     inkscape:current-layer="svg990" /><defs
     id="defs987"><style
   id="style1174">.a{fill:none;stroke:#fff;stroke-linecap:round;stroke-linejoin:round;}</style>
		
		
	</defs><path
     id="path8155"
     style="fill:none;stroke:#ffffff;stroke-linecap:round;stroke-linejoin:round"
     class="a"
     d="m 40.5,5.5 h -33 a 2,2 0 0 0 -2,2 v 33 a 2,2 0 0 0 2,2 h 33 a 2,2 0 0 0 2,-2 v -33 a 2,2 0 0 0 -2,-2 z M 14.180332,24.000002 H 8.5202884 m 5.3271106,-3e-6 c 1.831193,0 3.32944,1.498249 3.32944,3.32944 0,1.831193 -1.498247,3.329441 -3.32944,3.329441 H 8.3538232 V 17.341119 h 5.4935758 c 1.831193,0 3.32944,1.498248 3.32944,3.329441 0,1.831191 -1.498247,3.329439 -3.32944,3.329439 z m 17.142366,-6.658801 v 8.822878 c 0,2.497041 1.997633,4.494673 4.328205,4.494673 2.330572,0 4.328205,-1.997632 4.328205,-4.494673 v -8.822878 m -19.891077,0 v 8.822878 c 0,2.497041 1.997633,4.494673 4.328205,4.494673 2.330571,0 4.328204,-1.997632 4.328204,-4.494673 v -8.822878" /></svg>
