<?xml version="1.0" encoding="UTF-8" standalone="no"?>
<!-- Created with Inkscape (http://www.inkscape.org/) -->

<svg
   width="48"
   height="48"
   viewBox="0 0 48 48"
   version="1.1"
   id="svg990"
   inkscape:version="1.2.2 (b0a8486541, 2022-12-01)"
   xml:space="preserve"
   sodipodi:docname="cmu_mobile.svg"
   xmlns:inkscape="http://www.inkscape.org/namespaces/inkscape"
   xmlns:sodipodi="http://sodipodi.sourceforge.net/DTD/sodipodi-0.dtd"
   xmlns="http://www.w3.org/2000/svg"
   xmlns:svg="http://www.w3.org/2000/svg"><sodipodi:namedview
     id="namedview992"
     pagecolor="#858585"
     bordercolor="#000000"
     borderopacity="0.25"
     inkscape:showpageshadow="2"
     inkscape:pageopacity="0"
     inkscape:pagecheckerboard="0"
     inkscape:deskcolor="#d1d1d1"
     inkscape:document-units="px"
     showgrid="false"
     inkscape:zoom="11"
     inkscape:cx="15"
     inkscape:cy="24"
     inkscape:window-width="1366"
     inkscape:window-height="737"
     inkscape:window-x="0"
     inkscape:window-y="0"
     inkscape:window-maximized="1"
     inkscape:current-layer="svg990" /><defs
     id="defs987"><style
       id="style1174">.a{fill:none;stroke:#fff;stroke-linecap:round;stroke-linejoin:round;}</style></defs><path
     id="path1178"
     style="display:inline"
     class="a"
     inkscape:label="references"
     d="m 40.5,5.4999999 h -33 a 2,2 0 0 0 -1.9999999,2 V 40.5 A 2,2 0 0 0 7.5,42.5 h 33 a 2,2 0 0 0 2,-2 V 7.4999999 a 2,2 0 0 0 -2,-2 z m -1.277267,14.7574291 3.97e-4,6.235968 c 1.3e-4,2.028187 -1.6328,3.660988 -3.660988,3.660988 h -0.166324 c -2.028187,0 -3.660859,-1.632801 -3.660988,-3.660988 l -3.99e-4,-6.235968 m -2.871427,9.193149 -0.160648,-7.034793 m -8.227797,7.034793 V 23.361589 M 32.763853,14.952 25.310812,22.404951 c -0.637406,0.637398 -1.61011,0.578872 -2.301102,0 l -3.083851,-2.58347 m -2.298546,9.594754 c -1.191152,0.552324 -2.679728,0.789918 -4.010655,0.789918 -2.783399,0 -5.0397883,-2.256344 -5.039788,-5.039742 2e-7,-2.783397 2.25639,-5.039786 5.039788,-5.044985 1.330927,-0.0052 2.819503,0.23244 4.010655,0.784765" /></svg>
