<?xml version="1.0" encoding="UTF-8" standalone="no"?>
<!-- Created with Inkscape (http://www.inkscape.org/) -->

<svg
   width="48"
   height="48"
   viewBox="0 0 48 48"
   version="1.1"
   id="svg990"
   inkscape:version="1.2.2 (b0a8486541, 2022-12-01)"
   xml:space="preserve"
   sodipodi:docname="cru_app.svg"
   xmlns:inkscape="http://www.inkscape.org/namespaces/inkscape"
   xmlns:sodipodi="http://sodipodi.sourceforge.net/DTD/sodipodi-0.dtd"
   xmlns="http://www.w3.org/2000/svg"
   xmlns:svg="http://www.w3.org/2000/svg"><sodipodi:namedview
     id="namedview992"
     pagecolor="#858585"
     bordercolor="#000000"
     borderopacity="0.25"
     inkscape:showpageshadow="2"
     inkscape:pageopacity="0"
     inkscape:pagecheckerboard="0"
     inkscape:deskcolor="#d1d1d1"
     inkscape:document-units="px"
     showgrid="false"
     inkscape:zoom="11"
     inkscape:cx="24"
     inkscape:cy="24"
     inkscape:window-width="1366"
     inkscape:window-height="737"
     inkscape:window-x="0"
     inkscape:window-y="0"
     inkscape:window-maximized="1"
     inkscape:current-layer="svg990" /><defs
     id="defs987"><style
   id="style1174">.a{fill:none;stroke:#fff;stroke-linecap:round;stroke-linejoin:round;}</style>
		
	
		
		
	
		
	
			
		
				
			</defs><path
     id="polyline7569"
     style="fill:none;stroke:#ffffff;stroke-width:1;stroke-linecap:round;stroke-linejoin:round;stroke-miterlimit:10;stroke-dasharray:none"
     class="st5"
     d="m 19.329482,36.32138 3.089672,-9.154584 3.089672,9.154584 m -1.029892,-3.089672 h -4.11956 M 14.478301,31.744137 H 19.05559 M 6.8777778,27.167083 v 6.06491 c 0,1.716484 1.373185,3.089672 2.9752383,3.089672 1.6020549,0 2.9752399,-1.373188 2.9752399,-3.089672 v -6.06491 m 22.229052,9.154347 v -9.154584 h 2.97524 c 1.716484,0 3.089672,1.373188 3.089672,3.089672 0,1.716485 -1.373188,3.089672 -3.089672,3.089672 h -2.97524 m -7.80671,2.975474 V 27.16708 h 2.97524 c 1.716484,0 3.089672,1.373188 3.089672,3.089672 0,1.716485 -1.373188,3.089672 -3.089672,3.089672 h -2.97524 M 37.291941,19.88738 c -0.801406,0 -1.451073,-0.71055 -1.451073,-1.587057 0,-0.876505 0.649668,-1.587054 1.451073,-1.587054 -0.162274,0.993529 0.08351,1.850915 1.180104,1.65208 l 6.44e-4,-3.089034 c -0.322656,-0.651406 -0.812283,-0.545139 -1.502858,-0.541518 0.659648,-0.887982 1.471269,-1.546535 3.20191,-0.817648 1.125673,-1.100863 3.068963,0.288462 3.232176,1.049444 h -1.452979 l -7.01e-4,2.344969 c 0.265173,-0.364654 0.674825,-0.598293 1.134371,-0.598293 0.801404,0 1.451072,0.710549 1.451072,1.587055 v 0 c 0,0.876506 -0.649669,1.587056 -1.451072,1.587056 0.159935,-0.979227 -0.07653,-1.826204 -1.133165,-1.65969 l -5.05e-4,3.1023 c 0.410512,0.470054 1.113453,0.540208 1.798682,0.634587 -1.222601,1.675915 -2.376368,1.564834 -3.518129,1.142113 -2.437796,0.735705 -4.414363,0.821152 -6.634915,0 v 0 c -1.491637,0.708439 -2.764939,-0.03617 -3.376824,-1.088121 0.829332,0.09212 1.321168,-0.09167 1.631599,-0.86351 v -5.025542 c 0.16183,-0.575321 -0.191871,-0.696842 -0.760624,-0.629052 0.582469,0.791814 -0.237582,1.608275 -0.832368,1.584171 -1.915896,-0.07766 -1.588909,-2.941067 0,-3.436896 1.922382,-0.59989 2.384361,0.244342 3.489131,0.481732 1.244203,-0.965234 2.444998,-0.06215 2.920488,0.521274 -0.582175,0.15175 -1.556941,-0.05054 -1.556941,0.796536 v 5.561451 c 1.167421,0.649768 2.140411,0.712625 3.361652,0 l 2.88e-4,-1.787132 C 38.210086,19.62488 37.77904,19.88738 37.291941,19.88738 Z M 21.631194,17.387995 c 0.271364,0.671667 -0.541411,1.411804 -1.327372,1.411804 -0.905846,0 -1.640179,-0.80315 -1.640179,-1.793886 0,-0.990737 0.734487,-1.775662 1.640179,-1.793887 0.349122,-0.007 0.648325,-0.0304 0.897251,0.0187 1.091108,0.215236 1.783579,0.62723 2.213927,1.045875 v -2.923006 c -1.466444,-2.509244 -4.589605,-2.30136 -6.368433,-0.292176 0.607132,-3.0774427 4.159936,-5.6547864 8.610506,-2.377035 1.294797,-0.7797388 2.787078,-0.344153 3.239876,1.020069 -1.447975,-0.352616 -1.703745,0.172855 -1.703745,0.826167 v 8.538009 c 0,0.748794 0.733081,1.096644 1.678795,1.433066 -1.206263,0.85698 -2.729578,0.824593 -3.656676,0.240073 -1.369817,0.63151 -2.389592,0.560982 -3.642543,-0.240073 0.844213,-0.136353 1.89648,-0.348666 1.89648,-1.275978 v -2.486903 c 0,-1.492929 -1.266588,-1.400819 -1.838066,-1.350832 z M 5.849015,21.713284 c 0.4139418,-0.311476 0.777523,-0.631656 0.7775231,-1.22273 2e-7,-0.95413 -0.7072012,-1.727605 -1.5795786,-1.727605 -0.8723774,0 -1.5399063,0.774462 -1.5795787,1.727605 -0.09777,2.348977 1.9512745,3.685012 5.5796044,2.168966 2.2175268,0.85068 4.2282458,0.80204 6.0573098,0 1.399944,1.169446 2.767186,0.03046 3.459274,-1.093765 -0.665156,0.46404 -1.58134,-0.07727 -1.58134,-1.370773 v -5.323107 c 0,-0.569786 0.670051,-1.154006 1.620304,-1.062597 -0.968786,-0.621761 -2.533255,-0.611462 -3.169365,0.07026 -1.110191,-0.917088 -2.33454,-0.631168 -3.06522,-0.258595 0.548952,0.22957 1.249388,0.405517 1.249388,0.910564 v 5.938495 c 0,1.437693 -2.874255,1.38597 -2.874255,0 V 14.90806 c 0,-0.790304 0.583381,-0.971557 1.007931,-1.274816 -0.832577,-0.571003 -1.9621828,-0.448015 -2.7059561,0.0103 -3.0140947,-1.476753 -4.7714696,0.01844 -4.845078,1.390352 -0.087108,1.623514 0.8771766,2.032233 1.7723952,1.788186 0.865465,-0.235936 1.0987464,-1.442533 0.682143,-2.128683 0.5198178,0.0081 0.7472934,0.2409 0.7876771,1.085299 v 5.401894 C 7.1376539,21.834255 6.3173791,21.728254 5.849015,21.713284 Z" /></svg>
