<?xml version="1.0" encoding="UTF-8" standalone="no"?>
<!-- Created with Inkscape (http://www.inkscape.org/) -->

<svg
   width="48"
   height="48"
   viewBox="0 0 48 48"
   version="1.1"
   id="svg990"
   inkscape:version="1.2.2 (b0a8486541, 2022-12-01)"
   xml:space="preserve"
   sodipodi:docname="cunex.svg"
   xmlns:inkscape="http://www.inkscape.org/namespaces/inkscape"
   xmlns:sodipodi="http://sodipodi.sourceforge.net/DTD/sodipodi-0.dtd"
   xmlns="http://www.w3.org/2000/svg"
   xmlns:svg="http://www.w3.org/2000/svg"><sodipodi:namedview
     id="namedview992"
     pagecolor="#858585"
     bordercolor="#000000"
     borderopacity="0.25"
     inkscape:showpageshadow="2"
     inkscape:pageopacity="0"
     inkscape:pagecheckerboard="0"
     inkscape:deskcolor="#d1d1d1"
     inkscape:document-units="px"
     showgrid="false"
     inkscape:zoom="11"
     inkscape:cx="24"
     inkscape:cy="24"
     inkscape:window-width="1366"
     inkscape:window-height="737"
     inkscape:window-x="0"
     inkscape:window-y="0"
     inkscape:window-maximized="1"
     inkscape:current-layer="svg990" /><defs
     id="defs987"><style
   id="style1174">.a{fill:none;stroke:#fff;stroke-linecap:round;stroke-linejoin:round;}</style>
		
		
	
		
		
	
		
	</defs><path
     id="path8772"
     style="fill:none;stroke:#ffffff;stroke-width:1.00003;stroke-linecap:round;stroke-linejoin:round;stroke-dasharray:none;stop-color:#000000"
     d="m 40.010643,27.327116 a 1.2340769,1.2340769 0 0 1 -1.234075,1.234075 1.2340769,1.2340769 0 0 1 -1.234079,-1.234076 1.2340769,1.2340769 0 0 1 1.234079,-1.234079 1.2340769,1.2340769 0 0 1 1.234075,1.23408 z M 28.493198,38.102634 H 18.442802 V 26.092716 h 10.050396 m -5.303822,6.004959 h 5.303822 M 18.441074,9.8272145 18.441652,17.77814 c 1.61e-4,2.250264 2.318031,4.050469 5.02307,4.050469 2.705038,0 5.023919,-1.800206 5.023858,-4.050469 L 28.488366,9.8272145 M 13.714459,17.781224 v 0 c 0,2.252757 -2.269878,4.054959 -5.1072211,4.054959 v 0 c -2.837347,0 -5.1072238,-1.802202 -5.1072238,-3.904776 v -4.054958 c 0,-2.252756 2.2698768,-4.0549655 5.1072238,-3.9047815 v 0 c 2.8373431,0 4.9180631,1.8022065 4.9180631,3.9047815 v 0 M 3.5919611,38.172786 V 26.022564 L 13.637906,38.172786 V 26.022564 m 30.86208,9.23e-4 -3.523764,3.739723 m -7.923071,-3.739724 5.723419,6.074189 m 5.723416,6.07419 -3.523537,-3.670467 m -2.199879,-2.403723 -5.723419,6.07419" /></svg>
