<?xml version="1.0" encoding="UTF-8" standalone="no"?>
<!-- Created with Inkscape (http://www.inkscape.org/) -->

<svg
   width="48"
   height="48"
   viewBox="0 0 48 48"
   version="1.1"
   id="svg990"
   inkscape:version="1.2.2 (b0a8486541, 2022-12-01)"
   xml:space="preserve"
   sodipodi:docname="eve_of_the_genesis.svg"
   xmlns:inkscape="http://www.inkscape.org/namespaces/inkscape"
   xmlns:sodipodi="http://sodipodi.sourceforge.net/DTD/sodipodi-0.dtd"
   xmlns="http://www.w3.org/2000/svg"
   xmlns:svg="http://www.w3.org/2000/svg"><sodipodi:namedview
     id="namedview992"
     pagecolor="#858585"
     bordercolor="#000000"
     borderopacity="0.25"
     inkscape:showpageshadow="2"
     inkscape:pageopacity="0"
     inkscape:pagecheckerboard="0"
     inkscape:deskcolor="#d1d1d1"
     inkscape:document-units="px"
     showgrid="false"
     inkscape:zoom="11"
     inkscape:cx="24"
     inkscape:cy="24"
     inkscape:window-width="1366"
     inkscape:window-height="737"
     inkscape:window-x="0"
     inkscape:window-y="0"
     inkscape:window-maximized="1"
     inkscape:current-layer="svg990" /><defs
     id="defs987"><style
       id="style1174">.a{fill:none;stroke:#fff;stroke-linecap:round;stroke-linejoin:round;}</style></defs><path
     id="rect438"
     style="fill:none;stroke:#ffffff;stroke-width:0.999781;stroke-linecap:round;stroke-linejoin:round;stroke-dasharray:none;stroke-opacity:1;stop-color:#000000"
     d="M 29.497428,14.279833 C 28.422387,11.12119 26.32265,9.3796499 24.336992,9.3616987 22.208979,9.3424599 20.495657,12.01365 20.495657,15.307778 v 19.387249 c 0,3.294127 1.713235,5.946079 3.841335,5.946079 2.1281,0 3.841335,-2.651952 3.841335,-5.946079 v -9.00857 h 4.820997 v 17.751602 c -1.776646,-1.80873 -2.483132,-1.800135 -4.994947,-0.894308 -1.633485,0.589078 -2.271086,1.041985 -4.778462,0.9437 -4.539188,-0.177929 -8.225239,-8.347344 -8.225239,-18.644314 0,-10.296971 3.683105,-18.5742526 8.225239,-18.6443143 l 2.848369,-0.043935 c 2.910296,-0.044891 2.501385,-0.8677065 3.302335,-1.6550422 l 2.27086,8.2941895 z"
     sodipodi:nodetypes="cssssscccsssssccc" /></svg>
