<?xml version="1.0" encoding="UTF-8" standalone="no"?>
<!-- Created with Inkscape (http://www.inkscape.org/) -->

<svg
   width="48"
   height="48"
   viewBox="0 0 48 48"
   version="1.1"
   id="svg990"
   inkscape:version="1.2.2 (b0a8486541, 2022-12-01)"
   xml:space="preserve"
   sodipodi:docname="ffvii.svg"
   xmlns:inkscape="http://www.inkscape.org/namespaces/inkscape"
   xmlns:sodipodi="http://sodipodi.sourceforge.net/DTD/sodipodi-0.dtd"
   xmlns="http://www.w3.org/2000/svg"
   xmlns:svg="http://www.w3.org/2000/svg"><sodipodi:namedview
     id="namedview992"
     pagecolor="#858585"
     bordercolor="#000000"
     borderopacity="0.25"
     inkscape:showpageshadow="2"
     inkscape:pageopacity="0"
     inkscape:pagecheckerboard="0"
     inkscape:deskcolor="#d1d1d1"
     inkscape:document-units="px"
     showgrid="false"
     inkscape:zoom="11"
     inkscape:cx="16"
     inkscape:cy="24"
     inkscape:window-width="1366"
     inkscape:window-height="737"
     inkscape:window-x="0"
     inkscape:window-y="0"
     inkscape:window-maximized="1"
     inkscape:current-layer="svg990" /><defs
     id="defs987"><style
       id="style1174">.a{fill:none;stroke:#fff;stroke-linecap:round;stroke-linejoin:round;}</style></defs><path
     id="path2925"
     style="fill:none;stroke:#ffffff;stroke-width:0.999889;stroke-linecap:round;stroke-linejoin:round;stroke-dasharray:none;stroke-opacity:1;stop-color:#000000"
     d="m 33.47117,17.755487 c -1.380257,0.413858 -2.809089,1.776035 -3.996508,2.567226 -0.202846,0.135158 -1.814578,1.176334 -2.784378,1.844375 m 1.478974,0.894579 c -1.592398,0.742064 -4.913858,3.845005 -5.092022,4.753805 m 2.93682,-0.342227 -1.96064,1.890527 c -1.185336,1.142948 -2.268108,2.15117 -3.36044,4.154866 -0.148259,0.271955 -1.522355,0.986341 -1.726881,1.182595 -0.701359,0.672992 -1.442935,0.762119 -2.357076,1.106072 -0.543044,0.204324 -1.176046,0.778087 -1.8181,0.852121 -1.200988,0.138484 -3.506534,-0.266258 -1.914125,-0.893007 1.302465,-0.512631 -2.00138,0.84838 -3.0683439,-0.577658 M 9.6159881,34.649629 C 8.0783006,35.263261 6.4312972,34.313939 5.62571,32.715493 4.9652253,31.473113 4.4999434,29.552913 4.4999434,28.047754 c 0,-4.907602 3.9783971,-8.885999 8.8859986,-8.885999 1.042626,0 1.465287,0.153119 2.173758,0.198668 2.952214,-0.730721 7.314006,-3.658843 8.82799,-4.299554 m -1.787022,2.54236 2.379098,-1.112324 c 1.163074,-0.5335 2.418505,-0.921014 3.610963,-1.39569 0.515761,-0.205307 0.9675,-0.453297 1.51397,-0.566735 m -2.750538,2.960558 c 1.28817,-0.835132 2.789658,-1.525148 4.151668,-2.216188 1.739332,-0.88248 3.544485,-1.616592 5.350621,-2.343069 0.585644,-0.235562 1.199192,-0.427732 1.772569,-0.680927 m 4.871037,-0.938919 -9.521751,4.96989 m -20.76248,4.697115 c 0.247627,0.402687 -1.791019,1.932246 -3.5567788,3.119051 m -1.9254907,7.132931 c 1.4979953,1.745386 5.1052255,0.05785 2.7035205,0.01269 2.463296,-0.202248 4.576188,-1.490759 5.279543,-2.64823 0.548857,-0.903221 1.675134,-2.18595 1.523926,-3.036039 -0.10097,-0.567652 -0.616486,-0.47363 -1.076707,-0.422938 -2.089405,0.230131 -2.377335,2.08169 -4.78457,1.914999 2.991786,-2.972129 5.476764,-4.466065 -1.5614674,-0.849262" /></svg>
