<?xml version="1.0" encoding="UTF-8" standalone="no"?>
<!-- Created with Inkscape (http://www.inkscape.org/) -->

<svg
   width="48"
   height="48"
   viewBox="0 0 48 48"
   version="1.1"
   id="svg990"
   inkscape:version="1.2.2 (b0a8486541, 2022-12-01)"
   xml:space="preserve"
   sodipodi:docname="getting_over_it.svg"
   xmlns:inkscape="http://www.inkscape.org/namespaces/inkscape"
   xmlns:sodipodi="http://sodipodi.sourceforge.net/DTD/sodipodi-0.dtd"
   xmlns="http://www.w3.org/2000/svg"
   xmlns:svg="http://www.w3.org/2000/svg"><sodipodi:namedview
     id="namedview992"
     pagecolor="#858585"
     bordercolor="#000000"
     borderopacity="0.25"
     inkscape:showpageshadow="2"
     inkscape:pageopacity="0"
     inkscape:pagecheckerboard="0"
     inkscape:deskcolor="#d1d1d1"
     inkscape:document-units="px"
     showgrid="false"
     inkscape:zoom="11"
     inkscape:cx="23.727273"
     inkscape:cy="31.272727"
     inkscape:window-width="1366"
     inkscape:window-height="737"
     inkscape:window-x="0"
     inkscape:window-y="0"
     inkscape:window-maximized="1"
     inkscape:current-layer="svg990" /><defs
     id="defs987"><style
       id="style1174">.a{fill:none;stroke:#fff;stroke-linecap:round;stroke-linejoin:round;}</style></defs><path
     id="path1316"
     style="display:inline;fill:none;stroke:#ffffff;stroke-width:1;stroke-linecap:round;stroke-linejoin:round;stroke-dasharray:none;stroke-opacity:1;stop-color:#000000"
     d="m 40.628416,33.256396 c 0,0 -0.100052,0.867222 -0.384133,1.15843 -0.436056,0.447001 -1.248949,0.279007 -1.763014,0.633536 -0.231677,0.159778 -0.549231,0.641229 -0.549231,0.641229 l -2.940795,3.433389 2.746051,2.182419 3.783452,-4.724009 1.935243,-3.791086 c 0.457608,-0.896443 -2.799785,0.38229 -2.827573,0.466092 z M 38.251396,35.268117 5.9546514,6.6945986 4.5000276,8.4546049 36.86172,36.939885 m 2.563497,2.256431 0.597135,0.525607 1.19786,-1.827242 v 0 l -0.44014,-0.3894 M 28.970623,17.430594 c 3.285911,5.755962 5.428664,10.377069 5.20855,14.233247 m -0.51064,2.462743 c -0.89693,2.381504 -2.989817,4.453065 -6.651798,6.327849 -1.949275,0.997948 -3.78776,0.850943 -5.713153,0.850943 -1.925394,0 -3.76388,0.147005 -5.713155,-0.850943 C 5.2854738,35.178719 7.4059324,28.344806 13.63654,17.430594 m 0.848731,-3.183171 c 1.67017,-0.106434 3.635325,-0.130698 6.818311,-0.123384 3.968421,-0.0091 6.04383,0.03085 8.014688,0.217941 2.404025,0.2282 1.733607,1.485113 -0.347647,3.088614" /></svg>
