<?xml version="1.0" encoding="UTF-8" standalone="no"?>
<!-- Created with Inkscape (http://www.inkscape.org/) -->

<svg
   width="48"
   height="48"
   viewBox="0 0 48 48"
   version="1.1"
   id="svg990"
   inkscape:version="1.2.2 (b0a8486541, 2022-12-01)"
   xml:space="preserve"
   sodipodi:docname="infinite_links.svg"
   xmlns:inkscape="http://www.inkscape.org/namespaces/inkscape"
   xmlns:sodipodi="http://sodipodi.sourceforge.net/DTD/sodipodi-0.dtd"
   xmlns="http://www.w3.org/2000/svg"
   xmlns:svg="http://www.w3.org/2000/svg"><sodipodi:namedview
     id="namedview992"
     pagecolor="#858585"
     bordercolor="#000000"
     borderopacity="0.25"
     inkscape:showpageshadow="2"
     inkscape:pageopacity="0"
     inkscape:pagecheckerboard="0"
     inkscape:deskcolor="#d1d1d1"
     inkscape:document-units="px"
     showgrid="false"
     inkscape:zoom="8"
     inkscape:cx="14.125"
     inkscape:cy="27.25"
     inkscape:window-width="1366"
     inkscape:window-height="737"
     inkscape:window-x="0"
     inkscape:window-y="0"
     inkscape:window-maximized="1"
     inkscape:current-layer="svg990" /><defs
     id="defs987"><style
       id="style1174">.a{fill:none;stroke:#fff;stroke-linecap:round;stroke-linejoin:round;}</style></defs><path
     id="path2835"
     style="display:inline;fill:none;stroke:#ffffff;stroke-width:0.999705;stroke-linecap:round;stroke-linejoin:round;stroke-dasharray:none;stroke-opacity:1;stop-color:#000000"
     d="m 14.552372,22.218209 a 14.069744,14.069744 0 0 1 2.551659,-6.457629 m 0,0 -0.885998,-4.05139 3.809091,3.809093 -2.923093,0.242297 m 19.643475,19.644771 a 14.069744,14.069744 0 0 1 -8.238668,2.664393 14.069744,14.069744 0 0 1 -9.003517,-3.257974 m 17.242185,0.593581 0.240155,-2.926527 3.811987,3.811986 -4.052142,-0.885459 M 17.697168,33.003638 A 14.069744,14.069744 0 0 1 14.552616,25.783699 M 18.56035,14.050865 a 14.069744,14.069744 0 0 1 9.948488,-4.1206094 14.069744,14.069744 0 0 1 9.008124,3.2618134 m 1.801672,1.802046 A 14.069744,14.069744 0 0 1 42.578581,24 v 0 a 14.069744,14.069744 0 0 1 -4.121415,9.949294 M 20.944719,28.367212 13.517529,38.99131 m 0,0 10.624097,-7.42719 M 32.876049,16.435881 43.500147,9.0086904 m 0,0 -7.427189,10.6240976 M 19.967493,21.260659 4.4998527,24.000002 m 0,0 15.4676393,2.739338 m -1.048627,4.510332 A 12.021868,12.021868 0 0 1 16.682402,26.15888 m 1.31e-4,-4.318474 a 12.021868,12.021868 0 0 1 11.826305,-9.862274 12.021868,12.021868 0 0 1 7.257218,2.437605 m 2.327043,2.327043 A 12.021868,12.021868 0 0 1 40.530706,24 v 0 A 12.021868,12.021868 0 0 1 28.508838,36.021867 12.021868,12.021868 0 0 1 21.259822,33.590468 m 7.249016,-5.947341 -2.57608,-1.067047 m 0,0 -1.067048,-2.576079 m 0,0 1.067048,-2.576081 m 0,0 2.576081,-1.067046 m 0,0 2.576079,1.067046 m 0,0 L 32.151964,24 m 0,0 -1.067046,2.57608 m 0,0 -2.57608,1.067047 m 6.050445,2.407319 a 8.5566219,8.5566219 0 0 1 -12.10089,-1e-6 8.5566219,8.5566219 0 0 1 -1e-6,-12.100891 8.5566219,8.5566219 0 0 1 12.100891,0 8.5566219,8.5566219 0 0 1 0,12.100892 z m -2.21724,-2.217241 a 5.4209722,5.4209722 0 0 1 -7.666412,0 5.4209722,5.4209722 0 0 1 0,-7.66641 5.4209722,5.4209722 0 0 1 7.666413,-1e-6 5.4209722,5.4209722 0 0 1 -1e-6,7.666411 z m 1.061306,3.291744 3.067453,0.837698 -0.837698,-3.067451 m -14.248533,-9.789024 -0.837696,-3.067452 3.067452,0.837698 m 13.39307,5.547591 2.761358,1.576676 -2.761358,1.576673 m -10.075234,6.921885 1.576676,2.761358 1.576673,-2.761358 m -3.153349,-16.997119 1.576676,-2.761357 1.576673,2.761357 M 32.151964,24 l 1.775157,-1e-6 m 0,0 h 3.136884 m -5.979087,-2.576079 1.256557,-1.256558 m 0,0 2.217053,-2.217052 m -6.049689,-2.485008 v 3.134154 m 0,0 v 1.757418 m 2.576079,6.219206 1.256692,1.256693 m 0,0 2.217293,2.217292 m -6.050065,-2.406938 v 1.75742 m 0,0 v 3.135519 m -2.57608,-5.959986 -1.257922,1.257922 m 0,0 -2.217054,2.217053 m 2.407928,-6.051054 -1.757418,10e-7 m 0,0 h -3.135517 m 5.959983,-2.576082 -1.256694,-1.256692 m 0,0 -2.217292,-2.217293 m 3.84553,1.097503 a 2.215044,3.1790354 0 0 1 2.204536,-2.869703 2.215044,3.1790354 0 0 1 2.204574,2.87034 m 0,9.90385 a 2.215044,3.1790354 0 0 1 -2.204574,2.870339 2.215044,3.1790354 0 0 1 -2.205,-2.876623 m -2.74064,-2.740642 a 3.1790354,2.215044 0 0 1 -2.876624,-2.205 3.1790354,2.215044 0 0 1 2.87034,-2.204575 m 9.91075,4.75e-4 a 3.1790354,2.215044 0 0 1 2.863437,2.2041 3.1790354,2.215044 0 0 1 -2.870586,2.204594 M 23.457446,22.067635 a 3.1790354,2.215044 45 0 1 -0.479785,-3.598812 3.1790354,2.215044 45 0 1 3.598812,0.479787 m 6.993062,6.99439 a 3.1790354,2.215044 45 0 1 0.470479,3.588177 3.1790354,2.215044 45 0 1 -3.598813,-0.479786 m -3.858245,-0.0057 a 2.215044,3.1790354 45 0 1 -3.605293,0.485489 2.215044,3.1790354 45 0 1 0.480493,-3.599618 m 6.983091,-6.982987 a 2.215044,3.1790354 45 0 1 3.598768,-0.479747 2.215044,3.1790354 45 0 1 -0.471662,3.589532" /></svg>
