<?xml version="1.0" encoding="UTF-8" standalone="no"?>
<!-- Created with Inkscape (http://www.inkscape.org/) -->

<svg
   width="48"
   height="48"
   viewBox="0 0 48 48"
   version="1.1"
   id="svg990"
   inkscape:version="1.2.2 (b0a8486541, 2022-12-01)"
   xml:space="preserve"
   sodipodi:docname="kulife.svg"
   xmlns:inkscape="http://www.inkscape.org/namespaces/inkscape"
   xmlns:sodipodi="http://sodipodi.sourceforge.net/DTD/sodipodi-0.dtd"
   xmlns="http://www.w3.org/2000/svg"
   xmlns:svg="http://www.w3.org/2000/svg"><sodipodi:namedview
     id="namedview992"
     pagecolor="#858585"
     bordercolor="#000000"
     borderopacity="0.25"
     inkscape:showpageshadow="2"
     inkscape:pageopacity="0"
     inkscape:pagecheckerboard="0"
     inkscape:deskcolor="#d1d1d1"
     inkscape:document-units="px"
     showgrid="true"
     inkscape:zoom="11"
     inkscape:cx="24"
     inkscape:cy="24"
     inkscape:window-width="1366"
     inkscape:window-height="737"
     inkscape:window-x="0"
     inkscape:window-y="0"
     inkscape:window-maximized="0"
     inkscape:current-layer="svg990"><inkscape:grid
       type="xygrid"
       id="grid6719" /></sodipodi:namedview><defs
     id="defs987"><style
   id="style1174">.a{fill:none;stroke:#fff;stroke-linecap:round;stroke-linejoin:round;}</style>
		
		
	
			
			
		</defs><path
     id="line5545"
     style="fill:none;fill-opacity:1;stroke:#ffffff;stroke-width:1.00011;stroke-linecap:round;stroke-linejoin:round;stroke-miterlimit:10;stroke-dasharray:none;stroke-opacity:1"
     class="st5"
     d="M 20.056181,36.451092 10.097149,23.999895 M 6.9849503,27.735258 20.056196,11.548699 m -13.0712457,0 V 36.451094 M 24.828412,11.548781 v 16.49792 c 0,4.669221 3.735379,8.4046 8.093319,8.4046 4.357941,0 8.093319,-3.735379 8.093319,-8.4046 v -16.49792 m -2.807604,24.193715 c 0.895271,-0.968294 1.487584,-5.322376 0.191941,-4.200927 -0.960469,0.831339 -0.588105,6.918244 2.688765,3.407981 m -6.746139,2.826828 c 0.693706,-2.71627 0.452978,-5.43254 -0.102734,-8.14881 -1.074871,-1.716783 -0.614322,5.982795 1.828439,10.653777 1.286926,2.460826 2.095629,4.016215 1.698529,0.05575 L 37.37247,36.409763 m -7.263906,-3.386943 -0.426628,1.540708 m 0.444074,4.925258 0.709793,-2.167448 c 0.684004,1.833751 1.581503,3.489056 2.723456,1.184076 m -9.278062,-5.138237 c 0.336575,3.199297 1.628566,6.261392 2.862393,9.331839 1.111192,-0.593982 1.793327,-1.115343 2.232379,-2.200278" /></svg>
