<?xml version="1.0" encoding="UTF-8" standalone="no"?>
<!-- Created with Inkscape (http://www.inkscape.org/) -->

<svg
   width="48"
   height="48"
   viewBox="0 0 48 48"
   version="1.1"
   id="svg990"
   inkscape:version="1.2.2 (b0a8486541, 2022-12-01)"
   xml:space="preserve"
   sodipodi:docname="sky_for_lecturers.svg"
   xmlns:inkscape="http://www.inkscape.org/namespaces/inkscape"
   xmlns:sodipodi="http://sodipodi.sourceforge.net/DTD/sodipodi-0.dtd"
   xmlns="http://www.w3.org/2000/svg"
   xmlns:svg="http://www.w3.org/2000/svg"><sodipodi:namedview
     id="namedview992"
     pagecolor="#858585"
     bordercolor="#000000"
     borderopacity="0.25"
     inkscape:showpageshadow="2"
     inkscape:pageopacity="0"
     inkscape:pagecheckerboard="0"
     inkscape:deskcolor="#d1d1d1"
     inkscape:document-units="px"
     showgrid="false"
     inkscape:zoom="11.645833"
     inkscape:cx="-0.25760287"
     inkscape:cy="30.912344"
     inkscape:window-width="1366"
     inkscape:window-height="737"
     inkscape:window-x="0"
     inkscape:window-y="0"
     inkscape:window-maximized="1"
     inkscape:current-layer="svg990" /><defs
     id="defs987"><style
   id="style1174">.a{fill:none;stroke:#fff;stroke-linecap:round;stroke-linejoin:round;}</style>
		
		
	
			
			
		
		
	
		
		
	
		
		
	
		
	
		
	</defs><path
     id="path695"
     style="fill:none;stroke:#ffffff;stroke-linecap:round;stroke-linejoin:round;stop-color:#000000"
     d="m 36.5,34.5 v 8 h 4 m 5,-4 c 0,3.865993 -3.134007,7 -7,7 -3.865993,0 -7,-3.134007 -7,-7 0,-3.865993 3.134007,-7 7,-7 3.865993,0 7,3.134007 7,7 z M 14.86099,14.799165 v 3.387549 c 0,0.95874 0.76699,1.725732 1.66182,1.725732 0.89482,0 1.66181,-0.766992 1.66181,-1.725732 v -3.387549 m 6.89125,3.327282 v 0 c 0,0.95874 -0.767,1.725732 -1.72574,1.725732 v 0 c -0.95874,0 -1.72573,-0.766992 -1.72573,-1.661816 V 16.46463 c 0,-0.95874 0.76699,-1.725732 1.72573,-1.661816 v 0 c 0.95874,0 1.66182,0.766992 1.66182,1.661816 v 0 M 8.02783,19.848426 v -5.049365 l 2.55664,5.113281 2.55664,-5.113281 v 5.113281 m 6.7634,-5.113177 v 5.11328 m 17.58566,-0.338758 v 4.964287 M 35.00816,22.05583 h 4.96403 M 23.38884,33.200834 18.93885,27.638378 m -1.39062,1.668738 5.84061,-7.231194 m -5.84061,0 V 33.200834 M 8.16543,31.84562 c 0.688,0.825609 1.51361,1.238413 2.75202,1.238413 h 1.65122 c 1.51362,0 2.75203,-1.238413 2.75203,-2.752028 v 0 c 0,-1.513615 -1.23841,-2.752028 -2.75203,-2.752028 h -1.78882 c -1.51361,0 -2.75203,-1.238412 -2.75203,-2.752027 v 0 c 0,-1.513616 1.23842,-2.752028 2.75203,-2.752028 h 1.65122 c 1.23841,0 2.06402,0.275203 2.75203,1.238412 m 13.99454,9.719341 v -5.478876 m 3.56127,-5.478877 -3.56127,5.478876 -3.56126,-5.478876 M 42.5,32.759765 V 7.5 c 0,-1.1045695 -0.895431,-2 -2,-2 v 0 h -33 c -1.1045695,0 -2,0.8954305 -2,2 v 33 c 0,1.104569 0.8954305,2 2,2 h 25.29883"
     sodipodi:nodetypes="cccssssscsssccsssssssscccccccccccccccccccsssssssssscccccccsscssssc" /></svg>
