<?xml version="1.0" encoding="UTF-8" standalone="no"?>
<!-- Created with Inkscape (http://www.inkscape.org/) -->

<svg
   width="48"
   height="48"
   viewBox="0 0 48 48"
   version="1.1"
   id="svg990"
   inkscape:version="1.2.2 (b0a8486541, 2022-12-01)"
   xml:space="preserve"
   sodipodi:docname="sru_360.svg"
   xmlns:inkscape="http://www.inkscape.org/namespaces/inkscape"
   xmlns:sodipodi="http://sodipodi.sourceforge.net/DTD/sodipodi-0.dtd"
   xmlns="http://www.w3.org/2000/svg"
   xmlns:svg="http://www.w3.org/2000/svg"><sodipodi:namedview
     id="namedview992"
     pagecolor="#858585"
     bordercolor="#000000"
     borderopacity="0.25"
     inkscape:showpageshadow="2"
     inkscape:pageopacity="0"
     inkscape:pagecheckerboard="0"
     inkscape:deskcolor="#d1d1d1"
     inkscape:document-units="px"
     showgrid="false"
     inkscape:zoom="11"
     inkscape:cx="24"
     inkscape:cy="24"
     inkscape:window-width="1366"
     inkscape:window-height="737"
     inkscape:window-x="0"
     inkscape:window-y="0"
     inkscape:window-maximized="1"
     inkscape:current-layer="svg990"
     showguides="false" /><defs
     id="defs987"><style
       id="style1174">.a{fill:none;stroke:#fff;stroke-linecap:round;stroke-linejoin:round;}</style></defs><path
     id="path13639"
     style="display:inline;fill:none;stroke:#ffffff;stroke-width:1;stroke-linecap:round;stroke-linejoin:round;stroke-dasharray:none;stroke-opacity:1;stop-color:#000000"
     d="m 16.397434,32.628352 c -0.04677,0.07485 -0.09771,0.146476 -0.153711,0.214189 -0.919764,1.112182 -2.131298,1.159633 -2.601927,2.700576 m 1.99901,-5.263243 c -1.19582,0.967914 -2.319332,-0.211291 -3.101867,2.0146 m 2.162258,-4.445027 c -1.887699,0.536572 -3.332702,-0.777894 -4.028949,0.330164 m 3.839467,-3.075537 C 13.16231,25.39229 11.90919,25.748346 10.476187,24.244483 m 4.553097,-1.480044 c -0.372159,0.09032 -0.738745,0.156377 -1.048456,0.07837 -1.365603,-0.343946 -1.647729,-2.125841 -2.965463,-2.391939 m 4.626138,0.727225 c -1.201902,-1.20256 -2.00821,-3.183303 -3.245522,-3.673977 m 3.718974,0.578983 c -0.168899,-0.581079 -0.368234,-1.142023 -0.692247,-1.596981 -0.51488,-0.72296 -1.730919,-0.858826 -2.507981,-2.105347 m 4.092294,0.25308 c -0.05168,-0.349977 -0.137462,-0.694555 -0.289477,-1.028457 -0.867996,-1.906558 -2.51557,-1.41941 -2.708127,-3.909407 m 5.03726,2.047837 c 0.04639,-0.437492 0.04778,-0.862991 -0.128243,-1.214082 C 18.62477,9.9440106 17.720931,9.9456815 17.496974,9.401748 17.135594,8.5240474 17.164358,7.5961903 16.817554,6.8842488 m 12.135769,4.8596182 c -0.04639,-0.437492 -0.04778,-0.862991 0.128243,-1.214082 0.293664,-0.5857334 1.197503,-0.5840625 1.42146,-1.127996 0.364706,-0.885778 0.332055,-1.82264 0.689091,-2.5371001 M 20.779686,4.9470176 c 0.227632,1.3004106 -0.592899,2.5243542 0.538691,3.6273146 M 27.220313,4.947 C 26.99294,6.2459341 27.81135,7.4685747 26.685469,8.5705571 m 4.917613,24.0586189 c 0.04663,0.07455 0.0974,0.145901 0.153195,0.213365 0.919763,1.112182 2.131297,1.159633 2.601927,2.700576 m -1.99901,-5.263243 c 1.19582,0.967914 2.319333,-0.211291 3.101867,2.0146 m -2.163396,-4.44535 c 1.888256,0.537424 3.3337,-0.777793 4.030088,0.330487 m -3.816654,-3.070656 c 1.340728,0.28729 2.587792,0.630911 4.012715,-0.864472 m -4.525672,-1.473391 c 0.362718,0.08686 0.718933,0.147848 1.021035,0.07176 1.365603,-0.343946 1.647728,-2.125841 2.965463,-2.391939 m -4.609371,0.710371 c 1.192654,-1.204124 1.997206,-3.168736 3.228756,-3.657125 m -3.718976,0.578983 c 0.168895,-0.581079 0.36823,-1.142023 0.692243,-1.596981 0.51488,-0.72296 1.730919,-0.858826 2.507981,-2.105347 m -4.092295,0.25308 c 0.05168,-0.349977 0.137462,-0.694555 0.289477,-1.028457 0.867997,-1.906558 2.515571,-1.41941 2.708128,-3.909407 M 18.522589,42.083847 H 29.47741 m -0.575903,-7.424175 c 0.812237,0.726842 1.778513,1.269387 3.289623,1.160062 l 1.933393,2.224378 m -15.026031,-3.38444 c -0.812236,0.726842 -1.778513,1.269387 -3.289623,1.160062 l -1.933392,2.224378 m 11.491227,-19.05079 c 1.446408,0.0212 2.916631,-0.135515 4.116695,-0.951784 v -1.269669 l -1.119319,-0.229091 -0.36317,-1.622383 -0.646022,-0.143483 -0.656825,-3.01867 -0.799441,0.0287 0.04432,-1.664508 H 25.345526 L 25.071836,7.8342875 H 24.602495 L 24.578176,7.0371811 C 24.450052,6.834996 24,5.9067221 24,5.9067221 c 0,0 -0.450052,0.9282739 -0.578176,1.130459 l -0.02432,0.7971064 h -0.469341 l -0.27369,2.2881465 h -0.597415 l 0.04432,1.664508 -0.799441,-0.0287 -0.656825,3.01867 -0.646022,0.143483 -0.36317,1.622383 -1.119319,0.229091 v 1.269669 c 1.200065,0.816269 2.670287,0.972984 4.116695,0.951784 m 5.656072,15.389777 v 2.889739 l 0.377905,0.44929 v 0.621497 l -2.38999,1.094247 -4.554568,-3.53e-4 -2.38999,-1.094248 v -0.621496 l 0.377906,-0.44929 v -2.88974 m 1.468298,-2.346351 -1.846202,1.256913 v 0.883229 l 2.38999,1.094248 4.554568,3.54e-4 2.38999,-1.094248 V 33.293661 L 26.82107,32.036748 m -1.578596,-3.319979 c 0.33546,-0.287046 1.266296,-0.0097 0.892662,0.367392 -1.039732,1.049688 -4.346899,1.249641 -4.35558,-0.486638 -0.0038,-0.763852 0.402131,-1.461933 2.243465,-1.631457 1.517685,-0.139726 1.718071,-0.664213 0.876001,-1.39206 -0.782298,-0.676185 -0.971649,-0.949878 -0.979459,-1.201422 -0.0295,-0.94984 0.651186,-1.038315 0.869258,-1.55116 0.207291,-0.487487 -0.247941,-1.060976 -0.579257,-1.427473 m 6.514948,4.247496 A 6.7245121,6.7245121 0 0 1 24,32.365959 6.7245121,6.7245121 0 0 1 17.275488,25.641447 6.7245121,6.7245121 0 0 1 24,18.916935 6.7245121,6.7245121 0 0 1 30.724512,25.641447 Z M 39.085699,24 A 15.085699,19.49992 0 0 1 24,43.49992 15.085699,19.49992 0 0 1 8.9143009,24 15.085699,19.49992 0 0 1 24,4.5000801 15.085699,19.49992 0 0 1 39.085699,24 Z" /></svg>
