<?xml version="1.0" encoding="UTF-8" standalone="no"?>
<!-- Created with Inkscape (http://www.inkscape.org/) -->

<svg
   width="48"
   height="48"
   viewBox="0 0 48 48"
   version="1.1"
   id="svg990"
   inkscape:version="1.2.2 (b0a8486541, 2022-12-01)"
   xml:space="preserve"
   sodipodi:docname="stou_sisa.svg"
   xmlns:inkscape="http://www.inkscape.org/namespaces/inkscape"
   xmlns:sodipodi="http://sodipodi.sourceforge.net/DTD/sodipodi-0.dtd"
   xmlns="http://www.w3.org/2000/svg"
   xmlns:svg="http://www.w3.org/2000/svg"><sodipodi:namedview
     id="namedview992"
     pagecolor="#858585"
     bordercolor="#000000"
     borderopacity="0.25"
     inkscape:showpageshadow="2"
     inkscape:pageopacity="0"
     inkscape:pagecheckerboard="0"
     inkscape:deskcolor="#d1d1d1"
     inkscape:document-units="px"
     showgrid="false"
     inkscape:zoom="11"
     inkscape:cx="24"
     inkscape:cy="24"
     inkscape:window-width="1366"
     inkscape:window-height="737"
     inkscape:window-x="0"
     inkscape:window-y="0"
     inkscape:window-maximized="1"
     inkscape:current-layer="svg990" /><defs
     id="defs987"><style
       id="style1174">.a{fill:none;stroke:#fff;stroke-linecap:round;stroke-linejoin:round;}</style></defs><path
     id="path15053-7"
     style="fill:none;stroke:#ffffff;stroke-width:1;stroke-linecap:round;stroke-linejoin:round;stroke-dasharray:none;stroke-opacity:1;stop-color:#000000"
     d="M 4.7496104,31.676006 H 42.286263 M 4.7496104,29.577419 H 42.286263 m 0.281025,-3.709778 a 1.2867166,1.2867166 0 0 1 -1.286717,1.286717 1.2867166,1.2867166 0 0 1 -1.286717,-1.286717 1.2867166,1.2867166 0 0 1 1.286717,-1.286716 1.2867166,1.2867166 0 0 1 1.286717,1.286716 z m -6.54317,-2.240947 -2.07e-4,0.750091 c -4.58e-4,1.661136 -1.337304,2.777574 -2.998439,2.777574 h -1.634468 c -1.661136,0 -2.99844,-1.116438 -2.99844,-2.777574 m 7.202777,-6.462119 c -0.616937,-0.437675 -1.337574,-0.568159 -2.569869,-0.69114 -0.542129,-0.0541 -1.634468,0 -1.634468,0 -1.661136,0 -3.124047,0.867159 -2.847993,2.505196 0.12451,0.738816 0.455466,1.590349 3.998671,1.816565 1.503251,0.09598 3.257286,0.132921 3.482436,2.081407 m -11.610466,-1.829048 4.62e-4,5.356713 m -7.685679,-8.80469 c 2.000823,-1.314991 4.750337,-1.733188 6.360468,-0.56867 l 1.333924,-1.457005 m -1.333924,1.457005 c 0.804472,0.581831 1.324518,1.558758 1.324647,3.016334 l 1.02e-4,1.000016 c -3.361452,0.02081 -7.710323,-0.692764 -7.703999,2.680889 0.0052,2.835958 3.021475,2.681049 4.163558,2.451238 m -15.4399005,-2.712614 -5.98e-4,2.937497 m 5.98e-4,-9.930833 v 6.993336 c 3.026297,3.595931 7.3065995,4.291471 7.3065995,0.651588 v -7.644924" /></svg>
