<?xml version="1.0" encoding="UTF-8" standalone="no"?>
<!-- Created with Inkscape (http://www.inkscape.org/) -->

<svg
   width="48"
   height="48"
   viewBox="0 0 48 48"
   version="1.1"
   id="svg990"
   inkscape:version="1.2.2 (b0a8486541, 2022-12-01)"
   xml:space="preserve"
   sodipodi:docname="symphony_of_eternity.svg"
   xmlns:inkscape="http://www.inkscape.org/namespaces/inkscape"
   xmlns:sodipodi="http://sodipodi.sourceforge.net/DTD/sodipodi-0.dtd"
   xmlns="http://www.w3.org/2000/svg"
   xmlns:svg="http://www.w3.org/2000/svg"><sodipodi:namedview
     id="namedview992"
     pagecolor="#858585"
     bordercolor="#000000"
     borderopacity="0.25"
     inkscape:showpageshadow="2"
     inkscape:pageopacity="0"
     inkscape:pagecheckerboard="0"
     inkscape:deskcolor="#d1d1d1"
     inkscape:document-units="px"
     showgrid="false"
     inkscape:zoom="11"
     inkscape:cx="24"
     inkscape:cy="24"
     inkscape:window-width="1366"
     inkscape:window-height="737"
     inkscape:window-x="0"
     inkscape:window-y="0"
     inkscape:window-maximized="1"
     inkscape:current-layer="svg990" /><defs
     id="defs987"><style
       id="style1174">.a{fill:none;stroke:#fff;stroke-linecap:round;stroke-linejoin:round;}</style></defs><path
     id="path10961"
     style="fill:none;stroke:#ffffff;stroke-width:1;stroke-linecap:round;stroke-linejoin:round;stroke-dasharray:none;stroke-opacity:1;stop-color:#000000"
     d="m 4.97424,38.915309 c 0.4282583,2.860244 2.9237522,4.685495 6.550699,1.176837 m 17.515722,0.626115 C 24.894504,35.599364 16.474151,26.773584 7.7098692,32.665998 5.4516837,34.184225 4.6613993,36.825914 4.97424,38.915309 4.660322,34.315575 9.1166212,32.083563 12.264957,35.142047 l 1.22722,-2.369458 C 9.1042902,29.837526 4.8672938,34.10196 4.97424,38.915309 m 19.451174,-7.346194 c 1.327012,-0.952556 2.271779,-2.045308 2.127817,-3.562017 -0.218681,-2.30392 -4.2984,-2.15718 -3.329545,0.835728 m 8.864331,-11.641458 c -1.988469,-0.961955 -3.444507,-2.124903 -3.140913,-3.74724 0.746107,-3.9870267 4.164173,-2.765527 2.716507,0.03476 m 5.676112,3.160196 c 1.596184,-2.078118 -1.09271,-4.332528 -1.998577,-0.580967 l -5.54955,22.982925 c -0.528819,2.190051 -2.202531,3.574275 -4.15049,4.145641 -3.146131,0.540386 -4.42489,-1.494222 -3.710812,-4.243487 -2.486831,-2.088936 -1.694246,-3.502726 -0.357997,-4.555514 2.537171,-1.389258 8.696198,2.166613 14.369481,8.271834 7.820704,-9.006675 9.342845,-18.304573 4.00362,-22.099279 -1.647874,-1.17118 -5.220699,-2.093327 -7.857381,-3.368867 -12.462311,-5.67226 -1.97474,-10.517223 3.810491,-10.2556878 2.658537,0.1201856 1.086203,1.1759661 0.915763,1.8802291 -0.701812,2.8999087 1.414904,3.3166857 2.737138,3.2631087 0.151928,-0.824697 0.104897,-1.598411 -0.04501,-2.3457587 3.562254,-1.357748 3.704328,-4.6979074 1.052555,-4.9747084 -4.524433,-0.4722752 -13.00703,-1.0753058 -17.38913,5.4833331 -6.440511,9.639439 4.312558,12.194526 8.646053,13.748885 8.255205,2.96102 10.345347,8.060237 6.086784,12.910169 -3.965638,-2.673126 -7.725926,-5.531274 -13.477246,-5.341823 -2.649283,1.901709 -6.822087,3.244635 -6.896772,6.286727 -0.113966,4.642169 4.476886,6.407208 8.112464,5.340839" /></svg>
