<?xml version="1.0" encoding="UTF-8" standalone="no"?>
<!-- Created with Inkscape (http://www.inkscape.org/) -->

<svg
   width="48"
   height="48"
   viewBox="0 0 48 48"
   version="1.1"
   id="svg990"
   inkscape:version="1.2.2 (b0a8486541, 2022-12-01)"
   xml:space="preserve"
   sodipodi:docname="wu_app.svg"
   xmlns:inkscape="http://www.inkscape.org/namespaces/inkscape"
   xmlns:sodipodi="http://sodipodi.sourceforge.net/DTD/sodipodi-0.dtd"
   xmlns="http://www.w3.org/2000/svg"
   xmlns:svg="http://www.w3.org/2000/svg"><sodipodi:namedview
     id="namedview992"
     pagecolor="#858585"
     bordercolor="#000000"
     borderopacity="0.25"
     inkscape:showpageshadow="2"
     inkscape:pageopacity="0"
     inkscape:pagecheckerboard="0"
     inkscape:deskcolor="#d1d1d1"
     inkscape:document-units="px"
     showgrid="false"
     inkscape:zoom="11"
     inkscape:cx="15.181818"
     inkscape:cy="24"
     inkscape:window-width="1366"
     inkscape:window-height="737"
     inkscape:window-x="0"
     inkscape:window-y="0"
     inkscape:window-maximized="1"
     inkscape:current-layer="svg990" /><defs
     id="defs987"><style
       id="style1174">.a{fill:none;stroke:#fff;stroke-linecap:round;stroke-linejoin:round;}</style></defs><path
     id="rect17135"
     style="fill:none;stroke:#ffffff;stroke-width:1.00005;stroke-linecap:round;stroke-linejoin:round;stroke-dasharray:none;stroke-opacity:1;stop-color:#000000"
     d="m 4.5000243,21.517182 h 2.822959 c 2.0939465,0 3.7796857,1.68574 3.7796857,3.779686 v 7.687149 h 4.309848 V 20.718859 c 0,-4.226319 4.674467,-7.490737 6.439192,-10.318316 0.942559,-1.381432 1.152422,-2.491349 1.319964,-4.060979 0.167541,1.56963 0.393062,2.679547 1.33562,4.060979 1.764727,2.827579 6.439732,6.091997 6.439732,10.318316 v 0.798323 h 8.773265 c 2.093946,0 3.779686,1.68574 3.779686,3.779686 v 16.363149 m -7.44656,-4.274261 c -0.897406,0 -1.619866,-0.72246 -1.619866,-1.619865 v -1.341934 c 0,-0.897405 0.72246,-1.619865 1.619866,-1.619865 h 3.975655 v 8.855925 M 22.451033,40.900555 h 3.769564 c 2.692216,0 4.859676,-2.167379 4.864656,-4.859597 0.005,2.692218 2.17278,4.859597 4.864997,4.859597 m -4.864997,-6.587168 c 0.005,-2.692217 2.172442,-4.859596 4.864658,-4.859596 h 4.317138 V 26.34257 c 0,-0.897405 -0.722459,-1.619866 -1.619865,-1.619866 h -7.567329 l 3.38e-4,11.318254 M 18.75808,22.383885 v -2.413052 c 0,-1.253921 2.649779,-4.402704 4.413593,-6.211377 1.763814,1.808673 4.413592,4.957456 4.413592,6.211377 v 15.761556 c 0,0.897406 -0.783061,1.619865 -1.680466,1.619865 H 22.559364 M 18.75808,24.722704 v 16.937313 m -7.671713,0 v -5.272122 h 4.465726 l -2.67e-4,5.272122 M 4.5000243,36.387895 h 3.2310914 v 5.272122 M 4.5000243,24.913848 h 1.610909 c 0.8974053,0 1.6198652,0.72246 1.6198652,1.619866 l 3.172e-4,6.450303 H 4.5000243" /></svg>
