<?xml version="1.0" encoding="UTF-8" standalone="no"?>
<!-- Created with Inkscape (http://www.inkscape.org/) -->

<svg
   width="48"
   height="48"
   viewBox="0 0 48 48"
   version="1.1"
   id="svg990"
   inkscape:version="1.2.2 (b0a8486541, 2022-12-01)"
   xml:space="preserve"
   sodipodi:docname="carrot_weather.svg"
   xmlns:inkscape="http://www.inkscape.org/namespaces/inkscape"
   xmlns:sodipodi="http://sodipodi.sourceforge.net/DTD/sodipodi-0.dtd"
   xmlns="http://www.w3.org/2000/svg"
   xmlns:svg="http://www.w3.org/2000/svg"><sodipodi:namedview
     id="namedview992"
     pagecolor="#858585"
     bordercolor="#000000"
     borderopacity="0.25"
     inkscape:showpageshadow="2"
     inkscape:pageopacity="0"
     inkscape:pagecheckerboard="0"
     inkscape:deskcolor="#d1d1d1"
     inkscape:document-units="px"
     showgrid="false"
     inkscape:zoom="8.2348477"
     inkscape:cx="14.207913"
     inkscape:cy="32.180316"
     inkscape:window-width="1366"
     inkscape:window-height="737"
     inkscape:window-x="0"
     inkscape:window-y="0"
     inkscape:window-maximized="1"
     inkscape:current-layer="svg990" /><defs
     id="defs987"><style
       id="style1174">.a{fill:none;stroke:#fff;stroke-linecap:round;stroke-linejoin:round;}</style></defs><path
     id="path18007"
     style="fill:none;stroke:#fff;stroke-width:1;stroke-linecap:round;stroke-linejoin:round;stroke-dasharray:none;stroke-opacity:1;stop-color:#000000"
     d="m 25.032731,35.773 1.034506,-1.178808 c 0.48728,-0.555251 0.362167,-1.400035 -0.763315,-1.400035 h -2.688404 c -0.829275,0 -1.146023,0.111154 -1.504665,0.601717 l -1.615228,2.209366 c -0.472725,0.646612 -0.396927,1.424685 0.710256,1.424685 h 2.179731 l -1.622863,2.6529 c -0.688047,1.124752 0.310352,1.565278 1.379162,0.880494 L 28.010457,37.20335 C 28.688215,36.76911 28.484812,35.773 27.324925,35.773 Z m 13.957821,-8.043228 a 1.0308401,1.0308401 0 0 1 -1.03084,1.030841 1.0308401,1.0308401 0 0 1 -1.03084,-1.030841 1.0308401,1.0308401 0 0 1 1.03084,-1.030839 1.0308401,1.0308401 0 0 1 1.03084,1.030839 z m -18.14499,-2.445081 3.154428,-3.23242 3.154431,3.23242 M 16.630939,18.517246 h 14.738104 c 2.83492,0 5.117184,2.177115 5.117184,4.881425 0,2.704309 -2.282264,4.881424 -5.117184,4.881424 H 16.630939 c -2.834918,0 -5.117181,-2.177115 -5.117181,-4.881424 0,-2.70431 2.282263,-4.881425 5.117181,-4.881425 z m -1.00824,-2.587867 a 10.897069,9.7107454 0 0 1 10.88378,-9.2313213 10.897069,9.7107454 0 0 1 10.895318,9.5366813 m -0.0015,-0.0043 c 2.956331,0.882218 5.099695,3.613845 5.099695,6.864486 v 1.100065 c 0,3.968884 -3.195174,7.164056 -7.164056,7.164056 H 12.664063 c -3.9688825,0 -7.1640554,-3.195172 -7.1640554,-7.164056 v -1.100065 c 0,-3.968882 3.1951729,-7.164056 7.1640554,-7.164056 v 0 h 2.984138" /></svg>
