<?xml version="1.0" encoding="UTF-8" standalone="no"?>
<!-- Created with Inkscape (http://www.inkscape.org/) -->

<svg
   width="48"
   height="48"
   viewBox="0 0 48 48"
   version="1.1"
   id="svg990"
   inkscape:version="1.2.2 (b0a8486541, 2022-12-01)"
   xml:space="preserve"
   sodipodi:docname="droid_info.svg"
   xmlns:inkscape="http://www.inkscape.org/namespaces/inkscape"
   xmlns:sodipodi="http://sodipodi.sourceforge.net/DTD/sodipodi-0.dtd"
   xmlns="http://www.w3.org/2000/svg"
   xmlns:svg="http://www.w3.org/2000/svg"><sodipodi:namedview
     id="namedview992"
     pagecolor="#858585"
     bordercolor="#000000"
     borderopacity="0.25"
     inkscape:showpageshadow="2"
     inkscape:pageopacity="0"
     inkscape:pagecheckerboard="0"
     inkscape:deskcolor="#d1d1d1"
     inkscape:document-units="px"
     showgrid="false"
     inkscape:zoom="11.645833"
     inkscape:cx="15.627907"
     inkscape:cy="17.173524"
     inkscape:window-width="1366"
     inkscape:window-height="737"
     inkscape:window-x="0"
     inkscape:window-y="0"
     inkscape:window-maximized="1"
     inkscape:current-layer="svg990" /><defs
     id="defs987"><style
       id="style1174">.a{fill:none;stroke:#fff;stroke-linecap:round;stroke-linejoin:round;}</style></defs><path
     id="path2456"
     style="fill:none;stroke:#fff;stroke-width:1;stroke-linecap:round;stroke-linejoin:round;stroke-dasharray:none"
     d="m 29.043904,27.595386 a 5.4711258,5.4711258 0 0 0 0.04637,-0.662364 5.4711258,5.4711258 0 0 0 -0.04637,-0.662363 l 1.434019,-1.122707 a 0.33118196,0.33118196 0 0 0 0.08279,-0.433848 L 29.202868,22.3594 a 0.33118196,0.33118196 0 0 0 -0.413977,-0.14572 l -1.692339,0.682234 a 5.1929331,5.1929331 0 0 0 -1.145891,-0.662363 l -0.255009,-1.798318 a 0.33118196,0.33118196 0 0 0 -0.331183,-0.284817 h -2.722315 a 0.33118196,0.33118196 0 0 0 -0.331183,0.284817 l -0.255009,1.798318 a 5.0869548,5.0869548 0 0 0 -1.14589,0.662363 L 19.211111,22.21368 a 0.33118196,0.33118196 0 0 0 -0.413979,0.14572 l -1.357846,2.354704 a 0.33118196,0.33118196 0 0 0 0.0828,0.433848 l 1.430707,1.122707 a 5.5174914,5.5174914 0 0 0 -0.04636,0.662363 5.4711258,5.4711258 0 0 0 0.04636,0.662364 l -1.430705,1.122708 a 0.33118196,0.33118196 0 0 0 -0.08279,0.433848 l 1.357845,2.354704 a 0.33118196,0.33118196 0 0 0 0.413978,0.145719 l 1.692338,-0.682233 a 5.1929331,5.1929331 0 0 0 1.14589,0.662363 l 0.255011,1.798317 a 0.33118196,0.33118196 0 0 0 0.331181,0.284818 h 2.715693 a 0.33118196,0.33118196 0 0 0 0.331181,-0.284818 l 0.25501,-1.798317 a 5.0869548,5.0869548 0 0 0 1.145891,-0.662363 l 1.692339,0.682233 a 0.33118196,0.33118196 0 0 0 0.41398,-0.145719 l 1.357846,-2.354704 a 0.33118196,0.33118196 0 0 0 -0.08279,-0.433848 z m -5.043898,1.715523 a 2.3778864,2.3778864 0 1 1 2.374573,-2.377887 2.3745748,2.3745748 0 0 1 -2.374573,2.377887 z m -1.9475,6.393928 v 5.452013 c 0,1.29824 -0.949985,2.343395 -2.130012,2.343395 -1.180024,0 -2.130011,-1.045155 -2.130011,-2.343395 v -5.452013 m 12.415034,0 v 5.452013 c 0,1.29824 -0.949985,2.343395 -2.130013,2.343395 -1.180025,0 -2.13001,-1.045155 -2.13001,-2.343395 V 35.704837 M 9.1557096,17.661935 c 1.1800264,0 2.1300124,1.045152 2.1300124,2.343394 v 9.690233 c 0,1.298239 -0.949986,2.343393 -2.1300124,2.343393 -1.1800266,0 -2.1300117,-1.045154 -2.1300117,-2.343393 v -9.690233 c 0,-1.298242 0.9499852,-2.343394 2.1300117,-2.343394 z m 29.6885824,-2.32e-4 c 1.180026,0 2.13001,1.045153 2.13001,2.343394 v 9.690233 c 0,1.298238 -0.949984,2.343392 -2.13001,2.343392 -1.180026,0 -2.130012,-1.045154 -2.130012,-2.343392 v -9.690233 c 0,-1.298241 0.949986,-2.343394 2.130012,-2.343394 z m -12.896369,18.042411 -3.895847,1e-6 m -4.260166,-1e-6 h -2.575874 c -1.038591,0 -1.874715,-0.836123 -1.874715,-1.874715 V 18.066237 H 34.65868 v 0 15.763162 c 0,1.038592 -0.836125,1.874715 -1.874715,1.874715 l -2.575874,-10e-7 M 20.145738,11.552307 a 1.1606009,1.1606009 0 0 1 -1.160602,1.160601 1.1606009,1.1606009 0 0 1 -1.160601,-1.160601 1.1606009,1.1606009 0 0 1 1.160601,-1.1606 1.1606009,1.1606009 0 0 1 1.160602,1.1606 z m 10.029728,0 a 1.1606009,1.1606009 0 0 1 -1.160601,1.160601 1.1606009,1.1606009 0 0 1 -1.160601,-1.160601 1.1606009,1.1606009 0 0 1 1.160601,-1.1606 1.1606009,1.1606009 0 0 1 1.160601,1.1606 z M 17.357563,4.4997552 19.102179,7.5727196 M 30.642437,4.4997552 28.897821,7.5727196 M 13.341428,16.036701 c 0.07428,-5.291841 4.82446,-9.5463341 10.658573,-9.5463341 5.834112,1e-7 10.584293,4.2544931 10.658571,9.5463351 z" /></svg>
