<?xml version="1.0" encoding="UTF-8" standalone="no"?>
<!-- Created with Inkscape (http://www.inkscape.org/) -->

<svg
   width="48"
   height="48"
   viewBox="0 0 48 48"
   version="1.1"
   id="svg990"
   inkscape:version="1.2.2 (b0a8486541, 2022-12-01)"
   xml:space="preserve"
   sodipodi:docname="evoke.svg"
   xmlns:inkscape="http://www.inkscape.org/namespaces/inkscape"
   xmlns:sodipodi="http://sodipodi.sourceforge.net/DTD/sodipodi-0.dtd"
   xmlns="http://www.w3.org/2000/svg"
   xmlns:svg="http://www.w3.org/2000/svg"><sodipodi:namedview
     id="namedview992"
     pagecolor="#858585"
     bordercolor="#000000"
     borderopacity="0.25"
     inkscape:showpageshadow="2"
     inkscape:pageopacity="0"
     inkscape:pagecheckerboard="0"
     inkscape:deskcolor="#d1d1d1"
     inkscape:document-units="px"
     showgrid="false"
     inkscape:zoom="11"
     inkscape:cx="24"
     inkscape:cy="24"
     inkscape:window-width="1366"
     inkscape:window-height="737"
     inkscape:window-x="0"
     inkscape:window-y="0"
     inkscape:window-maximized="1"
     inkscape:current-layer="svg990" /><defs
     id="defs987"><style
       id="style1174">.a{fill:none;stroke:#fff;stroke-linecap:round;stroke-linejoin:round;}</style></defs><path
     id="path4595"
     style="fill:none;stroke:#fff;stroke-width:1;stroke-linecap:round;stroke-linejoin:round;stroke-dasharray:none;stroke-opacity:1;stop-color:#000000"
     d="m 18.62744,17.928721 c -1.286872,-3.673173 1.861995,-8.2126209 5.021766,-8.1291449 6.838591,0.18066 10.186678,10.0027369 6.679338,15.3213659 m -12.02674,-0.221905 c -2.623415,5.631563 -1.223299,8.261645 3.306001,3.415471 m -1.634601,-8.324044 c -0.650923,-0.622839 -1.087601,-1.32486 -1.345764,-2.061743 8.10663,-3.921686 11.793439,8.701425 2.980365,10.385787 m -9.06613,5.857285 C 10.043623,37.625391 12.91987,48.952564 23.486024,40.3308 28.767509,36.021216 35.456742,28.322313 36.162538,20.512132 36.6522,15.093677 36.126789,7.8109592 29.97539,5.4086922 21.225257,1.9915599 15.260803,8.9042071 13.539895,13.639512" /></svg>
