<?xml version="1.0" encoding="UTF-8" standalone="no"?>
<!-- Created with Inkscape (http://www.inkscape.org/) -->

<svg
   width="48"
   height="48"
   viewBox="0 0 48 48"
   version="1.1"
   id="svg990"
   inkscape:version="1.2.2 (b0a8486541, 2022-12-01)"
   xml:space="preserve"
   sodipodi:docname="marriott_bonvoy.svg"
   xmlns:inkscape="http://www.inkscape.org/namespaces/inkscape"
   xmlns:sodipodi="http://sodipodi.sourceforge.net/DTD/sodipodi-0.dtd"
   xmlns="http://www.w3.org/2000/svg"
   xmlns:svg="http://www.w3.org/2000/svg"><sodipodi:namedview
     id="namedview992"
     pagecolor="#858585"
     bordercolor="#000000"
     borderopacity="0.25"
     inkscape:showpageshadow="2"
     inkscape:pageopacity="0"
     inkscape:pagecheckerboard="0"
     inkscape:deskcolor="#d1d1d1"
     inkscape:document-units="px"
     showgrid="false"
     inkscape:zoom="11.645833"
     inkscape:cx="15.627907"
     inkscape:cy="24.042934"
     inkscape:window-width="1366"
     inkscape:window-height="737"
     inkscape:window-x="0"
     inkscape:window-y="0"
     inkscape:window-maximized="1"
     inkscape:current-layer="svg990" /><defs
     id="defs987"><style
   id="style1174">.a{fill:none;stroke:#fff;stroke-linecap:round;stroke-linejoin:round;}</style>
		
		
	
		
	
		
	
		
		
	</defs><path
     id="path6855"
     style="fill:none;stroke:#fff;stroke-width:1;stroke-linecap:round;stroke-linejoin:round;stroke-dasharray:none;stroke-opacity:1;stop-color:#000000"
     d="m 21.045103,33.572099 h 6.009793 m -3.038117,-2.069922 v 0 c -0.996602,0 -1.727443,-0.797282 -1.727443,-1.727444 V 27.98085 c 0,-0.996603 0.797281,-1.793884 1.727443,-1.793884 v 0 c 0.996603,0 1.793884,0.797281 1.793884,1.793884 v 1.727443 c 0,0.996602 -0.797281,1.793884 -1.793884,1.793884 z M 24,21.813033 v 0 c -1.5,0 -2.6,-1.2 -2.6,-2.6 v -2.7 c 0,-1.5 1.2,-2.7 2.6,-2.7 v 0 c 1.5,0 2.7,1.2 2.7,2.7 v 2.6 c 0,1.5 -1.2,2.7 -2.7,2.7 z m -9.202016,-3.999999 h -3.399998 m 3.200004,-10e-7 c 1.1,0 2,0.9 2,2 0,1.1 -0.9,2 -2,2 h -3.3 v -8 h 3.3 c 1.1,0 2,0.9 2,2 0,1.1 -0.9,2 -2,2 z m 1.9,8.373989 -2.6,8 -2.6,-8 m 22.854022,7.999944 v -4 m 2.599998,-4 -2.6,4 -2.6,-4 m -0.05,-4.373933 v -8 l 5.3,8 v -8 M 40.5,5.5 h -33 a 2,2 0 0 0 -2,2 v 33 a 2,2 0 0 0 2,2 h 33 a 2,2 0 0 0 2,-2 v -33 a 2,2 0 0 0 -2,-2 z" /></svg>
