<?xml version="1.0" encoding="UTF-8" standalone="no"?>
<svg
   viewBox="0 0 48 48"
   version="1.1"
   id="svg1244"
   sodipodi:docname="pc_creator_2.svg"
   inkscape:version="1.2.2 (b0a8486541, 2022-12-01)"
   xmlns:inkscape="http://www.inkscape.org/namespaces/inkscape"
   xmlns:sodipodi="http://sodipodi.sourceforge.net/DTD/sodipodi-0.dtd"
   xmlns="http://www.w3.org/2000/svg"
   xmlns:svg="http://www.w3.org/2000/svg">
  <sodipodi:namedview
     id="namedview1246"
     pagecolor="#ffffff"
     bordercolor="#000000"
     borderopacity="0.25"
     inkscape:showpageshadow="2"
     inkscape:pageopacity="0.0"
     inkscape:pagecheckerboard="0"
     inkscape:deskcolor="#d1d1d1"
     showgrid="false"
     inkscape:zoom="11.645833"
     inkscape:cx="22.583185"
     inkscape:cy="24.042934"
     inkscape:window-width="1366"
     inkscape:window-height="737"
     inkscape:window-x="0"
     inkscape:window-y="0"
     inkscape:window-maximized="1"
     inkscape:current-layer="svg1244" />
  <defs
     id="defs1210">
    <style
       id="style1208">.a,.b{fill:none;stroke:#fff;stroke-linecap:round;}.a{stroke-linejoin:round;}</style>
  </defs>
  <path
     id="path1369"
     style="fill:none;fill-opacity:1;stroke:#fff;stroke-opacity:1"
     d="m 35.84,37.121 c 0,-1.6 1.5,-2.9 3.2,-2.6 1.1,0.2 2,1.2 2.1,2.3 0.1,0.8 -0.2,1.7 -0.8,2.2 -1.1,0.9 -4.5,3.5 -4.5,3.5 h 5.3 M 45.5,38.5 c 0,3.866 -3.134,7 -7,7 -3.866,0 -7,-3.134 -7,-7 0,-3.866 3.134,-7 7,-7 3.866,0 7,3.134 7,7 z M 22.8652,24.59 16.7359,19.8888 m 6.6572,1.3794 -7.2176,1.8624 m 5.6159,-4.8663 -4.2576,7.5894 m 3.0604,0.7719 -1.78,-8.6926 m 4.5834,14.0982 -6.7906,0.8667 m 6.3036,2.3031 c -0.1434,0 -5.9186,-5.34 -5.9186,-5.34 m 4.9073,-0.7675 -3.923,6.5265 m 1.2293,-7.2784 1.47,8.378 M 22.7963,14.5 17.1071,10.82 m 6.2098,0.346 -6.7169,2.5331 m 5.2549,-5.113 -3.937,7.6714 m 1.0501,-7.6705 1.6705,7.9768 m 13.2356,16.319 0.05448,0.316379 M 32.481715,34.925243 31.466,34.7519 M 15.3836,37.5546 13.7214,40.527 25.1573,43.5 25.0291,39.3717 M 25.7984,39.355 34.1461,32.39 V 14.0246 L 25.5492,4.5005 M 25.7984,39.355 14.2762,37.2667 V 7.5117 L 25.55,4.5 Z" />
</svg>
