<?xml version="1.0" encoding="UTF-8" standalone="no"?>
<!-- Created with Inkscape (http://www.inkscape.org/) -->

<svg
   width="48"
   height="48"
   viewBox="0 0 48 48"
   version="1.1"
   id="svg990"
   inkscape:version="1.2.2 (b0a8486541, 2022-12-01)"
   xml:space="preserve"
   sodipodi:docname="swipetimes.svg"
   xmlns:inkscape="http://www.inkscape.org/namespaces/inkscape"
   xmlns:sodipodi="http://sodipodi.sourceforge.net/DTD/sodipodi-0.dtd"
   xmlns="http://www.w3.org/2000/svg"
   xmlns:svg="http://www.w3.org/2000/svg"><sodipodi:namedview
     id="namedview992"
     pagecolor="#858585"
     bordercolor="#000000"
     borderopacity="0.25"
     inkscape:showpageshadow="2"
     inkscape:pageopacity="0"
     inkscape:pagecheckerboard="0"
     inkscape:deskcolor="#d1d1d1"
     inkscape:document-units="px"
     showgrid="false"
     inkscape:zoom="11"
     inkscape:cx="24"
     inkscape:cy="24"
     inkscape:window-width="1366"
     inkscape:window-height="737"
     inkscape:window-x="0"
     inkscape:window-y="0"
     inkscape:window-maximized="1"
     inkscape:current-layer="svg990" /><defs
     id="defs987"><style
       id="style1174">.a{fill:none;stroke:#fff;stroke-linecap:round;stroke-linejoin:round;}</style></defs><path
     id="path15633"
     style="fill:none;stroke:#fff;stroke-width:1;stroke-linecap:round;stroke-linejoin:round;stroke-dasharray:none;stroke-opacity:1;stop-color:#000000"
     d="m 20.914436,27.683104 c 2.433065,2.859809 4.053571,5.999496 -2.598943,10.469587 -1.786782,1.200607 -0.58526,1.613512 0.638037,1.350601 6.828249,-1.467527 15.677,-6.132803 12.116561,-13.731499 L 20.914436,27.683104 C 20.346338,27.015366 19.733941,26.362886 19.172211,25.712293 18.066888,24.432106 17.295802,23.219172 16.807917,22.074427 M 26.911704,20.255608 C 24.595004,17.458965 23.24141,14.370258 29.710207,10.023615 31.496988,8.8230047 30.295468,8.4101029 29.07217,8.6730144 22.343355,10.119172 13.65245,14.670625 16.807917,22.074427 l 10.103787,-1.818819 c 0.622085,0.75096 1.313616,1.480863 1.941783,2.208405 0.999687,1.157837 1.725968,2.26066 2.216604,3.30778 M 45.5,24 A 21.5,21.5 0 0 1 24,45.5 21.5,21.5 0 0 1 2.5,24 21.5,21.5 0 0 1 24,2.5 21.5,21.5 0 0 1 45.5,24 Z" /></svg>
