<?xml version="1.0" encoding="UTF-8" standalone="no"?>
<!-- Created with Inkscape (http://www.inkscape.org/) -->

<svg
   width="48"
   height="48"
   viewBox="0 0 48 48"
   version="1.1"
   id="svg990"
   inkscape:version="1.2.2 (b0a8486541, 2022-12-01)"
   xml:space="preserve"
   sodipodi:docname="walk_band.svg"
   xmlns:inkscape="http://www.inkscape.org/namespaces/inkscape"
   xmlns:sodipodi="http://sodipodi.sourceforge.net/DTD/sodipodi-0.dtd"
   xmlns="http://www.w3.org/2000/svg"
   xmlns:svg="http://www.w3.org/2000/svg"><sodipodi:namedview
     id="namedview992"
     pagecolor="#858585"
     bordercolor="#000000"
     borderopacity="0.25"
     inkscape:showpageshadow="2"
     inkscape:pageopacity="0"
     inkscape:pagecheckerboard="0"
     inkscape:deskcolor="#d1d1d1"
     inkscape:document-units="px"
     showgrid="false"
     inkscape:zoom="11.645833"
     inkscape:cx="7.1270127"
     inkscape:cy="10.13238"
     inkscape:window-width="1366"
     inkscape:window-height="737"
     inkscape:window-x="0"
     inkscape:window-y="0"
     inkscape:window-maximized="1"
     inkscape:current-layer="svg990" /><defs
     id="defs987"><style
       id="style1174">.a{fill:none;stroke:#fff;stroke-linecap:round;stroke-linejoin:round;}</style></defs><path
     id="path2700"
     style="display:inline;fill:none;stroke:#fff;stroke-width:1;stroke-linecap:round;stroke-linejoin:round;stroke-dasharray:none;stroke-opacity:1;stop-color:#000000"
     d="m 26.509423,40.838184 a 14.891562,14.891562 0 0 1 -4.073602,0.568002 14.891562,14.891562 0 0 1 -11.098862,-4.963124 m 0,0 A 14.891562,14.891562 0 0 1 7.5442584,26.514624 14.891562,14.891562 0 0 1 22.435821,11.623061 14.891562,14.891562 0 0 1 31.804337,14.93924 m 2.009965,1.968679 a 14.891562,14.891562 0 0 1 3.513081,9.606705 14.891562,14.891562 0 0 1 -10.81796,14.32356 M 34.759754,8.6591077 36.116479,9.724924 m -2.369861,-0.2009057 1.356725,1.0658167 m 1.581926,-3.7287005 1.356726,1.0658162 m -2.369862,-0.2009056 1.356726,1.0658162 m 1.717634,-3.6833684 1.356725,1.0658162 M 37.733359,5.9734035 39.090083,7.0392196 M 11.33512,36.439654 c 1.550835,-1.037762 2.960443,-2.324186 3.07632,-5.591194 0.0991,-2.793839 1.919238,-5.756677 4.252759,-5.893943 0.712997,-0.04194 1.479676,0.426982 0.535385,2.458748 -1.119053,2.407791 1.757099,4.746897 3.307338,2.284532 L 33.982424,11.470372 c -0.264847,-0.55204 -0.841222,-1.02674 0.172585,-1.8726757 l 5.769302,-4.8139986 c 0.572291,-0.4775292 1.959805,-0.3604451 2.389179,0.4775908 0.690683,1.3480529 -0.146808,2.9292717 -2.15391,2.80203 l -1.18607,3.0001035 c -0.171402,0.433554 -0.367687,0.776119 -0.899224,0.719978 -1.010666,-0.106748 -1.622348,0.462533 -2.059427,1.230243 l -12.04007,21.147838 c 0.41838,1.976657 2.259639,2.502043 4.531137,0.66917 1.591683,-1.28433 2.151826,-0.03486 1.851391,1.73975 -0.329632,1.947073 -1.760289,2.624075 -3.329788,3.749709 -0.253246,0.181627 -0.430809,0.359534 -0.568223,0.532386" /></svg>
