<?xml version="1.0" encoding="UTF-8" standalone="no"?>
<!-- Created with Inkscape (http://www.inkscape.org/) -->

<svg
   width="48"
   height="48"
   viewBox="0 0 48 48"
   version="1.1"
   id="svg990"
   inkscape:version="1.2.2 (b0a8486541, 2022-12-01)"
   xml:space="preserve"
   sodipodi:docname="xe.svg"
   xmlns:inkscape="http://www.inkscape.org/namespaces/inkscape"
   xmlns:sodipodi="http://sodipodi.sourceforge.net/DTD/sodipodi-0.dtd"
   xmlns="http://www.w3.org/2000/svg"
   xmlns:svg="http://www.w3.org/2000/svg"><sodipodi:namedview
     id="namedview992"
     pagecolor="#858585"
     bordercolor="#000000"
     borderopacity="0.25"
     inkscape:showpageshadow="2"
     inkscape:pageopacity="0"
     inkscape:pagecheckerboard="0"
     inkscape:deskcolor="#d1d1d1"
     inkscape:document-units="px"
     showgrid="false"
     inkscape:zoom="8.2348477"
     inkscape:cx="21.979763"
     inkscape:cy="26.351428"
     inkscape:window-width="1366"
     inkscape:window-height="737"
     inkscape:window-x="0"
     inkscape:window-y="0"
     inkscape:window-maximized="1"
     inkscape:current-layer="svg990" /><defs
     id="defs987"><style
   id="style1174">.a{fill:none;stroke:#fff;stroke-linecap:round;stroke-linejoin:round;}</style>
		
		
	</defs><path
     id="path16024"
     style="fill:none;stroke:#fff;stroke-width:1;stroke-linecap:round;stroke-linejoin:round;stroke-dasharray:none;stroke-opacity:1;stop-color:#000000"
     d="M 18.321611,11.903093 A 15.495119,15.495119 0 0 1 28.00477,8.5048805 15.495119,15.495119 0 0 1 43.499889,24.000001 v 0 A 15.495119,15.495119 0 0 1 28.00477,39.49512 15.495119,15.495119 0 0 1 18.321611,36.096907 M 32.0513,28.815133 c -0.89148,1.782961 -2.9716,2.9716 -5.051719,2.9716 v 0 c -3.268759,0 -5.9432,-2.674441 -5.9432,-5.943199 v -3.863079 c 0,-3.26876 2.674441,-5.943199 5.9432,-5.943199 v 0 c 3.268759,0 5.9432,2.674439 5.9432,5.943199 v 2.08012 h -11.8864 M 16.386508,31.786731 4.5001105,15.740099 m 11.8863975,0 -11.8863975,16.046632" /></svg>
