<?xml version="1.0" encoding="UTF-8" standalone="no"?>
<!-- Created with Inkscape (http://www.inkscape.org/) -->

<svg
   width="48"
   height="48"
   viewBox="0 0 48 48"
   version="1.1"
   id="svg990"
   inkscape:version="1.2.2 (b0a8486541, 2022-12-01)"
   xml:space="preserve"
   sodipodi:docname="_10000_sentences.svg"
   xmlns:inkscape="http://www.inkscape.org/namespaces/inkscape"
   xmlns:sodipodi="http://sodipodi.sourceforge.net/DTD/sodipodi-0.dtd"
   xmlns="http://www.w3.org/2000/svg"
   xmlns:svg="http://www.w3.org/2000/svg"><sodipodi:namedview
     id="namedview992"
     pagecolor="#858585"
     bordercolor="#000000"
     borderopacity="0.25"
     inkscape:showpageshadow="2"
     inkscape:pageopacity="0"
     inkscape:pagecheckerboard="0"
     inkscape:deskcolor="#d1d1d1"
     inkscape:document-units="px"
     showgrid="false"
     inkscape:zoom="8.2348477"
     inkscape:cx="13.114997"
     inkscape:cy="25.379947"
     inkscape:window-width="1366"
     inkscape:window-height="737"
     inkscape:window-x="0"
     inkscape:window-y="0"
     inkscape:window-maximized="1"
     inkscape:current-layer="svg990" /><defs
     id="defs987"><style
   id="style1174">.a{fill:none;stroke:#fff;stroke-linecap:round;stroke-linejoin:round;}</style>
		
	
		
	
		
		
	
		
	
		
		
	
		
		
	
			
		
				
			</defs><path
     id="polyline5626"
     style="fill:none;stroke:#fff;stroke-width:1;stroke-linecap:round;stroke-linejoin:round;stroke-miterlimit:10;stroke-dasharray:none"
     d="m 32.975045,39.175283 4.170111,-9.282346 2.307622,9.910936 m -0.765331,-3.343632 -4.318483,-0.419059 m -9.360305,2.361052 0.931245,-9.59664 2.159246,0.20953 c 2.279202,0.221171 4.012281,2.326747 3.79111,4.605951 l -0.116405,1.199579 c -0.221171,2.279202 -2.326748,4.012281 -4.605951,3.791111 z M 9.5717984,32.66289 c 0.7761466,0.814497 1.6672866,1.188216 2.9608846,1.101993 l 1.724797,-0.11496 c 1.581065,-0.105381 2.78844,-1.485202 2.683057,-3.066267 v 0 C 16.835155,29.002588 15.455334,27.795212 13.87427,27.900595 L 12.005739,28.02514 C 10.424676,28.130521 9.0448549,26.923146 8.9394723,25.342081 v 0 C 8.8340908,23.761017 10.041465,22.381197 11.622529,22.275814 l 1.724798,-0.11496 c 1.293598,-0.08621 2.175157,0.143762 2.960884,1.101993 m 2.879377,-1.530489 0.76642,11.498653 m 9.438372,-12.669926 -4.614479,-1.303312 2.606622,-9.228957 4.614479,1.303311 m -5.917791,3.311169 2.999411,0.847151 m 3.277453,4.787188 c 0.381314,0.855086 0.975737,1.396668 2.013995,1.689914 l 1.384344,0.390992 c 1.268981,0.358412 2.600484,-0.386601 2.958895,-1.655583 v 0 c 0.35841,-1.268981 -0.386603,-2.600485 -1.655585,-2.958895 l -1.499705,-0.423576 c -1.268982,-0.358411 -2.013995,-1.689913 -1.655584,-2.958894 v 0 c 0.35841,-1.268982 1.689913,-2.013995 2.958895,-1.655585 l 1.384343,0.390994 c 1.038258,0.293244 1.665264,0.719464 2.013994,1.689912 m -21.040266,2.901482 1.303311,-4.614479 m 4.302722,-3.7673275 -4.302722,3.7673265 -1.6961,-5.4616311 M 40.5,5.5000001 H 7.5 A 2,2 0 0 0 5.4999997,7.5000004 V 40.5 A 2,2 0 0 0 7.5,42.5 h 33 a 2,2 0 0 0 2,-2 V 7.5000004 a 2,2 0 0 0 -2,-2.0000003 z" /></svg>
