<?xml version="1.0" encoding="UTF-8" standalone="no"?>
<!-- Created with Inkscape (http://www.inkscape.org/) -->

<svg
   width="48"
   height="48"
   viewBox="0 0 48 48"
   version="1.1"
   id="svg990"
   inkscape:version="1.2.2 (b0a8486541, 2022-12-01)"
   xml:space="preserve"
   sodipodi:docname="abslmf_investor_app.svg"
   xmlns:inkscape="http://www.inkscape.org/namespaces/inkscape"
   xmlns:sodipodi="http://sodipodi.sourceforge.net/DTD/sodipodi-0.dtd"
   xmlns="http://www.w3.org/2000/svg"
   xmlns:svg="http://www.w3.org/2000/svg"><sodipodi:namedview
     id="namedview992"
     pagecolor="#858585"
     bordercolor="#000000"
     borderopacity="0.25"
     inkscape:showpageshadow="2"
     inkscape:pageopacity="0"
     inkscape:pagecheckerboard="0"
     inkscape:deskcolor="#d1d1d1"
     inkscape:document-units="px"
     showgrid="false"
     inkscape:zoom="8.2348477"
     inkscape:cx="8.9862014"
     inkscape:cy="24.408466"
     inkscape:window-width="1366"
     inkscape:window-height="737"
     inkscape:window-x="0"
     inkscape:window-y="0"
     inkscape:window-maximized="1"
     inkscape:current-layer="svg990" /><defs
     id="defs987"><style
       id="style1174">.a{fill:none;stroke:#fff;stroke-linecap:round;stroke-linejoin:round;}</style></defs><path
     id="path16970"
     style="fill:none;stroke:#fff;stroke-width:1;stroke-linecap:round;stroke-linejoin:round;stroke-dasharray:none;stroke-opacity:1;stop-color:#000000"
     d="m 12.753749,36.247994 a 11.255741,11.255741 0 0 1 -0.0095,-0.462058 11.255741,11.255741 0 0 1 0.930829,-4.481949 m 0,0 a 11.255741,11.255741 0 0 1 4.354402,-5.059784 m 0,0 a 11.255741,11.255741 0 0 1 5.970511,-1.714007 11.255741,11.255741 0 0 1 5.971968,1.714918 m 0,0 a 11.255741,11.255741 0 0 1 4.352645,5.058134 m 0,0 a 11.255741,11.255741 0 0 1 0.931149,4.482688 v 0 a 11.255741,11.255741 0 0 1 -0.0095,0.461984 M 4.50024,26.908388 V 11.752006 h 4.874942 m 0,0 H 24 m 14.624818,0 H 24 l 19.49976,24.495066 m 0,0 v -9.338684 m 0,0 V 11.752006 H 38.624818 L 24,36.247072 m 19.49976,0 H 24 L 9.375182,11.752006 M 4.50024,36.247072 V 26.908388 L 24,36.247072 M 24,11.752006 4.50024,36.247072 H 24 l 19.49976,-9.338684" /></svg>
