<?xml version="1.0" encoding="UTF-8" standalone="no"?>
<!-- Created with Inkscape (http://www.inkscape.org/) -->

<svg
   width="48"
   height="48"
   viewBox="0 0 48 48"
   version="1.1"
   id="svg990"
   inkscape:version="1.2.2 (b0a8486541, 2022-12-01)"
   xml:space="preserve"
   sodipodi:docname="alchemy_2.svg"
   xmlns:inkscape="http://www.inkscape.org/namespaces/inkscape"
   xmlns:sodipodi="http://sodipodi.sourceforge.net/DTD/sodipodi-0.dtd"
   xmlns="http://www.w3.org/2000/svg"
   xmlns:svg="http://www.w3.org/2000/svg"><sodipodi:namedview
     id="namedview992"
     pagecolor="#858585"
     bordercolor="#000000"
     borderopacity="0.25"
     inkscape:showpageshadow="2"
     inkscape:pageopacity="0"
     inkscape:pagecheckerboard="0"
     inkscape:deskcolor="#d1d1d1"
     inkscape:document-units="px"
     showgrid="false"
     inkscape:zoom="8.2348477"
     inkscape:cx="7.2861093"
     inkscape:cy="27.444345"
     inkscape:window-width="1366"
     inkscape:window-height="737"
     inkscape:window-x="0"
     inkscape:window-y="0"
     inkscape:window-maximized="1"
     inkscape:current-layer="svg990" /><defs
     id="defs987"><style
       id="style1174">.a{fill:none;stroke:#fff;stroke-linecap:round;stroke-linejoin:round;}</style></defs><path
     id="path10298"
     style="fill:none;stroke:#ffffff;stroke-width:0.999943;stroke-linecap:round;stroke-linejoin:round;stop-color:#000000"
     d="m 11.976412,43.500028 c -5.1500714,0 -4.3421767,-5.565794 -3.4331606,-8.222753 L 17.853128,8.0654831 C 15.906539,7.1870186 15.68372,4.3621629 17.963986,4.5048967 h 12.072028 c 2.280266,-0.1427338 2.057447,2.6821219 0.110859,3.5605864 l 9.309875,27.2117919 c 0.909017,2.656959 1.716912,8.222753 -3.433159,8.222753 z M 30.837754,22.766167 a 2.8739436,2.8739436 0 0 1 -2.873944,2.873943 2.8739436,2.8739436 0 0 1 -2.873944,-2.873943 2.8739436,2.8739436 0 0 1 2.873944,-2.873944 2.8739436,2.8739436 0 0 1 2.873944,2.873944 z M 27.573565,11.846795 c 1.211457,0 2.193538,0.98208 2.193538,2.193537 v 0 c 0,1.211458 -0.98208,2.193537 -2.193538,2.193537 -0.186853,0 -0.372941,-0.02387 -0.552576,-0.07288 0.0047,0.05637 0.0065,0.114681 0.0065,0.173 v 0 c 0,1.587235 -1.286708,2.873943 -2.873943,2.873943 -1.587235,0 -2.873944,-1.286708 -2.873944,-2.873943 0,-1.587236 1.286708,-2.873944 2.873944,-2.873944 0.431677,0 0.857809,0.09724 1.246498,0.285543 0.146762,-1.087027 1.075587,-1.898794 2.173532,-1.898794 z m -5.981226,8.797582 a 2.4773011,2.4773011 0 0 1 -2.477301,2.477301 2.4773011,2.4773011 0 0 1 -2.477301,-2.477301 2.4773011,2.4773011 0 0 1 2.477301,-2.477301 2.4773011,2.4773011 0 0 1 2.477301,2.477301 z m 12.291544,3.979591 a 1.3270974,1.3270974 0 0 1 -1.327097,1.327098 1.3270974,1.3270974 0 0 1 -1.327098,-1.327098 1.3270974,1.3270974 0 0 1 1.327098,-1.327097 1.3270974,1.3270974 0 0 1 1.327097,1.327097 z M 24.003232,9.7872133 A 1.3270974,1.3270974 0 0 1 22.676134,11.114311 1.3270974,1.3270974 0 0 1 21.349037,9.7872133 1.3270974,1.3270974 0 0 1 22.676134,8.4601159 1.3270974,1.3270974 0 0 1 24.003232,9.7872133 Z M 22.852944,25.498554 a 1.3270974,1.3270974 0 0 1 -1.327098,1.327098 1.3270974,1.3270974 0 0 1 -1.327097,-1.327098 1.3270974,1.3270974 0 0 1 1.327097,-1.327097 1.3270974,1.3270974 0 0 1 1.327098,1.327097 z m 14.013873,2.209085 h -25.73486" /></svg>
