<?xml version="1.0" encoding="UTF-8" standalone="no"?>
<!-- Created with Inkscape (http://www.inkscape.org/) -->

<svg
   width="48"
   height="48"
   viewBox="0 0 48 48"
   version="1.1"
   id="svg990"
   inkscape:version="1.2.2 (b0a8486541, 2022-12-01)"
   xml:space="preserve"
   sodipodi:docname="deemo.svg"
   xmlns:inkscape="http://www.inkscape.org/namespaces/inkscape"
   xmlns:sodipodi="http://sodipodi.sourceforge.net/DTD/sodipodi-0.dtd"
   xmlns="http://www.w3.org/2000/svg"
   xmlns:svg="http://www.w3.org/2000/svg"><sodipodi:namedview
     id="namedview992"
     pagecolor="#858585"
     bordercolor="#000000"
     borderopacity="0.25"
     inkscape:showpageshadow="2"
     inkscape:pageopacity="0"
     inkscape:pagecheckerboard="0"
     inkscape:deskcolor="#d1d1d1"
     inkscape:document-units="px"
     showgrid="false"
     inkscape:zoom="7.7781746"
     inkscape:cx="-7.7138922"
     inkscape:cy="26.355798"
     inkscape:window-width="1366"
     inkscape:window-height="737"
     inkscape:window-x="0"
     inkscape:window-y="0"
     inkscape:window-maximized="1"
     inkscape:current-layer="svg990" /><defs
     id="defs987"><style
       id="style1174">.a{fill:none;stroke:#fff;stroke-linecap:round;stroke-linejoin:round;}</style></defs><path
     id="path30869"
     style="fill:none;stroke:#ffffff;stroke-width:1;stroke-linecap:round;stroke-linejoin:round;stroke-dasharray:none;stroke-opacity:1;stop-color:#000000"
     d="m 29.625216,24.977674 c 1.012915,1.582021 1.548562,3.164067 2.12442,4.920314 0.281945,-1.85368 0.265604,-3.454269 0.317081,-5.147309 m -1.27851,-1.191395 c -0.472986,0.532851 -0.87067,1.28302 -1.446738,1.396808 -0.836247,-1.5708 -0.744504,-2.865669 -0.08987,-4.285737 0.755854,0.442442 1.179552,1.072266 1.558026,1.727602 0.490394,-0.877572 1.107814,-1.379102 1.718447,-1.900722 0.167789,1.277497 0.126446,2.963166 -0.358501,4.343674 -0.533567,-0.003 -0.956311,-0.649015 -1.381368,-1.281625 z M 38.545134,13.46204 c 0,0.49536 -0.350455,0.896929 -0.782762,0.896929 -0.432307,0 -0.782762,-0.401569 -0.782762,-0.896929 0,-0.495361 0.350454,-0.89693 0.782762,-0.89693 0.432308,0 0.782762,0.401569 0.782762,0.89693 z m -6.171313,0 c 0,0.495361 -0.350455,0.89693 -0.782763,0.896929 -0.432307,0 -0.782762,-0.401569 -0.782762,-0.896929 0,-0.495361 0.350454,-0.89693 0.782762,-0.89693 0.432308,-1e-6 0.782763,0.401569 0.782763,0.89693 z m 3.208058,24.265864 c 0.195596,-1.452891 0.170725,-2.456558 0.676511,-4.278643 0.512946,-1.847891 1.083322,-3.762005 0.554095,-5.882184 -2.983577,-1.59651 -4.144361,-3.108358 -3.770966,-7.07747 3.17343,-0.318878 7.281438,-2.370668 7.173023,-7.988285 C 40.128432,8.0394124 37.676369,3.626341 31.513436,3.2467629 27.091764,2.97443 22.65629,6.2781195 22.615115,11.126496 c -0.01467,1.726911 0.23916,3.509133 1.069308,5.05633 m 2.711212,2.813127 c 0.684933,0.410219 1.485633,0.756317 2.419273,1.022089 -0.232339,1.179451 -0.556065,2.137304 -0.972666,2.869955 m -16.992375,8.504906 c -0.828898,0.169019 -1.7291079,0.242233 -2.6835568,0.193663 l 4.2803048,-3.734387 c -0.802185,0.356768 -1.905297,0.389936 -3.0599591,-0.220264 0.04072,-0.01573 0.081112,-0.0316 0.1211768,-0.04762 M 10.426271,21.213021 C 9.8740878,20.901056 9.2907691,20.629376 8.7148697,20.417165 c 1.1446974,-3.494039 4.3184473,-5.84427 8.9498583,-5.896155 5.647279,-0.06327 8.519489,3.395142 9.393049,5.848615 0.77555,2.178203 1.518893,5.449123 2.274534,7.490338 1.13543,3.067137 2.037947,2.951586 3.698874,4.003489 -1.230226,0.668268 -2.332741,0.765117 -3.609372,0.768996 0.948442,0.851705 1.800674,1.560935 3.112653,2.036838 -1.050852,0.986184 -2.175056,1.184383 -3.206409,1.378706 0.410132,1.072272 1.12208,2.07529 2.061671,3.147561 -2.232966,-0.25463 -4.534624,-1.14113 -5.900298,-1.98883 M 9.5078327,27.584296 c 2.1528563,-0.860554 3.3619603,-2.132501 3.9073773,-3.484743 -0.349449,-1.010856 -1.565784,-2.082496 -2.988939,-2.886532 0.646215,1.709205 -0.177118,2.673393 -1.7106428,2.502331 0.0575,1.37487 0.2837615,2.680115 0.7922045,3.868944 m 13.4374163,11.717132 -3.035822,-3.335767 -0.463756,4.639718 c -0.611238,-0.797997 -1.207974,-1.677585 -1.684972,-2.641186 m 0,0 c -0.638122,-1.289097 -1.06195,-2.728552 -1.01952,-4.324164 -0.501704,0.520658 -1.244878,1.142943 -2.105077,1.689529 m -0.702514,-2.925695 c -1.326509,1.555172 -3.36664,2.679322 -5.4784068,3.41946 1.2464727,-1.199887 1.9666258,-2.692632 2.3946858,-4.43042 1.372592,-0.279882 2.54964,-0.822468 3.453621,-1.509786 -0.06597,2.118001 -0.534342,4.308477 -1.333217,6.317579 0.579804,-0.236214 1.144324,-0.539764 1.665831,-0.871138 m 28.416419,-2.648017 c 2.053684,0.253133 2.189694,-0.968832 2.447516,-1.680445 -1.484794,-0.556486 -1.753647,0.364415 -2.184261,0.886066 m -3.68213,4.274982 c -1.56147,-0.916367 -0.477518,-2.098246 -0.552547,-3.371116 0.93258,0.235931 1.346792,1.277728 1.355526,2.270954 m -0.270649,2.190617 c 1.601946,0.615404 2.126715,-0.432131 3.162839,-1.376147 -0.803761,-0.333509 -1.555841,-0.249539 -2.274097,0.107605 m -4.357562,4.830225 c 1.507187,1.889606 3.796852,1.808851 5.067445,0.02926 -1.106066,-0.493583 -1.698321,-1.885476 -4.173734,-0.800164 m -2.662695,0.547545 c -0.206832,-2.060725 0.964212,-3.415843 1.944253,-4.46821 -0.01,0.83408 0.677451,1.596864 0.513038,2.522854 M 4.5865679,30.907755 c -1.637816,0.432642 -1.964035,-1.087298 -2.0866014,-2.05531 0.517126,0.202542 1.0342553,0.157621 1.5513814,0.743087 m 2.301246,2.925945 c -0.6342843,-1.3341 0.2435351,-2.784448 0.9483948,-3.316396 0.648782,0.371059 0.7129856,3.745636 -0.9483948,3.316396 v 0 m 1.4216734,4.522635 C 5.837982,37.223099 4.9051215,36.113024 3.9936263,34.657005 4.5367762,34.428672 5.4383346,34.33762 6.2010693,34.568865 m 6.1024977,5.400927 c -0.317009,-1.068884 0.239369,-2.216806 0.759534,-2.984133 0.418669,1.050416 0.906804,2.581207 0.342876,3.761821 m -1.455699,0.508283 c -2.0577033,1.16602 -4.501873,1.050791 -5.489176,-0.186819 1.4308378,-1.431749 2.8591443,-1.47209 4.0046,-1.058929 M 3.5676138,24.257398 c 0,-11.635819 9.1693092,-21.0685553 20.4801772,-21.0685554 1.474584,0 2.912773,0.1603189 4.298989,0.4649369 m 11.770015,7.5400325 c 2.762114,3.590708 4.411174,8.129045 4.411174,13.063586 v 0 c 0,4.269823 -1.25302,8.330532 -3.467626,11.729805 m -0.891998,1.265216 c -0.76399,1.003266 -1.617535,1.936893 -2.551839,2.787233 m -0.908384,0.779728 c -1.4099,1.140662 -2.979797,2.101672 -4.683858,2.842958 m -15.952943,0 c -1.482386,-0.644855 -2.863244,-1.455984 -4.125566,-2.40701 m -1.488526,-1.23559 C 9.4674898,39.116351 8.5687001,38.119369 7.7713579,37.045078 M 6.192772,34.577561 C 4.5055844,31.489346 3.5676138,27.95164 3.5676138,24.257398 4.6745512,30.396229 7.2020626,36.138363 12.316495,39.984103 m 1.088888,0.76383 c 0.821074,0.536713 1.702142,1.028462 2.647125,1.47018 M 44.549629,24.257398 c -0.701348,3.889527 -1.972975,7.619811 -4.111535,10.809377 m -0.789801,1.100748 c -0.677929,0.883375 -1.431151,1.717876 -2.266808,2.49429 m -2.446345,1.93807 c -0.884089,0.5946 -1.83919,1.136204 -2.870407,1.61823 m -9.379171,1.239034 c -2.842241,2.321038 -6.05002,1.399097 -7.294801,-0.643598 3.388148,-2.970464 5.625387,-1.896811 7.294801,0.643598 z m 2.724461,0 c 2.842237,2.321038 6.050019,1.399097 7.294799,-0.643598 -3.388148,-2.970464 -5.625386,-1.896811 -7.294799,0.643598 z M 24.047791,34.99742 c 1.649265,1.233873 1.76517,3.511116 0,4.386784 -1.765168,-0.875668 -1.649264,-3.152911 0,-4.386784 z m 3.619929,6.307582 c 0.612577,-0.933434 0.776379,-2.039107 0.530866,-2.86144 v 0 c -2.213889,-0.102553 -4.257534,1.7107 -4.150795,3.820031 0.10674,-2.109331 -1.936905,-3.922584 -4.150794,-3.820031 -0.245514,0.822333 -0.08171,1.928006 0.530867,2.86144 m 1.765065,1.472877 c 0.527197,0.226251 1.144399,0.363847 1.854862,0.375135 0.710463,-0.01129 1.327665,-0.148884 1.854863,-0.375135"
     sodipodi:nodetypes="cccscccccsssssssssssscsccssscccccccccccsssccccccccccccccccccccccccccccccccccccccccccccscccccccccccsccssccccccccccccccccccccccccccccccsscccccc" /></svg>
