<?xml version="1.0" encoding="UTF-8" standalone="no"?>
<!-- Created with Inkscape (http://www.inkscape.org/) -->

<svg
   width="48"
   height="48"
   viewBox="0 0 48 48"
   version="1.1"
   id="svg990"
   inkscape:version="1.2.2 (b0a8486541, 2022-12-01)"
   xml:space="preserve"
   sodipodi:docname="deemo_alt_2.svg"
   xmlns:inkscape="http://www.inkscape.org/namespaces/inkscape"
   xmlns:sodipodi="http://sodipodi.sourceforge.net/DTD/sodipodi-0.dtd"
   xmlns="http://www.w3.org/2000/svg"
   xmlns:svg="http://www.w3.org/2000/svg"><sodipodi:namedview
     id="namedview992"
     pagecolor="#858585"
     bordercolor="#000000"
     borderopacity="0.25"
     inkscape:showpageshadow="2"
     inkscape:pageopacity="0"
     inkscape:pagecheckerboard="0"
     inkscape:deskcolor="#d1d1d1"
     inkscape:document-units="px"
     showgrid="false"
     inkscape:zoom="8.2348477"
     inkscape:cx="4.3716656"
     inkscape:cy="26.108558"
     inkscape:window-width="1366"
     inkscape:window-height="737"
     inkscape:window-x="0"
     inkscape:window-y="0"
     inkscape:window-maximized="1"
     inkscape:current-layer="svg990" /><defs
     id="defs987"><style
       id="style1174">.a{fill:none;stroke:#fff;stroke-linecap:round;stroke-linejoin:round;}</style></defs><path
     id="path32663"
     style="fill:none;stroke:#ffffff;stroke-width:0.999966;stroke-linecap:round;stroke-linejoin:round;stroke-dasharray:none;stroke-opacity:1;stop-color:#000000"
     d="m 27.096281,34.494442 c 2.419593,1.748897 8.743036,-0.191254 12.932476,-2.74233 1.627348,-1.78592 3.342586,-4.707218 3.471262,-7.830619 -3.243415,-0.259917 -6.600666,0.08244 -9.772659,1.660312 -2.901301,1.939897 -5.946604,5.500235 -6.631079,8.912637 z m -3.031668,-1.02835 c 2.701402,-3.315373 5.053964,-6.630749 6.361115,-9.946122 -1.042627,-3.56686 -3.371655,-7.36771 -6.114637,-10.700582 -3.424262,2.756358 -5.571458,6.520188 -7.244657,9.846453 1.532067,3.850658 3.810421,7.315734 6.998179,10.800251 z M 20.446461,34.82381 C 10.794482,35.147165 6.4426299,31.720629 4.4999769,24.915215 6.6845031,22.691097 19.086595,24.966745 20.446461,34.82381 Z" /></svg>
