<?xml version="1.0" encoding="UTF-8" standalone="no"?>
<!-- Created with Inkscape (http://www.inkscape.org/) -->

<svg
   width="48"
   height="48"
   viewBox="0 0 48 48"
   version="1.1"
   id="svg990"
   inkscape:version="1.2.2 (b0a8486541, 2022-12-01)"
   xml:space="preserve"
   sodipodi:docname="dstv.svg"
   xmlns:inkscape="http://www.inkscape.org/namespaces/inkscape"
   xmlns:sodipodi="http://sodipodi.sourceforge.net/DTD/sodipodi-0.dtd"
   xmlns="http://www.w3.org/2000/svg"
   xmlns:svg="http://www.w3.org/2000/svg"><sodipodi:namedview
     id="namedview992"
     pagecolor="#858585"
     bordercolor="#000000"
     borderopacity="0.25"
     inkscape:showpageshadow="2"
     inkscape:pageopacity="0"
     inkscape:pagecheckerboard="0"
     inkscape:deskcolor="#d1d1d1"
     inkscape:document-units="px"
     showgrid="false"
     inkscape:zoom="11.645833"
     inkscape:cx="17.001789"
     inkscape:cy="24.987478"
     inkscape:window-width="1366"
     inkscape:window-height="737"
     inkscape:window-x="0"
     inkscape:window-y="0"
     inkscape:window-maximized="1"
     inkscape:current-layer="svg990" /><defs
     id="defs987"><style
       id="style1174">.a{fill:none;stroke:#fff;stroke-linecap:round;stroke-linejoin:round;}</style></defs><path
     style="fill:none;stroke:#fff;stroke-width:1;stroke-linecap:round;stroke-linejoin:round;stroke-dasharray:none;stroke-opacity:1;stop-color:#000000"
     d="m 4.5000967,27.401397 c 7.1942143,0 9.6047763,-0.948351 9.6047763,-3.401457 0,-2.453109 -2.410562,-3.401338 -9.6047763,-3.401338 v 6.802795 H 20.425608 c 2.176973,0 3.555282,-0.675228 3.583807,-1.411427 0.04497,-1.160476 -0.96985,-1.458729 -3.307548,-1.98756 -2.3377,-0.528834 -3.38117,-0.977269 -3.308112,-1.988426 0.05309,-0.734836 1.407395,-1.410111 3.584369,-1.410111 h 6.960952 m 0,2.010194 v -2.010194 m 10.15695,6.679016 -3.266953,-4.668822 h -6.889997 v 3.350962 c 0,0.730095 0.587766,1.31786 1.317861,1.31786 h 8.839089 2.133173 l 3.270704,-4.668822"
     id="path10851"
     sodipodi:nodetypes="csccsszssccscccccccc" /></svg>
