<?xml version="1.0" encoding="UTF-8" standalone="no"?>
<!-- Created with Inkscape (http://www.inkscape.org/) -->

<svg
   width="48"
   height="48"
   viewBox="0 0 48 48"
   version="1.1"
   id="svg990"
   inkscape:version="1.2.2 (b0a8486541, 2022-12-01)"
   xml:space="preserve"
   sodipodi:docname="dumb_ways.svg"
   xmlns:inkscape="http://www.inkscape.org/namespaces/inkscape"
   xmlns:sodipodi="http://sodipodi.sourceforge.net/DTD/sodipodi-0.dtd"
   xmlns="http://www.w3.org/2000/svg"
   xmlns:svg="http://www.w3.org/2000/svg"><sodipodi:namedview
     id="namedview992"
     pagecolor="#858585"
     bordercolor="#000000"
     borderopacity="0.25"
     inkscape:showpageshadow="2"
     inkscape:pageopacity="0"
     inkscape:pagecheckerboard="0"
     inkscape:deskcolor="#d1d1d1"
     inkscape:document-units="px"
     showgrid="false"
     inkscape:zoom="8.2348477"
     inkscape:cx="44.688137"
     inkscape:cy="24.165596"
     inkscape:window-width="1366"
     inkscape:window-height="737"
     inkscape:window-x="0"
     inkscape:window-y="0"
     inkscape:window-maximized="1"
     inkscape:current-layer="svg990" /><defs
     id="defs987"><style
       id="style1174">.a{fill:none;stroke:#fff;stroke-linecap:round;stroke-linejoin:round;}</style></defs><path
     id="path18998"
     style="fill:none;stroke:#ffffff;stroke-width:1;stroke-linecap:round;stroke-linejoin:round;stroke-dasharray:none;stroke-opacity:1;stop-color:#000000"
     d="m 31.972628,36.752091 c 0.492698,-0.03488 0.964951,-0.04053 1.415545,-0.01762 m 1.520069,0.2032 c 0.456875,0.10373 0.883163,0.244178 1.277019,0.420305 m 1.347605,0.848213 c 0.333056,0.287342 0.625404,0.614874 0.874706,0.981282 m 0.695888,1.447909 c 0.172618,0.542306 0.280421,1.137459 0.319472,1.783245 M 23.823848,33.915928 c 0.465314,0.07925 0.892377,0.29996 1.279848,0.631103 m 1.007222,1.234793 c 0.227316,0.377508 0.432656,0.798322 0.615489,1.250206 m 0.467427,1.389331 c 0.125512,0.45286 0.232186,0.92145 0.319631,1.396712 m 0.2146,1.541895 c 0.03533,0.370258 0.05893,0.738697 0.07062,1.101136 M 9.2616342,40.869608 c 0.022926,-0.44544 0.088937,-0.873521 0.197761,-1.278863 m 0.6823238,-1.51623 c 0.228244,-0.338289 0.500181,-0.645626 0.815525,-0.916391 m 1.388039,-0.834003 c 0.412033,-0.165729 0.8648,-0.2902 1.358039,-0.368241 m 1.419379,-0.09429 c 0.508256,0.0082 1.049031,0.0576 1.622134,0.152038 m 15.903033,0.639479 a 0.7231068,0.96785104 0 0 1 -0.723107,0.967851 0.7231068,0.96785104 0 0 1 -0.723107,-0.967851 0.7231068,0.96785104 0 0 1 0.723107,-0.967851 0.7231068,0.96785104 0 0 1 0.723107,0.967851 z m -7.773696,-2.960049 a 0.92168218,0.92168218 0 0 1 -0.921682,0.921682 0.92168218,0.92168218 0 0 1 -0.921682,-0.921682 0.92168218,0.92168218 0 0 1 0.921682,-0.921682 0.92168218,0.92168218 0 0 1 0.921682,0.921682 z m -7.209064,1.915356 a 0.92168218,0.92168218 0 0 1 -0.921683,0.921682 0.92168218,0.92168218 0 0 1 -0.921682,-0.921682 0.92168218,0.92168218 0 0 1 0.921682,-0.921682 0.92168218,0.92168218 0 0 1 0.921683,0.921682 z M 22.238345,24.282477 A 2.1619928,1.6018754 0 0 1 20.624547,24.81838 2.1619928,1.6018754 0 0 1 19.01033,24.282129 m 8.328015,3.48e-4 A 2.1619928,1.6018754 0 0 1 25.724547,24.81838 2.1619928,1.6018754 0 0 1 24.11033,24.282129 m 0.113133,3.863207 a 1.1491257,1.1491257 0 0 1 -1.149126,1.149126 1.1491257,1.1491257 0 0 1 -1.149126,-1.149126 1.1491257,1.1491257 0 0 1 1.149126,-1.149126 1.1491257,1.1491257 0 0 1 1.149126,1.149126 z M 33.338659,42.5 H 40.5 c 1.104569,0 2,-0.895431 2,-2 V 7.4999999 c 0,-1.1045695 -0.895431,-2 -2,-2 h -33 c -1.1045695,1e-7 -1.9999999,0.8954305 -1.9999999,2 V 40.5 c 0,1.104569 0.8954304,2 1.9999999,2 h 6.171397 m 0.0069,-12.697389 c 0.405004,-2.043514 0.990265,-4.088427 1.742548,-6.099476 m 16.785609,-3.482591 c 0.309699,0.713039 0.466637,1.388771 0.445114,1.954296 M 15.798852,18.592557 c 1.609309,-2.717373 4.406069,-3.972392 7.720391,-4.11929 3.529296,-0.156426 6.48501,2.152454 8.013517,4.50516 m 1.491408,10.134895 C 34.29724,35.507641 34.466821,42.5 33.338659,42.5 H 13.671397 c -0.900653,-3.998978 -0.855748,-8.34501 0.0069,-12.697389 -3.426614,-2.1014 -5.7860992,-5.240069 -5.829733,-9.22178 m 23.783711,3.27514 c 0.554748,1.575688 1.020322,3.391047 1.391893,5.257351 1.922663,-3.125501 4.001197,-6.126442 7.906413,-7.678563 M 31.53276,18.978427 c 0.271021,0.417161 0.497172,0.835699 0.673694,1.242117 4.50551,-1.828497 10.081609,-3.729336 8.947719,-8.347256 -0.352187,-1.434331 -1.243329,-3.7283516 -2.110618,-3.3899782 l -0.451476,0.1761436 c -0.359569,0.1402862 -0.10233,0.7991286 0.02901,1.1757963 l 0.395926,1.1354713 c 0.301795,0.865515 -1.086336,1.430387 -1.499886,0.62765 -0.273723,-0.53132 -0.689291,-1.241667 -0.793959,-1.46833 -0.41903,-0.9074272 -1.608753,-0.3940821 -1.360533,0.322521 l 0.483547,1.395984 c 0.397626,1.147934 -0.771015,2.212867 -1.323322,1.143064 l -0.634185,-1.228398 c -0.644995,-1.249337 -2.075027,-0.693871 -1.527703,0.623742 l 0.981162,2.362022 c 0.808667,1.946763 -0.170844,3.269742 -1.809376,4.229451 m -16.359816,0.89656 c 0.182029,-0.459271 0.391357,-0.886382 0.625908,-1.28243 -1.935651,-1.466245 -1.457798,-3.398563 -0.114644,-6.421484 0.510406,-1.148727 -0.675067,-1.449802 -1.15796,-0.727318 l -0.944703,1.413423 c -0.613665,0.918139 -1.893992,0.354379 -1.598524,-0.454262 l 0.675703,-1.849273 c 0.188182,-0.515019 -0.723287,-1.3060955 -1.186309,-0.478781 l -0.77279,1.380798 C 10.158486,12.422551 8.6548094,11.905681 9.0341739,11.030177 L 9.647224,9.6153685 C 10.071936,8.6352099 8.8287581,8.1773936 8.3032723,8.9018318 M 32.651568,22.17484 c -0.02615,0.687048 -0.07793,1.418318 -1.019243,1.681131 -0.109306,-0.310466 -0.222073,-0.611628 -0.338265,-0.902042 -2.707222,-2.955019 -12.891876,-3.214661 -15.584606,0 -0.09877,0.249165 -0.194989,0.498923 -0.288609,0.749206 -0.725694,-0.04571 -0.997591,-0.923737 -0.826265,-1.813055 0.140791,-0.730817 0.335226,-1.401643 0.578364,-2.015093 C 10.415328,17.830835 3.6592784,15.963801 8.3032723,8.9018318" /></svg>
