<?xml version="1.0" encoding="UTF-8" standalone="no"?>
<!-- Created with Inkscape (http://www.inkscape.org/) -->

<svg
   width="48"
   height="48"
   viewBox="0 0 48 48"
   version="1.1"
   id="svg990"
   inkscape:version="1.2.2 (b0a8486541, 2022-12-01)"
   xml:space="preserve"
   sodipodi:docname="forza.svg"
   xmlns:inkscape="http://www.inkscape.org/namespaces/inkscape"
   xmlns:sodipodi="http://sodipodi.sourceforge.net/DTD/sodipodi-0.dtd"
   xmlns="http://www.w3.org/2000/svg"
   xmlns:svg="http://www.w3.org/2000/svg"><sodipodi:namedview
     id="namedview992"
     pagecolor="#858585"
     bordercolor="#000000"
     borderopacity="0.25"
     inkscape:showpageshadow="2"
     inkscape:pageopacity="0"
     inkscape:pagecheckerboard="0"
     inkscape:deskcolor="#d1d1d1"
     inkscape:document-units="px"
     showgrid="false"
     inkscape:zoom="7.7781746"
     inkscape:cx="8.2281516"
     inkscape:cy="28.541401"
     inkscape:window-width="1366"
     inkscape:window-height="737"
     inkscape:window-x="0"
     inkscape:window-y="0"
     inkscape:window-maximized="1"
     inkscape:current-layer="svg990" /><defs
     id="defs987"><style
       id="style1174">.a{fill:none;stroke:#fff;stroke-linecap:round;stroke-linejoin:round;}</style></defs><path
     id="path12389"
     style="fill:none;fill-opacity:1;stroke:#fff;stroke-width:1;stroke-linecap:round;stroke-linejoin:round;stroke-dasharray:none;stroke-opacity:1;stop-color:#000000"
     d="m 28.908399,27.774867 c -1.591211,2.064364 -3.756084,3.920783 -6.551126,5.398434 l 2.302763,5.525284 c 2.634909,0.09282 5.053965,-0.226816 7.614892,-0.9946 1.88924,-2.00602 2.560621,-4.255904 2.317058,-6.881822 -1.970083,-1.185261 -3.861411,-2.193848 -5.683587,-3.047296 z M 14.011282,21.919389 c -0.223493,2.755899 0.159394,5.500697 0.857668,7.751545 -1.591474,1.004774 -2.897047,1.756072 -4.451433,2.805584 C 8.2839393,30.449027 7.3513378,29.387268 6.3280726,26.515654 6.5319607,24.093458 7.341935,21.91052 8.7666317,20.004639 Z m 6.94162,-11.398738 c -0.729379,1.992131 -0.964319,3.987351 -0.684636,6.620561 2.660495,0.880419 5.341272,2.000384 7.552577,3.168905 1.476613,-1.844893 3.171201,-3.505806 4.960241,-5.086998 -0.822146,-2.076685 -2.103365,-4.240572 -4.534981,-5.7524935 -2.965318,-0.3261941 -4.939008,0.032651 -7.293201,1.0500255 z m 3.106784,35.12909 H 4.5675444 c -1.1120868,0 -2.0073788,-0.895292 -2.0073788,-2.007379 V 24.149436 M 39.101846,39.511906 A 21.499959,21.499959 0 0 1 24.060125,45.649741 M 2.5601656,24.149782 A 21.499959,21.499959 0 0 1 8.6999365,9.1060832 m 0,0 A 21.499959,21.499959 0 0 1 24.060125,2.6498224 21.499959,21.499959 0 0 1 45.560084,24.149782 v 0 A 21.499959,21.499959 0 0 1 39.101846,39.511906 M 32.346344,7.2551505 c 3.603607,1.7707857 6.557986,4.6605775 8.409913,8.2161505 m 1.742652,12.430929 c -1.739177,8.592245 -9.333597,15.060605 -18.438784,15.060605 -0.920123,0 -1.824816,-0.06605 -2.709599,-0.193682 M 11.649987,38.289396 C 7.7246759,34.841465 5.2470711,29.784962 5.2470709,24.149782 c -10e-8,-3.928481 1.204109,-7.575728 3.2633923,-10.592806 M 16.381187,6.9701234 C 16.009819,7.56337 15.836142,8.2830278 15.657594,8.8397667 13.307219,9.824689 10.88338,11.334711 9.2572206,13.655177 l -0.7467574,-0.0982 M 16.381187,6.9701234 c 2.344792,-1.0496717 4.943698,-1.6333957 7.678938,-1.6333957 1.858604,0 3.654258,0.2695196 5.350011,0.7716074 l 1.102015,1.1722168 1.834193,-0.025401 M 42.498909,27.90223 c -0.41351,-0.850127 -1.29397,-1.389436 -2.33657,-1.820823 -0.0075,-2.820748 -0.456699,-5.417752 -1.370302,-7.752295 1.07802,-1.071232 1.891789,-2.068406 1.96422,-2.857811 m -29.10627,22.818095 1.116462,-0.176643 c 2.135539,1.762903 4.708994,2.899854 7.409754,3.086883 0.284768,0.834601 0.587581,1.146638 1.174323,1.569517" /></svg>
