<?xml version="1.0" encoding="UTF-8" standalone="no"?>
<!-- Created with Inkscape (http://www.inkscape.org/) -->

<svg
   width="48"
   height="48"
   viewBox="0 0 48 48"
   version="1.1"
   id="svg990"
   inkscape:version="1.2.2 (b0a8486541, 2022-12-01)"
   xml:space="preserve"
   sodipodi:docname="gls_banking.svg"
   xmlns:inkscape="http://www.inkscape.org/namespaces/inkscape"
   xmlns:sodipodi="http://sodipodi.sourceforge.net/DTD/sodipodi-0.dtd"
   xmlns="http://www.w3.org/2000/svg"
   xmlns:svg="http://www.w3.org/2000/svg"><sodipodi:namedview
     id="namedview992"
     pagecolor="#858585"
     bordercolor="#000000"
     borderopacity="0.25"
     inkscape:showpageshadow="2"
     inkscape:pageopacity="0"
     inkscape:pagecheckerboard="0"
     inkscape:deskcolor="#d1d1d1"
     inkscape:document-units="px"
     showgrid="false"
     inkscape:zoom="5.8229167"
     inkscape:cx="10.132379"
     inkscape:cy="24.386404"
     inkscape:window-width="1366"
     inkscape:window-height="737"
     inkscape:window-x="0"
     inkscape:window-y="0"
     inkscape:window-maximized="1"
     inkscape:current-layer="svg990" /><defs
     id="defs987"><style
   id="style1174">.a{fill:none;stroke:#fff;stroke-linecap:round;stroke-linejoin:round;}</style>
		
	
		
	</defs><path
     id="path5012"
     style="fill:none;stroke:#fff;stroke-width:1;stroke-linecap:round;stroke-linejoin:round;stroke-miterlimit:10;stroke-dasharray:none;stroke-opacity:1"
     d="m 18.078417,22.202154 c 0,-2.074438 -1.65955,-3.733989 -3.733988,-3.733989 v 0 c -2.074438,0 -3.733988,1.659551 -3.733988,3.733989 v 3.733988 c 0,2.074438 1.65955,3.595692 3.733988,3.595692 v 0 c 2.074438,0 3.733988,-1.65955 3.733988,-3.595692 h -3.733988 m 15.853745,2.35103 c 0.691479,0.829775 1.521255,1.244663 2.765917,1.244663 h 1.659551 c 1.521254,0 2.765917,-1.244663 2.765917,-2.765917 v 0 C 37.389559,25.244663 36.144896,24 34.623642,24 h -1.797847 c -1.521254,0 -2.765917,-1.244662 -2.765917,-2.765917 v 0 c 0,-1.521254 1.244663,-2.765917 2.765917,-2.765917 h 1.659551 c 1.244662,0 2.074438,0.276592 2.765917,1.244663 M 21.603231,18.468166 v 11.063669 h 5.531835 M 40.5,5.4999999 h -33 a 2,2 0 0 0 -1.9999999,2 V 40.5 A 2,2 0 0 0 7.5,42.5 h 33 a 2,2 0 0 0 2,-2 V 7.4999999 a 2,2 0 0 0 -2,-2 z" /></svg>
