<?xml version="1.0" encoding="UTF-8" standalone="no"?>
<!-- Created with Inkscape (http://www.inkscape.org/) -->

<svg
   width="48"
   height="48"
   viewBox="0 0 48 48"
   version="1.1"
   id="svg990"
   inkscape:version="1.2.2 (b0a8486541, 2022-12-01)"
   xml:space="preserve"
   sodipodi:docname="http_injector.svg"
   xmlns:inkscape="http://www.inkscape.org/namespaces/inkscape"
   xmlns:sodipodi="http://sodipodi.sourceforge.net/DTD/sodipodi-0.dtd"
   xmlns="http://www.w3.org/2000/svg"
   xmlns:svg="http://www.w3.org/2000/svg"><sodipodi:namedview
     id="namedview992"
     pagecolor="#858585"
     bordercolor="#000000"
     borderopacity="0.25"
     inkscape:showpageshadow="2"
     inkscape:pageopacity="0"
     inkscape:pagecheckerboard="0"
     inkscape:deskcolor="#d1d1d1"
     inkscape:document-units="px"
     showgrid="false"
     inkscape:zoom="5.8229165"
     inkscape:cx="-37.781754"
     inkscape:cy="27.305904"
     inkscape:window-width="1366"
     inkscape:window-height="737"
     inkscape:window-x="0"
     inkscape:window-y="0"
     inkscape:window-maximized="1"
     inkscape:current-layer="svg990" /><defs
     id="defs987"><style
       id="style1174">.a{fill:none;stroke:#fff;stroke-linecap:round;stroke-linejoin:round;}</style></defs><path
     id="path8422"
     style="fill:none;stroke:#fff;stroke-width:1;stroke-linecap:round;stroke-linejoin:round;stroke-dasharray:none"
     d="m 21.877093,34.305001 c -1.158205,0.854025 -0.898491,2.762575 -0.839177,4.522085 l 1.316231,-1.641512 c -0.612985,2.47502 0.288736,4.89965 1.645853,6.314376 1.357117,-1.414726 2.258837,-3.839356 1.645851,-6.314376 l 1.316232,1.641512 c 0.05933,-1.75951 0.319028,-3.66806 -0.839176,-4.522085 m 2.626148,-1.75e-4 -9.498109,1.75e-4 m 7.111122,-4.185708 5.29e-4,4.185533 m -4.725191,0 5.3e-4,-4.185535 m 10.43057,-7.522714 v 6.25025 M 19.447432,26.005803 v -6.250249 m 0,0 v -4.19585 c 0,-0.629572 0.506837,-1.136409 1.136407,-1.136409 h 6.832317 c 0.629574,0 1.136411,0.506837 1.136411,1.136409 v 4.19585 m 0,6.250249 V 19.30099 l 3.515939,3.295587 m -12.621074,3.409226 v 2.976947 c 0,0.629569 0.506837,1.13641 1.136407,1.13641 h 6.832317 c 0.629574,0 1.136411,-0.506841 1.136411,-1.13641 v -3.43151 l 3.515939,3.295587 m -12.620962,-9.545837 -3.51605,3.295587 v 6.25025 l 3.515938,-3.295587 m 12.621074,-2.954663 v 6.25025 M 19.447432,26.005803 v -6.250249 m 0,0 v -4.19585 c 0,-0.629572 0.506837,-1.136409 1.136407,-1.136409 h 6.832317 c 0.629574,0 1.136411,0.506837 1.136411,1.136409 v 4.19585 m 0,6.250249 V 19.30099 l 3.515939,3.295587 m -12.621074,3.409226 v 2.976947 c 0,0.629569 0.506837,1.13641 1.136407,1.13641 h 6.832317 c 0.629574,0 1.136411,-0.506841 1.136411,-1.13641 v -3.43151 l 3.515939,3.295587 m -12.620962,-9.545837 -3.51605,3.295587 v 6.25025 L 19.447432,25.55124 M 21.098366,14.424402 V 13.15942 c 0,-0.629572 0.506838,-1.136411 1.136408,-1.136411 v 0 m 1.765227,0 h 1.765226 m 0,0 c 0.629569,0 1.136409,0.506839 1.136409,1.136411 v 1.264982 m -4.666862,-2.401393 h 1.765227 V 4.5000722" /></svg>
