<?xml version="1.0" encoding="UTF-8" standalone="no"?>
<!-- Created with Inkscape (http://www.inkscape.org/) -->

<svg
   width="48"
   height="48"
   viewBox="0 0 48 48"
   version="1.1"
   id="svg990"
   inkscape:version="1.2.2 (b0a8486541, 2022-12-01)"
   xml:space="preserve"
   sodipodi:docname="http_injector.svg"
   xmlns:inkscape="http://www.inkscape.org/namespaces/inkscape"
   xmlns:sodipodi="http://sodipodi.sourceforge.net/DTD/sodipodi-0.dtd"
   xmlns="http://www.w3.org/2000/svg"
   xmlns:svg="http://www.w3.org/2000/svg"><sodipodi:namedview
     id="namedview992"
     pagecolor="#858585"
     bordercolor="#000000"
     borderopacity="0.25"
     inkscape:showpageshadow="2"
     inkscape:pageopacity="0"
     inkscape:pagecheckerboard="0"
     inkscape:deskcolor="#d1d1d1"
     inkscape:document-units="px"
     showgrid="false"
     inkscape:zoom="5.8229165"
     inkscape:cx="-21.123435"
     inkscape:cy="27.305904"
     inkscape:window-width="1366"
     inkscape:window-height="737"
     inkscape:window-x="0"
     inkscape:window-y="0"
     inkscape:window-maximized="1"
     inkscape:current-layer="svg990" /><defs
     id="defs987"><style
       id="style1174">.a{fill:none;stroke:#fff;stroke-linecap:round;stroke-linejoin:round;}</style></defs><g
     id="g8482"
     transform="matrix(1.2357814,0,0,1.2357814,-5.6587536,-5.6587593)"
     style="stroke-width:0.809321;stroke-dasharray:none"><path
       style="fill:none;stroke:#ffffff;stroke-width:0.809321;stroke-linecap:round;stroke-linejoin:round;stroke-dasharray:none"
       d="m 22.571571,14.308168 h 1.42843 V 8.2205732"
       id="path8460" /><path
       style="fill:none;stroke:#ffffff;stroke-width:0.809321;stroke-linecap:round;stroke-linejoin:round;stroke-dasharray:none"
       d="m 25.42843,14.308168 c 0.50945,0 0.919587,0.410137 0.919587,0.919589 v 1.02363"
       id="path8458" /><path
       style="fill:none;stroke:#ffffff;stroke-width:0.809321;stroke-linecap:round;stroke-linejoin:round;stroke-dasharray:none"
       d="M 24.000001,14.308168 H 25.42843"
       id="path8456" /><path
       style="fill:none;stroke:#ffffff;stroke-width:0.809321;stroke-linecap:round;stroke-linejoin:round;stroke-dasharray:none"
       d="m 21.651984,16.251387 v -1.02363 c 0,-0.509452 0.410136,-0.919589 0.919587,-0.919589 v 0"
       id="path8454" /><path
       style="fill:none;stroke:#ffffff;stroke-width:0.809321;stroke-linecap:round;stroke-linejoin:round;stroke-dasharray:none"
       d="m 20.316132,20.197544 -2.845204,2.666804 v 5.057731 l 2.845113,-2.666804"
       id="path8452" /><path
       style="fill:none;stroke:#ffffff;stroke-width:0.809321;stroke-linecap:round;stroke-linejoin:round;stroke-dasharray:none"
       d="m 20.316041,25.62311 v 2.408959 c 0,0.50945 0.410135,0.919588 0.919586,0.919588 h 5.528742 c 0.509454,0 0.919589,-0.410138 0.919589,-0.919588 v -2.776794 l 2.845114,2.666804"
       id="path8450" /><path
       style="fill:none;stroke:#ffffff;stroke-width:0.809321;stroke-linecap:round;stroke-linejoin:round;stroke-dasharray:none"
       d="m 27.683958,25.62311 v -5.425566 l 2.845114,2.666804"
       id="path8448" /><path
       style="fill:none;stroke:#ffffff;stroke-width:0.809321;stroke-linecap:round;stroke-linejoin:round;stroke-dasharray:none"
       d="m 20.316041,20.565379 v -3.395301 c 0,-0.509452 0.410135,-0.919587 0.919586,-0.919587 h 5.528742 c 0.509454,0 0.919589,0.410135 0.919589,0.919587 v 3.395301"
       id="path8446" /><path
       style="fill:none;stroke:#ffffff;stroke-width:0.809321;stroke-linecap:round;stroke-linejoin:round;stroke-dasharray:none"
       d="M 20.316041,25.62311 V 20.565379"
       id="path8444" /><path
       style="fill:none;stroke:#ffffff;stroke-width:0.809321;stroke-linecap:round;stroke-linejoin:round;stroke-dasharray:none"
       d="m 30.529072,22.864348 v 5.057731"
       id="path8442" /><path
       style="fill:none;stroke:#ffffff;stroke-width:0.809321;stroke-linecap:round;stroke-linejoin:round;stroke-dasharray:none"
       d="m 20.316132,20.197544 -2.845204,2.666804 v 5.057731 l 2.845113,-2.666804"
       id="path8440" /><path
       style="fill:none;stroke:#ffffff;stroke-width:0.809321;stroke-linecap:round;stroke-linejoin:round;stroke-dasharray:none"
       d="m 20.316041,25.62311 v 2.408959 c 0,0.50945 0.410135,0.919588 0.919586,0.919588 h 5.528742 c 0.509454,0 0.919589,-0.410138 0.919589,-0.919588 v -2.776794 l 2.845114,2.666804"
       id="path8438" /><path
       style="fill:none;stroke:#ffffff;stroke-width:0.809321;stroke-linecap:round;stroke-linejoin:round;stroke-dasharray:none"
       d="m 27.683958,25.62311 v -5.425566 l 2.845114,2.666804"
       id="path8436" /><path
       style="fill:none;stroke:#ffffff;stroke-width:0.809321;stroke-linecap:round;stroke-linejoin:round;stroke-dasharray:none"
       d="m 20.316041,20.565379 v -3.395301 c 0,-0.509452 0.410135,-0.919587 0.919586,-0.919587 h 5.528742 c 0.509454,0 0.919589,0.410135 0.919589,0.919587 v 3.395301"
       id="path8434" /><path
       style="fill:none;stroke:#ffffff;stroke-width:0.809321;stroke-linecap:round;stroke-linejoin:round;stroke-dasharray:none"
       d="M 20.316041,25.62311 V 20.565379"
       id="path8432" /><path
       style="fill:none;stroke:#ffffff;stroke-width:0.809321;stroke-linecap:round;stroke-linejoin:round;stroke-dasharray:none"
       d="m 30.529072,22.864348 v 5.057731"
       id="path8430" /><path
       style="fill:none;stroke:#ffffff;stroke-width:0.809321;stroke-linecap:round;stroke-linejoin:round;stroke-dasharray:none"
       d="m 22.088178,32.338717 4.29e-4,-3.386954"
       id="path8428" /><path
       style="fill:none;stroke:#ffffff;stroke-width:0.809321;stroke-linecap:round;stroke-linejoin:round;stroke-dasharray:none"
       d="m 25.911396,28.951765 4.28e-4,3.386952"
       id="path8426" /><path
       style="fill:none;stroke:#ffffff;stroke-width:0.809321;stroke-linecap:round;stroke-linejoin:round;stroke-dasharray:none"
       d="m 27.842957,32.338717 -7.685913,1.42e-4"
       id="path8424" /><path
       style="fill:none;stroke:#ffffff;stroke-width:0.809321;stroke-linecap:round;stroke-linejoin:round;stroke-dasharray:none"
       d="m 22.282134,32.338859 c -0.937225,0.691081 -0.727063,2.235488 -0.679066,3.659292 l 1.0651,-1.328319 c -0.49603,2.002797 0.233647,3.964819 1.331832,5.109622 1.098185,-1.144803 1.827861,-3.106825 1.33183,-5.109622 l 1.065101,1.328319 c 0.04801,-1.423804 0.258159,-2.968211 -0.679065,-3.659292"
       id="path8422" /></g></svg>
