<?xml version="1.0" encoding="UTF-8" standalone="no"?>
<svg
   id="b"
   viewBox="0 0 48 48"
   version="1.1"
   sodipodi:docname="imo_lite.svg"
   inkscape:version="1.2.2 (b0a8486541, 2022-12-01)"
   xmlns:inkscape="http://www.inkscape.org/namespaces/inkscape"
   xmlns:sodipodi="http://sodipodi.sourceforge.net/DTD/sodipodi-0.dtd"
   xmlns="http://www.w3.org/2000/svg"
   xmlns:svg="http://www.w3.org/2000/svg">
  <sodipodi:namedview
     id="namedview17039"
     pagecolor="#ffffff"
     bordercolor="#000000"
     borderopacity="0.25"
     inkscape:showpageshadow="2"
     inkscape:pageopacity="0.0"
     inkscape:pagecheckerboard="0"
     inkscape:deskcolor="#d1d1d1"
     showgrid="false"
     inkscape:zoom="11.645833"
     inkscape:cx="15.627907"
     inkscape:cy="24.042934"
     inkscape:window-width="1366"
     inkscape:window-height="737"
     inkscape:window-x="0"
     inkscape:window-y="0"
     inkscape:window-maximized="1"
     inkscape:current-layer="b" />
  <defs
     id="defs17008">
    <style
       id="style17006">.c{fill:#fff;}.d{fill:none;stroke:#fff;stroke-linecap:round;stroke-linejoin:round;}</style>
  </defs>
  <g
     id="g17028"
     style="stroke:#ffffff;stroke-opacity:1">
    <g
       id="g17020"
       style="stroke:#ffffff;stroke-opacity:1" />
    <g
       id="g17026"
       style="stroke:#ffffff;stroke-opacity:1" />
  </g>
  <g
     id="g4208"
     transform="translate(-127.5,-6.2)"
     style="stroke:#ffffff;stroke-opacity:1">
		<path
   id="polyline4206"
   style="fill:none;stroke-linecap:round;stroke-linejoin:round;stroke-miterlimit:10"
   class="st5"
   d="m 164,40.7 v 8 h 4 m 5,-4 a 7,7 0 0 1 -7,7 7,7 0 0 1 -7,-7 7,7 0 0 1 7,-7 7,7 0 0 1 7,7 z M 141.0602,26.087699 v 7.709002 m 0.75,-10.417502 a 0.75,0.75 0 0 1 -0.75,0.75 0.75,0.75 0 0 1 -0.75,-0.75 0.75,0.75 0 0 1 0.75,-0.75 0.75,0.75 0 0 1 0.75,0.75 z m 8.4258,5.617501 c 0,-1.6066 1.3024,-2.909 2.909,-2.909 v 0 c 1.6066,0 2.909,1.3024 2.909,2.909 v 4.7999 m -11.6361,-7.708901 v 7.709002 m 0,-4.800001 c 0,-1.6066 1.3024,-2.909 2.909,-2.909 v 0 c 1.6066,0 2.909,1.3024 2.909,2.909 v 4.7999 m 11.8129,-7.708901 h 1e-4 c 1.61158,0 2.909,1.297414 2.909,2.909 v 1.891 c 0,1.611586 -1.29742,2.909 -2.909,2.909 h -1e-4 c -1.61159,0 -2.909,-1.297414 -2.909,-2.909 v -1.891 c 0,-1.611586 1.29741,-2.909 2.909,-2.909 z M 170.8266,39.6309 C 172.2187,36.7835 173,33.583 173,30.2 173,18.3259 163.3741,8.7 151.5,8.7 139.6259,8.7 130,18.3259 130,30.2 c 0,5.4902 2.0752,10.4837 5.4617,14.2834 -0.971,2.8007 -2.9933,3.6747 -5.4617,4.5671 2.2605,2.1812 6.6677,2.7591 10.6226,-0.3278 3.1938,1.8799 6.9033,2.9773 10.8774,2.9773 3.3848,0 6.5869,-0.7822 9.4355,-2.1756" />

	</g>
</svg>
