<?xml version="1.0" encoding="UTF-8" standalone="no"?>
<!-- Created with Inkscape (http://www.inkscape.org/) -->

<svg
   width="48"
   height="48"
   viewBox="0 0 48 48"
   version="1.1"
   id="svg990"
   inkscape:version="1.2.2 (b0a8486541, 2022-12-01)"
   xml:space="preserve"
   sodipodi:docname="infy_me.svg"
   xmlns:inkscape="http://www.inkscape.org/namespaces/inkscape"
   xmlns:sodipodi="http://sodipodi.sourceforge.net/DTD/sodipodi-0.dtd"
   xmlns="http://www.w3.org/2000/svg"
   xmlns:svg="http://www.w3.org/2000/svg"><sodipodi:namedview
     id="namedview992"
     pagecolor="#858585"
     bordercolor="#000000"
     borderopacity="0.25"
     inkscape:showpageshadow="2"
     inkscape:pageopacity="0"
     inkscape:pagecheckerboard="0"
     inkscape:deskcolor="#d1d1d1"
     inkscape:document-units="px"
     showgrid="false"
     inkscape:zoom="8.2348477"
     inkscape:cx="-0.48574062"
     inkscape:cy="22.586939"
     inkscape:window-width="1366"
     inkscape:window-height="737"
     inkscape:window-x="0"
     inkscape:window-y="0"
     inkscape:window-maximized="1"
     inkscape:current-layer="svg990" /><defs
     id="defs987"><style
       id="style1174">.a{fill:none;stroke:#fff;stroke-linecap:round;stroke-linejoin:round;}</style></defs><path
     style="fill:none;stroke:#fff;stroke-width:1;stroke-linecap:round;stroke-linejoin:round;stroke-dasharray:none;stroke-opacity:1;stop-color:#000000"
     d="m 37.674596,8.7072128 c 0.361421,-1.178611 -0.08301,-1.595278 -0.598221,-1.881772 l -3.79807,-2.1120067 c -0.541719,-0.3012353 -1.135141,-0.5022263 -1.5922,1.0206713 -2.192587,7.3055716 -4.491882,15.1503416 -9.901557,21.1015256 -2.986377,3.285316 -2.373863,-9.69514 -2.342551,-13.869224 0.0084,-1.123055 0.124713,-2.216293 -1.034591,-2.704577 L 15.522318,9.0466698 C 15.06839,8.8554818 14.416608,8.4903778 14.17994,9.5148258 11.940586,19.208245 8.7776559,35.010096 10.894425,38.178808 c 1.49827,2.242846 3.750373,2.271428 3.754225,0.20666 0.01106,-5.903293 1.140447,-11.65983 2.041874,-17.426552 -0.143591,7.515903 2.152298,9.086021 4.826189,9.142672 3.547278,0.07515 7.545837,-7.541135 8.695996,-11.435308 -1.671406,16.246563 -5.149683,23.583529 1.212448,24.76576 1.724635,0.320476 1.412116,-0.591841 1.406459,-1.194002 -0.109217,-11.625442 1.915958,-20.940069 4.84298,-33.5308252 z"
     id="path7275"
     sodipodi:nodetypes="csssssssssscscssc" /></svg>
