<?xml version="1.0" encoding="UTF-8" standalone="no"?>
<!-- Created with Inkscape (http://www.inkscape.org/) -->

<svg
   width="48"
   height="48"
   viewBox="0 0 48 48"
   version="1.1"
   id="svg990"
   inkscape:version="1.2.2 (b0a8486541, 2022-12-01)"
   xml:space="preserve"
   sodipodi:docname="listen_audiobook_player.svg"
   xmlns:inkscape="http://www.inkscape.org/namespaces/inkscape"
   xmlns:sodipodi="http://sodipodi.sourceforge.net/DTD/sodipodi-0.dtd"
   xmlns="http://www.w3.org/2000/svg"
   xmlns:svg="http://www.w3.org/2000/svg"><sodipodi:namedview
     id="namedview992"
     pagecolor="#858585"
     bordercolor="#000000"
     borderopacity="0.25"
     inkscape:showpageshadow="2"
     inkscape:pageopacity="0"
     inkscape:pagecheckerboard="0"
     inkscape:deskcolor="#d1d1d1"
     inkscape:document-units="px"
     showgrid="false"
     inkscape:zoom="5.8229167"
     inkscape:cx="-8.0715563"
     inkscape:cy="30.912343"
     inkscape:window-width="1366"
     inkscape:window-height="737"
     inkscape:window-x="0"
     inkscape:window-y="0"
     inkscape:window-maximized="1"
     inkscape:current-layer="svg990" /><defs
     id="defs987"><style
       id="style1174">.a{fill:none;stroke:#fff;stroke-linecap:round;stroke-linejoin:round;}</style></defs><path
     id="path15277"
     style="fill:none;stroke:#fff;stroke-width:1;stroke-linecap:round;stroke-linejoin:round;stroke-dasharray:none;stroke-opacity:1;stop-color:#000000"
     d="M 32.541159,26.520341 20.530097,33.454932 V 19.585751 Z M 10.396091,7.1934919 c 0,1.2669254 1.784702,2.6933554 4.001574,2.6867234 m 0,33.6197407 h 19.20467 c 2.216872,0 4.001574,-1.784702 4.001574,-4.001573 V 13.875157 8.5016183 c 0,-2.2168729 -1.784702,-4.0015746 -4.001574,-4.0015746 h -19.20467 c -2.216872,0 -4.001574,1.4265217 -4.001574,2.6934481 V 39.498383 c 0,2.216871 1.784702,4.001573 4.001574,4.001573 V 9.8802153 l 19.20467,-0.0066 c 2.216872,0 4.001574,1.7847017 4.001574,4.0015727 m -23.206722,-5.8101417 19.20467,-0.0066 c 0.554219,0 1.081425,0.111543 1.560489,0.313498 m -20.765159,-2.0649955 19.20467,-0.00663 c 0.554219,0 1.081425,0.1115431 1.560489,0.3134983" /></svg>
