<?xml version="1.0" encoding="UTF-8" standalone="no"?>
<!-- Created with Inkscape (http://www.inkscape.org/) -->

<svg
   width="48"
   height="48"
   viewBox="0 0 48 48"
   version="1.1"
   id="svg990"
   inkscape:version="1.2.2 (b0a8486541, 2022-12-01)"
   xml:space="preserve"
   sodipodi:docname="medicover.svg"
   xmlns:inkscape="http://www.inkscape.org/namespaces/inkscape"
   xmlns:sodipodi="http://sodipodi.sourceforge.net/DTD/sodipodi-0.dtd"
   xmlns="http://www.w3.org/2000/svg"
   xmlns:svg="http://www.w3.org/2000/svg"><sodipodi:namedview
     id="namedview992"
     pagecolor="#858585"
     bordercolor="#000000"
     borderopacity="0.25"
     inkscape:showpageshadow="2"
     inkscape:pageopacity="0"
     inkscape:pagecheckerboard="0"
     inkscape:deskcolor="#d1d1d1"
     inkscape:document-units="px"
     showgrid="false"
     inkscape:zoom="5.8229167"
     inkscape:cx="-0.34347048"
     inkscape:cy="31.084079"
     inkscape:window-width="1366"
     inkscape:window-height="737"
     inkscape:window-x="0"
     inkscape:window-y="0"
     inkscape:window-maximized="1"
     inkscape:current-layer="svg990" /><defs
     id="defs987"><style
       id="style1174">.a{fill:none;stroke:#fff;stroke-linecap:round;stroke-linejoin:round;}</style></defs><path
     id="path9852"
     style="fill:none;stroke:#fff;stroke-width:1;stroke-linecap:round;stroke-linejoin:round;stroke-dasharray:none;stroke-opacity:1;stop-color:#000000"
     d="m 17.259904,14.52956 c 10.73666,-4.424361 19.863283,1.407996 23.785891,9.221824 M 12.147084,20.517748 C 18.60355,13.855338 27.870598,13.317705 35.56215,19.1169 M 8.3648872,22.186648 C 12.609076,12.907494 20.099804,9.2431142 31.725037,12.655091 M 28.045524,36.59932 C 28.62125,29.111534 36.277414,26.857872 43.500441,25.124762 36.796303,25.316047 30.371324,25.063354 24,30.012665 17.628675,25.063361 11.203696,25.316047 4.4995587,25.124762 11.722585,26.857872 19.378749,29.111534 19.954475,36.59932 Z M 26.530041,24.620748 A 2.5300413,2.5300413 0 0 1 24,27.15079 2.5300413,2.5300413 0 0 1 21.469958,24.620748 2.5300413,2.5300413 0 0 1 24,22.090707 a 2.5300413,2.5300413 0 0 1 2.530041,2.530041 z" /></svg>
