<?xml version="1.0" encoding="UTF-8" standalone="no"?>
<!-- Created with Inkscape (http://www.inkscape.org/) -->

<svg
   width="48"
   height="48"
   viewBox="0 0 48 48"
   version="1.1"
   id="svg990"
   inkscape:version="1.2.2 (b0a8486541, 2022-12-01)"
   xml:space="preserve"
   sodipodi:docname="mo_bus.svg"
   xmlns:inkscape="http://www.inkscape.org/namespaces/inkscape"
   xmlns:sodipodi="http://sodipodi.sourceforge.net/DTD/sodipodi-0.dtd"
   xmlns="http://www.w3.org/2000/svg"
   xmlns:svg="http://www.w3.org/2000/svg"><sodipodi:namedview
     id="namedview992"
     pagecolor="#858585"
     bordercolor="#000000"
     borderopacity="0.25"
     inkscape:showpageshadow="2"
     inkscape:pageopacity="0"
     inkscape:pagecheckerboard="0"
     inkscape:deskcolor="#d1d1d1"
     inkscape:document-units="px"
     showgrid="false"
     inkscape:zoom="8.2348477"
     inkscape:cx="17.729532"
     inkscape:cy="30.358788"
     inkscape:window-width="1366"
     inkscape:window-height="737"
     inkscape:window-x="0"
     inkscape:window-y="0"
     inkscape:window-maximized="1"
     inkscape:current-layer="svg990" /><defs
     id="defs987"><style
   id="style1174">.a{fill:none;stroke:#fff;stroke-linecap:round;stroke-linejoin:round;}</style>
		
		
	
		
	</defs><path
     id="path6141"
     style="fill:none;stroke:#ffffff;stroke-linecap:round;stroke-linejoin:round;stroke-miterlimit:10"
     class="st5"
     d="m 16.777795,28 v 0 c -1.5,0 -2.6,-1.2 -2.6,-2.6 v -2.7 c 0,-1.5 1.2,-2.7 2.6,-2.7 v 0 c 1.5,0 2.7,1.2 2.7,2.7 v 2.6 c 0,1.5 -1.2,2.7 -2.7,2.7 z M 26.899997,24.000001 H 23.69975 M 26.9,24 c 1.1,0 2,0.9 2,2 0,1.1 -0.9,2 -2,2 h -3.3 v -8 h 3.3 c 1.1,0 2,0.9 2,2 0,1.1 -0.9,2 -2,2 z m 4.422205,-4 v 5.3 c 0,1.5 1.2,2.7 2.6,2.7 1.4,0 2.6,-1.2 2.6,-2.7 V 20 m 2.522205,7.1 c 0.5,0.6 1.1,0.9 2,0.9 h 1.2 c 1.1,0 2,-0.9 2,-2 v 0 c 0,-1.1 -0.9,-2 -2,-2 h -1.3 c -1.1,0 -2,-0.9 -2,-2 v 0 c 0,-1.1 0.9,-2 2,-2 h 1.2 c 0.9,0 1.5,0.2 2,0.9 m -40.38882,7 V 20 l 4,8 4,-8 v 8 m 33.744404,2.803549 C 42.378759,39.532918 33.730555,45.407071 24,45.407071 c -9.730555,0 -18.3787606,-5.874077 -21.48932,-14.594463 h 31.536377 l -5.066568,4.80775 M 2.5000059,17.010602 C 5.6212398,8.2812329 14.269446,2.4070802 24,2.40708 c 9.730555,10e-8 18.378759,5.8741528 21.499994,14.603522 H 13.97429 l 5.066568,-4.798843" /></svg>
