<?xml version="1.0" encoding="UTF-8" standalone="no"?>
<!-- Created with Inkscape (http://www.inkscape.org/) -->

<svg
   width="48"
   height="48"
   viewBox="0 0 48 48"
   version="1.1"
   id="svg990"
   inkscape:version="1.2.2 (b0a8486541, 2022-12-01)"
   xml:space="preserve"
   sodipodi:docname="myfastweb.svg"
   xmlns:inkscape="http://www.inkscape.org/namespaces/inkscape"
   xmlns:sodipodi="http://sodipodi.sourceforge.net/DTD/sodipodi-0.dtd"
   xmlns="http://www.w3.org/2000/svg"
   xmlns:svg="http://www.w3.org/2000/svg"><sodipodi:namedview
     id="namedview992"
     pagecolor="#858585"
     bordercolor="#000000"
     borderopacity="0.25"
     inkscape:showpageshadow="2"
     inkscape:pageopacity="0"
     inkscape:pagecheckerboard="0"
     inkscape:deskcolor="#d1d1d1"
     inkscape:document-units="px"
     showgrid="false"
     inkscape:zoom="11.645833"
     inkscape:cx="15.627907"
     inkscape:cy="17.173524"
     inkscape:window-width="1366"
     inkscape:window-height="737"
     inkscape:window-x="0"
     inkscape:window-y="0"
     inkscape:window-maximized="1"
     inkscape:current-layer="svg990" /><defs
     id="defs987"><style
       id="style1174">.a{fill:none;stroke:#fff;stroke-linecap:round;stroke-linejoin:round;}</style></defs><path
     id="path16657"
     style="fill:none;stroke:#fff;stroke-width:1;stroke-linecap:round;stroke-linejoin:round;stroke-dasharray:none;stroke-opacity:1;stop-color:#000000"
     d="m 30.387363,11.808635 h -7.060298 m -4.862254,0 h -6.263873 c -0.507033,4.335601 -0.845899,9.583082 -1.764082,14.127839 l 5.299819,-0.0059 C 17.518709,21.247825 18.392551,15.85755 18.464811,11.80869 M 4.5000551,36.166096 c 4.5871871,0.361043 7.9508529,-3.132036 10.2265939,-7.873 l -4.8400348,-0.0032 c -1.034748,3.823211 -2.6479922,6.842346 -5.3865591,7.876186 m 0,0 C 9.7419142,36.135742 14.735536,33.361646 18.268085,28.293619 l 5.476335,-0.0034 C 19.750695,32.798208 13.626635,36.171768 4.5000551,36.16609 M 30.387363,11.808635 c -0.267692,4.056315 -1.604835,9.445467 -4.805725,14.123193 l -5.86569,7.53e-4 c 2.033513,-3.780255 3.353474,-8.531359 3.611117,-14.123946 m 13.293752,14.121952 c 4.119066,-4.159634 6.21012,-9.152043 6.879135,-14.121952 H 35.60777 c -0.824778,4.583993 -2.065106,9.736262 -5.46254,14.12305 z m -8.602699,2.357329 c -4.456975,4.24537 -11.630895,7.381051 -23.5180629,7.87818 13.8811549,0 23.3088629,-3.167518 29.4369749,-7.873996 z" /></svg>
