<?xml version="1.0" encoding="UTF-8" standalone="no"?>
<!-- Created with Inkscape (http://www.inkscape.org/) -->

<svg
   width="48"
   height="48"
   viewBox="0 0 48 48"
   version="1.1"
   id="svg990"
   inkscape:version="1.2.2 (b0a8486541, 2022-12-01)"
   xml:space="preserve"
   sodipodi:docname="pi_hole_connect.svg"
   xmlns:inkscape="http://www.inkscape.org/namespaces/inkscape"
   xmlns:sodipodi="http://sodipodi.sourceforge.net/DTD/sodipodi-0.dtd"
   xmlns="http://www.w3.org/2000/svg"
   xmlns:svg="http://www.w3.org/2000/svg"><sodipodi:namedview
     id="namedview992"
     pagecolor="#858585"
     bordercolor="#000000"
     borderopacity="0.25"
     inkscape:showpageshadow="2"
     inkscape:pageopacity="0"
     inkscape:pagecheckerboard="0"
     inkscape:deskcolor="#d1d1d1"
     inkscape:document-units="px"
     showgrid="false"
     inkscape:zoom="8.2348477"
     inkscape:cx="18.458143"
     inkscape:cy="32.058881"
     inkscape:window-width="1366"
     inkscape:window-height="737"
     inkscape:window-x="0"
     inkscape:window-y="0"
     inkscape:window-maximized="1"
     inkscape:current-layer="svg990"
     showguides="false" /><defs
     id="defs987"><style
       id="style1174">.a{fill:none;stroke:#fff;stroke-linecap:round;stroke-linejoin:round;}</style></defs><path
     id="path19058"
     style="fill:none;stroke:#ffffff;stroke-width:1;stroke-linecap:round;stroke-linejoin:round;stroke-dasharray:none;stroke-opacity:1;stop-color:#000000"
     d="M 15.889076,41.202301 18.4021,38.689279 M 32.188689,6.8760628 29.675665,9.3890859 m -11.274437,29.3002511 4.297239,4.297235 m 0,0 2.517252,2.517256 M 22.862047,2.5745392 25.379299,5.0917929 m 0,0 4.297236,4.2972369 M 25.217404,45.5073 c -0.390315,0.02116 -0.783253,0.03186 -1.178522,0.03186 -3.604711,0 -7.015397,-0.89074 -10.013649,-2.471208 m 0,0 C 10.19529,41.049088 7.0383032,37.904749 5.0094827,34.053931 m 0,0 C 3.6986864,31.565959 2.8588143,28.783076 2.6126365,25.818286 l 2.5081344,-2.61e-4 c 0.2135479,2.271098 0.8209656,4.417641 1.7508912,6.374652 m 0,0 c 1.8817005,3.960006 5.0839369,7.144003 9.0154659,9.013737 M 22.86036,2.5710659 c 0.390315,-0.021155 0.783253,-0.031865 1.178522,-0.031865 3.60485,0 7.015631,0.8908003 10.013936,2.4713544 m 0,0 c 3.82958,2.0187598 6.986284,5.1627727 9.015062,9.0131167 m 0,0 c 1.311624,2.489287 2.151808,5.27382 2.397578,8.240378 l -2.508235,-0.0013 c -0.213337,-2.271998 -0.820865,-4.419393 -1.751144,-6.377127 m 0,0 C 39.324492,11.925901 36.122534,8.7420486 32.191316,6.8722727 M 26.888631,32.074681 c 5.59865,-1.286929 10.680698,-4.733607 10.029724,-10.643552 -4.447193,-1.264586 -9.434658,3.160636 -10.384348,8.852943 -0.510807,-9.680846 -7.979946,-14.141776 -15.07269,-13.991705 -0.293819,7.03384 3.536562,13.949857 12.721098,15.494705 -0.650096,-4.336809 -4.856121,-7.982359 -8.831746,-11.673187 4.560431,3.608437 8.368972,7.394874 11.537962,11.960796 z" /></svg>
