<?xml version="1.0" encoding="UTF-8" standalone="no"?>
<!-- Created with Inkscape (http://www.inkscape.org/) -->

<svg
   width="48"
   height="48"
   viewBox="0 0 48 48"
   version="1.1"
   id="svg990"
   inkscape:version="1.2.2 (b0a8486541, 2022-12-01)"
   xml:space="preserve"
   sodipodi:docname="postfinance.svg"
   xmlns:inkscape="http://www.inkscape.org/namespaces/inkscape"
   xmlns:sodipodi="http://sodipodi.sourceforge.net/DTD/sodipodi-0.dtd"
   xmlns="http://www.w3.org/2000/svg"
   xmlns:svg="http://www.w3.org/2000/svg"><sodipodi:namedview
     id="namedview992"
     pagecolor="#858585"
     bordercolor="#000000"
     borderopacity="0.25"
     inkscape:showpageshadow="2"
     inkscape:pageopacity="0"
     inkscape:pagecheckerboard="0"
     inkscape:deskcolor="#d1d1d1"
     inkscape:document-units="px"
     showgrid="false"
     inkscape:zoom="11.645833"
     inkscape:cx="15.627907"
     inkscape:cy="24.042934"
     inkscape:window-width="1366"
     inkscape:window-height="737"
     inkscape:window-x="0"
     inkscape:window-y="0"
     inkscape:window-maximized="1"
     inkscape:current-layer="svg990" /><defs
     id="defs987"><style
   id="style1174">.a{fill:none;stroke:#fff;stroke-linecap:round;stroke-linejoin:round;}</style>
		
	
		
		
		
	</defs><path
     id="polyline6043"
     style="fill:none;stroke:#ffffff;stroke-width:0.529828;stroke-linecap:round;stroke-linejoin:round;stroke-miterlimit:10"
     class="st5"
     transform="matrix(1.8874049,0,-0.40099865,1.8874049,-150.40975,-60.366999)"
     d="m 104,48.7 v -8 h 4 m -10.708186,8 0,-8 h 2.6 c 1.499996,0 2.699996,1.2 2.699996,2.7 0,1.5 -1.2,2.7 -2.699996,2.7 h -2.6 M 104,44.700001 h 2.6 M 104,48.7 m 4.56381,-13.801818 H 91.079489 a 1.1781857,0.95305086 41.968101 0 0 -0.834521,1.059656 l 3.714725,17.484324 a 1.1781857,0.95305086 41.968101 0 0 1.284791,1.059656 h 17.484326 a 1.1781857,0.95305086 41.968101 0 0 0.83452,-1.059656 L 109.8486,35.957838 a 1.1781857,0.95305086 41.968101 0 0 -1.28479,-1.059656 z" /></svg>
