<?xml version="1.0" encoding="UTF-8" standalone="no"?>
<!-- Created with Inkscape (http://www.inkscape.org/) -->

<svg
   width="48"
   height="48"
   viewBox="0 0 48 48"
   version="1.1"
   id="svg990"
   inkscape:version="1.2.2 (b0a8486541, 2022-12-01)"
   xml:space="preserve"
   sodipodi:docname="public_services_culture.svg"
   xmlns:inkscape="http://www.inkscape.org/namespaces/inkscape"
   xmlns:sodipodi="http://sodipodi.sourceforge.net/DTD/sodipodi-0.dtd"
   xmlns="http://www.w3.org/2000/svg"
   xmlns:svg="http://www.w3.org/2000/svg"><sodipodi:namedview
     id="namedview992"
     pagecolor="#858585"
     bordercolor="#000000"
     borderopacity="0.25"
     inkscape:showpageshadow="2"
     inkscape:pageopacity="0"
     inkscape:pagecheckerboard="0"
     inkscape:deskcolor="#d1d1d1"
     inkscape:document-units="px"
     showgrid="false"
     inkscape:zoom="5.8229167"
     inkscape:cx="34.690519"
     inkscape:cy="22.497317"
     inkscape:window-width="1366"
     inkscape:window-height="737"
     inkscape:window-x="0"
     inkscape:window-y="0"
     inkscape:window-maximized="1"
     inkscape:current-layer="svg990" /><defs
     id="defs987"><style
       id="style1174">.a{fill:none;stroke:#fff;stroke-linecap:round;stroke-linejoin:round;}</style></defs><path
     id="path15863"
     style="fill:none;stroke:#fff;stroke-width:1;stroke-linecap:round;stroke-linejoin:round;stroke-dasharray:none;stroke-opacity:1;stop-color:#000000"
     d="m 19.751332,26.697406 c 0,0 0.981036,2.000077 3.280046,2.616188 2.29901,0.616111 4.149465,-0.625458 4.149465,-0.625458 M 26.632966,22.10549 c 1.231103,-0.753326 2.779724,-0.210977 3.61395,0.968356 M 19.67375,20.240775 c 1.231103,-0.753327 2.779723,-0.21098 3.613951,0.968354 m -5.450396,-7.82135 -2.551882,10.217491 c -1.04068,4.166788 0.318084,8.159254 6.096491,11.406884 6.628063,0.07668 9.801021,-2.701521 10.983158,-6.830405 L 35.263824,18.0572 c 0,0 -3.423839,-2.246039 -8.381103,-3.574335 -4.957264,-1.328295 -9.045416,-1.095086 -9.045416,-1.095086 z M 42.056665,24 c -1e-6,9.254717 -1.209567,11.402281 -9.028333,16.02964 -7.818765,4.627359 -10.2379,4.627359 -18.056665,10e-7 C 7.1529024,35.402281 5.9433353,33.254717 5.9433347,24 c 3e-7,-9.254717 1.2095678,-11.402282 9.0283323,-16.0296405 7.818765,-4.6273585 10.2379,-4.6273586 18.056665,1e-7 C 40.847098,12.597719 42.056665,14.745283 42.056665,24 Z" /></svg>
