<?xml version="1.0" encoding="UTF-8" standalone="no"?>
<!-- Created with Inkscape (http://www.inkscape.org/) -->

<svg
   width="48"
   height="48"
   viewBox="0 0 48 48"
   version="1.1"
   id="svg990"
   inkscape:version="1.2.2 (b0a8486541, 2022-12-01)"
   xml:space="preserve"
   sodipodi:docname="radiko.svg"
   xmlns:inkscape="http://www.inkscape.org/namespaces/inkscape"
   xmlns:sodipodi="http://sodipodi.sourceforge.net/DTD/sodipodi-0.dtd"
   xmlns="http://www.w3.org/2000/svg"
   xmlns:svg="http://www.w3.org/2000/svg"><sodipodi:namedview
     id="namedview992"
     pagecolor="#858585"
     bordercolor="#000000"
     borderopacity="0.25"
     inkscape:showpageshadow="2"
     inkscape:pageopacity="0"
     inkscape:pagecheckerboard="0"
     inkscape:deskcolor="#d1d1d1"
     inkscape:document-units="px"
     showgrid="false"
     inkscape:zoom="11.645833"
     inkscape:cx="15.627907"
     inkscape:cy="24.042934"
     inkscape:window-width="1366"
     inkscape:window-height="737"
     inkscape:window-x="0"
     inkscape:window-y="0"
     inkscape:window-maximized="1"
     inkscape:current-layer="svg990" /><defs
     id="defs987"><style
   id="style1174">.a{fill:none;stroke:#fff;stroke-linecap:round;stroke-linejoin:round;}</style>
		
		
	</defs><path
     id="path1178"
     class="a"
     inkscape:label="references"
     d="m 40.5,5.4999999 h -33 a 2,2 0 0 0 -1.9999999,2 V 40.5 A 2,2 0 0 0 7.5,42.5 h 33 a 2,2 0 0 0 2,-2 V 7.4999999 a 2,2 0 0 0 -2,-2 z M 25.145331,24.284346 a 4.6384258,4.6384258 0 0 1 1.740371,3.621639 4.6384258,4.6384258 0 0 1 -1.839994,3.699158 m 3.604101,-9.818254 a 8.8563957,8.8563957 0 0 1 2.453863,6.119096 8.8563957,8.8563957 0 0 1 -2.577371,6.245767 m 3.705215,-14.915698 a 13.223189,13.223189 0 0 1 3.23895,8.669932 v 0 A 13.223189,13.223189 0 0 1 32.075621,36.75225 M 15.089573,11.24775 v 24.789457 m 0,-15.608169 c 0,-5.049706 4.131577,-9.181283 9.181284,-9.181283 v 0" /></svg>
