<?xml version="1.0" encoding="UTF-8" standalone="no"?>
<!-- Created with Inkscape (http://www.inkscape.org/) -->

<svg
   width="48"
   height="48"
   viewBox="0 0 48 48"
   version="1.1"
   id="svg990"
   inkscape:version="1.2.2 (b0a8486541, 2022-12-01)"
   xml:space="preserve"
   sodipodi:docname="songsync.svg"
   xmlns:inkscape="http://www.inkscape.org/namespaces/inkscape"
   xmlns:sodipodi="http://sodipodi.sourceforge.net/DTD/sodipodi-0.dtd"
   xmlns="http://www.w3.org/2000/svg"
   xmlns:svg="http://www.w3.org/2000/svg"><sodipodi:namedview
     id="namedview992"
     pagecolor="#858585"
     bordercolor="#000000"
     borderopacity="0.25"
     inkscape:showpageshadow="2"
     inkscape:pageopacity="0"
     inkscape:pagecheckerboard="0"
     inkscape:deskcolor="#d1d1d1"
     inkscape:document-units="px"
     showgrid="false"
     inkscape:zoom="8.2348477"
     inkscape:cx="4.4931007"
     inkscape:cy="14.572218"
     inkscape:window-width="1366"
     inkscape:window-height="737"
     inkscape:window-x="0"
     inkscape:window-y="0"
     inkscape:window-maximized="1"
     inkscape:current-layer="svg990" /><defs
     id="defs987"><style
       id="style1174">.a{fill:none;stroke:#fff;stroke-linecap:round;stroke-linejoin:round;}</style></defs><path
     id="path13001"
     style="fill:none;stroke:#ffffff;stroke-width:0.999965;stroke-linecap:round;stroke-linejoin:round;stroke-dasharray:none;stroke-opacity:1;stop-color:#000000"
     d="m 39.18673,19.1146 c 0,-2.672338 -2.166358,-4.838695 -4.838696,-4.838695 -2.672338,0 -4.838698,2.166357 -4.838698,4.838695 0,2.672338 2.16636,4.838696 4.838698,4.838696 2.672338,0 4.838696,-2.166358 4.838696,-4.838696 V 6.865447 h 3.313287 M 13.189445,25.876934 h 5.13514 m -5.13514,-5.189635 H 23.459723 M 13.189445,15.497665 H 23.459723 M 31.149186,26.8053 v 4.127892 c 0,1.982999 -1.596424,3.579423 -3.579423,3.579423 H 11.9427 l -6.442718,6.622011 v 0 -30.687109 c 0,-1.9829987 1.5964244,-3.5794231 3.5794228,-3.5794231 H 27.569763 c 1.982999,0 3.579423,1.5964244 3.579423,3.5794231 v 0.978671 m -0.0066,15.386258 a 8.3696509,8.3696509 0 0 1 -5.084291,-7.697887 8.3696509,8.3696509 0 0 1 5.084094,-7.697803" /></svg>
