<?xml version="1.0" encoding="UTF-8" standalone="no"?>
<!-- Created with Inkscape (http://www.inkscape.org/) -->

<svg
   width="48"
   height="48"
   viewBox="0 0 48 48"
   version="1.1"
   id="svg990"
   inkscape:version="1.2.2 (b0a8486541, 2022-12-01)"
   xml:space="preserve"
   sodipodi:docname="sunbird.svg"
   xmlns:inkscape="http://www.inkscape.org/namespaces/inkscape"
   xmlns:sodipodi="http://sodipodi.sourceforge.net/DTD/sodipodi-0.dtd"
   xmlns="http://www.w3.org/2000/svg"
   xmlns:svg="http://www.w3.org/2000/svg"><sodipodi:namedview
     id="namedview992"
     pagecolor="#858585"
     bordercolor="#000000"
     borderopacity="0.25"
     inkscape:showpageshadow="2"
     inkscape:pageopacity="0"
     inkscape:pagecheckerboard="0"
     inkscape:deskcolor="#d1d1d1"
     inkscape:document-units="px"
     showgrid="false"
     inkscape:zoom="5.8229167"
     inkscape:cx="-8.0715563"
     inkscape:cy="22.325581"
     inkscape:window-width="1366"
     inkscape:window-height="737"
     inkscape:window-x="0"
     inkscape:window-y="0"
     inkscape:window-maximized="1"
     inkscape:current-layer="svg990" /><defs
     id="defs987"><style
       id="style1174">.a{fill:none;stroke:#fff;stroke-linecap:round;stroke-linejoin:round;}</style></defs><path
     id="path25134"
     style="fill:none;stroke:#fff;stroke-width:1;stroke-linecap:round;stroke-linejoin:round;stroke-dasharray:none;stroke-opacity:1;stop-color:#000000"
     d="m 27.029925,20.333366 a 2.0078754,2.0078754 0 0 1 -2.007874,2.007876 2.0078754,2.0078754 0 0 1 -2.007876,-2.007876 2.0078754,2.0078754 0 0 1 2.007876,-2.007876 2.0078754,2.0078754 0 0 1 2.007874,2.007876 z m -8.181193,13.91605 C 12.206128,34.408921 8.3618598,27.235652 8.0911218,20.661084 7.8381678,14.518377 12.649391,5.039837 23.829719,4.5133088 30.925717,4.1791286 39.002403,10.279263 39.857223,18.956765 40.342719,23.885176 37.853866,29.723217 34.783882,31.94864 L 18.848732,43.499994 V 34.249416 20.685322 c 0,-2.868298 2.207512,-5.843187 5.62123,-5.904297 3.189276,-0.0571 5.181133,2.634432 5.653975,5.394821 h 3.984667 l -4.013702,4.474411 c -0.142527,6.581275 -6.719076,10.600629 -11.24617,9.599159 z" /></svg>
