<?xml version="1.0" encoding="UTF-8" standalone="no"?>
<!-- Created with Inkscape (http://www.inkscape.org/) -->

<svg
   width="48"
   height="48"
   viewBox="0 0 48 48"
   version="1.1"
   id="svg990"
   inkscape:version="1.2.2 (b0a8486541, 2022-12-01)"
   xml:space="preserve"
   sodipodi:docname="super_sus.svg"
   xmlns:inkscape="http://www.inkscape.org/namespaces/inkscape"
   xmlns:sodipodi="http://sodipodi.sourceforge.net/DTD/sodipodi-0.dtd"
   xmlns="http://www.w3.org/2000/svg"
   xmlns:svg="http://www.w3.org/2000/svg"><sodipodi:namedview
     id="namedview992"
     pagecolor="#858585"
     bordercolor="#000000"
     borderopacity="0.25"
     inkscape:showpageshadow="2"
     inkscape:pageopacity="0"
     inkscape:pagecheckerboard="0"
     inkscape:deskcolor="#d1d1d1"
     inkscape:document-units="px"
     showgrid="false"
     inkscape:zoom="11"
     inkscape:cx="4.4545455"
     inkscape:cy="24.272727"
     inkscape:window-width="1366"
     inkscape:window-height="737"
     inkscape:window-x="0"
     inkscape:window-y="0"
     inkscape:window-maximized="1"
     inkscape:current-layer="svg990" /><defs
     id="defs987"><style
       id="style1174">.a{fill:none;stroke:#fff;stroke-linecap:round;stroke-linejoin:round;}</style></defs><path
     id="path21262"
     style="fill:none;stroke:#fff;stroke-width:1;stroke-linecap:round;stroke-linejoin:round;stroke-dasharray:none;stroke-opacity:1;stop-color:#000000"
     d="M 31.101158,15.449962 C 30.373639,13.3992 27.157275,11.414885 23.474802,11.76906 c -3.788757,0.364399 -6.672351,3.170211 -7.053566,6.425469 -0.253689,2.166298 1.038307,1.685754 1.427001,0.735354 1.047032,-2.560102 4.864807,-4.942534 7.419074,-5.051408 1.604541,-0.0684 3.484616,0.421859 4.695846,1.14946 0.464328,0.278928 0.881807,0.713315 1.138001,0.422027 v 0 M 22.344401,29.826325 A 10.328069,10.134312 0 0 1 14.05,19.890421 10.328069,10.134312 0 0 1 24.378069,9.7561092 10.328069,10.134312 0 0 1 34.706138,19.890421 v 0 a 10.328069,10.134312 0 0 1 -7.662933,9.791085 m 8.96626,-4.624021 c -0.141421,1.212782 -0.748435,2.42399 -1.702854,3.140369 l -0.669469,-0.450999 c -0.231785,-1.155277 0.353719,-2.657307 1.540108,-3.160574 0.398909,0.02571 0.589313,0.276834 0.832215,0.471204 v 0 m 0.139897,-6.105251 c -0.7975,0.421112 -0.789644,4.240559 -0.39424,4.499078 l 1.115622,0.01671 c 0.43384,-1.331414 0.513908,-3.280497 0.179925,-4.430517 l -0.901307,-0.08527 v 0 m -23.407822,6.10525 c 0.141421,1.212782 0.748435,2.42399 1.702854,3.140369 l 0.669469,-0.450999 c 0.231785,-1.155277 -0.353719,-2.657307 -1.540108,-3.160574 -0.398909,0.02571 -0.589313,0.276834 -0.832215,0.471204 v 0 m -0.139897,-6.105251 c 0.7975,0.421112 0.789644,4.240559 0.39424,4.499078 l -1.115622,0.01671 c -0.43384,-1.331414 -0.513908,-3.280497 -0.179925,-4.430517 l 0.901307,-0.08527 v 0 m 8.264807,20.051011 4.298725,3.155091 m -6.58089,-2.404482 1.085839,-1.628664 m 0,0 1.196326,0.878055 c 0.368612,-1.913154 0.379562,-3.964251 0.384142,-6.014541 0.0019,-0.864231 0.335038,-1.482599 0.886737,-1.945842 0.403778,-2.01837 0.479626,-3.604718 0.571527,-5.97739 0.03553,-0.917286 0.0902,-2.045445 0.908643,-2.190796 1.660411,-0.294882 2.035197,1.11804 2.174615,2.080631 0.204788,1.41393 -0.399505,2.531306 -0.609937,3.792358 m -5.00019,13.65278 c -0.52977,-0.417549 -1.021491,-0.805236 -1.405416,-1.107977 -0.402443,0.392267 -0.766831,0.796207 -1.109298,1.206869 M 28.405776,31.1499 c 0.450921,-0.629391 1.53023,-0.583604 1.8764,-0.0406 0.111815,0.323015 0.11614,0.50771 -0.07883,0.928026 -0.728279,0.455103 -1.40218,1.242922 -2.095177,1.913877 0.309984,-0.986313 0.390792,-2.055458 0.297607,-2.801303 m 0,0 c -0.01471,-0.117724 -0.03375,-0.227394 -0.05691,-0.327412 -0.107804,-0.465544 -1.492692,-1.32898 -2.493381,-1.839017 -0.199926,-0.1019 -0.426971,-0.212548 -0.673308,-0.235806 m -0.66139,5.139485 0.564586,-1.144161 0.778686,0.880064 c -0.756206,0.453683 -0.646338,0.735908 -0.556294,1.018993 0.375666,1.381494 0.88736,2.584182 0.331902,4.154862 M 12.896771,34.499299 c 1.046296,0.533566 1.993723,1.834468 2.329508,3.645186 0.259673,1.400285 0.382481,3.010695 0.733491,4.359427 m -0.590739,-9.079646 c -0.5101,-0.361928 -1.087317,-0.628769 -1.73672,-0.761611 m 0,0 c -0.183945,-0.03763 -0.373682,-0.0645 -0.569327,-0.07975 C 10.865425,32.41171 8.9786838,34.049779 9.9143528,35.56477 M 9.676158,42.503867 c 0.046463,-1.974285 0.2152584,-4.013353 1.230285,-5.78187 -0.304696,-0.327627 -0.616511,-0.671168 -0.9920902,-1.157227 0.7275752,-1.351778 1.9072072,-1.613789 2.9824182,-1.065476 -0.886131,0.663099 -1.52656,1.414665 -1.990328,2.222703 m 6.45467,-5.05372 0.549446,-0.965637 m 10.582528,0.09727 c 2.494805,-0.482749 4.289565,-1.494144 5.545981,-2.784574 m 1.899379,-3.025882 c 0.187761,-0.501418 0.33148,-1.013688 0.436542,-1.528487 m 0.05585,-4.4826 C 35.595221,13.778237 31.734274,8.4387852 24.417797,8.4387852 c -7.312847,0 -11.173593,5.3341558 -12.0118,10.5318428 m 0.05408,4.487743 c 0.101392,0.497437 0.238867,0.992523 0.417284,1.477756 m 1.886241,3.045199 c 1.538886,1.598512 3.89549,2.775397 7.373729,3.061526 l 2.258612,-2.009171 C 24.672014,28.7881 24.936676,28.72448 25.182177,28.74766 m -8.358839,4.279073 0.537775,-1.358456 c -1.652839,-0.110631 -3.128934,0.0082 -3.728802,0.994378 m 5.14426,8.629808 C 18.291298,40.909806 17.978242,40.66286 17.978242,40.66286 l 0.606043,-0.909011 c -0.236346,-1.998221 -1.204319,-4.902787 -3.215254,-6.329588 0.410952,-0.331877 0.916361,-0.408646 1.454307,-0.397528 m 19.330484,1.548299 c -0.998161,2.925006 -2.671225,5.433295 -5.106615,7.924824 m 2.202738,-8.882175 c 0.13379,-0.28588 0.262056,-0.572839 0.384998,-0.860527 0.242155,-0.566649 0.686328,-0.84681 1.167479,-0.852456 m 5.628636,10.228783 C 39.490616,39.007509 38.376161,35.998415 36.153822,34.575032 36.396548,33.863749 36.644552,33.12116 35.96898,32.437274 35.615846,32.079793 35.196717,31.90007 34.802422,31.904698 33.743095,31.677213 32.668976,31.501086 31.49996,31.654526 l -0.287716,-0.850704 -2.719157,-0.0039 m -1.719049,9.289044 c -0.387176,0.778552 -0.956783,1.557955 -1.608863,2.06937 l 0.464768,0.341121 m 1.075205,0.015 c 1.740745,-1.147816 5.23446,-6.096885 6.544797,-8.896772 -0.313096,-0.437129 -0.75101,-0.590314 -1.272886,-0.552491 m 0,0 -0.477099,-1.410664 m -6.192195,2.98752 c 0.208721,0.656186 0.893959,0.469393 1.74792,0.05677 0.522136,-0.25229 0.713087,-0.528188 1.052484,-0.747613 -0.330453,1.396649 -0.915645,2.818308 -0.808581,4.171704 0.0401,0.5069 -0.162543,1.236109 -0.52555,1.966059 M 40.5,5.4999999 h -33 a 2,2 0 0 0 -1.9999999,2 V 40.5 A 2,2 0 0 0 7.5,42.5 h 33 a 2,2 0 0 0 2,-2 V 7.4999999 a 2,2 0 0 0 -2,-2 z" /></svg>
