<?xml version="1.0" encoding="UTF-8" standalone="no"?>
<!-- Created with Inkscape (http://www.inkscape.org/) -->

<svg
   width="48"
   height="48"
   viewBox="0 0 48 48"
   version="1.1"
   id="svg990"
   inkscape:version="1.2.2 (b0a8486541, 2022-12-01)"
   xml:space="preserve"
   sodipodi:docname="us_mobile.svg"
   xmlns:inkscape="http://www.inkscape.org/namespaces/inkscape"
   xmlns:sodipodi="http://sodipodi.sourceforge.net/DTD/sodipodi-0.dtd"
   xmlns="http://www.w3.org/2000/svg"
   xmlns:svg="http://www.w3.org/2000/svg"><sodipodi:namedview
     id="namedview992"
     pagecolor="#858585"
     bordercolor="#000000"
     borderopacity="0.25"
     inkscape:showpageshadow="2"
     inkscape:pageopacity="0"
     inkscape:pagecheckerboard="0"
     inkscape:deskcolor="#d1d1d1"
     inkscape:document-units="px"
     showgrid="false"
     inkscape:zoom="11.645833"
     inkscape:cx="15.198569"
     inkscape:cy="24.987478"
     inkscape:window-width="1366"
     inkscape:window-height="737"
     inkscape:window-x="0"
     inkscape:window-y="0"
     inkscape:window-maximized="1"
     inkscape:current-layer="svg990" /><defs
     id="defs987"><style
       id="style1174">.a{fill:none;stroke:#fff;stroke-linecap:round;stroke-linejoin:round;}</style></defs><path
     id="path10622-0"
     style="fill:none;stroke:#ffffff;stroke-width:0.908981;stroke-linecap:round;stroke-linejoin:round;stroke-opacity:1;stop-color:#000000"
     transform="matrix(1.100133,0,0,1.100133,-8.98332,9.2643338)"
     d="m 27.181211,13.099118 0.194155,0.56364 0.596051,0.01048 -0.476056,0.358826 0.174224,0.570116 -0.488374,-0.341873 -0.488373,0.341873 0.174224,-0.570116 -0.476056,-0.358827 0.596051,-0.01048 z m 5.6,0 0.194155,0.56364 0.596051,0.01048 -0.476056,0.358826 0.174224,0.570116 -0.488374,-0.341873 -0.488373,0.341873 0.174224,-0.570116 -0.476056,-0.358827 0.596051,-0.01048 z m -2.8,0 0.194155,0.56364 0.596051,0.01048 -0.476056,0.358826 0.174224,0.570116 -0.488374,-0.341873 -0.488373,0.341873 0.174224,-0.570116 -0.476056,-0.358827 0.596051,-0.01048 z m 1.650001,2.735754 v 3.764154 m -3.3,-3.764154 v 3.764154 M 26.05756,15.730934 h 7.73037 M 32.390497,11.05541 C 33.953464,9.9015457 34.90042,8.4814774 35.121472,6.7477416 h 12.58487 l -0.692286,1.3743593 -3.505009,1.5695066 m 2.818792,0 -0.768873,1.3186715 -6.826856,1.735557 m 5.600883,0 -1.146474,1.2812 -7.643253,1.594576 m 5.98585,0 -1.566469,1.233428 -7.468556,1.700386 m 4.100947,0 c -1.618608,0.772141 -3.417791,1.154226 -5.239333,1.48799 l 4.540176,-7.863814 M 32.390497,11.05541 31.55999,6.7454828 h -3.688028 c -0.61261,0 -0.698261,0.4634385 -0.725771,0.8171512 0.686972,-0.6337525 1.631387,-0.4199074 2.190278,1.5229949 L 28.092671,11.415425 C 26.219114,10.20076 25.085568,8.6663087 24.84095,6.7477416 H 12.256081 l 0.692285,1.3743593 3.505009,1.5695066 m -2.818792,0 0.768873,1.3186715 6.826856,1.735557 m -5.600883,0 1.146473,1.2812 7.643255,1.594576 m -5.985851,0 1.566469,1.233428 7.468556,1.700386 m -4.100947,0 c 1.618608,0.772141 3.417791,1.154226 5.239333,1.48799 l -4.539958,-7.863437 h 11.780264" /></svg>
