<?xml version="1.0" encoding="UTF-8" standalone="no"?>
<!-- Created with Inkscape (http://www.inkscape.org/) -->

<svg
   width="48"
   height="48"
   viewBox="0 0 48 48"
   version="1.1"
   id="svg990"
   inkscape:version="1.2.2 (b0a8486541, 2022-12-01)"
   xml:space="preserve"
   sodipodi:docname="waterydroid.svg"
   xmlns:inkscape="http://www.inkscape.org/namespaces/inkscape"
   xmlns:sodipodi="http://sodipodi.sourceforge.net/DTD/sodipodi-0.dtd"
   xmlns="http://www.w3.org/2000/svg"
   xmlns:svg="http://www.w3.org/2000/svg"><sodipodi:namedview
     id="namedview992"
     pagecolor="#858585"
     bordercolor="#000000"
     borderopacity="0.25"
     inkscape:showpageshadow="2"
     inkscape:pageopacity="0"
     inkscape:pagecheckerboard="0"
     inkscape:deskcolor="#d1d1d1"
     inkscape:document-units="px"
     showgrid="false"
     inkscape:zoom="4.1174239"
     inkscape:cx="14.086478"
     inkscape:cy="44.202396"
     inkscape:window-width="1366"
     inkscape:window-height="737"
     inkscape:window-x="0"
     inkscape:window-y="0"
     inkscape:window-maximized="1"
     inkscape:current-layer="svg990" /><defs
     id="defs987"><style
       id="style1174">.a{fill:none;stroke:#fff;stroke-linecap:round;stroke-linejoin:round;}</style></defs><path
     id="path13019"
     style="fill:none;stroke:#ffffff;stroke-width:1.00024;stroke-linecap:round;stroke-linejoin:round;stroke-dasharray:none;stop-color:#000000"
     d="m 12.298244,16.643101 c -0.490751,-0.490751 -0.794287,-1.168718 -0.794287,-1.91758 0,-1.497724 1.214144,-2.711869 2.711868,-2.711869 0.748862,0 1.42683,0.303537 1.917581,0.794288 M 30.844192,11.539656 V 9.5913715 m 0,4.6022045 v -2.65392 H 19.767751 V 8.4237668 m -2.49e-4,0.2799494 11.076441,1.1674927 m 2.49e-4,-0.2799494 V 7.2996159 c 0,-1.5509198 -1.248574,-2.7994942 -2.799494,-2.7994942 h -5.477453 c -1.550919,0 -2.799494,1.2485744 -2.799494,2.7994942 v 1.1242629 m 0,3.1157772 v 2.65392 m 11.076441,0 H 19.767751 m 0.360466,-7.691515 3.54059,0.373244 m 2.385063,0.2513932 4.790322,0.5049153 M 29.703583,30.277566 c 0,2.428735 -1.968879,4.397614 -4.397613,4.397614 -2.428735,0 -4.397614,-1.968879 -4.397614,-4.397614 0,-2.428735 3.182444,-6.917046 4.397614,-6.917046 1.215169,0 4.397613,4.488311 4.397613,6.917046 z m 6.79246,-0.359462 v 8.682659 c 0,2.71411 -2.185005,4.899115 -4.899114,4.899115 H 19.015012 c -2.71411,0 -4.899115,-2.185005 -4.899115,-4.899115 V 19.092156 c 0,-2.714109 2.185005,-4.898465 4.899115,-4.89858 l 12.581917,-5.35e-4 c 2.714109,-1.14e-4 4.899114,2.185006 4.899114,4.899115 v 7.993826" /></svg>
