<?xml version="1.0" encoding="UTF-8" standalone="no"?>
<!-- Created with Inkscape (http://www.inkscape.org/) -->

<svg
   width="48"
   height="48"
   viewBox="0 0 48 48"
   version="1.1"
   id="svg990"
   inkscape:version="1.2.2 (b0a8486541, 2022-12-01)"
   xml:space="preserve"
   sodipodi:docname="widgeet.svg"
   xmlns:inkscape="http://www.inkscape.org/namespaces/inkscape"
   xmlns:sodipodi="http://sodipodi.sourceforge.net/DTD/sodipodi-0.dtd"
   xmlns="http://www.w3.org/2000/svg"
   xmlns:svg="http://www.w3.org/2000/svg"><sodipodi:namedview
     id="namedview992"
     pagecolor="#858585"
     bordercolor="#000000"
     borderopacity="0.25"
     inkscape:showpageshadow="2"
     inkscape:pageopacity="0"
     inkscape:pagecheckerboard="0"
     inkscape:deskcolor="#d1d1d1"
     inkscape:document-units="px"
     showgrid="false"
     inkscape:zoom="11.645833"
     inkscape:cx="15.627907"
     inkscape:cy="24.042934"
     inkscape:window-width="1366"
     inkscape:window-height="737"
     inkscape:window-x="0"
     inkscape:window-y="0"
     inkscape:window-maximized="1"
     inkscape:current-layer="svg990" /><defs
     id="defs987"><style
       id="style1174">.a{fill:none;stroke:#fff;stroke-linecap:round;stroke-linejoin:round;}</style></defs><path
     id="rect19875"
     style="fill:none;stroke:#ffffff;stroke-width:1.00009;stroke-linecap:round;stroke-linejoin:round;stroke-dasharray:none;stroke-opacity:1;stop-color:#000000"
     d="m 26.57998,22.595414 h 13.593893 c 0.624998,0 1.128154,0.503157 1.128154,1.128155 v 17.648233 c 0,0.624998 -0.503156,1.128155 -1.128154,1.128155 H 26.57998 c -0.624997,0 -1.128154,-0.503157 -1.128154,-1.128155 V 23.723569 c 0,-0.624998 0.503157,-1.128155 1.128154,-1.128155 z m -14.182623,8.144461 h 7.965177 c 0.624997,0 1.128154,0.503158 1.128154,1.128155 v 7.965177 c 0,0.624997 -0.503157,1.128154 -1.128154,1.128154 h -7.965177 c -0.624998,0 -1.128156,-0.503157 -1.128156,-1.128154 V 31.86803 c 0,-0.624997 0.503158,-1.128155 1.128156,-1.128155 z M 26.481625,5.5000434 h 10.904771 c 0.624997,0 1.128154,0.5031569 1.128154,1.1281545 V 17.532969 c 0,0.624998 -0.503157,1.128154 -1.128154,1.128154 H 26.481625 c -0.624998,0 -1.128156,-0.503156 -1.128156,-1.128154 V 6.6281979 c 0,-0.6249976 0.503158,-1.1281545 1.128156,-1.1281545 z M 7.8261278,6.7524139 H 20.200165 c 0.624998,0 1.128154,0.503157 1.128154,1.1281546 V 25.704106 c 0,0.624997 -0.503156,1.128155 -1.128154,1.128155 H 7.8261278 c -0.6249976,0 -1.1281545,-0.503158 -1.1281545,-1.128155 V 7.8805685 c 0,-0.6249976 0.5031569,-1.1281546 1.1281545,-1.1281546 z" /></svg>
