<?xml version="1.0" encoding="UTF-8" standalone="no"?>
<!-- Created with Inkscape (http://www.inkscape.org/) -->

<svg
   width="48"
   height="48"
   viewBox="0 0 48 48"
   version="1.1"
   id="svg990"
   inkscape:version="1.2.2 (b0a8486541, 2022-12-01)"
   xml:space="preserve"
   sodipodi:docname="xhs.svg"
   xmlns:inkscape="http://www.inkscape.org/namespaces/inkscape"
   xmlns:sodipodi="http://sodipodi.sourceforge.net/DTD/sodipodi-0.dtd"
   xmlns="http://www.w3.org/2000/svg"
   xmlns:svg="http://www.w3.org/2000/svg"><sodipodi:namedview
     id="namedview992"
     pagecolor="#858585"
     bordercolor="#000000"
     borderopacity="0.25"
     inkscape:showpageshadow="2"
     inkscape:pageopacity="0"
     inkscape:pagecheckerboard="0"
     inkscape:deskcolor="#d1d1d1"
     inkscape:document-units="px"
     showgrid="false"
     inkscape:zoom="8.2348477"
     inkscape:cx="28.537261"
     inkscape:cy="28.172956"
     inkscape:window-width="1366"
     inkscape:window-height="737"
     inkscape:window-x="0"
     inkscape:window-y="0"
     inkscape:window-maximized="1"
     inkscape:current-layer="svg990" /><defs
     id="defs987"><style
       id="style1174">.a{fill:none;stroke:#fff;stroke-linecap:round;stroke-linejoin:round;}</style></defs><path
     id="path17952"
     style="fill:none;stroke:#fff;stroke-width:1;stroke-linecap:round;stroke-linejoin:round;stroke-dasharray:none;stroke-opacity:1;stop-color:#000000"
     d="m 41.90668,18.384949 c 0.794864,0.303689 1.273298,0.849631 1.593282,1.619022 M 35.313495,17.25297 v 13.49406 m -3.682223,-6.542218 h 10.011804 c 0.621959,0 1.122669,0.50071 1.122669,1.12267 v 3.583158 c 0,0.621959 -0.50071,1.122671 -1.122669,1.122671 H 39.826768 M 32.641675,19.152733 h 5.85801 c 0.621959,0 1.12267,0.500711 1.12267,1.122671 v 3.583157 m -12.243761,-4.715692 1e-6,10.890922 m -3.942818,-4.8e-4 h 7.341142 M 24.670715,19.143406 h 5.208068 M 17.67332,29.816874 c 0.48662,0.177572 1.493454,0.256386 3.235106,0.211771 m 1.379981,-8.243484 h -1.850703 c -1.412828,0 -1.703502,0.152218 -1.122166,-1.122671 l 1.533642,-3.363333 m 1.326961,8.976624 h -1.064796 c -1.412829,0 -1.703502,0.152218 -1.122167,-1.12267 l 1.533643,-3.363336 M 10.13451,17.533638 V 29.02751 c 0,0.62196 -0.5007106,1.122671 -1.1226696,1.122671 h -1.010538 m 6.7150376,-9.04859 c 0,2.544662 0.272834,5.854607 0.950209,7.107006 M 5.4502474,21.101591 c 0,2.544662 -0.2728355,5.854607 -0.9502099,7.107006" /></svg>
