<?xml version="1.0" encoding="UTF-8" standalone="no"?>
<svg
   viewBox="0 0 48 48"
   version="1.1"
   id="svg1"
   sodipodi:docname="delivery_club.svg"
   inkscape:version="1.3.2 (091e20ef0f, 2023-11-25)"
   xml:space="preserve"
   xmlns:inkscape="http://www.inkscape.org/namespaces/inkscape"
   xmlns:sodipodi="http://sodipodi.sourceforge.net/DTD/sodipodi-0.dtd"
   xmlns="http://www.w3.org/2000/svg"
   xmlns:svg="http://www.w3.org/2000/svg"><sodipodi:namedview
     id="namedview1"
     pagecolor="#505050"
     bordercolor="#eeeeee"
     borderopacity="1"
     inkscape:showpageshadow="0"
     inkscape:pageopacity="0"
     inkscape:pagecheckerboard="0"
     inkscape:deskcolor="#505050"
     inkscape:zoom="8.90625"
     inkscape:cx="33.403509"
     inkscape:cy="51.480702"
     inkscape:window-width="1918"
     inkscape:window-height="1053"
     inkscape:window-x="0"
     inkscape:window-y="0"
     inkscape:window-maximized="1"
     inkscape:current-layer="svg1" /><defs
     id="defs1"><style
       id="style1">.a { fill:none;stroke:#fff;stroke-linecap:round;stroke-linejoin:round; }
</style></defs><path
     id="path2"
     style="fill:none;fill-opacity:0.266292;stroke:#fff;stroke-width:1stroke-linecap:round;stroke-linejoin:round;stroke-opacity:1"
     d="m 13.479819,23.007726 7.969903,-3.732899 -1.7384,5.042961 7.31941,-4.039638 c -0.965528,1.270386 -2.973965,4.912272 -1.874247,5.668508 1.550198,1.066015 4.856293,-1.458613 7.513349,-3.375321 M 19.495986,16.84953 c -3.734406,-0.742759 -7.897876,0.694353 -9.7731749,4.529036 -1.629034,3.33111 -0.744408,6.267508 2.1415609,4.932554 1.804777,1.197432 3.561863,0.723234 5.182026,-0.943289 l 1.410711,1.171529 -3.501173,2.328492 -2.867097,8.123629 c -2.2485659,0.500618 -3.9771469,2.83047 -4.0123859,5.935246 -0.0069,0.608632 0.591241,0.720063 0.93254,0.38808 1.9142789,-1.862031 2.6914629,-2.570867 4.1247279,-3.757199 0.552811,-0.457569 0.858474,-1.159845 1.234333,-1.857653 l 3.488847,-6.47729 c 0.217093,-0.403048 0.622508,-0.567924 0.955779,-0.645833 l 7.247045,-1.694157 -0.477316,4.877814 c -0.08245,0.842505 0.225025,1.884247 1.475203,2.069169 l 6.287905,0.930091 c 1.705541,2.273856 3.276907,3.963385 6.091701,3.270256 0.352962,-0.08692 0.852473,-0.654326 0.09363,-1.387026 L 36.885107,36.08837 c -2.163761,-2.089232 -3.471999,-1.695419 -7.81021,-2.775718 l 0.861134,-3.735237 c 3.430165,0.169749 6.69493,-0.789363 6.224971,-5.502495 2.709804,-2.222906 4.743802,-5.551919 2.859957,-10.038109 -0.858047,-2.043353 -5.351071,-5.6891107 -2.771624,-7.0135147 l 1.862239,-0.108441 c 0.34395,-0.02003 0.673796,-0.901792 0.337195,-0.975164 L 37.308234,5.6910783 C 35.80369,5.6883783 36.390038,4.6864029 34.789095,4.511734 33.374043,4.3573466 32.495137,5.7010863 32.423102,6.5478613 c -0.255833,3.007308 1.277577,4.0126577 2.803486,6.1307187 2.604653,3.615425 1.603432,6.795568 -2.286657,5.924062 -1.847996,-0.439508 -2.876323,-1.415615 -4.76573,-2.047422 -2.849563,-0.952877 -5.725997,-0.736568 -8.67822,0.29431 z" /></svg>
