<?xml version="1.0" encoding="UTF-8" standalone="no"?>
<svg
   viewBox="0 0 48 48"
   version="1.1"
   id="svg1"
   sodipodi:docname="elife_connect.svg"
   inkscape:version="1.3.2 (091e20ef0f, 2023-11-25)"
   xml:space="preserve"
   xmlns:inkscape="http://www.inkscape.org/namespaces/inkscape"
   xmlns:sodipodi="http://sodipodi.sourceforge.net/DTD/sodipodi-0.dtd"
   xmlns="http://www.w3.org/2000/svg"
   xmlns:svg="http://www.w3.org/2000/svg"><sodipodi:namedview
     id="namedview1"
     pagecolor="#505050"
     bordercolor="#eeeeee"
     borderopacity="1"
     inkscape:showpageshadow="0"
     inkscape:pageopacity="0"
     inkscape:pagecheckerboard="0"
     inkscape:deskcolor="#505050"
     inkscape:zoom="17.8125"
     inkscape:cx="24.617544"
     inkscape:cy="25.515789"
     inkscape:window-width="1918"
     inkscape:window-height="1053"
     inkscape:window-x="0"
     inkscape:window-y="0"
     inkscape:window-maximized="1"
     inkscape:current-layer="svg1" /><defs
     id="defs1"><style
       id="style1">.a { fill:none;stroke:#fff;stroke-linecap:round;stroke-linejoin:round; }
</style></defs><path
     id="path12"
     style="fill:none;fill-opacity:0.266292;stroke:#fff;stroke-width:1stroke-linecap:round;stroke-linejoin:round;stroke-opacity:1"
     d="m 37.856302,38.474342 v 1.519253 M 15.506465,38.474342 v 1.519253 m 23.133489,-7.507871 a 0.99833654,1.0003289 0 0 1 -0.998337,1.000329 0.99833654,1.0003289 0 0 1 -0.998336,-1.000329 0.99833654,1.0003289 0 0 1 0.998336,-1.000327 0.99833654,1.0003289 0 0 1 0.998337,1.000327 z m -5.549192,0 a 0.99833654,1.0003289 0 0 1 -0.998337,1.000329 0.99833654,1.0003289 0 0 1 -0.998337,-1.000329 0.99833654,1.0003289 0 0 1 0.998337,-1.000327 0.99833654,1.0003289 0 0 1 0.998337,1.000327 z m -5.549191,0 a 0.99833654,1.0003289 0 0 1 -0.998337,1.000329 0.99833654,1.0003289 0 0 1 -0.998335,-1.000329 0.99833654,1.0003289 0 0 1 0.998335,-1.000327 0.99833654,1.0003289 0 0 1 0.998337,1.000327 z m -2.117058,-19.39148 h 15.34873 c 1.510623,0 2.726758,1.218562 2.726758,2.732198 v 19.833902 c 0,1.513636 -1.216135,2.732199 -2.726758,2.732199 h -28.18372 c -1.510622,0 -2.7267571,-1.218563 -2.7267571,-2.732199 V 28.976107 M 21.169562,23.713924 a 0.99833654,1.0003289 0 0 1 -0.998337,1.00033 0.99833654,1.0003289 0 0 1 -0.998336,-1.00033 0.99833654,1.0003289 0 0 1 0.998336,-1.000329 0.99833654,1.0003289 0 0 1 0.998337,1.000329 z m -6.650385,0.241097 a 6.7310792,6.744512 0 0 1 5.892664,-5.909074 M 9.7031769,23.956122 A 11.527734,11.550739 0 0 1 20.412673,13.220094 M 4.4999991,23.957004 A 16.722527,16.755899 0 0 1 20.413774,8.0064045" /></svg>
