<?xml version="1.0" encoding="UTF-8" standalone="no"?>
<svg
   viewBox="0 0 48 48"
   version="1.1"
   id="svg1"
   sodipodi:docname="etisalat_cash.svg"
   inkscape:version="1.3.2 (091e20ef0f, 2023-11-25)"
   xml:space="preserve"
   xmlns:inkscape="http://www.inkscape.org/namespaces/inkscape"
   xmlns:sodipodi="http://sodipodi.sourceforge.net/DTD/sodipodi-0.dtd"
   xmlns="http://www.w3.org/2000/svg"
   xmlns:svg="http://www.w3.org/2000/svg"><sodipodi:namedview
     id="namedview1"
     pagecolor="#505050"
     bordercolor="#eeeeee"
     borderopacity="1"
     inkscape:showpageshadow="0"
     inkscape:pageopacity="0"
     inkscape:pagecheckerboard="0"
     inkscape:deskcolor="#505050"
     inkscape:zoom="12.59534"
     inkscape:cx="15.7201"
     inkscape:cy="13.219175"
     inkscape:window-width="1918"
     inkscape:window-height="1053"
     inkscape:window-x="0"
     inkscape:window-y="0"
     inkscape:window-maximized="1"
     inkscape:current-layer="svg1" /><defs
     id="defs1"><style
       id="style1">.a { fill:none;stroke:#fff;stroke-linecap:round;stroke-linejoin:round; }
</style></defs><path
     id="path4"
     style="fill:none;fill-opacity:0.266292;stroke:#fff;stroke-width:1stroke-linecap:round;stroke-linejoin:round;stroke-opacity:1"
     d="m 24.796885,6.528609 c 0.12583,2.0580988 -1.144006,4.890988 -2.986408,4.971945 -1.715665,0.07539 -2.334286,-0.699184 -2.245846,-2.1176372 m -3.498543,6.1611752 c 0.316136,-2.947178 1.978586,-5.472493 3.545549,-6.2963372 L 27.922983,4.7770607 M 26.705948,12.841415 C 24.759244,5.7071877 28.017892,2.315206 32.320928,6.0078121 l -5.59459,6.3286209 m -5.410445,27.943342 a 0.75492271,0.74958094 0 0 1 -0.754923,0.749581 0.75492271,0.74958094 0 0 1 -0.754922,-0.749581 0.75492271,0.74958094 0 0 1 0.754922,-0.749581 0.75492271,0.74958094 0 0 1 0.754923,0.749581 z m -4.418145,-24.963274 8.889527,-2.759722 c 0.644374,-0.200044 1.218655,0.539674 1.218655,1.210032 v 28.492727 c 0,0.670358 -0.574281,1.410076 -1.218655,1.210032 L 16.897748,40.709848 C 16.253374,40.509805 15.679093,40.170174 15.679093,39.499817 V 16.526532 c 0,-0.670357 0.574281,-1.009988 1.218655,-1.210031 z" /></svg>
