<?xml version="1.0" encoding="UTF-8" standalone="no"?>
<svg
   viewBox="0 0 48 48"
   version="1.1"
   id="svg1"
   sodipodi:docname="etisalat_business.svg"
   inkscape:version="1.3.2 (091e20ef0f, 2023-11-25)"
   xml:space="preserve"
   xmlns:inkscape="http://www.inkscape.org/namespaces/inkscape"
   xmlns:sodipodi="http://sodipodi.sourceforge.net/DTD/sodipodi-0.dtd"
   xmlns="http://www.w3.org/2000/svg"
   xmlns:svg="http://www.w3.org/2000/svg"><sodipodi:namedview
     id="namedview1"
     pagecolor="#505050"
     bordercolor="#eeeeee"
     borderopacity="1"
     inkscape:showpageshadow="0"
     inkscape:pageopacity="0"
     inkscape:pagecheckerboard="0"
     inkscape:deskcolor="#505050"
     inkscape:zoom="12.59534"
     inkscape:cx="22.508325"
     inkscape:cy="19.014969"
     inkscape:window-width="1918"
     inkscape:window-height="1053"
     inkscape:window-x="0"
     inkscape:window-y="0"
     inkscape:window-maximized="1"
     inkscape:current-layer="svg1" /><defs
     id="defs1"><style
       id="style1">.a { fill:none;stroke:#fff;stroke-linecap:round;stroke-linejoin:round; }
</style></defs><path
     id="line430"
     style="display:inline;fill:none;stroke:#fff;stroke-linecap:round;stroke-linejoin:round
     class="t"
     d="m 39.15,38.500101 h -3.3 M 39.15,38.5 c 1.1046,0 2,0.8954 2,2 0,1.1046 -0.8954,2 -2,2 h -3.3 v -8 h 3.3 c 1.1046,0 2,0.8954 2,2 0,1.1046 -0.8954,2 -2,2 z m 6.35,0 a 7,7 0 0 1 -7,7 7,7 0 0 1 -7,-7 7,7 0 0 1 7,-7 7,7 0 0 1 7,7 z M 35.061491,31.510504 h -1.389623 c -0.92052,0 -1.785749,-0.436406 -2.327206,-1.173789 l -5.703825,-7.76729 c -0.73325,-0.953447 -2.022354,-2.208495 -2.022354,-4.068145 0,-1.755588 1.439374,-3.282088 3.441578,-3.282088 1.94999,0 3.332627,1.526296 3.332627,3.282088 0,1.859242 -1.520779,3.448873 -4.331059,3.976913 -2.544628,0.478194 -4.314324,1.691436 -4.88914,3.634475 m -8.23398,0.0013 h 8.222619 v -1.323669 c 0,-2.249421 -1.840635,-4.072828 -4.111309,-4.072828 v 0 c -2.270674,0 -4.11131,1.823407 -4.11131,4.072828 v 2.647338 c 0,2.249421 1.840636,4.072828 4.11131,4.072828 v 0 c 1.52961,0 2.864144,-0.828045 3.572317,-2.055798 l 0.752473,0.0019 c 0.612627,1.250959 1.921901,2.053728 3.92725,2.053728 3.795343,0 6.029039,-3.565162 9.32815,-7.946698 M 32.771484,42.499999 9.5,42.5 c -2.2159978,0 -4,-1.784002 -4,-4 v -29 c 0,-2.2159978 1.7840022,-4 4,-4 v 0 h 29 c 2.215998,0 4,1.7840022 4,4 v 23.257813" /></svg>
