<?xml version="1.0" encoding="UTF-8" standalone="no"?>
<svg
   viewBox="0 0 48 48"
   version="1.1"
   id="svg1"
   sodipodi:docname="goblin_tools.svg"
   inkscape:version="1.3.2 (091e20ef0f, 2023-11-25)"
   xml:space="preserve"
   xmlns:inkscape="http://www.inkscape.org/namespaces/inkscape"
   xmlns:sodipodi="http://sodipodi.sourceforge.net/DTD/sodipodi-0.dtd"
   xmlns="http://www.w3.org/2000/svg"
   xmlns:svg="http://www.w3.org/2000/svg"><sodipodi:namedview
     id="namedview1"
     pagecolor="#505050"
     bordercolor="#eeeeee"
     borderopacity="1"
     inkscape:showpageshadow="0"
     inkscape:pageopacity="0"
     inkscape:pagecheckerboard="0"
     inkscape:deskcolor="#505050"
     inkscape:zoom="8.90625"
     inkscape:cx="42.498246"
     inkscape:cy="40.814035"
     inkscape:window-width="1918"
     inkscape:window-height="1053"
     inkscape:window-x="0"
     inkscape:window-y="0"
     inkscape:window-maximized="1"
     inkscape:current-layer="svg1" /><defs
     id="defs1"><style
       id="style1">.a { fill:none;stroke:#fff;stroke-linecap:round;stroke-linejoin:round; }
</style></defs><path
     id="path33"
     style="fill:none;fill-opacity:0.266292;stroke:#fff;stroke-width:1;stroke-linecap:round;stroke-linejoin:round;stroke-opacity:1"
     d="m 27.422357,29.349562 c 0.354628,-0.676941 0.639693,-1.369059 0.764734,-2.09608 0.744703,0.569141 0.836162,1.335564 0.666066,2.051582 0,0 -2.213311,0.859286 -4.853156,0.859286 -2.639846,0 -4.824641,-0.819589 -4.824641,-0.819589 -0.14158,-0.676321 -0.05012,-1.442744 0.694582,-2.011885 0.125006,0.726813 0.409944,1.418745 0.764431,2.095501 M 6.3354606,24.540473 c 1.7708048,-0.839727 3.6960274,-1.243681 5.3990184,0 v 0.533103 C 9.7988864,26.198784 7.9230089,25.773551 6.3354606,24.540473 Z m 35.3290804,0 c -1.770805,-0.839727 -3.696028,-1.243681 -5.399019,0 v 0.533103 c 1.935593,1.125208 3.81147,0.699975 5.399019,-0.533103 z M 20.723272,22.82707 a 1.5715839,1.5660535 0 0 1 -1.571583,1.566053 1.5715839,1.5660535 0 0 1 -1.571584,-1.566053 1.5715839,1.5660535 0 0 1 1.571584,-1.566054 1.5715839,1.5660535 0 0 1 1.571583,1.566054 z m 9.696625,0 a 1.5715839,1.5660535 0 0 1 -1.571584,1.566053 1.5715839,1.5660535 0 0 1 -1.571584,-1.566053 1.5715839,1.5660535 0 0 1 1.571584,-1.566054 1.5715839,1.5660535 0 0 1 1.571584,1.566054 z m 3.414711,9.400168 c 1.781624,-0.929193 3.066693,-3.689434 1.685695,-6.215125 2.843748,2.366414 6.394869,0.485809 7.979711,-1.505249 -1.890414,-2.407836 -5.059982,-3.012476 -7.37421,-1.421832 -0.515985,-6.572074 -5.655153,-9.695824 -12.125802,-9.695824 -6.470649,0 -11.609817,3.12375 -12.125805,9.695824 -2.3142282,-1.590644 -5.483796,-0.986004 -7.3742106,1.421832 1.5848424,1.991058 5.135964,3.871663 7.9797146,1.505249 -1.381001,2.525691 -0.09593,5.285932 1.685696,6.215125 3.363265,1.754086 6.475176,2.383554 9.834605,2.383554 3.359429,0 6.471341,-0.629468 9.834606,-2.383554 z" /></svg>
