<?xml version="1.0" encoding="UTF-8" standalone="no"?>
<svg
   viewBox="0 0 48 48"
   version="1.1"
   id="svg1"
   sodipodi:docname="groovepad.svg"
   inkscape:version="1.3.2 (091e20ef0f, 2023-11-25)"
   xml:space="preserve"
   xmlns:inkscape="http://www.inkscape.org/namespaces/inkscape"
   xmlns:sodipodi="http://sodipodi.sourceforge.net/DTD/sodipodi-0.dtd"
   xmlns="http://www.w3.org/2000/svg"
   xmlns:svg="http://www.w3.org/2000/svg"><sodipodi:namedview
     id="namedview1"
     pagecolor="#505050"
     bordercolor="#eeeeee"
     borderopacity="1"
     inkscape:showpageshadow="0"
     inkscape:pageopacity="0"
     inkscape:pagecheckerboard="0"
     inkscape:deskcolor="#505050"
     inkscape:zoom="4.453125"
     inkscape:cx="-25.038596"
     inkscape:cy="12.912281"
     inkscape:window-width="1918"
     inkscape:window-height="1053"
     inkscape:window-x="0"
     inkscape:window-y="0"
     inkscape:window-maximized="1"
     inkscape:current-layer="svg1" /><defs
     id="defs1"><style
       id="style1">.a { fill:none;stroke:#fff;stroke-linecap:round;stroke-linejoin:round; }
</style></defs><path
     id="path22"
     style="fill:none;fill-opacity:0.266292;stroke:#fff;stroke-width:1stroke-linecap:round;stroke-linejoin:round;stroke-opacity:1"
     d="m 33.850822,36.805802 h 2.624109 m 1.557652,0 h 1.716191 M 8.2512256,11.194197 h 2.6241104 m 1.557652,0 h 1.716191 m -2.69465,22.605788 a 3.0112005,3.0111976 0 0 1 2.137634,1.171274 m 0.596786,1.462132 a 3.0112005,3.0111976 0 0 1 0.02245,0.367031 v 0 A 3.0112005,3.0111976 0 0 1 11.200198,39.81162 3.0112005,3.0111976 0 0 1 8.1889985,36.800422 3.0112005,3.0111976 0 0 1 9.7871115,34.141381 M 24.254322,20.994182 a 3.0112005,3.0111976 0 0 1 2.137634,1.171274 m 0.596786,1.462132 a 3.0112005,3.0111976 0 0 1 0.02245,0.367032 v 0 a 3.0112005,3.0111976 0 0 1 -3.0112,3.011197 3.0112005,3.0111976 0 0 1 -3.011201,-3.011197 3.0112005,3.0111976 0 0 1 1.598114,-2.659042 M 37.054125,8.1937593 a 3.0112005,3.0111976 0 0 1 2.137634,1.171274 m 0.596786,1.4621317 a 3.0112005,3.0111976 0 0 1 0.02245,0.367032 v 0 a 3.0112005,3.0111976 0 0 1 -3.0112,3.011197 3.0112005,3.0111976 0 0 1 -3.0112,-3.011197 3.0112005,3.0111976 0 0 1 1.598114,-2.6590417 M 27.0112,36.805803 A 3.0112005,3.0111976 0 0 1 24,39.817002 3.0112005,3.0111976 0 0 1 20.988798,36.805803 3.0112005,3.0111976 0 0 1 24,33.794606 3.0112005,3.0111976 0 0 1 27.0112,36.805803 Z M 14.211404,23.999999 a 3.0112005,3.0111976 0 0 1 -3.011202,3.011198 3.0112005,3.0111976 0 0 1 -3.0112005,-3.011198 3.0112005,3.0111976 0 0 1 3.0112005,-3.011198 3.0112005,3.0111976 0 0 1 3.011202,3.011198 z M 27.0112,11.194197 A 3.0112005,3.0111976 0 0 1 24,14.205394 3.0112005,3.0111976 0 0 1 20.988798,11.194197 3.0112005,3.0111976 0 0 1 24,8.1829993 3.0112005,3.0111976 0 0 1 27.0112,11.194197 Z m 12.799798,12.805802 a 3.0112005,3.0111976 0 0 1 -3.0112,3.011198 3.0112005,3.0111976 0 0 1 -3.0112,-3.011198 3.0112005,3.0111976 0 0 1 3.0112,-3.011198 3.0112005,3.0111976 0 0 1 3.0112,3.011198 z m -6.480082,7.111606 h 6.937765 c 1.232827,0 2.22532,0.992492 2.22532,2.225318 v 6.937759 c 0,1.232826 -0.992493,2.225318 -2.22532,2.225318 h -6.937765 c -1.232828,0 -2.22532,-0.992492 -2.22532,-2.225318 v -6.937759 c 0,-1.232826 0.992492,-2.225318 2.22532,-2.225318 z m -12.799798,0 h 6.937764 c 1.232828,0 2.225321,0.992492 2.225321,2.225318 v 6.937759 c 0,1.232826 -0.992493,2.225318 -2.225321,2.225318 h -6.937764 c -1.232828,0 -2.225321,-0.992492 -2.225321,-2.225318 v -6.937759 c 0,-1.232826 0.992493,-2.225318 2.225321,-2.225318 z m -12.7997982,0 h 6.9377652 c 1.232828,0 2.225321,0.992492 2.225321,2.225318 v 6.937759 c 0,1.232826 -0.992493,2.225318 -2.225321,2.225318 H 7.7313199 c -1.2328275,0 -2.2253204,-0.992492 -2.2253204,-2.225318 v -6.937759 c 0,-1.232826 0.9924929,-2.225318 2.2253203,-2.225318 z M 33.330916,18.305803 h 6.937765 c 1.232827,0 2.22532,0.992492 2.22532,2.225318 v 6.937758 c 0,1.232826 -0.992493,2.225318 -2.22532,2.225318 h -6.937765 c -1.232828,0 -2.22532,-0.992492 -2.22532,-2.225318 v -6.937758 c 0,-1.232826 0.992492,-2.225318 2.22532,-2.225318 z m -12.799798,0 h 6.937764 c 1.232828,0 2.225321,0.992492 2.225321,2.225318 v 6.937758 c 0,1.232826 -0.992493,2.225318 -2.225321,2.225318 h -6.937764 c -1.232828,0 -2.225321,-0.992492 -2.225321,-2.225318 v -6.937758 c 0,-1.232826 0.992493,-2.225318 2.225321,-2.225318 z m -12.7997981,0 h 6.9377651 c 1.232828,0 2.225321,0.992492 2.225321,2.225318 v 6.937758 c 0,1.232826 -0.992493,2.225318 -2.225321,2.225318 H 7.7313199 c -1.2328275,0 -2.2253204,-0.992492 -2.2253204,-2.225318 v -6.937758 c 0,-1.232826 0.9924929,-2.225318 2.2253204,-2.225318 z M 33.330916,5.4999997 h 6.937765 c 1.232827,0 2.22532,0.9924919 2.22532,2.2253182 v 6.9377581 c 0,1.232826 -0.992493,2.225318 -2.22532,2.225318 h -6.937765 c -1.232828,0 -2.22532,-0.992492 -2.22532,-2.225318 V 7.7253179 c 0,-1.2328263 0.992492,-2.2253182 2.22532,-2.2253182 z m -12.799798,0 h 6.937764 c 1.232828,0 2.225321,0.9924919 2.225321,2.2253182 v 6.9377581 c 0,1.232826 -0.992493,2.225318 -2.225321,2.225318 h -6.937764 c -1.232828,0 -2.225321,-0.992492 -2.225321,-2.225318 V 7.7253179 c 0,-1.2328263 0.992493,-2.2253182 2.225321,-2.2253182 z m -12.7997981,0 h 6.9377651 c 1.232828,0 2.225321,0.9924919 2.225321,2.2253182 v 6.9377581 c 0,1.232826 -0.992493,2.225318 -2.225321,2.225318 H 7.7313199 c -1.2328275,0 -2.2253204,-0.992492 -2.2253204,-2.225318 V 7.7253179 c 0,-1.2328263 0.9924929,-2.2253182 2.2253204,-2.2253182 z" /></svg>
