<?xml version="1.0" encoding="UTF-8" standalone="no"?>
<svg
   viewBox="0 0 48 48"
   version="1.1"
   id="svg1"
   sodipodi:docname="justdial.svg"
   inkscape:version="1.3.2 (091e20ef0f, 2023-11-25)"
   xml:space="preserve"
   xmlns:inkscape="http://www.inkscape.org/namespaces/inkscape"
   xmlns:sodipodi="http://sodipodi.sourceforge.net/DTD/sodipodi-0.dtd"
   xmlns="http://www.w3.org/2000/svg"
   xmlns:svg="http://www.w3.org/2000/svg"><sodipodi:namedview
     id="namedview1"
     pagecolor="#505050"
     bordercolor="#eeeeee"
     borderopacity="1"
     inkscape:showpageshadow="0"
     inkscape:pageopacity="0"
     inkscape:pagecheckerboard="0"
     inkscape:deskcolor="#505050"
     inkscape:zoom="12.59534"
     inkscape:cx="18.379814"
     inkscape:cy="27.192598"
     inkscape:window-width="1918"
     inkscape:window-height="1053"
     inkscape:window-x="0"
     inkscape:window-y="0"
     inkscape:window-maximized="1"
     inkscape:current-layer="svg1" /><defs
     id="defs1"><style
       id="style1">.a { fill:none;stroke:#fff;stroke-linecap:round;stroke-linejoin:round; }
</style></defs><path
     id="line425"
     style="fill:none;stroke:#fff;stroke-width:1stroke-linecap:round;stroke-linejoin:round;stroke-opacity:1"
     class="t"
     d="M 34.029625,32.266789 V 15.733211 m 0,9.713472 c 0,-2.282873 -1.956645,-4.133394 -4.370438,-4.133394 v 0 c -2.413793,0 -4.370438,1.850521 -4.370438,4.133394 v 2.686706 c 0,2.282874 1.956645,4.133396 4.370438,4.133396 v 0 c 2.413793,0 4.370438,-1.850521 4.370438,-4.133395 M 21.601545,15.733211 v 12.400183 c 0,2.282873 -1.956645,4.133395 -4.370438,4.133395 v 0 c -2.413793,0 -4.370438,-1.850522 -4.370438,-4.133394 V 26.760694 M 9.5,5.5 h 29 c 2.216,0 4,1.784 4,4 v 29 c 0,2.216 -1.784,4 -4,4 h -29 c -2.216,0 -4,-1.784 -4,-4 v -29 c 0,-2.216 1.784,-4 4,-4 z" /></svg>
