<?xml version="1.0" encoding="UTF-8" standalone="no"?>
<svg
   viewBox="0 0 48 48"
   version="1.1"
   id="svg1"
   sodipodi:docname="krl_access.svg"
   inkscape:version="1.3.2 (091e20ef0f, 2023-11-25)"
   xml:space="preserve"
   xmlns:inkscape="http://www.inkscape.org/namespaces/inkscape"
   xmlns:sodipodi="http://sodipodi.sourceforge.net/DTD/sodipodi-0.dtd"
   xmlns="http://www.w3.org/2000/svg"
   xmlns:svg="http://www.w3.org/2000/svg"><sodipodi:namedview
     id="namedview1"
     pagecolor="#505050"
     bordercolor="#eeeeee"
     borderopacity="1"
     inkscape:showpageshadow="0"
     inkscape:pageopacity="0"
     inkscape:pagecheckerboard="0"
     inkscape:deskcolor="#505050"
     inkscape:zoom="12.59534"
     inkscape:cx="9.4082418"
     inkscape:cy="22.031959"
     inkscape:window-width="1918"
     inkscape:window-height="1053"
     inkscape:window-x="0"
     inkscape:window-y="0"
     inkscape:window-maximized="1"
     inkscape:current-layer="svg1" /><defs
     id="defs1"><style
       id="style1">.a { fill:none;stroke:#fff;stroke-linecap:round;stroke-linejoin:round; }
</style></defs><path
     id="path15"
     style="fill:none;fill-opacity:0.266292;stroke:#fff;stroke-width:1stroke-linecap:round;stroke-linejoin:round;stroke-opacity:1"
     d="m 36.120496,42.498727 v -3.02342 H 30.374692 L 29.444898,38.432813 H 18.554359 l -0.929794,1.042494 h -5.745804 v 3.02342 m 23.167596,-3.023046 v -1.184427 h 4.248748 V 36.982915 H 42.5 m -36.9998215,1.30834 7.4527225,-10e-7 v 1.184427 M 19.23717,9.9811533 c 0,-0.5539877 -0.445993,-0.99998 -0.99998,-0.99998 h -5.251765 c -2.21595,0 -3.9999202,1.7839697 -3.9999202,3.9999197 l 2e-7,9.729793 10.250308,-10e-7 z m 1.754556,12.7297317 18.022027,10e-7 v -9.729793 c 0,-2.21595 -1.78397,-3.9999197 -3.99992,-3.9999197 H 21.991357 c -0.553987,0 -0.99998,0.4459923 -0.99998,0.99998 z m -15.4911039,12.80343 12.8253919,2.91e-4 -2.5e-4,-0.474262 c 0,-0.553988 0.445993,-0.99998 0.99998,-0.99998 v 0 h 9.347771 c 0.553987,0 0.99998,0.445992 0.99998,0.99998 l -3.4e-5,0.474261 12.825595,-2.23e-4 M 12.939664,29.283869 a 1.5475216,1.5475216 0 0 1 -1.547522,1.547521 1.5475216,1.5475216 0 0 1 -1.5475217,-1.547521 1.5475216,1.5475216 0 0 1 1.5475217,-1.547522 1.5475216,1.5475216 0 0 1 1.547522,1.547522 v 0 m 25.831062,0 a 1.5475216,1.5475216 0 0 1 -1.547522,1.547521 1.5475216,1.5475216 0 0 1 -1.547521,-1.547521 1.5475216,1.5475216 0 0 1 1.547521,-1.547522 1.5475216,1.5475216 0 0 1 1.547522,1.547522 v 0 m -33.270325,3.280633 36.99932,1e-6 m -36.99932,-6.561269 36.99932,1e-6 M 9.4999198,5.5 H 38.499338 c 2.215956,0 3.99992,1.7839643 3.99992,3.9999198 V 38.499338 c 0,2.215956 -1.783964,3.99992 -3.99992,3.99992 H 9.4999198 C 7.2839643,42.499258 5.5,40.715294 5.5,38.499338 V 9.4999198 C 5.5,7.2839643 7.2839643,5.5 9.4999198,5.5 Z" /></svg>
