<?xml version="1.0" encoding="UTF-8" standalone="no"?>
<svg
   viewBox="0 0 48 48"
   version="1.1"
   id="svg1"
   sodipodi:docname="madfut.svg"
   inkscape:version="1.3.2 (091e20ef0f, 2023-11-25)"
   xml:space="preserve"
   xmlns:inkscape="http://www.inkscape.org/namespaces/inkscape"
   xmlns:sodipodi="http://sodipodi.sourceforge.net/DTD/sodipodi-0.dtd"
   xmlns="http://www.w3.org/2000/svg"
   xmlns:svg="http://www.w3.org/2000/svg"><sodipodi:namedview
     id="namedview1"
     pagecolor="#505050"
     bordercolor="#eeeeee"
     borderopacity="1"
     inkscape:showpageshadow="0"
     inkscape:pageopacity="0"
     inkscape:pagecheckerboard="0"
     inkscape:deskcolor="#505050"
     inkscape:zoom="3.1488349"
     inkscape:cx="-5.875189"
     inkscape:cy="58.593101"
     inkscape:window-width="1918"
     inkscape:window-height="1053"
     inkscape:window-x="0"
     inkscape:window-y="0"
     inkscape:window-maximized="0"
     inkscape:current-layer="svg1" /><defs
     id="defs1"><style
       id="style1">.a { fill:none;stroke:#fff;stroke-linecap:round;stroke-linejoin:round; }
</style></defs><path
     id="path8"
     style="display:inline;fill:none;stroke:#fff;stroke-width:1stroke-linecap:round;stroke-linejoin:round;stroke-opacity:1"
     class="t"
     d="m 26.806702,28.521256 2.252922,-13.652172 h 6.841687 m -7.968149,6.82609 h 4.447112 m -20.677164,5.18817 1.958418,-12.014397 4.532675,13.652172 8.98005,-13.631352 -2.221991,13.631352 m 12.868843,-2.444257 -1e-6,-15.342005 c -1.91511,-10e-7 -3.467618,-1.5534849 -3.467618,-3.469801 0,-0.096177 0.004,-0.1923121 0.01969,-0.2861387 -0.651964,-0.5317244 -3.531668,-2.4789168 -10.373178,-2.4789168 -6.84151,0 -9.721215,1.9471924 -10.373179,2.4789168 0.01567,0.093827 0.01969,0.1899619 0.01969,0.2861387 0,1.9163161 -1.552507,3.4698 -3.467612,3.469801 v 15.342005 m -1.5948888,8.054417 v -8.897365 l 15.4159908,8.14939 15.415993,-8.14939 v 8.897365 l -15.415993,9.368729 z" /></svg>
