<?xml version="1.0" encoding="UTF-8" standalone="no"?>
<svg
   viewBox="0 0 48 48"
   version="1.1"
   id="svg1"
   sodipodi:docname="pinduoduo.svg"
   inkscape:version="1.3.2 (091e20ef0f, 2023-11-25)"
   xml:space="preserve"
   xmlns:inkscape="http://www.inkscape.org/namespaces/inkscape"
   xmlns:sodipodi="http://sodipodi.sourceforge.net/DTD/sodipodi-0.dtd"
   xmlns="http://www.w3.org/2000/svg"
   xmlns:svg="http://www.w3.org/2000/svg"><sodipodi:namedview
     id="namedview1"
     pagecolor="#505050"
     bordercolor="#eeeeee"
     borderopacity="1"
     inkscape:showpageshadow="0"
     inkscape:pageopacity="0"
     inkscape:pagecheckerboard="0"
     inkscape:deskcolor="#505050"
     inkscape:zoom="4.453125"
     inkscape:cx="34.021053"
     inkscape:cy="45.698246"
     inkscape:window-width="1918"
     inkscape:window-height="1053"
     inkscape:window-x="0"
     inkscape:window-y="0"
     inkscape:window-maximized="1"
     inkscape:current-layer="svg1" /><defs
     id="defs1"><style
       id="style1">.a { fill:none;stroke:#fff;stroke-linecap:round;stroke-linejoin:round; }
</style></defs><path
     id="path1-8"
     style="fill:none;fill-opacity:0.266292;stroke:#fff;stroke-width:1stroke-linecap:round;stroke-linejoin:round;stroke-opacity:1"
     d="m 24.024536,13.623715 9.725461,6.934039 -9.725461,6.93404 -9.774533,-6.93404 z M 43.499994,27.380883 V 13.723716 L 33.774534,6.834962 24,13.723716 14.225466,6.834962 4.5000057,13.723716 V 27.380883 L 24,41.165038 Z M 26.720786,19.048442 26.55173,24.190713 m -2.134159,-4.885316 c 0.03196,1.592337 -0.01558,3.225115 -0.551407,4.77701 m 3.257852,-6.785183 -0.821992,1.004259 m -2.173535,-1.11606 0.493994,1.076209 m -1.27492,3.29053 h 4.609902 m -4.609902,-2.40918 h 4.266869 m -5.913378,-2.236945 v 7.259983 l -0.668769,-0.206125 m -0.428346,-2.579432 2.243515,-0.373901 m -2.243515,-2.282828 2.243515,-0.06916" /></svg>
