<?xml version="1.0" encoding="UTF-8" standalone="no"?>
<svg
   viewBox="0 0 48 48"
   version="1.1"
   id="svg1"
   sodipodi:docname="poly_ai.svg"
   inkscape:version="1.3.2 (091e20ef0f, 2023-11-25)"
   xml:space="preserve"
   xmlns:inkscape="http://www.inkscape.org/namespaces/inkscape"
   xmlns:sodipodi="http://sodipodi.sourceforge.net/DTD/sodipodi-0.dtd"
   xmlns="http://www.w3.org/2000/svg"
   xmlns:svg="http://www.w3.org/2000/svg"><sodipodi:namedview
     id="namedview1"
     pagecolor="#505050"
     bordercolor="#eeeeee"
     borderopacity="1"
     inkscape:showpageshadow="0"
     inkscape:pageopacity="0"
     inkscape:pagecheckerboard="0"
     inkscape:deskcolor="#505050"
     inkscape:zoom="4.453125"
     inkscape:cx="40.08421"
     inkscape:cy="58.722807"
     inkscape:window-width="1918"
     inkscape:window-height="1053"
     inkscape:window-x="0"
     inkscape:window-y="0"
     inkscape:window-maximized="1"
     inkscape:current-layer="svg1" /><defs
     id="defs1"><style
       id="style1">.a { fill:none;stroke:#fff;stroke-linecap:round;stroke-linejoin:round; }
</style></defs><path
     id="path6"
     style="fill:none;fill-opacity:0.266292;stroke:#fff;stroke-width:1stroke-linecap:round;stroke-linejoin:round;stroke-opacity:1"
     d="m 16.037426,18.924083 h 2.28195 c 0.311362,0 0.562025,0.250693 0.562025,0.562093 v 6.784365 c 0,0.3114 -0.250663,0.562094 -0.562025,0.562094 h -2.28195 c -0.311361,0 -0.562024,-0.250694 -0.562024,-0.562094 v -6.784365 c 0,-0.3114 0.250663,-0.562093 0.562024,-0.562093 z m 13.62246,0 h 2.28195 c 0.311361,0 0.562025,0.250693 0.562025,0.562093 v 6.784365 c 0,0.3114 -0.250664,0.562094 -0.562025,0.562094 h -2.28195 c -0.311362,0 -0.562025,-0.250694 -0.562025,-0.562094 v -6.784365 c 0,-0.3114 0.250663,-0.562093 0.562025,-0.562093 z M 8.9584623,21.440226 h 2.2819497 c 0.311362,0 0.562025,0.250693 0.562025,0.562093 v 4.803752 c 0,0.3114 -0.250663,0.562094 -0.562025,0.562094 H 8.9584623 c -0.311362,0 -0.562025,-0.250694 -0.562025,-0.562094 v -4.803752 c 0,-0.3114 0.250663,-0.562093 0.562025,-0.562093 z m 27.7803867,0 H 39.0208 c 0.311362,0 0.562025,0.250693 0.562025,0.562093 v 4.803752 c 0,0.3114 -0.250663,0.562094 -0.562025,0.562094 h -2.281951 c -0.311362,0 -0.562025,-0.250694 -0.562025,-0.562094 v -4.803752 c 0,-0.3114 0.250663,-0.562093 0.562025,-0.562093 z m -13.890195,1.87436 h 2.281951 c 0.311362,0 0.562025,0.250693 0.562025,0.562093 v 4.803753 c 0,0.311399 -0.250663,0.562093 -0.562025,0.562093 h -2.281951 c -0.311361,0 -0.562024,-0.250694 -0.562024,-0.562093 v -4.803753 c 0,-0.3114 0.250663,-0.562093 0.562024,-0.562093 z m 16.179183,10.262251 c -3.272974,5.140708 -8.944541,8.253444 -15.027835,8.253444 -6.083295,0 -11.754862,-3.112736 -15.0278347,-8.253444 M 38.138381,31.834372 c 0.460474,1.822863 2.19486,3.467201 4.36162,3.213467 L 41.996212,23.999999 C 41.547631,14.162832 33.835815,6.1697185 24.000002,6.1697185 c -9.835814,0 -17.5476331,7.9931135 -17.9962143,17.8302805 l -0.503789,11.04784 c 2.1667596,0.253734 3.9011496,-1.390604 4.3616236,-3.213467" /></svg>
