<?xml version="1.0" encoding="UTF-8" standalone="no"?>
<svg
   viewBox="0 0 48 48"
   version="1.1"
   id="svg1"
   sodipodi:docname="red_ball_4.svg"
   inkscape:version="1.3.2 (091e20ef0f, 2023-11-25)"
   xml:space="preserve"
   xmlns:inkscape="http://www.inkscape.org/namespaces/inkscape"
   xmlns:sodipodi="http://sodipodi.sourceforge.net/DTD/sodipodi-0.dtd"
   xmlns="http://www.w3.org/2000/svg"
   xmlns:svg="http://www.w3.org/2000/svg"><sodipodi:namedview
     id="namedview1"
     pagecolor="#505050"
     bordercolor="#eeeeee"
     borderopacity="1"
     inkscape:showpageshadow="0"
     inkscape:pageopacity="0"
     inkscape:pagecheckerboard="0"
     inkscape:deskcolor="#505050"
     inkscape:zoom="6.2976698"
     inkscape:cx="13.735239"
     inkscape:cy="23.738939"
     inkscape:window-width="1918"
     inkscape:window-height="1053"
     inkscape:window-x="0"
     inkscape:window-y="0"
     inkscape:window-maximized="1"
     inkscape:current-layer="svg1" /><defs
     id="defs1"><style
       id="style1">.a { fill:none;stroke:#fff;stroke-linecap:round;stroke-linejoin:round; }
</style></defs><path
     id="path9"
     style="fill:none;fill-opacity:0.266292;stroke:#fff;stroke-width:1stroke-linecap:round;stroke-linejoin:round;stroke-opacity:1"
     d="m 18.046635,13.698806 c -1.192768,1.407035 -1.634435,3.275972 -0.708335,4.270775 1.120346,1.203458 3.383398,0.684368 3.805635,-2.300415 -0.322662,0.817079 -1.314258,1.227563 -1.911047,0.612047 -0.417275,-0.43037 -0.626841,-1.73427 -0.183505,-2.407786 m 10.555343,-0.616118 c 1.495939,1.431137 2.150862,3.60914 1.123914,4.712272 -1.120347,1.203459 -3.383399,0.684371 -3.805635,-2.300415 0.322662,0.81708 1.314256,1.227564 1.911047,0.612047 0.525072,-0.54155 0.721257,-2.46625 -0.298476,-2.777626 m -4.336606,1.833188 c -0.0079,5.562029 -2.920124,9.818622 -7.455084,9.299031 -5.812224,-0.665934 -6.717476,-7.20288 -3.435594,-11.404805 m -0.855405,0.407958 0.967315,-0.514024 c 3.91674,0.35527 7.403355,0.901687 10.871163,2.192308 2.975048,-1.669857 6.183491,-2.72532 9.165684,-3.807631 m -0.193941,0.193941 c 3.84088,3.933659 4.373158,9.85416 -0.277906,12.539453 -4.244986,2.450843 -10.053536,-3.217734 -8.515898,-8.85739 m 5.716743,21.857057 c 8.431999,-2.290154 11.876734,-9.296829 11.485559,-15.44022 M 40.49256,17.469882 c -1.367292,2.139133 -1.06535,5.340002 2.081483,5.430946 M 45.5,24 A 21.5,21.5 0 0 1 24,45.5 21.5,21.5 0 0 1 2.5000001,24 21.5,21.5 0 0 1 24,2.5000001 21.5,21.5 0 0 1 45.5,24 Z" /></svg>
