<?xml version="1.0" encoding="UTF-8" standalone="no"?>
<svg
   viewBox="0 0 48 48"
   version="1.1"
   id="svg1"
   sodipodi:docname="sharechat.svg"
   inkscape:version="1.3.2 (091e20ef0f, 2023-11-25)"
   xml:space="preserve"
   xmlns:inkscape="http://www.inkscape.org/namespaces/inkscape"
   xmlns:sodipodi="http://sodipodi.sourceforge.net/DTD/sodipodi-0.dtd"
   xmlns="http://www.w3.org/2000/svg"
   xmlns:svg="http://www.w3.org/2000/svg"><sodipodi:namedview
     id="namedview1"
     pagecolor="#505050"
     bordercolor="#eeeeee"
     borderopacity="1"
     inkscape:showpageshadow="0"
     inkscape:pageopacity="0"
     inkscape:pagecheckerboard="0"
     inkscape:deskcolor="#505050"
     inkscape:zoom="6.2976698"
     inkscape:cx="10.71825"
     inkscape:cy="36.600839"
     inkscape:window-width="1918"
     inkscape:window-height="1053"
     inkscape:window-x="0"
     inkscape:window-y="0"
     inkscape:window-maximized="1"
     inkscape:current-layer="svg1" /><defs
     id="defs1"><style
       id="style1">.a { fill:none;stroke:#fff;stroke-linecap:round;stroke-linejoin:round; }
</style></defs><path
     id="path12"
     style="fill:none;fill-opacity:0.266292;stroke:#fff;stroke-width:1;stroke-linecap:round;stroke-linejoin:round;stroke-opacity:1"
     d="m 23.842104,24.181197 7.211447,-7.211469 M 29.513907,5.068805 23.935219,10.647509 m -12.998973,0.62876 19.551269,19.551326 -6.826833,6.826853 M 17.119942,6.0322767 c 2.82714,1.5904395 7.902982,4.9097673 13.933007,10.9363733 M 5.6791888,17.436714 c 1.5868321,2.825271 4.9127462,7.919629 10.9671402,13.974042 6.00966,6.009676 11.073405,9.33104 13.911003,10.931713 M 10.936276,11.276299 c -3.3227544,3.470561 -7.5660077,7.927753 -7.4178531,12.723459 -0.1481545,4.795706 4.0950987,9.252899 7.4178531,12.723458 4.265642,4.265654 8.223323,6.978632 11.695856,7.605497 5.318577,1.135979 10.305247,-3.60846 14.10759,-7.248893 3.827818,-3.827829 6.406184,-7.407279 7.348273,-10.611164 4.29e-4,-0.0013 8.27e-4,-0.0025 0.0012,-0.0038 0.278639,-0.781219 0.406371,-1.599807 0.395122,-2.450259 0.01481,-0.861498 -0.113129,-1.689459 -0.395122,-2.48008 -4.28e-4,-0.0013 -8.25e-4,-0.0025 -0.0012,-0.0038 C 43.145906,18.326975 40.56754,14.747524 36.739722,10.919694 32.937936,7.279799 27.952314,2.5367204 22.634617,3.6708028 19.161472,4.2967989 15.202963,7.0096013 10.936276,11.276299 Z" /></svg>
