<?xml version="1.0" encoding="UTF-8" standalone="no"?>
<svg
   viewBox="0 0 48 48"
   version="1.1"
   id="svg1"
   sodipodi:docname="smiles.svg"
   inkscape:version="1.3.2 (091e20ef0f, 2023-11-25)"
   xml:space="preserve"
   xmlns:inkscape="http://www.inkscape.org/namespaces/inkscape"
   xmlns:sodipodi="http://sodipodi.sourceforge.net/DTD/sodipodi-0.dtd"
   xmlns="http://www.w3.org/2000/svg"
   xmlns:svg="http://www.w3.org/2000/svg"><sodipodi:namedview
     id="namedview1"
     pagecolor="#505050"
     bordercolor="#eeeeee"
     borderopacity="1"
     inkscape:showpageshadow="0"
     inkscape:pageopacity="0"
     inkscape:pagecheckerboard="0"
     inkscape:deskcolor="#505050"
     inkscape:zoom="8.90625"
     inkscape:cx="4.9964912"
     inkscape:cy="22.624561"
     inkscape:window-width="1918"
     inkscape:window-height="1053"
     inkscape:window-x="0"
     inkscape:window-y="0"
     inkscape:window-maximized="1"
     inkscape:current-layer="svg1" /><defs
     id="defs1"><style
       id="style1">.a { fill:none;stroke:#fff;stroke-linecap:round;stroke-linejoin:round; }
</style></defs><path
     id="path3"
     style="display:inline;fill:none;stroke:#fff;stroke-width:1stroke-linecap:round;stroke-linejoin:round;stroke-opacity:1"
     class="t"
     d="m 34.341691,23.89308 c 0,-1.211744 -0.985841,-2.193996 -2.202011,-2.193996 v 0 c -1.21617,0 -2.20201,0.982252 -2.20201,2.193996 v 0.713047 h 4.404021 m 1.825902,2.416466 c 0.402088,0.33634 0.836104,0.490577 1.811049,0.490577 h 0.494022 c 0.803954,0 1.45564,-0.650739 1.45564,-1.453522 v 0 c 0,-0.802782 -0.651686,-1.453521 -1.45564,-1.453521 h -0.988047 c -0.803955,0 -1.45564,-0.650739 -1.45564,-1.453521 v 0 c 0,-0.802783 0.651685,-1.453522 1.45564,-1.453522 h 0.494025 c 0.974832,0 1.408958,0.154129 1.811045,0.490578 m -5.73668,4.216309 c -0.379296,0.66138 -1.094069,1.107199 -1.913327,1.107199 -0.819258,0 -1.53403,-0.445819 -1.913327,-1.107199 M 29.93767,23.89308 c 0,-1.211744 0.985841,-2.193996 2.202011,-2.193996 v 0 c 1.21617,0 2.20201,0.982252 2.20201,2.193996 v 0.713047 H 29.93767 m -2.525262,-5.868933 v 7.678981 c 0,0.605872 0.49292,1.096997 1.101005,1.096997 h 0.330301 M 8.456145,27.022593 c 0.4020875,0.33634 0.8361033,0.490577 1.811048,0.490577 h 0.494023 c 0.803954,0 1.45564,-0.650739 1.45564,-1.453522 v 0 c 0,-0.802782 -0.651686,-1.453521 -1.45564,-1.453521 H 9.7731685 c -0.8039551,0 -1.4556398,-0.650739 -1.4556398,-1.453521 v 0 c 0,-0.802783 0.6516847,-1.453522 1.4556398,-1.453522 h 0.4940245 c 0.974833,0 1.408959,0.154129 1.811046,0.490578 M 25.833,19.011441 c 0,0.424099 -0.345055,0.767899 -0.770704,0.767899 -0.425649,0 -0.770703,-0.3438 -0.770703,-0.767899 0,-0.424098 0.345054,-0.767897 0.770703,-0.767897 0.425649,0 0.770704,0.343799 0.770704,0.767897 z m -0.770704,2.68764 v 5.814089 m -6.592315,-3.62009 c 0,-1.211744 0.98584,-2.193996 2.20201,-2.193996 v 0 c 1.21617,0 2.202011,0.982252 2.202011,2.193996 v 3.62009 M 14.06596,21.699082 v 5.81409 m 0,-3.620092 c 0,-1.211744 0.98584,-2.193996 2.20201,-2.193996 v 0 c 1.216171,0 2.202011,0.982252 2.202011,2.193996 v 3.62009 M 9.5,5.5 h 29 c 2.216,0 4,1.784 4,4 v 29 c 0,2.216 -1.784,4 -4,4 h -29 c -2.216,0 -4,-1.784 -4,-4 v -29 c 0,-2.216 1.784,-4 4,-4 z" /></svg>
