<?xml version="1.0" encoding="UTF-8" standalone="no"?>
<svg
   viewBox="0 0 48 48"
   version="1.1"
   id="svg1"
   sodipodi:docname="snapedit.svg"
   inkscape:version="1.3.2 (091e20ef0f, 2023-11-25)"
   xml:space="preserve"
   xmlns:inkscape="http://www.inkscape.org/namespaces/inkscape"
   xmlns:sodipodi="http://sodipodi.sourceforge.net/DTD/sodipodi-0.dtd"
   xmlns="http://www.w3.org/2000/svg"
   xmlns:svg="http://www.w3.org/2000/svg"><sodipodi:namedview
     id="namedview1"
     pagecolor="#505050"
     bordercolor="#eeeeee"
     borderopacity="1"
     inkscape:showpageshadow="0"
     inkscape:pageopacity="0"
     inkscape:pagecheckerboard="0"
     inkscape:deskcolor="#505050"
     inkscape:zoom="12.59534"
     inkscape:cx="13.219175"
     inkscape:cy="15.680403"
     inkscape:window-width="1918"
     inkscape:window-height="1053"
     inkscape:window-x="0"
     inkscape:window-y="0"
     inkscape:window-maximized="1"
     inkscape:current-layer="svg1" /><defs
     id="defs1"><style
       id="style1">.a { fill:none;stroke:#fff;stroke-linecap:round;stroke-linejoin:round; }
</style></defs><path
     id="path10"
     style="fill:none;fill-opacity:0.266292;stroke:#fff;stroke-width:1;stroke-linecap:round;stroke-linejoin:round;stroke-opacity:1"
     d="m 33.459426,5.499998 h -4.768821 m 10.973692,0 h 2.835704 l 2e-6,2.760548 M 20.147767,33.081274 c 1.582116,0.696396 3.115981,0.799153 6.273021,-0.04677 l 1.599731,-0.428647 c 2.603356,-0.697567 4.171743,-3.285378 3.50324,-5.780265 v 0 C 30.855258,24.330707 28.203087,22.87379 25.599733,23.571356 l -3.199466,0.857289 c -2.603355,0.697567 -5.255525,-0.75935 -5.924028,-3.254237 v 0 c -0.668503,-2.494886 0.899886,-5.082698 3.50324,-5.780265 l 1.599734,-0.428646 c 3.156684,-0.84583 4.690813,-0.743509 6.273019,-0.04677 m 14.647769,-0.378153 v 4.768823 m 0,6.546384 v 10.724221 c 0,3.279677 -2.640323,5.92 -5.92,5.92 H 11.419997 c -3.279677,0 -5.92,-2.640323 -5.92,-5.92 V 11.419998 c 0,-3.279677 2.640323,-5.92 5.92,-5.92 v 0 h 10.576798" /></svg>
