<?xml version="1.0" encoding="UTF-8" standalone="no"?>
<svg
   viewBox="0 0 48 48"
   version="1.1"
   id="svg1"
   sodipodi:docname="spin_the_wheel.svg"
   inkscape:version="1.3.2 (091e20ef0f, 2023-11-25)"
   xml:space="preserve"
   xmlns:inkscape="http://www.inkscape.org/namespaces/inkscape"
   xmlns:sodipodi="http://sodipodi.sourceforge.net/DTD/sodipodi-0.dtd"
   xmlns="http://www.w3.org/2000/svg"
   xmlns:svg="http://www.w3.org/2000/svg"><sodipodi:namedview
     id="namedview1"
     pagecolor="#505050"
     bordercolor="#eeeeee"
     borderopacity="1"
     inkscape:showpageshadow="0"
     inkscape:pageopacity="0"
     inkscape:pagecheckerboard="0"
     inkscape:deskcolor="#505050"
     inkscape:zoom="12.59534"
     inkscape:cx="15.918586"
     inkscape:cy="31.479898"
     inkscape:window-width="1918"
     inkscape:window-height="1053"
     inkscape:window-x="0"
     inkscape:window-y="0"
     inkscape:window-maximized="1"
     inkscape:current-layer="svg1" /><defs
     id="defs1"><style
       id="style1">.a { fill:none;stroke:#fff;stroke-linecap:round;stroke-linejoin:round; }
</style></defs><path
     id="path18"
     style="display:inline;fill:none;fill-opacity:0.266292;stroke:#fff;stroke-linecap:round;stroke-linejoin:round;stroke-opacity:1"
     d="M 19.65286,15.016831 C 20.966851,14.379788 22.441707,14.022553 24,14.022553 c 5.510392,0 9.977447,4.467055 9.977447,9.977447 0,5.510392 -4.467055,9.977447 -9.977447,9.977447 -5.510392,0 -9.977447,-4.467055 -9.977447,-9.977447 0,-1.679939 0.415186,-3.262906 1.148546,-4.651887 L 13.719938,13.528899 Z M 42.500138,38.100978 31.915941,30.070146 M 14.563053,16.903522 5.5002611,10.027066 m 36.9999169,11.470931 -8.611499,1.181212 m -19.76776,2.711483 -8.621084,1.182527 M 38.027127,5.5007888 30.024153,16.04827 M 17.963033,31.944167 9.9532182,42.500666 M 21.416279,5.5001551 22.599332,14.125069 m 2.710874,19.763313 1.181176,8.611231 M 9.5,5.5 h 29 c 2.216,0 4,1.784 4,4 v 29 c 0,2.216 -1.784,4 -4,4 h -29 c -2.216,0 -4,-1.784 -4,-4 v -29 c 0,-2.216 1.784,-4 4,-4 z" /></svg>
