<?xml version="1.0" encoding="UTF-8" standalone="no"?>
<svg
   viewBox="0 0 48 48"
   version="1.1"
   id="svg1"
   sodipodi:docname="stickman_hook.svg"
   inkscape:version="1.3.2 (091e20ef0f, 2023-11-25)"
   xml:space="preserve"
   xmlns:inkscape="http://www.inkscape.org/namespaces/inkscape"
   xmlns:sodipodi="http://sodipodi.sourceforge.net/DTD/sodipodi-0.dtd"
   xmlns="http://www.w3.org/2000/svg"
   xmlns:svg="http://www.w3.org/2000/svg"><sodipodi:namedview
     id="namedview1"
     pagecolor="#505050"
     bordercolor="#eeeeee"
     borderopacity="1"
     inkscape:showpageshadow="0"
     inkscape:pageopacity="0"
     inkscape:pagecheckerboard="0"
     inkscape:deskcolor="#505050"
     inkscape:zoom="6.2976698"
     inkscape:cx="-22.309839"
     inkscape:cy="10.083095"
     inkscape:window-width="1918"
     inkscape:window-height="1053"
     inkscape:window-x="0"
     inkscape:window-y="0"
     inkscape:window-maximized="1"
     inkscape:current-layer="svg1" /><defs
     id="defs1"><style
       id="style1">.a { fill:none;stroke:#fff;stroke-linecap:round;stroke-linejoin:round; }
</style></defs><path
     id="path8"
     style="fill:none;fill-opacity:0.266292;stroke:#fff;stroke-linecap:round;stroke-linejoin:round;stroke-opacity:1"
     d="m 40.655635,10.407223 c -1.639313,1.752156 -3.471095,3.371791 -5.487816,4.864075 m -1.616721,1.385091 -4.106596,3.200203 m -8.304896,7.471466 2.469702,2.70725 -2.912137,1.688188 -0.517435,1.369341 m -3.913913,-6.800715 7.719695,-2.712676 m 0.397043,0.216158 -3.477606,3.749575 -4.899234,6.251219 L 15.6087,35.17845 M 29.505177,20.507597 a 3.6165226,3.6165226 0 0 1 -3.616522,3.616523 3.6165226,3.6165226 0 0 1 -3.616523,-3.616523 3.6165226,3.6165226 0 0 1 3.616523,-3.616523 3.6165226,3.6165226 0 0 1 3.616522,3.616523 z M 45.5,24 A 21.5,21.5 0 0 1 24,45.5 21.5,21.5 0 0 1 2.5,24 21.5,21.5 0 0 1 24,2.5 21.5,21.5 0 0 1 45.5,24 Z" /></svg>
