<?xml version="1.0" encoding="UTF-8" standalone="no"?>
<svg
   viewBox="0 0 48 48"
   version="1.1"
   id="svg1"
   sodipodi:docname="switch_tv.svg"
   inkscape:version="1.3.2 (091e20ef0f, 2023-11-25)"
   xml:space="preserve"
   xmlns:inkscape="http://www.inkscape.org/namespaces/inkscape"
   xmlns:sodipodi="http://sodipodi.sourceforge.net/DTD/sodipodi-0.dtd"
   xmlns="http://www.w3.org/2000/svg"
   xmlns:svg="http://www.w3.org/2000/svg"><sodipodi:namedview
     id="namedview1"
     pagecolor="#505050"
     bordercolor="#eeeeee"
     borderopacity="1"
     inkscape:showpageshadow="0"
     inkscape:pageopacity="0"
     inkscape:pagecheckerboard="0"
     inkscape:deskcolor="#505050"
     inkscape:zoom="4.453125"
     inkscape:cx="100.94035"
     inkscape:cy="60.070175"
     inkscape:window-width="1918"
     inkscape:window-height="1053"
     inkscape:window-x="0"
     inkscape:window-y="0"
     inkscape:window-maximized="1"
     inkscape:current-layer="svg1" /><defs
     id="defs1"><style
       id="style1">.a { fill:none;stroke:#fff;stroke-linecap:round;stroke-linejoin:round; }
</style></defs><path
     id="line395-6"
     style="fill:none;stroke:#fff;stroke-width:1;stroke-linecap:round;stroke-linejoin:round
     class="t"
     d="m 32.163157,31.777316 h 1.720287 m -0.860143,-1.32293 v 4.770571 c 0,0.442822 0.366752,0.801777 0.819192,0.801777 h 0.245758 m 4.845003,-4.249417 -1.638385,4.249417 -1.638385,-4.249417 M 18.946468,26.774299 c 0.507798,-0.878241 1.463011,-1.469765 2.557691,-1.469765 v 0 c 1.626779,0 2.945462,1.30649 2.945462,2.918226 v 1.896848 c 0,1.611738 -1.318683,2.918228 -2.945462,2.918228 v 0 c -1.092618,0 -2.046212,-0.589336 -2.554745,-1.464804 M 30.046035,33.03784 H 26.95333 m 1.546353,2.407535 v -8.681726 c 0,-0.805869 -0.659342,-1.459115 -1.472732,-1.459115 H 26.585133 M 9.331686,22.315275 c 0.5378438,0.447364 1.118395,0.652515 2.422499,0.652515 h 0.660813 c 1.075388,0 1.947098,-0.865546 1.947098,-1.933325 v 0 c 0,-1.067779 -0.87171,-1.933325 -1.947098,-1.933325 H 11.09337 c -1.075388,0 -1.947101,-0.865548 -1.947101,-1.933326 v 0 c 0,-1.06778 0.871713,-1.933326 1.947101,-1.933326 h 0.660815 c 1.303955,0 1.884652,0.205005 2.422494,0.652516 m 15.450517,-4.227346 c 0,0.564092 -0.461555,1.02138 -1.030911,1.02138 -0.569358,0 -1.030912,-0.457288 -1.030912,-1.02138 0,-0.564091 0.461554,-1.02138 1.030912,-1.02138 0.569356,0 1.030911,0.457289 1.030911,1.02138 z m -1.030911,3.574823 v 7.733309 m -12.401899,7.151822 c 0,1.611738 -1.318683,2.918228 -2.945462,2.918228 v 0 c -1.626778,0 -2.945461,-1.30649 -2.945461,-2.918228 v -4.815076 m 5.890923,11.672908 V 25.304534 M 25.961549,15.18207 23.531544,22.915373 21.101538,15.18207 18.671533,22.915373 16.241527,15.18207 M 9.5,5.5 h 29 c 2.216,0 4,1.784 4,4 v 29 c 0,2.216 -1.784,4 -4,4 h -29 c -2.216,0 -4,-1.784 -4,-4 v -29 c 0,-2.216 1.784,-4 4,-4 z" /></svg>
