<?xml version="1.0" encoding="UTF-8" standalone="no"?>
<svg
   viewBox="0 0 48 48"
   version="1.1"
   id="svg1"
   sodipodi:docname="swyp.svg"
   inkscape:version="1.3.2 (091e20ef0f, 2023-11-25)"
   xml:space="preserve"
   xmlns:inkscape="http://www.inkscape.org/namespaces/inkscape"
   xmlns:sodipodi="http://sodipodi.sourceforge.net/DTD/sodipodi-0.dtd"
   xmlns="http://www.w3.org/2000/svg"
   xmlns:svg="http://www.w3.org/2000/svg"><sodipodi:namedview
     id="namedview1"
     pagecolor="#505050"
     bordercolor="#eeeeee"
     borderopacity="1"
     inkscape:showpageshadow="0"
     inkscape:pageopacity="0"
     inkscape:pagecheckerboard="0"
     inkscape:deskcolor="#505050"
     inkscape:zoom="6.2976698"
     inkscape:cx="-35.648106"
     inkscape:cy="34.695373"
     inkscape:window-width="1918"
     inkscape:window-height="1053"
     inkscape:window-x="0"
     inkscape:window-y="0"
     inkscape:window-maximized="1"
     inkscape:current-layer="svg1"
     showgrid="false" /><defs
     id="defs1"><style
       id="style1">.a { fill:none;stroke:#fff;stroke-linecap:round;stroke-linejoin:round; }
</style></defs><path
     id="line427"
     style="fill:none;stroke:#fff;stroke-width:1stroke-linecap:round;stroke-linejoin:round;stroke-opacity:1"
     d="m 31.70534,18.019669 -1.148895,8.974185 m 0.674976,-5.272331 c -0.158634,1.23911 0.718572,2.243546 1.959359,2.243546 v 0 c 1.240788,0 2.375174,-1.004436 2.533808,-2.243546 l 0.186695,-1.458306 c 0.158634,-1.23911 -0.718572,-2.243546 -1.95936,-2.243546 v 0 c -1.240787,0 -2.375173,1.004436 -2.533807,2.243546 m -19.284991,3.200195 c 0.366195,0.343935 0.788805,0.501657 1.783479,0.501657 h 0.504021 c 0.820227,0 1.570295,-0.665436 1.67539,-1.486349 v 0 c 0.105096,-0.820914 -0.474591,-1.486351 -1.294818,-1.486351 h -1.008042 c -0.820227,0 -1.399914,-0.665435 -1.294819,-1.486349 v 0 c 0.105095,-0.820913 0.855163,-1.486349 1.67539,-1.486349 h 0.504021 c 0.994563,0 1.417299,0.157609 1.783479,0.501657 m 13.991856,-0.501657 -0.473919,3.701852 c -0.158634,1.23911 -1.29302,2.243546 -2.533807,2.243546 v 0 c -1.240788,0 -2.117994,-1.004436 -1.95936,-2.243546 l 0.473919,-3.701852 m 4.019248,3.701852 -0.387752,3.028787 c -0.158633,1.239111 -1.293019,2.243546 -2.533807,2.243546 v 0 c -0.620394,0 -1.149899,-0.251052 -1.50443,-0.657135 m -0.716065,-8.31705 -2.614573,5.945397 -1.09229,-5.945397 -2.614573,5.945397 -1.092288,-5.945397 m 3.568133,-7.607918 C 21.42358,9.3375016 21.213996,8.1252266 20.207802,7.5525675 19.724605,7.2775639 19.151922,7.2068143 18.615817,7.3540415 18.080246,7.5011221 17.676485,7.8876458 17.349186,8.3364386 L 7.9875735,21.173093 c -1.3637856,1.870024 -0.9238883,4.501742 0.9576469,5.849355 0.876864,0.628037 1.9653576,0.886476 3.0325486,0.730658 l -0.20258,0.370445 -5.3570924,4.070808 c -4.7723479,3.626465 0.2539789,10.911849 5.3489084,7.754795 L 40.44321,22.180049 c 2.950401,-1.828205 3.956301,-5.636618 2.17926,-8.618486 -0.853532,-1.432224 -2.24113,-2.466427 -3.857189,-2.875558 -0.418611,-0.105979 -0.843694,-0.167641 -1.268677,-0.186246 -0.424984,-0.0186 -0.865028,-0.05485 -1.268678,0.07368 l -17.548675,5.587384 z" /></svg>
