<?xml version="1.0" encoding="UTF-8" standalone="no"?>
<svg
   viewBox="0 0 48 48"
   version="1.1"
   id="svg1"
   sodipodi:docname="tarteel.svg"
   inkscape:version="1.3.2 (091e20ef0f, 2023-11-25)"
   xml:space="preserve"
   xmlns:inkscape="http://www.inkscape.org/namespaces/inkscape"
   xmlns:sodipodi="http://sodipodi.sourceforge.net/DTD/sodipodi-0.dtd"
   xmlns="http://www.w3.org/2000/svg"
   xmlns:svg="http://www.w3.org/2000/svg"><sodipodi:namedview
     id="namedview1"
     pagecolor="#505050"
     bordercolor="#eeeeee"
     borderopacity="1"
     inkscape:showpageshadow="0"
     inkscape:pageopacity="0"
     inkscape:pagecheckerboard="0"
     inkscape:deskcolor="#505050"
     inkscape:zoom="8.90625"
     inkscape:cx="21.277193"
     inkscape:cy="22.736842"
     inkscape:window-width="1918"
     inkscape:window-height="1053"
     inkscape:window-x="0"
     inkscape:window-y="0"
     inkscape:window-maximized="1"
     inkscape:current-layer="svg1" /><defs
     id="defs1"><style
       id="style1">.a { fill:none;stroke:#fff;stroke-linecap:round;stroke-linejoin:round; }
</style></defs><path
     id="path3"
     style="fill:none;fill-opacity:0.266292;stroke:#fff;stroke-width:1stroke-linecap:round;stroke-linejoin:round;stroke-opacity:1"
     d="m 26.981357,20.786337 -8.513283,-8.528299 c -0.880661,-0.882214 -2.298627,-0.882214 -3.179287,0 L 5.156364,22.408331 v 0 c -0.8806607,0.882214 -0.8806607,2.302679 0,3.184893 l 10.13087,10.148738 c 0.880661,0.882215 2.298627,0.882215 3.179287,0 l 8.543053,-8.55812 c 0.527685,-0.528617 1.711065,-0.540299 2.238752,-0.01168 l 4.397424,4.405181 c 0.88066,0.882213 2.298626,0.882213 3.179286,0 l 6.0186,-6.029216 c 0.88066,-0.882213 0.880661,-2.302679 0,-3.184893 l -6.0186,-6.029221 c -0.88066,-0.882214 -2.298626,-0.882213 -3.179286,0 l -4.442928,4.450765 c -0.523605,0.524528 -1.69786,0.526083 -2.221465,0.0016 z"
     sodipodi:nodetypes="ssscssssssssssssss" /></svg>
