<?xml version="1.0" encoding="UTF-8" standalone="no"?>
<svg
   viewBox="0 0 48 48"
   version="1.1"
   id="svg1"
   sodipodi:docname="weatherbug.svg"
   inkscape:version="1.3.2 (091e20ef0f, 2023-11-25)"
   xml:space="preserve"
   xmlns:inkscape="http://www.inkscape.org/namespaces/inkscape"
   xmlns:sodipodi="http://sodipodi.sourceforge.net/DTD/sodipodi-0.dtd"
   xmlns="http://www.w3.org/2000/svg"
   xmlns:svg="http://www.w3.org/2000/svg"><sodipodi:namedview
     id="namedview1"
     pagecolor="#505050"
     bordercolor="#eeeeee"
     borderopacity="1"
     inkscape:showpageshadow="0"
     inkscape:pageopacity="0"
     inkscape:pagecheckerboard="0"
     inkscape:deskcolor="#505050"
     inkscape:zoom="12.59534"
     inkscape:cx="-7.3439862"
     inkscape:cy="34.496887"
     inkscape:window-width="1918"
     inkscape:window-height="1053"
     inkscape:window-x="0"
     inkscape:window-y="0"
     inkscape:window-maximized="1"
     inkscape:current-layer="svg1" /><defs
     id="defs1"><style
       id="style1">.a { fill:none;stroke:#fff;stroke-linecap:round;stroke-linejoin:round; }
</style></defs><path
     id="path22"
     style="fill:none;fill-opacity:0.266292;stroke:#fff;stroke-width:1stroke-linecap:round;stroke-linejoin:round;stroke-opacity:1"
     d="m 11.584624,28.537024 1.693765,-6.240745 c 0.07945,-0.292732 0.481705,-0.409673 0.778855,-0.470607 l 3.84419,-0.78829 c 0.558934,-0.114615 0.922479,0.441478 0.752167,0.752577 l -1.871343,3.418278 2.365156,-0.567287 c 0.697525,-0.167303 0.953073,0.380094 0.771818,0.668054 l -5.874675,9.333099 c -0.201319,0.319837 -1.185098,0.06389 -1.092685,-0.302555 l 1.360284,-5.393945 -2.132449,0.268208 c -0.29806,0.03749 -0.673765,-0.386879 -0.595083,-0.676787 z m 19.885771,7.19182 v 0 c 0,1.198534 -0.971648,2.170138 -2.170238,2.170138 -1.19859,0 -2.170238,-0.971603 -2.170238,-2.170138 0,-0.400895 0.117959,-0.789808 0.320841,-1.135582 l 1.849397,-3.151965 1.849475,3.15209 c 0.202855,0.34573 0.320763,0.734612 0.320763,1.135457 z M 30.660656,22.220803 v 1.345726 m -1.388883,1.059779 1.165488,-0.672864 m 7.358805,2.386799 -1.165488,0.672864 m -0.223395,1.732642 v -1.345727 m 1.485024,0.599397 -8.699503,-5.022431 m 1.467952,5.768761 v -1.345727 m -1.388883,-1.059779 1.165488,0.672864 m 7.358805,-2.386799 -1.165488,-0.672864 m -0.223395,-1.732641 v 1.345726 m 1.485024,-0.599396 -8.699503,5.02243 m 5.738634,1.618082 -1.165487,-0.672864 m -1.612279,0.672864 1.165487,-0.672864 m 1.612279,-7.566019 -1.165487,0.672863 m -1.612279,-0.672863 1.165487,0.672863 m 0.223396,-1.585707 v 10.04486 M 33.709726,5.4999999 c -1.62169,0.4602275 -2.617052,1.2268796 -3.329634,2.242265 M 14.374055,5.4999999 c 1.626181,0.461502 2.622561,1.2311279 3.335547,2.2507059 m 6.332289,7.7446472 V 42.498901 M 7.0005937,18.712 a 26.27494,13.467892 0 0 1 17.0412973,-3.216807 26.27494,13.467892 0 0 1 16.939885,3.17274 m 0.985672,5.865442 A 17.967448,17.966625 0 0 1 24,42.5 17.967448,17.966625 0 0 1 6.032552,24.533375 17.967448,17.966625 0 0 1 24,6.5667501 17.967448,17.966625 0 0 1 41.967448,24.533375 Z" /></svg>
