<?xml version="1.0" encoding="UTF-8" standalone="no"?>
<svg
   viewBox="0 0 48 48"
   version="1.1"
   id="svg1"
   sodipodi:docname="weezer.svg"
   inkscape:version="1.3.2 (091e20ef0f, 2023-11-25)"
   xml:space="preserve"
   xmlns:inkscape="http://www.inkscape.org/namespaces/inkscape"
   xmlns:sodipodi="http://sodipodi.sourceforge.net/DTD/sodipodi-0.dtd"
   xmlns="http://www.w3.org/2000/svg"
   xmlns:svg="http://www.w3.org/2000/svg"><sodipodi:namedview
     id="namedview1"
     pagecolor="#505050"
     bordercolor="#eeeeee"
     borderopacity="1"
     inkscape:showpageshadow="0"
     inkscape:pageopacity="0"
     inkscape:pagecheckerboard="0"
     inkscape:deskcolor="#505050"
     inkscape:zoom="4.453125"
     inkscape:cx="-43.901754"
     inkscape:cy="35.592982"
     inkscape:window-width="1918"
     inkscape:window-height="1053"
     inkscape:window-x="0"
     inkscape:window-y="0"
     inkscape:window-maximized="1"
     inkscape:current-layer="svg1" /><defs
     id="defs1"><style
       id="style1">.a { fill:none;stroke:#fff;stroke-linecap:round;stroke-linejoin:round; }
</style></defs><path
     id="path4"
     style="display:inline;fill:none;fill-opacity:0.266292;stroke:#fff;stroke-width:1stroke-linecap:round;stroke-linejoin:round;stroke-dasharray:none"
     d="M 33.771668,6.5989786 33.664894,5.7854762 C 33.522195,4.7006112 32.872891,4.5226167 32.211954,4.5023405 v -5.5e-6 0 c -0.220313,-0.00676 -0.442633,0.00432 -0.647436,0.00432 H 20.547294 c -1.362733,0 -2.344288,0.7452519 -2.1675,2.0772519 l 1.645654,12.3964341 c -0.464767,-0.06655 -0.933624,-0.100528 -1.403137,-0.101702 -5.561325,8.63e-4 -10.0691394,4.506459 -10.0688074,10.063852 -1.76e-4,2.951263 1.271017,5.605907 3.2961924,7.446792 m 5.803329,2.570896 c 0.318986,0.03049 0.642315,0.04611 0.969286,0.04617 5.562172,3.32e-4 10.072507,-4.505614 10.070974,-10.063853 -1.26e-4,-0.45651 -0.03202,-0.858611 -0.129921,-1.596887 l -1.53089,-11.543884 c -0.135151,-1.018289 -0.05918,-2.007132 1.372822,-2.023157 l 4.772398,-0.05193 c 0.68517,-0.0076 1.446883,-0.631423 1.32302,-1.573085 L 34.395936,11.35522 m 2.748546,-2.3592184 c -0.220313,-0.0068 -0.442633,0.0043 -0.647436,0.0043 H 25.479822 c -1.362736,0 -2.344288,0.745249 -2.1675,2.0772524 l 1.645654,12.396434 c -0.464767,-0.06655 -0.933624,-0.100528 -1.403137,-0.101703 -5.561336,8.63e-4 -10.069139,4.506448 -10.068807,10.063853 -3.32e-4,5.557404 4.507471,10.062989 10.068807,10.063852 5.562183,3.33e-4 10.072507,-4.505602 10.070974,-10.063852 -1.26e-4,-0.45651 -0.03202,-0.858609 -0.129921,-1.596887 L 31.964998,20.295388 c -0.135152,-1.018291 -0.05918,-2.007132 1.372822,-2.023157 l 4.772397,-0.05193 c 0.685173,-0.0076 1.446884,-0.631422 1.323021,-1.573086 L 38.597419,10.27914 C 38.45472,9.1942716 37.805418,9.0162796 37.144479,8.9960036 Z" /></svg>
