<?xml version="1.0" encoding="UTF-8" standalone="no"?>
<svg
   viewBox="0 0 48 48"
   version="1.1"
   id="svg1"
   sodipodi:docname="widgetopia.svg"
   inkscape:version="1.3.2 (091e20ef0f, 2023-11-25)"
   xml:space="preserve"
   xmlns:inkscape="http://www.inkscape.org/namespaces/inkscape"
   xmlns:sodipodi="http://sodipodi.sourceforge.net/DTD/sodipodi-0.dtd"
   xmlns="http://www.w3.org/2000/svg"
   xmlns:svg="http://www.w3.org/2000/svg"><sodipodi:namedview
     id="namedview1"
     pagecolor="#505050"
     bordercolor="#eeeeee"
     borderopacity="1"
     inkscape:showpageshadow="0"
     inkscape:pageopacity="0"
     inkscape:pagecheckerboard="0"
     inkscape:deskcolor="#505050"
     inkscape:zoom="8.90625"
     inkscape:cx="11.396491"
     inkscape:cy="23.073684"
     inkscape:window-width="1918"
     inkscape:window-height="1053"
     inkscape:window-x="0"
     inkscape:window-y="0"
     inkscape:window-maximized="1"
     inkscape:current-layer="svg1" /><defs
     id="defs1"><style
       id="style1">.a { fill:none;stroke:#fff;stroke-linecap:round;stroke-linejoin:round; }
</style></defs><path
     id="path6"
     style="fill:none;fill-opacity:0.266292;stroke:#fff;stroke-width:1stroke-linecap:round;stroke-linejoin:round;stroke-dasharray:none;stroke-opacity:1"
     d="m 33.964798,31.589477 h -4.750644 m -0.641903,-6.517225 h 6.03445 c 1.939,0 3.5,1.561 3.5,3.5 v 6.03445 c 0,1.939001 -1.561,3.5 -3.5,3.5 H 28.57225 c -1.939,0 -3.5,-1.560999 -3.5,-3.5 v -6.03445 c 0,-1.939 1.561,-3.5 3.500001,-3.5 z m 3.017225,4.141903 v 4.750643 M 13.393299,25.072252 h 6.034449 c 1.939,0 3.5,1.561 3.5,3.5 v 6.03445 c 0,1.939001 -1.561,3.5 -3.5,3.5 h -6.034449 c -1.939,0 -3.5000002,-1.560999 -3.5000002,-3.5 v -6.03445 c 0,-1.939 1.5610002,-3.5 3.5000002,-3.5 z M 28.572251,9.8932978 h 6.03445 c 1.939,0 3.5,1.5610002 3.5,3.5000002 v 6.03445 c 0,1.939 -1.561,3.5 -3.5,3.5 H 28.57225 c -1.939,0 -3.5,-1.561 -3.5,-3.5 v -6.034451 c 0,-1.939 1.561,-3.4999992 3.500001,-3.4999992 z m -15.178952,0 h 6.034449 c 1.939,0 3.5,1.5610002 3.5,3.5000002 v 6.03445 c 0,1.939 -1.561,3.5 -3.5,3.5 h -6.034449 c -1.939,0 -3.5000002,-1.561 -3.5000002,-3.5 v -6.034451 c 0,-1.939 1.5610002,-3.4999992 3.5000002,-3.4999992 z M 9.5,5.5 h 29 c 2.216,0 4,1.784 4,4 v 29 c 0,2.216 -1.784,4 -4,4 h -29 c -2.216,0 -4,-1.784 -4,-4 v -29 c 0,-2.216 1.784,-4 4,-4 z" /></svg>
