<?xml version="1.0" encoding="UTF-8" standalone="no"?>
<!-- Created with Inkscape (http://www.inkscape.org/) -->

<svg
   width="48"
   height="48"
   viewBox="0 0 48 48"
   version="1.1"
   id="svg990"
   inkscape:version="1.2.2 (b0a8486541, 2022-12-01)"
   xml:space="preserve"
   sodipodi:docname="coke_on.svg"
   xmlns:inkscape="http://www.inkscape.org/namespaces/inkscape"
   xmlns:sodipodi="http://sodipodi.sourceforge.net/DTD/sodipodi-0.dtd"
   xmlns="http://www.w3.org/2000/svg"
   xmlns:svg="http://www.w3.org/2000/svg"><sodipodi:namedview
     id="namedview992"
     pagecolor="#858585"
     bordercolor="#000000"
     borderopacity="0.25"
     inkscape:showpageshadow="2"
     inkscape:pageopacity="0"
     inkscape:pagecheckerboard="0"
     inkscape:deskcolor="#d1d1d1"
     inkscape:document-units="px"
     showgrid="false"
     inkscape:zoom="11.645833"
     inkscape:cx="10.561717"
     inkscape:cy="23.09839"
     inkscape:window-width="1366"
     inkscape:window-height="737"
     inkscape:window-x="0"
     inkscape:window-y="0"
     inkscape:window-maximized="1"
     inkscape:current-layer="svg990" /><defs
     id="defs987"><style
       id="style1174">.a{fill:none;stroke:#fff;stroke-linecap:round;stroke-linejoin:round;}</style></defs><path
     id="path15488"
     style="fill:none;stroke:#ffffff;stroke-width:1;stroke-linecap:round;stroke-linejoin:round;stroke-dasharray:none;stroke-opacity:1;stop-color:#000000"
     d="m 32.136672,16.258278 a 14.835998,14.835998 0 0 1 6.699326,12.405701 v 0 A 14.835998,14.835998 0 0 1 24.000001,43.499976 14.835998,14.835998 0 0 1 9.1640025,28.663979 14.835998,14.835998 0 0 1 15.860084,16.260407 M 25.623813,5.5618882 c 0.215629,0.4393533 0.310612,0.6973042 0.235744,1.297619 -0.223954,1.7957516 0.05744,2.2836803 0.583857,3.8360158 0.839825,2.476519 1.669246,3.928932 1.669246,7.911369 0,3.442775 -0.744708,5.174563 -0.767371,8.078209 -0.01466,1.877811 0.620718,2.878423 0.827281,4.267229 0.304687,2.048533 -1.62764,2.189784 -4.109883,2.189784 -2.482245,0 -4.414572,-0.141251 -4.109885,-2.189784 0.206563,-1.388806 0.841941,-2.389418 0.82728,-4.267229 -0.02266,-2.903646 -0.76737,-4.635434 -0.76737,-8.078209 0,-3.982437 0.829419,-5.43485 1.669245,-7.911369 0.526421,-1.5523355 0.807812,-2.0402642 0.583858,-3.8360158 -0.07487,-0.6003148 0.02012,-0.8582657 0.235744,-1.297619 -1.013139,-0.7130511 0.645959,-1.0618638 1.561127,-1.0618638 0.915166,0 2.574266,0.3488127 1.561127,1.0618638 z" /></svg>
