<?xml version="1.0" encoding="UTF-8" standalone="no"?>
<!-- Created with Inkscape (http://www.inkscape.org/) -->

<svg
   width="48"
   height="48"
   viewBox="0 0 48 48"
   version="1.1"
   id="svg990"
   inkscape:version="1.2.2 (b0a8486541, 2022-12-01)"
   xml:space="preserve"
   sodipodi:docname="deemo.svg"
   xmlns:inkscape="http://www.inkscape.org/namespaces/inkscape"
   xmlns:sodipodi="http://sodipodi.sourceforge.net/DTD/sodipodi-0.dtd"
   xmlns="http://www.w3.org/2000/svg"
   xmlns:svg="http://www.w3.org/2000/svg"><sodipodi:namedview
     id="namedview992"
     pagecolor="#858585"
     bordercolor="#000000"
     borderopacity="0.25"
     inkscape:showpageshadow="2"
     inkscape:pageopacity="0"
     inkscape:pagecheckerboard="0"
     inkscape:deskcolor="#d1d1d1"
     inkscape:document-units="px"
     showgrid="false"
     inkscape:zoom="5.4999999"
     inkscape:cx="11.272727"
     inkscape:cy="26"
     inkscape:window-width="1366"
     inkscape:window-height="737"
     inkscape:window-x="0"
     inkscape:window-y="0"
     inkscape:window-maximized="1"
     inkscape:current-layer="svg990"
     showguides="false" /><defs
     id="defs987"><style
       id="style1174">.a{fill:none;stroke:#fff;stroke-linecap:round;stroke-linejoin:round;}</style></defs><path
     id="path371"
     style="fill:none;stroke:#ffffff;stroke-width:1;stroke-linecap:round;stroke-linejoin:round;stroke-dasharray:none;stroke-opacity:1;stop-color:#000000"
     d="m 5.6521171,33.021386 c -0.6342843,-1.3341 0.2435351,-2.784448 0.9483948,-3.316396 0.648782,0.371059 0.7129856,3.745636 -0.9483948,3.316396 v 0 m 4.8135849,6.988629 c -1.1454557,-0.413161 -2.5737622,-0.37282 -4.0046,1.058929 0.987303,1.23761 3.3710743,1.150914 5.184959,0.151999 -0.36819,-1.296334 0.438963,-2.637103 0.959128,-3.40443 0.418669,1.050416 0.906804,2.581207 0.243875,3.984625 0.985097,0.761563 2.073175,1.361336 3.222257,1.8612 M 29.625216,24.977674 c 1.012915,1.582021 1.548562,3.164067 2.12442,4.920314 0.281945,-1.85368 0.265604,-3.454269 0.317081,-5.147309 m -1.27851,-1.191395 c -0.472986,0.532851 -0.87067,1.28302 -1.446738,1.396808 -0.836247,-1.5708 -0.744504,-2.865669 -0.08987,-4.285737 0.755854,0.442442 1.179552,1.072266 1.558026,1.727602 0.490394,-0.877572 1.107814,-1.379102 1.718447,-1.900722 0.167789,1.277497 0.126446,2.963166 -0.358501,4.343674 -0.533567,-0.003 -0.956311,-0.649015 -1.381368,-1.281625 z M 38.545134,13.46204 c 0,0.49536 -0.350455,0.896929 -0.782762,0.896929 -0.432307,0 -0.782762,-0.401569 -0.782762,-0.896929 0,-0.495361 0.350454,-0.89693 0.782762,-0.89693 0.432308,0 0.782762,0.401569 0.782762,0.89693 z m -6.171313,0 c 0,0.495361 -0.350455,0.89693 -0.782763,0.896929 -0.432307,0 -0.782762,-0.401569 -0.782762,-0.896929 0,-0.495361 0.350454,-0.89693 0.782762,-0.89693 0.432308,-1e-6 0.782763,0.401569 0.782763,0.89693 z m -5.978186,5.533913 c 0.684933,0.410219 1.485633,0.756317 2.419273,1.022089 -0.232339,1.179451 -0.556065,2.137304 -0.972666,2.869955 m -16.992375,8.504906 c -0.828898,0.169019 -1.7291079,0.242233 -2.6835568,0.193663 l 4.2803048,-3.734387 c -0.802185,0.356768 -1.905297,0.389936 -3.0599591,-0.220264 0.04072,-0.01573 0.081112,-0.0316 0.1211768,-0.04762 M 10.426271,21.213021 C 9.8740878,20.901056 9.2907691,20.629376 8.7148697,20.417165 c 1.1446974,-3.494039 4.3184473,-5.84427 8.9498583,-5.896155 5.647279,-0.06327 8.519489,3.395142 9.393049,5.848615 0.77555,2.178203 1.518893,5.449123 2.274534,7.490338 1.13543,3.067137 2.037947,2.951586 3.698874,4.003489 -1.230226,0.668268 -2.332741,0.765117 -3.609372,0.768996 0.948442,0.851705 1.800674,1.560935 3.112653,2.036838 -1.050852,0.986184 -2.175056,1.184383 -3.206409,1.378706 0.410132,1.072272 1.12208,2.07529 2.061671,3.147561 -2.232966,-0.25463 -4.534624,-1.14113 -5.900298,-1.98883 M 9.5078327,27.584296 c 2.1528563,-0.860554 3.3619603,-2.132501 3.9073773,-3.484743 -0.349449,-1.010856 -1.565784,-2.082496 -2.988939,-2.886532 0.646215,1.709205 -0.177118,2.673393 -1.7106428,2.502331 0.0575,1.37487 0.2837615,2.680115 0.7922045,3.868944 m 9.9378383,13.021083 c -0.611238,-0.797997 -1.207974,-1.677585 -1.684972,-2.641186 m 0,0 c -0.638122,-1.289097 -1.06195,-2.728552 -1.01952,-4.324164 -0.501704,0.520658 -1.244878,1.142943 -2.105077,1.689529 m -0.702514,-2.925695 c -1.326509,1.555172 -3.36664,2.679322 -5.4784068,3.41946 1.2464727,-1.199887 1.9666258,-2.692632 2.3946858,-4.43042 1.372592,-0.279882 2.54964,-0.822468 3.453621,-1.509786 -0.06597,2.118001 -0.534342,4.308477 -1.333217,6.317579 0.579804,-0.236214 1.144324,-0.539764 1.665831,-0.871138 m 28.416419,-2.648017 c 2.053684,0.253133 2.189694,-0.968832 2.447516,-1.680445 -1.484794,-0.556486 -1.753647,0.364415 -2.184261,0.886066 m -3.1498,5.365437 c 1.601946,0.615404 2.126715,-0.432131 3.162839,-1.376147 -0.803761,-0.333509 -1.555841,-0.249539 -2.274097,0.107605 m -4.357562,4.830225 c 1.507187,1.889606 3.796852,1.808851 5.067445,0.02926 -1.106066,-0.493583 -1.698321,-1.885476 -4.173734,-0.800164 M 4.5865679,30.907755 c -1.637816,0.432642 -1.964035,-1.087298 -2.0866014,-2.05531 0.517126,0.202542 1.0342553,0.157621 1.5513814,0.743087 m 3.7229194,7.44858 C 5.837982,37.223099 4.9051215,36.113024 3.9936263,34.657005 4.5367762,34.428672 5.4383346,34.33762 6.2010693,34.568865 M 3.5676138,24.257398 c 0,-11.635819 9.1693092,-21.0685553 20.4801772,-21.0685554 M 42.377169,14.848296 c 1.376366,2.831993 2.1508,6.027514 2.1508,9.409102 v 0 c 0,4.269823 -1.25302,8.330532 -3.467626,11.729805 m -0.891998,1.265216 c -0.76399,1.003266 -1.617535,1.936893 -2.551839,2.787233 m -0.908384,0.779728 c -1.4099,1.140662 -2.979797,2.101672 -4.683858,2.842958 m -21.567035,-3.6426 C 9.4674898,39.116351 8.5687001,38.119369 7.7713579,37.045078 M 6.192772,34.577561 C 4.5055844,31.489346 3.5676138,27.95164 3.5676138,24.257398 M 22.685562,43.457147 c -1.421121,1.160519 -2.933626,1.510293 -4.246448,1.314601 -1.312823,-0.195693 -2.425963,-0.936852 -3.048353,-1.958199 1.694074,-1.485232 3.100421,-1.959435 4.291926,-1.744778 l 0.745177,0.236231 c -0.612577,-0.933434 -0.776381,-2.039107 -0.530867,-2.86144 2.213889,-0.102553 4.257534,1.7107 4.150794,3.820031 -0.106739,-2.109331 1.936906,-3.922584 4.150795,-3.820031 v 0 c 0.245513,0.822333 0.08171,1.928006 -0.530866,2.86144 l 0.745177,-0.236231 c 1.191505,-0.214657 2.597851,0.259546 4.291925,1.744778 -0.62239,1.021347 -1.735531,1.762506 -3.048353,1.958199 -1.312823,0.195692 -2.825328,-0.154082 -4.246446,-1.314601 M 24.047791,34.99742 c 1.649265,1.233873 1.76517,4.462668 0,5.338336 -1.765168,-0.875668 -1.649264,-4.104463 0,-5.338336 z m -1.854862,7.780459 c 0.527197,0.226251 1.144399,0.363847 1.854862,0.375135 0.710463,-0.01129 1.327665,-0.148884 1.854863,-0.375135 M 23.684423,16.182826 c -0.830148,-1.547197 -1.083978,-3.329419 -1.069308,-5.05633 0.04117,-4.8483765 4.476649,-8.152066 8.898321,-7.8797331 6.162933,0.3795781 8.614996,4.7926495 8.701106,9.2545591 0.108415,5.617617 -3.999593,7.669407 -7.173023,7.988285 -0.373395,3.969112 0.787389,5.48096 3.770966,7.07747 0.529227,2.120179 -0.04115,4.034293 -0.554095,5.882184 -0.505786,1.822085 -0.480915,2.825752 -0.676511,4.278643 l -0.670361,4.103926 m 5.898335,-5.901401 c -1.56147,-0.916367 -0.477518,-2.098246 -0.552547,-3.371116 0.93258,0.235931 1.346792,1.277728 1.355526,2.270954" /></svg>
