<?xml version="1.0" encoding="UTF-8" standalone="no"?>
<!-- Created with Inkscape (http://www.inkscape.org/) -->

<svg
   width="48"
   height="48"
   viewBox="0 0 48 48"
   version="1.1"
   id="svg990"
   inkscape:version="1.2.2 (b0a8486541, 2022-12-01)"
   xml:space="preserve"
   sodipodi:docname="deemo_alt.svg"
   xmlns:inkscape="http://www.inkscape.org/namespaces/inkscape"
   xmlns:sodipodi="http://sodipodi.sourceforge.net/DTD/sodipodi-0.dtd"
   xmlns="http://www.w3.org/2000/svg"
   xmlns:svg="http://www.w3.org/2000/svg"><sodipodi:namedview
     id="namedview992"
     pagecolor="#858585"
     bordercolor="#000000"
     borderopacity="0.25"
     inkscape:showpageshadow="2"
     inkscape:pageopacity="0"
     inkscape:pagecheckerboard="0"
     inkscape:deskcolor="#d1d1d1"
     inkscape:document-units="px"
     showgrid="false"
     inkscape:zoom="4.1174239"
     inkscape:cx="-28.172955"
     inkscape:cy="15.057959"
     inkscape:window-width="1366"
     inkscape:window-height="737"
     inkscape:window-x="0"
     inkscape:window-y="0"
     inkscape:window-maximized="1"
     inkscape:current-layer="svg990" /><defs
     id="defs987"><style
       id="style1174">.a{fill:none;stroke:#fff;stroke-linecap:round;stroke-linejoin:round;}</style></defs><path
     id="path31991"
     style="fill:none;stroke:#ffffff;stroke-width:1;stroke-linecap:round;stroke-linejoin:round;stroke-dasharray:none;stroke-opacity:1;stop-color:#000000"
     d="m 23.071143,27.883729 c -4.733973,-0.730706 -9.351231,4.432352 -4.431229,7.797932 4.317983,1.578986 7.330452,-1.425754 7.88656,-4.527683 l -0.846129,-11.70793 c 1.707229,1.282147 2.958038,2.821516 4.201679,4.364922 l 0.975252,-3.296071 c -1.897351,-0.719351 -3.713076,-1.752754 -5.261515,-3.814526 -0.38805,-1.04746 -0.252859,-1.710775 -0.25746,-2.476719 1.132215,0.719373 2.694091,2.655835 4.226523,4.508898 l 1.379302,-2.957921 c -2.058249,-0.817442 -4.116495,-1.549319 -6.174743,-5.063515 -0.470973,0.596896 -1.812619,1.026316 -3.078718,1.47027 1.043747,1.978028 1.630466,3.82693 1.606114,4.983682 z M 45.499972,24 C 45.499973,35.874107 35.874107,45.499973 24,45.499972 12.125893,45.499972 2.5000279,35.874107 2.5000285,24 2.5000282,12.125893 12.125893,2.5000281 24,2.5000284 35.874107,2.5000278 45.499972,12.125893 45.499972,24 Z"
     sodipodi:nodetypes="ccccccccccccccsssss" /></svg>
