<?xml version="1.0" encoding="UTF-8" standalone="no"?>
<!-- Created with Inkscape (http://www.inkscape.org/) -->

<svg
   width="48"
   height="48"
   viewBox="0 0 48 48"
   version="1.1"
   id="svg990"
   inkscape:version="1.2.2 (b0a8486541, 2022-12-01)"
   xml:space="preserve"
   sodipodi:docname="finance_manager.svg"
   xmlns:inkscape="http://www.inkscape.org/namespaces/inkscape"
   xmlns:sodipodi="http://sodipodi.sourceforge.net/DTD/sodipodi-0.dtd"
   xmlns="http://www.w3.org/2000/svg"
   xmlns:svg="http://www.w3.org/2000/svg"><sodipodi:namedview
     id="namedview992"
     pagecolor="#858585"
     bordercolor="#000000"
     borderopacity="0.25"
     inkscape:showpageshadow="2"
     inkscape:pageopacity="0"
     inkscape:pagecheckerboard="0"
     inkscape:deskcolor="#d1d1d1"
     inkscape:document-units="px"
     showgrid="false"
     inkscape:zoom="5.8229167"
     inkscape:cx="52.207513"
     inkscape:cy="32.286225"
     inkscape:window-width="1366"
     inkscape:window-height="737"
     inkscape:window-x="0"
     inkscape:window-y="0"
     inkscape:window-maximized="1"
     inkscape:current-layer="svg990" /><defs
     id="defs987"><style
       id="style1174">.a{fill:none;stroke:#fff;stroke-linecap:round;stroke-linejoin:round;}</style></defs><path
     id="path1407"
     style="fill:none;stroke:#ffffff;stroke-width:1.0001;stroke-linecap:round;stroke-linejoin:round;stroke-dasharray:none;stroke-opacity:1;stop-color:#000000"
     d="m 37.510855,25.905358 a 1.8600242,1.8600242 0 0 1 -1.860024,1.860024 1.8600242,1.8600242 0 0 1 -1.860024,-1.860024 1.8600242,1.8600242 0 0 1 1.860024,-1.860024 1.8600242,1.8600242 0 0 1 1.860024,1.860024 z m 5.988975,4.755246 c -0.139195,0.01249 -0.280203,0.01886 -0.422757,0.01886 h -8.232582 c -2.564833,0 -4.629668,-2.064833 -4.629668,-4.629667 v -0.520858 c 0,-2.564834 2.064835,-4.629667 4.629668,-4.629667 v 0 h 8.232582 c 0.142563,0 0.283581,0.0063 0.422787,0.01886 M 5.0792121,12.25347 H 42.342535 c 0.641208,0 1.157417,0.516207 1.157417,1.157417 v 26.785786 c 0,0.641209 -0.516209,1.157416 -1.157417,1.157416 H 5.6574647 c -0.641209,0 -1.1574277,-0.516207 -1.1574168,-1.157416 L 4.5005038,13.30603 c 2.08e-5,-1.227511 1.8651282,-1.882214 3.3297594,-2.131485 L 34.059162,6.7105703 c 2.528478,-0.4303292 4.674404,1.3105215 5.340806,3.7872707 l 0.450915,1.675869" /></svg>
