<?xml version="1.0" encoding="UTF-8" standalone="no"?>
<!-- Created with Inkscape (http://www.inkscape.org/) -->

<svg
   width="48"
   height="48"
   viewBox="0 0 48 48"
   version="1.1"
   id="svg990"
   inkscape:version="1.2.2 (b0a8486541, 2022-12-01)"
   xml:space="preserve"
   sodipodi:docname="hurry.svg"
   xmlns:inkscape="http://www.inkscape.org/namespaces/inkscape"
   xmlns:sodipodi="http://sodipodi.sourceforge.net/DTD/sodipodi-0.dtd"
   xmlns="http://www.w3.org/2000/svg"
   xmlns:svg="http://www.w3.org/2000/svg"><sodipodi:namedview
     id="namedview992"
     pagecolor="#858585"
     bordercolor="#000000"
     borderopacity="0.25"
     inkscape:showpageshadow="2"
     inkscape:pageopacity="0"
     inkscape:pagecheckerboard="0"
     inkscape:deskcolor="#d1d1d1"
     inkscape:document-units="px"
     showgrid="false"
     inkscape:zoom="5.8229167"
     inkscape:cx="15.799642"
     inkscape:cy="29.881932"
     inkscape:window-width="1366"
     inkscape:window-height="737"
     inkscape:window-x="0"
     inkscape:window-y="0"
     inkscape:window-maximized="1"
     inkscape:current-layer="svg990" /><defs
     id="defs987"><style
   id="style1174">.a{fill:none;stroke:#fff;stroke-linecap:round;stroke-linejoin:round;}</style>
		
		
		
		
	
		
		
	</defs><path
     id="line6042"
     style="fill:none;stroke:#fff;stroke-width:1;stroke-linecap:round;stroke-linejoin:round;stroke-miterlimit:10;stroke-dasharray:none;stroke-opacity:1"
     class="st5"
     d="m 32.27412,22.010908 h 2.555493 m 5e-6,-2e-6 c 2.007895,0 3.650719,-1.642824 3.650719,-3.65072 v 0 c 0,-2.007895 -1.642824,-3.650721 -3.650719,-3.650721 h -2.372969 c -2.007896,0 -3.65072,1.642826 -3.65072,3.650721 v 0 c 0,2.007896 1.642824,3.65072 3.65072,3.65072 m 2.372969,0 m -2.555504,0 c -2.007897,0 -3.650722,1.642824 -3.650722,3.650721 v 0 c 0,2.007897 1.642825,3.650721 3.650722,3.650721 h 2.372968 c 2.007896,0 3.65072,-1.642824 3.65072,-3.650721 v 0 c 0,-2.007897 -1.642824,-3.650721 -3.65072,-3.650721 m 5.260488,12.544922 c 2.321627,0 4.443793,-1.874556 4.283788,-4.190663 L 43.073848,14.189047 C 42.913842,11.87294 40.83274,9.998384 38.511113,9.998384 H 25.967042 c -0.773875,0 -1.304813,0.62851 -1.396887,1.396888 l -2.607935,21.76367 c -0.09208,0.768378 0.623012,1.396888 1.396887,1.396888 z M 10.032076,29.498676 c 0.721137,1.081708 1.983129,1.802845 3.966257,1.802845 h 0.360569 c 2.704267,0 4.774006,-2.163413 4.774076,-4.86768 l 1.45e-4,-4.86768 m -7.2e-5,-2e-6 c 0,2.688345 -2.178918,4.86768 -4.867265,4.86768 -2.688348,0 -4.8676808,-2.179335 -4.8676808,-4.86768 0,-2.688346 2.1793868,-4.867681 4.8677338,-4.867681 2.688348,0 4.867212,2.179335 4.867212,4.867681 z m 5.437104,12.988709 v 2.04986 c 0,0.773875 0.623013,1.396888 1.396887,1.396888 l 12.544071,-2e-6 c 2.321625,0 4.190664,-1.869037 4.190664,-4.190663 l 10e-7,-0.243728 m -19.370177,0.984008 v 2.053497 c 0,0.773875 -0.623013,1.396888 -1.396887,1.396888 l -12.5440722,-2e-6 v 0 c -2.3216248,0 -4.1906628,-1.869037 -4.1906628,-4.190663 V 14.189047 c 0,-2.321626 1.869038,-4.190663 4.1906628,-4.190663 H 21.934714 c 0.773874,0 1.396887,0.623013 1.396887,1.396888 v 10.342061" /></svg>
