<?xml version="1.0" encoding="UTF-8" standalone="no"?>
<!-- Created with Inkscape (http://www.inkscape.org/) -->

<svg
   width="48"
   height="48"
   viewBox="0 0 48 48"
   version="1.1"
   id="svg990"
   inkscape:version="1.2.2 (b0a8486541, 2022-12-01)"
   xml:space="preserve"
   sodipodi:docname="indian_bikes_driving_3d.svg"
   xmlns:inkscape="http://www.inkscape.org/namespaces/inkscape"
   xmlns:sodipodi="http://sodipodi.sourceforge.net/DTD/sodipodi-0.dtd"
   xmlns="http://www.w3.org/2000/svg"
   xmlns:svg="http://www.w3.org/2000/svg"><sodipodi:namedview
     id="namedview992"
     pagecolor="#858585"
     bordercolor="#000000"
     borderopacity="0.25"
     inkscape:showpageshadow="2"
     inkscape:pageopacity="0"
     inkscape:pagecheckerboard="0"
     inkscape:deskcolor="#d1d1d1"
     inkscape:document-units="px"
     showgrid="false"
     inkscape:zoom="8.2348475"
     inkscape:cx="26.594299"
     inkscape:cy="37.280593"
     inkscape:window-width="1366"
     inkscape:window-height="737"
     inkscape:window-x="0"
     inkscape:window-y="0"
     inkscape:window-maximized="1"
     inkscape:current-layer="svg990" /><defs
     id="defs987"><style
       id="style1174">.a{fill:none;stroke:#fff;stroke-linecap:round;stroke-linejoin:round;}</style></defs><path
     id="path1424"
     style="fill:none;stroke:#ffffff;stroke-width:1.00003;stroke-linecap:round;stroke-linejoin:round;stroke-dasharray:none;stroke-opacity:1;stop-color:#000000"
     d="m 18.910751,24.370188 c 1.820839,0.163562 3.967546,-0.413439 3.389444,-1.944115 m 1.200797,4.81222 c -0.130179,0.884061 -0.989136,1.550802 -1.918534,1.489207 -0.929398,-0.0616 -1.577292,-0.828202 -1.447112,-1.712264 0.130179,-0.884061 0.989136,-1.550802 1.918534,-1.489207 0.929398,0.0616 1.577292,0.828202 1.447112,1.712264 z m 13.501769,-1.199521 1.542358,-0.190147 c 1.438268,-0.177315 1.711744,-0.683752 1.451246,-1.592061 m 3.379302,-4.987375 0.12432,-0.6238 c -0.684704,-1.164651 -1.369409,-1.463844 -2.054112,-1.91105 l -2.026422,0.122812 m -1.237801,4.739614 1.751227,-0.342067 m 0,0 c 0.8036,-0.156966 1.432497,-0.552006 1.656248,-0.999353 l 1.545459,0.22353 0.241081,-1.209686 m -8.394797,3.983375 0.203788,-1.070398 2.996994,-0.585401 m 0.853404,1.229909 c 0.787702,1.256577 1.577888,2.51086 3.731856,2.505629 l -1.95395,-2.811342 m -8.346659,3.343391 -4.266388,-0.274468 -0.654463,3.19406 c -1.042168,0.103164 -1.545812,0.292051 -2.907487,0.165938 M 36.588833,27.82199 c -0.149382,1.683192 -1.641641,1.979154 -3.358237,1.743247 L 27.545452,28.783944 M 34.90994,27.75035 32.520092,21.881342 m -7.607927,0.482348 c -1.403872,0.05831 -2.93222,-0.02315 -4.287551,-0.261552 m 7.855702,-0.325834 c -0.857438,0.326748 -2.149213,0.528456 -3.568151,0.587386 m 0.206041,1.562593 0.215124,1.631472 c 1.912995,0.07784 3.668146,0.237712 4.992528,-0.673926 1.517066,-1.044272 1.861479,-1.953622 1.711174,-3.013271 M 26.129834,17.70681 c -1.151233,-0.627286 -2.155912,-1.181899 -3.102929,-1.349616 -1.507221,-0.26693 -2.40916,-0.491227 -4.510888,0.306404 m 12.042565,5.212632 1.160888,0.01103 c 1.300159,0.01235 2.190414,-0.426535 2.884642,-0.960881 0.898585,-0.691639 3.385133,-0.998775 5.561876,-1.345347 0.585002,-0.954189 0.399437,-1.904404 -0.06245,-2.208987 L 38.68371,16.435776 c -2.485789,0.169265 -4.475026,0.207311 -6.285361,0.969008 -0.877816,0.369342 -2.189997,0.428211 -3.677342,0.39441 m -2.609605,-0.105357 c 1.320499,1.090087 2.054752,2.575283 2.641653,4.169566 M 14.970551,21.211007 c -0.377975,-0.845066 -0.950939,-1.832871 -1.837324,-1.413654 m -0.704872,-4.216236 3.881067,-2.533404 c 0.857662,0.422183 1.311851,1.014217 1.269193,1.76505 -0.03248,0.571585 -0.345019,0.928165 -0.589188,1.252509 m 0.428079,3.113599 -2.446955,2.032136 M 13.133227,19.797353 12.2602,18.244975 12.428355,15.581117 m 4.561072,0.484155 c -0.207314,0.275386 -0.365336,0.527534 -0.260783,0.868312 l 0.688862,2.245287 m 0.437866,2.298058 0.765305,4.016553 m -7.511197,4.258763 c -0.0953,0.735711 -0.770201,1.322505 -1.5074445,1.310643 -0.737244,-0.01186 -1.2576467,-0.61789 -1.162352,-1.353601 0.095295,-0.735711 0.7702009,-1.322506 1.507445,-1.310643 0.7372435,0.01186 1.2576465,0.617891 1.1623515,1.353601 z m 28.682553,-2.508116 c -3.83e-4,0.218832 -0.01484,0.441661 -0.0441,0.667612 -0.373474,2.883373 -3.018545,5.183125 -5.907928,5.13663 -1.676587,-0.02698 -3.067034,-0.838005 -3.865939,-2.077426 M 14.218128,26.440812 c 0.645575,0.919531 0.95357,2.096974 0.788144,3.374133 -0.373476,2.883374 -3.018546,5.183122 -5.9079282,5.13663 -2.8893827,-0.0465 -4.9289279,-2.421616 -4.5554519,-5.304989 0.3734763,-2.883373 3.0185464,-5.183128 5.9079291,-5.136629 0.261816,0.0042 0.516654,0.02755 0.763351,0.06865 m 5.597149,3.402537 C 17.038955,22.204573 13.17512,20.771232 8.6448029,21.568955 7.546256,21.762392 6.2311958,22.128026 6.5187627,23.173221 m 8.2526163,-0.536954 -0.73639,1.031423 m -0.788125,1.103885 -2.67065,3.740634"
     sodipodi:nodetypes="ccssssscsccccccccccccccccccccccscccccccccsccsccsscccscccccccccccccccccccsssssccsccscscccsccccc" /></svg>
