<?xml version="1.0" encoding="UTF-8" standalone="no"?>
<!-- Created with Inkscape (http://www.inkscape.org/) -->

<svg
   width="48"
   height="48"
   viewBox="0 0 48 48"
   version="1.1"
   id="svg990"
   inkscape:version="1.2.2 (b0a8486541, 2022-12-01)"
   xml:space="preserve"
   sodipodi:docname="modern_warships.svg"
   xmlns:inkscape="http://www.inkscape.org/namespaces/inkscape"
   xmlns:sodipodi="http://sodipodi.sourceforge.net/DTD/sodipodi-0.dtd"
   xmlns="http://www.w3.org/2000/svg"
   xmlns:svg="http://www.w3.org/2000/svg"><sodipodi:namedview
     id="namedview992"
     pagecolor="#858585"
     bordercolor="#000000"
     borderopacity="0.25"
     inkscape:showpageshadow="2"
     inkscape:pageopacity="0"
     inkscape:pagecheckerboard="0"
     inkscape:deskcolor="#d1d1d1"
     inkscape:document-units="px"
     showgrid="false"
     inkscape:zoom="8.2348477"
     inkscape:cx="10.443423"
     inkscape:cy="40.559341"
     inkscape:window-width="1366"
     inkscape:window-height="737"
     inkscape:window-x="0"
     inkscape:window-y="0"
     inkscape:window-maximized="1"
     inkscape:current-layer="svg990" /><defs
     id="defs987"><style
       id="style1174">.a{fill:none;stroke:#fff;stroke-linecap:round;stroke-linejoin:round;}</style></defs><path
     id="path13978-5"
     style="display:inline;fill:none;stroke:#ffffff;stroke-width:1.00036;stroke-linecap:round;stroke-linejoin:round;stroke-dasharray:none;stroke-opacity:1;stop-color:#000000"
     d="m 39.75409,15.958999 v 4.957874 l 3.211868,3.092014 h 0.533864 v -5.453392 l -2.795027,-2.795026 c -0.339093,-0.339094 -0.950705,-0.338315 -0.950705,0.19853 z m -6.296192,1.407555 10.041924,10.041641 -9.17e-4,5.169235 h -1.673893 l -9.087366,-9.130337 -9.087763,9.130337 h -1.673894 v -5.169515 l 10.041406,-10.04136 c 0,0 0.39188,-0.413805 0.720251,-0.413805 0.32837,0 0.720252,0.413804 0.720252,0.413804 z M 8.24591,32.041001 V 27.083125 L 5.034042,23.991111 H 4.500178 v 5.453393 L 7.295204,32.23953 C 7.634297,32.578625 8.24591,32.577846 8.24591,32.041001 Z M 14.542102,30.633443 4.500178,20.591802 4.501095,15.42257 h 1.673893 l 9.087366,9.130335 9.087762,-9.130335 h 1.673894 v 5.169514 L 15.982604,30.633443 c 0,0 -0.39188,0.413806 -0.72025,0.413806 -0.328371,0 -0.720252,-0.413806 -0.720252,-0.413806 z" /></svg>
