<?xml version="1.0" encoding="UTF-8" standalone="no"?>
<!-- Created with Inkscape (http://www.inkscape.org/) -->

<svg
   width="48"
   height="48"
   viewBox="0 0 48 48"
   version="1.1"
   id="svg990"
   inkscape:version="1.2.2 (b0a8486541, 2022-12-01)"
   xml:space="preserve"
   sodipodi:docname="nafath.svg"
   xmlns:inkscape="http://www.inkscape.org/namespaces/inkscape"
   xmlns:sodipodi="http://sodipodi.sourceforge.net/DTD/sodipodi-0.dtd"
   xmlns="http://www.w3.org/2000/svg"
   xmlns:svg="http://www.w3.org/2000/svg"><sodipodi:namedview
     id="namedview992"
     pagecolor="#858585"
     bordercolor="#000000"
     borderopacity="0.25"
     inkscape:showpageshadow="2"
     inkscape:pageopacity="0"
     inkscape:pagecheckerboard="0"
     inkscape:deskcolor="#d1d1d1"
     inkscape:document-units="px"
     showgrid="false"
     inkscape:zoom="11.645833"
     inkscape:cx="17.431127"
     inkscape:cy="19.406082"
     inkscape:window-width="1366"
     inkscape:window-height="737"
     inkscape:window-x="0"
     inkscape:window-y="0"
     inkscape:window-maximized="1"
     inkscape:current-layer="svg990" /><defs
     id="defs987"><style
       id="style1174">.a{fill:none;stroke:#fff;stroke-linecap:round;stroke-linejoin:round;}</style></defs><path
     id="path16710-2"
     style="fill:none;stroke:#ffffff;stroke-width:1.00014;stroke-linecap:round;stroke-linejoin:round;stroke-dasharray:none;stroke-opacity:1;stop-color:#000000"
     d="m 43.499932,17.173741 a 0.7958311,0.7958311 0 0 1 -0.795832,0.795832 0.7958311,0.7958311 0 0 1 -0.79583,-0.795832 0.7958311,0.7958311 0 0 1 0.79583,-0.795831 0.7958311,0.7958311 0 0 1 0.795832,0.795831 z m -12.549899,0.36775 a 0.7960558,0.79576868 0 0 1 -0.796055,0.795769 0.7960558,0.79576868 0 0 1 -0.796056,-0.795769 0.7960558,0.79576868 0 0 1 0.796056,-0.795768 0.7960558,0.79576868 0 0 1 0.796055,0.795768 z m -13.400292,0.15796 v 10.853638 c 0,1.696344 1.365649,3.061992 3.061993,3.061992 h 6.796231 c 1.713902,0 5.77857,0.354446 6.40691,-4.950381 0.357013,-3.014117 -2.255694,-4.198259 -3.632333,-4.198259 -1.376641,0 -3.989345,1.184142 -3.632335,4.198259 0.62834,5.304827 4.693009,4.950381 6.357964,4.950381 h 6.747282 c 1.696344,0 3.061994,-1.365648 3.061994,-3.061992 V 22.96608 M 9.9694766,17.102771 a 0.69216801,0.69216801 0 0 1 -0.692168,0.692169 0.69216801,0.69216801 0 0 1 -0.692168,-0.692169 0.69216801,0.69216801 0 0 1 0.692168,-0.692169 0.69216801,0.69216801 0 0 1 0.692168,0.692169 z M 4.5000684,31.580168 h 4.2058162 c 6.1076404,0 2.8849464,-7.702632 0.01706,-8.696662" /></svg>
