<?xml version="1.0" encoding="UTF-8" standalone="no"?>
<!-- Created with Inkscape (http://www.inkscape.org/) -->

<svg
   width="48"
   height="48"
   viewBox="0 0 48 48"
   version="1.1"
   id="svg990"
   inkscape:version="1.2.2 (b0a8486541, 2022-12-01)"
   xml:space="preserve"
   sodipodi:docname="nonogram.svg"
   xmlns:inkscape="http://www.inkscape.org/namespaces/inkscape"
   xmlns:sodipodi="http://sodipodi.sourceforge.net/DTD/sodipodi-0.dtd"
   xmlns="http://www.w3.org/2000/svg"
   xmlns:svg="http://www.w3.org/2000/svg"><sodipodi:namedview
     id="namedview992"
     pagecolor="#858585"
     bordercolor="#000000"
     borderopacity="0.25"
     inkscape:showpageshadow="2"
     inkscape:pageopacity="0"
     inkscape:pagecheckerboard="0"
     inkscape:deskcolor="#d1d1d1"
     inkscape:document-units="px"
     showgrid="false"
     inkscape:zoom="11.645833"
     inkscape:cx="7.7280861"
     inkscape:cy="29.452595"
     inkscape:window-width="1366"
     inkscape:window-height="737"
     inkscape:window-x="0"
     inkscape:window-y="0"
     inkscape:window-maximized="1"
     inkscape:current-layer="svg990" /><defs
     id="defs987"><style
   id="style1174">.a{fill:none;stroke:#fff;stroke-linecap:round;stroke-linejoin:round;}</style>
		
		
	
		
	
		
		
		
	
		
	</defs><path
     id="line5885"
     style="fill:none;stroke:#ffffff;stroke-linecap:round;stroke-linejoin:round;stroke-miterlimit:10"
     class="st5"
     d="m 27.358078,33.069622 -6.572699,6.572723 m 0,-6.472724 6.572699,6.572723 m -17.250207,-18.692361 2,-1.1 v 8.1 m -1.59987,8.324697 h 1.5 M 9.208,32.974679 c 0.6,-0.5 1.2,-0.7 2.5,-0.7 h 0.3 c 1.1,0 2,0.9 2,2 v 0 c 0,1.1 -0.9,2 -2,2 m -2.8,3.4 c 0.6,0.5 1.1,0.7 2.5,0.7 h 0.3 c 1.1,0 2,-0.9 2,-2 v 0 c 0,-1.1 -0.9,-2 -2,-2 M 33.5277,10.32395 c 0,-1.6000002 1.5,-2.9000002 3.2,-2.6000002 1.1,0.2 2,1.2 2.1,2.3000002 0.1,0.8 -0.2,1.7 -0.8,2.2 -1.1,0.9 -4.5,3.5 -4.5,3.5 h 5.3 m -16.61891,-7.000241 2,-1.1 v 8.1 m 18.291366,14.442959 -37.000427,-1e-6 M 42.500272,17.833333 H 5.499845 M 30.166667,5.5000054 V 42.500432 M 17.833333,5.4998896 V 42.500316 M 40.5,5.4999999 h -33 a 2,2 0 0 0 -1.9999999,2 V 40.5 A 2,2 0 0 0 7.5,42.5 h 33 a 2,2 0 0 0 2,-2 V 7.4999999 a 2,2 0 0 0 -2,-2 z m -2.999906,36.9999061 4.999897,-4.999895 m -8.999897,4.999895 8.999811,-8.999813 m -12.333851,0.333852 3.667892,-3.66789 m -3.667849,7.667849 7.667807,-7.667808 M 30.166138,41.833862 41.833862,30.166137 m -15.999791,-2.11e-4 4.33194,-4.331939 m -8.331939,4.331941 8.331858,-8.331856 m -12.3319,0.331898 4.33194,-4.331941 m -4.331898,8.3319 8.331857,-8.331857 M 17.834114,30.165886 30.165886,17.834114" /></svg>
