<?xml version="1.0" encoding="UTF-8" standalone="no"?>
<!-- Created with Inkscape (http://www.inkscape.org/) -->

<svg
   width="48"
   height="48"
   viewBox="0 0 48 48"
   version="1.1"
   id="svg990"
   inkscape:version="1.2.2 (b0a8486541, 2022-12-01)"
   xml:space="preserve"
   sodipodi:docname="reigns.svg"
   xmlns:inkscape="http://www.inkscape.org/namespaces/inkscape"
   xmlns:sodipodi="http://sodipodi.sourceforge.net/DTD/sodipodi-0.dtd"
   xmlns="http://www.w3.org/2000/svg"
   xmlns:svg="http://www.w3.org/2000/svg"><sodipodi:namedview
     id="namedview992"
     pagecolor="#858585"
     bordercolor="#000000"
     borderopacity="0.25"
     inkscape:showpageshadow="2"
     inkscape:pageopacity="0"
     inkscape:pagecheckerboard="0"
     inkscape:deskcolor="#d1d1d1"
     inkscape:document-units="px"
     showgrid="false"
     inkscape:zoom="5.8229167"
     inkscape:cx="-2.0608229"
     inkscape:cy="8.9302326"
     inkscape:window-width="1366"
     inkscape:window-height="737"
     inkscape:window-x="0"
     inkscape:window-y="0"
     inkscape:window-maximized="1"
     inkscape:current-layer="svg990" /><defs
     id="defs987"><style
       id="style1174">.a{fill:none;stroke:#fff;stroke-linecap:round;stroke-linejoin:round;}</style></defs><path
     id="path8602-1"
     style="fill:none;stroke:#ffffff;stroke-width:0.999967;stroke-linecap:round;stroke-linejoin:round;stroke-dasharray:none;stroke-opacity:1;stop-color:#000000"
     d="M 33.984258,19.940136 V 9.8413361 M 24,43.500018 14.015741,36.667806 v -16.7281 C 16.304015,20.815363 20.870976,20.979105 24,20.979321 m 0,0 c 3.129023,2.14e-4 7.695984,-0.163527 9.984258,-1.039185 V 36.668237 L 24,43.500018 m 5.054355,-16.603743 v 4.770069 M 33.984585,9.8603268 A 2.5097437,2.5097437 0 0 0 35.134033,7.7512006 2.5097437,2.5097437 0 0 0 32.62429,5.2414568 2.5097437,2.5097437 0 0 0 30.114546,7.7512006 v 0 a 2.5097437,2.5097437 0 0 0 1.268714,2.1814355 m -14.767153,-0.00237 v 3.4911719 c 2.020705,0.38833 3.918791,0.345449 5.843008,0.394481 l 0.0903,-4.657402 C 21.923163,8.6567091 21.490261,7.862378 21.490261,7.0097257 c 0,-1.3860929 1.12365,-2.5097434 2.509744,-2.5097437 1.386093,-2e-7 2.509744,1.1236504 2.509744,2.5097437 v 0 c 0,0.9023475 -0.484405,1.7352381 -1.118786,2.1851619 l 0.149926,4.6214634 c 1.924217,-0.04904 3.822303,-0.0062 5.843008,-0.394481 V 9.9307159 M 14.015741,19.939706 V 9.8409055 m 4.929903,17.0549385 v 4.770069 M 14.015414,9.8598962 A 2.5097437,2.5097437 0 0 1 12.865966,7.7507705 2.5097437,2.5097437 0 0 1 15.37571,5.2410267 2.5097437,2.5097437 0 0 1 17.885454,7.7507705 v 0 a 2.5097437,2.5097437 0 0 1 -1.268715,2.181435" /></svg>
