<?xml version="1.0" encoding="UTF-8" standalone="no"?>
<!-- Created with Inkscape (http://www.inkscape.org/) -->

<svg
   width="48"
   height="48"
   viewBox="0 0 48 48"
   version="1.1"
   id="svg990"
   inkscape:version="1.2.2 (b0a8486541, 2022-12-01)"
   xml:space="preserve"
   sodipodi:docname="royal_bank.svg"
   xmlns:inkscape="http://www.inkscape.org/namespaces/inkscape"
   xmlns:sodipodi="http://sodipodi.sourceforge.net/DTD/sodipodi-0.dtd"
   xmlns="http://www.w3.org/2000/svg"
   xmlns:svg="http://www.w3.org/2000/svg"><sodipodi:namedview
     id="namedview992"
     pagecolor="#858585"
     bordercolor="#000000"
     borderopacity="0.25"
     inkscape:showpageshadow="2"
     inkscape:pageopacity="0"
     inkscape:pagecheckerboard="0"
     inkscape:deskcolor="#d1d1d1"
     inkscape:document-units="px"
     showgrid="false"
     inkscape:zoom="8.2348477"
     inkscape:cx="8.5004608"
     inkscape:cy="35.459065"
     inkscape:window-width="1366"
     inkscape:window-height="737"
     inkscape:window-x="0"
     inkscape:window-y="0"
     inkscape:window-maximized="1"
     inkscape:current-layer="svg990" /><defs
     id="defs987"><style
       id="style1174">.a{fill:none;stroke:#fff;stroke-linecap:round;stroke-linejoin:round;}</style></defs><path
     id="path14996"
     style="display:inline;fill:none;stroke:#ffffff;stroke-width:1;stroke-linecap:round;stroke-linejoin:round;stroke-dasharray:none;stroke-opacity:1;stop-color:#000000"
     d="m 30.445426,27.780729 a 7.4704269,7.470782 0 0 1 -1.031622,1.369816 m 0,0 a 7.4704269,7.470782 0 0 1 -1.37712,1.137619 m -7.737328,0.20144 A 7.4704269,7.470782 0 0 1 18.756508,29.32042 m 0,0 a 7.4704269,7.470782 0 0 1 -1.198481,-1.539692 m 0.0076,-7.572756 a 7.4704269,7.470782 0 0 1 1.19761,-1.533345 m 0,0 a 7.4704269,7.470782 0 0 1 1.536064,-1.162504 m 7.736101,0.200654 a 7.4704269,7.470782 0 0 1 1.371775,1.131511 m 0,0 a 7.4704269,7.470782 0 0 1 1.035861,1.372744 M 20.308349,17.527142 V 5.5002435 M 5.500246,20.21817 H 17.577608 M 18.777527,18.687272 5.938546,5.8476405 M 28.033967,30.28948 v 12.210273 m 14.465758,-14.728624 -12.068864,2e-6 m -1.029786,1.367174 12.752946,12.753551 M 28.034039,17.716225 V 5.5002475 m 14.465715,14.7179225 -12.058701,2e-6 M 29.40452,18.847621 42.154049,6.0974485 M 20.308421,30.475152 V 42.499757 M 5.500272,27.771132 h 12.070649 m 1.199923,1.53765 -12.845773,12.846381" /></svg>
