<?xml version="1.0" encoding="UTF-8" standalone="no"?>
<!-- Created with Inkscape (http://www.inkscape.org/) -->

<svg
   width="48"
   height="48"
   viewBox="0 0 48 48"
   version="1.1"
   id="svg990"
   inkscape:version="1.2.2 (b0a8486541, 2022-12-01)"
   xml:space="preserve"
   sodipodi:docname="tablet_center.svg"
   xmlns:inkscape="http://www.inkscape.org/namespaces/inkscape"
   xmlns:sodipodi="http://sodipodi.sourceforge.net/DTD/sodipodi-0.dtd"
   xmlns="http://www.w3.org/2000/svg"
   xmlns:svg="http://www.w3.org/2000/svg"><sodipodi:namedview
     id="namedview992"
     pagecolor="#858585"
     bordercolor="#000000"
     borderopacity="0.25"
     inkscape:showpageshadow="2"
     inkscape:pageopacity="0"
     inkscape:pagecheckerboard="0"
     inkscape:deskcolor="#d1d1d1"
     inkscape:document-units="px"
     showgrid="false"
     inkscape:zoom="5.5"
     inkscape:cx="-5.4545455"
     inkscape:cy="27.090909"
     inkscape:window-width="1366"
     inkscape:window-height="737"
     inkscape:window-x="0"
     inkscape:window-y="0"
     inkscape:window-maximized="1"
     inkscape:current-layer="svg990" /><defs
     id="defs987"><style
       id="style1174">.a{fill:none;stroke:#fff;stroke-linecap:round;stroke-linejoin:round;}</style></defs><path
     id="path28223"
     style="fill:none;stroke:#ffffff;stroke-width:0.999901;stroke-linecap:round;stroke-linejoin:round;stroke-dasharray:none;stroke-opacity:1;stop-color:#000000"
     d="M 25.221505,40.970943 A 1.2215044,1.2215044 0 0 1 24,42.192448 1.2215044,1.2215044 0 0 1 22.778497,40.970943 1.2215044,1.2215044 0 0 1 24,39.749439 1.2215044,1.2215044 0 0 1 25.221505,40.970943 Z M 12.302114,7.3879207 H 35.697886 V 38.416665 H 12.302114 Z m 0.821971,-2.8879699 h 21.75183 c 1.857324,0 3.35257,1.4952463 3.35257,3.3525699 V 40.147479 c 0,1.857324 -1.495246,3.35257 -3.35257,3.35257 h -21.75183 c -1.857324,0 -3.3525704,-1.495246 -3.3525704,-3.35257 V 7.8525207 c 0,-1.8573236 1.4952464,-3.3525699 3.3525704,-3.3525699 z" /></svg>
