<?xml version="1.0" encoding="UTF-8" standalone="no"?>
<!-- Created with Inkscape (http://www.inkscape.org/) -->

<svg
   width="48"
   height="48"
   viewBox="0 0 48 48"
   version="1.1"
   id="svg990"
   inkscape:version="1.2.2 (b0a8486541, 2022-12-01)"
   xml:space="preserve"
   sodipodi:docname="us_mobile.svg"
   xmlns:inkscape="http://www.inkscape.org/namespaces/inkscape"
   xmlns:sodipodi="http://sodipodi.sourceforge.net/DTD/sodipodi-0.dtd"
   xmlns="http://www.w3.org/2000/svg"
   xmlns:svg="http://www.w3.org/2000/svg"><sodipodi:namedview
     id="namedview992"
     pagecolor="#858585"
     bordercolor="#000000"
     borderopacity="0.25"
     inkscape:showpageshadow="2"
     inkscape:pageopacity="0"
     inkscape:pagecheckerboard="0"
     inkscape:deskcolor="#d1d1d1"
     inkscape:document-units="px"
     showgrid="false"
     inkscape:zoom="11.645833"
     inkscape:cx="6.8694099"
     inkscape:cy="24.987478"
     inkscape:window-width="1366"
     inkscape:window-height="737"
     inkscape:window-x="0"
     inkscape:window-y="0"
     inkscape:window-maximized="1"
     inkscape:current-layer="svg990" /><defs
     id="defs987"><style
       id="style1174">.a{fill:none;stroke:#fff;stroke-linecap:round;stroke-linejoin:round;}</style></defs><path
     style="fill:none;stroke:#ffffff;stroke-linecap:round;stroke-linejoin:round;stop-color:#000000"
     d="m 16.72391,29.67777 c 1.780684,0.849458 3.760025,1.269802 5.763963,1.636987 l -4.994557,-8.650826 h 12.959857"
     id="path572" /><path
     style="fill:none;stroke:#ffffff;stroke-linecap:round;stroke-linejoin:round;stop-color:#000000"
     d="m 11.295768,26.450185 1.723324,1.356935 8.216405,1.87065"
     id="path570" /><path
     style="fill:none;stroke:#ffffff;stroke-linecap:round;stroke-linejoin:round;stop-color:#000000"
     d="M 8.2111306,23.286449 9.4724034,24.695939 17.881,26.450185"
     id="path568" /><path
     style="fill:none;stroke:#ffffff;stroke-linecap:round;stroke-linejoin:round;stop-color:#000000"
     d="m 6.0165347,19.926391 0.8458626,1.450714 7.5104497,1.909344"
     id="path566" /><path
     style="fill:none;stroke:#ffffff;stroke-linecap:round;stroke-linejoin:round;stop-color:#000000"
     d="m 26.650535,21.426755 -0.913669,-4.741493 h -4.057321 c -0.673952,0 -0.76818,0.509844 -0.798444,0.898975 0.75576,-0.697212 1.794742,-0.461954 2.409597,1.675497 L 21.922354,21.82282 C 19.861193,20.486527 18.614141,18.798426 18.345029,16.687747 H 4.4999992 l 0.7616055,1.511978 3.8559761,1.726666"
     id="path564" /><path
     style="fill:none;stroke:#ffffff;stroke-linecap:round;stroke-linejoin:round;stop-color:#000000"
     d="m 31.276089,29.67777 c -1.780684,0.849458 -3.760025,1.269802 -5.763963,1.636987 l 4.994797,-8.651241"
     id="path562" /><path
     style="fill:none;stroke:#ffffff;stroke-linecap:round;stroke-linejoin:round;stop-color:#000000"
     d="m 36.704231,26.450185 -1.723324,1.356935 -8.216405,1.87065"
     id="path560" /><path
     style="fill:none;stroke:#ffffff;stroke-linecap:round;stroke-linejoin:round;stop-color:#000000"
     d="M 39.788869,23.286449 38.527595,24.695939 30.119,26.450185"
     id="path558" /><path
     style="fill:none;stroke:#ffffff;stroke-linecap:round;stroke-linejoin:round;stop-color:#000000"
     d="m 41.983465,19.926391 -0.845863,1.450714 -7.51045,1.909344"
     id="path556" /><path
     style="fill:none;stroke:#ffffff;stroke-linecap:round;stroke-linejoin:round;stop-color:#000000"
     d="m 26.650535,21.426755 c 1.719471,-1.269404 2.761249,-2.831668 3.004435,-4.739008 h 13.845031 l -0.761607,1.511978 -3.855976,1.726666"
     id="path554" /><path
     style="fill:none;stroke:#ffffff;stroke-linecap:round;stroke-linejoin:round;stop-color:#000000"
     d="m 19.683462,26.570453 h 8.504435"
     id="path552" /><path
     style="fill:none;stroke:#ffffff;stroke-linecap:round;stroke-linejoin:round;stop-color:#000000"
     d="m 22.184781,26.684799 v 4.14107"
     id="path550" /><path
     style="fill:none;stroke:#ffffff;stroke-linecap:round;stroke-linejoin:round;stop-color:#000000"
     d="m 25.81522,26.684799 v 4.14107"
     id="path548" /><path
     style="fill:none;stroke:#ffffff;stroke-linecap:round;stroke-linejoin:round;stop-color:#000000"
     d="m 24,23.675106 0.213596,0.620079 0.655735,0.01153 -0.523725,0.394756 0.19167,0.627204 L 24,24.952568 l -0.537276,0.376106 0.19167,-0.627204 -0.523725,-0.394757 0.655735,-0.01153 z"
     id="path546" /><path
     style="fill:none;stroke:#ffffff;stroke-linecap:round;stroke-linejoin:round;stop-color:#000000"
     d="m 27.080372,23.675106 0.213596,0.620079 0.655736,0.01153 -0.523725,0.394756 0.191669,0.627204 -0.537276,-0.376106 -0.537275,0.376106 0.191669,-0.627204 -0.523725,-0.394757 0.655736,-0.01153 z"
     id="path544" /><path
     style="fill:none;stroke:#ffffff;stroke-linecap:round;stroke-linejoin:round;stop-color:#000000"
     d="m 20.919627,23.675106 0.213597,0.620079 0.655735,0.01153 -0.523725,0.394756 0.19167,0.627204 -0.537277,-0.376106 -0.537275,0.376106 0.19167,-0.627204 -0.523725,-0.394757 0.655735,-0.01153 z"
     id="path542" /></svg>
