<?xml version="1.0" encoding="UTF-8" standalone="no"?>
<!-- Created with Inkscape (http://www.inkscape.org/) -->

<svg
   width="48"
   height="48"
   viewBox="0 0 48 48"
   version="1.1"
   id="svg990"
   inkscape:version="1.2.2 (b0a8486541, 2022-12-01)"
   xml:space="preserve"
   sodipodi:docname="_3plus.svg"
   xmlns:inkscape="http://www.inkscape.org/namespaces/inkscape"
   xmlns:sodipodi="http://sodipodi.sourceforge.net/DTD/sodipodi-0.dtd"
   xmlns="http://www.w3.org/2000/svg"
   xmlns:svg="http://www.w3.org/2000/svg"><sodipodi:namedview
     id="namedview992"
     pagecolor="#858585"
     bordercolor="#000000"
     borderopacity="0.25"
     inkscape:showpageshadow="2"
     inkscape:pageopacity="0"
     inkscape:pagecheckerboard="0"
     inkscape:deskcolor="#d1d1d1"
     inkscape:document-units="px"
     showgrid="false"
     inkscape:zoom="11"
     inkscape:cx="16.272727"
     inkscape:cy="24"
     inkscape:window-width="1366"
     inkscape:window-height="737"
     inkscape:window-x="0"
     inkscape:window-y="0"
     inkscape:window-maximized="1"
     inkscape:current-layer="svg990" /><defs
     id="defs987"><style
   id="style1174">.a{fill:none;stroke:#fff;stroke-linecap:round;stroke-linejoin:round;}</style>
		
		
	
		
		
	
		
		
		
	
		
		
	</defs><path
     id="path1178"
     style="display:inline;stroke-width:1;stroke-dasharray:none"
     class="a"
     inkscape:label="references"
     d="m 40.5,5.4999999 h -33 a 2,2 0 0 0 -1.9999999,2 V 40.5 A 2,2 0 0 0 7.5,42.5 h 33 a 2,2 0 0 0 2,-2 V 7.4999999 a 2,2 0 0 0 -2,-2 z M 28.946903,29.234858 v 4.945596 m -2.472799,-2.472797 h 4.945597 M 12.201334,24.007902 h 3.727447 M 8.9708742,15.559019 c 1.4909778,-1.242484 2.9819588,-1.739475 6.2124128,-1.739475 h 0.745488 c 2.733461,0 4.96993,2.236469 4.96993,4.969928 v 0 c 0,2.733463 -2.236238,5.164692 -4.969698,5.164692 m -6.9581328,8.254118 c 1.4909778,1.242484 2.7334618,1.739475 6.2124128,1.739475 h 0.745488 c 2.733461,0 4.96993,-2.236469 4.96993,-4.969928 v 0 c 0,-2.733462 -2.236469,-4.96993 -4.96993,-4.96993 m 19.881417,0.498433 v 6.43787 m -3.218937,-3.218935 h 6.43787 M 30.958363,14.480588 v 9.324559 m -4.66228,-4.662279 h 9.324561" /></svg>
