<?xml version="1.0" encoding="UTF-8" standalone="no"?>
<!-- Created with Inkscape (http://www.inkscape.org/) -->

<svg
   width="48"
   height="48"
   viewBox="0 0 48 48"
   version="1.1"
   id="svg990"
   inkscape:version="1.2.2 (b0a8486541, 2022-12-01)"
   xml:space="preserve"
   sodipodi:docname="aeon_thai_mobile.svg"
   xmlns:inkscape="http://www.inkscape.org/namespaces/inkscape"
   xmlns:sodipodi="http://sodipodi.sourceforge.net/DTD/sodipodi-0.dtd"
   xmlns="http://www.w3.org/2000/svg"
   xmlns:svg="http://www.w3.org/2000/svg"><sodipodi:namedview
     id="namedview992"
     pagecolor="#858585"
     bordercolor="#000000"
     borderopacity="0.25"
     inkscape:showpageshadow="2"
     inkscape:pageopacity="0"
     inkscape:pagecheckerboard="0"
     inkscape:deskcolor="#d1d1d1"
     inkscape:document-units="px"
     showgrid="false"
     inkscape:zoom="5.6568542"
     inkscape:cx="19.445437"
     inkscape:cy="13.788582"
     inkscape:window-width="1366"
     inkscape:window-height="737"
     inkscape:window-x="0"
     inkscape:window-y="0"
     inkscape:window-maximized="1"
     inkscape:current-layer="svg990" /><defs
     id="defs987"><style
   id="style1174">.a{fill:none;stroke:#fff;stroke-linecap:round;stroke-linejoin:round;}</style>
		
		
	
		
	</defs><path
     id="path10703"
     style="fill:none;stroke:#ffffff;stroke-width:1;stroke-linecap:round;stroke-linejoin:round;stroke-dasharray:none;stroke-opacity:1"
     class="a"
     d="M 40.274146,5.7258534 H 7.2741465 a 2,2 0 0 0 -2,2 V 40.725853 a 2,2 0 0 0 2,2 H 40.274146 a 2,2 0 0 0 2,-2 V 7.7258534 a 2,2 0 0 0 -2,-2 z M 26.321522,23.992638 a 7.3560696,1.259389 0 0 1 -7.35607,1.259389 7.3560696,1.259389 0 0 1 -7.356069,-1.259389 7.3560696,1.259389 0 0 1 7.356069,-1.259389 7.3560696,1.259389 0 0 1 7.35607,1.259389 z m -18.9750356,4.111399 6.3113986,-8.208074 1.336353,2.02e-4 4.863115,-2.02e-4 M 30.783745,24 A 5.2282662,4.4839287 0 0 1 25.555479,28.483929 5.2282662,4.4839287 0 0 1 20.327213,24 5.2282662,4.4839287 0 0 1 25.555479,19.516071 5.2282662,4.4839287 0 0 1 30.783745,24 Z m -10.926263,4.104037 -4.863244,-2.02e-4 v -8.20767 m 17.879646,8.18628 v -8.164891 l 6.914321,8.164891 v -8.164891" /></svg>
