<?xml version="1.0" encoding="UTF-8" standalone="no"?>
<!-- Created with Inkscape (http://www.inkscape.org/) -->

<svg
   width="48"
   height="48"
   viewBox="0 0 48 48"
   version="1.1"
   id="svg990"
   inkscape:version="1.2.2 (b0a8486541, 2022-12-01)"
   xml:space="preserve"
   sodipodi:docname="all_gen.svg"
   xmlns:inkscape="http://www.inkscape.org/namespaces/inkscape"
   xmlns:sodipodi="http://sodipodi.sourceforge.net/DTD/sodipodi-0.dtd"
   xmlns="http://www.w3.org/2000/svg"
   xmlns:svg="http://www.w3.org/2000/svg"><sodipodi:namedview
     id="namedview992"
     pagecolor="#858585"
     bordercolor="#000000"
     borderopacity="0.25"
     inkscape:showpageshadow="2"
     inkscape:pageopacity="0"
     inkscape:pagecheckerboard="0"
     inkscape:deskcolor="#d1d1d1"
     inkscape:document-units="px"
     showgrid="false"
     inkscape:zoom="11"
     inkscape:cx="16.272727"
     inkscape:cy="24"
     inkscape:window-width="1366"
     inkscape:window-height="737"
     inkscape:window-x="0"
     inkscape:window-y="0"
     inkscape:window-maximized="1"
     inkscape:current-layer="svg990" /><defs
     id="defs987"><style
   id="style1174">.a{fill:none;stroke:#fff;stroke-linecap:round;stroke-linejoin:round;}</style>
		
		
	
		
	
		
		
	
			
		
				
			</defs><path
     id="path1178"
     style="display:inline"
     class="a"
     inkscape:label="references"
     d="m 40.5,5.4999999 h -33 a 2,2 0 0 0 -1.9999999,2 V 40.5 A 2,2 0 0 0 7.5,42.5 h 33 a 2,2 0 0 0 2,-2 V 7.4999999 a 2,2 0 0 0 -2,-2 z M 7.8315115,37.457954 9.9897782,31.06309 12.148045,37.457954 M 11.428619,35.299686 H 8.5509329 M 18.757529,31.06309 v 6.394864 h 3.197432 M 13.854069,31.06309 v 6.394864 h 3.197432 m 12.026011,-4.236599 c 0,-1.199037 -0.95923,-2.158266 -2.158267,-2.158266 v 0 c -1.199037,0 -2.158266,0.959229 -2.158266,2.158266 v 2.158267 c 0,1.199037 0.959229,2.078332 2.158266,2.078332 v 0 c 1.199037,0 2.158267,-0.959231 2.158267,-2.078332 h -2.158267 m 7.061722,2.078332 H 30.783535 V 31.06309 h 3.197432 m -3.197432,3.197431 h 2.078331 m 2.825129,3.197433 V 31.06309 l 4.236597,6.394864 V 31.06309 M 8.8901303,25.645306 H 39.110122 m -1.690167,-13.696673 1.35929,-1.908973 m -4.315567,11.124798 c -5.132416,0.382247 -4.618673,-4.794682 -0.489792,-4.903957 2.983994,-0.07898 4.626294,-1.33198 4.441408,-2.846086 m -7.608129,0.120029 c 0.427776,-1.292036 1.642389,-2.275701 3.081518,-2.275701 h 1.524436 c 1.798303,0 3.245463,1.50422 3.245463,3.302523 v 6.603192 M 19.681318,13.782317 c 0.778249,-1.506648 2.258148,-2.523574 3.955765,-2.523574 2.506258,0 4.537981,2.217047 4.537981,4.952523 0,2.735475 -2.031723,4.953192 -4.537981,4.953192 -2.329422,0 -4.248911,-1.915827 -4.508183,-4.382499 h 3.430894 m -6.809607,-4.514691 c -0.630721,-0.649569 -1.740223,-1.105644 -3.021824,-1.008525 -3.8028302,0.288175 -4.7871386,4.805995 0.470028,5.406257 4.944238,0.564532 4.478252,4.716896 -1.578074,4.490245 H 9.611 v -2.415279" /></svg>
