<?xml version="1.0" encoding="UTF-8" standalone="no"?>
<!-- Created with Inkscape (http://www.inkscape.org/) -->

<svg
   width="48"
   height="48"
   viewBox="0 0 48 48"
   version="1.1"
   id="svg990"
   inkscape:version="1.2.2 (b0a8486541, 2022-12-01)"
   xml:space="preserve"
   sodipodi:docname="amobile.svg"
   xmlns:inkscape="http://www.inkscape.org/namespaces/inkscape"
   xmlns:sodipodi="http://sodipodi.sourceforge.net/DTD/sodipodi-0.dtd"
   xmlns="http://www.w3.org/2000/svg"
   xmlns:svg="http://www.w3.org/2000/svg"><sodipodi:namedview
     id="namedview992"
     pagecolor="#858585"
     bordercolor="#000000"
     borderopacity="0.25"
     inkscape:showpageshadow="2"
     inkscape:pageopacity="0"
     inkscape:pagecheckerboard="0"
     inkscape:deskcolor="#d1d1d1"
     inkscape:document-units="px"
     showgrid="false"
     inkscape:zoom="11"
     inkscape:cx="16"
     inkscape:cy="24"
     inkscape:window-width="1366"
     inkscape:window-height="737"
     inkscape:window-x="0"
     inkscape:window-y="0"
     inkscape:window-maximized="1"
     inkscape:current-layer="svg990" /><defs
     id="defs987"><style
       id="style1174">.a{fill:none;stroke:#fff;stroke-linecap:round;stroke-linejoin:round;}</style></defs><path
     id="path8689-9-7-9"
     style="fill:none;stroke:#ffffff;stroke-width:1;stroke-linecap:round;stroke-linejoin:round;stroke-dasharray:none;stroke-opacity:1;stop-color:#000000"
     d="m 29.550908,14.371055 c 0.898068,1.259572 3.847311,0.399909 5.010263,-1.206522 -1.03684,-0.005 -2.065085,-0.220558 -2.965148,-0.270564 -1.274906,-0.07084 -1.964653,0.829195 -2.045115,1.477086 z m 4.096754,-2.993048 c 0.492846,1.456627 3.562037,1.42386 5.14031,0.189097 -0.989797,-0.284666 -1.910247,-0.769962 -2.756217,-1.061085 -1.198283,-0.412368 -2.119044,0.269125 -2.384093,0.871988 z M 38.6765,9.1972038 c 0.436482,1.4744982 3.504665,1.5597492 5.129241,0.3865738 C 42.827619,9.26127 41.926507,8.7409466 41.092354,8.4175151 39.91081,7.9593851 38.964531,8.6049761 38.6765,9.1972038 Z M 36.817876,7.3013034 C 36.977138,5.7718263 39.977897,5.1265008 41.789743,5.982552 40.887162,6.4786197 40.096494,7.1550687 39.33562,7.6256967 38.257874,8.2923246 37.209427,7.8308164 36.817876,7.3013034 Z m -4.86086,2.7296746 C 31.267721,8.6563726 33.448935,6.4969036 35.436649,6.2427441 34.943159,7.1467359 34.641095,8.1424752 34.25332,8.9487324 33.704055,10.090764 32.572068,10.266367 31.957016,10.030978 Z m -4.107811,3.560423 c -1.063216,-1.110962 0.386106,-3.8165976 2.211065,-4.6443239 -0.205679,1.0091728 -0.201413,2.0497119 -0.334811,2.9343719 -0.188951,1.253088 -1.21917,1.753966 -1.876254,1.709952 z m -6.695249,16.683804 c -1.601885,1.601355 -4.521068,3.446986 -7.444085,3.408454 M 25.835376,22.637817 C 23.552509,17.928201 21.933815,11.685078 21.112189,6.0872533 19.87948,16.500107 15.264086,27.519375 8.8555978,36.906243 10.31153,34.264884 8.7262855,31.501326 7.1030675,29.690208 7.950077,32.033871 8.3516681,34.554429 6.8160081,35.959335 4.7094063,37.88657 5.1044209,41.985839 8.1023788,42.035897 l 6.8808542,0.11489 -0.203581,-1.232905 c -2.473975,-0.05333 -4.645245,-0.174702 -3.943897,-1.65932 l 7.122103,-15.076111 7.601914,14.205189 c 1.283978,2.399284 -0.842943,2.747029 -3.417341,2.743981 l -0.11706,1.019166 12.089138,-4.37e-4 c 1.628468,-5.9e-5 2.60565,-1.759611 2.799829,-2.759569 0.08232,-1.762008 -0.487055,-2.511119 -1.201833,-3.55417 -1.119832,-1.634133 -1.476671,-3.765596 -0.150585,-6.337854 -1.792502,1.931145 -2.979586,4.135167 -2.038264,7.541889 L 26.190958,23.370772 m -0.355582,-0.732955 c 3.225567,-6.385093 8.597265,-7.214035 10.728152,-6.237444 -5.27535,2.760033 -7.110632,4.945544 -9.4802,7.862162 L 25.835376,22.637817 C 27.290445,17.798689 28.958189,9.1641476 40.612767,7.7463947" /></svg>
