<?xml version="1.0" encoding="UTF-8" standalone="no"?>
<!-- Created with Inkscape (http://www.inkscape.org/) -->

<svg
   width="48"
   height="48"
   viewBox="0 0 48 48"
   version="1.1"
   id="svg990"
   inkscape:version="1.2.2 (b0a8486541, 2022-12-01)"
   xml:space="preserve"
   sodipodi:docname="egg_ns.svg"
   xmlns:inkscape="http://www.inkscape.org/namespaces/inkscape"
   xmlns:sodipodi="http://sodipodi.sourceforge.net/DTD/sodipodi-0.dtd"
   xmlns="http://www.w3.org/2000/svg"
   xmlns:svg="http://www.w3.org/2000/svg"><sodipodi:namedview
     id="namedview992"
     pagecolor="#858585"
     bordercolor="#000000"
     borderopacity="0.25"
     inkscape:showpageshadow="2"
     inkscape:pageopacity="0"
     inkscape:pagecheckerboard="0"
     inkscape:deskcolor="#d1d1d1"
     inkscape:document-units="px"
     showgrid="false"
     inkscape:zoom="22"
     inkscape:cx="19.136364"
     inkscape:cy="16.590909"
     inkscape:window-width="1366"
     inkscape:window-height="737"
     inkscape:window-x="0"
     inkscape:window-y="0"
     inkscape:window-maximized="1"
     inkscape:current-layer="svg990"
     showguides="false" /><defs
     id="defs987"><style
       id="style1174">.a{fill:none;stroke:#fff;stroke-linecap:round;stroke-linejoin:round;}</style></defs><path
     id="path22192-2-2"
     style="fill:none;stroke:#ffffff;stroke-width:1.00252;stroke-linecap:round;stroke-linejoin:round;stop-color:#000000"
     transform="matrix(1,0,-0.10008212,0.99497918,0,0)"
     d="m 38.490228,40.047367 a 1.4229218,1.5986342 0 0 1 -1.422921,1.598634 1.4229218,1.5986342 0 0 1 -1.422922,-1.598634 1.4229218,1.5986342 0 0 1 1.422922,-1.598634 1.4229218,1.5986342 0 0 1 1.422921,1.598634 z m 1.471989,-5.637215 a 1.4229218,1.5986342 0 0 1 -1.422922,1.598635 1.4229218,1.5986342 0 0 1 -1.422922,-1.598635 1.4229218,1.5986342 0 0 1 1.422922,-1.598634 1.4229218,1.5986342 0 0 1 1.422922,1.598634 z m 1.347093,3.151026 a 1.2668051,1.4535234 17.120616 0 1 -1.379567,1.438302 1.2668051,1.4535234 17.120616 0 1 -1.180857,-1.438302 1.2668051,1.4535234 17.120616 0 1 1.379566,-1.438301 1.2668051,1.4535234 17.120616 0 1 1.180858,1.438301 z m -4.573744,-1.074791 a 1.735598,1.991413 17.12062 0 1 -1.890088,1.970559 1.735598,1.991413 17.12062 0 1 -1.617844,-1.970559 1.735598,1.991413 17.12062 0 1 1.890088,-1.970557 1.735598,1.991413 17.12062 0 1 1.617844,1.970557 z M 35.181813,23.544848 c 0.513612,0.186261 1.171582,0.331537 2.040216,0.444106 0.02972,-0.593805 -0.0524,-1.036291 -0.20747,-1.358589 m 3.130594,-1.326512 a 1.0043286,0.90837402 45 0 1 -0.856912,0.957554 1.0043286,0.90837402 45 0 1 -1.04858,-0.957554 1.0043286,0.90837402 45 0 1 0.856912,-0.957554 1.0043286,0.90837402 45 0 1 1.04858,0.957554 z m -10.153904,-0.01699 a 0.92887049,0.84012528 45 0 1 -0.792531,0.88561 0.92887049,0.84012528 45 0 1 -0.969796,-0.88561 0.92887049,0.84012528 45 0 1 0.792529,-0.885611 0.92887049,0.84012528 45 0 1 0.969798,0.885611 z m 11.492843,-1.473123 c 0.880461,1.946727 1.388595,4.143034 1.678912,6.485351 M 10.963362,20.767151 c -0.290635,2.246986 -0.538353,4.507813 0.07977,7.047901 m 17.974622,-1.368729 -4.233392,3.197266 -7.299699,-2.618196 -3.813927,3.87836 -3.9024544,-4.108529 c -0.1548199,1.720849 -4.073e-4,3.522411 0.5020404,5.348107 2.417836,8.785453 11.979338,14.802837 21.356212,13.440205 9.376874,-1.362633 15.018289,-9.58928 12.600454,-18.374734 h 3e-6 C 44.084128,26.689675 43.916313,26.180213 43.72507,25.681368 l -4.376211,4.278354 -7.474066,-4.182999 M 22.764236,22.60885 23.33892,23.657459 13.542422,18.29538 8.9617281,22.58002 C 8.5595072,21.404942 8.2868622,20.182131 8.1611936,18.926475 7.2515293,9.8372965 14.387487,2.4690612 24.099801,2.4690612 c 9.712314,0 18.323129,7.3682352 19.232794,16.4574138 0.09086,0.907865 0.101453,1.79856 0.03722,2.666457 l -4.019219,-3.966801 -3.834138,3.660979 -1.364207,-0.572007 m -0.133648,-0.231008 a 6.2446319,5.6480382 44.987634 0 1 -5.328193,5.953684 6.2446319,5.6480382 44.987634 0 1 -6.519907,-5.953684 6.2446319,5.6480382 44.987634 0 1 5.328192,-5.953683 6.2446319,5.6480382 44.987634 0 1 6.519908,5.953683 z" /></svg>
