<?xml version="1.0" encoding="UTF-8" standalone="no"?>
<!-- Created with Inkscape (http://www.inkscape.org/) -->

<svg
   width="48"
   height="48"
   viewBox="0 0 48 48"
   version="1.1"
   id="svg990"
   inkscape:version="1.2.2 (b0a8486541, 2022-12-01)"
   xml:space="preserve"
   sodipodi:docname="fennec_for_lemmy.svg"
   xmlns:inkscape="http://www.inkscape.org/namespaces/inkscape"
   xmlns:sodipodi="http://sodipodi.sourceforge.net/DTD/sodipodi-0.dtd"
   xmlns="http://www.w3.org/2000/svg"
   xmlns:svg="http://www.w3.org/2000/svg"><sodipodi:namedview
     id="namedview992"
     pagecolor="#858585"
     bordercolor="#000000"
     borderopacity="0.25"
     inkscape:showpageshadow="2"
     inkscape:pageopacity="0"
     inkscape:pagecheckerboard="0"
     inkscape:deskcolor="#d1d1d1"
     inkscape:document-units="px"
     showgrid="false"
     inkscape:zoom="11.645833"
     inkscape:cx="8.7584976"
     inkscape:cy="24.042934"
     inkscape:window-width="1366"
     inkscape:window-height="737"
     inkscape:window-x="0"
     inkscape:window-y="0"
     inkscape:window-maximized="1"
     inkscape:current-layer="svg990" /><defs
     id="defs987"><style
       id="style1174">.a{fill:none;stroke:#fff;stroke-linecap:round;stroke-linejoin:round;}</style></defs><path
     id="path19939-1"
     style="fill:none;stroke:#ffffff;stroke-linecap:round;stroke-linejoin:round;stop-color:#000000"
     d="M 32.061144,24 A 8.0611439,8.0611439 0 0 1 24,32.061144 8.0611439,8.0611439 0 0 1 15.938856,24 8.0611439,8.0611439 0 0 1 24,15.938856 8.0611439,8.0611439 0 0 1 32.061144,24 Z m 8.513389,0 A 16.574533,16.574533 0 0 1 24,40.574533 16.574533,16.574533 0 0 1 7.4254665,24 16.574533,16.574533 0 0 1 24,7.4254665 16.574533,16.574533 0 0 1 40.574533,24 Z m 4.794007,0 A 21.36854,21.36854 0 0 1 24,45.36854 21.36854,21.36854 0 0 1 2.6314602,24 21.36854,21.36854 0 0 1 24,2.6314602 21.36854,21.36854 0 0 1 45.36854,24 Z" /></svg>
