<?xml version="1.0" encoding="UTF-8" standalone="no"?>
<!-- Created with Inkscape (http://www.inkscape.org/) -->

<svg
   width="48"
   height="48"
   viewBox="0 0 48 48"
   version="1.1"
   id="svg990"
   inkscape:version="1.2.2 (b0a8486541, 2022-12-01)"
   xml:space="preserve"
   sodipodi:docname="ktc_mobile.svg"
   xmlns:inkscape="http://www.inkscape.org/namespaces/inkscape"
   xmlns:sodipodi="http://sodipodi.sourceforge.net/DTD/sodipodi-0.dtd"
   xmlns="http://www.w3.org/2000/svg"
   xmlns:svg="http://www.w3.org/2000/svg"><sodipodi:namedview
     id="namedview992"
     pagecolor="#858585"
     bordercolor="#000000"
     borderopacity="0.25"
     inkscape:showpageshadow="2"
     inkscape:pageopacity="0"
     inkscape:pagecheckerboard="0"
     inkscape:deskcolor="#d1d1d1"
     inkscape:document-units="px"
     showgrid="false"
     inkscape:zoom="11"
     inkscape:cx="16.272727"
     inkscape:cy="24"
     inkscape:window-width="1366"
     inkscape:window-height="737"
     inkscape:window-x="0"
     inkscape:window-y="0"
     inkscape:window-maximized="1"
     inkscape:current-layer="svg990" /><defs
     id="defs987"><style
   id="style1174">.a{fill:none;stroke:#fff;stroke-linecap:round;stroke-linejoin:round;}</style>
		
		
	
		
		
	
		
		
	
			
			
		
			
			
		</defs><path
     id="line6899-2"
     style="fill:none;stroke:#ffffff;stroke-width:1;stroke-linecap:round;stroke-linejoin:round;stroke-miterlimit:10;stroke-dasharray:none"
     class="st5"
     d="M 22.362389,23.41936 19.213897,19.483763 M 18.23,20.664443 22.362389,15.548162 m -4.132389,0 v 7.871198 m 17.719288,-2.702915 v 0 c 0,1.475849 -1.180677,2.65653 -2.656528,2.65653 v 0 c -1.475849,0 -2.656529,-1.180681 -2.656529,-2.55814 v -2.656528 c 0,-1.47585 1.18068,-2.656529 2.656529,-2.55814 v 0 c 1.475851,0 2.558138,1.18068 2.558138,2.55814 v 0 M 26.86918,23.41936 v -7.871198 m -2.558148,0 h 5.116289 m -0.443054,12.359566 -11.99725,9.786907 c -0.90819,0.740869 -2.148907,-0.03448 -2.821991,-0.993993 L 4.7971412,23.346271 C 4.124055,22.386763 4.7042233,20.962807 5.7911315,20.524278 v 0 c 0,0 1.1009587,-0.4364 1.6993708,-0.568064 m 22.4756767,7.425208 -13.646647,7.343672 c -1.032095,0.555405 -2.103463,-0.440952 -2.582587,-1.510599 L 7.0685792,18.327273 C 6.5894539,17.25763 7.4288645,15.969366 8.5791763,15.744686 v 0 c 0,0 0.061593,-0.01157 0.178063,-0.03343 M 26.977642,28.106172 17.001413,32.310415 C 15.921356,32.76558 14.949161,31.672239 14.57349,30.562026 L 9.3449535,15.110201 C 8.969282,13.99999 9.9269217,12.797011 11.09334,12.682278 v 0 c 0,0 1.244893,-0.02329 1.702126,-0.06522 m 2.246048,-2.593131 c 0,0 10.655892,0.757068 16.834281,1.066209 1.873122,0.09372 3.898215,0.799578 4.936156,2.178134 l 5.879475,7.808903 c 1.435171,1.90614 0.882865,3.00945 -1.084076,3.485671 l -23.886728,5.783274 c -1.13914,0.2758 -1.923122,-0.95948 -2.115617,-2.115617 L 12.925896,12.139544 c -0.192494,-1.156136 0.94591,-2.1897013 2.115618,-2.115617 z" /></svg>
