<?xml version="1.0" encoding="UTF-8" standalone="no"?>
<!-- Created with Inkscape (http://www.inkscape.org/) -->

<svg
   width="48"
   height="48"
   viewBox="0 0 48 48"
   version="1.1"
   id="svg990"
   inkscape:version="1.2.2 (b0a8486541, 2022-12-01)"
   xml:space="preserve"
   sodipodi:docname="liftoff.svg"
   xmlns:inkscape="http://www.inkscape.org/namespaces/inkscape"
   xmlns:sodipodi="http://sodipodi.sourceforge.net/DTD/sodipodi-0.dtd"
   xmlns="http://www.w3.org/2000/svg"
   xmlns:svg="http://www.w3.org/2000/svg"><sodipodi:namedview
     id="namedview992"
     pagecolor="#858585"
     bordercolor="#000000"
     borderopacity="0.25"
     inkscape:showpageshadow="2"
     inkscape:pageopacity="0"
     inkscape:pagecheckerboard="0"
     inkscape:deskcolor="#d1d1d1"
     inkscape:document-units="px"
     showgrid="false"
     inkscape:zoom="11"
     inkscape:cx="16.272727"
     inkscape:cy="24"
     inkscape:window-width="1366"
     inkscape:window-height="737"
     inkscape:window-x="0"
     inkscape:window-y="0"
     inkscape:window-maximized="1"
     inkscape:current-layer="svg990" /><defs
     id="defs987"><style
       id="style1174">.a{fill:none;stroke:#fff;stroke-linecap:round;stroke-linejoin:round;}</style></defs><path
     id="path22323"
     style="fill:none;stroke:#ffffff;stroke-width:1;stroke-linecap:round;stroke-linejoin:round;stroke-dasharray:none;stop-color:#000000"
     d="m 20.027723,37.207455 c -0.09306,2.397804 1.305818,5.108402 3.972277,6.292389 2.66646,-1.183987 4.06534,-3.894585 3.972278,-6.292389 z M 27.738811,18.316298 A 3.7388115,3.7388115 0 0 1 24,22.055109 3.7388115,3.7388115 0 0 1 20.261189,18.316298 3.7388115,3.7388115 0 0 1 24,14.577486 a 3.7388115,3.7388115 0 0 1 3.738811,3.738812 z m 3.895878,14.614415 H 16.438931 m 15.195757,0 V 15.350749 c 0,-3.443584 -2.31494,-7.548893 -6.491913,-10.3931041 0,0 -0.707015,-0.4574834 -1.105966,-0.4574834 -0.398949,0 -1.105965,0.4574834 -1.105965,0.4574834 -4.176973,2.8442111 -6.491913,6.9495201 -6.491913,10.3931041 v 17.579964 l -5.798886,3.172266 V 25.975373 c 0,-2.673858 2.854382,-5.048938 5.586786,-6.779129 m 15.33424,13.734469 5.798884,3.172266 V 25.975373 c 0,-2.673858 -2.854382,-5.048938 -5.586784,-6.779129" /></svg>
