<?xml version="1.0" encoding="UTF-8" standalone="no"?>
<!-- Created with Inkscape (http://www.inkscape.org/) -->

<svg
   width="48"
   height="48"
   viewBox="0 0 48 48"
   version="1.1"
   id="svg990"
   inkscape:version="1.2.2 (b0a8486541, 2022-12-01)"
   xml:space="preserve"
   sodipodi:docname="loopmuenster.svg"
   xmlns:inkscape="http://www.inkscape.org/namespaces/inkscape"
   xmlns:sodipodi="http://sodipodi.sourceforge.net/DTD/sodipodi-0.dtd"
   xmlns="http://www.w3.org/2000/svg"
   xmlns:svg="http://www.w3.org/2000/svg"><sodipodi:namedview
     id="namedview992"
     pagecolor="#858585"
     bordercolor="#000000"
     borderopacity="0.25"
     inkscape:showpageshadow="2"
     inkscape:pageopacity="0"
     inkscape:pagecheckerboard="0"
     inkscape:deskcolor="#d1d1d1"
     inkscape:document-units="px"
     showgrid="false"
     inkscape:zoom="11"
     inkscape:cx="16"
     inkscape:cy="24"
     inkscape:window-width="1366"
     inkscape:window-height="737"
     inkscape:window-x="0"
     inkscape:window-y="0"
     inkscape:window-maximized="1"
     inkscape:current-layer="svg990" /><defs
     id="defs987"><style
   id="style1174">.a{fill:none;stroke:#fff;stroke-linecap:round;stroke-linejoin:round;}</style>
		
		
		
	
		
		
	
		
		
	
		
		
	
		
		
	
		
	
		
		
	
			
		</defs><path
     id="line9372"
     style="fill:none;stroke:#ffffff;stroke-linecap:round;stroke-linejoin:round;stroke-miterlimit:10"
     class="st5"
     d="M 26.780561,35.089092 24.65304,30.672495 m 5.399082,2.840662 -1.300153,-2.699037 c -0.433386,-0.899678 -1.524074,-1.281193 -2.423752,-0.847808 v 0 c -0.89968,0.433385 -1.281193,1.524073 -0.847809,2.423752 m -5.675704,-1.625169 a 0.72627002,0.72627002 0 0 1 -0.339123,0.9695 0.72627002,0.72627002 0 0 1 -0.969501,-0.339123 0.72627002,0.72627002 0 0 1 0.339123,-0.969501 0.72627002,0.72627002 0 0 1 0.969501,0.339124 z m 2.813979,-1.379366 a 0.72627002,0.72627002 0 0 1 -0.339123,0.969501 0.72627002,0.72627002 0 0 1 -0.969501,-0.339123 0.72627002,0.72627002 0 0 1 0.339123,-0.969501 0.72627002,0.72627002 0 0 1 0.969501,0.339123 z m 18.689254,-2.302091 c -0.009,0.608929 -0.423904,1.211876 -0.996426,1.487667 v 0 c -0.89968,0.433383 -1.990368,0.05187 -2.423752,-0.84781 l -0.512182,-1.063256 c -0.433384,-0.899679 -0.05187,-1.990367 0.847809,-2.423753 v 0 c 0.899678,-0.433384 1.990366,-0.05187 2.423751,0.847809 l 0.27579,0.572524 -3.271559,1.575943 m -4.291753,-0.754113 1.799366,-0.866776 m -1.53006,-0.875235 2.363915,4.907341 c 0.236392,0.490733 0.721143,0.660295 1.211877,0.423904 l 0.245365,-0.118197 m -5.987834,2.48133 c 0.445353,0.08777 0.811908,0.01197 1.466219,-0.303221 l 0.327156,-0.157594 c 0.572524,-0.27579 0.826866,-1.002916 0.551075,-1.57544 v 0 c -0.27579,-0.572521 -1.002916,-0.826864 -1.575439,-0.551075 l -0.7361,0.354588 c -0.572523,0.27579 -1.299649,0.02144 -1.575439,-0.551075 v 0 c -0.275791,-0.572524 -0.02144,-1.299649 0.551075,-1.575439 l 0.327156,-0.157594 c 0.736101,-0.354588 1.102655,-0.430393 1.466219,-0.303222 m 9.004152,-4.941997 2.127522,4.416605 m -1.339549,-2.780824 c -0.433385,-0.899679 -0.05187,-1.990366 0.847808,-2.423752 v 0 M 15.773732,36.965104 c -0.433384,-0.899679 -0.05187,-1.990368 0.847809,-2.423752 v 0 c 0.899678,-0.433384 1.990368,-0.05187 2.423752,0.847809 l 1.300153,2.699036 m -8.631246,-1.182931 2.127522,4.416603 m -1.339549,-2.780821 c -0.433386,-0.899679 -0.05187,-1.990367 0.847807,-2.423753 v 0 c 0.89968,-0.433384 1.990368,-0.05187 2.423752,0.847809 l 1.300155,2.699037 m 7.315929,-5.43875 0.78797,1.635781 m -5.399082,-2.84066 1.300153,2.699037 c 0.433386,0.899678 1.524073,1.281193 2.423752,0.847808 v 0 c 0.89968,-0.433385 1.281193,-1.524073 0.847808,-2.423751 L 23.050264,31.444568 M 16.211435,26.632243 14.54083,26.008448 c -1.600694,-0.59769 -1.858823,-2.39709 -1.445305,-3.382359 l 1.721517,-4.101773 c 0.398257,-0.948909 2.101475,-1.177927 3.361523,-0.718951 l 11.833445,4.310363 c 2.00086,0.728819 3.200542,-0.903372 3.383192,-1.359877 L 34.8735,17.061079 m 5.548499,3.05398 L 35.06786,8.9288078 39.290524,6.923104 c 1.362141,-0.6469971 2.958715,0.1198143 3.572435,1.2181066 0.576252,1.0312426 0.285807,2.9284734 -0.783931,3.4561824 L 39.535239,12.85226 M 4.6041592,21.859484 9.7357646,32.418457 20.507669,27.304811 c 1.271877,-0.603785 1.631398,-1.878295 2.01075,-3.012702 l 0.742607,-2.220684 m 1.377879,-4.120395 1.284671,-3.841667 c 0.583615,-1.745234 2.045878,-2.221466 3.49317,-1.639198 l 6.03921,2.429668" /></svg>
