<?xml version="1.0" encoding="UTF-8" standalone="no"?>
<!-- Created with Inkscape (http://www.inkscape.org/) -->

<svg
   width="48"
   height="48"
   viewBox="0 0 48 48"
   version="1.1"
   id="svg990"
   inkscape:version="1.2.2 (b0a8486541, 2022-12-01)"
   xml:space="preserve"
   sodipodi:docname="manga_up.svg"
   xmlns:inkscape="http://www.inkscape.org/namespaces/inkscape"
   xmlns:sodipodi="http://sodipodi.sourceforge.net/DTD/sodipodi-0.dtd"
   xmlns="http://www.w3.org/2000/svg"
   xmlns:svg="http://www.w3.org/2000/svg"><sodipodi:namedview
     id="namedview992"
     pagecolor="#858585"
     bordercolor="#000000"
     borderopacity="0.25"
     inkscape:showpageshadow="2"
     inkscape:pageopacity="0"
     inkscape:pagecheckerboard="0"
     inkscape:deskcolor="#d1d1d1"
     inkscape:document-units="px"
     showgrid="false"
     inkscape:zoom="11"
     inkscape:cx="16.272727"
     inkscape:cy="24"
     inkscape:window-width="1366"
     inkscape:window-height="737"
     inkscape:window-x="0"
     inkscape:window-y="0"
     inkscape:window-maximized="1"
     inkscape:current-layer="svg990" /><defs
     id="defs987"><style
       id="style1174">.a{fill:none;stroke:#fff;stroke-linecap:round;stroke-linejoin:round;}</style></defs><path
     id="path2604"
     style="fill:none;stroke:#ffffff;stroke-width:0.999999;stroke-linecap:round;stroke-linejoin:round;stop-color:#000000"
     transform="rotate(14.423401)"
     d="m 47.594829,28.259537 a 2.6625133,2.0921578 0 0 1 -2.662513,2.092158 2.6625133,2.0921578 0 0 1 -2.662513,-2.092158 2.6625133,2.0921578 0 0 1 2.662513,-2.092158 2.6625133,2.0921578 0 0 1 2.662513,2.092158 z M 43.666565,24.85744 c -0.278773,-0.0047 -0.700569,0.269671 -0.793408,-0.924648 L 41.763864,9.6624846 C 41.72222,9.1267563 41.689584,8.4164569 42.474932,8.4210074 l 4.179329,0.024215 c 0.7817,0.00453 0.702549,0.6393062 0.685152,1.1151049 L 46.811315,24.003857 c -0.02479,0.678051 -0.161645,0.903875 -0.931147,0.890901 z m -13.234493,8.73138 c 0.06387,0.248343 0.278074,0.406405 0.526416,0.342534 l 3.937759,-1.012759 c 0.248343,-0.06387 0.531945,-0.350293 0.468073,-0.598634 l -1.473119,-5.727708 c -0.171468,-0.666694 0.203067,-0.827307 0.688717,-0.918627 3.580114,-0.67319 7.061741,-2.928426 6.152478,-7.26754 -0.735267,-3.508781 -3.805724,-4.951494 -8.336269,-3.786275 l -5.433329,1.397408 c -0.712379,0.183218 -1.00924,0.603588 -0.77259,1.076745 1.422145,5.528385 2.981806,11.596015 4.241864,16.494856 z m 2.619521,-16.301016 -1.504621,5.397458 5.426645,-1.395688 z m -23.006371,3.55737 c -0.063871,-0.248343 0.04625,-0.48982 0.294597,-0.553692 l 3.93776,-1.012759 c 0.248342,-0.06387 0.455633,0.0963 0.519504,0.344636 0.686447,2.669422 1.373255,5.338749 2.059993,8.008094 0.355331,1.381028 1.720536,2.215283 3.061298,1.87045 1.340761,-0.344833 2.134275,-1.734292 1.778996,-3.115334 -0.925003,-3.59579 -1.849952,-7.191595 -2.774675,-10.787457 -0.06387,-0.248343 0.04749,-0.490137 0.295832,-0.554009 l 3.937761,-1.012759 c 0.248342,-0.06387 0.455184,0.09641 0.519056,0.344752 l 3.001609,11.670705 c 0.83033,3.228449 -1.100227,6.495971 -4.328675,7.326301 l -2.69007,0.691864 c -3.228449,0.83033 -6.495601,-1.100384 -7.325932,-4.328832 -0.762222,-2.96402 -1.524819,-5.927945 -2.287054,-8.89196 z m 0.791342,-5.834718 -1.9458842,-7.1967132 4.1206152,2.9910892 1.987429,-4.5620278 1.568451,5.7283578 1.839967,-0.473225 1.289683,-6.5083703 4.27007,5.0784473 1.834433,-0.4718005 -1.429154,-5.5567647 6.153472,3.1727141 -1.782623,-6.93110646 m 7.265075,0.80656936 c -2.393563,-0.64689198 -5.167108,0.7799183 -4.435804,3.6233343 0.731305,2.8434166 3.849078,2.7550278 5.633525,1.0335867 L 36.741185,3.9379773 m 1.992983,2.1816531 1.256357,-6.14310023 4.064315,4.77466723" /></svg>
