<?xml version="1.0" encoding="UTF-8" standalone="no"?>
<!-- Created with Inkscape (http://www.inkscape.org/) -->

<svg
   width="48"
   height="48"
   viewBox="0 0 48 48"
   version="1.1"
   id="svg990"
   inkscape:version="1.2.2 (b0a8486541, 2022-12-01)"
   xml:space="preserve"
   sodipodi:docname="mgr_online.svg"
   xmlns:inkscape="http://www.inkscape.org/namespaces/inkscape"
   xmlns:sodipodi="http://sodipodi.sourceforge.net/DTD/sodipodi-0.dtd"
   xmlns="http://www.w3.org/2000/svg"
   xmlns:svg="http://www.w3.org/2000/svg"><sodipodi:namedview
     id="namedview992"
     pagecolor="#858585"
     bordercolor="#000000"
     borderopacity="0.25"
     inkscape:showpageshadow="2"
     inkscape:pageopacity="0"
     inkscape:pagecheckerboard="0"
     inkscape:deskcolor="#d1d1d1"
     inkscape:document-units="px"
     showgrid="false"
     inkscape:zoom="11"
     inkscape:cx="11.636364"
     inkscape:cy="24"
     inkscape:window-width="1366"
     inkscape:window-height="737"
     inkscape:window-x="0"
     inkscape:window-y="0"
     inkscape:window-maximized="1"
     inkscape:current-layer="svg990" /><defs
     id="defs987"><style
   id="style1174">.a{fill:none;stroke:#fff;stroke-linecap:round;stroke-linejoin:round;}</style>
		
		
	
		
	
		
	
		
	
		
	</defs><path
     id="path6616"
     style="fill:none;stroke:#ffffff;stroke-width:1;stroke-linecap:round;stroke-linejoin:round;stroke-miterlimit:10;stroke-dasharray:none;stroke-opacity:0.998582"
     class="st5"
     d="m 10.283123,32.997311 v 0 c -1.2923503,0 -2.240074,-1.033881 -2.240074,-2.240074 v -2.326231 c 0,-1.292351 1.0338804,-2.326231 2.240074,-2.326231 v 0 c 1.292351,0 2.326231,1.03388 2.326231,2.326231 v 2.240074 c 0,1.29235 -1.03388,2.326231 -2.326231,2.326231 z m 29.673828,0 h -3.446268 v -6.892536 h 3.446268 m -3.446266,3.446268 h 2.24007 m -9.070871,3.446268 v -6.892536 l 4.566305,6.892536 v -6.892536 m -19.372345,6.892536 v -6.892536 l 4.566305,6.892536 v -6.892536 m 7.975249,-1e-6 v 6.892537 m -5.710763,-6.892536 v 6.892536 h 3.446268 m 7.001328,-17.984746 6.646706,-2.1e-4 c 0.859153,-2.7e-5 1.550821,0.740844 1.550821,1.695459 v 0.687627 c 0,0.954614 -0.691668,1.723134 -1.550821,1.723134 h -6.646705 v 0 m 6.647085,0.02941 c 0.859153,-2.8e-5 1.550821,0.740844 1.550821,1.695458 v 1.43116 M 32.15168,15.012459 v 7.262148 m -2.230612,-5.791708 c -0.146708,-0.838771 -1.042709,-1.48021 -2.132867,-1.48021 h -4.462664 c -1.19327,0 -2.153917,0.768518 -2.153917,1.723134 v 3.835335 c 0,0.954617 0.960647,1.723134 2.153917,1.723134 h 4.462664 c 1.19327,0 2.153917,-0.768517 2.153917,-1.723134 V 19.160884 H 25.56541 m -6.603904,3.098215 v -7.231218 h -0.609902 l -4.420433,7.231218 H 12.680198 L 8.2597652,15.027881 H 7.6498624 v 7.231192 M 40.5,5.4999999 h -33 a 2,2 0 0 0 -1.9999999,2 V 40.5 A 2,2 0 0 0 7.5,42.5 h 33 a 2,2 0 0 0 2,-2 V 7.4999999 a 2,2 0 0 0 -2,-2 z" /></svg>
