<?xml version="1.0" encoding="UTF-8" standalone="no"?>
<!-- Created with Inkscape (http://www.inkscape.org/) -->

<svg
   width="48"
   height="48"
   viewBox="0 0 48 48"
   version="1.1"
   id="svg990"
   inkscape:version="1.2.2 (b0a8486541, 2022-12-01)"
   xml:space="preserve"
   sodipodi:docname="mint_browser.svg"
   xmlns:inkscape="http://www.inkscape.org/namespaces/inkscape"
   xmlns:sodipodi="http://sodipodi.sourceforge.net/DTD/sodipodi-0.dtd"
   xmlns="http://www.w3.org/2000/svg"
   xmlns:svg="http://www.w3.org/2000/svg"><sodipodi:namedview
     id="namedview992"
     pagecolor="#858585"
     bordercolor="#000000"
     borderopacity="0.25"
     inkscape:showpageshadow="2"
     inkscape:pageopacity="0"
     inkscape:pagecheckerboard="0"
     inkscape:deskcolor="#d1d1d1"
     inkscape:document-units="px"
     showgrid="false"
     inkscape:zoom="11"
     inkscape:cx="16.272727"
     inkscape:cy="24"
     inkscape:window-width="1366"
     inkscape:window-height="737"
     inkscape:window-x="0"
     inkscape:window-y="0"
     inkscape:window-maximized="1"
     inkscape:current-layer="svg990" /><defs
     id="defs987"><style
       id="style1174">.a{fill:none;stroke:#fff;stroke-linecap:round;stroke-linejoin:round;}</style></defs><path
     id="path10625"
     style="fill:none;fill-opacity:0.99795;stroke:#ffffff;stroke-width:1;stroke-linecap:round;stroke-linejoin:round;stroke-dasharray:none;stroke-opacity:1;stop-color:#000000"
     d="M 38.465938,8.0935231 C 45.58293,22.272579 35.636553,30.453933 27.326077,32.294941 M 10.951162,40.938 C 2.5831591,26.020469 12.770992,17.407348 21.311069,15.468849 M 18.030857,3.3486679 C 41.858655,5.4166468 34.520903,31.659333 27.253176,32.36697 m 3.442357,12.026436 C 15.449661,43.067606 12.966746,31.842513 15.060016,23.747071 M 2.7855131,20.605292 C 11.519497,5.8898011 24.549089,11.009718 30.252306,17.594864 M 45.30142,26.834812 C 37.19282,40.744688 25.296095,37.312874 19.047733,31.455038 M 32.949649,24 A 8.9496489,8.9496489 0 0 1 24,32.949649 8.9496489,8.9496489 0 0 1 15.050351,24 8.9496489,8.9496489 0 0 1 24,15.050351 8.9496489,8.9496489 0 0 1 32.949649,24 Z M 45.5,24 A 21.5,21.5 0 0 1 24,45.5 21.5,21.5 0 0 1 2.5,24 21.5,21.5 0 0 1 24,2.5 21.5,21.5 0 0 1 45.5,24 Z" /></svg>
