<?xml version="1.0" encoding="UTF-8" standalone="no"?>
<!-- Created with Inkscape (http://www.inkscape.org/) -->

<svg
   width="48"
   height="48"
   viewBox="0 0 48 48"
   version="1.1"
   id="svg990"
   inkscape:version="1.2.2 (b0a8486541, 2022-12-01)"
   xml:space="preserve"
   sodipodi:docname="monster_super_league.svg"
   xmlns:inkscape="http://www.inkscape.org/namespaces/inkscape"
   xmlns:sodipodi="http://sodipodi.sourceforge.net/DTD/sodipodi-0.dtd"
   xmlns="http://www.w3.org/2000/svg"
   xmlns:svg="http://www.w3.org/2000/svg"><sodipodi:namedview
     id="namedview992"
     pagecolor="#858585"
     bordercolor="#000000"
     borderopacity="0.25"
     inkscape:showpageshadow="2"
     inkscape:pageopacity="0"
     inkscape:pagecheckerboard="0"
     inkscape:deskcolor="#d1d1d1"
     inkscape:document-units="px"
     showgrid="false"
     inkscape:zoom="11.313708"
     inkscape:cx="33.587574"
     inkscape:cy="25.367457"
     inkscape:window-width="1366"
     inkscape:window-height="737"
     inkscape:window-x="0"
     inkscape:window-y="0"
     inkscape:window-maximized="1"
     inkscape:current-layer="svg990" /><defs
     id="defs987"><style
       id="style1174">.a{fill:none;stroke:#fff;stroke-linecap:round;stroke-linejoin:round;}</style></defs><path
     id="path1220"
     style="display:inline;fill:none;stroke:#ffffff;stroke-width:1;stroke-linecap:round;stroke-linejoin:round;stroke-dasharray:none;stroke-opacity:1;stop-color:#000000"
     d="m 36.455425,25.561854 a 12.552969,12.552969 0 0 1 -4.885145,8.451532 m -2.779479,1.589426 A 12.552969,12.552969 0 0 1 24,36.552969 12.552969,12.552969 0 0 1 19.209199,35.602811 M 16.42972,34.013386 a 12.552969,12.552969 0 0 1 -4.868747,-8.325894 m -0.0164,-3.249348 a 12.552969,12.552969 0 0 1 4.885145,-8.45153 m 2.783416,-1.591052 A 12.552969,12.552969 0 0 1 24,11.447031 12.552969,12.552969 0 0 1 28.769708,12.388502 M 31.58492,13.9977 a 12.552969,12.552969 0 0 1 4.855992,8.328761 M 11.56629,22.432849 a 2.1436295,2.1436295 0 0 1 0.46286,0.557015 2.1436295,2.1436295 0 0 1 -0.460521,2.698642 m 24.86508,-0.121357 A 2.1436295,2.1436295 0 0 1 35.970848,25.010134 2.1436295,2.1436295 0 0 1 36.42718,22.315096 M 16.445157,33.977654 a 2.1436295,2.1436295 0 0 1 0.694617,-0.115661 2.1436295,2.1436295 0 0 1 2.099468,1.710761 m 9.521773,0 a 2.1436295,2.1436295 0 0 1 2.09947,-1.710761 2.1436295,2.1436295 0 0 1 0.694616,0.115661 M 19.239727,12.423628 a 2.1436295,2.1436295 0 0 1 -2.100212,1.714379 2.1436295,2.1436295 0 0 1 -0.694616,-0.115661 m 15.142814,-0.01156 a 2.1436295,2.1436295 0 0 1 -0.727487,0.127219 2.1436295,2.1436295 0 0 1 -2.106379,-1.745744 m -11.733358,27.464052 -3.3601,1.412451 -0.361051,-3.020701 M 6.3202393,26.014577 3.3207788,23.844633 6.3202393,21.67469 M 13.263933,9.7374293 13.66039,6.4205065 17.056835,7.8482351 m 13.886331,2e-7 3.396446,-1.4277283 0.396457,3.3169212 m 6.943692,11.9372618 2.999461,2.169944 -2.999461,2.169943 m -6.979098,12.233486 -0.361052,3.020701 v 0 l -3.360098,-1.41245 M 17.04819,7.9141978 16.659534,11.165854 13.554926,9.8608019 m 20.890148,10e-7 -3.104608,1.3050521 -0.388655,-3.2516559 M 17.04819,40.085802 16.659534,36.834145 13.554926,38.139196 m 20.890148,0 -3.104609,-1.305052 -0.388654,3.251658 M 6.6648507,21.924455 9.3190676,23.844633 6.452799,25.91822 m 35.094403,10e-7 -2.86627,-2.073588 2.654217,-1.920178 m -0.06205,6.549488 a 17.8431,17.8431 0 0 1 -4.748231,8.234471 M 28.755775,41.19764 A 17.8431,17.8431 0 0 1 24,41.8431 17.8431,17.8431 0 0 1 19.244225,41.19764 m -7.769097,-4.489227 a 17.8431,17.8431 0 0 1 -4.7482298,-8.23447 m 2e-7,-8.947886 A 17.8431,17.8431 0 0 1 11.475129,11.291586 M 19.244225,6.8023604 A 17.8431,17.8431 0 0 1 24,6.1569004 a 17.8431,17.8431 0 0 1 4.738216,0.640614 m 7.786958,4.4943696 a 17.8431,17.8431 0 0 1 4.74275,8.214229 m -12.526442,21.676855 -0.547491,3.812525 m -8.387971,2e-6 -0.547494,-3.812526 m -7.741921,-4.49596 -3.6442735,1.459669 M 3.7139611,30.870694 6.7597237,28.476322 m -1e-7,-8.952647 -3.0457628,-2.394371 M 7.8723299,9.8533187 11.516604,11.312988 m 7.741918,-4.4959648 0.547495,-3.8125246 m 8.380155,-0.054396 0.553489,3.8542766 m 7.786461,4.4914875 3.60421,-1.4436223 m 4.187427,7.2521163 -3.054016,2.40086 m -0.02346,8.971093 3.045763,2.394374 m -4.158366,7.275989 -3.644274,-1.459669 M 24,15.137945 l -2.613147,5.294815 -5.843177,0.849063 4.228162,4.12144 -0.998134,5.819565 L 24,28.475202 29.226296,31.222828 28.228163,25.403263 32.456324,21.281824 26.613148,20.43276 Z M 45.462284,24 A 21.462284,21.462284 0 0 1 24,45.462284 21.462284,21.462284 0 0 1 2.5377159,24 21.462284,21.462284 0 0 1 24,2.5377159 21.462284,21.462284 0 0 1 45.462284,24 Z" /></svg>
