<?xml version="1.0" encoding="UTF-8" standalone="no"?>
<!-- Created with Inkscape (http://www.inkscape.org/) -->

<svg
   width="48"
   height="48"
   viewBox="0 0 48 48"
   version="1.1"
   id="svg990"
   inkscape:version="1.2.2 (b0a8486541, 2022-12-01)"
   xml:space="preserve"
   sodipodi:docname="pepper_invest.svg"
   xmlns:inkscape="http://www.inkscape.org/namespaces/inkscape"
   xmlns:sodipodi="http://sodipodi.sourceforge.net/DTD/sodipodi-0.dtd"
   xmlns="http://www.w3.org/2000/svg"
   xmlns:svg="http://www.w3.org/2000/svg"><sodipodi:namedview
     id="namedview992"
     pagecolor="#858585"
     bordercolor="#000000"
     borderopacity="0.25"
     inkscape:showpageshadow="2"
     inkscape:pageopacity="0"
     inkscape:pagecheckerboard="0"
     inkscape:deskcolor="#d1d1d1"
     inkscape:document-units="px"
     showgrid="false"
     inkscape:zoom="11.645833"
     inkscape:cx="14.683364"
     inkscape:cy="24.042934"
     inkscape:window-width="1366"
     inkscape:window-height="737"
     inkscape:window-x="0"
     inkscape:window-y="0"
     inkscape:window-maximized="1"
     inkscape:current-layer="svg990" /><defs
     id="defs987"><style
   id="style1174">.a{fill:none;stroke:#fff;stroke-linecap:round;stroke-linejoin:round;}</style>
		
	
		
	
		
	
		
	
		
		
	
		
		
	
		
		
	</defs><path
     id="circle6099"
     style="fill:none;stroke:#ffffff"
     class="st6"
     d="m 39.611751,38.85767 a 0.64988238,0.64988238 0 0 1 -0.649883,0.649882 0.64988238,0.64988238 0 0 1 -0.649882,-0.649882 0.64988238,0.64988238 0 0 1 0.649882,-0.649883 0.64988238,0.64988238 0 0 1 0.649883,0.649883 z m -13.810276,0.243706 h -3.249412 v -6.498824 h 3.249412 m -3.249412,3.249411 h 2.112116 m 2.814189,2.518295 c 0.406177,0.487412 0.893589,0.731118 1.624706,0.731118 h 0.974824 c 0.893588,0 1.624706,-0.731118 1.624706,-1.624706 v 0 c 0,-0.893589 -0.731118,-1.624706 -1.624706,-1.624706 h -1.056059 c -0.893588,0 -1.624706,-0.731118 -1.624706,-1.624706 v 0 c 0,-0.893589 0.731118,-1.624706 1.624706,-1.624706 h 0.974824 c 0.731117,0 1.218529,0.16247 1.624706,0.731117 M 20.656408,32.602643 18.54429,39.101466 16.432172,32.602643 m -6.201127,6.498733 v -6.498824 l 4.30547,6.498824 v -6.498824 m 20.973865,6.498824 v -6.498825 m -2.112122,0 h 4.224247 m -29.387121,0 v 6.498825 M 40.5,5.4999999 h -33 a 2,2 0 0 0 -1.9999999,2 V 40.5 A 2,2 0 0 0 7.5,42.5 h 33 a 2,2 0 0 0 2,-2 V 7.4999999 a 2,2 0 0 0 -2,-2 z" /></svg>
