<?xml version="1.0" encoding="UTF-8" standalone="no"?>
<!-- Created with Inkscape (http://www.inkscape.org/) -->

<svg
   width="48"
   height="48"
   viewBox="0 0 48 48"
   version="1.1"
   id="svg990"
   inkscape:version="1.2.2 (b0a8486541, 2022-12-01)"
   xml:space="preserve"
   sodipodi:docname="power_buy.svg"
   xmlns:inkscape="http://www.inkscape.org/namespaces/inkscape"
   xmlns:sodipodi="http://sodipodi.sourceforge.net/DTD/sodipodi-0.dtd"
   xmlns="http://www.w3.org/2000/svg"
   xmlns:svg="http://www.w3.org/2000/svg"><sodipodi:namedview
     id="namedview992"
     pagecolor="#858585"
     bordercolor="#000000"
     borderopacity="0.25"
     inkscape:showpageshadow="2"
     inkscape:pageopacity="0"
     inkscape:pagecheckerboard="0"
     inkscape:deskcolor="#d1d1d1"
     inkscape:document-units="px"
     showgrid="false"
     inkscape:zoom="11"
     inkscape:cx="16.090909"
     inkscape:cy="24"
     inkscape:window-width="1366"
     inkscape:window-height="737"
     inkscape:window-x="0"
     inkscape:window-y="0"
     inkscape:window-maximized="1"
     inkscape:current-layer="svg990"
     showguides="false" /><defs
     id="defs987"><style
       id="style1174">.a{fill:none;stroke:#fff;stroke-linecap:round;stroke-linejoin:round;}</style></defs><path
     id="path15560"
     style="fill:none;stroke:#ffffff;stroke-width:1;stroke-linecap:round;stroke-linejoin:round;stroke-dasharray:none;stroke-opacity:1;stop-color:#000000"
     d="m 24.322144,4.1001641 0.437153,6.9222509 2.681101,2.245141 c 0.196033,0.164152 0.686102,-0.08731 0.686102,-0.342998 V 5.824219 L 27.09718,5.87548 Z M 21.318246,15.944868 c 0.02918,0.335272 -0.24421,1.18424 -0.904025,0.47034 l -2.992917,-3.238244 -1.26009,-7.5567248 3.332884,2.464545 1.111739,-0.3250735 z m 5.330271,11.746402 -0.442905,-4.364192 2.079651,-1.179703 c 2.590454,-1.469464 3.985884,1.717478 0.99652,3.722419 z m 0.392947,4.839129 0.639743,6.075204 -8.654796,5.294202 -5.220611,-5.391189 -4.8275006,-23.39757 6.9949576,6.156203 13.92846,-7.121543 c 7.870395,-4.024089 12.927808,4.428135 5.462652,13.373309 -1.984539,2.377989 -5.341814,3.546559 -8.322905,5.011384 z" /></svg>
