<?xml version="1.0" encoding="UTF-8" standalone="no"?>
<svg
   id="Layer_2"
   data-name="Layer 2"
   viewBox="0 0 48 48"
   version="1.1"
   sodipodi:docname="redreader_alpha.svg"
   inkscape:version="1.2.2 (b0a8486541, 2022-12-01)"
   xmlns:inkscape="http://www.inkscape.org/namespaces/inkscape"
   xmlns:sodipodi="http://sodipodi.sourceforge.net/DTD/sodipodi-0.dtd"
   xmlns="http://www.w3.org/2000/svg"
   xmlns:svg="http://www.w3.org/2000/svg">
  <sodipodi:namedview
     id="namedview10194"
     pagecolor="#6b6b6b"
     bordercolor="#000000"
     borderopacity="0.25"
     inkscape:showpageshadow="2"
     inkscape:pageopacity="0"
     inkscape:pagecheckerboard="0"
     inkscape:deskcolor="#d1d1d1"
     showgrid="false"
     inkscape:zoom="11.645833"
     inkscape:cx="8.5008947"
     inkscape:cy="24.042934"
     inkscape:window-width="1366"
     inkscape:window-height="737"
     inkscape:window-x="0"
     inkscape:window-y="0"
     inkscape:window-maximized="1"
     inkscape:current-layer="Layer_2" />
  <defs
     id="defs10185">
    <style
       id="style10183">.cls-1{fill:none;stroke:#fff;stroke-linecap:round;stroke-linejoin:round;}</style>
  </defs>
  <path
     id="path4717"
     style="fill:none;stroke:#ffffff;stroke-width:1;stroke-linecap:round;stroke-linejoin:round;stroke-miterlimit:10;stroke-dasharray:none"
     class="st5"
     d="m 41.593699,41.851504 c -0.515617,0 -1.031233,-0.515617 -1.031233,-1.031233 v -5.800686 m 0,4.38274 c 0,1.417946 -1.160137,2.578083 -2.578083,2.578083 v 0 c -1.417945,0 -2.578082,-1.160137 -2.578082,-2.578083 v -1.675754 c 0,-1.417945 1.160137,-2.578082 2.578082,-2.578082 v 0 c 1.417946,0 2.578083,1.160137 2.578083,2.578082 M 45.5,38.5 a 7,7 0 0 1 -7,7 7,7 0 0 1 -7,-7 7,7 0 0 1 7,-7 7,7 0 0 1 7,7 z M 24,28.57 31.82722,36.41479 M 15,37.4 V 10.5 h 9 a 9.035,9.035 0 0 1 0,18.07 h -9 m 27.5,4.189765 V 7.5 a 2,2 0 0 0 -2,-2 v 0 h -33 a 2,2 0 0 0 -2,2 v 33 a 2,2 0 0 0 2,2 h 25.298827" />
</svg>
