<?xml version="1.0" encoding="UTF-8" standalone="no"?>
<!-- Created with Inkscape (http://www.inkscape.org/) -->

<svg
   width="48"
   height="48"
   viewBox="0 0 48 48"
   version="1.1"
   id="svg990"
   inkscape:version="1.2.2 (b0a8486541, 2022-12-01)"
   xml:space="preserve"
   sodipodi:docname="sanook.svg"
   xmlns:inkscape="http://www.inkscape.org/namespaces/inkscape"
   xmlns:sodipodi="http://sodipodi.sourceforge.net/DTD/sodipodi-0.dtd"
   xmlns="http://www.w3.org/2000/svg"
   xmlns:svg="http://www.w3.org/2000/svg"><sodipodi:namedview
     id="namedview992"
     pagecolor="#858585"
     bordercolor="#000000"
     borderopacity="0.25"
     inkscape:showpageshadow="2"
     inkscape:pageopacity="0"
     inkscape:pagecheckerboard="0"
     inkscape:deskcolor="#d1d1d1"
     inkscape:document-units="px"
     showgrid="false"
     inkscape:zoom="11"
     inkscape:cx="15.818182"
     inkscape:cy="24"
     inkscape:window-width="1366"
     inkscape:window-height="737"
     inkscape:window-x="0"
     inkscape:window-y="0"
     inkscape:window-maximized="1"
     inkscape:current-layer="svg990" /><defs
     id="defs987"><style
       id="style1174">.a{fill:none;stroke:#fff;stroke-linecap:round;stroke-linejoin:round;}</style></defs><path
     id="path18084-2"
     style="display:inline;fill:none;stroke:#ffffff;stroke-width:1.0001;stroke-linecap:round;stroke-linejoin:round;stroke-dasharray:none;stroke-opacity:1;stop-color:#000000"
     d="m 18.473319,27.078033 c 0.612029,1.096007 1.52041,1.997453 2.621078,2.601063 0.984816,0.540077 2.08988,0.823199 3.213066,0.823199 2.754778,0 5.12021,-1.666993 6.176864,-4.086845 L 14.142646,23.435292 C 5.0157745,21.260539 3.8945383,13.014053 8.0209386,8.7792341 11.71369,4.9894568 16.334077,3.8327507 27.36156,8.8542511 l 6.6e-5,-2.8193888 H 42.266667 V 20.922779 l -12.283331,-1.5e-5 m -0.456655,-7.97e-4 c -0.612029,-1.096009 -1.520409,-1.997455 -2.621077,-2.601065 -0.984815,-0.540077 -2.089881,-0.823197 -3.213066,-0.823197 -2.754778,0 -5.12021,1.666992 -6.102797,4.081798 l 16.267614,2.985203 c 9.126871,2.174754 10.248107,10.421239 6.121708,14.656059 -3.692753,3.789777 -8.313139,4.946483 -19.340621,-0.07501 l -6.6e-5,2.819389 H 5.7333332 V 27.07722 l 12.2833308,1.5e-5" /></svg>
