<?xml version="1.0" encoding="UTF-8" standalone="no"?>
<!-- Created with Inkscape (http://www.inkscape.org/) -->

<svg
   width="48"
   height="48"
   viewBox="0 0 48 48"
   version="1.1"
   id="svg990"
   inkscape:version="1.2.2 (b0a8486541, 2022-12-01)"
   xml:space="preserve"
   sodipodi:docname="studentloan_connect.svg"
   xmlns:inkscape="http://www.inkscape.org/namespaces/inkscape"
   xmlns:sodipodi="http://sodipodi.sourceforge.net/DTD/sodipodi-0.dtd"
   xmlns="http://www.w3.org/2000/svg"
   xmlns:svg="http://www.w3.org/2000/svg"><sodipodi:namedview
     id="namedview992"
     pagecolor="#858585"
     bordercolor="#000000"
     borderopacity="0.25"
     inkscape:showpageshadow="2"
     inkscape:pageopacity="0"
     inkscape:pagecheckerboard="0"
     inkscape:deskcolor="#d1d1d1"
     inkscape:document-units="px"
     showgrid="false"
     inkscape:zoom="11"
     inkscape:cx="16"
     inkscape:cy="24.090909"
     inkscape:window-width="1366"
     inkscape:window-height="737"
     inkscape:window-x="0"
     inkscape:window-y="0"
     inkscape:window-maximized="1"
     inkscape:current-layer="svg990"
     showguides="false" /><defs
     id="defs987"><style
   id="style1174">.a{fill:none;stroke:#fff;stroke-linecap:round;stroke-linejoin:round;}</style>
		
		
	
		
		
	
		
		
	</defs><path
     id="path6240"
     style="fill:none;stroke:#ffffff;stroke-width:1;stroke-linecap:round;stroke-linejoin:round;stroke-miterlimit:10;stroke-dasharray:none"
     class="st5"
     d="M 33.025763,36.167019 C 32.732308,36.753928 32.047582,37.1452 31.362854,37.1452 v 0 c -1.075999,0 -1.956362,-0.880363 -1.956362,-1.956362 v -1.271636 c 0,-1.075999 0.880363,-1.956363 1.956362,-1.956363 v 0 c 1.076,0 1.956363,0.880364 1.956363,1.956363 v 0.684727 H 29.406492 M 17.829617,37.145203 V 31.86302 m 3.912722,5.28218 v -3.227998 c 0,-1.075999 -0.880363,-1.956363 -1.956362,-1.956363 v 0 c -1.076,0 -1.956363,0.880364 -1.956363,1.956363 m 5.788441,3.228001 V 31.86302 m 3.912723,5.28218 v -3.227998 c 0,-1.075999 -0.880364,-1.956363 -1.956363,-1.956363 v 0 c -1.076,0 -1.956364,0.880364 -1.956364,1.956363 m 15.098332,2.249817 C 38.422929,36.753928 37.738202,37.1452 37.053474,37.1452 v 0 c -1.075998,0 -1.956362,-0.880363 -1.956362,-1.956362 v -1.271636 c 0,-1.075999 0.880364,-1.956363 1.956362,-1.956363 v 0 c 0.684728,0 1.369455,0.391273 1.662909,0.978182 m 1.484442,-1.076001 h 2.152012 m -1.076008,-1.565089 v 5.869088 c 0,0.586909 0.391273,0.978181 0.978181,0.978181 h 0.293455 M 8.9017693,35.400529 11.556689,32.61173 c 0.453156,-0.476006 1.130607,-0.723437 1.846143,-0.723437 1.479829,0 2.679466,1.1768 2.679466,2.628454 0,1.451656 -1.199638,2.628453 -2.679466,2.628453 -0.727477,0 -1.387243,-0.284394 -1.870064,-0.746028 m 0.93743,-2.766207 -2.6549196,2.788797 C 9.3621219,36.89777 8.6846705,37.1452 7.9691339,37.1452 c -1.4798275,0 -2.6794644,-1.176799 -2.6794639,-2.628454 3e-7,-1.451654 1.199637,-2.628453 2.6794639,-2.628453 0.7274787,0 1.3872448,0.284395 1.8700647,0.746029 M 32.814484,21.943699 29.442567,28.246654 M 35.074778,17.72388 c 0.302109,-0.564488 0.905614,-1.0203 1.42217,-1.020299 0.516556,-1e-6 1.083363,0.480074 1.385472,1.044562 l 5.618715,10.498511 m -4.75438,-17.391855 -5.932271,11.0889 h 4.143408 m -17.106086,-0.28053 -2.654329,-4.959588 m 14.058567,0 -5.618715,10.498512 c -0.302109,0.564487 -0.868916,1.044562 -1.410569,1.044561 -0.541652,-1e-6 -1.108459,-0.480074 -1.410568,-1.044561 l -2.964386,-5.538924 h 5.67907 M 4.498865,28.246654 10.11758,17.748143 c 0.302109,-0.564488 0.868916,-1.044563 1.410569,-1.044562 0.541652,1e-6 1.108459,0.480074 1.410568,1.044562 l 5.618715,10.498511" /></svg>
