<?xml version="1.0" encoding="UTF-8" standalone="no"?>
<!-- Created with Inkscape (http://www.inkscape.org/) -->

<svg
   width="48"
   height="48"
   viewBox="0 0 48 48"
   version="1.1"
   id="svg990"
   inkscape:version="1.2.2 (b0a8486541, 2022-12-01)"
   xml:space="preserve"
   sodipodi:docname="tabii.svg"
   xmlns:inkscape="http://www.inkscape.org/namespaces/inkscape"
   xmlns:sodipodi="http://sodipodi.sourceforge.net/DTD/sodipodi-0.dtd"
   xmlns="http://www.w3.org/2000/svg"
   xmlns:svg="http://www.w3.org/2000/svg"><sodipodi:namedview
     id="namedview992"
     pagecolor="#858585"
     bordercolor="#000000"
     borderopacity="0.25"
     inkscape:showpageshadow="2"
     inkscape:pageopacity="0"
     inkscape:pagecheckerboard="0"
     inkscape:deskcolor="#d1d1d1"
     inkscape:document-units="px"
     showgrid="false"
     inkscape:zoom="11.645833"
     inkscape:cx="0.77280861"
     inkscape:cy="10.389982"
     inkscape:window-width="1366"
     inkscape:window-height="737"
     inkscape:window-x="0"
     inkscape:window-y="0"
     inkscape:window-maximized="1"
     inkscape:current-layer="svg990" /><defs
     id="defs987"><style
       id="style1174">.a{fill:none;stroke:#fff;stroke-linecap:round;stroke-linejoin:round;}</style></defs><path
     id="path246"
     style="display:inline;fill:none;stroke:#ffffff;stroke-width:1;stroke-linecap:round;stroke-linejoin:round;stroke-dasharray:none;stroke-opacity:1;stop-color:#000000"
     d="m 22.447668,29.330575 -6.679048,2.900807 2.900808,-6.679049 m 1e-6,-3.104664 -2.900809,-6.679048 6.679048,2.900807 m 3.104666,1e-6 6.679047,-2.900808 -2.900808,6.679047 m 10e-7,3.104666 2.900807,6.679048 v 0 l -6.679048,-2.900809 m -5.52e-4,-2.64e-4 -1.55178,3.934595 -1.551782,-3.934594 m -3.778528,-3.778529 -3.934594,-1.55178 3.934594,-1.551781 m 3.778527,-3.778529 1.551783,-3.934594 1.551781,3.934594 m 3.778527,3.778527 3.934595,1.551783 v 0 L 29.33031,25.551782 M 8.8579048,23.923042 5.6315515,16.281935 13.34734,13.238504 l 3.121702,-7.684455 7.607916,3.3038555 7.641106,-3.2263533 3.043431,7.7157878 7.684455,3.121702 -3.303855,7.607917 3.226354,7.641107 -7.715789,3.043431 -3.121702,7.684455 -7.607917,-3.303857 -7.641106,3.226354 -3.043431,-7.715789 -7.6844547,-3.121702 z" /></svg>
