<?xml version="1.0" encoding="UTF-8" standalone="no"?>
<!-- Created with Inkscape (http://www.inkscape.org/) -->

<svg
   width="48"
   height="48"
   viewBox="0 0 48 48"
   version="1.1"
   id="svg990"
   inkscape:version="1.2.2 (b0a8486541, 2022-12-01)"
   xml:space="preserve"
   sodipodi:docname="thanachart_connect.svg"
   xmlns:inkscape="http://www.inkscape.org/namespaces/inkscape"
   xmlns:sodipodi="http://sodipodi.sourceforge.net/DTD/sodipodi-0.dtd"
   xmlns="http://www.w3.org/2000/svg"
   xmlns:svg="http://www.w3.org/2000/svg"><sodipodi:namedview
     id="namedview992"
     pagecolor="#858585"
     bordercolor="#000000"
     borderopacity="0.25"
     inkscape:showpageshadow="2"
     inkscape:pageopacity="0"
     inkscape:pagecheckerboard="0"
     inkscape:deskcolor="#d1d1d1"
     inkscape:document-units="px"
     showgrid="false"
     inkscape:zoom="11"
     inkscape:cx="16.272727"
     inkscape:cy="24"
     inkscape:window-width="1366"
     inkscape:window-height="737"
     inkscape:window-x="0"
     inkscape:window-y="0"
     inkscape:window-maximized="1"
     inkscape:current-layer="svg990" /><defs
     id="defs987"><style
       id="style1174">.a{fill:none;stroke:#fff;stroke-linecap:round;stroke-linejoin:round;}</style></defs><path
     id="path19166"
     style="fill:none;stroke:#ffffff;stroke-width:1;stroke-linecap:round;stroke-linejoin:round;stroke-dasharray:none;stroke-opacity:1;stop-color:#000000"
     d="m 29.348079,19.998758 c -0.701842,0.583517 -1.417856,1.377242 -2.096238,2.628881 l -2.678579,4.942078 c -1.411799,2.604821 -6.910102,5.690067 -12.339178,4.163735 2.390507,-0.981637 4.177654,-3.067081 5.335,-6.455292 1.171374,-3.429278 3.29712,-4.724819 7.314177,-5.625365 m 4.471086,0.340516 c 3.847336,0.578889 6.184333,2.129346 6.184333,4.914992 0,4.031191 -6.356618,9.384743 -14.172291,10.892585 -8.820103,1.701623 -15.8663743,0.09517 -15.8663738,-4.721694 v 0 c 5e-7,-4.816868 9.1631768,-10.99045 18.3633328,-11.324196 0.219962,-0.0079 0.437621,-0.01426 0.652905,-0.01881 m -2.087989,-8.197619 20.071729,0.04501 c -0.992858,5.709933 -6.743247,7.696096 -14.631738,8.05493 L 7.7965275,19.5935 C 8.7893849,13.883566 14.539775,11.897403 22.428264,11.538569 Z" /></svg>
