<?xml version="1.0" encoding="UTF-8" standalone="no"?>
<!-- Created with Inkscape (http://www.inkscape.org/) -->

<svg
   width="48"
   height="48"
   viewBox="0 0 48 48"
   version="1.1"
   id="svg990"
   inkscape:version="1.2.2 (b0a8486541, 2022-12-01)"
   xml:space="preserve"
   sodipodi:docname="tsuki_adventure_2.svg"
   xmlns:inkscape="http://www.inkscape.org/namespaces/inkscape"
   xmlns:sodipodi="http://sodipodi.sourceforge.net/DTD/sodipodi-0.dtd"
   xmlns="http://www.w3.org/2000/svg"
   xmlns:svg="http://www.w3.org/2000/svg"><sodipodi:namedview
     id="namedview992"
     pagecolor="#858585"
     bordercolor="#000000"
     borderopacity="0.25"
     inkscape:showpageshadow="2"
     inkscape:pageopacity="0"
     inkscape:pagecheckerboard="0"
     inkscape:deskcolor="#d1d1d1"
     inkscape:document-units="px"
     showgrid="false"
     inkscape:zoom="11"
     inkscape:cx="5.9090909"
     inkscape:cy="24"
     inkscape:window-width="1366"
     inkscape:window-height="737"
     inkscape:window-x="0"
     inkscape:window-y="0"
     inkscape:window-maximized="1"
     inkscape:current-layer="svg990" /><defs
     id="defs987"><style
       id="style1174">.a{fill:none;stroke:#fff;stroke-linecap:round;stroke-linejoin:round;}</style></defs><path
     id="path955"
     style="fill:none;stroke:#ffffff;stroke-width:1;stroke-linecap:round;stroke-linejoin:round;stroke-dasharray:none;stroke-opacity:1;stop-color:#000000"
     d="m 40.095945,30.989937 c -0.159921,-1.485622 0.764133,-1.628176 1.394303,-1.74289 -0.40012,-1.070081 0.269674,-1.485347 1.007672,-1.649363 m -28.636223,3.667485 c 4.196241,-0.803726 17.073357,-0.123833 26.035654,-0.14543 l 2.603123,-0.01454 M 7.8181446,31.08636 5.499255,31.511313 M 10.475856,19.680252 C 8.8619155,18.96398 7.038697,21.834129 5.4956447,24.585055 m 28.6671503,1.133408 c 0.722583,0.598739 0.859273,0.982755 1.069172,1.581494 m -5.619558,0.139835 c 1.102143,1.469727 2.405985,2.556217 4.612769,2.057728 0.970757,-0.219284 2.029687,0.88825 2.814668,1.52987 l 1.91344,-2.260329 c -0.585263,-0.166133 -1.286225,-0.236756 -2.513114,-1.064685 -0.383189,-0.258583 -0.80652,-0.425274 -1.63921,-0.278069 -0.937849,0.165794 -1.733872,0.04615 -2.289996,-0.938062 m -9.955061,1.241034 c 3.536641,0.309261 7.247199,0.267153 11.243226,-1.969007 0.839596,-0.586358 0.140516,-1.86866 -0.322731,-2.362795 m -3.154908,-9.038899 c 0.771594,-1.964306 5.149856,-4.6131069 5.798019,-4.169266 m -18.71225,10.029283 0.869273,-0.07385 m 3.698323,-1.46058 v 0.64697 M 32.80551,15.822846 c 2.347464,-1.584021 6.876059,-4.762599 6.256046,-7.2667894 -0.94332,-2.0213646 -9.763199,0.6736453 -10.798753,5.5368154 -2.010122,-1.713261 -10.703682,0.837351 -10.89775,5.954596 -1.089142,4.548211 6.456267,8.052747 14.742988,4.490846 1.438356,-0.871327 3.689546,-5.09896 0.697469,-8.715468 z M 15.206067,25.889751 c -0.926182,-0.314067 -0.962864,1.56137 -1.321131,2.59854 m 2.696794,0.287822 0.0574,2.078297 m 3.088317,-0.938447 c -5.045286,-1.126341 -4.618952,-3.857187 -4.131916,-4.82062 1.786538,-2.224294 6.75316,2.688094 7.232114,2.988135 m 12.610407,6.839085 c -0.432422,1.726419 -3.528432,1.275481 -4.058413,1.021546 -0.206365,-1.047137 1.061149,-1.325425 2.200842,-1.431992 1.434945,-0.275008 1.898897,0.245451 1.857571,0.410446 z m 2.079163,-2.021175 c 0.512371,2.860384 0.228911,6.191708 0.229762,9.354788 m -27.15921,-8.931622 c -0.56909,1.493441 -0.8614291,5.878947 -0.495867,8.863215 m 0.578223,-22.97449 C 10.425585,21.96976 9.988529,24.67505 9.9854913,27.244005 M 9.479049,29.13461 c -0.4513939,0.636456 -1.2373875,1.706781 -1.5869005,2.577604 0.085773,1.533167 1.7625224,0.709125 2.6012315,0.229507 m 1.212918,-7.14221 c 2.307229,-0.368876 2.634067,8.728923 0.604534,7.838975 -1.59099,-0.697648 -2.7352217,-1.52306 -2.6017636,-3.774432 0.1382841,-2.051668 0.7496836,-3.699463 1.9972296,-4.064543 z M 40.5,5.4999999 h -33 a 2,2 0 0 0 -1.9999999,2 V 40.5 A 2,2 0 0 0 7.5,42.5 h 33 a 2,2 0 0 0 2,-2 V 7.4999999 a 2,2 0 0 0 -2,-2 z" /></svg>
