<?xml version="1.0" encoding="UTF-8" standalone="no"?>
<!-- Created with Inkscape (http://www.inkscape.org/) -->

<svg
   width="48"
   height="48"
   viewBox="0 0 48 48"
   version="1.1"
   id="svg990"
   inkscape:version="1.2.2 (b0a8486541, 2022-12-01)"
   xml:space="preserve"
   sodipodi:docname="tsuki_adventure.svg"
   xmlns:inkscape="http://www.inkscape.org/namespaces/inkscape"
   xmlns:sodipodi="http://sodipodi.sourceforge.net/DTD/sodipodi-0.dtd"
   xmlns="http://www.w3.org/2000/svg"
   xmlns:svg="http://www.w3.org/2000/svg"><sodipodi:namedview
     id="namedview992"
     pagecolor="#858585"
     bordercolor="#000000"
     borderopacity="0.25"
     inkscape:showpageshadow="2"
     inkscape:pageopacity="0"
     inkscape:pagecheckerboard="0"
     inkscape:deskcolor="#d1d1d1"
     inkscape:document-units="px"
     showgrid="false"
     inkscape:zoom="11.313708"
     inkscape:cx="24.306797"
     inkscape:cy="19.710602"
     inkscape:window-width="1366"
     inkscape:window-height="737"
     inkscape:window-x="0"
     inkscape:window-y="0"
     inkscape:window-maximized="1"
     inkscape:current-layer="svg990" /><defs
     id="defs987"><style
       id="style1174">.a{fill:none;stroke:#fff;stroke-linecap:round;stroke-linejoin:round;}</style></defs><path
     id="path3162"
     style="fill:none;stroke:#ffffff;stroke-width:1;stroke-linecap:round;stroke-linejoin:round;stroke-dasharray:none;stroke-opacity:1;stop-color:#000000"
     d="M 18.048373,5.5525828 5.7707653,11.592491 m 36.4973507,26.645688 -7.55597,4.073063 m 7.611493,-7.124595 -13.567951,7.191966 m 1.418001,-4.329602 c 3.125468,0.872767 6.691404,-2.914705 4.32102,-6.064821 m -2.133848,2.331154 c -0.798792,3.58584 -4.596486,4.928607 -6.715937,5.006475 m 8.329508,-9.693622 c 0.656318,1.502982 0.0963,5.820404 -3.5173,4.11174 m 0.320767,-1.544491 4.324657,-3.737188 c 1.492505,0.05835 2.813684,-1.002319 1.543055,-1.751227 1.223635,-2.35971 3.502139,-3.904665 5.588245,-5.598224 m 0.106797,-2.942086 c -0.617739,1.203631 -1.796946,2.171598 -2.776085,2.937872 -3.371711,2.495147 -6.355343,6.33789 -9.592659,9.576882 m -1.17717,4.548288 c 4.92119,-4.158271 -0.994803,-6.546137 -3.698744,-4.2409 m 5.848908,-4.972436 c 0.372471,-0.04446 0.580882,-0.01453 0.883465,-0.367837 m -6.896746,-1.426485 0.25655,1.200105 M 12.708979,35.127207 C 8.4571693,35.886128 9.1170009,30.936704 11.867787,31.430098 m 6.841141,8.494053 c -2.514931,-0.245621 -8.15322,-2.994522 -6.46207,-13.031275 m 12.388449,8.027009 c -0.712385,-0.806379 -3.521736,-1.048686 -5.360172,2.092581 -1.431632,2.445143 0.532701,6.581999 5.128934,3.507326 1.171334,-0.783571 2.048236,-3.543167 0.231238,-5.599907 z M 5.4969938,21.483229 c 2.5436024,0.89433 5.5833842,2.260185 8.7611752,0.339998 m -1.46007,4.494956 C 9.7689638,29.279787 6.1033931,28.295278 5.8029646,28.151484 M 25.608279,30.629586 C 17.68242,32.519004 13.974996,28.864558 12.495417,25.37295 c 0.728086,-2.549273 1.293781,-2.772649 2.131738,-3.980071 m 5.577736,-7.554332 c 7.818048,-4.4014088 16.084726,7.075432 12.649096,13.763816 -1.515312,1.487788 -3.192074,2.256495 -4.931417,2.498638 m -1.129042,0.08507 c -2.072481,0.02908 -4.202181,-0.613339 -6.228127,-1.613798 -4.241174,-1.297301 -7.255473,-6.764438 -5.204808,-10.878151 m 7.682176,-4.885309 C 19.945564,9.8663085 21.456157,7.0718662 23.342516,6.6726167 26.544607,5.9948913 30.17575,14.298594 29.960415,15.25326 M 14.00655,12.479497 c 2.566151,1.374902 4.059624,3.538695 5.038811,5.287648 m -1.848496,1.516315 c -0.441855,-1.227921 -8.0270106,-5.407736 -4.325513,-8.933634 2.881452,-2.7447564 8.321261,4.868399 8.960336,7.021858 M 40.5,5.4999999 h -33 a 2,2 0 0 0 -1.9999999,2 V 40.5 A 2,2 0 0 0 7.5,42.5 h 33 a 2,2 0 0 0 2,-2 V 7.4999999 a 2,2 0 0 0 -2,-2 z" /></svg>
