<?xml version="1.0" encoding="UTF-8" standalone="no"?>
<!-- Created with Inkscape (http://www.inkscape.org/) -->

<svg
   width="48"
   height="48"
   viewBox="0 0 48 48"
   version="1.1"
   id="svg990"
   inkscape:version="1.2.2 (b0a8486541, 2022-12-01)"
   xml:space="preserve"
   sodipodi:docname="ttb_touch.svg"
   xmlns:inkscape="http://www.inkscape.org/namespaces/inkscape"
   xmlns:sodipodi="http://sodipodi.sourceforge.net/DTD/sodipodi-0.dtd"
   xmlns="http://www.w3.org/2000/svg"
   xmlns:svg="http://www.w3.org/2000/svg"><sodipodi:namedview
     id="namedview992"
     pagecolor="#858585"
     bordercolor="#000000"
     borderopacity="0.25"
     inkscape:showpageshadow="2"
     inkscape:pageopacity="0"
     inkscape:pagecheckerboard="0"
     inkscape:deskcolor="#d1d1d1"
     inkscape:document-units="px"
     showgrid="false"
     inkscape:zoom="11"
     inkscape:cx="9.5454545"
     inkscape:cy="24"
     inkscape:window-width="1366"
     inkscape:window-height="737"
     inkscape:window-x="0"
     inkscape:window-y="0"
     inkscape:window-maximized="1"
     inkscape:current-layer="svg990" /><defs
     id="defs987"><style
       id="style1174">.a{fill:none;stroke:#fff;stroke-linecap:round;stroke-linejoin:round;}</style></defs><path
     id="rect19451-6-1"
     style="display:inline;fill:none;stroke:#ffffff;stroke-width:1;stroke-linecap:round;stroke-linejoin:round;stroke-dasharray:none;stroke-opacity:1;stop-color:#000000"
     d="m 36.99284,32.941943 c 3.799383,0 6.507095,-2.950377 6.507095,-6.617656 0,-3.667278 -2.707712,-6.496546 -6.507095,-6.496546 -3.799381,0 -6.485018,2.829268 -6.485018,6.496546 0,3.667279 2.685637,6.617656 6.485018,6.617656 z m -6.485113,-17.883886 -1.78e-4,4.702898 m -13.014443,0 8.5e-5,-4.702898 m 13.014358,4.702898 2.73e-4,6.867061 c 1.34e-4,3.36355 -2.708374,6.07139 -6.071924,6.07139 h -0.871664 c -3.36355,0 -6.071517,-2.70784 -6.07139,-6.07139 l 2.62e-4,-6.867061 h 5.241581 m -18.2343608,0 1.791e-4,-4.702898 M 17.492966,26.628016 c -1.28e-4,3.36355 -2.686298,6.07139 -6.049848,6.07139 h -0.871663 c -3.3635501,0 -6.0715179,-2.70784 -6.0713899,-6.07139 l 2.66e-4,-6.867061 h 5.2415814" /></svg>
