<?xml version="1.0" encoding="UTF-8" standalone="no"?>
<!-- Created with Inkscape (http://www.inkscape.org/) -->

<svg
   width="48"
   height="48"
   viewBox="0 0 48 48"
   version="1.1"
   id="svg990"
   inkscape:version="1.2.2 (b0a8486541, 2022-12-01)"
   xml:space="preserve"
   sodipodi:docname="uae_pass.svg"
   xmlns:inkscape="http://www.inkscape.org/namespaces/inkscape"
   xmlns:sodipodi="http://sodipodi.sourceforge.net/DTD/sodipodi-0.dtd"
   xmlns="http://www.w3.org/2000/svg"
   xmlns:svg="http://www.w3.org/2000/svg"><sodipodi:namedview
     id="namedview992"
     pagecolor="#858585"
     bordercolor="#000000"
     borderopacity="0.25"
     inkscape:showpageshadow="2"
     inkscape:pageopacity="0"
     inkscape:pagecheckerboard="0"
     inkscape:deskcolor="#d1d1d1"
     inkscape:document-units="px"
     showgrid="false"
     inkscape:zoom="11"
     inkscape:cx="21.636364"
     inkscape:cy="24"
     inkscape:window-width="1366"
     inkscape:window-height="737"
     inkscape:window-x="0"
     inkscape:window-y="0"
     inkscape:window-maximized="1"
     inkscape:current-layer="svg990" /><defs
     id="defs987"><style
       id="style1174">.a{fill:none;stroke:#fff;stroke-linecap:round;stroke-linejoin:round;}</style></defs><path
     id="path1116"
     style="fill:none;stroke:#ffffff;stroke-width:1;stroke-linecap:round;stroke-linejoin:round;stroke-dasharray:none;stop-color:#000000"
     d="m 40.527447,23.303952 c 0.239829,0.690081 0.186381,0.459128 0.306687,1.153217 m -1.968593,-4.972851 c 0.486624,0.645655 0.75011,1.291309 0.942706,1.936965 m -2.326155,11.769566 c -0.378729,0.787 -0.923333,1.335971 -1.68252,1.577012 m -7.101752,-5.10168 c 0.423766,0.53979 0.395688,0.858083 1.370415,1.18851 m -16.860306,5.729481 c 0.308373,0.598925 0.584144,1.204337 1.176228,1.741069 m 9.935689,-19.268016 c 0.449207,-0.01162 1.141941,-0.09165 1.65673,0.182578 m -14.369763,-8.945069 -0.666306,0.70577 M 14.12279,8.2911277 C 20.486006,4.1646334 28.822445,5.4330046 33.523411,8.2314328 M 7.8278492,21.285317 C 7.1681715,22.940583 6.9088824,24.647049 6.9321046,26.02935 M 9.465256,18.242684 c 2.898192,-4.333385 6.259531,-6.646814 9.634604,-7.622891 m 4.163122,-0.573088 c 6.585149,0.02672 12.48877,4.230331 14.170643,7.23363 m -10.692201,6.819398 c 0.774322,1.092812 0.926449,1.625615 1.067622,2.736969 m -4.015857,0.153419 c -0.187756,3.07087 2.195674,9.195404 9.326619,8.616067 M 23.88061,22.995625 c -5.993338,-0.975811 -7.046803,12.452208 5.117789,16.640168 M 28.478456,19.961467 c 0.969574,0.630833 3.713395,3.166403 3.934043,7.499538 M 19.352048,39.733436 c 0.744356,0.960701 1.829675,1.930787 3.319763,2.633326 M 17.557643,36.1531 C 13.174934,28.109766 15.928473,21.049988 21.01588,19.652681 M 11.976276,32.798982 C 7.5317464,18.502159 20.113718,12.667183 27.720563,14.716495 c 7.674659,2.067583 12.213178,14.825592 5.15816,16.896176" /></svg>
