<?xml version="1.0" encoding="UTF-8" standalone="no"?>
<!-- Created with Inkscape (http://www.inkscape.org/) -->

<svg
   width="48"
   height="48"
   viewBox="0 0 48 48"
   version="1.1"
   id="svg990"
   inkscape:version="1.2.2 (b0a8486541, 2022-12-01)"
   xml:space="preserve"
   sodipodi:docname="uob_tmrw.svg"
   xmlns:inkscape="http://www.inkscape.org/namespaces/inkscape"
   xmlns:sodipodi="http://sodipodi.sourceforge.net/DTD/sodipodi-0.dtd"
   xmlns="http://www.w3.org/2000/svg"
   xmlns:svg="http://www.w3.org/2000/svg"><sodipodi:namedview
     id="namedview992"
     pagecolor="#858585"
     bordercolor="#000000"
     borderopacity="0.25"
     inkscape:showpageshadow="2"
     inkscape:pageopacity="0"
     inkscape:pagecheckerboard="0"
     inkscape:deskcolor="#d1d1d1"
     inkscape:document-units="px"
     showgrid="false"
     inkscape:zoom="11"
     inkscape:cx="8.5454545"
     inkscape:cy="24"
     inkscape:window-width="1366"
     inkscape:window-height="737"
     inkscape:window-x="0"
     inkscape:window-y="0"
     inkscape:window-maximized="1"
     inkscape:current-layer="svg990" /><defs
     id="defs987"><style
   id="style1174">.a{fill:none;stroke:#fff;stroke-linecap:round;stroke-linejoin:round;}</style>
		
		
	
		
	
		
		
	
		
		
	
			
		
			
		
			
		
				
			</defs><path
     id="path1178"
     style="display:inline"
     class="a"
     inkscape:label="references"
     d="m 40.5,5.4999999 h -33 a 2,2 0 0 0 -1.9999999,2 V 40.5 A 2,2 0 0 0 7.5,42.5 h 33 a 2,2 0 0 0 2,-2 V 7.4999999 a 2,2 0 0 0 -2,-2 z M 29.356452,23.665181 v 0 c -1.626839,0 -2.819853,-1.30147 -2.819853,-2.819852 v -2.928308 c 0,-1.626839 1.301471,-2.928308 2.819853,-2.928308 v 0 c 1.626838,0 2.928308,1.301469 2.928308,2.928308 v 2.819851 c 0,1.626839 -1.30147,2.928309 -2.928308,2.928309 z m 8.63533,-4.338237 h -3.687496 m 3.470591,-1e-6 c 1.193014,0 2.169116,0.976103 2.169116,2.169117 0,1.193014 -0.976102,2.169117 -2.169116,2.169117 h -3.579043 v -8.676468 h 3.579043 c 1.193014,0 2.169116,0.976103 2.169116,2.169117 0,1.193014 -0.976102,2.169117 -2.169116,2.169117 z m -18.78906,-4.33823 v 5.748159 c 0,1.626839 1.301469,2.928309 2.819852,2.928309 1.518381,0 2.819851,-1.30147 2.819851,-2.928309 V 14.988713 M 7.8559535,19.326945 H 16.786485 M 15.226647,14.988871 V 23.66502 M 13.289695,14.988871 V 23.66502 M 11.352744,14.988871 V 23.66502 M 9.4157913,14.988871 v 8.676149 m 26.5693487,4.080556 -1.351784,5.407135 -1.351784,-5.407135 -1.351783,5.407135 -1.351784,-5.407135 M 13.571948,33.152554 V 27.74542 m -1.757323,0 h 3.514646 m 11.770727,3.6821 1.657449,1.657444 m -3.514644,0.06759 V 27.74542 h 1.757318 c 1.013838,0 1.824908,0.81107 1.824908,1.824908 0,1.013838 -0.81107,1.824908 -1.824908,1.824908 h -1.757318 m -7.760332,1.68973 V 27.74542 l 2.703567,5.407135 2.703568,-5.407135 v 5.407135" /></svg>
