<?xml version="1.0" encoding="UTF-8" standalone="no"?>
<!-- Created with Inkscape (http://www.inkscape.org/) -->

<svg
   width="48"
   height="48"
   viewBox="0 0 48 48"
   version="1.1"
   id="svg990"
   inkscape:version="1.2.2 (b0a8486541, 2022-12-01)"
   xml:space="preserve"
   sodipodi:docname="valkyrie_connect.svg"
   xmlns:inkscape="http://www.inkscape.org/namespaces/inkscape"
   xmlns:sodipodi="http://sodipodi.sourceforge.net/DTD/sodipodi-0.dtd"
   xmlns="http://www.w3.org/2000/svg"
   xmlns:svg="http://www.w3.org/2000/svg"><sodipodi:namedview
     id="namedview992"
     pagecolor="#858585"
     bordercolor="#000000"
     borderopacity="0.25"
     inkscape:showpageshadow="2"
     inkscape:pageopacity="0"
     inkscape:pagecheckerboard="0"
     inkscape:deskcolor="#d1d1d1"
     inkscape:document-units="px"
     showgrid="false"
     inkscape:zoom="16"
     inkscape:cx="13.375"
     inkscape:cy="24.5"
     inkscape:window-width="1366"
     inkscape:window-height="737"
     inkscape:window-x="0"
     inkscape:window-y="0"
     inkscape:window-maximized="1"
     inkscape:current-layer="svg990" /><defs
     id="defs987"><style
       id="style1174">.a{fill:none;stroke:#fff;stroke-linecap:round;stroke-linejoin:round;}</style></defs><path
     id="path13355"
     style="fill:none;fill-opacity:1;stroke:#ffffff;stroke-width:1;stroke-linecap:round;stroke-linejoin:round;stroke-dasharray:none;stroke-opacity:1;stop-color:#000000"
     d="m 16.233058,32.024601 c -1.079878,1.09825 -0.569338,2.231908 1.149742,2.682083 m -3.465387,-3.365962 c -0.168238,1.469068 -0.07996,2.938135 -1.17602,4.407203 m -1.164229,-6.438579 c 3.821478,4.654555 10.079621,2.265726 11.492227,0.402162 M 22.978363,29.5455 c 5.41e-4,1.589712 -0.01019,4.414048 -4.88621,5.067965 C 7.6807133,36.009729 9.38921,39.864983 9.6398741,41.263717 11.914591,37.97513 14.530107,38.02974 17.050548,37.151682 M 27.188339,24.983233 c 0.562034,3.786583 1.56031,9.029083 -3.869501,10.141084 -7.145535,1.463374 -10.085785,3.980308 -10.639915,8.35266 3.609576,-2.517331 7.938877,-2.691722 12.048514,-2.998827 5.386755,-0.402541 6.424257,-2.444064 8.228204,-4.78213 -0.707842,2.47647 -2.469174,4.975103 -3.913829,6.274562 6.235827,0.482779 13.371387,-4.368223 5.244922,-14.315236 1.909262,1.39821 5.22278,1.679905 9.290999,-0.07694 -3.183965,-0.695946 -6.525501,-0.913265 -8.363248,-4.35867 -0.743475,-1.393866 -1.29832,-4.729752 -3.190272,-7.482037 m -19.380881,4.839424 c 0.444047,-0.130421 1.336185,0.0366 1.783215,0.668702 0.495774,0.701029 1.898499,0.645284 2.357952,0.0103 0.2459,-0.339846 0.574408,-0.423596 0.906522,-0.480842 m -3.939336,-2.364288 c 1.252411,0.54797 2.277948,0.485606 3.09913,0.284793 m -3.687971,-6.45992 c -1.709359,0.373591 -5.2779605,2.860794 -4.6310812,6.557657 0.6479995,3.703265 -2.0523344,4.19747 -4.1094048,4.299925 0.217792,2.264002 2.6443957,2.519323 4.1472834,2.544669 M 14.158162,13.633332 C 11.477286,10.722255 11.692115,5.0140082 12.866365,4.6047718 14.555964,4.0159317 14.844023,6.5383011 15.180494,7.9653003 M 11.642143,21.389973 c 0.02625,0.994992 0.21062,2.228521 -0.435738,3.956527 -0.584522,1.562691 0.708663,2.504352 1.163992,3.712476 -3.8265748,0.890853 -4.8601632,-2.4282 -2.363821,-6.60911 m 5.662323,-8.720851 c -1.412368,-0.499645 -4.349455,1.095305 -4.7527,4.303844 -0.252248,2.007081 -0.9447706,3.075869 -2.1264527,4.357701 1.8932837,-0.122118 2.5532747,0.03787 4.5480847,-3.681586 1.677531,-3.127867 2.021609,-2.293578 2.653995,-2.915811 M 15.806774,11.157467 C 18.524681,8.8708637 22.842323,8.2124658 27.60512,10.594681 m -11.419053,3.213298 c -2.023341,0.0545 -3.570296,-5.0032306 -0.04171,-6.245039 -0.438483,1.60605 -0.951585,3.133646 0.04171,6.245039 z m 6.990468,1.648261 C 26.526501,9.3953714 37.638719,4.8852064 37.855373,6.2274898 38.1486,8.044179 35.260269,10.712831 31.58649,13.048647 m -4.76239,0.839314 c 1.521912,0.304157 0.617949,2.529384 -1.756815,3.371315 m 4.743666,-3.178148 c 1.870399,-1.143102 4.193922,-2.454687 4.782267,-1.198094 0.25249,0.539274 -0.877174,2.96254 -5.654858,3.047885 3.549173,0.487385 0.442279,2.938364 -2.658913,2.393597 m -3.623399,6.853052 c 0.399455,2.24051 -1.840001,3.014795 -3.698134,4.000949 2.916404,1.03432 8.112891,0.681069 8.009435,-3.976427 m -8.321435,-6.191205 c 4.34533,5.189285 10.328511,3.978965 13.342927,3.722592 -10.302296,7.008988 -15.924688,-1.857985 -15.676585,-7.862731 -0.171396,-1.381925 0.08716,-2.610951 0.758792,-2.980032 2.955775,-1.624291 4.718618,3.223154 8.624813,6.250844 2.669211,2.006369 3.175685,0.54008 4.644812,0.817507 -0.442782,1.066206 -3.359082,1.784994 -6.452646,0.936945 0.22829,1.376553 1.720243,2.051317 2.616789,3.056746" /></svg>
