<?xml version="1.0" encoding="UTF-8" standalone="no"?>
<!-- Created with Inkscape (http://www.inkscape.org/) -->

<svg
   width="48"
   height="48"
   viewBox="0 0 48 48"
   version="1.1"
   id="svg990"
   inkscape:version="1.2.1 (9c6d41e, 2022-07-14)"
   xml:space="preserve"
   sodipodi:docname="central.svg"
   xmlns:inkscape="http://www.inkscape.org/namespaces/inkscape"
   xmlns:sodipodi="http://sodipodi.sourceforge.net/DTD/sodipodi-0.dtd"
   xmlns="http://www.w3.org/2000/svg"
   xmlns:svg="http://www.w3.org/2000/svg"><sodipodi:namedview
     id="namedview992"
     pagecolor="#858585"
     bordercolor="#000000"
     borderopacity="0.25"
     inkscape:showpageshadow="2"
     inkscape:pageopacity="0"
     inkscape:pagecheckerboard="0"
     inkscape:deskcolor="#d1d1d1"
     inkscape:document-units="px"
     showgrid="false"
     inkscape:zoom="11"
     inkscape:cx="23.954545"
     inkscape:cy="24"
     inkscape:window-width="1366"
     inkscape:window-height="737"
     inkscape:window-x="0"
     inkscape:window-y="0"
     inkscape:window-maximized="1"
     inkscape:current-layer="layer2" /><defs
     id="defs987"><style
       id="style1174">.a{fill:none;stroke:#fff;stroke-linecap:round;stroke-linejoin:round;}</style></defs><g
     inkscape:groupmode="layer"
     id="layer2"
     inkscape:label="Layer 2"><path
       id="path301"
       style="fill:none;fill-opacity:0.941176;stroke:#ffffff;stroke-linecap:round;stroke-linejoin:round;stop-color:#000000"
       d="m 31.133594,25.018298 c -0.494707,3.496993 -3.500044,6.186698 -7.133596,6.186698 -3.979211,0 -7.204998,-3.225787 -7.204998,-7.204998 0,-3.979211 3.225787,-7.204998 7.204998,-7.204998 3.606842,0 6.594672,2.650595 7.12228,6.11 m -0.0057,0.08976 L 27.854,23.006 m 3.262603,1.987672 -3.262603,0.01157"
       sodipodi:nodetypes="csssccccc" /><path
       id="path301-3"
       style="fill:none;fill-opacity:0.941176;stroke:#ffffff;stroke-linecap:round;stroke-linejoin:round;stop-color:#000000"
       d="m 27.754,25.179165 c -0.50097,1.596509 -1.992207,2.754673 -3.754002,2.754673 -2.1726,0 -3.93384,-1.76124 -3.93384,-3.93384 0,-2.1726 1.76124,-3.93384 3.93384,-3.93384 1.776537,0 3.265602,1.177627 3.754002,2.794842"
       sodipodi:nodetypes="csssc" /><path
       id="rect1921-6-7-9"
       style="fill:none;fill-opacity:0.941176;stroke:#ffffff;stroke-linecap:round;stroke-linejoin:round;stroke-opacity:1;stop-color:#000000"
       inkscape:transform-center-x="4.6006092"
       inkscape:transform-center-y="-4.6006091"
       d="m 34.005903,17.632466 7.466505,-7.466505 C 42.647617,8.9907528 42.748366,7.1992782 41.698302,6.1492145 40.648238,5.0991504 38.856764,5.1998992 37.681555,6.3751082 v 0 l -7.316119,7.3161188" /><path
       id="path2474"
       style="fill:none;fill-opacity:0.941176;stroke:#ffffff;stroke-linecap:round;stroke-linejoin:round;stroke-opacity:1;stop-color:#000000"
       inkscape:transform-center-y="-6.5062439"
       d="M 30.364542,13.690837 V 7.882098 c 0,-1.6619949 -1.195523,-3 -2.680538,-3 -1.485015,0 -2.680538,1.3380051 -2.680538,3 v 0 l -0.01928,6.546586 c 4.551773,0.382586 8.194394,4.021342 8.58735,8.589218"
       sodipodi:nodetypes="csssccc" /><path
       id="rect1921-2"
       style="display:inline;fill:none;fill-opacity:0.941176;stroke:#ffffff;stroke-linecap:round;stroke-linejoin:round;stroke-opacity:1;stop-color:#000000"
       d="m 34.005873,17.633682 h 5.910305 v 0 c 1.661995,0 3,1.195523 3,2.680538 0,1.485015 -1.338008,2.677594 -3,2.680538 l -6.347206,0.01124"
       sodipodi:nodetypes="ccsssc" /><path
       id="rect1921-6-7-9-3"
       style="fill:none;fill-opacity:0.941176;stroke:#ffffff;stroke-linecap:round;stroke-linejoin:round;stroke-opacity:1;stop-color:#000000"
       inkscape:transform-center-x="4.6006092"
       inkscape:transform-center-y="-4.6006091"
       d="M 13.994097,17.632466 6.527592,10.165961 C 5.352383,8.9907528 5.251634,7.1992782 6.301698,6.1492145 7.351762,5.0991504 9.143236,5.1998992 10.318445,6.3751082 v 0 l 7.316119,7.3161188" /><path
       id="path2474-6"
       style="fill:none;fill-opacity:0.941176;stroke:#ffffff;stroke-linecap:round;stroke-linejoin:round;stroke-opacity:1;stop-color:#000000"
       inkscape:transform-center-y="-6.5062439"
       d="M 17.635458,13.690837 V 7.882098 c 0,-1.6619949 1.195523,-3 2.680538,-3 1.485015,0 2.680538,1.3380051 2.680538,3 v 0 l 0.01928,6.546586 c -4.551773,0.382586 -8.194394,4.021342 -8.58735,8.589218"
       sodipodi:nodetypes="csssccc" /><path
       id="rect1921-2-1"
       style="display:inline;fill:none;fill-opacity:0.941176;stroke:#ffffff;stroke-linecap:round;stroke-linejoin:round;stroke-opacity:1;stop-color:#000000"
       d="M 13.994127,17.633682 H 8.083822 v 0 c -1.661995,0 -3,1.195523 -3,2.680538 0,1.485015 1.338005,2.680538 3,2.680538 l 6.347206,0.01157"
       sodipodi:nodetypes="ccsssc" /><path
       id="rect1921-6-7-9-9"
       style="fill:none;fill-opacity:0.941176;stroke:#ffffff;stroke-linecap:round;stroke-linejoin:round;stroke-opacity:1;stop-color:#000000"
       inkscape:transform-center-x="4.6006092"
       inkscape:transform-center-y="-4.6006091"
       d="m 34.005903,30.367534 7.466505,7.466505 c 1.175209,1.175208 1.275958,2.966683 0.225894,4.016746 -1.050064,1.050065 -2.841538,0.949316 -4.016747,-0.225893 v 0 l -7.316119,-7.316119" /><path
       id="path2474-3"
       style="fill:none;fill-opacity:0.941176;stroke:#ffffff;stroke-linecap:round;stroke-linejoin:round;stroke-opacity:1;stop-color:#000000"
       inkscape:transform-center-y="-6.5062439"
       d="m 30.364542,34.309163 v 5.808739 c 0,1.661995 -1.195523,3 -2.680538,3 -1.485015,0 -2.680538,-1.338005 -2.680538,-3 v 0 l -0.01928,-6.546586 c 4.551773,-0.382586 8.194394,-4.021342 8.58735,-8.589218"
       sodipodi:nodetypes="csssccc" /><path
       id="rect1921-2-19"
       style="display:inline;fill:none;fill-opacity:0.941176;stroke:#ffffff;stroke-linecap:round;stroke-linejoin:round;stroke-opacity:1;stop-color:#000000"
       d="m 34.005873,30.366318 h 5.910305 v 0 c 1.661995,0 3,-1.195523 3,-2.680538 0,-1.485015 -1.338005,-2.680538 -3,-2.680538 l -6.347206,-0.01157"
       sodipodi:nodetypes="ccsssc" /><path
       id="rect1921-6-7-9-3-7"
       style="fill:none;fill-opacity:0.941176;stroke:#ffffff;stroke-linecap:round;stroke-linejoin:round;stroke-opacity:1;stop-color:#000000"
       inkscape:transform-center-x="4.6006092"
       inkscape:transform-center-y="-4.6006091"
       d="m 13.994097,30.367534 -7.466505,7.466505 c -1.175209,1.175208 -1.275958,2.966683 -0.225894,4.016746 1.050064,1.050065 2.841538,0.949316 4.016747,-0.225893 v 0 l 7.316119,-7.316119" /><path
       id="path2474-6-8"
       style="fill:none;fill-opacity:0.941176;stroke:#ffffff;stroke-linecap:round;stroke-linejoin:round;stroke-opacity:1;stop-color:#000000"
       inkscape:transform-center-y="-6.5062439"
       d="m 17.635458,34.309163 v 5.808739 c 0,1.661995 1.195523,3 2.680538,3 1.485015,0 2.680538,-1.338005 2.680538,-3 v 0 l 0.01928,-6.546586 C 18.464041,33.18873 14.82142,29.549974 14.428464,24.982098"
       sodipodi:nodetypes="csssccc" /><path
       id="rect1921-2-1-4"
       style="display:inline;fill:none;fill-opacity:0.941176;stroke:#ffffff;stroke-linecap:round;stroke-linejoin:round;stroke-opacity:1;stop-color:#000000"
       d="M 13.994127,30.366318 H 8.083822 v 0 c -1.661995,0 -3,-1.195523 -3,-2.680538 0,-1.485015 1.338005,-2.680538 3,-2.680538 l 6.347206,-0.01157"
       sodipodi:nodetypes="ccsssc" /></g></svg>
