<?xml version="1.0" encoding="UTF-8" standalone="no"?>
<!-- Created with Inkscape (http://www.inkscape.org/) -->

<svg
   width="48"
   height="48"
   viewBox="0 0 48 48"
   version="1.1"
   id="svg990"
   inkscape:version="1.2.1 (9c6d41e, 2022-07-14)"
   xml:space="preserve"
   sodipodi:docname="streaming.svg"
   xmlns:inkscape="http://www.inkscape.org/namespaces/inkscape"
   xmlns:sodipodi="http://sodipodi.sourceforge.net/DTD/sodipodi-0.dtd"
   xmlns="http://www.w3.org/2000/svg"
   xmlns:svg="http://www.w3.org/2000/svg"><sodipodi:namedview
     id="namedview992"
     pagecolor="#858585"
     bordercolor="#000000"
     borderopacity="0.25"
     inkscape:showpageshadow="2"
     inkscape:pageopacity="0"
     inkscape:pagecheckerboard="0"
     inkscape:deskcolor="#d1d1d1"
     inkscape:document-units="px"
     showgrid="false"
     inkscape:zoom="11"
     inkscape:cx="15.590909"
     inkscape:cy="24"
     inkscape:window-width="1366"
     inkscape:window-height="737"
     inkscape:window-x="0"
     inkscape:window-y="0"
     inkscape:window-maximized="1"
     inkscape:current-layer="layer2" /><defs
     id="defs987"><style
       id="style1174">.a{fill:none;stroke:#fff;stroke-linecap:round;stroke-linejoin:round;}</style></defs><g
     inkscape:groupmode="layer"
     id="layer2"
     inkscape:label="Layer 2"><path
       id="rect13319-8"
       style="fill:none;fill-opacity:0.941176;stroke:#ffffff;stroke-width:1;stroke-linecap:round;stroke-linejoin:round;stroke-dasharray:none;stroke-opacity:1;stop-color:#000000"
       d="m 16.327928,10.933165 -3.144446,12.54901 c -0.290053,1.157554 0.239338,2.673359 1.18697,3.398653 l 4.091584,3.131601 c 0.947633,0.725296 1.944041,0.377302 2.234093,-0.780252 L 23.846932,16.65674 c 0.492179,-1.964381 1.162682,-2.754909 3.432476,-2.754829 l 12.941018,4.6e-4 c 1.24386,0 1.85605,-0.922654 1.372622,-2.068728 L 39.823645,7.6388815 C 39.340218,6.4928078 37.949654,5.5701543 36.705794,5.5701543 H 24.280433 c -3.586372,0 -6.950016,1.3622281 -7.952505,5.3630107 z"
       sodipodi:nodetypes="scsssssssssss" /><path
       id="rect13319-8-7"
       style="fill:none;fill-opacity:0.941176;stroke:#ffffff;stroke-width:1;stroke-linecap:round;stroke-linejoin:round;stroke-dasharray:none;stroke-opacity:1;stop-color:#000000"
       d="M 31.562624,37.262652 34.70707,24.713641 c 0.290053,-1.157554 -0.239337,-2.673358 -1.18697,-3.398653 l -4.091584,-3.1316 c -0.947633,-0.725296 -1.944041,-0.377302 -2.234093,0.780251 L 24.04362,31.539077 c -0.492179,1.96438 -1.162682,2.754909 -3.432475,2.754828 L 7.6701261,34.293446 c -1.2438601,0 -1.8560498,0.922653 -1.3726222,2.068727 l 1.7694028,4.194761 c 0.4834276,1.146075 1.8739915,2.068728 3.1178513,2.068728 h 12.425361 c 3.586372,0 6.950016,-1.362228 7.952505,-5.36301 z"
       sodipodi:nodetypes="scsssssssssss" /></g></svg>
