<?xml version="1.0" encoding="UTF-8" standalone="no"?>
<!-- Created with Inkscape (http://www.inkscape.org/) -->

<svg
   width="48"
   height="48"
   viewBox="0 0 48 48"
   version="1.1"
   id="svg990"
   inkscape:version="1.2.1 (9c6d41e, 2022-07-14)"
   xml:space="preserve"
   sodipodi:docname="true_iservice.svg"
   xmlns:inkscape="http://www.inkscape.org/namespaces/inkscape"
   xmlns:sodipodi="http://sodipodi.sourceforge.net/DTD/sodipodi-0.dtd"
   xmlns="http://www.w3.org/2000/svg"
   xmlns:svg="http://www.w3.org/2000/svg"><sodipodi:namedview
     id="namedview992"
     pagecolor="#858585"
     bordercolor="#000000"
     borderopacity="0.25"
     inkscape:showpageshadow="2"
     inkscape:pageopacity="0"
     inkscape:pagecheckerboard="0"
     inkscape:deskcolor="#d1d1d1"
     inkscape:document-units="px"
     showgrid="false"
     inkscape:zoom="11"
     inkscape:cx="23.954545"
     inkscape:cy="24"
     inkscape:window-width="1366"
     inkscape:window-height="737"
     inkscape:window-x="0"
     inkscape:window-y="0"
     inkscape:window-maximized="1"
     inkscape:current-layer="layer2" /><defs
     id="defs987"><style
       id="style1174">.a{fill:none;stroke:#fff;stroke-linecap:round;stroke-linejoin:round;}</style></defs><g
     inkscape:groupmode="layer"
     id="layer2"
     inkscape:label="Layer 2"><path
       class="st5"
       d="m 22.072431,7.8825166 v 4.8178064 c 0,1.605936 1.313947,2.919882 2.919883,2.919882 v 0 c 1.605935,0 2.919882,-1.313946 2.919882,-2.919882 V 7.8825166"
       id="path9224"
       style="display:inline;fill:none;stroke:#ffffff;stroke-width:1;stroke-linecap:round;stroke-linejoin:round;stroke-miterlimit:10;stroke-dasharray:none;stroke-opacity:0.999494" /><line
       class="st5"
       x1="27.912195"
       y1="12.846319"
       x2="27.912195"
       y2="15.766195"
       id="line9226"
       style="fill:none;stroke:#ffffff;stroke-width:1;stroke-linecap:round;stroke-linejoin:round;stroke-miterlimit:10;stroke-dasharray:none;stroke-opacity:0.999494" /><path
       class="st5"
       d="m 16.520856,10.802399 c 0,-1.6059351 1.313947,-2.9198824 2.919883,-2.9198824 v 0"
       id="path9250"
       style="fill:none;stroke:#ffffff;stroke-width:1;stroke-linecap:round;stroke-linejoin:round;stroke-miterlimit:10;stroke-dasharray:none;stroke-opacity:0.999494" /><line
       class="st5"
       x1="16.520855"
       y1="7.8825154"
       x2="16.520855"
       y2="15.766195"
       id="line9252"
       style="fill:none;stroke:#ffffff;stroke-width:1;stroke-linecap:round;stroke-linejoin:round;stroke-miterlimit:10;stroke-dasharray:none;stroke-opacity:0.999494" /><path
       class="st5"
       d="m 11.99125,5.5466066 v 8.7596484 c 0,0.875965 0.583977,1.45994 1.459942,1.45994 h 0.437983"
       id="path9358"
       style="fill:none;stroke:#ffffff;stroke-width:1;stroke-linecap:round;stroke-linejoin:round;stroke-miterlimit:10;stroke-dasharray:none;stroke-opacity:0.999494" /><line
       class="st5"
       x1="10.385306"
       y1="7.8825116"
       x2="13.597195"
       y2="7.8825116"
       id="line9360"
       style="fill:none;stroke:#ffffff;stroke-width:1;stroke-linecap:round;stroke-linejoin:round;stroke-miterlimit:10;stroke-dasharray:none;stroke-opacity:0.999494" /><path
       class="st5"
       d="m 35.945655,14.306254 c -0.437982,0.875965 -1.45994,1.459941 -2.4819,1.459941 v 0 c -1.605936,0 -2.919882,-1.313947 -2.919882,-2.919882 v -1.897924 c 0,-1.6059353 1.313946,-2.9198825 2.919882,-2.9198825 v 0 c 1.605935,0 2.919883,1.3139472 2.919883,2.9198825 v 1.021959 h -5.839765"
       id="path9460"
       style="fill:none;stroke:#ffffff;stroke-width:1;stroke-linecap:round;stroke-linejoin:round;stroke-miterlimit:10;stroke-dasharray:none;stroke-opacity:0.999494" /><path
       id="path1413"
       style="fill:none;fill-opacity:0.941176;stroke:#ffffff;stroke-width:1;stroke-linecap:round;stroke-linejoin:round;stroke-dasharray:none;stroke-opacity:0.999494;stop-color:#000000"
       d="m 29.2583,32.198757 c 0.07554,0.100286 0.145705,0.206971 0.209677,0.319784 l 3.562061,6.281466 c 0.710962,1.253737 0.380094,2.775266 -0.741856,3.411496 -1.121951,0.636229 -2.597548,0.139101 -3.308511,-1.114635 l -3.56206,-6.281465 c -0.04508,-0.0795 -0.08598,-0.160062 -0.122735,-0.241415" /><ellipse
       style="fill:none;fill-opacity:0.941176;stroke:#ffffff;stroke-width:1;stroke-linecap:round;stroke-linejoin:round;stroke-dasharray:none;stroke-opacity:0.999494;stop-color:#000000"
       id="path591-3"
       cx="23.081324"
       cy="26.396404"
       rx="5.9127269"
       ry="5.9130163" /><path
       id="path591-3-7"
       style="fill:none;fill-opacity:0.941176;stroke:#ffffff;stroke-width:1;stroke-linecap:round;stroke-linejoin:round;stroke-dasharray:none;stroke-opacity:0.999494;stop-color:#000000"
       d="m 26.229865,24.434511 c 0.366754,0.588646 0.561164,1.268319 0.561164,1.961879 v 0 c 0,2.048914 -1.660891,3.709886 -3.709705,3.709886 -2.048814,0 -3.709705,-1.660972 -3.709705,-3.709886 0,-2.048914 1.660891,-3.709886 3.709705,-3.709886 0.282015,1e-6 0.563111,0.03216 0.837839,0.09586"
       sodipodi:nodetypes="csssssc" /><path
       id="path1346"
       style="display:inline;fill:none;fill-opacity:0.941176;stroke:#ffffff;stroke-width:1;stroke-linecap:round;stroke-linejoin:round;stroke-dasharray:none;stroke-opacity:0.999494;stop-color:#000000"
       d="m 26.230969,24.431556 c -0.160937,0.693249 -0.808441,1.18699 -1.556648,1.18699 -0.880318,0 -1.593957,-0.677068 -1.593958,-1.512274 0,-0.553996 0.319281,-1.063649 0.832203,-1.328404"
       sodipodi:nodetypes="cssc" /><ellipse
       style="fill:none;fill-opacity:0.941176;stroke:#ffffff;stroke-width:1;stroke-linecap:round;stroke-linejoin:round;stroke-dasharray:none;stroke-opacity:0.999494;stop-color:#000000"
       id="path591"
       cx="23.081324"
       cy="26.396404"
       rx="8.4829941"
       ry="8.4834108" /></g></svg>
