<?xml version="1.0" encoding="UTF-8" standalone="no"?>
<!-- Created with Inkscape (http://www.inkscape.org/) -->

<svg
   width="48"
   height="48"
   viewBox="0 0 48 48"
   version="1.1"
   id="svg990"
   inkscape:version="1.2.1 (9c6d41e, 2022-07-14)"
   xml:space="preserve"
   sodipodi:docname="trueid.svg"
   xmlns:inkscape="http://www.inkscape.org/namespaces/inkscape"
   xmlns:sodipodi="http://sodipodi.sourceforge.net/DTD/sodipodi-0.dtd"
   xmlns="http://www.w3.org/2000/svg"
   xmlns:svg="http://www.w3.org/2000/svg"><sodipodi:namedview
     id="namedview992"
     pagecolor="#858585"
     bordercolor="#000000"
     borderopacity="0.25"
     inkscape:showpageshadow="2"
     inkscape:pageopacity="0"
     inkscape:pagecheckerboard="0"
     inkscape:deskcolor="#d1d1d1"
     inkscape:document-units="px"
     showgrid="false"
     inkscape:zoom="11"
     inkscape:cx="17.409091"
     inkscape:cy="24"
     inkscape:window-width="1366"
     inkscape:window-height="737"
     inkscape:window-x="0"
     inkscape:window-y="0"
     inkscape:window-maximized="1"
     inkscape:current-layer="svg990" /><defs
     id="defs987"><style
   id="style1174">.a{fill:none;stroke:#fff;stroke-linecap:round;stroke-linejoin:round;}</style>
		
		
	
		
		
	
		
		
	</defs><path
     class="st5"
     d="m 22.072431,7.8825166 v 4.8178064 c 0,1.605936 1.313947,2.919882 2.919883,2.919882 v 0 c 1.605935,0 2.919882,-1.313946 2.919882,-2.919882 V 7.8825166"
     id="path9224"
     style="display:inline;fill:none;stroke:#ffffff;stroke-width:1;stroke-linecap:round;stroke-linejoin:round;stroke-miterlimit:10;stroke-dasharray:none;stroke-opacity:1" /><line
     class="st5"
     x1="27.912195"
     y1="12.846319"
     x2="27.912195"
     y2="15.766195"
     id="line9226"
     style="fill:none;stroke:#ffffff;stroke-width:1;stroke-linecap:round;stroke-linejoin:round;stroke-miterlimit:10;stroke-dasharray:none;stroke-opacity:1" /><path
     class="st5"
     d="m 16.520856,10.802399 c 0,-1.6059351 1.313947,-2.9198824 2.919883,-2.9198824 v 0"
     id="path9250"
     style="fill:none;stroke:#ffffff;stroke-width:1;stroke-linecap:round;stroke-linejoin:round;stroke-miterlimit:10;stroke-dasharray:none;stroke-opacity:1" /><line
     class="st5"
     x1="16.520855"
     y1="7.8825154"
     x2="16.520855"
     y2="15.766195"
     id="line9252"
     style="fill:none;stroke:#ffffff;stroke-width:1;stroke-linecap:round;stroke-linejoin:round;stroke-miterlimit:10;stroke-dasharray:none;stroke-opacity:1" /><path
     class="st5"
     d="m 11.99125,5.5466066 v 8.7596484 c 0,0.875965 0.583977,1.45994 1.459942,1.45994 h 0.437983"
     id="path9358"
     style="fill:none;stroke:#ffffff;stroke-width:1;stroke-linecap:round;stroke-linejoin:round;stroke-miterlimit:10;stroke-dasharray:none;stroke-opacity:1" /><line
     class="st5"
     x1="10.385306"
     y1="7.8825116"
     x2="13.597195"
     y2="7.8825116"
     id="line9360"
     style="fill:none;stroke:#ffffff;stroke-width:1;stroke-linecap:round;stroke-linejoin:round;stroke-miterlimit:10;stroke-dasharray:none;stroke-opacity:1" /><path
     class="st5"
     d="m 35.945655,14.306254 c -0.437982,0.875965 -1.45994,1.459941 -2.4819,1.459941 v 0 c -1.605936,0 -2.919882,-1.313947 -2.919882,-2.919882 v -1.897924 c 0,-1.6059353 1.313946,-2.9198825 2.919882,-2.9198825 v 0 c 1.605935,0 2.919883,1.3139472 2.919883,2.9198825 v 1.021959 h -5.839765"
     id="path9460"
     style="fill:none;stroke:#ffffff;stroke-width:1;stroke-linecap:round;stroke-linejoin:round;stroke-miterlimit:10;stroke-dasharray:none;stroke-opacity:1" /><path
     id="path13380"
     style="fill:none;fill-opacity:0.941176;stroke:#ffffff;stroke-width:1;stroke-linecap:round;stroke-linejoin:round;stroke-opacity:1;stop-color:#000000;stroke-dasharray:none"
     d="m 13.312576,42.451917 c 2.040229,0 3.682723,-1.6395 3.682723,-3.679729 v -4.594137 c 0,-1.587224 -1.011724,-2.888406 -2.396157,-3.453424 -0.9258,-0.37784 -0.79048,-2.380609 -0.04401,-2.778324 1.462346,-0.779125 2.445688,-2.332169 2.445688,-4.10555 0,-2.577572 -2.089535,-4.66463 -4.592291,-4.66463 -2.502756,0 -4.592291,2.087058 -4.592291,4.66463 0,1.773381 0.9833412,3.326425 2.445688,4.10555 0.746473,0.397715 0.881794,2.400484 -0.04401,2.778324 -1.3844332,0.565018 -2.3961579,1.8662 -2.3961579,3.453424 v 4.594137 c 0,2.040229 1.6424946,3.679729 3.6827229,3.679729 z"
     sodipodi:nodetypes="cssssscssssscc" /><path
     style="fill:none;fill-opacity:0.941176;stroke:#ffffff;stroke-width:1;stroke-linecap:round;stroke-linejoin:round;stroke-dasharray:none;stroke-opacity:1;stop-color:#000000"
     d="M 29.701947,42.453393 H 19.281332 v -8.354927 c 0,-2.04737 3.624683,-2.988623 4.736863,-1.288065 0.353427,0.540399 0.409486,0.862886 0.721937,1.258587 0.968873,1.227024 2.46313,2.029765 4.154058,2.029765 2.896581,0 5.244724,-2.33339 5.244724,-5.284733 0,-2.951342 -2.348143,-5.284732 -5.244724,-5.284732 -1.690928,0 -3.185185,0.80274 -4.154058,2.029765 -0.312451,0.395701 -0.36851,0.718188 -0.721937,1.258587 -1.11218,1.700557 -4.736863,0.759304 -4.736863,-1.288066 v -8.354927 h 10.420615 c 5.788944,0 10.481811,5.178331 10.481811,11.639373 0,6.461043 -4.692867,11.639373 -10.481811,11.639373 z"
     id="path13517"
     sodipodi:nodetypes="ccsssscsssscccc" /></svg>
