<?xml version="1.0" encoding="UTF-8" standalone="no"?>
<!-- Created with Inkscape (http://www.inkscape.org/) -->

<svg
   width="48"
   height="48"
   viewBox="0 0 48 48"
   version="1.1"
   id="svg990"
   inkscape:version="1.2.1 (9c6d41e, 2022-07-14)"
   xml:space="preserve"
   sodipodi:docname="viabus.svg"
   xmlns:inkscape="http://www.inkscape.org/namespaces/inkscape"
   xmlns:sodipodi="http://sodipodi.sourceforge.net/DTD/sodipodi-0.dtd"
   xmlns="http://www.w3.org/2000/svg"
   xmlns:svg="http://www.w3.org/2000/svg"><sodipodi:namedview
     id="namedview992"
     pagecolor="#858585"
     bordercolor="#000000"
     borderopacity="0.25"
     inkscape:showpageshadow="2"
     inkscape:pageopacity="0"
     inkscape:pagecheckerboard="0"
     inkscape:deskcolor="#d1d1d1"
     inkscape:document-units="px"
     showgrid="false"
     inkscape:zoom="5.6568542"
     inkscape:cx="12.28598"
     inkscape:cy="35.885669"
     inkscape:window-width="1366"
     inkscape:window-height="737"
     inkscape:window-x="0"
     inkscape:window-y="0"
     inkscape:window-maximized="1"
     inkscape:current-layer="layer2" /><defs
     id="defs987"><style
       id="style1174">.a{fill:none;stroke:#fff;stroke-linecap:round;stroke-linejoin:round;}</style></defs><g
     inkscape:groupmode="layer"
     id="layer2"
     inkscape:label="Layer 2"
     transform="translate(-0.13963597,0.0125859)"><path
       style="fill:none;fill-opacity:0.941176;stroke:#ffffff;stroke-width:1;stroke-linecap:round;stroke-linejoin:round;stroke-dasharray:none;stroke-opacity:1;stop-color:#000000"
       d="m 6.8190003,16.320579 v 5.51633 l 24.4577457,9.021298 -0.464908,-5.918976 z"
       id="path1339" /><path
       style="fill:none;fill-opacity:0.941176;stroke:#ffffff;stroke-width:1;stroke-linecap:round;stroke-linejoin:round;stroke-dasharray:none;stroke-opacity:1;stop-color:#000000"
       d="m 32.946339,25.293298 0.408526,5.469529 8.22794,-3.141699 -0.335231,-5.459666 z"
       id="path1341" /><ellipse
       style="fill:none;fill-opacity:0.941176;stroke:#ffffff;stroke-width:1;stroke-linecap:round;stroke-linejoin:round;stroke-dasharray:none;stroke-opacity:1;stop-color:#000000"
       id="path1837"
       ry="1.210964"
       rx="0.95338291"
       cy="22.425295"
       cx="42.177719"
       transform="rotate(16.47995)" /><ellipse
       style="fill:none;fill-opacity:0.941176;stroke:#ffffff;stroke-width:1;stroke-linecap:round;stroke-linejoin:round;stroke-dasharray:none;stroke-opacity:1;stop-color:#000000"
       id="path1837-1"
       ry="1.210964"
       rx="0.95338291"
       cy="17.804701"
       cx="48.240765"
       transform="rotate(16.47995)" /><path
       id="path1677"
       style="display:inline;fill:none;fill-opacity:0.941176;stroke:#ffffff;stroke-width:1;stroke-linecap:round;stroke-linejoin:round;stroke-dasharray:none;stroke-opacity:1;stop-color:#000000"
       d="M 8.5492575,28.12937 C 8.5114652,27.292533 8.7422123,26.535851 9.1627788,26.043157 8.0530865,24.872928 6.8072706,26.418218 6.8549025,27.524507 L 4.639249,26.711034 v 0 -11.745411 l 12.263726,-4.521884 23.747586,8.621901 c 3.512763,1.275358 2.569915,3.636883 2.989463,13.70532 l -11.068647,4.081233 -2.644489,-0.96012" /><path
       id="path1675"
       style="display:inline;fill:none;fill-opacity:0.941176;stroke:#ffffff;stroke-width:1;stroke-linecap:round;stroke-linejoin:round;stroke-dasharray:none;stroke-opacity:1;stop-color:#000000"
       d="m 12.697298,29.636132 c -0.204469,0.836359 -0.71397,1.465335 -1.411771,1.614334 -1.123316,0.239857 -2.3092362,-0.854944 -2.6488185,-2.445298 -0.048811,-0.228596 -0.07748,-0.454988 -0.08745,-0.675798" /><path
       id="path1471"
       style="display:inline;fill:none;fill-opacity:0.941176;stroke:#ffffff;stroke-width:1;stroke-linecap:round;stroke-linejoin:round;stroke-dasharray:none;stroke-opacity:1;stop-color:#000000"
       d="M 24.091318,33.773384 12.695085,29.63582"
       sodipodi:nodetypes="cc" /><path
       id="path1651-3-6"
       style="display:inline;fill:none;fill-opacity:0.941176;stroke:#ffffff;stroke-width:1;stroke-linecap:round;stroke-linejoin:round;stroke-dasharray:none;stroke-opacity:1;stop-color:#000000"
       d="m 29.933811,35.884227 c -0.204469,0.836359 -0.71397,1.465333 -1.411771,1.614332 -1.123317,0.239858 -2.309235,-0.85494 -2.648818,-2.445297 -0.04881,-0.228595 -0.07748,-0.454987 -0.08745,-0.675798 m 0,0 c -0.03779,-0.836838 0.192955,-1.593519 0.613522,-2.086213 -1.109693,-1.170229 -2.355508,0.375059 -2.307876,1.48135 m 5.842397,2.111626 c -0.204469,0.836359 -0.71397,1.465333 -1.411771,1.614332 -1.123317,0.239858 -2.309235,-0.85494 -2.648818,-2.445297 -0.04881,-0.228595 -0.07748,-0.454987 -0.08745,-0.675798 m 0,0 c -0.03779,-0.836838 0.192955,-1.593519 0.613522,-2.086213"
       sodipodi:nodetypes="csscccccssccc" /></g></svg>
