<?xml version="1.0" encoding="UTF-8" standalone="no"?>
<!-- Created with Inkscape (http://www.inkscape.org/) -->

<svg
   width="48"
   height="48"
   viewBox="0 0 48 48"
   version="1.1"
   id="svg990"
   inkscape:version="1.2.1 (9c6d41e, 2022-07-14)"
   xml:space="preserve"
   sodipodi:docname="we_mahidol.svg"
   xmlns:inkscape="http://www.inkscape.org/namespaces/inkscape"
   xmlns:sodipodi="http://sodipodi.sourceforge.net/DTD/sodipodi-0.dtd"
   xmlns="http://www.w3.org/2000/svg"
   xmlns:svg="http://www.w3.org/2000/svg"><sodipodi:namedview
     id="namedview992"
     pagecolor="#858585"
     bordercolor="#000000"
     borderopacity="0.25"
     inkscape:showpageshadow="2"
     inkscape:pageopacity="0"
     inkscape:pagecheckerboard="0"
     inkscape:deskcolor="#d1d1d1"
     inkscape:document-units="px"
     showgrid="false"
     inkscape:zoom="11.965736"
     inkscape:cx="16.589034"
     inkscape:cy="23.149433"
     inkscape:window-width="1366"
     inkscape:window-height="737"
     inkscape:window-x="0"
     inkscape:window-y="0"
     inkscape:window-maximized="1"
     inkscape:current-layer="layer2" /><defs
     id="defs987"><style
       id="style1174">.a{fill:none;stroke:#fff;stroke-linecap:round;stroke-linejoin:round;}</style><clipPath
       clipPathUnits="userSpaceOnUse"
       id="clipPath2432"><path
         d="m 92.8877,143.186 h 13.6143 v -2.815 H 92.8877 Z"
         id="path2430" /></clipPath></defs><g
     inkscape:groupmode="layer"
     id="layer2"
     inkscape:label="Layer 2"
     style="display:inline"
     transform="translate(0,0.93311236)"><path
       style="display:inline;fill:none;fill-opacity:0.941176;stroke:#ffffff;stroke-width:1;stroke-linecap:round;stroke-linejoin:round;stroke-dasharray:none;stroke-opacity:1;stop-color:#000000"
       d="m 26.893423,39.093873 c 0.526711,-0.366677 2.536309,-1.86823 1.451017,-2.976627 -0.690804,-0.70551 -1.149789,-2.164989 0.135125,-3.274499 0.893398,-0.77144 3.595815,-1.01666 4.403128,1.757196 0.740616,2.544691 -1.585624,7.601375 -5.261088,9.564734 -0.592309,0.277663 -1.393782,-1.468903 -2.391003,-2.591858 -2.373518,-2.67278 -4.74619,-5.824903 -7.549172,-3.637844 -0.786811,0.613919 -0.962525,2.338175 -0.194651,3.882169 0.916701,1.843245 3.186782,3.484265 4.519546,2.53828 0.699284,-0.496346 1.855428,-1.539779 2.058931,-5.214111 0.227705,-4.111317 -5.908213,-9.283635 -8.832761,-4.998921 -2.00177,2.932764 1.087437,6.640675 3.847675,4.99563 2.605952,-1.553095 -0.11109,-5.105613 -1.59859,-2.762706"
       id="path7331"
       sodipodi:nodetypes="cssscsssssssc" /><path
       id="path7665"
       style="fill:none;fill-opacity:1;stroke:#ffffff;stroke-width:1;stroke-linecap:round;stroke-linejoin:round;stroke-dasharray:none;stroke-opacity:1;stop-color:#000000"
       d="M 23.955158,3.4722468 23.17681,6.7504025 v 0 l -0.911019,0.7565559 -0.269607,2.3550267 -0.568678,2.7155559 c -1.29442,-0.181823 -1.914594,1.489641 -0.603226,1.604176 -0.0813,0.811209 -0.311978,1.314427 -0.929045,1.376905 l -0.528297,-0.509404 c -0.121712,0.891538 -0.261206,1.761728 -0.725942,2.241682 l -0.855503,-0.391766 c -0.08695,0.839415 0.04378,1.708332 -0.450059,1.951667 m 13.329132,0 c -0.49384,-0.243335 -0.363114,-1.112252 -0.450063,-1.951667 L 29.359001,17.2909 C 28.894266,16.810946 28.754767,15.940756 28.63306,15.049218 l -0.528297,0.509404 c -0.617066,-0.06249 -0.84742,-0.565696 -0.928725,-1.376905 1.31137,-0.114535 0.690873,-1.785999 -0.603545,-1.604176 L 26.003813,9.8619851 25.734207,7.5069584 24.823189,6.7504025 24.04484,3.4722468"
       sodipodi:nodetypes="ccccccccccccccccccccccc" /><path
       id="path7796"
       style="display:inline;fill:none;stroke:#ffffff;stroke-linecap:round;stroke-linejoin:round;stroke-opacity:1;stop-color:#000000"
       d="M 24.975012,2.4789011 A 0.97501159,0.97501159 0 0 1 24,3.4539127 0.97501159,0.97501159 0 0 1 23.024988,2.4789011 0.97501159,0.97501159 0 0 1 24,1.5038896 0.97501159,0.97501159 0 0 1 24.975012,2.4789011 Z" /><path
       style="fill:none;fill-opacity:1;stroke:#ffffff;stroke-width:1;stroke-linecap:round;stroke-linejoin:round;stroke-dasharray:none;stroke-opacity:1;stop-color:#000000"
       d="M 16.444424,23.294469 C 15.399259,22.0197 15.358679,20.6639 15.744064,18.945"
       id="path7950-6"
       sodipodi:nodetypes="cc" /><path
       style="fill:none;fill-opacity:1;stroke:#ffffff;stroke-width:1;stroke-linecap:round;stroke-linejoin:round;stroke-dasharray:none;stroke-opacity:1;stop-color:#000000"
       d="m 13.931398,33.219256 c -0.560757,-0.542179 -2.261215,-1.424043 -1.602442,-3.078003 -1.369809,-1.340393 -0.20965,-2.177516 -0.691447,-4.348289 0.906538,0.405588 1.813125,1.305838 2.086015,3.189727 1.535882,0.01665 1.712269,2.118379 0.150966,2.591799"
       id="path7896"
       sodipodi:nodetypes="ccccc" /><path
       style="fill:none;fill-opacity:1;stroke:#ffffff;stroke-width:1;stroke-linecap:round;stroke-linejoin:round;stroke-dasharray:none;stroke-opacity:1;stop-color:#000000"
       d="m 16.755,29.649368 c -2.177723,-3.240137 -3.098752,-5.107437 -2.421717,-7.317051 0.660832,3.003596 1.963106,1.85955 1.946083,3.77609"
       id="path7900"
       sodipodi:nodetypes="ccc" /><path
       style="fill:none;fill-opacity:1;stroke:#ffffff;stroke-width:1;stroke-linecap:round;stroke-linejoin:round;stroke-dasharray:none;stroke-opacity:1;stop-color:#000000"
       d="m 31.555575,23.294335 c 1.045166,-1.274769 1.085745,-2.630569 0.70036,-4.349469"
       id="path7950"
       sodipodi:nodetypes="cc" /><path
       style="fill:none;fill-opacity:1;stroke:#ffffff;stroke-width:1;stroke-linecap:round;stroke-linejoin:round;stroke-dasharray:none;stroke-opacity:1;stop-color:#000000"
       d="m 34.068602,33.218788 c 0.560757,-0.542179 2.261215,-1.424043 1.602443,-3.078003 1.369808,-1.340393 0.20965,-2.177516 0.691446,-4.348289 -0.906538,0.405588 -1.813125,1.305838 -2.086014,3.189727 -1.535883,0.01665 -1.71227,2.118379 -0.150967,2.591799"
       id="path7896-3"
       sodipodi:nodetypes="ccccc" /><path
       style="fill:none;fill-opacity:1;stroke:#ffffff;stroke-width:1;stroke-linecap:round;stroke-linejoin:round;stroke-dasharray:none;stroke-opacity:1;stop-color:#000000"
       d="m 31.245,29.648905 c 2.177723,-3.240137 3.098752,-5.107437 2.421717,-7.317051 -0.660832,3.003596 -1.963106,1.85955 -1.946083,3.77609"
       id="path7900-6"
       sodipodi:nodetypes="ccc" /><path
       id="path8165"
       style="display:inline;fill:none;stroke:#ffffff;stroke-width:1;stroke-linecap:round;stroke-linejoin:round;stroke-dasharray:none;stroke-opacity:1;stop-color:#000000"
       d="m 27.823773,29.196888 c -0.53608,1.40323 -2.041301,1.924329 -3.813781,1.924329 -1.794539,0 -3.316533,-0.490094 -3.833766,-1.923917"
       sodipodi:nodetypes="csc" /><path
       id="path8315-9"
       style="display:inline;fill:none;fill-opacity:1;stroke:#ffffff;stroke-width:1;stroke-linecap:round;stroke-linejoin:round;stroke-dasharray:none;stroke-opacity:1;stop-color:#000000"
       d="m 23.997567,15.59905 c -0.331144,0.800165 -0.892087,2.527772 -0.892087,2.527772 -0.189146,0.838467 -0.168535,2.293852 -0.168535,2.293852 0.03358,0.491414 0.226055,4.203774 0.226055,4.203774 0.07737,0.815199 0.04994,1.544468 -0.75991,1.544552 -0.614692,-0.141304 -0.878585,-0.600625 -0.822398,-1.544366 -0.197818,-1.775674 -0.06089,-3.689327 -0.111366,-5.371131 0,0 -0.466111,-1.435244 -0.943296,-2.099997 -0.477181,0.664753 -0.943296,2.099997 -0.943296,2.099997 -0.157176,0.696572 0.02643,1.90566 0.02643,1.90566 0.09734,1.989242 0.229576,3.975916 0.367816,5.962604 0.08079,0.172192 0.176939,0.303352 0.285528,0.373056 0.298334,0.191505 1.114639,0.183461 1.928266,0.670423 C 22.727746,28.977294 23.320628,29.3476 24,29.3476 c 0.651091,0 1.222744,-0.340116 1.788564,-1.148251 0.834017,-0.52057 1.650595,-0.512527 1.94893,-0.704032 0.108587,-0.0697 0.204728,-0.200864 0.285526,-0.373056 0.156896,-1.985417 0.253296,-3.97456 0.367812,-5.962604 0,0 0.183605,-1.209088 0.02643,-1.90566 0,0 -0.466111,-1.435244 -0.943297,-2.100244 -0.477182,0.664506 -0.943297,2.09975 -0.943297,2.09975 -0.05047,1.681803 0.08646,3.595457 -0.111353,5.371131 0.05619,0.943741 -0.207705,1.403062 -0.822397,1.544366 -0.809863,-8.4e-5 -0.837313,-0.729353 -0.759913,-1.544552 0,0 -0.0079,-3.71236 0.0257,-4.203774 0,0 0.220959,-1.455385 0.03181,-2.293852 0,0 -0.560939,-1.727607 -0.892085,-2.527772"
       sodipodi:nodetypes="cccccccccccscscsccccccccccc" /><path
       id="path8634"
       style="display:inline;fill:none;fill-opacity:1;stroke:#ffffff;stroke-width:1;stroke-linecap:round;stroke-linejoin:round;stroke-dasharray:none;stroke-opacity:1;stop-color:#000000"
       d="m 22.8779,31.377509 c 0.017,1.253771 0.194534,1.87195 1.122132,2.590965 0.966266,-1.019661 1.13207,-1.417315 1.122131,-2.590966"
       sodipodi:nodetypes="ccc" /></g></svg>
