<?xml version="1.0" encoding="UTF-8" standalone="no"?>
<svg
   viewBox="0 0 48 48"
   version="1.1"
   id="svg1"
   sodipodi:docname="aruba_pec.svg"
   inkscape:version="1.3.2 (091e20ef0f, 2023-11-25)"
   xml:space="preserve"
   xmlns:inkscape="http://www.inkscape.org/namespaces/inkscape"
   xmlns:sodipodi="http://sodipodi.sourceforge.net/DTD/sodipodi-0.dtd"
   xmlns="http://www.w3.org/2000/svg"
   xmlns:svg="http://www.w3.org/2000/svg"><sodipodi:namedview
     id="namedview1"
     pagecolor="#505050"
     bordercolor="#eeeeee"
     borderopacity="1"
     inkscape:showpageshadow="0"
     inkscape:pageopacity="0"
     inkscape:pagecheckerboard="0"
     inkscape:deskcolor="#505050"
     inkscape:zoom="17.8125"
     inkscape:cx="20.912281"
     inkscape:cy="17.880702"
     inkscape:window-width="1918"
     inkscape:window-height="1053"
     inkscape:window-x="0"
     inkscape:window-y="0"
     inkscape:window-maximized="1"
     inkscape:current-layer="svg1" /><defs
     id="defs1"><style
       id="style1">.a { fill:none;stroke:#fff;stroke-linecap:round;stroke-linejoin:round; }
</style></defs><path
     style="fill:none;stroke:#ffffff;stroke-width:1;stroke-linecap:round;stroke-linejoin:round;stroke-opacity:1"
     d="m 5.6264028,11.010014 9.8460212,9.855528"
     id="path6" /><path
     style="fill:none;stroke:#ffffff;stroke-width:1;stroke-linecap:round;stroke-linejoin:round;stroke-opacity:1"
     d="m 42.373597,11.010014 -9.845323,9.854831"
     id="path5" /><path
     style="fill:none;stroke:#ffffff;stroke-width:1;stroke-linecap:round;stroke-linejoin:round;stroke-opacity:1"
     d="m 4.4999994,13.740491 v 20.519018 c 0,2.137312 1.7189957,3.857968 3.8542462,3.857968 H 39.645755 c 2.13525,0 3.854246,-1.720656 3.854246,-3.857968 V 13.740491 c 0,-2.135017 -1.721327,-3.857968 -3.854246,-3.857968 H 8.3542456 c -2.1329431,0 -3.8542462,1.722974 -3.8542462,3.857968 z"
     id="path3"
     sodipodi:nodetypes="sssssssss" /><path
     style="fill:none;stroke:#ffffff;stroke-width:1;stroke-linecap:round;stroke-linejoin:round;stroke-opacity:1"
     d="m 29.747953,30.203599 c -0.851299,0.852121 -1.991521,0.175048 -3.103797,0.636214 -1.112277,0.461165 -1.440234,1.746965 -2.644153,1.746965 -1.20392,0 -1.531877,-1.2858 -2.644154,-1.746965 -1.112276,-0.461166 -2.252498,0.215907 -3.103799,-0.636214 -0.851299,-0.852123 -0.174879,-1.993444 -0.635599,-3.106795 -0.46072,-1.11335 -1.74528,-1.441626 -1.74528,-2.646707 0,-1.205082 1.28456,-1.533356 1.74528,-2.646706 0.46072,-1.113352 -0.2157,-2.254674 0.635599,-3.106796 0.851301,-0.852121 1.991521,-0.175049 3.103799,-0.636213 1.112276,-0.461166 1.440234,-1.746965 2.644154,-1.746965 1.203919,0 1.531876,1.285799 2.644152,1.746964 1.112277,0.461165 2.252499,-0.215907 3.103798,0.636214 0.851299,0.852122 0.174882,1.993444 0.635602,3.106794 0.46072,1.113352 1.745278,1.441626 1.745278,2.646708 0,1.205081 -1.284558,1.533356 -1.745278,2.646707 -0.46072,1.11335 0.215699,2.254672 -0.635602,3.106795 z"
     id="path2" /><path
     style="fill:none;stroke:#ffffff;stroke-width:1;stroke-linecap:round;stroke-linejoin:round;stroke-opacity:1"
     d="m 25.53079,22.653631 c 0,0 -0.211726,2.235878 -0.266858,3.050073 -0.03678,0.542858 0.550116,0.865825 1.047972,0.865825 1.132568,0 1.77247,-0.999915 1.844002,-2.390862 0.146587,-2.847081 -1.596604,-4.185841 -3.966074,-4.185841 -2.281631,0 -4.117294,1.775201 -4.334301,4.185841 -0.181426,2.015801 0.909261,4.728701 3.800957,4.728701 1.033794,0 1.886533,-0.132884 2.538944,-0.576195"
     id="path1" /><path
     style="fill:none;stroke:#ffffff;stroke-width:1;stroke-linecap:round;stroke-linejoin:round;stroke-opacity:1"
     d="m 25.328415,24.889602 c -0.06551,0.748822 -0.71894,1.35696 -1.467623,1.35696 v 0 c -0.748776,0 -1.302597,-0.607025 -1.237087,-1.355845 l 0.0771,-0.881241 c 0.06551,-0.74882 0.725611,-1.355845 1.474386,-1.355845 v 0 c 0.748777,0 1.29676,0.600617 1.231251,1.349439"
     id="path460" /></svg>
