<?xml version="1.0" encoding="UTF-8" standalone="no"?>
<svg
   viewBox="0 0 48 48"
   version="1.1"
   id="svg1"
   sodipodi:docname="bowmasters.svg"
   inkscape:version="1.3.2 (091e20ef0f, 2023-11-25)"
   xml:space="preserve"
   xmlns:inkscape="http://www.inkscape.org/namespaces/inkscape"
   xmlns:sodipodi="http://sodipodi.sourceforge.net/DTD/sodipodi-0.dtd"
   xmlns="http://www.w3.org/2000/svg"
   xmlns:svg="http://www.w3.org/2000/svg"><sodipodi:namedview
     id="namedview1"
     pagecolor="#505050"
     bordercolor="#eeeeee"
     borderopacity="1"
     inkscape:showpageshadow="0"
     inkscape:pageopacity="0"
     inkscape:pagecheckerboard="0"
     inkscape:deskcolor="#505050"
     inkscape:zoom="8.90625"
     inkscape:cx="33.403509"
     inkscape:cy="33.515789"
     inkscape:window-width="1918"
     inkscape:window-height="1053"
     inkscape:window-x="0"
     inkscape:window-y="0"
     inkscape:window-maximized="1"
     inkscape:current-layer="svg1" /><defs
     id="defs1"><style
       id="style1">.a { fill:none;stroke:#fff;stroke-linecap:round;stroke-linejoin:round; }
</style></defs><path
     style="fill:none;fill-opacity:0;stroke:#ffffff;stroke-width:1;stroke-linecap:round;stroke-linejoin:round;stroke-dasharray:none;stroke-opacity:1"
     d="M 32.558421,14.008734 C 27.709991,8.581335 19.731768,7.8081642 14.179615,12.233571 v 0 C 13.208736,13.007405 11.961411,13.268935 10.65034,13.116342 9.3392649,12.963744 7.9385967,12.318758 6.8889586,11.06314 6.3588948,10.428864 6.4437853,9.4848941 7.0785024,8.9553585 7.7122007,8.4257551 8.6552002,8.5099143 9.1850913,9.1433709 9.7295674,9.7946907 10.378445,10.07177 10.996779,10.143737 11.615112,10.215707 12.17594,10.00484 12.314918,9.8940605 19.155303,4.4418369 28.857769,5.182825 34.915056,12.155456"
     id="path11" /><path
     style="fill:none;fill-opacity:0;stroke:#ffffff;stroke-width:1;stroke-linecap:round;stroke-linejoin:round;stroke-dasharray:none;stroke-opacity:1"
     d="m 36.045098,13.590412 c 5.358264,7.523113 3.803937,17.128828 -3.100038,22.500303 -0.140243,0.109169 -0.476742,0.604892 -0.551743,1.222861 -0.075,0.617969 0.04223,1.313717 0.547757,1.995712 0.491579,0.663628 0.352312,1.600072 -0.3111,2.091945 -0.663588,0.492875 -1.601154,0.354096 -2.093486,-0.309893 -0.974553,-1.314747 -1.273191,-2.827583 -1.114163,-4.137881 0.159029,-1.310297 0.705697,-2.461538 1.685584,-3.223934 5.603755,-4.359879 6.722557,-12.296969 2.583059,-18.282655"
     id="path10" /><path
     style="fill:none;fill-opacity:0;stroke:#ffffff;stroke-width:1;stroke-linecap:round;stroke-linejoin:round;stroke-dasharray:none;stroke-opacity:1"
     d="M 37.230385,7.5169487 43.50003,6.5572139 41.097169,12.427085 Z"
     id="path9" /><path
     style="fill:none;fill-opacity:0;stroke:#ffffff;stroke-width:1;stroke-linecap:round;stroke-linejoin:round;stroke-dasharray:none;stroke-opacity:1"
     d="M 39.677465,10.729912 8.9261779,34.94658 7.7961411,33.511633 38.547428,9.294963"
     id="path8" /><path
     style="fill:none;fill-opacity:0;stroke:#ffffff;stroke-width:1;stroke-linecap:round;stroke-linejoin:round;stroke-dasharray:none;stroke-opacity:1"
     d="m 7.8021624,33.410109 -3.3022207,-0.884715 5.8497853,-4.606712 3.302221,0.884715"
     id="path7" /><path
     style="fill:none;fill-opacity:0;stroke:#ffffff;stroke-width:1;stroke-linecap:round;stroke-linejoin:round;stroke-dasharray:none;stroke-opacity:1"
     d="m 9.0262849,34.964532 0.085884,3.417582 5.8497851,-4.606712 -0.08588,-3.417582"
     id="path6" /><path
     style="fill:none;fill-opacity:0;stroke:#ffffff;stroke-width:1;stroke-linecap:round;stroke-linejoin:round;stroke-dasharray:none;stroke-opacity:1"
     d="m 32.739931,37.050478 c -1.142842,-0.07375 -2.227743,-0.193145 -3.664689,-0.03529"
     id="path5" /><path
     style="fill:none;fill-opacity:0;stroke:#ffffff;stroke-width:1;stroke-linecap:round;stroke-linejoin:round;stroke-dasharray:none;stroke-opacity:1"
     d="m 32.892663,38.163586 c -1.290397,0.0032 -2.623061,-0.101297 -3.806124,0.175257"
     id="path4" /><path
     style="fill:none;fill-opacity:0;stroke:#ffffff;stroke-width:1;stroke-linecap:round;stroke-linejoin:round;stroke-dasharray:none;stroke-opacity:1"
     d="M 29.29821,37.566167 13.052067,35.281586"
     id="path3" /><path
     style="fill:none;fill-opacity:0;stroke:#ffffff;stroke-width:1;stroke-linecap:round;stroke-linejoin:round;stroke-dasharray:none;stroke-opacity:1"
     d="m 11.333807,9.8684659 c -0.19623,1.1282771 -0.334515,2.2109251 -0.824846,3.5708071"
     id="path2" /><path
     style="fill:none;fill-opacity:0;stroke:#ffffff;stroke-width:1;stroke-linecap:round;stroke-linejoin:round;stroke-dasharray:none;stroke-opacity:1"
     d="M 10.287521,9.4590322 C 9.9819146,10.712717 9.7710397,12.032721 9.224832,13.117971"
     id="path1" /><path
     style="fill:none;fill-opacity:0;stroke:#ffffff;stroke-width:1;stroke-linecap:round;stroke-linejoin:round;stroke-dasharray:none;stroke-opacity:1"
     d="M 10.025604,13.093347 8.4377503,29.422216"
     id="path21" /></svg>
