<?xml version="1.0" encoding="UTF-8" standalone="no"?>
<svg
   id="b"
   viewBox="0 0 48 48"
   version="1.1"
   sodipodi:docname="claro_drive.svg"
   inkscape:version="1.3.2 (091e20ef0f, 2023-11-25)"
   xmlns:inkscape="http://www.inkscape.org/namespaces/inkscape"
   xmlns:sodipodi="http://sodipodi.sourceforge.net/DTD/sodipodi-0.dtd"
   xmlns="http://www.w3.org/2000/svg"
   xmlns:svg="http://www.w3.org/2000/svg">
  <sodipodi:namedview
     id="namedview9"
     pagecolor="#505050"
     bordercolor="#eeeeee"
     borderopacity="1"
     inkscape:showpageshadow="0"
     inkscape:pageopacity="0"
     inkscape:pagecheckerboard="0"
     inkscape:deskcolor="#505050"
     inkscape:zoom="12.91943"
     inkscape:cx="49.344281"
     inkscape:cy="36.805029"
     inkscape:window-width="1918"
     inkscape:window-height="1053"
     inkscape:window-x="0"
     inkscape:window-y="0"
     inkscape:window-maximized="0"
     inkscape:current-layer="b" />
  <defs
     id="defs1">
    <style
       id="style1">.c{fill:none;stroke:#fff;stroke-linecap:round;stroke-linejoin:round;}.d{fill:#fff;stroke-width:0px;}</style>
  </defs>
  <path
     style="display:inline;fill:none;stroke:#ffffff;stroke-width:1;stroke-linecap:round;stroke-linejoin:round;stroke-opacity:1"
     d="m 9.5,42.5 h 29 c 2.2091,0 4,-1.7909 4,-4 v -29 c 0,-2.2091 -1.7909,-4 -4,-4 h -29 c -2.2091,0 -4,1.7909 -4,4 v 29 c 0,2.2091 1.7909,4 4,4 z"
     id="path18" />
  <path
     style="display:inline;fill:none;stroke:#ffffff;stroke-width:1;stroke-linecap:round;stroke-linejoin:round;stroke-opacity:1"
     d="m 30.733299,24.048599 c 1.164065,0 2.1012,0.937135 2.1012,2.1012 v 1.3658 c 0,1.164065 -0.937135,2.1012 -2.1012,2.1012 -1.164065,0 -2.1012,-0.937135 -2.1012,-2.1012 v -1.3658 c 0,-1.164065 0.937135,-2.1012 2.1012,-2.1012 z"
     id="path17" />
  <path
     style="display:inline;fill:none;stroke:#ffffff;stroke-width:1;stroke-linecap:round;stroke-linejoin:round;stroke-opacity:1"
     d="m 25.1418,26.1498 c 0,-1.1605 0.9407,-2.1012 2.1012,-2.1012 v 0"
     id="path16" />
  <path
     style="display:inline;fill:none;stroke:#ffffff;stroke-width:1;stroke-linecap:round;stroke-linejoin:round;stroke-opacity:1"
     d="M 25.1418,24.048599 V 29.6168"
     id="path15" />
  <path
     style="display:inline;fill:none;stroke:#ffffff;stroke-width:1;stroke-linecap:round;stroke-linejoin:round;stroke-opacity:1"
     d="m 17.044701,21.212 v 8.4048"
     id="path14" />
  <path
     style="display:inline;fill:none;stroke:#ffffff;stroke-width:1;stroke-linecap:round;stroke-linejoin:round;stroke-opacity:1"
     d="m 23.1525,27.5156 c 0,1.1605 -0.9407,2.1012 -2.1012,2.1012 v 0 c -1.1605,0 -2.1012,-0.9407 -2.1012,-2.1012 v -1.3658 c 0,-1.1605 0.9407,-2.1012 2.1012,-2.1012 v 0 c 1.1605,0 2.1012,0.9407 2.1012,2.1012"
     id="path13" />
  <path
     style="display:inline;fill:none;stroke:#ffffff;stroke-width:1;stroke-linecap:round;stroke-linejoin:round;stroke-opacity:1"
     d="M 23.1525,29.6168 V 24.048599"
     id="path12" />
  <path
     style="display:inline;fill:none;stroke:#ffffff;stroke-width:1;stroke-linecap:round;stroke-linejoin:round;stroke-opacity:1"
     d="m 15.0682,26.7983 v 0.0344 c 0,1.5376 -1.2465,2.7841 -2.7841,2.7841 v 0 C 10.7465,29.6168 9.5,28.3703 9.5,26.8327 V 23.996 c 0,-1.5376 1.2465,-2.7841 2.7841,-2.7841 v 0 c 1.5376,0 2.7841,1.2465 2.7841,2.7841 v 0.0344"
     id="path11" />
  <path
     style="display:inline;fill:none;stroke:#ffffff;stroke-width:1;stroke-linecap:round;stroke-linejoin:round;stroke-opacity:1"
     d="M 30.733299,21.947399 V 18.3832"
     id="path10" />
  <path
     style="display:inline;fill:none;stroke:#ffffff;stroke-width:1;stroke-linecap:round;stroke-linejoin:round;stroke-opacity:1"
     d="M 33.900902,23.3237 37.0527,20.1719"
     id="path9" />
  <path
     style="display:inline;fill:none;stroke:#ffffff;stroke-width:1;stroke-linecap:round;stroke-linejoin:round;stroke-opacity:1"
     d="M 34.935799,26.832701 H 38.5"
     id="path8" />
  <path
     style="display:inline;fill:none;stroke:#ffffff;stroke-width:1;stroke-linecap:round;stroke-linejoin:round;stroke-opacity:1"
     d="m 25.133075,36.651118 c 0,-0.8718 0.657266,-1.578489 1.468094,-1.578489 v 0"
     id="path7" />
  <path
     style="display:inline;fill:none;stroke:#ffffff;stroke-width:1;stroke-linecap:round;stroke-linejoin:round;stroke-opacity:1"
     d="m 25.133075,35.072627 v 4.183"
     id="path6" />
  <path
     style="display:inline;fill:none;stroke:#ffffff;stroke-width:1;stroke-linecap:round;stroke-linejoin:round;stroke-opacity:1"
     d="m 33.632914,35.072173 -1.529102,4.18355 -1.5291,-4.18355"
     id="path5" />
  <path
     style="display:inline;fill:none;stroke:#ffffff;stroke-width:1;stroke-linecap:round;stroke-linejoin:round;stroke-opacity:1"
     d="m 37.849434,38.458937 c -0.263388,0.475898 -0.759735,0.79669 -1.328637,0.79669 v 0 c -0.844522,0 -1.5291,-0.706783 -1.5291,-1.578698 v -1.026154 c 0,-0.871915 0.684578,-1.578699 1.5291,-1.578699 v 0 c 0.844522,0 1.529102,0.706784 1.529102,1.578699 v 0.513077 c 0,0 -3.058202,0 -3.058202,0"
     id="path4" />
  <path
     style="display:inline;fill:none;stroke:#ffffff;stroke-width:1;stroke-linecap:round;stroke-linejoin:round;stroke-opacity:1"
     d="m 22.908029,36.650773 c 0,-0.871915 -0.684579,-1.578698 -1.529102,-1.578698 v 0 c -0.844522,0 -1.5291,0.706783 -1.5291,1.578698 v 1.026154 c 0,0.871915 0.684578,1.578699 1.5291,1.578699 v 0 c 0.844522,0 1.529102,-0.706784 1.529102,-1.578699"
     id="path3" />
  <path
     style="display:inline;fill:none;stroke:#ffffff;stroke-width:1;stroke-linecap:round;stroke-linejoin:round;stroke-opacity:1"
     d="M 22.908029,39.255627 V 32.940834"
     id="path2" />
  <path
     style="display:inline;fill:none;stroke:#ffffff;stroke-width:1;stroke-linecap:round;stroke-linejoin:round;stroke-opacity:1"
     d="m 28.735614,35.072073 v 4.183554"
     id="path1" />
  <path
     style="display:inline;fill:none;stroke:#ffffff;stroke-width:1;stroke-linecap:round;stroke-linejoin:round;stroke-opacity:1"
     d="m 29.270799,33.138171 c 0,0.305162 -0.23961,0.552544 -0.535185,0.552544 -0.295575,0 -0.535185,-0.247382 -0.535185,-0.552544 0,-0.305162 0.23961,-0.552544 0.535185,-0.552544 0.295575,0 0.535185,0.247382 0.535185,0.552544 z"
     id="path1-7" />
</svg>
