<?xml version="1.0" encoding="UTF-8" standalone="no"?>
<svg
   viewBox="0 0 48 48"
   version="1.1"
   id="svg1"
   sodipodi:docname="codec_info.svg"
   inkscape:version="1.3.2 (091e20ef0f, 2023-11-25)"
   xml:space="preserve"
   xmlns:inkscape="http://www.inkscape.org/namespaces/inkscape"
   xmlns:sodipodi="http://sodipodi.sourceforge.net/DTD/sodipodi-0.dtd"
   xmlns="http://www.w3.org/2000/svg"
   xmlns:svg="http://www.w3.org/2000/svg"><sodipodi:namedview
     id="namedview1"
     pagecolor="#505050"
     bordercolor="#eeeeee"
     borderopacity="1"
     inkscape:showpageshadow="0"
     inkscape:pageopacity="0"
     inkscape:pagecheckerboard="0"
     inkscape:deskcolor="#505050"
     inkscape:zoom="12.59534"
     inkscape:cx="35.29083"
     inkscape:cy="20.682252"
     inkscape:window-width="1918"
     inkscape:window-height="1053"
     inkscape:window-x="0"
     inkscape:window-y="0"
     inkscape:window-maximized="1"
     inkscape:current-layer="svg1" /><defs
     id="defs1"><style
       id="style1">.a { fill:none;stroke:#fff;stroke-linecap:round;stroke-linejoin:round; }
</style></defs><path
     style="fill:none;fill-opacity:0.439204;stroke:#ffffff;stroke-width:1;stroke-linecap:round;stroke-linejoin:round;stroke-dasharray:none;stroke-opacity:1"
     d="m 11.663566,13.703626 h 4.036091 v 4.032516 h -4.036091 v -4.032516 0"
     id="path8" /><path
     style="fill:none;fill-opacity:0.439204;stroke:#ffffff;stroke-width:1;stroke-linecap:round;stroke-linejoin:round;stroke-dasharray:none;stroke-opacity:1"
     d="m 11.663566,21.90581 h 4.036091 v 4.032516 h -4.036091 v -4.032516 0"
     id="path7" /><path
     style="fill:none;fill-opacity:0.439204;stroke:#ffffff;stroke-width:1;stroke-linecap:round;stroke-linejoin:round;stroke-dasharray:none;stroke-opacity:1"
     d="m 11.663566,30.107996 h 4.036091 v 4.032517 h -4.036091 v -4.032517 0"
     id="path6" /><path
     style="fill:none;fill-opacity:0.439204;stroke:#ffffff;stroke-width:1;stroke-linecap:round;stroke-linejoin:round;stroke-dasharray:none;stroke-opacity:1"
     d="m 32.300342,13.703626 h 4.03609 v 4.032516 h -4.03609 v -4.032516 0"
     id="path5" /><path
     style="fill:none;fill-opacity:0.439204;stroke:#ffffff;stroke-width:1;stroke-linecap:round;stroke-linejoin:round;stroke-dasharray:none;stroke-opacity:1"
     d="m 32.300342,21.90581 h 4.03609 v 4.032516 h -4.03609 v -4.032516 0"
     id="path4" /><path
     style="fill:none;fill-opacity:0.439204;stroke:#ffffff;stroke-width:1;stroke-linecap:round;stroke-linejoin:round;stroke-dasharray:none;stroke-opacity:1"
     d="m 32.300342,30.107996 h 4.03609 v 4.032517 h -4.03609 v -4.032517 0"
     id="path3" /><path
     style="fill:none;fill-opacity:0.439204;stroke:#ffffff;stroke-width:1;stroke-linecap:round;stroke-linejoin:round;stroke-dasharray:none;stroke-opacity:1"
     d="m 36.336432,38.310181 h -4.03609 l 1.6e-5,4.189113 H 15.699643 l 1.4e-5,-4.189113 h -4.036091 l 2.48e-4,4.189113 L 7.4320025,42.5 v -36.9999998 0 l 4.2318115,8.041e-4 -2.48e-4,4.0331514 h 4.036091 l -1.6e-5,-4.0331515 h 16.600715 l -1.4e-5,4.0331515 h 4.03609 l -2.46e-4,-4.0331515 4.231812,-8.04e-4 V 42.5 l -4.231812,-7.06e-4 z"
     id="path2" /><path
     style="fill:none;fill-opacity:0.439204;stroke:#ffffff;stroke-width:1;stroke-linecap:round;stroke-linejoin:round;stroke-dasharray:none;stroke-opacity:1"
     d="m 30.712075,10.784162 a 3.0902822,3.0875449 0 0 1 -3.090282,3.087545 3.0902822,3.0875449 0 0 1 -3.090282,-3.087545 3.0902822,3.0875449 0 0 1 3.090282,-3.0875447 3.0902822,3.0875449 0 0 1 3.090282,3.0875447 z"
     id="path1" /><path
     style="fill:none;fill-opacity:0.439204;stroke:#ffffff;stroke-width:1;stroke-linecap:round;stroke-linejoin:round;stroke-dasharray:none;stroke-opacity:1"
     d="m 19.439795,37.310784 c -0.813295,5.2755 3.430943,3.008585 5.986624,1.441367 1.870146,-1.146827 2.955632,-1.940328 4.678152,-3.202035 l -0.934509,-1.138296 -2.79862,1.823216 c -1.895223,1.234681 -1.68508,-0.77868 -0.21028,-6.4143 l 2.332558,-8.913347 c 0.813295,-5.275501 -3.430942,-3.008586 -5.986623,-1.441368 -1.870146,1.146827 -3.467646,2.503044 -5.190166,3.764751 l 0.934509,1.138296 2.79862,-1.823216 c 1.895223,-1.234681 1.7496,0.798348 0.466287,6.132943 z"
     id="path29" /></svg>
