<?xml version="1.0" encoding="UTF-8" standalone="no"?>
<svg
   viewBox="0 0 48 48"
   version="1.1"
   id="svg1"
   sodipodi:docname="dragoncity.svg"
   inkscape:version="1.3.2 (091e20ef0f, 2023-11-25)"
   xml:space="preserve"
   xmlns:inkscape="http://www.inkscape.org/namespaces/inkscape"
   xmlns:sodipodi="http://sodipodi.sourceforge.net/DTD/sodipodi-0.dtd"
   xmlns="http://www.w3.org/2000/svg"
   xmlns:svg="http://www.w3.org/2000/svg"><sodipodi:namedview
     id="namedview1"
     pagecolor="#505050"
     bordercolor="#eeeeee"
     borderopacity="1"
     inkscape:showpageshadow="0"
     inkscape:pageopacity="0"
     inkscape:pagecheckerboard="0"
     inkscape:deskcolor="#505050"
     inkscape:zoom="12.59534"
     inkscape:cx="22.746508"
     inkscape:cy="20.364675"
     inkscape:window-width="1918"
     inkscape:window-height="1053"
     inkscape:window-x="0"
     inkscape:window-y="0"
     inkscape:window-maximized="1"
     inkscape:current-layer="svg1" /><defs
     id="defs1"><style
       id="style1">.a { fill:none;stroke:#fff;stroke-linecap:round;stroke-linejoin:round; }
</style></defs><path
     style="fill:none;fill-opacity:0;stroke:#ffffff;stroke-linecap:round;stroke-linejoin:round;stroke-opacity:1"
     d="m 39.359094,28.280704 c 1e-6,8.225319 -6.8765,14.893258 -15.359094,14.893258 -8.482594,0 -15.3590953,-6.667939 -15.3590947,-14.893258 0,-8.225319 6.8765007,-23.6230816 15.3590947,-23.6230816 8.482594,0 15.359094,15.3977626 15.359094,23.6230816 z"
     id="path4" /><path
     style="fill:none;fill-opacity:0;stroke:#ffffff;stroke-linecap:round;stroke-linejoin:round;stroke-opacity:1"
     d="m 19.564193,31.634225 c 0.10078,0.81843 3.079656,3.653341 6.755779,2.463347 0.197403,-2.583208 1.256113,-3.389769 2.346959,-4.411893 2.027647,-1.899909 0.599088,-4.308113 1.661756,-5.322064 -0.295858,-2.562092 -2.222064,0.598645 -2.812677,-0.455971 -0.276599,-0.493903 -0.125924,-1.602589 -1.378898,-0.794554 -0.776834,0.500975 -1.335358,-0.07992 -1.523163,-0.509716 -0.460524,-1.053906 2.815918,-1.231983 2.392346,-3.022542 -0.417963,-1.766851 -1.920375,-0.29071 -3.030918,-0.532611 -2.320302,-0.505414 0.03943,-3.381083 1.002734,-5.438572 -1.598205,1.321867 -2.8071,2.926273 -5.001101,3.76264 -1.966146,0.749507 -1.626424,3.018003 -1.056043,5.304267 -0.300281,0.736223 -1.05654,1.102118 -1.544793,1.553014 -0.339473,0.3135 -0.727201,0.904298 -0.386403,1.216812 1.165576,1.068841 1.058309,2.863979 2.541468,3.827302 2.670038,0.789747 6.286671,-1.063077 6.128504,-1.614343 -0.86375,-0.371749 -0.906259,-0.338634 -1.563139,-0.293089"
     id="path3" /><path
     style="fill:none;fill-opacity:0;stroke:#ffffff;stroke-linecap:round;stroke-linejoin:round;stroke-opacity:1"
     d="m 21.239504,39.85285 c 1.336947,0.02228 3.203828,-0.501367 3.826283,0.256975 0,0 3.472711,-1.080214 4.615737,-2.380314 0.453557,-0.515884 0.702203,-1.93741 0.702203,-1.93741 1.285526,-0.475771 2.087952,8.84e-4 2.969301,0.321943 0,0 1.051336,-1.913741 1.209045,-2.971353 0.09318,-0.624863 -0.171078,-1.88758 -0.171078,-1.88758 0.635758,-0.453236 1.042894,-0.177268 1.480975,0 l 1.123036,-3.4148"
     id="path2" /><path
     style="fill:none;fill-opacity:0;stroke:#ffffff;stroke-linecap:round;stroke-linejoin:round;stroke-opacity:1"
     d="m 12.084383,28.337842 c 0.927082,1.385183 1.92306,2.412037 3.384495,3.047621 -2.931886,-0.445596 -4.35502,-1.939357 -5.122481,-3.966321"
     id="path1" /><path
     style="fill:none;fill-opacity:0;stroke:#ffffff;stroke-linecap:round;stroke-linejoin:round;stroke-opacity:1"
     d="m 13.955999,21.702414 c -1.120693,-3.343607 0.815275,-6.027489 2.435043,-8.779617 0.655966,0.349718 1.331446,0.549386 3.485139,-1.694715 2.091113,-2.1788934 1.917218,-2.7546459 2.03482,-3.5934088 l 1.47995,-1.0424883 c -0.156272,1.3260601 0.554255,1.6270954 1.504646,1.1574673 0.824876,-0.4076058 1.65787,-0.5934659 2.535044,-0.6823233"
     id="path7" /></svg>
