<?xml version="1.0" encoding="UTF-8" standalone="no"?>
<svg
   viewBox="0 0 48 48"
   version="1.1"
   id="svg1"
   sodipodi:docname="frag.svg"
   inkscape:version="1.3.2 (091e20ef0f, 2023-11-25)"
   xml:space="preserve"
   xmlns:inkscape="http://www.inkscape.org/namespaces/inkscape"
   xmlns:sodipodi="http://sodipodi.sourceforge.net/DTD/sodipodi-0.dtd"
   xmlns="http://www.w3.org/2000/svg"
   xmlns:svg="http://www.w3.org/2000/svg"><sodipodi:namedview
     id="namedview1"
     pagecolor="#505050"
     bordercolor="#eeeeee"
     borderopacity="1"
     inkscape:showpageshadow="0"
     inkscape:pageopacity="0"
     inkscape:pagecheckerboard="0"
     inkscape:deskcolor="#505050"
     inkscape:zoom="4.453125"
     inkscape:cx="-37.614035"
     inkscape:cy="51.985965"
     inkscape:window-width="1918"
     inkscape:window-height="1053"
     inkscape:window-x="0"
     inkscape:window-y="0"
     inkscape:window-maximized="1"
     inkscape:current-layer="svg1" /><defs
     id="defs1"><style
       id="style1">.a { fill:none;stroke:#fff;stroke-linecap:round;stroke-linejoin:round; }
</style></defs><path
     style="fill:none;fill-opacity:0.261961;stroke:#ffffff;stroke-width:1;stroke-linecap:round;stroke-linejoin:round;stroke-opacity:1"
     d="m 36.197208,26.742578 4.932231,-1.960257 C 41.892775,24.478943 42.5,23.555801 42.5,22.734394 V 7.7402351 C 42.5,6.6536776 41.625252,5.778936 40.538686,5.778936 H 7.4613146 c -1.086566,0 -1.9613144,0.8747416 -1.9613144,1.9612991 V 22.734443 c 0,0.821407 0.607226,1.744549 1.3705613,2.047927 l 4.9570225,1.970109"
     id="path15" /><path
     style="fill:none;fill-opacity:0.261961;stroke:#ffffff;stroke-width:1;stroke-linecap:round;stroke-linejoin:round;stroke-opacity:1"
     d="M 36.546847,29.674266 A 12.546847,12.546749 0 0 1 24,42.221064 12.546847,12.546749 0 0 1 11.453153,29.674315 12.546847,12.546749 0 0 1 24,17.127566 12.546847,12.546749 0 0 1 36.546847,29.674315 Z"
     id="path14" /><path
     style="fill:none;fill-opacity:0.261961;stroke:#ffffff;stroke-width:1;stroke-linecap:round;stroke-linejoin:round;stroke-opacity:1"
     d="M 25.223765,29.674266 A 1.2237649,1.2237553 0 0 1 24,30.898021 1.2237649,1.2237553 0 0 1 22.776235,29.674266 1.2237649,1.2237553 0 0 1 24,28.450511 a 1.2237649,1.2237553 0 0 1 1.223765,1.223755 z"
     id="path13" /><path
     style="fill:none;fill-opacity:0.261961;stroke:#ffffff;stroke-width:1;stroke-linecap:round;stroke-linejoin:round;stroke-opacity:1"
     d="m 27.538673,24.28778 a 0.61963714,0.61963232 0 0 1 -0.619637,0.619633 0.61963714,0.61963232 0 0 1 -0.619637,-0.619633 0.61963714,0.61963232 0 0 1 0.619637,-0.619633 0.61963714,0.61963232 0 0 1 0.619637,0.619633 z"
     id="path12" /><path
     style="fill:none;fill-opacity:0.261961;stroke:#ffffff;stroke-width:1;stroke-linecap:round;stroke-linejoin:round;stroke-opacity:1"
     d="m 20.065719,30.653137 a 0.61963714,0.61963232 0 0 1 -0.619638,0.619632 0.61963714,0.61963232 0 0 1 -0.619637,-0.619632 0.61963714,0.61963232 0 0 1 0.619637,-0.619632 0.61963714,0.61963232 0 0 1 0.619638,0.619632 z"
     id="path11" /><path
     style="fill:none;fill-opacity:0.261961;stroke:#ffffff;stroke-width:1;stroke-linecap:round;stroke-linejoin:round;stroke-opacity:1"
     d="m 21.984001,33.398633 a 0.61963714,0.61963232 0 0 1 -0.619637,0.619632 0.61963714,0.61963232 0 0 1 -0.619637,-0.619632 0.61963714,0.61963232 0 0 1 0.619637,-0.619632 0.61963714,0.61963232 0 0 1 0.619637,0.619632 z"
     id="path10" /><path
     style="fill:none;fill-opacity:0.261961;stroke:#ffffff;stroke-width:1;stroke-linecap:round;stroke-linejoin:round;stroke-opacity:1"
     d="m 8.3754889,18.375838 2e-7,-10.054492 h 4.5783499"
     id="path9" /><path
     style="fill:none;fill-opacity:0.261961;stroke:#ffffff;stroke-width:1;stroke-linecap:round;stroke-linejoin:round;stroke-opacity:1"
     d="m 14.994331,12.611116 c 1.626535,-0.101724 3.321743,-0.175815 5.056437,-0.220608"
     id="path8" /><path
     style="fill:none;fill-opacity:0.261961;stroke:#ffffff;stroke-width:1;stroke-linecap:round;stroke-linejoin:round;stroke-opacity:1"
     d="M 8.3748931,13.23147 C 9.7911609,13.045234 11.327847,12.886212 12.952162,12.75628"
     id="path7" /><path
     style="fill:none;fill-opacity:0.261961;stroke:#ffffff;stroke-width:1;stroke-linecap:round;stroke-linejoin:round;stroke-opacity:1"
     d="m 8.3560871,13.23397 0.018806,-0.0025"
     id="path6" /><path
     style="fill:none;fill-opacity:0.261961;stroke:#ffffff;stroke-width:1;stroke-linecap:round;stroke-linejoin:round;stroke-opacity:1"
     d="M 15.002663,16.805318 V 8.3213043 h 4.715986 l 1.518964,1.0822677 v 2.090303 l -1.298747,0.984965 1.298747,0.984964 v 2.714487"
     id="path5" /><path
     style="fill:none;fill-opacity:0.261961;stroke:#ffffff;stroke-width:1;stroke-linecap:round;stroke-linejoin:round;stroke-opacity:1"
     d="M 30.453795,16.452951 28.264582,8.3213093 H 26.271865 L 24.10829,16.104899"
     id="path4" /><path
     style="fill:none;fill-opacity:0.261961;stroke:#ffffff;stroke-width:1;stroke-linecap:round;stroke-linejoin:round;stroke-opacity:1"
     d="m 24.663023,14.110078 a 24.333442,2.9355039 0 0 1 5.182918,0.08489"
     id="path3" /><path
     style="fill:none;fill-opacity:0.261961;stroke:#ffffff;stroke-width:1;stroke-linecap:round;stroke-linejoin:round;stroke-opacity:1"
     d="m 37.542839,13.063582 c 0.644543,0.06791 1.267264,0.06238 1.859355,0.139396 l -0.0068,3.840878 -1.211459,0.873501 C 36.956322,17.569465 35.653352,17.267401 34.290489,17.015722 L 33.29401,15.560818 V 9.142126 l 1.141358,-0.8208217 h 3.803348 l 1.156678,1.2940477 v 0.53245"
     id="path2" /><path
     style="fill:none;fill-opacity:0.261961;stroke:#ffffff;stroke-width:1;stroke-linecap:round;stroke-linejoin:round;stroke-opacity:1"
     d="M 33.92928,29.674315 A 9.9292798,9.9292024 0 0 1 24,39.603517 9.9292798,9.9292024 0 0 1 14.07072,29.674315 9.9292798,9.9292024 0 0 1 24,19.745113 a 9.9292798,9.9292024 0 0 1 9.92928,9.929202 z"
     id="path1" /><path
     style="fill:none;fill-opacity:0.261961;stroke:#ffffff;stroke-width:1;stroke-linecap:round;stroke-linejoin:round;stroke-opacity:1"
     d="M 29.529297,29.674315 A 5.529296,5.529253 0 0 1 24,35.203568 5.529296,5.529253 0 0 1 18.470704,29.674315 5.529296,5.529253 0 0 1 24,24.145062 a 5.529296,5.529253 0 0 1 5.529297,5.529253 z"
     id="circle45" /></svg>
