<?xml version="1.0" encoding="UTF-8" standalone="no"?>
<svg
   viewBox="0 0 48 48"
   version="1.1"
   id="svg1"
   sodipodi:docname="gacha_club.svg"
   inkscape:version="1.3.2 (091e20ef0f, 2023-11-25)"
   xml:space="preserve"
   xmlns:inkscape="http://www.inkscape.org/namespaces/inkscape"
   xmlns:sodipodi="http://sodipodi.sourceforge.net/DTD/sodipodi-0.dtd"
   xmlns="http://www.w3.org/2000/svg"
   xmlns:svg="http://www.w3.org/2000/svg"><sodipodi:namedview
     id="namedview1"
     pagecolor="#505050"
     bordercolor="#eeeeee"
     borderopacity="1"
     inkscape:showpageshadow="0"
     inkscape:pageopacity="0"
     inkscape:pagecheckerboard="0"
     inkscape:deskcolor="#505050"
     inkscape:zoom="6.2976698"
     inkscape:cx="-18.340117"
     inkscape:cy="2.9375945"
     inkscape:window-width="1918"
     inkscape:window-height="1053"
     inkscape:window-x="0"
     inkscape:window-y="0"
     inkscape:window-maximized="1"
     inkscape:current-layer="svg1" /><defs
     id="defs1"><style
       id="style1">.a { fill:none;stroke:#fff;stroke-linecap:round;stroke-linejoin:round; }
</style></defs><path
     style="display:inline;fill:none;stroke:#ffffff;stroke-width:1;stroke-linecap:round;stroke-linejoin:round;stroke-opacity:1"
     d="m 11.252358,14.016968 c 2.963912,-3.77941 7.572202,-6.2077217 12.747641,-6.2077213 5.019668,-2e-7 9.705493,2.3236023 12.746258,6.2065633"
     id="path20" /><path
     style="display:inline;fill:none;stroke:#ffffff;stroke-width:1;stroke-linecap:round;stroke-linejoin:round;stroke-opacity:1"
     d="m 42.28158,20.34467 a 20.121839,26.338336 85.261012 0 0 1.467556,-4.925875"
     id="path19" /><path
     style="display:inline;fill:none;stroke:#ffffff;stroke-width:1;stroke-linecap:round;stroke-linejoin:round;stroke-opacity:1"
     d="M 45.5,24 A 21.5,21.5 0 0 1 23.999999,45.5 21.5,21.5 0 0 1 2.4999996,23.999999 21.5,21.5 0 0 1 23.999999,2.4999995 21.5,21.5 0 0 1 45.5,24 v 0"
     id="path18" /><path
     style="display:inline;fill:none;stroke:#ffffff;stroke-width:1;stroke-linecap:round;stroke-linejoin:round;stroke-opacity:1"
     d="M 9.5044604,27.91128 C 8.9865275,27.668625 8.5164428,27.386935 8.1021086,27.065542 7.9406641,26.228293 7.8456635,25.379866 7.8178645,24.528196"
     id="path17" /><path
     style="display:inline;fill:none;stroke:#ffffff;stroke-width:1;stroke-linecap:round;stroke-linejoin:round;stroke-opacity:1"
     d="M 38.541104,25.719017 A 20.121839,26.338336 85.261012 0 0 39.590699,24.54271"
     id="path16" /><path
     style="display:inline;fill:none;stroke:#ffffff;stroke-width:1;stroke-linecap:round;stroke-linejoin:round;stroke-opacity:1"
     d="m 4.1053064,32.028662 a 20.121839,26.338336 85.261012 0 0 5.3981001,1.687407"
     id="path15" /><path
     style="display:inline;fill:none;stroke:#ffffff;stroke-width:1;stroke-linecap:round;stroke-linejoin:round;stroke-opacity:1"
     d="m 28.111271,15.166369 v 8.213535"
     id="path14" /><path
     style="display:inline;fill:none;stroke:#ffffff;stroke-width:1;stroke-linecap:round;stroke-linejoin:round;stroke-opacity:1"
     d="m 33.552738,15.166369 v 8.213535"
     id="path13" /><path
     style="display:inline;fill:none;stroke:#ffffff;stroke-width:1;stroke-linecap:round;stroke-linejoin:round;stroke-opacity:1"
     d="m 28.111271,19.25763 h 5.441467"
     id="path12" /><path
     style="display:inline;fill:none;stroke:#ffffff;stroke-width:1;stroke-linecap:round;stroke-linejoin:round;stroke-opacity:1"
     d="m 26.230808,20.625496 v 0.03367 c 0,1.502667 -1.218068,2.720734 -2.720734,2.720734 v 0 c -1.502666,0 -2.720733,-1.218067 -2.720733,-2.720734 v -2.772068 c 0,-1.502666 1.218067,-2.720733 2.720733,-2.720733 v 0 c 1.502666,0 2.720734,1.218067 2.720734,2.720733 v 0.03368"
     id="path11" /><path
     style="display:inline;fill:none;stroke:#ffffff;stroke-width:1;stroke-linecap:round;stroke-linejoin:round;stroke-opacity:1"
     d="m 18.468758,20.659116 h -3.63901"
     id="path10" /><path
     style="display:inline;fill:none;stroke:#ffffff;stroke-width:1;stroke-linecap:round;stroke-linejoin:round;stroke-opacity:1"
     d="m 13.928518,23.37985 2.720734,-8.213536 2.720733,8.213536"
     id="path9" /><path
     style="display:inline;fill:none;stroke:#ffffff;stroke-width:1;stroke-linecap:round;stroke-linejoin:round;stroke-opacity:1"
     d="M 40.03108,20.659116 H 36.39207"
     id="path8" /><path
     style="display:inline;fill:none;stroke:#ffffff;stroke-width:1;stroke-linecap:round;stroke-linejoin:round;stroke-opacity:1"
     d="m 35.49084,23.37985 2.720733,-8.213536 2.720734,8.213536"
     id="path7" /><path
     style="display:inline;fill:none;stroke:#ffffff;stroke-width:1;stroke-linecap:round;stroke-linejoin:round;stroke-opacity:1"
     d="m 12.509163,17.887103 c 0,-1.502666 -1.218067,-2.720733 -2.7207335,-2.720733 v 0 c -1.5026698,0 -2.7207371,1.218067 -2.7207371,2.720733 v 2.772069 c 0,1.502666 1.2180673,2.720733 2.7207371,2.720733 v 0 c 1.5026665,0 2.7207335,-1.218067 2.7207335,-2.720733 H 9.7884295"
     id="path5" /><path
     style="display:inline;fill:none;stroke:#ffffff;stroke-width:1;stroke-linecap:round;stroke-linejoin:round;stroke-opacity:1"
     d="m 18.509908,25.663843 v 8.213535 h 4.106768"
     id="path4" /><path
     style="display:inline;fill:none;stroke:#ffffff;stroke-width:1;stroke-linecap:round;stroke-linejoin:round;stroke-opacity:1"
     d="m 23.966673,25.663843 v 5.492801 c 0,1.502667 1.218067,2.720734 2.720733,2.720734 1.502667,0 2.720734,-1.218067 2.720734,-2.720734 v -5.492801"
     id="path3" /><path
     style="display:inline;fill:none;stroke:#ffffff;stroke-width:1;stroke-linecap:round;stroke-linejoin:round;stroke-opacity:1"
     d="m 34.818991,29.770609 c 1.134084,0 2.053384,0.9193 2.053384,2.053384 0,1.134084 -0.9193,2.053384 -2.053384,2.053384 h -3.388083 v -8.213534 h 3.388083 c 1.134084,0 2.053384,0.9193 2.053384,2.053384 0,1.134083 -0.9193,2.053383 -2.053384,2.053383 z"
     id="path2" /><path
     style="display:inline;fill:none;stroke:#ffffff;stroke-width:1;stroke-linecap:round;stroke-linejoin:round;stroke-opacity:1"
     d="M 34.818991,29.770713 H 31.430908"
     id="path1" /><path
     style="display:inline;fill:none;stroke:#ffffff;stroke-width:1;stroke-linecap:round;stroke-linejoin:round;stroke-opacity:1"
     d="m 16.569091,31.122969 v 0.03367 c 0,1.502667 -1.218067,2.720734 -2.720734,2.720734 v 0 c -1.502666,0 -2.720733,-1.218067 -2.720733,-2.720734 v -2.772068 c 0,-1.502666 1.218067,-2.720733 2.720733,-2.720733 v 0 c 1.502667,0 2.720734,1.218067 2.720734,2.720733 v 0.03368"
     id="path6" /></svg>
