<?xml version="1.0" encoding="UTF-8" standalone="no"?>
<svg
   viewBox="0 0 48 48"
   version="1.1"
   id="svg1"
   sodipodi:docname="loklok.svg"
   inkscape:version="1.3.2 (091e20ef0f, 2023-11-25)"
   xml:space="preserve"
   xmlns:inkscape="http://www.inkscape.org/namespaces/inkscape"
   xmlns:sodipodi="http://sodipodi.sourceforge.net/DTD/sodipodi-0.dtd"
   xmlns="http://www.w3.org/2000/svg"
   xmlns:svg="http://www.w3.org/2000/svg"><sodipodi:namedview
     id="namedview1"
     pagecolor="#505050"
     bordercolor="#eeeeee"
     borderopacity="1"
     inkscape:showpageshadow="0"
     inkscape:pageopacity="0"
     inkscape:pagecheckerboard="0"
     inkscape:deskcolor="#505050"
     inkscape:zoom="16"
     inkscape:cx="15.59375"
     inkscape:cy="22.71875"
     inkscape:window-width="1918"
     inkscape:window-height="1053"
     inkscape:window-x="0"
     inkscape:window-y="0"
     inkscape:window-maximized="1"
     inkscape:current-layer="svg1" /><defs
     id="defs1"><style
       id="style1">.a { fill:none;stroke:#fff;stroke-linecap:round;stroke-linejoin:round; }
</style></defs><path
     style="fill:none;stroke:#ffffff;stroke-linecap:round;stroke-linejoin:round;stroke-opacity:1"
     d="m 18.341185,20.657277 a 1.8245357,1.1915776 79.830581 0 1 -0.850721,2.006253 1.8245357,1.1915776 79.830581 0 1 -1.494996,-1.585491 1.8245357,1.1915776 79.830581 0 1 0.850722,-2.006253 1.8245357,1.1915776 79.830581 0 1 1.494995,1.585491 v 0"
     id="path30" /><path
     style="fill:none;stroke:#ffffff;stroke-linecap:round;stroke-linejoin:round;stroke-opacity:1"
     d="m 25.474675,19.377708 a 1.8245357,1.1915776 79.830581 0 1 -0.850721,2.006253 1.8245357,1.1915776 79.830581 0 1 -1.494996,-1.585491 1.8245357,1.1915776 79.830581 0 1 0.850722,-2.006254 1.8245357,1.1915776 79.830581 0 1 1.494995,1.585492 v 0"
     id="path29" /><path
     style="fill:none;stroke:#ffffff;stroke-linecap:round;stroke-linejoin:round;stroke-opacity:1"
     d="m 20.686149,22.006856 0.713114,-0.127915"
     id="path28" /><path
     style="fill:none;stroke:#ffffff;stroke-linecap:round;stroke-linejoin:round;stroke-opacity:1"
     d="m 22.064818,29.624541 c -1.424541,-2.018824 -2.027462,-3.30493 -2.848829,-5.42699 -0.115045,-0.29723 0.01575,-0.741294 0.284319,-0.912902 0.450342,-0.287752 0.867059,-0.407558 1.683692,-0.554042 0.816635,-0.146484 1.249013,-0.17898 1.771291,-0.06569 0.311476,0.06756 0.588455,0.438483 0.58389,0.757168 -0.03259,2.27524 -0.150916,3.690716 -0.784963,6.0788 -0.06771,0.255004 -0.537283,0.339235 -0.6894,0.123661 v 0"
     id="path27" /><path
     style="fill:none;stroke:#ffffff;stroke-linecap:round;stroke-linejoin:round;stroke-opacity:1"
     d="m 19.684315,23.163411 c 0.06128,0.08862 0.638489,0.875148 1.700141,0.684713 1.061655,-0.190434 1.32951,-1.128544 1.356162,-1.232937"
     id="path26" /><path
     style="fill:none;stroke:#ffffff;stroke-linecap:round;stroke-linejoin:round;stroke-opacity:1"
     d="M 12.166353,31.472371 C 10.058719,29.585707 8.5419426,27.00744 8.0038066,24.007401 6.8805636,17.745464 10.413168,11.77279 16.0909,9.4716207 c 1.69404,-0.68659 2.604776,0.49131 2.445173,4.7800593 0.298441,-0.190374 0.64233,-0.306691 1.058602,-0.381361 0.416273,-0.07467 0.77915,-0.08512 1.125152,-0.01035 -1.640289,-3.9658924 -1.195737,-5.3868969 0.631327,-5.3319043 6.123568,0.1843132 11.51185,4.5568043 12.635093,10.8187413 0.138085,0.769806 0.2061,1.535973 0.208601,2.291939"
     id="path25" /><path
     style="fill:none;stroke:#ffffff;stroke-linecap:round;stroke-linejoin:round;stroke-opacity:1"
     d="m 10.260242,25.664495 3.834305,-0.905706"
     id="path24" /><path
     style="fill:none;stroke:#ffffff;stroke-linecap:round;stroke-linejoin:round;stroke-opacity:1"
     d="m 11.483041,28.33246 3.605668,-1.587872"
     id="path23" /><path
     style="fill:none;stroke:#ffffff;stroke-linecap:round;stroke-linejoin:round;stroke-opacity:1"
     d="m 37.998537,31.83721 c 0.451051,-0.349814 0.797579,-0.843272 0.963728,-1.437659 l 1.183833,-4.235094 c 0.410932,-1.470103 -0.441756,-2.984436 -1.911852,-3.395366 l -0.225082,-0.06292 0.973042,-1.544832 a 0.98404663,0.98404255 0 0 0 -0.307261,-1.35671 0.98404663,0.98404255 0 0 0 -0.233157,-0.108277 l 2.1e-5,1.4e-5 a 0.98404663,0.98404255 0 0 0 -1.125037,0.415125 l -1.285949,2.041688 -2.934963,-0.820402 -0.04085,-2.412565 a 0.98404663,0.98404255 0 0 0 -1.000761,-0.966233 0.98404663,0.98404255 0 0 0 -0.966233,1.000731 l 0.03095,1.825474 -0.225083,-0.06292 c -1.470096,-0.410932 -2.984435,0.441752 -3.395368,1.911843 l -1.183833,4.235094 c -0.410933,1.470091 0.441755,2.984423 1.911851,3.395354 l 1.825125,0.510171"
     id="path22" /><path
     style="fill:none;stroke:#ffffff;stroke-linecap:round;stroke-linejoin:round;stroke-opacity:1"
     d="m 31.08865,22.535768 6.035445,1.68707 c 0.840056,0.234818 1.327305,1.100148 1.092485,1.940201 l -0.904975,3.2375 c -0.234819,0.840053 -1.100154,1.3273 -1.940211,1.092482 l -6.035445,-1.687079 c -0.840056,-0.234819 -1.327306,-1.10015 -1.092486,-1.940202 l 0.904976,-3.2375 c 0.234819,-0.840052 1.100154,-1.327301 1.94021,-1.092481 l 1e-6,9e-6 v 0"
     id="path21" /><path
     style="fill:none;stroke:#ffffff;stroke-linecap:round;stroke-linejoin:round;stroke-opacity:1"
     d="m 33.171519,24.54099 0.0665,0.01859"
     id="path20" /><path
     style="fill:none;stroke:#ffffff;stroke-linecap:round;stroke-linejoin:round;stroke-opacity:1"
     d="m 32.913912,25.462531 0.06651,0.0186"
     id="path19" /><path
     style="fill:none;stroke:#ffffff;stroke-linecap:round;stroke-linejoin:round;stroke-opacity:1"
     d="m 32.656306,26.384081 0.06651,0.01859"
     id="path18" /><path
     style="fill:none;stroke:#ffffff;stroke-linecap:round;stroke-linejoin:round;stroke-opacity:1"
     d="m 32.3987,27.30563 0.06651,0.01859"
     id="path17" /><path
     style="fill:none;stroke:#ffffff;stroke-linecap:round;stroke-linejoin:round;stroke-opacity:1"
     d="m 32.141095,28.227179 0.06651,0.01859"
     id="path16" /><path
     style="fill:none;stroke:#ffffff;stroke-linecap:round;stroke-linejoin:round;stroke-opacity:1"
     d="m 33.837912,25.720827 0.06651,0.01859"
     id="path15" /><path
     style="fill:none;stroke:#ffffff;stroke-linecap:round;stroke-linejoin:round;stroke-opacity:1"
     d="m 33.580307,26.642368 0.0665,0.01859"
     id="path14" /><path
     style="fill:none;stroke:#ffffff;stroke-linecap:round;stroke-linejoin:round;stroke-opacity:1"
     d="m 33.322701,27.563911 0.0665,0.01859"
     id="path13" /><path
     style="fill:none;stroke:#ffffff;stroke-linecap:round;stroke-linejoin:round;stroke-opacity:1"
     d="m 34.498434,26.899001 0.06651,0.0186"
     id="path12" /><path
     style="fill:none;stroke:#ffffff;stroke-linecap:round;stroke-linejoin:round;stroke-opacity:1"
     d="M 5.4863064,32.943315 A 28.892679,10.32584 0 0 1 24.010075,30.541916 28.892679,10.32584 0 0 1 42.513694,32.937304"
     id="path11" /><path
     style="fill:none;stroke:#ffffff;stroke-linecap:round;stroke-linejoin:round;stroke-opacity:1"
     d="m 10.337797,33.930767 v 6.06066 h 3.02363"
     id="path10" /><path
     style="fill:none;stroke:#ffffff;stroke-linecap:round;stroke-linejoin:round;stroke-opacity:1"
     d="m 16.327023,33.930767 c 1.109748,0 2.003155,0.895386 2.003155,2.007593 v 2.045473 c 0,1.112207 -0.893407,2.007594 -2.003155,2.007594 -1.109747,0 -2.003154,-0.895387 -2.003154,-2.007594 V 35.93836 c 0,-1.112207 0.893407,-2.007593 2.003154,-2.007593 z"
     id="path9" /><path
     style="fill:none;stroke:#ffffff;stroke-linecap:round;stroke-linejoin:round;stroke-opacity:1"
     d="m 20.015679,33.930763 v 6.06066"
     id="path8" /><path
     style="fill:none;stroke:#ffffff;stroke-linecap:round;stroke-linejoin:round;stroke-opacity:1"
     d="m 20.015679,37.88042 3.250393,-3.929277"
     id="path7" /><path
     style="fill:none;stroke:#ffffff;stroke-linecap:round;stroke-linejoin:round;stroke-opacity:1"
     d="M 23.266072,39.991427 20.77619,36.961096"
     id="path6" /><path
     style="fill:none;stroke:#ffffff;stroke-linecap:round;stroke-linejoin:round;stroke-opacity:1"
     d="m 24.75408,33.930766 v 6.06066 h 3.02363"
     id="path5" /><path
     style="fill:none;stroke:#ffffff;stroke-linecap:round;stroke-linejoin:round;stroke-opacity:1"
     d="m 30.743306,33.930766 c 1.109748,0 2.003155,0.895386 2.003155,2.007593 v 2.045473 c 0,1.112207 -0.893407,2.007594 -2.003155,2.007594 -1.109747,0 -2.003154,-0.895387 -2.003154,-2.007594 v -2.045473 c 0,-1.112207 0.893407,-2.007593 2.003154,-2.007593 z"
     id="path4" /><path
     style="fill:none;stroke:#ffffff;stroke-linecap:round;stroke-linejoin:round;stroke-opacity:1"
     d="m 34.431962,33.930762 v 6.06066"
     id="path3" /><path
     style="fill:none;stroke:#ffffff;stroke-linecap:round;stroke-linejoin:round;stroke-opacity:1"
     d="m 34.431962,37.880419 3.250393,-3.929277"
     id="path2" /><path
     style="fill:none;stroke:#ffffff;stroke-linecap:round;stroke-linejoin:round;stroke-opacity:1"
     d="M 37.682355,39.991426 35.192473,36.961095"
     id="path1" /><path
     style="fill:none;stroke:#ffffff;stroke-linecap:round;stroke-linejoin:round;stroke-opacity:1"
     d="m 9.5,5.5 h 29 c 2.216,0 4,1.784 4,4 v 29 c 0,2.216 -1.784,4 -4,4 h -29 c -2.216,0 -4,-1.784 -4,-4 v -29 c 0,-2.216 1.784,-4 4,-4 z"
     id="rect1" /></svg>
