<?xml version="1.0" encoding="UTF-8" standalone="no"?>
<svg
   viewBox="0 0 48 48"
   version="1.1"
   id="svg1"
   sodipodi:docname="paper_io_2.svg"
   inkscape:version="1.3.2 (091e20ef0f, 2023-11-25)"
   xml:space="preserve"
   xmlns:inkscape="http://www.inkscape.org/namespaces/inkscape"
   xmlns:sodipodi="http://sodipodi.sourceforge.net/DTD/sodipodi-0.dtd"
   xmlns="http://www.w3.org/2000/svg"
   xmlns:svg="http://www.w3.org/2000/svg"><sodipodi:namedview
     id="namedview1"
     pagecolor="#505050"
     bordercolor="#eeeeee"
     borderopacity="1"
     inkscape:showpageshadow="0"
     inkscape:pageopacity="0"
     inkscape:pagecheckerboard="0"
     inkscape:deskcolor="#505050"
     inkscape:zoom="6.2976698"
     inkscape:cx="-35.01295"
     inkscape:cy="12.623717"
     inkscape:window-width="1918"
     inkscape:window-height="1053"
     inkscape:window-x="0"
     inkscape:window-y="0"
     inkscape:window-maximized="1"
     inkscape:current-layer="svg1" /><defs
     id="defs1"><style
       id="style1">.a { fill:none;stroke:#fff;stroke-linecap:round;stroke-linejoin:round; }
</style></defs><path
     style="fill:none;stroke:#ffffff;stroke-width:1;stroke-linecap:round;stroke-linejoin:round;stroke-opacity:1"
     d="m 42.497104,25.433941 v 4.076643 L 24.00069,40.186817 5.5028937,29.510584 v -4.076643"
     id="path19" /><path
     style="fill:none;stroke:#ffffff;stroke-width:1;stroke-linecap:round;stroke-linejoin:round;stroke-opacity:1"
     d="M 43.499999,19.058652 23.999999,7.8131797 4.4999988,19.058655"
     id="path18" /><path
     style="fill:none;stroke:#ffffff;stroke-width:1;stroke-linecap:round;stroke-linejoin:round;stroke-opacity:1"
     d="m 28.875555,19.078882 -4.834137,-2.788613 -4.834137,2.788613 4.834137,2.788614 z"
     id="path17" /><path
     style="fill:none;stroke:#ffffff;stroke-width:1;stroke-linecap:round;stroke-linejoin:round;stroke-opacity:1"
     d="m 7.6990443,27.883282 2.3094367,1.33296 0.642788,-0.371004 2.43e-4,-0.491359 0.669744,0.386821 -3.61e-4,2.70334 2.328354,1.343879 0.590334,-0.340728 -3.3e-4,-2.02289 4.296015,2.479855 -3.6e-5,2.074239 1.683248,0.971537 0.654451,-0.377737 -1.11e-4,-1.319319 3.12717,1.805192 3.609154,-2.083122 9.4e-5,0.636606 0.565058,0.32614 3.594332,-2.074577 4.5e-5,-1.288627 3.76717,-2.175313 -4.98e-4,2.001779 0.471119,0.470981 1.834814,-1.059018 -2.57e-4,-2.743564 5.65898,-3.266303 v 0 -5.744395 L 23.999994,30.313532 4.4999988,19.058655 v 5.744395 l 3.1992477,1.847058 z"
     id="path16" /><path
     style="fill:none;stroke:#ffffff;stroke-width:1;stroke-linecap:round;stroke-linejoin:round;stroke-opacity:1"
     d="m 24.041418,16.432958 v 5.291847"
     id="path15" /><path
     style="fill:none;stroke:#ffffff;stroke-width:1;stroke-linecap:round;stroke-linejoin:round;stroke-opacity:1"
     d="m 23.999998,30.312135 v 9.72049"
     id="path14" /><path
     style="fill:none;stroke:#ffffff;stroke-width:1;stroke-linecap:round;stroke-linejoin:round;stroke-opacity:1"
     d="m 22.677188,11.021369 1.6378,0.945305"
     id="path13" /><path
     style="fill:none;stroke:#ffffff;stroke-width:1;stroke-linecap:round;stroke-linejoin:round;stroke-opacity:1"
     d="m 16.041947,13.53879 1.637799,0.945305"
     id="path12" /><path
     style="fill:none;stroke:#ffffff;stroke-width:1;stroke-linecap:round;stroke-linejoin:round;stroke-opacity:1"
     d="m 31.718611,19.154016 1.637799,0.945305"
     id="path11" /><path
     style="fill:none;stroke:#ffffff;stroke-width:1;stroke-linecap:round;stroke-linejoin:round;stroke-opacity:1"
     d="m 30.98532,15.684789 -1.637799,0.945305"
     id="path10" /><path
     style="fill:none;stroke:#ffffff;stroke-width:1;stroke-linecap:round;stroke-linejoin:round;stroke-opacity:1"
     d="M 11.352081,18.368643 9.7142775,19.313948"
     id="path9" /><path
     style="fill:none;stroke:#ffffff;stroke-width:1;stroke-linecap:round;stroke-linejoin:round;stroke-opacity:1"
     d="m 26.018682,21.875268 -1.637803,0.945305"
     id="path8" /><path
     style="fill:none;stroke:#ffffff;stroke-width:1;stroke-linecap:round;stroke-linejoin:round;stroke-opacity:1"
     d="m 21.627263,13.262192 v 1.326572"
     id="path7" /><path
     style="fill:none;stroke:#ffffff;stroke-width:1;stroke-linecap:round;stroke-linejoin:round;stroke-opacity:1"
     d="m 36.204768,16.843615 v 1.326572"
     id="path6" /><path
     style="fill:none;stroke:#ffffff;stroke-width:1;stroke-linecap:round;stroke-linejoin:round;stroke-opacity:1"
     d="m 15.509778,19.685916 v 1.326572"
     id="path5" /><path
     style="fill:none;stroke:#ffffff;stroke-width:1;stroke-linecap:round;stroke-linejoin:round;stroke-opacity:1"
     d="m 27.873474,13.154186 h 2.20782"
     id="path4" /><path
     style="fill:none;stroke:#ffffff;stroke-width:1;stroke-linecap:round;stroke-linejoin:round;stroke-opacity:1"
     d="m 30.169745,22.350835 h 2.207819"
     id="path3" /><path
     style="fill:none;stroke:#ffffff;stroke-width:1;stroke-linecap:round;stroke-linejoin:round;stroke-opacity:1"
     d="m 16.153386,23.3606 h 2.207819"
     id="path2" /><path
     style="fill:none;stroke:#ffffff;stroke-width:1;stroke-linecap:round;stroke-linejoin:round;stroke-opacity:1"
     d="m 13.258559,16.773008 h 2.20782"
     id="path1" /><path
     style="fill:none;stroke:#ffffff;stroke-width:1;stroke-linecap:round;stroke-linejoin:round;stroke-opacity:1"
     d="m 24.029127,25.932257 h 2.20782"
     id="path81" /></svg>
