<?xml version="1.0" encoding="UTF-8" standalone="no"?>
<svg
   viewBox="0 0 48 48"
   version="1.1"
   id="svg1"
   sodipodi:docname="snack_bar.svg"
   inkscape:version="1.3.2 (091e20ef0f, 2023-11-25)"
   xml:space="preserve"
   xmlns:inkscape="http://www.inkscape.org/namespaces/inkscape"
   xmlns:sodipodi="http://sodipodi.sourceforge.net/DTD/sodipodi-0.dtd"
   xmlns="http://www.w3.org/2000/svg"
   xmlns:svg="http://www.w3.org/2000/svg"><sodipodi:namedview
     id="namedview1"
     pagecolor="#505050"
     bordercolor="#eeeeee"
     borderopacity="1"
     inkscape:showpageshadow="0"
     inkscape:pageopacity="0"
     inkscape:pagecheckerboard="0"
     inkscape:deskcolor="#505050"
     inkscape:zoom="16"
     inkscape:cx="23.34375"
     inkscape:cy="25.15625"
     inkscape:window-width="1918"
     inkscape:window-height="1053"
     inkscape:window-x="0"
     inkscape:window-y="0"
     inkscape:window-maximized="0"
     inkscape:current-layer="svg1" /><defs
     id="defs1"><style
       id="style1">.a { fill:none;stroke:#fff;stroke-linecap:round;stroke-linejoin:round; }
</style></defs><path
     style="display:inline;fill:none;fill-opacity:0.439204;stroke:#ffffff;stroke-width:1;stroke-linecap:round;stroke-linejoin:round;stroke-dasharray:none;stroke-opacity:1"
     d="m 41.204866,39.922662 h 1.539061 c 1.104569,0 2,-0.895431 2,-2 v 0 -0.427735"
     id="path18" /><path
     style="display:inline;fill:none;fill-opacity:0.439204;stroke:#ffffff;stroke-width:1;stroke-linecap:round;stroke-linejoin:round;stroke-dasharray:none;stroke-opacity:1"
     d="m 17.181427,39.922661 16.125002,1e-6"
     id="path17" /><path
     style="display:inline;fill:none;fill-opacity:0.439204;stroke:#ffffff;stroke-width:1;stroke-linecap:round;stroke-linejoin:round;stroke-dasharray:none;stroke-opacity:1"
     d="m 5.7439273,37.494928 v 0.427734 c 0,1.104569 0.8954305,2 2,2 h 1.5390626"
     id="path16" /><path
     style="display:inline;fill:none;fill-opacity:0.439204;stroke:#ffffff;stroke-width:1;stroke-linecap:round;stroke-linejoin:round;stroke-dasharray:none;stroke-opacity:1"
     d="m 44.743925,37.494922 v -26.57226 c 0,-1.1045693 -0.895431,-1.9999998 -2,-1.9999998 H 7.7439273 c -1.1045695,0 -2,0.8954305 -2,1.9999998 v 26.572266"
     id="path15" /><path
     style="display:inline;fill:none;fill-opacity:0.439204;stroke:#ffffff;stroke-width:1;stroke-linecap:round;stroke-linejoin:round;stroke-dasharray:none;stroke-opacity:1"
     d="M 5.7175824,37.539977 C 9.0221989,28.616232 14.742142,15.375725 17.448594,16.360894 c 1.517118,0.552243 2.480104,2.351266 3.698818,3.610108 1.23184,1.561535 6.961103,1.561513 8.192927,0 1.218714,-1.258842 2.1817,-3.057865 3.698817,-3.610108 2.70648,-0.985181 8.426519,12.25562 11.731119,21.179368"
     id="path14" /><path
     style="display:inline;fill:none;fill-opacity:0.439204;stroke:#ffffff;stroke-width:1;stroke-linecap:round;stroke-linejoin:round;stroke-dasharray:none;stroke-opacity:1"
     d="m 27.71847,13.6685 c 1.281544,-1.12607 3.085434,-0.420581 3.323024,1.131126 0.149825,0.97851 -0.963505,2.46036 -2.734356,2.343375 l 0.78038,2.929986"
     id="path13" /><path
     style="display:inline;fill:none;fill-opacity:0.439204;stroke:#ffffff;stroke-width:1;stroke-linecap:round;stroke-linejoin:round;stroke-dasharray:none;stroke-opacity:1"
     d="m 21.368546,20.192342 0.812169,-3.049341 c -1.77085,0.116985 -2.88418,-1.364865 -2.734356,-2.343375 0.23759,-1.551707 2.04148,-2.257196 3.323024,-1.131126 0,0 0.458429,-1.848232 2.474544,-1.848232 2.016114,0 2.47685,1.848232 2.474543,1.848232"
     id="path12" /><path
     style="display:inline;fill:none;fill-opacity:0.439204;stroke:#ffffff;stroke-width:1;stroke-linecap:round;stroke-linejoin:round;stroke-dasharray:none;stroke-opacity:1"
     d="m 28.725411,18.719383 -7.025442,0.454425"
     id="path11" /><path
     style="display:inline;fill:none;fill-opacity:0.439204;stroke:#ffffff;stroke-width:1;stroke-linecap:round;stroke-linejoin:round;stroke-dasharray:none;stroke-opacity:1"
     d="m 32.291169,28.075553 c 0,0.960546 -0.777824,1.739222 -1.737318,1.739221 -0.959493,0 -1.737317,-0.778676 -1.737317,-1.739221 0,-0.960545 0.777824,-1.739221 1.737317,-1.739221 0.959494,-10e-7 1.737318,0.778675 1.737318,1.739221 v 0"
     id="path10" /><path
     style="display:inline;fill:none;fill-opacity:0.439204;stroke:#ffffff;stroke-width:1;stroke-linecap:round;stroke-linejoin:round;stroke-dasharray:none;stroke-opacity:1"
     d="m 21.671319,28.075553 c 0,0.960545 -0.777824,1.739221 -1.737317,1.739221 -0.959493,0 -1.737317,-0.778676 -1.737317,-1.739221 0,-0.960545 0.777824,-1.739221 1.737317,-1.739221 0.959493,0 1.737317,0.778676 1.737317,1.739221 v 0"
     id="path9" /><path
     style="display:inline;fill:none;fill-opacity:0.439204;stroke:#ffffff;stroke-width:1;stroke-linecap:round;stroke-linejoin:round;stroke-dasharray:none;stroke-opacity:1"
     d="m 25.118768,28.905105 h 0.25032"
     id="path8" /><path
     style="display:inline;fill:none;fill-opacity:0.439204;stroke:#ffffff;stroke-width:1;stroke-linecap:round;stroke-linejoin:round;stroke-dasharray:none;stroke-opacity:1"
     d="m 21.952755,30.549348 c 1.318286,1.01521 3.05627,0.192334 3.291173,-1.577293 0.234902,1.769627 1.972886,2.592503 3.291172,1.577293"
     id="path7" /><path
     style="display:inline;fill:none;fill-opacity:0.439204;stroke:#ffffff;stroke-width:1;stroke-linecap:round;stroke-linejoin:round;stroke-dasharray:none;stroke-opacity:1"
     d="m 23.141349,31.025445 c 0.232055,0.582317 0.780784,1.753737 2.102579,1.753737 1.321793,0 1.870524,-1.17142 2.102577,-1.753737"
     id="path6" /><path
     style="display:inline;fill:none;fill-opacity:0.439204;stroke:#ffffff;stroke-width:1;stroke-linecap:round;stroke-linejoin:round;stroke-dasharray:none;stroke-opacity:1"
     d="m 36.222926,27.021774 c 3.696099,-1.126198 6.09134,-1.061181 9.147232,-0.817164"
     id="path5" /><path
     style="display:inline;fill:none;fill-opacity:0.439204;stroke:#ffffff;stroke-width:1;stroke-linecap:round;stroke-linejoin:round;stroke-dasharray:none;stroke-opacity:1"
     d="m 37.183045,29.150188 c 2.51814,-0.03348 4.257015,0.183345 6.282078,0.852885"
     id="path4" /><path
     style="display:inline;fill:none;fill-opacity:0.439204;stroke:#ffffff;stroke-width:1;stroke-linecap:round;stroke-linejoin:round;stroke-dasharray:none;stroke-opacity:1"
     d="M 14.264935,27.021774 C 10.568835,25.895576 8.1735922,25.960593 5.1176975,26.20461"
     id="path3" /><path
     style="display:inline;fill:none;fill-opacity:0.439204;stroke:#ffffff;stroke-width:1;stroke-linecap:round;stroke-linejoin:round;stroke-dasharray:none;stroke-opacity:1"
     d="m 13.304815,29.150188 c -2.518139,-0.03348 -4.2570137,0.183345 -6.2820823,0.852885"
     id="path2" /><path
     style="display:inline;fill:none;fill-opacity:0.439204;stroke:#ffffff;stroke-width:1;stroke-linecap:round;stroke-linejoin:round;stroke-dasharray:none;stroke-opacity:1"
     d="m 36.608601,34.405646 c -2.738076,3.088582 -4.910028,6.826758 -1.980288,8.567527 2.339867,1.390283 5.12028,-0.375715 7.891562,-5.038474"
     id="path1" /><path
     style="display:inline;fill:none;fill-opacity:0.439204;stroke:#ffffff;stroke-width:1;stroke-linecap:round;stroke-linejoin:round;stroke-dasharray:none;stroke-opacity:1"
     d="m 13.879251,34.405646 c 2.738076,3.088582 4.910028,6.826758 1.980288,8.567527 -2.339867,1.390283 -5.120279,-0.375715 -7.8915594,-5.038474"
     id="path48" /></svg>
