<?xml version="1.0" encoding="UTF-8" standalone="no"?>
<svg
   viewBox="0 0 48 48"
   version="1.1"
   id="svg1"
   sodipodi:docname="stickman_party.svg"
   inkscape:version="1.3.2 (091e20ef0f, 2023-11-25)"
   xml:space="preserve"
   xmlns:inkscape="http://www.inkscape.org/namespaces/inkscape"
   xmlns:sodipodi="http://sodipodi.sourceforge.net/DTD/sodipodi-0.dtd"
   xmlns="http://www.w3.org/2000/svg"
   xmlns:svg="http://www.w3.org/2000/svg"><sodipodi:namedview
     id="namedview1"
     pagecolor="#505050"
     bordercolor="#eeeeee"
     borderopacity="1"
     inkscape:showpageshadow="0"
     inkscape:pageopacity="0"
     inkscape:pagecheckerboard="0"
     inkscape:deskcolor="#505050"
     inkscape:zoom="6.29767"
     inkscape:cx="27.549872"
     inkscape:cy="-1.1909166"
     inkscape:window-width="1918"
     inkscape:window-height="1053"
     inkscape:window-x="0"
     inkscape:window-y="0"
     inkscape:window-maximized="1"
     inkscape:current-layer="svg1" /><defs
     id="defs1"><style
       id="style1">.a { fill:none;stroke:#fff;stroke-linecap:round;stroke-linejoin:round; }
</style></defs><path
     style="fill:none;stroke:#ffffff;stroke-width:1;stroke-linecap:round;stroke-linejoin:round;stroke-opacity:1"
     d="M 5.5,29.345767 V 9.5 c 0,-2.2159956 1.7840044,-4 4,-4 v 0 h 15.022478"
     id="path25" /><path
     style="fill:none;stroke:#ffffff;stroke-width:1;stroke-linecap:round;stroke-linejoin:round;stroke-opacity:1"
     d="M 42.5,19.158789 V 38.5 c 0,2.215996 -1.784004,4 -4,4 h -29 c -2.2159956,0 -4,-1.784004 -4,-4 v -3.332461"
     id="path24" /><path
     style="fill:none;stroke:#ffffff;stroke-width:1;stroke-linecap:round;stroke-linejoin:round;stroke-opacity:1"
     d="m 38.5,5.5 c 2.215996,0 4,1.7840044 4,4"
     id="path22" /><path
     style="fill:none;stroke:#ffffff;stroke-width:1;stroke-linecap:round;stroke-linejoin:round;stroke-opacity:1"
     d="m 28.723498,24.200217 c 1.658717,1.527956 2.697881,3.718186 2.697881,6.151099 0,4.61788 -3.743835,8.361421 -8.362077,8.361421 -4.618242,0 -8.362076,-3.743541 -8.362076,-8.361421 0,-4.61788 3.743834,-8.36142 8.362076,-8.36142 0.382388,0 0.75878,0.02567 1.127548,0.07537"
     id="path21" /><path
     style="fill:none;stroke:#ffffff;stroke-width:1;stroke-linecap:round;stroke-linejoin:round;stroke-opacity:1"
     d="m 21.453704,31.322328 c -3.209989,0.167839 -4.522535,-3.952701 -2.949271,-5.655498 0.851649,2.131797 1.472493,3.312245 2.949271,5.655498 v 0"
     id="path20" /><path
     style="fill:none;stroke:#ffffff;stroke-width:1;stroke-linecap:round;stroke-linejoin:round;stroke-opacity:1"
     d="m 22.974988,32.067651 c 1.541183,2.820585 5.737993,1.776111 6.362346,-0.456496 -2.261803,0.393447 -3.592546,0.484256 -6.362346,0.456496 v 0"
     id="path19" /><path
     style="fill:none;stroke:#ffffff;stroke-width:1;stroke-linecap:round;stroke-linejoin:round;stroke-opacity:1"
     d="m 12.83849,32.655214 -0.742911,0.09627 -0.0032,-1.822858 1.602914,0.259596 c -0.06033,0.384038 0.105707,0.824675 0.126316,1.339609 0.05154,1.287996 -1.039303,1.772303 -1.201601,2.92621"
     id="path18" /><path
     style="fill:none;stroke:#ffffff;stroke-width:1;stroke-linecap:round;stroke-linejoin:round;stroke-opacity:1"
     d="m 9.2963623,29.63231 1.6639197,1.484351 0.850889,-0.790344 c -0.129799,-0.882238 -0.847003,-1.793034 -1.558806,-1.777581 -0.9747369,0.335233 -1.2051156,0.597321 -1.1450766,1.325245 l -1.4529776,0.778468 c -0.1947999,0.146959 -0.1893823,0.226825 -0.1675194,0.37275"
     id="path17" /><path
     style="fill:none;stroke:#ffffff;stroke-width:1;stroke-linecap:round;stroke-linejoin:round;stroke-opacity:1"
     d="m 7.7773594,31.229828 1.9611741,2.059203 1.2476505,-1.067528 C 10.771788,31.509192 10.522019,30.947597 9.9797608,30.263501"
     id="path16" /><path
     style="fill:none;stroke:#ffffff;stroke-width:1;stroke-linecap:round;stroke-linejoin:round;stroke-opacity:1"
     d="M 7.3583172,30.986609 5.6514623,32.072006 8.2343169,35.049984 9.436182,34.174565 7.8266404,31.249058"
     id="path15" /><path
     style="fill:none;stroke:#ffffff;stroke-width:1;stroke-linecap:round;stroke-linejoin:round;stroke-opacity:1"
     d="m 8.4111295,35.162281 c 0.6158366,0.835784 1.0591213,1.818678 2.5335565,1.634924 2.279292,0.695352 2.6914,1.065552 4.881203,1.006725 l -0.855975,3.120565"
     id="path14" /><path
     style="fill:none;stroke:#ffffff;stroke-width:1;stroke-linecap:round;stroke-linejoin:round;stroke-opacity:1"
     d="m 12.932675,34.583947 c 1.052839,0.172772 2.105682,0.346897 3.158521,0.535104"
     id="path13" /><path
     style="fill:none;stroke:#ffffff;stroke-width:1;stroke-linecap:round;stroke-linejoin:round;stroke-opacity:1"
     d="m 23.842945,38.724944 c -0.318845,0.466725 -1.055324,0.436684 -1.556134,0.978212 -0.475722,0.514401 -0.746495,1.634655 -1.045117,2.794264"
     id="path12" /><path
     style="fill:none;stroke:#ffffff;stroke-width:1;stroke-linecap:round;stroke-linejoin:round;stroke-opacity:1"
     d="m 11.67311,42.50042 2.132565,-1.508906 c 0.31229,-0.220962 1.147121,-0.03636 1.147121,-0.03636 l 0.966264,0.603376 0.325541,0.941335"
     id="path11" /><path
     style="fill:none;stroke:#ffffff;stroke-width:1;stroke-linecap:round;stroke-linejoin:round;stroke-opacity:1"
     d="m 31.325595,27.767364 c 0.896037,-0.70501 1.156351,-3.059171 0.911187,-3.649749 -0.212109,-0.448531 -0.488429,-0.86521 -0.995658,-1.167347 L 30.90959,22.772503 c -0.439149,0.03442 -0.992786,-0.179452 -1.293381,0.201418 l -0.68738,0.870946 c -0.123463,0.374619 0.282245,0.828013 0.684109,0.765335 l 0.789184,-0.571705 0.226509,0.447936 -0.45753,1.268385"
     id="path10" /><path
     style="fill:none;stroke:#ffffff;stroke-width:1;stroke-linecap:round;stroke-linejoin:round;stroke-opacity:1"
     d="M 29.416602,23.229902 C 28.970358,22.926675 28.434265,22.712191 28.19886,22.144951 l 1.141929,-0.643175 c 0.61735,-0.14723 1.690791,0.833058 2.116702,1.538415"
     id="path9" /><path
     style="fill:none;stroke:#ffffff;stroke-width:1;stroke-linecap:round;stroke-linejoin:round;stroke-opacity:1"
     d="m 31.613934,27.475958 c 2.282351,1.627335 1.107174,5.619012 -0.816552,6.381879"
     id="path8" /><path
     style="fill:none;stroke:#ffffff;stroke-width:1;stroke-linecap:round;stroke-linejoin:round;stroke-opacity:1"
     d="m 29.204724,24.942309 c -2.444605,-1.262258 -4.937006,-2.756529 -6.639843,-4.16283 l 0.924399,-1.366415 c 1.655302,0.772868 3.528529,1.702747 4.97013,2.804246"
     id="path7" /><path
     style="fill:none;stroke:#ffffff;stroke-width:1;stroke-linecap:round;stroke-linejoin:round;stroke-opacity:1"
     d="m 29.73044,21.141757 c 2.512537,1.351959 5.779835,-0.216988 7.511476,-2.118767 l 3.198751,-3.513034 C 41.621288,14.213335 38.5586,11.05094 36.159517,9.2266941 34.211877,7.5375791 29.828707,5.255597 28.795465,6.7783594 c -1.129107,1.6640451 -1.838473,3.5903336 -2.631967,5.6269486 -0.800709,2.055132 -0.687641,5.713275 1.346313,7.379024 l -0.819661,1.025102"
     id="path6" /><path
     style="fill:none;stroke:#ffffff;stroke-width:1;stroke-linecap:round;stroke-linejoin:round;stroke-opacity:1"
     d="m 40.338196,15.664334 0.829449,0.128961 0.551826,-3.171893 C 41.364911,10.037425 38.548413,7.8155142 37.60037,7.1228661 35.329115,5.4702843 32.306135,4.4828969 30.592979,4.8004547 L 28.26741,6.2669084 28.552139,6.942164"
     id="path5" /><path
     style="fill:none;stroke:#ffffff;stroke-width:1;stroke-linecap:round;stroke-linejoin:round;stroke-opacity:1"
     d="m 36.69,21.49417 c -0.817789,0.122051 -1.184657,-0.755055 -0.764485,-1.276307"
     id="path4" /><path
     style="fill:none;stroke:#ffffff;stroke-width:1;stroke-linecap:round;stroke-linejoin:round;stroke-opacity:1"
     d="m 36.376904,20.060488 c 2.770358,0.11951 3.86372,-1.183408 5.737037,-3.759809 l -1.298507,-0.883267"
     id="path3" /><path
     style="fill:none;stroke:#ffffff;stroke-width:1;stroke-linecap:round;stroke-linejoin:round;stroke-opacity:1"
     d="m 24.37057,12.703382 c 0.225195,0.86279 1.258321,0.857266 1.601275,0.220796"
     id="path2" /><path
     style="fill:none;stroke:#ffffff;stroke-width:1;stroke-linecap:round;stroke-linejoin:round;stroke-opacity:1"
     d="M 25.937573,12.410032 C 24.641577,9.7117594 25.480518,8.0780757 27.262049,5.1340578 l 1.43491,0.9162085"
     id="path1" /><path
     style="fill:none;stroke:#ffffff;stroke-width:1;stroke-linecap:round;stroke-linejoin:round;stroke-opacity:1"
     d="M 27.490531,14.573615 31.43079,9.5328298 c 0.301473,0.7913122 0.441504,1.6061432 0.363506,2.4527242 l 2.90045,-1.978723 -0.556492,3.543091 c 0.727488,-0.440031 1.521669,-0.670083 2.365231,-0.744655 l -2.813058,5.746357 c -0.697778,-0.719495 -1.372234,-1.483406 -2.819067,-2.437659 -1.446832,-0.954253 -2.428724,-1.227094 -3.380829,-1.54035 v 0"
     id="path23" /></svg>
