<?xml version="1.0" encoding="UTF-8" standalone="no"?>
<svg
   viewBox="0 0 48 48"
   version="1.1"
   id="svg1"
   sodipodi:docname="volleyball.svg"
   inkscape:version="1.3.2 (091e20ef0f, 2023-11-25)"
   xml:space="preserve"
   xmlns:inkscape="http://www.inkscape.org/namespaces/inkscape"
   xmlns:sodipodi="http://sodipodi.sourceforge.net/DTD/sodipodi-0.dtd"
   xmlns="http://www.w3.org/2000/svg"
   xmlns:svg="http://www.w3.org/2000/svg"><sodipodi:namedview
     id="namedview1"
     pagecolor="#505050"
     bordercolor="#eeeeee"
     borderopacity="1"
     inkscape:showpageshadow="0"
     inkscape:pageopacity="0"
     inkscape:pagecheckerboard="0"
     inkscape:deskcolor="#505050"
     inkscape:zoom="4.453125"
     inkscape:cx="-45.922807"
     inkscape:cy="63.214035"
     inkscape:window-width="1918"
     inkscape:window-height="1053"
     inkscape:window-x="0"
     inkscape:window-y="0"
     inkscape:window-maximized="1"
     inkscape:current-layer="svg1" /><defs
     id="defs1"><style
       id="style1">.a { fill:none;stroke:#fff;stroke-linecap:round;stroke-linejoin:round; }
</style></defs><path
     style="fill:none;fill-opacity:0;stroke:#ffffff;stroke-width:1;stroke-linecap:round;stroke-linejoin:round;stroke-opacity:1"
     d="m 45.499999,23.999999 a 21.499999,21.499999 0 0 1 -21.5,21.5 21.499999,21.499999 0 0 1 -21.4999983,-21.5 21.499999,21.499999 0 0 1 21.4999983,-21.4999984 21.499999,21.499999 0 0 1 21.5,21.4999984 z"
     id="path9" /><path
     style="fill:none;fill-opacity:0;stroke:#ffffff;stroke-width:1;stroke-linecap:round;stroke-linejoin:round;stroke-opacity:1"
     d="M 33.25239,21.504797 C 31.773775,32.067352 28.189179,40.938319 22.863138,45.425088"
     id="path8" /><path
     style="fill:none;fill-opacity:0;stroke:#ffffff;stroke-width:1;stroke-linecap:round;stroke-linejoin:round;stroke-opacity:1"
     d="m 41.557237,21.098164 c -0.951952,9.099851 -3.265855,16.540696 -7.582694,21.89913"
     id="path7" /><path
     style="fill:none;fill-opacity:0;stroke:#ffffff;stroke-width:1;stroke-linecap:round;stroke-linejoin:round;stroke-opacity:1"
     d="M 21.707324,33.471782 C 13.228147,26.814646 7.3242753,19.16583 6.2104005,12.248008"
     id="path6" /><path
     style="fill:none;fill-opacity:0;stroke:#ffffff;stroke-width:1;stroke-linecap:round;stroke-linejoin:round;stroke-opacity:1"
     d="M 17.61836,40.470352 C 10.005584,34.566901 4.7516587,28.350233 2.6710055,21.445179"
     id="path5" /><path
     style="fill:none;fill-opacity:0;stroke:#ffffff;stroke-width:1;stroke-linecap:round;stroke-linejoin:round;stroke-opacity:1"
     d="M 24.245255,24.199071 C 17.657932,19.224014 12.948092,12.455145 12.25392,5.9959464"
     id="path4" /><path
     style="fill:none;fill-opacity:0;stroke:#ffffff;stroke-width:1;stroke-linecap:round;stroke-linejoin:round;stroke-opacity:1"
     d="m 14.828422,43.432718 c 5.026686,-3.924459 8.395694,-11.248296 9.416833,-19.234149"
     id="path3" /><path
     style="fill:none;fill-opacity:0;stroke:#ffffff;stroke-width:1;stroke-linecap:round;stroke-linejoin:round;stroke-opacity:1"
     d="M 45.406078,21.948712 C 39.434488,19.820604 31.525503,20.831897 24.226184,24.233286"
     id="path2" /><path
     style="fill:none;fill-opacity:0;stroke:#ffffff;stroke-width:1;stroke-linecap:round;stroke-linejoin:round;stroke-opacity:1"
     d="m 17.38313,17.505261 c 9.807478,-4.086894 19.229668,-5.513785 25.78776,-3.231369"
     id="path1" /><path
     style="fill:none;fill-opacity:0;stroke:#ffffff;stroke-width:1;stroke-linecap:round;stroke-linejoin:round;stroke-opacity:1"
     d="M 13.33889,10.439781 C 21.620855,6.7391932 29.163249,5.0414729 35.924154,6.1029505"
     id="path15" /></svg>
