<?xml version="1.0" encoding="UTF-8" standalone="no"?>
<svg
   viewBox="0 0 48 48"
   version="1.1"
   id="svg1"
   sodipodi:docname="watermelon_game.svg"
   inkscape:version="1.3.2 (091e20ef0f, 2023-11-25)"
   xml:space="preserve"
   xmlns:inkscape="http://www.inkscape.org/namespaces/inkscape"
   xmlns:sodipodi="http://sodipodi.sourceforge.net/DTD/sodipodi-0.dtd"
   xmlns="http://www.w3.org/2000/svg"
   xmlns:svg="http://www.w3.org/2000/svg"><sodipodi:namedview
     id="namedview1"
     pagecolor="#505050"
     bordercolor="#eeeeee"
     borderopacity="1"
     inkscape:showpageshadow="0"
     inkscape:pageopacity="0"
     inkscape:pagecheckerboard="0"
     inkscape:deskcolor="#505050"
     inkscape:zoom="12.59534"
     inkscape:cx="-4.803364"
     inkscape:cy="30.209587"
     inkscape:window-width="1918"
     inkscape:window-height="1053"
     inkscape:window-x="0"
     inkscape:window-y="0"
     inkscape:window-maximized="1"
     inkscape:current-layer="svg1" /><defs
     id="defs1"><style
       id="style1">.a { fill:none;stroke:#fff;stroke-linecap:round;stroke-linejoin:round; }
</style></defs><path
     style="fill:none;fill-opacity:0.;stroke:#ffffff;stroke-linecap:round;stroke-linejoin:round;stroke-dasharray:none;stroke-dashoffset:0.7;stroke-opacity:1"
     d="m 9.5,5.5 h 29 c 2.216,0 4,1.784 4,4 v 29 c 0,2.216 -1.784,4 -4,4 h -29 c -2.216,0 -4,-1.784 -4,-4 v -29 c 0,-2.216 1.784,-4 4,-4 z"
     id="path34" /><path
     style="fill:none;fill-opacity:0.;stroke:#ffffff;stroke-linecap:round;stroke-linejoin:round;stroke-dasharray:none;stroke-dashoffset:0.7;stroke-opacity:1"
     d="M 22.953761,13.328136 C 21.457216,13.776648 20.471972,12.943899 20.284379,11.724191 20.015074,9.9731958 21.8499,7.2826389 24.292517,6.5983178 25.889908,6.1507944 26.139604,8.2599506 26.13492,11.061091"
     id="path33" /><path
     style="fill:none;fill-opacity:0.;stroke:#ffffff;stroke-linecap:round;stroke-linejoin:round;stroke-dasharray:none;stroke-dashoffset:0.7;stroke-opacity:1"
     d="M 20.377323,12.118412 C 15.838677,14.477086 11.15148,23.257049 17.226135,31.137398"
     id="path32" /><path
     style="fill:none;fill-opacity:0.;stroke:#ffffff;stroke-linecap:round;stroke-linejoin:round;stroke-dasharray:none;stroke-dashoffset:0.7;stroke-opacity:1"
     d="M 26.113218,9.7937012 C 36.676056,7.5225517 46.128019,21.569438 37.047404,29.802474"
     id="path31" /><path
     style="fill:none;fill-opacity:0.;stroke:#ffffff;stroke-linecap:round;stroke-linejoin:round;stroke-dasharray:none;stroke-dashoffset:0.7;stroke-opacity:1"
     d="m 14.342187,23.370921 c 2.590606,-4.871278 6.766507,-5.15095 10.784311,-4.503348 2.215182,-4.507918 8.939566,-6.867846 13.54101,-3.398502"
     id="path30" /><path
     style="fill:none;fill-opacity:0.;stroke:#ffffff;stroke-linecap:round;stroke-linejoin:round;stroke-dasharray:none;stroke-dashoffset:0.7;stroke-opacity:1"
     d="m 33.099967,24.629146 c -1.061886,-0.09628 -1.875068,-0.986523 -1.875068,-2.052764 0,-1.13836 0.922824,-2.061184 2.061184,-2.061184 1.13836,0 2.061184,0.922824 2.061184,2.061184 v 0 c 0,0.356464 0.04451,0.462836 -0.04701,0.802517 z"
     id="path29" /><path
     style="fill:none;fill-opacity:0.;stroke:#ffffff;stroke-linecap:round;stroke-linejoin:round;stroke-dasharray:none;stroke-dashoffset:0.7;stroke-opacity:1"
     d="m 24.279876,27.909251 c 0.345026,-0.377622 0.53571,-0.870532 0.53571,-1.38182 v 0 c 0,-1.134429 -0.919637,-2.054065 -2.054066,-2.054065 -1.134429,0 -2.054066,0.919636 -2.054066,2.054065 0,0.810877 0.477041,1.545866 1.217817,1.875686 0.773288,-0.225302 1.536248,-0.346489 2.354605,-0.493866 z"
     id="path28" /><path
     style="fill:none;fill-opacity:0.;stroke:#ffffff;stroke-linecap:round;stroke-linejoin:round;stroke-dasharray:none;stroke-dashoffset:0.7;stroke-opacity:1"
     d="M 36.795639,23.560152 34.739084,24.65112"
     id="path27" /><path
     style="fill:none;fill-opacity:0.;stroke:#ffffff;stroke-linecap:round;stroke-linejoin:round;stroke-dasharray:none;stroke-dashoffset:0.7;stroke-opacity:1"
     d="m 21.204967,29.794808 1.930706,-0.858799"
     id="path26" /><path
     style="fill:none;fill-opacity:0.;stroke:#ffffff;stroke-linecap:round;stroke-linejoin:round;stroke-dasharray:none;stroke-dashoffset:0.7;stroke-opacity:1"
     d="m 38.980681,15.615592 c 0.41037,-1.314145 2.290005,-1.888471 3.433142,-0.909939"
     id="path25" /><path
     style="fill:none;fill-opacity:0.;stroke:#ffffff;stroke-linecap:round;stroke-linejoin:round;stroke-dasharray:none;stroke-dashoffset:0.7;stroke-opacity:1"
     d="m 42.500284,25.886591 c -0.964328,0.853395 -2.163817,1.223638 -3.080905,0.970627"
     id="path24" /><path
     style="fill:none;fill-opacity:0.;stroke:#ffffff;stroke-linecap:round;stroke-linejoin:round;stroke-dasharray:none;stroke-dashoffset:0.7;stroke-opacity:1"
     d="m 40.288972,18.977721 c 0.501084,-0.957298 1.304358,-1.521852 2.211434,-1.291167"
     id="path23" /><path
     style="fill:none;fill-opacity:0.;stroke:#ffffff;stroke-linecap:round;stroke-linejoin:round;stroke-dasharray:none;stroke-dashoffset:0.7;stroke-opacity:1"
     d="m 14.15248,22.179388 c -4.006099,1.140629 -4.082804,7.017879 -1.114591,9.612753 1.086346,0.949706 2.072672,1.10391 3.1787,0.978734"
     id="path22" /><path
     style="fill:none;fill-opacity:0.;stroke:#ffffff;stroke-linecap:round;stroke-linejoin:round;stroke-dasharray:none;stroke-dashoffset:0.7;stroke-opacity:1"
     d="m 12.964593,26.877026 c -0.205712,-1.076979 0.775057,-1.90395 1.299696,-2.060558"
     id="path21" /><path
     style="fill:none;fill-opacity:0.;stroke:#ffffff;stroke-linecap:round;stroke-linejoin:round;stroke-dasharray:none;stroke-dashoffset:0.7;stroke-opacity:1"
     d="m 37.518716,29.349348 c 2.560592,0.56174 4.313684,3.310168 5.064781,5.650694"
     id="path20" /><path
     style="fill:none;fill-opacity:0.;stroke:#ffffff;stroke-linecap:round;stroke-linejoin:round;stroke-dasharray:none;stroke-dashoffset:0.7;stroke-opacity:1"
     d="M 35.312373,30.433049 33.469105,31.12596 30.88407,30.821389 c -2.321287,-0.336409 -3.811422,0.635044 -3.505307,1.595253 l 2.91356,1.405192 c 1.761558,0.849589 4.442487,1.970465 5.848037,1.700017"
     id="path19" /><path
     style="fill:none;fill-opacity:0.;stroke:#ffffff;stroke-linecap:round;stroke-linejoin:round;stroke-dasharray:none;stroke-dashoffset:0.7;stroke-opacity:1"
     d="m 34.911819,38.602337 c -1.005869,0.08468 -3.26802,1.948469 -3.203451,3.881013"
     id="path18" /><path
     style="fill:none;fill-opacity:0.;stroke:#ffffff;stroke-linecap:round;stroke-linejoin:round;stroke-dasharray:none;stroke-dashoffset:0.7;stroke-opacity:1"
     d="m 31.15326,25.88999 c -0.111588,1.350001 -1.262028,1.356506 -2.165127,1.193934 -0.416668,0.67665 -2.117232,1.475114 -2.385222,0.619107"
     id="path17" /><path
     style="fill:none;fill-opacity:0.;stroke:#ffffff;stroke-linecap:round;stroke-linejoin:round;stroke-dasharray:none;stroke-dashoffset:0.7;stroke-opacity:1"
     d="m 30.400798,27.040893 c 0.30179,1.433791 -1.941453,1.528799 -2.2974,0.772192"
     id="path16" /><path
     style="fill:none;fill-opacity:0.;stroke:#ffffff;stroke-linecap:round;stroke-linejoin:round;stroke-dasharray:none;stroke-dashoffset:0.7;stroke-opacity:1"
     d="m 28.122452,37.534409 a 0.82166332,0.82166332 0 0 1 -0.821663,0.821663 0.82166332,0.82166332 0 0 1 -0.821663,-0.821663 0.82166332,0.82166332 0 0 1 0.821663,-0.821664 0.82166332,0.82166332 0 0 1 0.821663,0.821664 z"
     id="path15" /><path
     style="fill:none;fill-opacity:0.;stroke:#ffffff;stroke-linecap:round;stroke-linejoin:round;stroke-dasharray:none;stroke-dashoffset:0.7;stroke-opacity:1"
     d="m 22.400322,35.792431 a 0.82166332,0.82166332 0 0 1 -0.821663,0.821663 0.82166332,0.82166332 0 0 1 -0.821663,-0.821663 0.82166332,0.82166332 0 0 1 0.821663,-0.821663 0.82166332,0.82166332 0 0 1 0.821663,0.821663 z"
     id="path14" /><path
     style="fill:none;fill-opacity:0.;stroke:#ffffff;stroke-linecap:round;stroke-linejoin:round;stroke-dasharray:none;stroke-dashoffset:0.7;stroke-opacity:1"
     d="m 27.078198,35.57324 0.949304,-0.189623"
     id="path13" /><path
     style="fill:none;fill-opacity:0.;stroke:#ffffff;stroke-linecap:round;stroke-linejoin:round;stroke-dasharray:none;stroke-dashoffset:0.7;stroke-opacity:1"
     d="M 22.949784,33.771758 23.172278,34.277"
     id="path12" /><path
     style="fill:none;fill-opacity:0.;stroke:#ffffff;stroke-linecap:round;stroke-linejoin:round;stroke-dasharray:none;stroke-dashoffset:0.7;stroke-opacity:1"
     d="m 24.655108,37.508187 c 0.62543,0.0966 0.04418,1.019268 1.154706,1.34936"
     id="path11" /><path
     style="fill:none;fill-opacity:0.;stroke:#ffffff;stroke-linecap:round;stroke-linejoin:round;stroke-dasharray:none;stroke-dashoffset:0.7;stroke-opacity:1"
     d="m 23.691191,37.298908 c -0.561141,-0.292601 -0.639296,0.795084 -1.729586,0.403298"
     id="path10" /><path
     style="fill:none;fill-opacity:0.;stroke:#ffffff;stroke-linecap:round;stroke-linejoin:round;stroke-dasharray:none;stroke-dashoffset:0.7;stroke-opacity:1"
     d="m 22.959528,38.118122 c -0.634346,1.308386 0.772922,1.825663 1.484917,0.678301"
     id="path9" /><path
     style="fill:none;fill-opacity:0.;stroke:#ffffff;stroke-linecap:round;stroke-linejoin:round;stroke-dasharray:none;stroke-dashoffset:0.7;stroke-opacity:1"
     d="m 17.572186,34.873299 c -1.3423,-0.0934 -2.281054,-1.970683 -0.196586,-3.871022 1.553237,-1.416033 4.555818,-0.03489 3.36842,2.041799 z"
     id="path8" /><path
     style="fill:none;fill-opacity:0.;stroke:#ffffff;stroke-linecap:round;stroke-linejoin:round;stroke-dasharray:none;stroke-dashoffset:0.7;stroke-opacity:1"
     d="m 26.970815,31.472027 c 0.144997,-0.405591 0.04912,-0.893567 -0.01608,-1.371053 -0.549792,-0.573322 -1.166827,-0.889603 -1.790248,-1.181474 -0.27079,0.654461 -0.339954,1.334681 -0.02614,2.063827"
     id="path7" /><path
     style="fill:none;fill-opacity:0.;stroke:#ffffff;stroke-linecap:round;stroke-linejoin:round;stroke-dasharray:none;stroke-dashoffset:0.7;stroke-opacity:1"
     d="m 27.328549,29.976244 c 0.418845,-0.120918 0.83769,-0.08325 1.256535,0.08085 0.19503,0.31014 0.08136,0.539701 0,0.777696"
     id="path6" /><path
     style="fill:none;fill-opacity:0.;stroke:#ffffff;stroke-linecap:round;stroke-linejoin:round;stroke-dasharray:none;stroke-dashoffset:0.7;stroke-opacity:1"
     d="m 30.428353,33.883654 c 1.366809,1.367888 2.689339,3.547432 2.593197,5.94173"
     id="path5" /><path
     style="fill:none;fill-opacity:0.;stroke:#ffffff;stroke-linecap:round;stroke-linejoin:round;stroke-dasharray:none;stroke-dashoffset:0.7;stroke-opacity:1"
     d="m 16.174841,33.518129 c -1.76691,1.59904 -3.598581,4.873477 -2.611123,8.981297"
     id="path4" /><path
     style="fill:none;fill-opacity:0.;stroke:#ffffff;stroke-linecap:round;stroke-linejoin:round;stroke-dasharray:none;stroke-dashoffset:0.7;stroke-opacity:1"
     d="m 26.970815,31.472027 c 0.144997,-0.405591 0.04912,-0.893567 -0.01608,-1.371053 -0.549792,-0.573322 -1.166827,-0.889603 -1.790248,-1.181474 -0.27079,0.654461 -0.339954,1.334681 -0.06422,2.043339 -1.321127,-0.273281 -2.599838,-0.221627 -3.736826,0.21687"
     id="path3" /><path
     style="fill:none;fill-opacity:0.;stroke:#ffffff;stroke-linecap:round;stroke-linejoin:round;stroke-dasharray:none;stroke-dashoffset:0.7;stroke-opacity:1"
     d="m 27.328549,29.976244 c 0.418845,-0.120918 0.83769,-0.08325 1.256535,0.08085 0.19503,0.31014 0.08136,0.539701 0,0.777696"
     id="path2" /><path
     style="fill:none;fill-opacity:0.;stroke:#ffffff;stroke-linecap:round;stroke-linejoin:round;stroke-dasharray:none;stroke-dashoffset:0.7;stroke-opacity:1"
     d="M 14.204556,36.197938 C 12.24775,36.110715 11.096973,34.578023 11.2421,33.426977 11.247,31.088756 9.449874,31.173199 8.3560389,32.258569 7.7512435,32.858683 7.5826551,33.976078 7.610098,34.73658 c 0.1381354,3.828041 2.710405,5.669977 5.676594,5.349492"
     id="path1" /><path
     style="fill:none;fill-opacity:0.;stroke:#ffffff;stroke-linecap:round;stroke-linejoin:round;stroke-dasharray:none;stroke-dashoffset:0.7;stroke-opacity:1"
     d="m 15.643403,11.080468 c 1.17966,1.218896 -0.216445,2.891717 0.08443,3.760658 -0.966623,-0.438525 -2.094549,0.278228 -2.875054,0.04629 -1.298798,-0.385965 -1.177515,-1.600381 -0.836765,-2.078733 0.378788,-0.531751 0.974125,-0.497802 1.553331,-0.568162 -0.315623,-0.987556 0.876136,-2.397809 2.074054,-1.160048 z"
     id="path53" /></svg>
