<?xml version="1.0" encoding="UTF-8" standalone="no"?>
<svg
   viewBox="0 0 48 48"
   version="1.1"
   id="svg1"
   sodipodi:docname="whiteout_survival.svg"
   inkscape:version="1.3.2 (091e20ef0f, 2023-11-25)"
   xml:space="preserve"
   xmlns:inkscape="http://www.inkscape.org/namespaces/inkscape"
   xmlns:sodipodi="http://sodipodi.sourceforge.net/DTD/sodipodi-0.dtd"
   xmlns="http://www.w3.org/2000/svg"
   xmlns:svg="http://www.w3.org/2000/svg"><sodipodi:namedview
     id="namedview1"
     pagecolor="#505050"
     bordercolor="#eeeeee"
     borderopacity="1"
     inkscape:showpageshadow="0"
     inkscape:pageopacity="0"
     inkscape:pagecheckerboard="0"
     inkscape:deskcolor="#505050"
     inkscape:zoom="4.453125"
     inkscape:cx="30.203509"
     inkscape:cy="34.919298"
     inkscape:window-width="1918"
     inkscape:window-height="1053"
     inkscape:window-x="0"
     inkscape:window-y="0"
     inkscape:window-maximized="0"
     inkscape:current-layer="svg1" /><defs
     id="defs1"><style
       id="style1">.a { fill:none;stroke:#fff;stroke-linecap:round;stroke-linejoin:round; }
</style></defs><path
     style="fill:none;fill-opacity:0;stroke:#ffffff;stroke-width:1;stroke-linecap:round;stroke-linejoin:round;stroke-opacity:1"
     d="M 10.111148,7.5512042 C 7.5829867,15.67931 6.810194,23.550317 6.276879,32.893838 c 1.4347668,3.009476 2.3521005,4.72456 4.991444,8.092683 3.198515,2.242061 16.523342,1.964919 27.064749,-0.644865 3.781864,-8.546691 3.492614,-14.988642 3.28439,-25.78281 C 39.097999,10.424738 37.412696,8.4390194 34.828281,5.7816228 25.167022,5.0777915 19.015765,5.695967 10.111148,7.5512042 Z"
     id="path8" /><path
     style="fill:none;fill-opacity:0;stroke:#ffffff;stroke-width:1;stroke-linecap:round;stroke-linejoin:round;stroke-opacity:1"
     d="m 26.094139,24.025077 h 7.185757 c 0.674754,0.514143 1.97601,3.069955 2.285879,3.635127 0.309874,0.565171 1.808809,3.116619 1.572277,3.526314 -0.236529,0.40967 -3.195549,0.387258 -3.839925,0.401485 -0.644373,0.01423 -3.508334,0.165174 -4.290959,-0.162127"
     id="path7" /><path
     style="fill:none;fill-opacity:0;stroke:#ffffff;stroke-width:1;stroke-linecap:round;stroke-linejoin:round;stroke-opacity:1"
     d="m 24.158027,23.026669 -3.696315,-6.402393 c -0.782625,-0.327299 -3.646587,-0.17635 -4.290959,-0.162123 -0.644375,0.01422 -3.603395,-0.0082 -3.839927,0.401484 -0.236529,0.409693 1.262406,2.961141 1.572278,3.526314 0.309868,0.565171 1.611126,3.120983 2.28588,3.635125 h 7.275198"
     id="path5" /><path
     style="fill:none;fill-opacity:0;stroke:#ffffff;stroke-width:1;stroke-linecap:round;stroke-linejoin:round;stroke-opacity:1"
     d="m 23.97767,25.335877 -3.515958,6.089999 c 0.107872,0.841443 1.670574,3.246305 2.005079,3.797252 0.334504,0.550951 1.794589,3.124829 2.267648,3.124829 0.473062,0 1.933147,-2.573878 2.267649,-3.124829 0.334505,-0.550947 1.897208,-2.955809 2.00508,-3.797252 l -3.481022,-6.029485"
     id="path4" /><path
     style="fill:none;fill-opacity:0;stroke:#ffffff;stroke-width:1;stroke-linecap:round;stroke-linejoin:round;stroke-opacity:1"
     d="m 33.279896,24.025077 c 0.674754,-0.514144 1.97601,-3.069956 2.285879,-3.635128 0.309874,-0.565171 1.808809,-3.116619 1.572277,-3.526314 -0.236529,-0.40967 -3.195549,-0.387257 -3.839925,-0.401484 -0.644373,-0.01423 -3.508334,-0.165175 -4.290959,0.162125 l -3.685695,6.383997"
     id="path3" /><path
     style="fill:none;fill-opacity:0;stroke:#ffffff;stroke-width:1;stroke-linecap:round;stroke-linejoin:round;stroke-opacity:1"
     d="m 29.007168,16.624276 c -0.107872,-0.841443 -1.670575,-3.246304 -2.00508,-3.797252 -0.334502,-0.550951 -1.794587,-3.1248301 -2.267649,-3.1248301 -0.473059,0 -1.933144,2.5738791 -2.267648,3.1248301 -0.334505,0.550948 -1.897207,2.955809 -2.005079,3.797252"
     id="path2" /><path
     style="fill:none;fill-opacity:0;stroke:#ffffff;stroke-width:1;stroke-linecap:round;stroke-linejoin:round;stroke-opacity:1"
     d="m 16.188984,24.025076 c -0.674754,0.514143 -1.976012,3.069955 -2.28588,3.635126 -0.309872,0.565173 -1.808807,3.116621 -1.572278,3.526314 0.236532,0.409695 3.195552,0.387265 3.839927,0.401485 0.644372,0.01423 3.508334,0.165175 4.290959,-0.162125"
     id="path1" /><path
     style="fill:none;fill-opacity:0;stroke:#ffffff;stroke-width:1;stroke-linecap:round;stroke-linejoin:round;stroke-opacity:1"
     d="m 26.158956,24.248204 c 0,0.220755 -0.498665,1.084494 -0.689839,1.194872 -0.191173,0.110377 -1.188503,0.110377 -1.379677,0 -0.191174,-0.110378 -0.689839,-0.974117 -0.689839,-1.194872 0,-0.220755 0.498665,-1.084494 0.689839,-1.194871 0.191174,-0.110378 1.188504,-0.110378 1.379677,0 0.191174,0.110377 0.689839,0.974116 0.689839,1.194871 z"
     id="path6" /></svg>
