<?xml version="1.0" encoding="UTF-8" standalone="no"?>
<svg
   viewBox="0 0 48 48"
   version="1.1"
   id="svg1"
   sodipodi:docname="zombie_catchers.svg"
   inkscape:version="1.3.2 (091e20ef0f, 2023-11-25)"
   xml:space="preserve"
   xmlns:inkscape="http://www.inkscape.org/namespaces/inkscape"
   xmlns:sodipodi="http://sodipodi.sourceforge.net/DTD/sodipodi-0.dtd"
   xmlns="http://www.w3.org/2000/svg"
   xmlns:svg="http://www.w3.org/2000/svg"><sodipodi:namedview
     id="namedview1"
     pagecolor="#505050"
     bordercolor="#eeeeee"
     borderopacity="1"
     inkscape:showpageshadow="0"
     inkscape:pageopacity="0"
     inkscape:pagecheckerboard="0"
     inkscape:deskcolor="#505050"
     inkscape:zoom="6.4597151"
     inkscape:cx="-19.428101"
     inkscape:cy="33.360604"
     inkscape:window-width="1918"
     inkscape:window-height="1053"
     inkscape:window-x="0"
     inkscape:window-y="0"
     inkscape:window-maximized="1"
     inkscape:current-layer="svg1" /><defs
     id="defs1"><style
       id="style1">.a { fill:none;stroke:#fff;stroke-linecap:round;stroke-linejoin:round; }
</style></defs><path
     style="fill:#000000;fill-opacity:0;stroke:#ffffff;stroke-width:1;stroke-linecap:round;stroke-linejoin:round;stroke-opacity:1"
     d="m 38.5,5.5 c 2.215996,0 4,1.7840044 4,4 v 29 c 0,1.730763 -1.088261,3.198007 -2.620635,3.757581"
     id="path28" /><path
     style="fill:#000000;fill-opacity:0;stroke:#ffffff;stroke-width:1;stroke-linecap:round;stroke-linejoin:round;stroke-opacity:1"
     d="M 5.5,27.653235 V 9.5 c 0,-2.2159956 1.7840044,-4 4,-4 v 0 h 16.388672"
     id="path27" /><path
     style="fill:#000000;fill-opacity:0;stroke:#ffffff;stroke-width:1;stroke-linecap:round;stroke-linejoin:round;stroke-opacity:1"
     d="M 30.808593,42.499999 9.5,42.5 c -2.2159956,0 -4,-1.784004 -4,-4 v -6.372658"
     id="path26" /><path
     style="fill:#000000;fill-opacity:0;stroke:#ffffff;stroke-width:1;stroke-linecap:round;stroke-linejoin:round;stroke-opacity:1"
     d="m 36.730953,6.2695541 c 0,0.9247505 -0.749535,1.6744089 -1.674133,1.674409 -0.924598,-1e-7 -1.674133,-0.7496585 -1.674133,-1.674409 0,-0.9247504 0.749535,-1.6744088 1.674133,-1.6744089 0.924598,1e-7 1.674133,0.7496585 1.674133,1.6744089 z"
     id="path25" /><path
     style="fill:#000000;fill-opacity:0;stroke:#ffffff;stroke-width:1;stroke-linecap:round;stroke-linejoin:round;stroke-opacity:1"
     d="m 30.736779,5.9672012 c 0,0.8103131 -0.65678,1.4672016 -1.46696,1.4672014 -0.810179,-4e-7 -1.466959,-0.6568887 -1.466959,-1.4672014 0,-0.8103126 0.65678,-1.4672009 1.466959,-1.4672013 0.81018,-2e-7 1.46696,0.6568883 1.46696,1.4672013 z"
     id="path24" /><path
     style="fill:#000000;fill-opacity:0;stroke:#ffffff;stroke-width:1;stroke-linecap:round;stroke-linejoin:round;stroke-opacity:1"
     d="M 34.252203,7.7309872 C 32.958291,9.5903243 32.113082,11.935075 31.645795,13.975164"
     id="path23" /><path
     style="fill:#000000;fill-opacity:0;stroke:#ffffff;stroke-width:1;stroke-linecap:round;stroke-linejoin:round;stroke-opacity:1"
     d="M 28.795097,7.3517143 C 27.71593,9.0004765 26.798115,10.832099 26.502204,12.88888"
     id="path22" /><path
     style="fill:#000000;fill-opacity:0;stroke:#ffffff;stroke-width:1;stroke-linecap:round;stroke-linejoin:round;stroke-opacity:1"
     d="m 34.103693,14.007905 c 0.720771,0.810729 1.301284,1.966974 1.719225,3.596774 0.818663,3.192455 0.848653,3.747272 0.941709,9.770027"
     id="path21" /><path
     style="fill:#000000;fill-opacity:0;stroke:#ffffff;stroke-width:1;stroke-linecap:round;stroke-linejoin:round;stroke-opacity:1"
     d="m 28.255274,12.266362 c 0.466084,-0.02348 0.917603,-0.03343 1.353231,-0.02222"
     id="path20" /><path
     style="fill:#000000;fill-opacity:0;stroke:#ffffff;stroke-width:1;stroke-linecap:round;stroke-linejoin:round;stroke-opacity:1"
     d="m 33.101581,21.415315 c -2.994048,0.379432 -5.779561,0.510422 -9.26412,0.520152 -1.64538,0.0046 -4.949229,0.04472 -4.926869,-1.475115 0.0087,-0.588621 1.843103,-0.705438 1.954208,-1.66867 0.371644,-3.221974 1.569646,-5.060988 3.984685,-5.928736"
     id="path19" /><path
     style="fill:#000000;fill-opacity:0;stroke:#ffffff;stroke-width:1;stroke-linecap:round;stroke-linejoin:round;stroke-opacity:1"
     d="m 34.493406,27.513934 c 2.055103,2.253782 3.039725,3.777711 4.043708,5.987383"
     id="path18" /><path
     style="fill:#000000;fill-opacity:0;stroke:#ffffff;stroke-width:1;stroke-linecap:round;stroke-linejoin:round;stroke-opacity:1"
     d="m 20.56421,21.849989 c -0.275677,0.595729 0.431664,2.974215 1.911301,3.056036 1.504433,0.08319 2.078809,-1.056439 1.992091,-2.934979"
     id="path17" /><path
     style="fill:#000000;fill-opacity:0;stroke:#ffffff;stroke-width:1;stroke-linecap:round;stroke-linejoin:round;stroke-opacity:1"
     d="m 25.018384,22.265429 c -0.05292,1.225455 0.883329,2.693552 2.946002,2.739314 1.641542,0.03642 2.499497,-1.138503 2.519382,-3.004263"
     id="path16" /><path
     style="fill:#000000;fill-opacity:0;stroke:#ffffff;stroke-width:1;stroke-linecap:round;stroke-linejoin:round;stroke-opacity:1"
     d="m 28.484921,22.259004 v 1.251588"
     id="path15" /><path
     style="fill:#000000;fill-opacity:0;stroke:#ffffff;stroke-width:1;stroke-linecap:round;stroke-linejoin:round;stroke-opacity:1"
     d="m 22.880375,22.259004 v 1.251588"
     id="path14" /><path
     style="fill:#000000;fill-opacity:0;stroke:#ffffff;stroke-width:1;stroke-linecap:round;stroke-linejoin:round;stroke-opacity:1"
     d="m 21.214355,24.155462 c 0.07768,0.596254 0.1275,0.884171 -0.195958,1.199765 -0.333684,0.216156 -0.506753,0.333736 -1.00127,0.649331 -0.244567,0.15608 0.232915,0.530523 0.685513,0.599247 3.466648,0.526383 9.543426,0.699692 12.766871,-1.906645"
     id="path13" /><path
     style="fill:#000000;fill-opacity:0;stroke:#ffffff;stroke-width:1;stroke-linecap:round;stroke-linejoin:round;stroke-opacity:1"
     d="m 33.217873,25.148356 c -0.225618,3.464163 -2.877722,6.131555 -6.08346,6.219668 -1.925889,0.05294 -3.769016,-0.263778 -3.012796,-1.317567"
     id="path12" /><path
     style="fill:#000000;fill-opacity:0;stroke:#ffffff;stroke-width:1;stroke-linecap:round;stroke-linejoin:round;stroke-opacity:1"
     d="m 21.813245,26.747156 c 0.283523,0.931726 0.351479,1.883733 1.310073,2.7623 0.193379,0.177236 0.415109,-0.118427 0.488411,-0.30541 0.243032,-0.619944 0.144778,-1.492061 0.155716,-2.308053"
     id="path11" /><path
     style="fill:#000000;fill-opacity:0;stroke:#ffffff;stroke-width:1;stroke-linecap:round;stroke-linejoin:round;stroke-opacity:1"
     d="m 28.256028,26.758147 c -0.02051,1.281096 -0.115964,3.319105 0.748464,2.740567 0.877023,-0.586967 1.497282,-1.781239 1.74961,-3.255901"
     id="path10" /><path
     style="fill:#000000;fill-opacity:0;stroke:#ffffff;stroke-width:1;stroke-linecap:round;stroke-linejoin:round;stroke-opacity:1"
     d="m 36.122751,37.259926 c 0.333192,-0.05338 0.707508,-0.02442 1.048261,0.24767 -0.05944,-2.755779 1.27815,-4.59507 2.285792,-4.190463 1.340797,0.53838 2.051855,1.799419 1.444539,3.629788 -0.721985,2.175963 -1.626779,3.887712 -3.075685,4.920811 -0.686165,1.301619 -3.701416,1.91302 -4.909424,0.818805 -0.328437,-0.297499 0.139025,-0.929279 -0.289582,-1.765336 -0.331816,-0.647252 -0.517849,-1.558819 0.113643,-1.354019 1.534827,0.497764 2.331022,-0.06994 3.08012,-0.840297"
     id="path9" /><path
     style="fill:#000000;fill-opacity:0;stroke:#ffffff;stroke-width:1;stroke-linecap:round;stroke-linejoin:round;stroke-opacity:1"
     d="m 18.589416,35.880863 0.530413,-1.26316 c 0.334324,-0.79618 0.932843,-0.932758 1.516154,-0.667704 1.531755,0.69602 2.216598,1.567513 2.531983,2.321561 -0.06347,0.72782 -0.404786,1.229177 -0.958438,1.352151 -1.344497,0.298631 -2.535198,0.179764 -3.705302,-0.492277 -0.552051,-0.317067 -0.6607,-1.04035 -0.647149,-1.753324"
     id="path8" /><path
     style="fill:#000000;fill-opacity:0;stroke:#ffffff;stroke-width:1;stroke-linecap:round;stroke-linejoin:round;stroke-opacity:1"
     d="m 25.744557,40.225337 c 1.925387,0.719409 4.379173,0.748393 6.650429,0.11169"
     id="path7" /><path
     style="fill:#000000;fill-opacity:0;stroke:#ffffff;stroke-width:1;stroke-linecap:round;stroke-linejoin:round;stroke-opacity:1"
     d="m 24.235393,39.43342 c -0.71324,0.71841 -1.207253,1.965346 -1.460419,3.067121"
     id="path6" /><path
     style="fill:#000000;fill-opacity:0;stroke:#ffffff;stroke-width:1;stroke-linecap:round;stroke-linejoin:round;stroke-opacity:1"
     d="m 22.686026,37.399907 2.935594,0.648096 c 1.405027,0.31019 1.499743,-0.19801 2.965256,0.123786 l 5.590266,1.227505 c 0.775074,0.17019 1.291863,-0.357824 1.843867,-0.854658 l 0.197872,-2.495633 c 0.115571,-1.457636 -1.594523,-1.852835 -2.745648,-2.223802 L 19.558454,30.490194 c -0.341509,-0.08185 -1.052885,-0.03697 -1.052885,-0.03697 -0.224164,0.07517 -0.432152,0.26431 -0.611063,0.535681"
     id="path5" /><path
     style="fill:#000000;fill-opacity:0;stroke:#ffffff;stroke-width:1;stroke-linecap:round;stroke-linejoin:round;stroke-opacity:1"
     d="m 16.488294,33.898433 1.329219,0.356222"
     id="path4" /><path
     style="fill:#000000;fill-opacity:0;stroke:#ffffff;stroke-width:1;stroke-linecap:round;stroke-linejoin:round;stroke-opacity:1"
     d="m 17.134163,30.788746 1.38192,0.370346"
     id="path3" /><path
     style="fill:#000000;fill-opacity:0;stroke:#ffffff;stroke-width:1;stroke-linecap:round;stroke-linejoin:round;stroke-opacity:1"
     d="m 17.731117,34.24375 c 0.509952,0.125282 0.825491,-0.745812 0.951622,-1.255634 0.150427,-0.60803 0.308027,-1.729607 -0.305753,-1.854053"
     id="path2" /><path
     style="fill:#000000;fill-opacity:0;stroke:#ffffff;stroke-width:1;stroke-linecap:round;stroke-linejoin:round;stroke-opacity:1"
     d="m 11.939477,31.219624 5.272345,1.272017"
     id="path1" /><path
     style="fill:#000000;fill-opacity:0;stroke:#ffffff;stroke-width:1;stroke-linecap:round;stroke-linejoin:round;stroke-opacity:1"
     d="M 13.949131,35.262679 C 11.1753,33.334297 8.3532227,31.314437 5.5123981,29.725143 9.004448,29.432472 12.440507,28.88215 15.871653,28.30922 c -1.38914,1.42639 -2.314119,4.313064 -1.922522,6.953459 z"
     id="path37" /></svg>
