<?xml version="1.0" encoding="UTF-8" standalone="no"?>
<svg
   viewBox="0 0 48 48"
   version="1.1"
   id="svg1"
   sodipodi:docname="auto_ru.svg"
   inkscape:version="1.3.2 (091e20ef0f, 2023-11-25)"
   xml:space="preserve"
   xmlns:inkscape="http://www.inkscape.org/namespaces/inkscape"
   xmlns:sodipodi="http://sodipodi.sourceforge.net/DTD/sodipodi-0.dtd"
   xmlns="http://www.w3.org/2000/svg"
   xmlns:svg="http://www.w3.org/2000/svg"><sodipodi:namedview
     id="namedview1"
     pagecolor="#505050"
     bordercolor="#eeeeee"
     borderopacity="1"
     inkscape:showpageshadow="0"
     inkscape:pageopacity="0"
     inkscape:pagecheckerboard="0"
     inkscape:deskcolor="#505050"
     inkscape:zoom="12.59534"
     inkscape:cx="28.224725"
     inkscape:cy="9.0112696"
     inkscape:window-width="1918"
     inkscape:window-height="1053"
     inkscape:window-x="0"
     inkscape:window-y="0"
     inkscape:window-maximized="1"
     inkscape:current-layer="svg1" /><defs
     id="defs1"><style
       id="style1">.a { fill:none;stroke:#fff;stroke-linecap:round;stroke-linejoin:round; }
</style></defs><path
     id="path3"
     style="fill:none;stroke:#fff;stroke-width:1stroke-linecap:round;stroke-linejoin:round;stroke-opacity:1"
     d="M 30.912111,30.328801 H 16.215726 m -6.8604102,0 h -1.402654 c -1.9127729,0 -3.4526626,-1.546234 -3.4526626,-3.466888 v -5.536846 l 4.7696916,-5.417692 c 0.548726,-0.623274 1.0119202,-1.24785 2.1524712,-1.24785 h 13.310812 c 0.800745,0 1.659842,0.16981 2.320386,0.624307 l 7.215215,4.964529 6.970537,1.659107 c 1.703079,0.405362 2.260889,1.201551 2.260889,2.272207 v 0 2.682238 c 0,1.920654 -1.53989,3.466888 -3.452663,3.466888 h -2.277063 m 0.05456,-0.486425 a 3.4837452,3.4980978 0 0 1 -3.483745,3.498098 3.4837452,3.4980978 0 0 1 -3.483746,-3.498098 3.4837452,3.4980978 0 0 1 3.483746,-3.498098 3.4837452,3.4980978 0 0 1 3.483745,3.498098 z m -21.555931,0 a 3.4837452,3.4980978 0 0 1 -3.483745,3.498098 3.4837452,3.4980978 0 0 1 -3.4837452,-3.498098 3.4837452,3.4980978 0 0 1 3.4837452,-3.498098 3.4837452,3.4980978 0 0 1 3.483745,3.498098 z" /></svg>
