<?xml version="1.0" encoding="UTF-8" standalone="no"?>
<svg
   viewBox="0 0 48 48"
   version="1.1"
   id="svg1"
   sodipodi:docname="cyan.svg"
   inkscape:version="1.3.2 (091e20ef0f, 2023-11-25)"
   xml:space="preserve"
   xmlns:inkscape="http://www.inkscape.org/namespaces/inkscape"
   xmlns:sodipodi="http://sodipodi.sourceforge.net/DTD/sodipodi-0.dtd"
   xmlns="http://www.w3.org/2000/svg"
   xmlns:svg="http://www.w3.org/2000/svg"><sodipodi:namedview
     id="namedview1"
     pagecolor="#505050"
     bordercolor="#eeeeee"
     borderopacity="1"
     inkscape:showpageshadow="0"
     inkscape:pageopacity="0"
     inkscape:pagecheckerboard="0"
     inkscape:deskcolor="#505050"
     inkscape:zoom="8.90625"
     inkscape:cx="-4.8842105"
     inkscape:cy="32.168421"
     inkscape:window-width="1918"
     inkscape:window-height="1053"
     inkscape:window-x="0"
     inkscape:window-y="0"
     inkscape:window-maximized="1"
     inkscape:current-layer="svg1" /><defs
     id="defs1"><style
       id="style1">.a { fill:none;stroke:#fff;stroke-linecap:round;stroke-linejoin:round; }
</style></defs><path
     id="path5"
     style="fill:none;stroke:#fff;stroke-width:1stroke-linecap:round;stroke-linejoin:round;stroke-opacity:1"
     d="M 30.224604,27.796541 V 38.555594 M 10.828699,43.5 22.52195,29.010729 34.2152,43.5 M 33.435457,11.75191 A 3.134211,3.1222762 0 0 1 30.301246,14.874186 3.134211,3.1222762 0 0 1 27.167035,11.75191 3.134211,3.1222762 0 0 1 30.301246,8.6296344 3.134211,3.1222762 0 0 1 33.435457,11.75191 Z M 37.1713,11.313082 c -0.08838,1.599829 -0.271123,3.154702 -1.545383,4.83497 l -5.324671,7.004696 -5.324672,-7.004696 c -1.27426,-1.680268 -1.457001,-3.235141 -1.545383,-4.83497 0,-3.7627606 3.074102,-6.8130825 6.870055,-6.8130823 3.795952,-2e-7 6.870054,3.0503217 6.870054,6.8130823 z" /></svg>
