<?xml version="1.0" encoding="UTF-8" standalone="no"?>
<svg
   viewBox="0 0 48 48"
   version="1.1"
   id="svg1"
   sodipodi:docname="empik.svg"
   inkscape:version="1.3.2 (091e20ef0f, 2023-11-25)"
   xml:space="preserve"
   xmlns:inkscape="http://www.inkscape.org/namespaces/inkscape"
   xmlns:sodipodi="http://sodipodi.sourceforge.net/DTD/sodipodi-0.dtd"
   xmlns="http://www.w3.org/2000/svg"
   xmlns:svg="http://www.w3.org/2000/svg"><sodipodi:namedview
     id="namedview1"
     pagecolor="#505050"
     bordercolor="#eeeeee"
     borderopacity="1"
     inkscape:showpageshadow="0"
     inkscape:pageopacity="0"
     inkscape:pagecheckerboard="0"
     inkscape:deskcolor="#505050"
     inkscape:zoom="12.59534"
     inkscape:cx="20.602859"
     inkscape:cy="25.207736"
     inkscape:window-width="1918"
     inkscape:window-height="1053"
     inkscape:window-x="0"
     inkscape:window-y="0"
     inkscape:window-maximized="1"
     inkscape:current-layer="svg1" /><defs
     id="defs1"><style
       id="style1">.a { fill:none;stroke:#fff;stroke-linecap:round;stroke-linejoin:round; }
</style></defs><path
     id="line427"
     style="fill:none;stroke:#fff;stroke-width:1;stroke-linecap:round;stroke-linejoin:round;stroke-opacity:1"
     class="t"
     d="m 25.449007,21.695972 v 7.600911 m 0,-4.465534 c 0,1.049496 0.844627,1.900228 1.886591,1.900228 v 0 c 1.041965,0 1.886592,-0.850732 1.886592,-1.900228 v -1.235147 c 0,-1.049497 -0.844627,-1.900229 -1.886592,-1.900229 v 0 c -1.041964,0 -1.886591,0.850732 -1.886591,1.900229 m -12.671175,2.176425 c -0.324965,0.572825 -0.937353,0.958951 -1.639259,0.958951 v 0 c -1.041965,0 -1.8865895,-0.850732 -1.8865895,-1.900229 v -1.235147 c 0,-1.049496 0.8446245,-1.900228 1.8865895,-1.900228 v 0 c 1.041964,0 1.886592,0.850732 1.886592,1.900228 v 0.617573 c 0,0 -3.7731815,0 -3.7731815,0 M 32.727789,19.368196 c 0,0.367314 -0.295628,0.66508 -0.660307,0.66508 -0.364678,0 -0.660307,-0.297766 -0.660307,-0.66508 0,-0.367312 0.29563,-0.665079 0.660307,-0.665079 0.364679,0 0.660307,0.297767 0.660307,0.665079 z m -0.660307,2.327776 v 5.035607 m 3.995263,-2.704217 2.685271,2.692814 m -3.772438,-1.603223 3.415777,-3.423736 m -3.416522,-2.562549 v 7.600911 M 19.175029,23.596202 c 0,-1.049496 0.844626,-1.900228 1.886591,-1.900228 v 0 c 1.041964,0 1.88659,0.850732 1.88659,1.900228 v 3.135376 m -7.546364,-5.035606 v 5.035607 m 0,-3.135377 c 0,-1.049496 0.844627,-1.900228 1.886591,-1.900228 v 0 c 1.041965,0 1.886592,0.850732 1.886592,1.900228 v 3.135376 M 9.5,5.5 h 29 c 2.216,0 4,1.784 4,4 v 29 c 0,2.216 -1.784,4 -4,4 h -29 c -2.216,0 -4,-1.784 -4,-4 v -29 c 0,-2.216 1.784,-4 4,-4 z" /></svg>
