<?xml version="1.0" encoding="UTF-8" standalone="no"?>
<svg
   viewBox="0 0 48 48"
   version="1.1"
   id="svg1"
   sodipodi:docname="fitnotes.svg"
   inkscape:version="1.3.2 (091e20ef0f, 2023-11-25)"
   xml:space="preserve"
   xmlns:inkscape="http://www.inkscape.org/namespaces/inkscape"
   xmlns:sodipodi="http://sodipodi.sourceforge.net/DTD/sodipodi-0.dtd"
   xmlns="http://www.w3.org/2000/svg"
   xmlns:svg="http://www.w3.org/2000/svg"><sodipodi:namedview
     id="namedview1"
     pagecolor="#505050"
     bordercolor="#eeeeee"
     borderopacity="1"
     inkscape:showpageshadow="0"
     inkscape:pageopacity="0"
     inkscape:pagecheckerboard="0"
     inkscape:deskcolor="#505050"
     inkscape:zoom="4.453125"
     inkscape:cx="-27.508772"
     inkscape:cy="17.62807"
     inkscape:window-width="1918"
     inkscape:window-height="1053"
     inkscape:window-x="0"
     inkscape:window-y="0"
     inkscape:window-maximized="1"
     inkscape:current-layer="svg1" /><defs
     id="defs1"><style
       id="style1">.a { fill:none;stroke:#fff;stroke-linecap:round;stroke-linejoin:round; }
</style></defs><path
     id="path294"
     style="display:inline;fill:none;stroke:#fff;stroke-width:1;stroke-linecap:round;stroke-linejoin:round;stroke-opacity:1"
     d="m 20.524516,35.145448 h 1.647244 c 0.462155,0 0.834218,0.37203 0.834218,0.834143 v 1.647097 c 0,0.462114 -0.372063,0.834143 -0.834218,0.834143 h -1.647244 c -0.462155,0 -0.834218,-0.372029 -0.834218,-0.834143 v -1.647097 c 0,-0.462113 0.372063,-0.834143 0.834218,-0.834143 v 0 m 4.79924,-9.635087 h 1.647243 c 0.462155,0 0.834217,0.372029 0.834217,0.834143 V 27.9916 c 0,0.462114 -0.372062,0.834144 -0.834217,0.834144 h -1.647243 c -0.462155,0 -0.834218,-0.37203 -0.834218,-0.834144 v -1.647096 c 0,-0.462114 0.372063,-0.834143 0.834218,-0.834143 v 0 m 4.429773,9.194171 6.29841,-2.889059 m 0.892778,1.945985 -6.298411,2.889058 M 25.21447,34.806974 C 25.075487,34.504033 24.751544,34.357417 24.488141,34.47824 l -0.239123,0.109685 c -0.263404,0.120822 -0.363569,0.461975 -0.224587,0.764915 l 2.158268,4.704377 c 0.138983,0.302941 0.462926,0.449555 0.726329,0.328733 l 0.239122,-0.109685 c 0.263403,-0.120822 0.363569,-0.461974 0.224587,-0.764914 m -1.126649,-6.652167 c -0.239513,-0.211031 -0.589205,-0.273317 -0.899049,-0.131193 v 0 l -0.117496,0.05389 c -0.420065,0.192683 -0.603107,0.68595 -0.410408,1.105977 l 2.992446,6.522639 c 0.192701,0.420027 0.686011,0.603054 1.106076,0.410371 l 0.117497,-0.05389 c 0.310234,-0.142303 0.491186,-0.448555 0.486978,-0.76817 M 26.35607,30.196786 c -0.60906,0.279375 -0.866688,1.011506 -0.577638,1.641547 l 4.388497,9.565609 c 0.289049,0.630041 1.012079,0.91235 1.62114,0.632975 0.60906,-0.279374 0.866688,-1.011505 0.577638,-1.641547 L 27.97721,30.829761 c -0.289049,-0.630042 -1.012079,-0.912349 -1.62114,-0.632975 v 0 m 12.735808,-1.755331 c -0.138982,-0.302941 -0.03882,-0.644094 0.224586,-0.764916 l 0.239123,-0.109684 c 0.263403,-0.120823 0.587346,0.02579 0.726329,0.328733 l 2.158267,4.704377 c 0.138983,0.302941 0.03882,0.644093 -0.224586,0.764915 l -0.239123,0.109684 c -0.263403,0.120823 -0.587346,-0.02579 -0.726329,-0.328733 m -4.307677,-5.19304 c -0.0038,-0.31918 0.177149,-0.624841 0.486992,-0.766964 v 0 l 0.117497,-0.05389 c 0.420065,-0.192683 0.913376,-0.0097 1.106076,0.41037 l 2.992446,6.522639 c 0.1927,0.420028 0.0097,0.913294 -0.410407,1.105977 l -0.02793,0.01281 m 0,0 -0.0016,7.47e-4 m 0,0 -0.08794,0.04033 c -0.310233,0.142303 -0.660418,0.07969 -0.899954,-0.13199 m -0.118929,-0.258906 0.763479,1.664154 c 0.289049,0.630042 0.03142,1.362173 -0.577639,1.641548 -0.60906,0.279374 -1.33209,-0.0029 -1.62114,-0.632975 l -0.769749,-1.677822 m 0,0 -3.618748,-7.887787 c -0.289049,-0.630042 -0.03142,-1.362173 0.577639,-1.641547 0.60906,-0.279375 1.33209,0.0029 1.62114,0.632975 l 3.625018,7.901454 m -24.373416,0.311531 h 1.647244 c 0.462155,0 0.834218,0.37203 0.834218,0.834143 v 1.647097 c 0,0.462114 -0.372063,0.834143 -0.834218,0.834143 h -1.647244 c -0.462155,0 -0.834217,-0.372029 -0.834217,-0.834143 v -1.647097 c 0,-0.462113 0.372062,-0.834143 0.834217,-0.834143 v 0 m -4.799239,0 h 1.647245 c 0.462155,0 0.834217,0.37203 0.834217,0.834143 v 1.647097 c 0,0.462114 -0.372062,0.834143 -0.834217,0.834143 h -1.647245 c -0.462155,0 -0.834218,-0.372029 -0.834218,-0.834143 v -1.647097 c 0,-0.462113 0.372063,-0.834143 0.834218,-0.834143 v 0 m 4.799239,-4.817543 h 1.647244 c 0.462155,0 0.834218,0.372029 0.834218,0.834143 v 1.647096 c 0,0.462114 -0.372063,0.834143 -0.834218,0.834143 h -1.647244 c -0.462155,0 -0.834217,-0.372029 -0.834217,-0.834143 v -1.647096 c 0,-0.462114 0.372062,-0.834143 0.834217,-0.834143 v 0 m -4.799239,0 h 1.647245 c 0.462155,0 0.834217,0.372029 0.834217,0.834143 v 1.647096 c 0,0.462114 -0.372062,0.834143 -0.834217,0.834143 h -1.647245 c -0.462155,0 -0.834218,-0.372029 -0.834218,-0.834143 v -1.647096 c 0,-0.462114 0.372063,-0.834143 0.834218,-0.834143 v 0 m 9.598479,0 h 1.647244 c 0.462155,0 0.834218,0.372029 0.834218,0.834143 v 1.647096 c 0,0.462114 -0.372063,0.834143 -0.834218,0.834143 h -1.647244 c -0.462155,0 -0.834218,-0.372029 -0.834218,-0.834143 v -1.647096 c 0,-0.462114 0.372063,-0.834143 0.834218,-0.834143 v 0 m -4.79924,-4.817544 h 1.647244 c 0.462155,0 0.834218,0.372029 0.834218,0.834143 V 27.9916 c 0,0.462114 -0.372063,0.834144 -0.834218,0.834144 h -1.647244 c -0.462155,0 -0.834217,-0.37203 -0.834217,-0.834144 v -1.647096 c 0,-0.462114 0.372062,-0.834143 0.834217,-0.834143 v 0 m -4.799239,0 h 1.647245 c 0.462155,0 0.834217,0.372029 0.834217,0.834143 V 27.9916 c 0,0.462114 -0.372062,0.834144 -0.834217,0.834144 h -1.647245 c -0.462155,0 -0.834218,-0.37203 -0.834218,-0.834144 v -1.647096 c 0,-0.462114 0.372063,-0.834143 0.834218,-0.834143 v 0 m 19.196957,0 h 1.647244 c 0.462155,0 0.834218,0.372029 0.834218,0.834143 V 27.9916 c 0,0.462114 -0.372063,0.834144 -0.834218,0.834144 h -1.647244 c -0.462155,0 -0.834217,-0.37203 -0.834217,-0.834144 v -1.647096 c 0,-0.462114 0.372062,-0.834143 0.834217,-0.834143 v 0 m -9.598478,0 h 1.647244 c 0.462155,0 0.834218,0.372029 0.834218,0.834143 V 27.9916 c 0,0.462114 -0.372063,0.834144 -0.834218,0.834144 h -1.647244 c -0.462155,0 -0.834218,-0.37203 -0.834218,-0.834144 v -1.647096 c 0,-0.462114 0.372063,-0.834143 0.834218,-0.834143 v 0 m -4.79924,-4.817544 h 1.647244 c 0.462155,0 0.834218,0.372029 0.834218,0.834143 v 1.647097 c 0,0.462113 -0.372063,0.834143 -0.834218,0.834143 h -1.647244 c -0.462155,0 -0.834217,-0.37203 -0.834217,-0.834143 V 21.52696 c 0,-0.462114 0.372062,-0.834143 0.834217,-0.834143 v 0 m -4.799239,0 h 1.647245 c 0.462155,0 0.834217,0.372029 0.834217,0.834143 v 1.647097 c 0,0.462113 -0.372062,0.834143 -0.834217,0.834143 h -1.647245 c -0.462155,0 -0.834218,-0.37203 -0.834218,-0.834143 V 21.52696 c 0,-0.462114 0.372063,-0.834143 0.834218,-0.834143 v 0 m 23.996196,0 h 1.647244 c 0.462155,0 0.834218,0.372029 0.834218,0.834143 v 1.647097 c 0,0.462113 -0.372063,0.834143 -0.834218,0.834143 h -1.647244 c -0.462155,0 -0.834218,-0.37203 -0.834218,-0.834143 V 21.52696 c 0,-0.462114 0.372063,-0.834143 0.834218,-0.834143 v 0 m -4.799239,0 h 1.647244 c 0.462155,0 0.834218,0.372029 0.834218,0.834143 v 1.647097 c 0,0.462113 -0.372063,0.834143 -0.834218,0.834143 h -1.647244 c -0.462155,0 -0.834217,-0.37203 -0.834217,-0.834143 V 21.52696 c 0,-0.462114 0.372062,-0.834143 0.834217,-0.834143 v 0 m -4.799239,0 h 1.647244 c 0.462155,0 0.834218,0.372029 0.834218,0.834143 v 1.647097 c 0,0.462113 -0.372063,0.834143 -0.834218,0.834143 h -1.647244 c -0.462155,0 -0.834218,-0.37203 -0.834218,-0.834143 V 21.52696 c 0,-0.462114 0.372063,-0.834143 0.834218,-0.834143 v 0 m -4.799239,0 h 1.647244 c 0.462155,0 0.834218,0.372029 0.834218,0.834143 v 1.647097 c 0,0.462113 -0.372063,0.834143 -0.834218,0.834143 h -1.647244 c -0.462155,0 -0.834218,-0.37203 -0.834218,-0.834143 V 21.52696 c 0,-0.462114 0.372063,-0.834143 0.834218,-0.834143 v 0 m 14.397717,-4.817544 h 1.647244 c 0.462155,0 0.834218,0.37203 0.834218,0.834143 v 1.647097 c 0,0.462114 -0.372063,0.834143 -0.834218,0.834143 h -1.647244 c -0.462155,0 -0.834218,-0.372029 -0.834218,-0.834143 v -1.647097 c 0,-0.462113 0.372063,-0.834143 0.834218,-0.834143 v 0 m -4.799239,0 h 1.647244 c 0.462155,0 0.834218,0.37203 0.834218,0.834143 v 1.647097 c 0,0.462114 -0.372063,0.834143 -0.834218,0.834143 h -1.647244 c -0.462155,0 -0.834217,-0.372029 -0.834217,-0.834143 v -1.647097 c 0,-0.462113 0.372062,-0.834143 0.834217,-0.834143 v 0 m -4.799239,0 h 1.647244 c 0.462155,0 0.834218,0.37203 0.834218,0.834143 v 1.647097 c 0,0.462114 -0.372063,0.834143 -0.834218,0.834143 h -1.647244 c -0.462155,0 -0.834218,-0.372029 -0.834218,-0.834143 v -1.647097 c 0,-0.462113 0.372063,-0.834143 0.834218,-0.834143 v 0 m -4.799239,0 h 1.647244 c 0.462155,0 0.834218,0.37203 0.834218,0.834143 v 1.647097 c 0,0.462114 -0.372063,0.834143 -0.834218,0.834143 h -1.647244 c -0.462155,0 -0.834218,-0.372029 -0.834218,-0.834143 v -1.647097 c 0,-0.462113 0.372063,-0.834143 0.834218,-0.834143 v 0 m 19.157027,10.058976 1e-6,-9.235154 c 0,-1.848453 -1.488254,-3.336573 -3.336871,-3.336573 H 10.847092 c -1.848617,0 -3.3368706,1.48812 -3.3368706,3.336573 v 19.949901 c 0,1.848453 1.4882536,3.336573 3.3368706,3.336573 l 13.568055,1e-6 M 28.074933,7.5552116 c 4.048186,0.030847 5.989146,-0.062397 10.033453,0.047885 2.316466,0.2788249 3.806889,2.6342954 3.53422,4.8542854 -0.008,4.82526 0.002,9.651135 0.0034,14.476699 m -7.382905,13.05149 2.064744,-10e-7 c 0.746885,0 1.434952,-0.242914 1.989801,-0.654362 m 3.32493,-23.75359 c 0.08505,-2.511924 -2.375503,-4.483709 -4.798106,-4.170713 h -5.029241 c -2.44837,0 -2.936354,-1.316391 -3.394349,-2.7667788 C 27.630663,6.137555 26.344568,5.8869253 24.720611,5.8869253 H 10.327766 C 8.0619031,5.6140612 5.715298,7.279661 5.551117,9.6300307 5.5011399,18.818391 5.5438997,28.009826 5.5296607,37.199307 c -0.2728885,2.265661 1.3928602,4.612055 3.7434151,4.776236 5.3411762,0.01099 12.0837362,0.02399 17.7250892,0.02529 m 7.061032,-0.01058 c 1.280897,-0.0037 2.561803,-0.0086 3.842695,-0.01471 1.537023,-0.107357 2.781239,-1.147789 3.382072,-2.488586" /></svg>
