<?xml version="1.0" encoding="UTF-8" standalone="no"?>
<svg
   viewBox="0 0 48 48"
   version="1.1"
   id="svg1"
   sodipodi:docname="fixprice.svg"
   inkscape:version="1.3.2 (091e20ef0f, 2023-11-25)"
   xml:space="preserve"
   xmlns:inkscape="http://www.inkscape.org/namespaces/inkscape"
   xmlns:sodipodi="http://sodipodi.sourceforge.net/DTD/sodipodi-0.dtd"
   xmlns="http://www.w3.org/2000/svg"
   xmlns:svg="http://www.w3.org/2000/svg"><sodipodi:namedview
     id="namedview1"
     pagecolor="#505050"
     bordercolor="#eeeeee"
     borderopacity="1"
     inkscape:showpageshadow="0"
     inkscape:pageopacity="0"
     inkscape:pagecheckerboard="0"
     inkscape:deskcolor="#505050"
     inkscape:zoom="12.59534"
     inkscape:cx="11.075525"
     inkscape:cy="23.699242"
     inkscape:window-width="1918"
     inkscape:window-height="1053"
     inkscape:window-x="0"
     inkscape:window-y="0"
     inkscape:window-maximized="1"
     inkscape:current-layer="svg1" /><defs
     id="defs1"><style
       id="style1">.a { fill:none;stroke:#fff;stroke-linecap:round;stroke-linejoin:round; }
</style></defs><path
     id="path7"
     style="fill:none;stroke:#fff;stroke-width:1stroke-linecap:round;stroke-linejoin:round;stroke-opacity:1"
     d="m 24.856288,21.863206 h 7.057714 c 0.307958,0 0.555881,0.247923 0.555881,0.555882 v 4.638704 c 0,0.307958 -0.247923,0.555881 -0.555881,0.555881 h -7.057714 c -0.307959,0 -0.555882,-0.247923 -0.555882,-0.555881 v -4.638704 c 0,-0.307959 0.247923,-0.555882 0.555882,-0.555882 z m 0,-9.37959 h 7.940391 c 0.307959,0 0.555882,0.247923 0.555882,0.555882 v 4.638704 c 0,0.307958 -0.247923,0.555881 -0.555882,0.555881 h -7.940391 c -0.307959,0 -0.555882,-0.247923 -0.555882,-0.555881 v -4.638704 c 0,-0.307959 0.247923,-0.555882 0.555882,-0.555882 z m -9.652968,-7.85e-4 c -0.307958,0 -0.555881,0.247923 -0.555881,0.555882 v 23.642333 c 0,0.307958 0.247923,0.555881 0.555881,0.555881 h 5.563157 c 0.307959,0 0.555882,-0.247923 0.555882,-0.555881 v -9.065645 h 0.410397 c 0.307956,0 0.555881,-0.247923 0.555881,-0.555882 v -4.640307 c 0,-0.307958 -0.247925,-0.555881 -0.555881,-0.555881 h -0.410397 v -3.62843 h 0.410397 c 0.307956,0 0.555881,-0.247923 0.555881,-0.555881 v -4.640307 c 0,-0.307959 -0.247925,-0.555882 -0.555881,-0.555882 H 20.766477 17.233591 Z M 45.499999,24 A 21.499999,21.499999 0 0 1 24,45.499999 21.499999,21.499999 0 0 1 2.5000007,24 21.499999,21.499999 0 0 1 24,2.5000007 21.499999,21.499999 0 0 1 45.499999,24 Z" /></svg>
