<?xml version="1.0" encoding="UTF-8" standalone="no"?>
<svg
   viewBox="0 0 48 48"
   version="1.1"
   id="svg1"
   sodipodi:docname="kitsu.svg"
   inkscape:version="1.3.2 (091e20ef0f, 2023-11-25)"
   xml:space="preserve"
   xmlns:inkscape="http://www.inkscape.org/namespaces/inkscape"
   xmlns:sodipodi="http://sodipodi.sourceforge.net/DTD/sodipodi-0.dtd"
   xmlns="http://www.w3.org/2000/svg"
   xmlns:svg="http://www.w3.org/2000/svg"><sodipodi:namedview
     id="namedview1"
     pagecolor="#505050"
     bordercolor="#eeeeee"
     borderopacity="1"
     inkscape:showpageshadow="0"
     inkscape:pageopacity="0"
     inkscape:pagecheckerboard="0"
     inkscape:deskcolor="#505050"
     inkscape:zoom="12.59534"
     inkscape:cx="24.01682"
     inkscape:cy="27.351387"
     inkscape:window-width="1918"
     inkscape:window-height="1053"
     inkscape:window-x="0"
     inkscape:window-y="0"
     inkscape:window-maximized="1"
     inkscape:current-layer="svg1" /><defs
     id="defs1"><style
       id="style1">.a { fill:none;stroke:#fff;stroke-linecap:round;stroke-linejoin:round; }
</style></defs><path
     id="path5"
     style="fill:none;stroke:#fff;stroke-width:1stroke-linecap:round;stroke-linejoin:round;stroke-opacity:1"
     d="m 23.764024,34.057694 c 1.376386,1.930434 3.101751,3.261292 5.390773,3.623751 -2.378467,0.71078 -4.313733,2.017359 -5.672322,4.099166 -0.440252,-2.604576 -1.18818,-5.22659 0.281549,-7.722917 z M 14.158406,19.284285 c -2.562637,2.107376 -4.7759323,4.672378 -7.0548138,7.159188 -0.3244482,0.354051 -0.5722684,1.059774 0,1.564955 0.4904898,0.432989 0.8837643,0.341397 1.4125821,0 2.2624387,-1.460594 4.5226757,-2.936944 6.7160407,-3.559741 0.789187,-0.224086 1.205529,-0.220897 1.514405,0 0.714712,0.511139 0.331144,1.201042 0,1.771798 -1.35866,2.341767 -2.631385,4.753354 -3.473965,7.426145 -0.260508,0.826369 0.160254,1.172798 0.591383,1.425027 0.493163,0.288522 1.054024,0.162712 1.483093,-0.397637 5.256162,-6.864384 11.884886,-11.331079 19.98254,-13.215838 0.443738,-0.103278 1.089232,-0.107344 1.241132,0.447245 0.167263,0.610688 -0.474017,0.861573 -0.834086,0.983916 -9.336984,2.52051 -17.143148,10.61587 -13.334967,20.044689 0.208386,0.477923 0.645273,0.605032 1.053632,0.555883 0.616702,-0.07422 0.675831,-0.300117 0.989547,-0.68423 3.452627,-4.227403 7.190911,-4.362293 10.561788,-6.713001 8.101127,-5.649385 7.893825,-15.365251 2.688418,-20.491458 C 33.675178,11.642432 26.700894,10.77377 21.682486,14.577451 M 12.066258,13.36987 c -0.610971,0.731609 -1.112915,1.434096 -1.400028,2.079202 L 8.3242696,12.808601 c 1.3049441,-0.125342 2.5560954,-0.05468 3.7419884,0.561269 z m 5.807315,-6.9550503 c 0.662996,0.9714132 1.251294,1.9747929 1.453681,3.1433319 -0.756361,0.0417 -1.533528,0.189398 -2.329121,0.430971 -0.02267,-1.277224 0.157967,-2.5233692 0.87544,-3.5743029 z m -4.641035,5.9035133 c 0.722127,-0.507248 1.229021,-0.986123 2.601637,-1.579125 -0.226343,-2.9559102 0.31083,-5.4018292 2.019962,-6.2000542 0.644395,-0.3009553 1.271533,0.9140195 1.795058,1.8969619 1.541342,2.8939349 1.946002,5.1666293 1.946002,7.4164263 v 5.869597 c 0,1.231807 -0.722549,1.772132 -1.569479,1.459607 L 13.796672,18.883175 C 10.94968,17.832611 9.1663967,16.19366 6.9713976,13.502388 c -0.702986,-0.861926 -0.2677193,-1.923362 0.699942,-2.028959 2.3724544,-0.258897 4.1788284,0.359053 5.5611984,0.844904 z" /></svg>
