<?xml version="1.0" encoding="UTF-8" standalone="no"?>
<svg
   viewBox="0 0 48 48"
   version="1.1"
   id="svg1"
   sodipodi:docname="lumii_photo_editor.svg"
   inkscape:version="1.3.2 (091e20ef0f, 2023-11-25)"
   xml:space="preserve"
   xmlns:inkscape="http://www.inkscape.org/namespaces/inkscape"
   xmlns:sodipodi="http://sodipodi.sourceforge.net/DTD/sodipodi-0.dtd"
   xmlns="http://www.w3.org/2000/svg"
   xmlns:svg="http://www.w3.org/2000/svg"><sodipodi:namedview
     id="namedview1"
     pagecolor="#505050"
     bordercolor="#eeeeee"
     borderopacity="1"
     inkscape:showpageshadow="0"
     inkscape:pageopacity="0"
     inkscape:pagecheckerboard="0"
     inkscape:deskcolor="#505050"
     inkscape:zoom="12.59534"
     inkscape:cx="8.7730862"
     inkscape:cy="39.02237"
     inkscape:window-width="1918"
     inkscape:window-height="1053"
     inkscape:window-x="0"
     inkscape:window-y="0"
     inkscape:window-maximized="1"
     inkscape:current-layer="svg1" /><defs
     id="defs1"><style
       id="style1">.a { fill:none;stroke:#fff;stroke-linecap:round;stroke-linejoin:round; }
</style></defs><path
     id="path4"
     style="fill:none;stroke:#fff;stroke-width:1;stroke-linecap:round;stroke-linejoin:round;stroke-opacity:1"
     d="m 14.755522,27.008119 c -3.079041,1.118281 -4.8168103,4.372498 -3.953072,7.594871 0.912582,3.40459 4.413328,5.425025 7.826125,4.471263 1.525705,-0.526815 2.859285,-1.561365 3.771857,-3.956078 0.912571,-2.394713 1.050887,-7.388837 0.836835,-12.552043 -0.210858,-5.086156 -1.307924,-7.039836 -2.483234,-9.068778 -1.62443,-2.80426 -5.584101,-4.806992 -8.826906,-4.806992 -4.1018878,10e-8 -7.4271267,3.324051 -7.4271267,7.424477 0,3.171531 2.0572061,6.89713 4.7886481,8.589121 3.6033526,2.232098 7.4496806,2.359928 11.3489086,4.619437 1.424088,0.825224 2.068929,2.636034 2.109221,4.292774 m 10.497698,-6.608052 c 3.079041,1.118281 4.816813,4.372498 3.953073,7.594871 -0.912583,3.40459 -4.41333,5.425025 -7.826126,4.471263 -1.525705,-0.526815 -2.859285,-1.561365 -3.771857,-3.956078 -0.912571,-2.394713 -1.050888,-7.388837 -0.836835,-12.552043 0.210858,-5.086156 1.307924,-7.039836 2.483234,-9.068778 1.62443,-2.80426 5.584101,-4.806992 8.826906,-4.806992 4.101891,10e-8 7.427129,3.324051 7.427129,7.424477 0,3.171531 -2.057206,6.89713 -4.788648,8.589121 -3.603355,2.232098 -7.449683,2.359928 -11.348912,4.619437 -1.424087,0.825224 -2.068929,2.636034 -2.109221,4.292774" /></svg>
