<?xml version="1.0" encoding="UTF-8" standalone="no"?>
<svg
   viewBox="0 0 48 48"
   version="1.1"
   id="svg1"
   sodipodi:docname="memory_zone.svg"
   inkscape:version="1.3.2 (091e20ef0f, 2023-11-25)"
   xml:space="preserve"
   xmlns:inkscape="http://www.inkscape.org/namespaces/inkscape"
   xmlns:sodipodi="http://sodipodi.sourceforge.net/DTD/sodipodi-0.dtd"
   xmlns="http://www.w3.org/2000/svg"
   xmlns:svg="http://www.w3.org/2000/svg"><sodipodi:namedview
     id="namedview1"
     pagecolor="#505050"
     bordercolor="#eeeeee"
     borderopacity="1"
     inkscape:showpageshadow="0"
     inkscape:pageopacity="0"
     inkscape:pagecheckerboard="0"
     inkscape:deskcolor="#505050"
     inkscape:zoom="8.90625"
     inkscape:cx="0.50526316"
     inkscape:cy="1.7403509"
     inkscape:window-width="1918"
     inkscape:window-height="1053"
     inkscape:window-x="0"
     inkscape:window-y="0"
     inkscape:window-maximized="1"
     inkscape:current-layer="svg1" /><defs
     id="defs1"><style
       id="style1">.a { fill:none;stroke:#fff;stroke-linecap:round;stroke-linejoin:round; }
</style></defs><path
     id="rect6"
     style="fill:none;stroke:#fff;stroke-width:1stroke-linecap:round;stroke-linejoin:round;stroke-opacity:1"
     d="m 36.798183,26.930831 c -0.516782,-0.672274 -0.520865,-1.630929 0.04211,-2.314766 v 0 l 1.518852,-1.844908 c 0.655468,-0.796179 1.824061,-0.909406 2.620161,-0.253874 l 1.844726,1.519001 c 0.796101,0.655533 0.909318,1.824241 0.25385,2.62042 l -1.518851,1.844908 c -0.529705,0.643418 -1.394523,0.840816 -2.127043,0.546905 m -6.366239,-13.65999 c 0.66861,0 1.206876,0.53832 1.206877,1.206997 -1e-6,0.668676 -0.538267,1.206997 -1.206877,1.206996 -0.668611,10e-7 -1.206879,-0.53832 -1.206878,-1.206996 -1e-6,-0.668676 0.538267,-1.206997 1.206878,-1.206997 z m 0.629782,-2.786175 C 33.5461,10.744457 31.553035,8.067441 29.980725,8.7695974 c -1.105173,0.4935444 -1.635171,2.4802656 -0.661907,3.9227646 -2.820168,0.69515 -3.789478,3.807128 -4.644431,6.709733 -0.551416,1.872088 -2.461106,3.014002 -5.028534,3.812132 m 10.831592,13.746224 c 1.672595,-1.855438 3.491237,-5.825033 -0.896993,-9.625872 l 4.276728,2.643938 c 0.638404,0.39467 1.635842,0.06609 2.36941,0 0.960855,0.526517 2.540687,0.563287 3.047807,-1e-6 0.40117,-1.353555 0.160439,-2.908501 -1.863232,-3.015881 l -2.941066,-0.156061 c -1.20342,-0.06385 -1.12812,-2.256084 -2.126543,-3.330222 -0.815099,-0.876911 -1.881219,-1.054346 -3.121829,-1.162737 l 2.363764,-0.304519 c 1.480629,0.7557 3.033189,0.879431 4.563646,0.377367 2.595548,-0.851466 3.992912,-3.49167 3.010409,-4.933522 -1.077255,-1.580907 -2.578829,-2.833203 -3.848995,-3.986755 1.230434,-0.535849 1.307593,-1.714305 -0.526258,-3.6321231 -1.51846,-1.5879871 -2.249895,-1.2299759 -2.99028,-0.556673 M 22.014546,41.137892 c -4.997151,0 -9.048594,-4.051408 -9.048594,-9.049052 -10e-7,-3.715226 2.288049,-6.80276 6.016304,-8.622421 3.566281,-1.740606 5.484559,-4.64868 5.48456,-7.85676 v 0 c 0,-4.831586 -4.469725,-8.7483593 -9.983409,-8.7483594 -5.5136861,-3e-7 -9.9834095,3.9167744 -9.9834092,8.7483594 -3e-7,2.298117 1.0319394,4.503946 2.8815361,6.133325 -0.1843013,-0.392772 -0.2928247,-0.828397 -0.2928243,-1.290301 -10e-8,-1.582582 1.2739415,-2.856649 2.8563673,-2.856649 v 0 c 1.5824261,0 2.8563671,1.274067 2.8563671,2.856649 -0.183443,1.904531 -3.8066951,6.388961 -3.1440691,11.725844 0.7850191,6.322668 3.2403011,9.014229 9.5809241,8.959364 H 34.105833 C 34.469108,38.309832 32.201426,37.375329 29.686568,37.054168 29.35783,32.322438 26.4259,29.960869 22.45869,30.025427" /></svg>
