<?xml version="1.0" encoding="UTF-8" standalone="no"?>
<svg
   viewBox="0 0 48 48"
   version="1.1"
   id="svg1"
   sodipodi:docname="monstermusic.svg"
   inkscape:version="1.3.2 (091e20ef0f, 2023-11-25)"
   xml:space="preserve"
   xmlns:inkscape="http://www.inkscape.org/namespaces/inkscape"
   xmlns:sodipodi="http://sodipodi.sourceforge.net/DTD/sodipodi-0.dtd"
   xmlns="http://www.w3.org/2000/svg"
   xmlns:svg="http://www.w3.org/2000/svg"><sodipodi:namedview
     id="namedview1"
     pagecolor="#505050"
     bordercolor="#eeeeee"
     borderopacity="1"
     inkscape:showpageshadow="0"
     inkscape:pageopacity="0"
     inkscape:pagecheckerboard="0"
     inkscape:deskcolor="#505050"
     inkscape:zoom="8.90625"
     inkscape:cx="-19.14386"
     inkscape:cy="45.866667"
     inkscape:window-width="1918"
     inkscape:window-height="1053"
     inkscape:window-x="0"
     inkscape:window-y="0"
     inkscape:window-maximized="1"
     inkscape:current-layer="svg1" /><defs
     id="defs1"><style
       id="style1">.a { fill:none;stroke:#fff;stroke-linecap:round;stroke-linejoin:round; }
</style></defs><path
     id="path6"
     style="fill:none;stroke:#fff;stroke-width:1;stroke-linecap:round;stroke-linejoin:round;stroke-opacity:1"
     d="m 28.569918,18.926206 a 1.2126191,1.6170035 68.924898 0 1 -1.843117,1.272164 1.2126191,1.6170035 68.924898 0 1 -1.239513,-1.272164 1.2126191,1.6170035 68.924898 0 1 1.843115,-1.272166 1.2126191,1.6170035 68.924898 0 1 1.239515,1.272166 z m -9.139843,0 a 1.6170035,1.2126191 21.075102 0 0 1.843118,1.272164 1.6170035,1.2126191 21.075102 0 0 1.239516,-1.272164 1.6170035,1.2126191 21.075102 0 0 -1.843119,-1.272166 1.6170035,1.2126191 21.075102 0 0 -1.239515,1.272166 z m 3.665744,4.223973 h 1.808357 m -7.898968,-4.503274 c -0.127173,-0.535401 -0.194459,-1.094415 -0.194459,-1.669672 0,-3.971195 3.206408,-7.1682285 7.189249,-7.1682285 v 0 c 3.982841,0 7.189248,3.1970335 7.189248,7.1682285 0,0.575096 -0.06724,1.133957 -0.194353,1.66922 -0.129435,0.545072 -2.605583,7.501597 -6.994841,7.501662 -4.389258,6.4e-5 -6.865335,-6.955996 -6.994844,-7.50121 z m -4.91301,23.826917 V 18.701414 L 24.000001,42.5 35.907804,18.737708 V 42.5 M 6.6214985,42.48397 V 25.212201 m 0.138184,-6.083668 C 7.8291905,11.4211 14.977831,5.4999995 23.691709,5.4999995 v 0 h 0.61658 c 8.713877,0 15.862518,5.9211015 16.932029,13.6285335 m 0.138183,6.083668 -10e-7,17.271769" /></svg>
