<?xml version="1.0" encoding="UTF-8" standalone="no"?>
<svg
   viewBox="0 0 48 48"
   version="1.1"
   id="svg1"
   sodipodi:docname="mp3_snijder_and_beltoon_maker.svg"
   inkscape:version="1.3.2 (091e20ef0f, 2023-11-25)"
   xml:space="preserve"
   xmlns:inkscape="http://www.inkscape.org/namespaces/inkscape"
   xmlns:sodipodi="http://sodipodi.sourceforge.net/DTD/sodipodi-0.dtd"
   xmlns="http://www.w3.org/2000/svg"
   xmlns:svg="http://www.w3.org/2000/svg"><sodipodi:namedview
     id="namedview1"
     pagecolor="#505050"
     bordercolor="#eeeeee"
     borderopacity="1"
     inkscape:showpageshadow="0"
     inkscape:pageopacity="0"
     inkscape:pagecheckerboard="0"
     inkscape:deskcolor="#505050"
     inkscape:zoom="8.90625"
     inkscape:cx="18.470175"
     inkscape:cy="6.2315789"
     inkscape:window-width="1918"
     inkscape:window-height="1053"
     inkscape:window-x="0"
     inkscape:window-y="0"
     inkscape:window-maximized="1"
     inkscape:current-layer="svg1" /><defs
     id="defs1"><style
       id="style1">.a { fill:none;stroke:#fff;stroke-linecap:round;stroke-linejoin:round; }
</style></defs><path
     id="path19"
     style="fill:none;stroke:#fff;stroke-width:1;stroke-linecap:round;stroke-linejoin:round;stroke-opacity:1"
     d="m 37.718029,8.8825787 h 2.553214 c 1.868939,0 2.374458,-1.3291114 2.192981,-2.9074826 l -4.746195,-2.843e-4 -4.5e-5,9.6173692 m 0,0.272666 a 2.7531477,2.7530271 0 0 1 -2.753148,2.753027 2.7531477,2.7530271 0 0 1 -2.753147,-2.753027 2.7531477,2.7530271 0 0 1 2.753147,-2.753027 2.7531477,2.7530271 0 0 1 2.753148,2.753027 z M 9.1648457,22.677153 c -1.073527,0.906867 -1.2085992,2.512255 -0.3016925,3.585734 0.9069068,1.073481 2.5123648,1.208548 3.5858918,0.30168 1.073528,-0.906867 1.2086,-2.512255 0.301693,-3.585735 -0.906906,-1.07348 -2.512365,-1.208546 -3.5858923,-0.301679 v 0 M 14.863165,21.194349 C 12.970673,18.954261 9.6204734,18.67241 7.3802856,20.56482 c -2.2401875,1.892408 -2.5220504,5.24246 -0.6295589,7.48255 1.8924922,2.24009 5.2426923,2.52194 7.4828803,0.629531 0.900717,-0.760886 1.522546,-1.799914 1.755961,-2.955908 l 3.901106,-0.0089 c 0.452552,-7.12e-4 0.944791,0.204858 1.239569,0.55378 0.294777,0.348919 0.415225,0.868565 0.338906,1.314615 l -0.660533,3.844621 c -1.178792,0.03698 -2.307157,0.476432 -3.207875,1.237318 -2.240188,1.892409 -2.52205,5.242461 -0.629558,7.482551 1.892492,2.24009 5.242692,2.52194 7.482879,0.629531 v 0 c 2.240187,-1.892409 2.52205,-5.242462 0.629558,-7.482551 -0.475541,-0.562884 -1.063042,-1.020632 -1.727509,-1.34023 l 0.695832,-4.076812 13.608781,-1.179677 c 1.780948,-0.15425 3.626433,-2.003938 4.535391,-3.611745 L 24.86676,23.110624 27.787785,6.0287603 c -1.737146,0.6275039 -3.869264,2.1379148 -4.318919,3.8679775 l -3.436949,13.2197872 -4.136292,0.0061 c -0.202957,-0.708221 -0.556382,-1.364757 -1.03246,-1.928278 z m 7.806336,17.467883 c -1.073527,0.906866 -2.678984,0.771801 -3.585892,-0.30168 -0.906906,-1.073481 -0.771835,-2.678867 0.301693,-3.585735 1.073526,-0.906867 2.678985,-0.7718 3.585892,0.30168 0.906906,1.07348 0.771834,2.678867 -0.301693,3.585735 v 0 M 23.36136,25.528237 a 0.87627389,0.87623553 0 0 1 -1.234875,-0.103892 0.87627389,0.87623553 0 0 1 0.103897,-1.234823 0.87627389,0.87623553 0 0 1 1.234876,0.103893 0.87627389,0.87623553 0 0 1 -0.103897,1.234821 z" /></svg>
