<?xml version="1.0" encoding="UTF-8" standalone="no"?>
<svg
   viewBox="0 0 48 48"
   version="1.1"
   id="svg1"
   sodipodi:docname="music_alt_2.svg"
   inkscape:version="1.3.2 (091e20ef0f, 2023-11-25)"
   xml:space="preserve"
   xmlns:inkscape="http://www.inkscape.org/namespaces/inkscape"
   xmlns:sodipodi="http://sodipodi.sourceforge.net/DTD/sodipodi-0.dtd"
   xmlns="http://www.w3.org/2000/svg"
   xmlns:svg="http://www.w3.org/2000/svg"><sodipodi:namedview
     id="namedview1"
     pagecolor="#505050"
     bordercolor="#eeeeee"
     borderopacity="1"
     inkscape:showpageshadow="0"
     inkscape:pageopacity="0"
     inkscape:pagecheckerboard="0"
     inkscape:deskcolor="#505050"
     inkscape:zoom="17.8125"
     inkscape:cx="28.322807"
     inkscape:cy="26.694737"
     inkscape:window-width="1918"
     inkscape:window-height="1053"
     inkscape:window-x="0"
     inkscape:window-y="0"
     inkscape:window-maximized="1"
     inkscape:current-layer="svg1" /><defs
     id="defs1"><style
       id="style1">.a { fill:none;stroke:#fff;stroke-linecap:round;stroke-linejoin:round; }
</style></defs><path
     id="path5"
     style="fill:none;stroke:#fff;stroke-width:1stroke-linecap:round;stroke-linejoin:round;stroke-opacity:1"
     d="m 11.361237,26.949437 v 10.160944 m 1.995964,0.0013 c 0.85047,0 1.535145,-0.689167 1.535145,-1.545218 V 28.49534 c 0,-0.856049 -0.684675,-1.545217 -1.535145,-1.545217 H 9.105434 c -2.551411,0 -4.605435,2.0675 -4.605435,4.635652 v 0.890044 c 0,2.568151 2.054024,4.635652 4.605435,4.635652 z M 36.638763,26.949437 v 10.160944 m -1.995964,0.0013 c -0.85047,0 -1.535145,-0.689167 -1.535145,-1.545218 V 28.49534 c 0,-0.856049 0.684675,-1.545217 1.535145,-1.545217 h 4.251767 c 2.551411,0 4.605435,2.0675 4.605435,4.635652 v 0.890044 c 0,2.568151 -2.054024,4.635652 -4.605435,4.635652 z M 10.972862,26.950261 v -3.700206 c 0,-6.848394 5.477402,-12.361736 12.281157,-12.361736 v 0 h 1.491962 c 6.803755,0 12.281157,5.513342 12.281157,12.361736 l 2e-6,3.700209" /></svg>
