<?xml version="1.0" encoding="UTF-8" standalone="no"?>
<svg
   viewBox="0 0 48 48"
   version="1.1"
   id="svg1"
   sodipodi:docname="myanimelist_alt_1.svg"
   inkscape:version="1.3.2 (091e20ef0f, 2023-11-25)"
   xml:space="preserve"
   xmlns:inkscape="http://www.inkscape.org/namespaces/inkscape"
   xmlns:sodipodi="http://sodipodi.sourceforge.net/DTD/sodipodi-0.dtd"
   xmlns="http://www.w3.org/2000/svg"
   xmlns:svg="http://www.w3.org/2000/svg"><sodipodi:namedview
     id="namedview1"
     pagecolor="#505050"
     bordercolor="#eeeeee"
     borderopacity="1"
     inkscape:showpageshadow="0"
     inkscape:pageopacity="0"
     inkscape:pagecheckerboard="0"
     inkscape:deskcolor="#505050"
     inkscape:zoom="12.59534"
     inkscape:cx="16.077375"
     inkscape:cy="22.508325"
     inkscape:window-width="1918"
     inkscape:window-height="1053"
     inkscape:window-x="0"
     inkscape:window-y="0"
     inkscape:window-maximized="1"
     inkscape:current-layer="svg1" /><defs
     id="defs1"><style
       id="style1">.a { fill:none;stroke:#fff;stroke-linecap:round;stroke-linejoin:round; }
</style></defs><path
     id="path25"
     style="display:inline;fill:none;stroke:#fff;stroke-width:1stroke-linecap:round;stroke-linejoin:round;stroke-opacity:1"
     d="m 34.17896,31.028842 -2.6e-5,-16.235514 H 38.33131 V 27.32601 h 5.168705 l -1.007518,3.701733 z M 32.392647,18.630527 h -4.141629 c -1.445685,0 -2.927059,0.85057 -3.85962,3.493326 l 3.850495,-2.62e-4 -8.3e-5,-3.222027 m 4.152377,-0.271487 V 31.028989 H 28.24181 l -1.56e-4,-5.421961 -4.702565,-6.93e-4 c 0.175501,1.721936 0.86569,3.575018 1.834516,5.165812 l -3.309599,2.434548 c -1.91324,-3.199084 -2.87488,-7.271819 -1.651241,-12.051437 1.071767,-4.18639 3.99728,-6.326363 7.841365,-6.326363 h 3.504158 l 1.082705,3.801632 H 32.392647 M 8.710613,14.793412 4.5000004,14.793328 v 0 16.235661 H 8.652377 l -5.4e-5,-9.205797 3.114409,4.253986 3.114407,-4.253986 -5.4e-5,9.205797 h 4.152376 v -16.235661 0 l -4.210612,8.4e-5 -3.056117,4.174202 z" /></svg>
