<?xml version="1.0" encoding="UTF-8" standalone="no"?>
<svg
   viewBox="0 0 48 48"
   version="1.1"
   id="svg1"
   sodipodi:docname="perekrestok.svg"
   inkscape:version="1.3.2 (091e20ef0f, 2023-11-25)"
   xml:space="preserve"
   xmlns:inkscape="http://www.inkscape.org/namespaces/inkscape"
   xmlns:sodipodi="http://sodipodi.sourceforge.net/DTD/sodipodi-0.dtd"
   xmlns="http://www.w3.org/2000/svg"
   xmlns:svg="http://www.w3.org/2000/svg"><path
     id="path6"
     style="fill:none;stroke:#fff;stroke-width:1stroke-linecap:round;stroke-linejoin:round;stroke-opacity:1"
     d="m 12.293554,17.189158 v 0 c -3.751973,0 -6.7935551,3.041582 -6.7935541,6.793554 -1e-6,3.751973 3.0415811,6.793555 6.7935541,6.793555 v 0 c 2.224807,0.242399 3.518206,-0.756388 4.985042,-2.18166 l 4.74638,-4.611897 -4.746537,-4.611993 c -1.293936,-1.56045 -2.996266,-2.070998 -4.984885,-2.181559 z m 23.412892,0 v 0 c 3.751973,0 6.793555,3.041582 6.793554,6.793554 10e-7,3.751973 -3.041581,6.793555 -6.793554,6.793555 v 0 c -2.224807,0.242399 -3.518206,-0.756388 -4.985042,-2.18166 l -4.74638,-4.611897 4.746537,-4.611993 c 1.293936,-1.56045 2.996265,-2.070998 4.984885,-2.181559 z M 17.189158,35.706446 v 0 c 0,3.751973 3.041582,6.793555 6.793554,6.793554 3.751973,10e-7 6.793555,-3.041581 6.793555,-6.793554 v 0 c 0.242399,-2.224807 -0.756388,-3.518206 -2.18166,-4.985042 l -4.611897,-4.74638 -4.611993,4.746537 c -1.56045,1.293936 -2.070998,2.996265 -2.181559,4.984885 z m 0,-23.412892 v 0 c 0,-3.7519729 3.041582,-6.7935545 6.793554,-6.7935542 3.751973,-3e-7 6.793555,3.0415813 6.793555,6.7935542 v 0 c 0.242399,2.224807 -0.756388,3.518206 -2.18166,4.985042 l -4.611897,4.74638 -4.611993,-4.746537 c -1.56045,-1.293936 -2.070998,-2.996266 -2.181559,-4.984885 z" /><sodipodi:namedview
     id="namedview1"
     pagecolor="#505050"
     bordercolor="#eeeeee"
     borderopacity="1"
     inkscape:showpageshadow="0"
     inkscape:pageopacity="0"
     inkscape:pagecheckerboard="0"
     inkscape:deskcolor="#505050"
     inkscape:zoom="8.90625"
     inkscape:cx="13.192982"
     inkscape:cy="25.431579"
     inkscape:window-width="1918"
     inkscape:window-height="1053"
     inkscape:window-x="0"
     inkscape:window-y="0"
     inkscape:window-maximized="1"
     inkscape:current-layer="svg1" /><defs
     id="defs1"><style
       id="style1">.a { fill:none;stroke:#fff;stroke-linecap:round;stroke-linejoin:round; }
</style></defs></svg>
