<?xml version="1.0" encoding="UTF-8" standalone="no"?>
<svg
   viewBox="0 0 48 48"
   version="1.1"
   id="svg1"
   sodipodi:docname="poco_community.svg"
   inkscape:version="1.3.2 (091e20ef0f, 2023-11-25)"
   xml:space="preserve"
   xmlns:inkscape="http://www.inkscape.org/namespaces/inkscape"
   xmlns:sodipodi="http://sodipodi.sourceforge.net/DTD/sodipodi-0.dtd"
   xmlns="http://www.w3.org/2000/svg"
   xmlns:svg="http://www.w3.org/2000/svg"><sodipodi:namedview
     id="namedview1"
     pagecolor="#505050"
     bordercolor="#eeeeee"
     borderopacity="1"
     inkscape:showpageshadow="0"
     inkscape:pageopacity="0"
     inkscape:pagecheckerboard="0"
     inkscape:deskcolor="#505050"
     inkscape:zoom="8.90625"
     inkscape:cx="-7.6912281"
     inkscape:cy="45.305263"
     inkscape:window-width="1918"
     inkscape:window-height="1053"
     inkscape:window-x="0"
     inkscape:window-y="0"
     inkscape:window-maximized="1"
     inkscape:current-layer="svg1" /><defs
     id="defs1"><style
       id="style1">.a { fill:none;stroke:#fff;stroke-linecap:round;stroke-linejoin:round; }
</style></defs><path
     id="rect2"
     style="fill:none;stroke:#fff;stroke-width:1stroke-linecap:round;stroke-linejoin:round"
     d="m 35.207623,20.125213 c 1.386938,0 2.503499,1.144902 2.503499,2.567046 v 2.615481 c 0,1.422144 -1.116561,2.567047 -2.503499,2.567047 -1.386939,0 -2.503499,-1.144903 -2.503499,-2.567047 v -2.615481 c 0,-1.422144 1.11656,-2.567046 2.503499,-2.567046 z m -14.9435,0 c 1.386938,0 2.503499,1.144902 2.503499,2.567046 v 2.615481 c 0,1.422144 -1.116561,2.567047 -2.503499,2.567047 -1.386937,0 -2.503498,-1.144903 -2.503498,-2.567047 v -2.615481 c 0,-1.422144 1.116561,-2.567046 2.503498,-2.567046 z m 9.975248,5.150755 v 0.03178 c 0,1.417785 -1.120812,2.567046 -2.503499,2.567046 v 0 c -1.382687,0 -2.503497,-1.149261 -2.503497,-2.567046 v -2.615481 c 0,-1.417785 1.12081,-2.567047 2.503497,-2.567047 v 0 c 1.382687,0 2.503499,1.149262 2.503499,2.567047 v 0.03178 m -19.950495,5.150748 v -7.749574 h 2.474212 c 1.398841,0 2.532784,1.165245 2.532784,2.602598 0,1.437352 -1.133943,2.602596 -2.532784,2.602596 H 10.288876 M 9.5,5.5 h 29 c 2.216,0 4,1.784 4,4 v 29 c 0,2.216 -1.784,4 -4,4 h -29 c -2.216,0 -4,-1.784 -4,-4 v -29 c 0,-2.216 1.784,-4 4,-4 z" /></svg>
