<?xml version="1.0" encoding="UTF-8" standalone="no"?>
<svg
   viewBox="0 0 48 48"
   version="1.1"
   id="svg1"
   sodipodi:docname="pod_classic.svg"
   inkscape:version="1.3.2 (091e20ef0f, 2023-11-25)"
   xml:space="preserve"
   xmlns:inkscape="http://www.inkscape.org/namespaces/inkscape"
   xmlns:sodipodi="http://sodipodi.sourceforge.net/DTD/sodipodi-0.dtd"
   xmlns="http://www.w3.org/2000/svg"
   xmlns:svg="http://www.w3.org/2000/svg"><sodipodi:namedview
     id="namedview1"
     pagecolor="#505050"
     bordercolor="#eeeeee"
     borderopacity="1"
     inkscape:showpageshadow="0"
     inkscape:pageopacity="0"
     inkscape:pagecheckerboard="0"
     inkscape:deskcolor="#505050"
     inkscape:zoom="8.90625"
     inkscape:cx="9.6"
     inkscape:cy="20.715789"
     inkscape:window-width="1918"
     inkscape:window-height="1053"
     inkscape:window-x="0"
     inkscape:window-y="0"
     inkscape:window-maximized="1"
     inkscape:current-layer="svg1" /><defs
     id="defs1"><style
       id="style1">.a { fill:none;stroke:#fff;stroke-linecap:round;stroke-linejoin:round; }
</style></defs><path
     id="circle3"
     style="fill:none;stroke:#fff;stroke-width:1;stroke-linecap:round;stroke-linejoin:round;stroke-opacity:1"
     d="M 27.173356,32.359382 A 3.173357,3.1641045 0 0 1 24,35.523487 3.173357,3.1641045 0 0 1 20.826643,32.359382 3.173357,3.1641045 0 0 1 24,29.195278 a 3.173357,3.1641045 0 0 1 3.173356,3.164104 z m 2.995319,0 A 6.1686758,6.1506899 0 0 1 24,38.510073 6.1686758,6.1506899 0 0 1 17.831324,32.359382 6.1686758,6.1506899 0 0 1 24,26.208693 6.1686758,6.1506899 0 0 1 30.168675,32.359382 Z M 14.461468,7.9724856 H 33.538531 V 22.252284 H 14.461468 Z m 1.370235,-3.4724872 h 16.336593 c 1.958702,0 3.535564,1.5722636 3.535564,3.5252552 V 39.974748 c 0,1.952991 -1.576862,3.525254 -3.535564,3.525254 H 15.831703 c -1.958702,0 -3.535563,-1.572263 -3.535563,-3.525254 V 8.0252536 c 0,-1.9529916 1.576861,-3.5252552 3.535563,-3.5252552 z" /></svg>
