<?xml version="1.0" encoding="UTF-8" standalone="no"?>
<svg
   viewBox="0 0 48 48"
   version="1.1"
   id="svg1"
   xml:space="preserve"
   sodipodi:docname="slitherio.svg"
   inkscape:version="1.3.2 (091e20ef0f, 2023-11-25)"
   xmlns:inkscape="http://www.inkscape.org/namespaces/inkscape"
   xmlns:sodipodi="http://sodipodi.sourceforge.net/DTD/sodipodi-0.dtd"
   xmlns="http://www.w3.org/2000/svg"
   xmlns:svg="http://www.w3.org/2000/svg"><sodipodi:namedview
     id="namedview1"
     pagecolor="#505050"
     bordercolor="#eeeeee"
     borderopacity="1"
     inkscape:showpageshadow="0"
     inkscape:pageopacity="0"
     inkscape:pagecheckerboard="0"
     inkscape:deskcolor="#505050"
     inkscape:zoom="8"
     inkscape:cx="6.6875"
     inkscape:cy="39.0625"
     inkscape:window-width="1918"
     inkscape:window-height="1053"
     inkscape:window-x="0"
     inkscape:window-y="0"
     inkscape:window-maximized="1"
     inkscape:current-layer="svg1" /><defs
     id="defs1" /><path
     id="path7"
     style="fill:none;stroke:#fff;stroke-width:1stroke-linecap:round;stroke-linejoin:round;stroke-opacity:1"
     d="m 44.631071,35.207216 c -0.0041,0.175276 -0.0141,0.351993 -0.03001,0.529972 -0.350682,3.921828 -3.479826,6.725175 -8.057157,6.725175 h -7.233911 c -4.357696,0.0274 -7.928799,0.117799 -13.262349,-0.609136 C 3.4366744,40.134416 0.8785409,30.257213 10.557211,20.934671 14.271445,17.357102 18.502903,14.360529 22.498203,11.362934 23.706382,10.456462 25.053082,9.4086525 25.070224,8.7991463 25.084474,8.2922426 24.711981,8.2003499 23.937835,7.9788585 19.970708,6.8438229 14.771557,6.6226811 10.591556,6.8393069 9.2062475,6.9110996 8.6900306,6.9575373 8.7956774,6.5579047 16.851627,3.3596369 26.358959,2.4593428 28.993639,4.5400492 c 3.159843,2.4954481 2.597726,5.6155398 1.237403,7.8264128 -1.762596,2.864671 -3.918247,4.964284 -6.353916,7.251959 -2.94032,2.761665 -6.690911,6.672404 -8.441608,9.327002 -0.391826,0.594129 -0.849875,1.748776 0.0521,1.837661 3.968966,0.391122 8.068166,0.195572 12.173375,-0.904417 3.505076,-0.939184 6.991148,-2.499177 9.816088,-2.363829 v 0 c 2.361533,0.113145 4.408875,1.27081 5.701592,3.025642 m -2.055309,5.991341 c -0.633846,0.08377 -1.268686,0.270625 -1.818341,0.598027 -0.213747,0.137187 -0.263258,0.433344 -0.20875,0.665144 0.135725,0.327524 0.436625,0.548331 0.714838,0.75057 0.289104,0.189894 0.603351,0.391645 0.959402,0.405102 0.221472,-0.01537 0.46327,-0.124836 0.550111,-0.342865 0.202594,-0.365469 0.291716,-0.781276 0.371022,-1.18789 0.04823,-0.267861 0.05063,-0.611276 -0.203759,-0.779604 -0.105773,-0.07222 -0.237537,-0.111413 -0.364523,-0.108484 z m -2.597077,-0.360235 a 2.962589,2.9625944 0 0 1 -2.962589,2.962594 2.962589,2.9625944 0 0 1 -2.962589,-2.962594 2.962589,2.9625944 0 0 1 2.962589,-2.962594 2.962589,2.9625944 0 0 1 2.962589,2.962594 z m 6.973712,-2.950465 a 2.7041468,2.7041517 0 0 1 -2.704146,2.704152 2.7041468,2.7041517 0 0 1 -2.704147,-2.704152 2.7041468,2.7041517 0 0 1 2.704147,-2.704151 2.7041468,2.7041517 0 0 1 2.704146,2.704151 z M 34.862061,42.500535 A 21.469145,21.469184 0 0 1 23.969145,45.469183 21.469145,21.469184 0 0 1 9.4183265,39.78603 M 4.7672676,33.602729 A 21.469145,21.469184 0 0 1 2.5000005,24 21.469145,21.469184 0 0 1 11.156883,6.7729514 M 14.646302,4.6606586 A 21.469145,21.469184 0 0 1 23.969145,2.5308165 21.469145,21.469184 0 0 1 45.43829,24 v 0 a 21.469145,21.469184 0 0 1 -1.157633,6.954628" /></svg>
