<?xml version="1.0" encoding="UTF-8" standalone="no"?>
<svg
   viewBox="0 0 48 48"
   version="1.1"
   id="svg1"
   sodipodi:docname="tortoise.svg"
   inkscape:version="1.3.2 (091e20ef0f, 2023-11-25)"
   xml:space="preserve"
   xmlns:inkscape="http://www.inkscape.org/namespaces/inkscape"
   xmlns:sodipodi="http://sodipodi.sourceforge.net/DTD/sodipodi-0.dtd"
   xmlns="http://www.w3.org/2000/svg"
   xmlns:svg="http://www.w3.org/2000/svg"><sodipodi:namedview
     id="namedview1"
     pagecolor="#505050"
     bordercolor="#eeeeee"
     borderopacity="1"
     inkscape:showpageshadow="0"
     inkscape:pageopacity="0"
     inkscape:pagecheckerboard="0"
     inkscape:deskcolor="#505050"
     inkscape:zoom="12.59534"
     inkscape:cx="5.2003362"
     inkscape:cy="16.394953"
     inkscape:window-width="1918"
     inkscape:window-height="1053"
     inkscape:window-x="0"
     inkscape:window-y="0"
     inkscape:window-maximized="1"
     inkscape:current-layer="svg1" /><defs
     id="defs1"><style
       id="style1">.a { fill:none;stroke:#fff;stroke-linecap:round;stroke-linejoin:round; }
</style></defs><path
     id="path19"
     style="fill:none;stroke:#fff;stroke-width:1stroke-linecap:round;stroke-linejoin:round;stroke-opacity:1"
     d="m 34.400151,12.815706 2.080175,2.415473 c 0.194981,-0.06915 0.398917,-0.104294 0.604354,-0.104294 0.998865,0 1.808605,0.812828 1.808605,1.815501 v 0 c 0,1.002672 -0.80974,1.815501 -1.808605,1.815501 -0.998866,0 -1.808607,-0.812827 -1.808607,-1.815501 0,-0.204729 0.0345,-0.407982 0.104451,-0.600456 L 33.42085,14.062476 m 5.553621,13.925069 c -0.169585,-1.119833 -0.100372,-0.987943 -0.921601,-1.943412 -0.131646,-1.425509 -0.98065,-1.90328 -1.576088,-2.716045 1.916288,-2.661277 5.379807,-4.432365 7.023224,-7.677226 l -0.967525,-2.25846 c -1.335024,0.07217 -2.923352,0.02915 -4.68835,0.627496 m -3.648668,3.834104 c -0.311025,0.753369 -0.552906,1.494595 -0.838725,2.243538 l -3.526484,-1.654786 c -1.373213,-1.372265 -2.91025,-1.463756 -4.46049,-1.451918 -1.413497,-0.366047 -3.002146,-0.767755 -4.773034,0 h -1.646521 c -2.346808,-0.02741 -2.690182,1.184914 -3.972851,1.647332 -1.372215,0.508277 -2.203779,1.522827 -2.767039,2.682599 -1.594711,1.012663 -2.595735,2.359644 -2.837333,4.679799 -0.821742,0.501178 -1.105752,1.035023 -1.130505,2.044964 -0.793702,1.029578 -2.3699619,1.738222 -3.7425347,2.530397 1.9528078,1.047742 5.2515257,-0.06831 6.8199087,0.521897 0.68135,1.33581 0.905502,4.564099 3.196062,3.542962 1.153038,-0.514028 0.755463,-2.034635 0.472617,-2.689251 0.554322,1.17223 0.730232,2.938041 2.031049,2.849306 1.338891,-0.09133 1.968248,-1.631005 0.805422,-3.191693 2.590385,0.01525 5.222968,0.06888 7.017313,-0.640329 -0.452587,1.047235 -1.079716,2.784622 0.708193,4.20248 h 1.609894 c 0.606836,0.04147 1.246351,0.0013 1.433227,-0.727177 -0.811641,-0.337671 -1.265278,-1.065303 -0.983402,-1.396049 0.755914,-0.886966 1.246317,-1.896475 1.623486,-2.91162 2.287229,-0.498962 4.357272,-2.186708 5.82907,-3.114801 l 0.525251,1.278154 c 0.01691,0.304974 -0.04574,0.609947 0.19338,0.914921 m 2.824705,-0.575623 c 0.227915,0.153647 0.477097,0.259101 0.577791,0.701076 m -2.265482,0.04519 c 0.109192,0.362327 0.01874,0.575746 -0.121956,0.964341 m 1.111011,-1.194113 c 0.321796,0.242537 0.64036,0.556504 0.768082,1.244664" /></svg>
