<?xml version="1.0" encoding="UTF-8" standalone="no"?>
<!-- Created with Inkscape (http://www.inkscape.org/) -->

<svg
   width="48"
   height="48"
   viewBox="0 0 48 48"
   version="1.1"
   id="svg990"
   inkscape:version="1.2.2 (b0a8486541, 2022-12-01)"
   xml:space="preserve"
   sodipodi:docname="checkey.svg"
   xmlns:inkscape="http://www.inkscape.org/namespaces/inkscape"
   xmlns:sodipodi="http://sodipodi.sourceforge.net/DTD/sodipodi-0.dtd"
   xmlns="http://www.w3.org/2000/svg"
   xmlns:svg="http://www.w3.org/2000/svg"><sodipodi:namedview
     id="namedview992"
     pagecolor="#858585"
     bordercolor="#000000"
     borderopacity="0.25"
     inkscape:showpageshadow="2"
     inkscape:pageopacity="0"
     inkscape:pagecheckerboard="0"
     inkscape:deskcolor="#d1d1d1"
     inkscape:document-units="px"
     showgrid="false"
     inkscape:zoom="8"
     inkscape:cx="26.75"
     inkscape:cy="13.75"
     inkscape:window-width="1366"
     inkscape:window-height="737"
     inkscape:window-x="0"
     inkscape:window-y="0"
     inkscape:window-maximized="1"
     inkscape:current-layer="svg990" /><defs
     id="defs987"><style
       id="style1174">.a{fill:none;stroke:#fff;stroke-linecap:round;stroke-linejoin:round;}</style></defs><path
     id="path988"
     style="fill:none;stroke:#ffffff;stroke-width:0.999998;stroke-linecap:round;stroke-linejoin:round;stroke-dasharray:none;stroke-opacity:1;stop-color:#000000"
     d="m 14.33191,32.672242 c -1.659403,0.261028 -2.708187,-2.306471 -3.095106,-4.910179 m 25.148449,1.871365 c 0.444417,-1.220334 2.19566,-0.659555 2.863811,-3.346302 0.452375,-1.819074 -0.280396,-3.690163 -0.929883,-4.603534 m -26.309779,1.598341 c 0.597457,1.953245 2.583198,2.524011 4.710741,2.077956 -5.394953,6.072648 -9.7194461,0.01985 -7.5198558,-6.729166 -0.3213576,-2.032094 0.5974003,-3.52047 1.0872668,-5.196889 -0.3426095,-1.242732 -0.7228235,-3.313463 1.639941,-3.9283555 -0.217556,-1.6031307 0.221075,-1.6217494 1.982186,-2.3597606 1.2587,-0.5274711 1.695182,-1.0800355 2.717432,-1.9946094 1.018005,-0.041453 1.832837,-0.1559317 3.613531,0.076744 1.045389,-0.6516728 2.030485,-0.700118 3.103835,-0.7268897 1.513043,-0.037738 3.398886,1.0450338 3.786518,1.4469545 1.492778,0.68251 6.493846,0.2932232 7.586975,3.0082899 1.198234,0.4340457 1.112016,1.8297408 0.505646,2.9933598 0.817366,0.484344 2.385544,-0.318539 2.60533,2.025234 0.159823,1.704341 1.459055,2.634086 1.40216,3.554851 -0.345528,5.592257 -2.715644,5.986737 -6.521028,4.906572 1.992353,-2.400256 2.088188,-4.371943 -1.603728,-5.259502 -3.503377,-0.842233 -3.967369,-2.416443 -4.73051,-5.440475 -0.30753,2.648142 -1.945985,5.07511 -4.399954,4.485243 -1.310741,5.984181 -5.761765,9.875396 -9.966486,7.060443 z m 2.319481,9.385361 -1.296328,-4.823206 m 1.296328,4.823206 c 1.124356,3.999489 3.323629,8.930829 11.925862,10.832766 7.875114,-1.808349 8.942092,-7.682728 10.180777,-13.661261 0.441376,-2.053358 0.48701,-4.485334 -0.809692,-6.791262" /></svg>
