<?xml version="1.0" encoding="UTF-8" standalone="no"?>
<!-- Created with Inkscape (http://www.inkscape.org/) -->

<svg
   width="48"
   height="48"
   viewBox="0 0 48 48"
   version="1.1"
   id="svg990"
   inkscape:version="1.2.2 (b0a8486541, 2022-12-01)"
   xml:space="preserve"
   sodipodi:docname="fifa_mobile.svg"
   xmlns:inkscape="http://www.inkscape.org/namespaces/inkscape"
   xmlns:sodipodi="http://sodipodi.sourceforge.net/DTD/sodipodi-0.dtd"
   xmlns="http://www.w3.org/2000/svg"
   xmlns:svg="http://www.w3.org/2000/svg"><sodipodi:namedview
     id="namedview992"
     pagecolor="#858585"
     bordercolor="#000000"
     borderopacity="0.25"
     inkscape:showpageshadow="2"
     inkscape:pageopacity="0"
     inkscape:pagecheckerboard="0"
     inkscape:deskcolor="#d1d1d1"
     inkscape:document-units="px"
     showgrid="false"
     inkscape:zoom="11.313708"
     inkscape:cx="11.932427"
     inkscape:cy="20.329321"
     inkscape:window-width="1366"
     inkscape:window-height="737"
     inkscape:window-x="0"
     inkscape:window-y="0"
     inkscape:window-maximized="1"
     inkscape:current-layer="svg990" /><defs
     id="defs987"><style
   id="style1174">.a{fill:none;stroke:#fff;stroke-linecap:round;stroke-linejoin:round;}</style>
		
	
		
		
		
	
		
		
		
	
		
		
	
		
		
	
		
		
	
			
		
		
	
		
	
				
			</defs><path
     id="path352"
     style="fill:none;stroke:#ffffff;stroke-linecap:round;stroke-linejoin:round;stop-color:#000000"
     d="m 32.043338,27.067646 8.783626,-16.958177 2.663143,16.958177 m -0.874963,-5.723385 h -7.631178 m -11.368027,5.72361 3.060242,-16.958178 h 8.479088 M 25.14606,18.588782 h 5.511403 m -7.041526,8.479089 m -19.1060389,0 3.0602416,-16.958178 H 16.049228 M 6.0400189,18.588782 H 11.551422 M 4.5098981,27.067871 M 21.362709,10.109693 18.302467,27.067871 m -0.562422,10.822554 v 0 c -1.545454,0 -2.678788,-1.236366 -2.678788,-2.67879 l -10e-7,-2.781819 c 10e-7,-1.545456 1.236366,-2.781822 2.678791,-2.781822 v 0 c 1.545453,0 2.781819,1.236366 2.781819,2.781822 l 1e-6,2.678787 c -1e-6,1.545456 -1.236366,2.781822 -2.781822,2.781822 z m 8.706633,-4.121214 h -3.503032 m 3.296978,0 c 1.133334,0 2.060608,0.927273 2.060608,2.060607 -4e-6,1.133334 -0.927274,2.060607 -2.060608,2.060607 h -3.400002 l 1e-6,-8.242429 h 3.4 c 1.133334,0 2.060608,0.927273 2.060609,2.060607 -4e-6,1.133334 -0.927274,2.060608 -2.060608,2.060608 z m 17.259306,4.121214 h -4.121214 l -10e-7,-8.242429 h 4.121214 m -4.121214,4.121215 h 2.678788 m -37.5574275,4.018017 1.3e-6,-8.139399 4.1212149,8.242431 4.1212143,-8.242431 v 8.242431 m 17.877486,-8.242266 v 8.242433 m 2.318755,-8.242431 -10e-7,8.242429 h 4.121217" /></svg>
