<?xml version="1.0" encoding="UTF-8" standalone="no"?>
<!-- Created with Inkscape (http://www.inkscape.org/) -->

<svg
   width="48"
   height="48"
   viewBox="0 0 48 48"
   version="1.1"
   id="svg990"
   inkscape:version="1.2.2 (b0a8486541, 2022-12-01)"
   xml:space="preserve"
   sodipodi:docname="lighthouse.svg"
   xmlns:inkscape="http://www.inkscape.org/namespaces/inkscape"
   xmlns:sodipodi="http://sodipodi.sourceforge.net/DTD/sodipodi-0.dtd"
   xmlns="http://www.w3.org/2000/svg"
   xmlns:svg="http://www.w3.org/2000/svg"><sodipodi:namedview
     id="namedview992"
     pagecolor="#858585"
     bordercolor="#000000"
     borderopacity="0.25"
     inkscape:showpageshadow="2"
     inkscape:pageopacity="0"
     inkscape:pagecheckerboard="0"
     inkscape:deskcolor="#d1d1d1"
     inkscape:document-units="px"
     showgrid="false"
     inkscape:zoom="11"
     inkscape:cx="16.272727"
     inkscape:cy="24"
     inkscape:window-width="1366"
     inkscape:window-height="737"
     inkscape:window-x="0"
     inkscape:window-y="0"
     inkscape:window-maximized="1"
     inkscape:current-layer="svg990" /><defs
     id="defs987"><style
       id="style1174">.a{fill:none;stroke:#fff;stroke-linecap:round;stroke-linejoin:round;}</style></defs><path
     id="circle13772"
     style="display:inline;fill:none;stroke:#ffffff;stroke-linecap:round;stroke-linejoin:round"
     class="a"
     d="M 45.5,24 A 21.5,21.5 0 0 1 24,45.5 21.5,21.5 0 0 1 2.5,24 21.5,21.5 0 0 1 24,2.5 21.5,21.5 0 0 1 45.5,24 Z m -17.335399,-1.027809 6.151629,3.262093 m 1.380479,0.732042 3.061671,1.623547 m 2.123428,1.126013 3.235011,1.715465 M 27.299967,20.019236 34.081743,16.057328 m 1.339174,-0.782345 3.114764,-1.819641 m 2.171943,-1.26885 0.895082,-0.522907 M 18.245185,24.96496 18.090322,26.513212 m -1.749921,17.494825 0.433693,-4.335838 m 1.043793,-10.435321 -0.339657,3.395463 3.397524,3.185552 m -3.397524,-3.185295 -0.3361,3.359907 3.610531,3.398071 h 6.569636 l 3.610531,-3.398071 -0.336101,-3.359907 m -0.766955,-7.667638 0.154864,1.548252 m 1.749921,17.494825 -0.433693,-4.335838 m -1.043793,-10.435321 0.339656,3.395463 -3.397524,3.185552 m -0.232504,-6.401325 3.017937,-2.903613 0.272435,2.723666 -3.190618,2.926393 m 0.13275,3.655135 h -6.323449 m 0.13275,-3.655135 -3.190617,-2.926393 0.272435,-2.723666 3.017937,2.903613 m -0.09976,2.746702 h 6.057949 m -0.09975,-2.746446 h -5.85844 m 9.824569,6.575937 0.368036,3.679181 -3.828992,3.653103 h -6.868786 l -3.828992,-3.653103 0.368036,-3.679181 m 10.40101,-16.130013 3.46426,3.276166 0.157447,0.521049 -3.501379,3.388959 H 20.41149 l -3.501378,-3.388959 0.157447,-0.521049 3.464259,-3.276166 m 0.246439,0.207539 -1.019099,2.778271 2.33539,2.112914 m 0,0 h 3.885862 m 1.316291,-4.891185 1.019098,2.778271 -2.335389,2.112914 m -1.127692,-9.04284 c 1.62064,0.883122 2.871806,1.75866 3.869521,2.579651 l -2.263991,2.462674 m -1.60553,-5.042325 H 23.22224 m -2.424343,4.151655 0.818813,0.89067 m 4.841538,0 H 21.61671 m 1.60553,-5.042325 c -1.62064,0.883122 -2.871806,1.75866 -3.869522,2.579651 l 1.445179,1.572004" /></svg>
