<?xml version="1.0" encoding="UTF-8" standalone="no"?>
<!-- Created with Inkscape (http://www.inkscape.org/) -->

<svg
   width="48"
   height="48"
   viewBox="0 0 48 48"
   version="1.1"
   id="svg990"
   inkscape:version="1.2.2 (b0a8486541, 2022-12-01)"
   xml:space="preserve"
   sodipodi:docname="perspective.svg"
   xmlns:inkscape="http://www.inkscape.org/namespaces/inkscape"
   xmlns:sodipodi="http://sodipodi.sourceforge.net/DTD/sodipodi-0.dtd"
   xmlns="http://www.w3.org/2000/svg"
   xmlns:svg="http://www.w3.org/2000/svg"><sodipodi:namedview
     id="namedview992"
     pagecolor="#858585"
     bordercolor="#000000"
     borderopacity="0.25"
     inkscape:showpageshadow="2"
     inkscape:pageopacity="0"
     inkscape:pagecheckerboard="0"
     inkscape:deskcolor="#d1d1d1"
     inkscape:document-units="px"
     showgrid="false"
     inkscape:zoom="11.645833"
     inkscape:cx="9.1019681"
     inkscape:cy="17.173525"
     inkscape:window-width="1366"
     inkscape:window-height="737"
     inkscape:window-x="0"
     inkscape:window-y="0"
     inkscape:window-maximized="1"
     inkscape:current-layer="svg990" /><defs
     id="defs987"><style
       id="style1174">.a{fill:none;stroke:#fff;stroke-linecap:round;stroke-linejoin:round;}</style></defs><path
     id="path10284"
     style="fill:none;stroke:#ffffff;stroke-width:0.999932;stroke-linecap:round;stroke-linejoin:round;stroke-dasharray:none;stroke-opacity:1;stop-color:#000000"
     d="M 13.184379,14.341448 A 3.2257882,3.2257882 0 0 1 9.9585909,17.567236 3.2257882,3.2257882 0 0 1 6.7328031,14.341448 3.2257882,3.2257882 0 0 1 9.9585909,11.11566 3.2257882,3.2257882 0 0 1 13.184379,14.341448 Z m -2.232837,17.156675 a 3.2257882,3.2257882 0 0 1 -3.225788,3.225788 3.2257882,3.2257882 0 0 1 -3.2257882,-3.225788 3.2257882,3.2257882 0 0 1 3.2257882,-3.225788 3.2257882,3.2257882 0 0 1 3.225788,3.225788 z m 32.548492,6.578874 a 3.2257882,3.2257882 0 0 1 -3.225788,3.225788 3.2257882,3.2257882 0 0 1 -3.225788,-3.225788 3.2257882,3.2257882 0 0 1 3.225788,-3.225788 3.2257882,3.2257882 0 0 1 3.225788,3.225788 z M 41.377865,9.9230024 A 3.2257882,3.2257882 0 0 1 38.152077,13.14879 3.2257882,3.2257882 0 0 1 34.926289,9.9230024 3.2257882,3.2257882 0 0 1 38.152077,6.6972146 3.2257882,3.2257882 0 0 1 41.377865,9.9230024 Z M 13.101423,13.820476 34.977166,10.257922 m 3.167298,2.889844 1.84689,21.750288 m -2.849372,2.59144 -26.319161,-5.164733 M 8.1365976,28.336218 9.6229366,17.512742" /></svg>
